<?xml version="1.0" encoding="UTF-8"?><svg xmlns="http://www.w3.org/2000/svg" width="100%" height="100%"><defs><font id="web" horiz-adv-x="1061"><!--



NOTICE: This font software is the valuable property 
of Monotype Imaging and/or its suppliers and its use 
by you is covered under the terms of the Web Font license 
agreement between you and Monotype Imaging. You may 
ONLY use this font software with the licensed web site. 
Except as specifically permitted by the license, you 
may not copy this font software. If you have any questions, 
please contact Monotype Imaging. 

For more information, please visit http://www.ascenderfonts.com/info/webfont-eula.aspx

Licensed to: isobar.com

Serial number: SH-138
--><font-face font-family="" units-per-em="2048" panose-1="2 15 7 2 3 4 4 3 2 4" ascent="1950" descent="-550" alphabetic="0"/><missing-glyph horiz-adv-x="1038" d="M987 1294V0H42V1294H987ZM879 101V1193H147V101H879ZM780 845Q780 788 764 744T718 669T647 620T556 596L551 475Q550 462 529 457T470 451Q447 451 432 452T407 455T393 462T389 475L381 632Q378 672 393 687T439 702H452Q489 702 514 712T556 741T579 783T587 836Q587 897 550 934T435 972Q400 972 373 966T326 952T293 938T275 931Q271 931 267 933T260 943T256 963T254 1000Q254 1026 256 1040T267 1061Q274 1069 293 1077T340 1093T400 1105T468 1110Q553 1110 612 1089T709 1032T763 948T780 845ZM574 284Q574 258 569 240T552 210T521 193T473 188Q444 188 425 193T393 209T376 239T371 284Q371 312 376 330T393 361T424 378T473 383Q501 383 520 378T552 361T569 331T574 284Z"/><glyph unicode="&#9;" horiz-adv-x="463"/><glyph unicode="&#13;" horiz-adv-x="463"/><glyph unicode=" " horiz-adv-x="463"/><glyph unicode="!" horiz-adv-x="667" d="M481 424Q480 414 475 406T458 393T424 384T371 381Q339 381 318 384T285 392T267 406T261 424L235 1332Q235 1345 241 1355T262 1371T304 1381T371 1384Q411 1384 437 1381T478 1371T500 1355T507 1332L481 424ZM512 131Q512 90 506 62T483 17T439 -7T371 -15Q330 -15 303 -8T259 17T237 62T230 131Q230 173 236 201T259 247T302 272T371 280Q412 280 439 273T482 248T505 202T512 131Z"/><glyph unicode="&quot;" horiz-adv-x="898" d="M707 910Q707 900 703 892T688 879T660 871T617 868Q590 868 573 871T545 879T531 892T526 910L502 1357Q502 1367 508 1375T527 1388T563 1396T617 1399Q649 1399 671 1397T706 1389T725 1375T730 1357L707 910ZM326 910Q326 900 322 892T307 879T280 871T236 868Q209 868 192 871T165 879T150 892T145 910L122 1357Q121 1367 127 1375T146 1388T182 1396T236 1399Q301 1399 325 1389T350 1357L326 910Z"/><glyph unicode="#" horiz-adv-x="1020" d="M991 886Q991 862 988 846T980 819T968 805T952 800H838L804 515H902Q919 515 929 496T940 430Q940 406 937 389T929 362T917 348T901 343H782L745 30Q744 21 740 15T724 3T693 -4T643 -6Q611 -6 592 -4T562 3T549 14T546 30L584 343H360L323 30Q322 22 318 15T302 3T272 -4T220 -6Q189 -6 170 -4T141 3T127 14T125 30L161 343H66Q49 343 39 362T28 428Q28 452 31 469T39 496T51 510T67 515H183L217 800H116Q99 800 89 819T78 885Q78 933 89 952T117 971H237L273 1263Q273 1272 278 1278T295 1290T327 1297T378 1300Q409 1300 428 1298T457 1290T469 1279T472 1264L435 971H659L693 1263Q694 1271 699 1278T715 1290T747 1297T799 1300Q830 1300 849 1298T878 1290T890 1279T892 1264L857 971H953Q970 971 980 952T991 886ZM415 800L381 515H604L639 800H415Z"/><glyph unicode="$" horiz-adv-x="1038" d="M951 393Q951 307 921 238T834 119T699 39T524 1L503 -213Q502 -221 499 -227T486 -237T460 -243T418 -246Q386 -246 367 -243T336 -235T322 -220T320 -200L341 3Q298 9 260 18T191 39T138 63T104 86T87 120T82 187Q82 221 84 243T91 277T103 293T121 298Q134 298 159 283T223 250T317 217T448 202Q565 202 622 245T679 361Q679 409 655 440T589 494T497 536T391 576T286 625T193 694T128 793T103 935Q103 1010 128 1071T200 1179T315 1253T471 1292L491 1493Q492 1501 495 1506T508 1516T534 1523T576 1525Q607 1525 627 1522T659 1514T673 1499T676 1479L656 1290Q684 1286 715 1279T773 1263T822 1243T852 1224T865 1207T872 1186T876 1156T877 1115Q877 1084 876 1064T870 1034T861 1020T849 1016Q836 1016 811 1029T750 1057T666 1085T561 1098Q509 1098 472 1088T412 1060T378 1017T367 962Q367 915 392 883T458 828T552 786T659 746T766 698T860 630T926 532T951 393Z"/><glyph unicode="%" horiz-adv-x="1493" d="M656 976Q656 897 639 834T584 725T490 655T352 630Q267 630 210 655T119 724T71 831T57 968Q57 1043 74 1105T127 1214T221 1285T360 1311Q449 1311 506 1284T597 1211T643 1104T656 976ZM458 969Q458 1024 452 1062T434 1125T402 1160T355 1171Q330 1171 311 1161T280 1127T261 1066T255 974Q255 912 262 873T282 811T314 780T358 771Q387 771 406 782T436 818T453 879T458 969ZM1436 329Q1436 250 1419 187T1364 78T1270 8T1132 -17Q1047 -17 990 8T899 77T851 184T837 321Q837 396 854 458T907 567T1001 638T1140 664Q1229 664 1286 637T1377 564T1423 457T1436 329ZM1238 322Q1238 377 1232 415T1214 478T1182 513T1135 524Q1110 524 1091 514T1060 480T1041 419T1035 327Q1035 265 1042 226T1062 164T1094 133T1138 124Q1167 124 1186 135T1216 171T1233 232T1238 322ZM383 7Q374 -5 365 -12T341 -25T307 -32T258 -34Q225 -34 206 -30T178 -18T170 0T183 26L1105 1289Q1114 1300 1123 1308T1146 1321T1181 1328T1230 1330Q1263 1330 1282 1326T1310 1314T1317 1295T1305 1270L383 7Z"/><glyph unicode="&amp;" horiz-adv-x="1443" d="M82 361Q82 417 98 466T148 560T229 644T342 722Q306 768 280 808T236 886T210 956T201 1023Q201 1093 226 1154T304 1261T439 1332T636 1359Q741 1359 817 1339T942 1283T1015 1193T1039 1072Q1039 1012 1019 961T957 864T853 776T708 690Q735 659 768 625T837 556T909 487T979 424Q992 444 1002 470T1020 525T1032 584T1037 643V674Q1037 685 1041 693T1057 706T1093 713T1154 716Q1189 716 1212 715T1248 708T1267 695T1273 673V641Q1273 593 1266 544T1246 449T1212 360T1168 280Q1203 253 1228 235T1272 207T1302 192T1322 188Q1333 188 1342 188T1358 181T1367 156T1370 103Q1370 66 1369 45T1364 14T1352 -2T1323 -14T1275 -20Q1253 -20 1230 -15T1175 6T1103 47T1008 113Q961 81 911 56T807 13T694 -13T570 -22Q505 -22 443 -12T327 18T227 70T150 143T100 240T82 361ZM466 1036Q466 1015 473 993T492 946T524 894T567 834Q626 866 665 893T729 945T763 996T773 1049Q773 1073 764 1094T736 1130T689 1155T623 1164Q581 1164 552 1155T503 1128T475 1087T466 1036ZM354 375Q354 332 370 296T416 234T490 194T593 179Q623 179 652 184T710 199T764 222T812 252Q767 288 722 328T633 410T551 491T480 568Q445 546 422 523T383 475T361 426T354 375Z"/><glyph unicode="'" horiz-adv-x="478" d="M332 910Q332 899 327 891T311 878T283 871T239 868Q212 868 195 871T166 879T151 892T145 910L122 1357Q121 1367 127 1375T148 1388T184 1396T239 1399Q272 1399 294 1397T330 1389T350 1376T355 1357L332 910Z"/><glyph unicode="(" horiz-adv-x="638" d="M535 1368Q451 1173 408 966T365 540Q365 321 408 115T534 -290Q540 -306 540 -317T529 -337T496 -349T433 -353Q405 -353 385 -351T352 -346T331 -337T320 -324Q266 -220 226 -115T160 98T120 315T107 538Q107 650 120 759T161 976T227 1190T320 1401Q322 1406 328 1410T346 1417T378 1422T431 1424Q467 1424 490 1421T525 1410T538 1392T535 1368Z"/><glyph unicode=")" horiz-adv-x="638" d="M530 538Q530 425 517 316T478 99T412 -114T318 -324Q315 -331 308 -336T287 -345T253 -351T205 -353Q164 -353 142 -349T108 -337T97 -318T103 -290Q186 -94 229 113T273 540Q273 758 230 965T102 1368Q97 1381 98 1392T112 1410T147 1420T207 1424Q238 1424 258 1423T291 1418T309 1410T318 1401Q422 1191 476 977T530 538Z"/><glyph unicode="*" horiz-adv-x="1020" d="M859 939Q879 932 878 908T847 834Q818 784 798 772T762 772L563 931L603 680Q608 659 586 648T506 637Q448 637 426 648T409 680L449 931L250 772Q235 759 215 772T165 835Q136 884 135 908T153 939L391 1031L153 1123Q134 1130 135 1154T165 1228Q194 1278 214 1291T250 1290L449 1131L409 1382Q404 1402 426 1413T506 1425Q564 1425 586 1414T603 1382L563 1131L762 1290Q778 1304 797 1291T847 1227Q876 1178 877 1154T859 1123L622 1031L859 939Z"/><glyph unicode="+" horiz-adv-x="1020" d="M968 575Q968 547 965 528T956 498T942 481T925 476H614V137Q614 127 609 120T592 107T560 98T510 95Q480 95 460 98T428 106T411 119T405 137V476H95Q86 476 79 481T65 497T56 528T52 575Q52 602 55 621T63 652T76 669T92 674H405V1012Q405 1022 410 1030T428 1044T460 1053T510 1056Q540 1056 560 1053T592 1045T609 1031T614 1012V674H928Q936 674 943 669T956 653T965 622T968 575Z"/><glyph unicode="," horiz-adv-x="528" d="M422 184Q422 144 418 112T405 50T382 -6T347 -63L213 -255Q206 -265 198 -272T177 -283T148 -289T105 -292Q76 -292 58 -290T32 -282T24 -269T28 -250L150 26V184Q150 218 158 239T183 271T226 285T289 289Q324 289 349 286T390 271T414 239T422 184Z"/><glyph unicode="-" horiz-adv-x="627" d="M568 503Q568 445 557 422T522 399H106Q81 399 70 422T59 503Q59 559 70 582T106 605H522Q534 605 542 600T557 583T565 551T568 503Z"/><glyph unicode="." horiz-adv-x="547" d="M422 144Q422 51 390 19T273 -13Q189 -13 157 18T125 138Q125 232 157 264T275 296Q358 296 390 265T422 144Z"/><glyph unicode="/" horiz-adv-x="880" d="M252 -259Q247 -272 239 -280T217 -293T181 -300T126 -303Q85 -303 59 -299T20 -287T4 -267T8 -237L606 1442Q610 1455 618 1463T640 1477T676 1484T731 1487Q773 1487 798 1483T837 1471T852 1451T849 1421L252 -259Z"/><glyph unicode="0" horiz-adv-x="1038" d="M982 652Q982 497 957 372T876 159T729 24T507 -23Q374 -23 287 22T149 153T78 362T57 642Q57 796 82 921T164 1135T311 1270T532 1317Q665 1317 752 1272T891 1141T962 932T982 652ZM717 639Q717 731 712 801T697 924T671 1012T633 1069T583 1100T521 1109Q462 1109 424 1081T363 995T331 853T322 655Q322 517 333 427T367 283T428 208T517 186Q556 186 586 198T638 236T676 299T700 387T713 500T717 639Z"/><glyph unicode="1" horiz-adv-x="1038" d="M944 100Q944 72 941 53T933 22T920 5T904 0H190Q182 0 175 5T163 21T154 52T151 100Q151 129 153 148T161 180T174 197T190 203H431V1045L223 930Q200 919 186 917T163 922T151 952T148 1011Q148 1035 149 1050T154 1077T165 1095T184 1110L462 1290Q467 1294 474 1296T494 1300T525 1302T576 1303Q614 1303 637 1302T673 1297T689 1287T693 1272V203H904Q913 203 920 198T933 180T941 149T944 100Z"/><glyph unicode="2" horiz-adv-x="1038" d="M956 107Q956 78 954 58T946 24T933 6T915 0H171Q149 0 133 4T107 19T93 53T88 110Q88 143 91 166T102 208T122 244T155 283L379 523Q446 593 487 650T551 755T582 843T591 919Q591 952 581 981T550 1033T498 1067T425 1080Q366 1080 321 1065T241 1032T183 998T147 982Q138 982 132 988T121 1008T115 1045T112 1103Q112 1126 113 1141T118 1168T126 1188T143 1209T189 1239T272 1275T380 1305T503 1317Q604 1317 679 1292T805 1221T879 1113T904 978Q904 915 892 854T842 723T735 567T552 368L401 213H911Q921 213 929 207T944 189T953 156T956 107Z"/><glyph unicode="3" horiz-adv-x="1038" d="M950 379Q950 282 913 207T810 81T652 4T451 -23Q385 -23 327 -14T225 10T151 39T113 62T100 80T92 103T87 137T85 187Q85 235 93 253T117 272Q127 272 151 259T214 230T303 201T419 187Q474 187 516 200T587 236T631 293T646 368Q646 413 629 449T577 510T490 550T366 564H254Q241 564 232 567T217 582T209 612T206 663Q206 692 208 710T216 739T230 753T251 757H364Q422 757 467 770T542 809T589 869T605 948Q605 981 594 1010T562 1061T506 1095T426 1108Q374 1108 328 1093T246 1059T184 1024T146 1008Q138 1008 132 1011T122 1025T116 1054T114 1103Q114 1128 115 1144T119 1172T126 1191T141 1208T182 1237T260 1274T368 1304T502 1317Q596 1317 668 1295T790 1232T865 1130T891 993Q891 934 876 883T832 792T760 724T659 682V679Q727 671 781 645T872 578T930 488T950 379Z"/><glyph unicode="4" horiz-adv-x="1038" d="M996 372Q996 321 986 295T957 268H842V34Q842 24 836 17T815 4T776 -3T714 -6Q678 -6 654 -4T615 4T595 16T589 34V268H94Q80 268 69 271T51 287T40 323T36 386Q36 418 37 441T42 484T52 520T69 556L471 1265Q476 1274 488 1280T521 1291T576 1298T656 1300Q707 1300 743 1298T800 1290T832 1276T842 1257V478H957Q973 478 984 454T996 372ZM589 1073H587L246 478H589V1073Z"/><glyph unicode="5" horiz-adv-x="1038" d="M944 420Q944 315 908 233T805 94T645 7T437 -23Q377 -23 323 -16T226 3T156 26T120 45T107 62T101 83T97 115T96 160Q96 188 98 207T104 239T115 256T129 261Q139 261 159 250T213 224T295 199T410 187Q468 187 515 199T596 237T647 304T665 400Q665 448 650 485T603 549T520 588T396 601Q338 601 291 595T201 589Q172 589 160 603T147 657V1219Q147 1259 162 1276T212 1294H825Q834 1294 842 1288T855 1269T863 1235T866 1183Q866 1123 856 1096T825 1069H365V792Q400 796 434 797T507 798Q612 798 693 774T830 702T915 584T944 420Z"/><glyph unicode="6" horiz-adv-x="1038" d="M976 432Q976 334 946 251T858 107T715 12T519 -23Q429 -23 362 -3T246 56T166 150T117 274T91 424T84 596Q84 672 91 755T120 918T181 1070T281 1197T430 1284T638 1316Q676 1316 714 1312T786 1300T842 1284T872 1269T884 1254T890 1237T894 1213T895 1179Q895 1148 894 1128T888 1096T877 1079T860 1074Q848 1074 829 1080T783 1095T720 1109T635 1115Q554 1115 498 1085T407 1004T356 884T339 740Q361 754 389 768T451 792T524 808T607 815Q705 815 775 788T889 711T955 590T976 432ZM718 407Q718 458 709 496T680 561T627 601T547 615Q519 615 492 610T439 596T389 575T344 548Q344 441 356 370T391 256T450 197T533 179Q579 179 613 196T671 244T706 316T718 407Z"/><glyph unicode="7" horiz-adv-x="1038" d="M955 1183Q955 1154 953 1133T948 1093T938 1058T924 1022L498 35Q492 22 483 14T456 2T413 -4T347 -6Q294 -6 263 -3T218 8T202 27T209 56L667 1066H123Q102 1066 92 1093T81 1181Q81 1211 84 1232T92 1268T105 1288T123 1294H892Q910 1294 922 1291T941 1275T951 1241T955 1183Z"/><glyph unicode="8" horiz-adv-x="1038" d="M976 347Q976 259 946 190T856 74T708 2T505 -23Q395 -23 312 -1T173 63T89 168T61 312Q61 367 77 415T126 505T207 583T319 653Q268 681 227 713T157 784T113 869T98 969Q98 1047 125 1110T207 1220T344 1292T534 1317Q641 1317 717 1294T843 1229T915 1129T939 999Q939 952 924 908T880 823T811 748T718 683Q779 651 827 615T908 538T958 449T976 347ZM686 975Q686 1010 676 1038T645 1085T592 1115T517 1125Q433 1125 392 1087T351 980Q351 948 361 921T394 870T451 823T534 774Q607 817 646 866T686 975ZM716 329Q716 366 704 396T665 454T598 506T505 557Q459 532 424 507T366 455T332 397T320 331Q320 253 370 212T521 171Q619 171 667 213T716 329Z"/><glyph unicode="9" horiz-adv-x="1038" d="M959 706Q959 627 951 543T921 377T859 223T757 96T605 9T393 -23Q350 -23 308 -17T230 -2T171 17T135 37T119 68T114 124Q114 157 115 177T121 208T132 222T148 226Q160 226 182 219T235 203T307 187T396 180Q480 180 538 210T632 291T685 409T704 550Q658 521 593 500T444 478Q341 478 269 505T152 583T87 707T66 872Q66 969 95 1050T181 1191T323 1284T520 1317Q610 1317 677 1296T793 1236T874 1142T925 1018T951 871T959 706ZM698 742Q698 849 686 921T650 1036T590 1097T506 1115Q459 1115 425 1099T369 1052T335 981T324 891Q324 838 333 798T363 731T417 691T497 678Q555 678 606 695T698 742Z"/><glyph unicode=":" horiz-adv-x="565" d="M442 790Q442 748 435 720T412 674T368 649T300 641Q259 641 232 648T189 674T166 720T160 790Q160 833 166 862T188 909T232 935T300 943Q341 943 368 935T411 909T435 862T442 790ZM442 137Q442 95 435 67T412 20T368 -5T300 -13Q259 -13 232 -6T189 20T166 66T160 137Q160 179 166 208T188 256T232 281T300 289Q341 289 368 282T411 256T435 209T442 137Z"/><glyph unicode=";" horiz-adv-x="565" d="M442 790Q442 748 435 720T412 674T368 649T300 641Q259 641 232 648T189 674T166 720T160 790Q160 833 166 862T188 909T232 935T300 943Q341 943 368 935T411 909T435 862T442 790ZM442 184Q442 144 438 112T426 50T403 -6T369 -63L239 -251Q232 -261 224 -268T203 -279T175 -286T133 -288Q105 -288 88 -286T63 -279T55 -265T59 -246L176 26V184Q176 218 184 239T208 271T251 285T312 289Q346 289 370 286T411 271T434 239T442 184Z"/><glyph unicode="&lt;" horiz-adv-x="1020" d="M915 174Q915 137 912 116T903 86T887 78T862 86L95 468Q81 476 75 501T68 578Q68 604 70 623T75 655T83 675T96 687L862 1067Q891 1081 903 1062T915 982Q915 941 914 917T908 879T897 859T878 847L302 577L867 315Q882 308 891 301T906 280T913 241T915 174Z"/><glyph unicode="=" horiz-adv-x="1020" d="M934 779Q934 726 923 704T890 682H127Q106 682 95 704T83 779Q83 830 93 852T127 874H890Q913 874 923 852T934 779ZM934 375Q934 321 923 300T890 279H127Q106 279 95 300T83 375Q83 426 93 448T127 471H890Q913 471 923 449T934 375Z"/><glyph unicode="&gt;" horiz-adv-x="1020" d="M950 575Q950 549 948 530T943 498T934 478T921 467L154 87Q140 80 130 81T114 92T105 121T102 171Q102 212 103 236T109 274T120 294T139 306L715 576L150 838Q134 845 125 852T110 873T104 912T102 979Q102 1016 104 1037T113 1067T130 1075T154 1067L922 684Q935 678 942 652T950 575Z"/><glyph unicode="?" horiz-adv-x="949" d="M866 988Q866 906 843 840T777 726T675 649T543 612L535 417Q534 399 507 390T427 381Q394 381 372 382T336 388T317 399T310 417L301 653Q300 685 304 705T318 737T345 753T383 758H397Q450 758 488 775T552 820T588 886T600 967Q600 1015 587 1055T546 1124T477 1168T379 1184Q328 1184 289 1174T222 1152T176 1130T147 1120Q140 1120 134 1124T124 1141T118 1175T115 1231Q115 1266 118 1282T131 1308T169 1331T236 1356T323 1376T423 1384Q541 1384 625 1352T762 1264T841 1138T866 988ZM570 131Q570 90 564 62T541 17T497 -7T429 -15Q387 -15 360 -8T317 17T294 62T287 131Q287 173 293 201T316 247T360 272T429 280Q469 280 496 273T540 248T563 202T570 131Z"/><glyph unicode="@" horiz-adv-x="1840" d="M1711 769Q1711 696 1701 622T1669 479T1611 350T1527 246T1412 177T1265 151Q1216 151 1176 160T1106 188T1057 234T1027 298Q988 258 951 231T877 185T804 159T731 151Q684 151 648 162T586 194T542 240T513 299T498 366T493 437Q493 484 500 542T525 660T572 777T644 878T744 950T877 977Q911 977 940 970T996 948T1048 909T1102 850L1119 927Q1123 945 1143 954T1216 963Q1242 963 1259 961T1287 954T1300 943T1302 927L1216 480Q1202 406 1220 372T1293 337Q1328 337 1357 356T1407 407T1444 482T1468 571T1482 665T1487 757Q1487 837 1465 908T1388 1034T1238 1120T997 1152Q899 1152 819 1133T674 1079T560 997T473 895T411 777T370 650T348 522T341 398Q341 289 365 203T448 57T605 -34T852 -66Q929 -66 992 -57T1103 -38T1181 -19T1222 -10Q1229 -10 1234 -13T1242 -27T1246 -54T1248 -97Q1248 -119 1247 -134T1244 -159T1237 -177T1227 -190T1190 -207T1106 -228T983 -247T828 -255Q638 -255 504 -212T285 -86T160 114T120 379Q120 461 131 546T167 714T229 875T321 1024T443 1152T599 1253T790 1318T1020 1341Q1203 1341 1333 1300T1548 1184T1671 1004T1711 769ZM1039 680Q1009 735 977 763T903 791Q868 791 841 775T792 731T757 669T733 598T719 528T715 467Q715 407 737 372T811 337Q830 337 850 343T893 364T941 402T998 459L1039 680Z"/><glyph unicode="A" horiz-adv-x="1241" d="M1201 98Q1213 62 1216 41T1208 10T1169 -3T1092 -6Q1041 -6 1013 -5T969 1T948 14T938 35L851 295H365L283 42Q279 28 273 19T252 4T211 -4T141 -6Q95 -6 69 -3T33 11T26 44T41 100L440 1248Q446 1265 454 1275T479 1291T528 1298T610 1300Q669 1300 704 1299T758 1292T786 1275T801 1245L1201 98ZM607 1047H606L423 497H790L607 1047Z"/><glyph unicode="B" horiz-adv-x="1148" d="M1078 388Q1078 319 1059 263T1007 164T927 90T824 39T705 10T563 0H219Q186 0 164 19T141 83V1211Q141 1255 163 1274T219 1294H544Q663 1294 745 1274T884 1214T971 1111T1001 965Q1001 918 989 877T954 801T898 741T821 699Q876 689 922 664T1003 600T1058 507T1078 388ZM738 933Q738 972 726 1003T690 1054T630 1086T532 1097H399V761H546Q603 761 637 774T693 811T727 866T738 933ZM805 379Q805 424 790 459T746 519T672 556T555 569H399V201H589Q644 201 681 212T746 246T789 302T805 379Z"/><glyph unicode="C" horiz-adv-x="1084" d="M1036 196Q1036 171 1035 154T1030 124T1022 102T1006 82T964 52T887 18T783 -10T656 -21Q523 -21 416 20T234 142T119 346T79 630Q79 795 123 923T246 1138T435 1270T679 1315Q733 1315 783 1306T875 1283T952 1249T999 1217T1018 1194T1026 1171T1030 1138T1032 1091Q1032 1061 1030 1040T1023 1006T1011 987T995 981Q980 981 957 998T898 1037T811 1076T690 1094Q613 1094 553 1063T450 973T385 831T363 644Q363 530 386 447T453 309T558 229T697 202Q767 202 818 218T905 255T965 291T1002 307Q1012 307 1018 303T1028 287T1034 254T1036 196Z"/><glyph unicode="D" horiz-adv-x="1291" d="M1216 666Q1216 488 1170 362T1036 155T825 38T528 0H219Q186 0 164 19T141 83V1211Q141 1255 163 1274T219 1294H551Q724 1294 844 1254T1047 1134T1173 937T1216 666ZM944 657Q944 749 923 828T854 965T732 1055T536 1088H403V208H540Q648 208 722 236T845 320T919 461T944 657Z"/><glyph unicode="E" horiz-adv-x="999" d="M908 103Q908 74 906 55T898 23T886 6T869 0H219Q186 0 164 19T141 83V1211Q141 1255 163 1274T219 1294H865Q874 1294 881 1289T893 1272T900 1240T903 1190Q903 1162 901 1143T893 1111T881 1094T865 1088H403V772H794Q803 772 810 767T823 750T830 719T833 671Q833 642 831 623T823 593T811 576T794 571H403V206H869Q878 206 885 201T898 183T905 152T908 103Z"/><glyph unicode="F" horiz-adv-x="940" d="M867 1186Q867 1156 865 1136T857 1103T844 1085T828 1079H405V731H802Q811 731 818 726T830 709T838 677T841 627Q841 597 839 577T831 544T818 526T802 520H405V38Q405 27 399 19T378 6T337 -3T273 -6Q235 -6 210 -3T169 5T148 19T141 38V1211Q141 1255 163 1274T219 1294H828Q837 1294 844 1289T856 1271T864 1237T867 1186Z"/><glyph unicode="G" horiz-adv-x="1305" d="M1179 1093Q1179 1064 1177 1043T1170 1010T1159 992T1143 987Q1130 987 1101 1005T1024 1044T910 1083T755 1101Q661 1101 585 1069T455 977T372 834T343 649Q343 538 372 454T455 312T582 226T747 197Q791 197 834 207T914 237V537H669Q651 537 641 559T631 636Q631 664 633 683T641 713T653 730T669 736H1106Q1122 736 1134 731T1156 714T1171 688T1176 652V137Q1176 107 1166 85T1123 49T1042 22T943 -2T839 -17T733 -22Q578 -22 456 22T248 151T118 357T73 633Q73 792 121 918T257 1133T469 1269T747 1316Q831 1316 900 1305T1020 1277T1106 1241T1153 1208T1173 1169T1179 1093Z"/><glyph unicode="H" horiz-adv-x="1292" d="M1151 36Q1151 26 1145 18T1123 5T1083 -3T1020 -6Q981 -6 956 -3T916 5T895 18T888 36V559H404V36Q404 26 398 18T377 5T337 -3T273 -6Q235 -6 210 -3T169 5T148 18T141 36V1258Q141 1268 147 1276T169 1289T209 1297T273 1300Q312 1300 337 1297T377 1289T398 1276T404 1258V783H888V1258Q888 1268 894 1276T915 1289T955 1297T1020 1300Q1058 1300 1083 1297T1123 1289T1144 1276T1151 1258V36Z"/><glyph unicode="I" horiz-adv-x="546" d="M405 36Q405 26 399 18T377 5T337 -3T273 -6Q235 -6 210 -3T169 5T148 18T141 36V1258Q141 1268 147 1276T169 1289T210 1297T273 1300Q312 1300 337 1297T377 1289T398 1276T405 1258V36Z"/><glyph unicode="J" horiz-adv-x="678" d="M539 360Q539 272 523 202T467 82T363 6T205 -20Q175 -20 146 -16T92 -4T49 11T25 25T15 39T8 57T4 86T3 129Q3 163 4 186T9 223T19 242T36 248Q45 248 57 242T84 228T119 215T166 208Q193 208 213 215T247 241T268 291T275 371V1260Q275 1270 281 1277T302 1290T343 1297T407 1300Q445 1300 470 1298T510 1290T532 1278T539 1260V360Z"/><glyph unicode="K" horiz-adv-x="1120" d="M1086 39Q1086 28 1081 20T1060 6T1017 -3T949 -6Q884 -6 856 -1T815 14T795 38L404 652V38Q404 27 398 19T377 6T337 -3T273 -6Q235 -6 210 -3T169 5T148 19T141 38V1257Q141 1268 147 1276T169 1289T209 1297T273 1300Q312 1300 337 1297T377 1289T398 1276T404 1257V706L783 1256Q790 1269 800 1277T826 1291T867 1298T931 1300Q971 1300 997 1297T1038 1289T1060 1275T1066 1257Q1066 1240 1057 1222T1023 1165L668 700L1055 115Q1077 74 1081 61T1086 39Z"/><glyph unicode="L" horiz-adv-x="866" d="M852 110Q852 80 850 60T842 26T830 6T812 0H219Q186 0 164 19T141 83V1258Q141 1268 147 1276T169 1289T209 1297T273 1300Q312 1300 337 1297T377 1289T398 1276T405 1258V217H812Q822 217 829 212T842 194T849 161T852 110Z"/><glyph unicode="M" horiz-adv-x="1790" d="M1649 36Q1649 26 1644 18T1624 5T1585 -3T1524 -6Q1488 -6 1464 -3T1426 5T1406 18T1400 36V1089H1398L1023 37Q1019 24 1010 16T986 2T946 -4T888 -6Q854 -6 830 -4T791 4T766 18T754 37L392 1089H390V36Q390 26 385 18T364 5T326 -3T265 -6Q229 -6 205 -3T167 5T147 18T141 36V1189Q141 1240 168 1267T240 1294H412Q458 1294 491 1287T548 1262T588 1216T616 1145L896 374H900L1190 1143Q1203 1185 1218 1214T1254 1261T1303 1286T1368 1294H1545Q1572 1294 1591 1287T1623 1267T1642 1234T1649 1189V36Z"/><glyph unicode="N" horiz-adv-x="1349" d="M1208 92Q1208 69 1200 51T1179 21T1147 4T1109 -2H997Q962 -2 937 5T890 30T848 80T803 162L481 767Q453 821 424 883T372 1005H370Q374 933 376 862T378 714V37Q378 27 373 19T354 6T317 -3T258 -6Q223 -6 200 -3T164 5T146 19T141 37V1200Q141 1247 168 1270T236 1294H377Q415 1294 441 1288T487 1266T526 1225T563 1159L815 686Q837 643 858 602T900 519T939 437T976 357H977Q974 427 973 503T971 648V1255Q971 1265 977 1273T997 1287T1034 1295T1093 1298Q1127 1298 1150 1296T1185 1287T1203 1273T1208 1255V92Z"/><glyph unicode="O" horiz-adv-x="1385" d="M1305 662Q1305 501 1265 374T1146 159T951 24T681 -23Q530 -23 418 16T230 137T118 343T80 639Q80 796 120 921T239 1135T434 1270T705 1317Q852 1317 964 1278T1152 1158T1266 954T1305 662ZM1029 648Q1029 750 1013 833T959 976T856 1068T696 1101Q599 1101 534 1065T429 967T373 825T356 652Q356 546 372 462T426 317T528 226T689 194Q786 194 851 230T956 328T1012 472T1029 648Z"/><glyph unicode="P" horiz-adv-x="1090" d="M1027 901Q1027 792 993 708T894 567T735 479T512 449H404V36Q404 26 398 18T376 5T336 -3T272 -6Q234 -6 209 -3T168 5T147 18T141 36V1200Q141 1247 165 1270T230 1294H535Q581 1294 622 1291T722 1276T839 1233T941 1155T1005 1044T1027 901ZM752 882Q752 950 728 994T669 1059T596 1085T516 1091H404V652H522Q585 652 627 669T697 716T738 789T752 882Z"/><glyph unicode="Q" horiz-adv-x="1405" d="M1427 -123Q1427 -159 1424 -181T1414 -215T1401 -230T1386 -234Q1353 -234 1300 -216T1184 -165T1058 -83T938 29Q892 8 827 -7T681 -23Q530 -23 418 15T230 135T118 341T80 640Q80 797 120 922T239 1135T434 1270T705 1317Q850 1317 961 1278T1149 1159T1265 955T1305 664Q1305 577 1294 501T1260 359T1206 240T1133 145Q1195 91 1243 63T1323 21T1375 1T1406 -16T1422 -52T1427 -123ZM1029 650Q1029 751 1013 834T959 976T856 1068T696 1101Q599 1101 534 1065T429 968T373 826T356 654Q356 547 372 462T426 317T528 226T689 194Q786 194 851 230T956 328T1012 473T1029 650Z"/><glyph unicode="R" horiz-adv-x="1153" d="M1101 34Q1101 23 1097 16T1078 3T1034 -4T955 -6Q913 -6 888 -4T849 3T828 17T818 38L702 327Q681 376 661 414T617 477T560 516T486 529H404V36Q404 26 398 18T376 5T336 -3T272 -6Q234 -6 209 -3T168 5T147 18T141 36V1211Q141 1255 163 1274T219 1294H554Q605 1294 638 1292T698 1287Q776 1276 838 1249T944 1179T1011 1076T1034 939Q1034 874 1018 821T969 725T890 652T783 602Q812 588 837 568T885 520T928 455T967 372L1076 117Q1091 79 1096 62T1101 34ZM762 912Q762 976 733 1020T638 1082Q618 1087 593 1090T522 1093H404V726H538Q594 726 636 739T706 777T748 836T762 912Z"/><glyph unicode="S" horiz-adv-x="968" d="M908 388Q908 286 870 209T767 81T615 3T429 -23Q362 -23 305 -12T203 14T130 47T87 77T69 114T63 185Q63 216 65 237T71 271T83 289T101 295Q115 295 140 279T206 242T301 206T430 189Q478 189 516 200T580 233T621 285T635 354Q635 398 611 429T549 485T461 531T360 577T259 631T172 704T109 805T85 944Q85 1037 119 1107T212 1224T350 1294T519 1317Q565 1317 611 1310T697 1291T768 1264T809 1239T822 1222T828 1204T832 1175T833 1131Q833 1102 832 1082T827 1049T817 1030T799 1024Q788 1024 764 1038T705 1068T624 1098T523 1112Q480 1112 448 1102T395 1073T363 1028T352 973Q352 930 375 899T438 843T528 797T630 751T732 697T821 624T884 524T908 388Z"/><glyph unicode="T" horiz-adv-x="1014" d="M1002 1186Q1002 1157 1000 1137T992 1104T980 1085T963 1079H639V36Q639 26 633 18T611 5T571 -3T507 -6Q469 -6 444 -3T403 5T382 18T375 36V1079H51Q41 1079 34 1085T22 1103T15 1136T12 1186Q12 1216 14 1237T22 1270T34 1288T51 1294H963Q972 1294 979 1289T992 1271T999 1237T1002 1186Z"/><glyph unicode="U" horiz-adv-x="1337" d="M1197 482Q1197 363 1162 269T1059 110T891 11T661 -23Q539 -23 442 7T278 100T176 254T140 471V1258Q140 1268 146 1276T167 1289T208 1297T272 1300Q310 1300 335 1297T375 1289T396 1276T403 1258V494Q403 417 422 361T476 267T561 212T672 193Q734 193 783 212T866 267T918 357T937 479V1258Q937 1268 943 1276T964 1289T1004 1297T1068 1300Q1106 1300 1130 1297T1170 1289T1191 1276T1197 1258V482Z"/><glyph unicode="V" horiz-adv-x="1211" d="M785 46Q780 29 772 19T746 3T697 -4T616 -6Q576 -6 548 -6T499 -3T467 3T446 13T433 27T424 49L39 1196Q27 1232 25 1253T34 1284T77 1297T161 1300Q207 1300 233 1298T273 1291T292 1276T303 1251L618 253H619L928 1246Q932 1263 938 1273T958 1290T1000 1298T1074 1300Q1120 1300 1145 1297T1180 1283T1187 1250T1171 1194L785 46Z"/><glyph unicode="W" horiz-adv-x="1856" d="M1503 67Q1497 43 1487 29T1455 7T1401 -3T1317 -6Q1260 -6 1226 -4T1171 6T1142 28T1128 67L921 887H919L723 67Q718 44 709 30T681 7T628 -3T539 -6Q481 -6 447 -4T392 6T363 28T348 67L54 1196Q45 1232 44 1252T55 1284T96 1297T176 1300Q223 1300 250 1299T292 1292T311 1276T319 1246L546 255H547L783 1239Q787 1258 793 1270T815 1288T858 1297T930 1300Q978 1300 1006 1298T1050 1290T1073 1271T1084 1239L1328 255H1330L1557 1243Q1560 1259 1565 1270T1584 1288T1624 1297T1697 1300Q1741 1300 1765 1298T1801 1284T1811 1252T1800 1193L1503 67Z"/><glyph unicode="X" horiz-adv-x="1128" d="M1063 99Q1081 64 1086 43T1080 11T1037 -3T949 -6Q902 -6 875 -4T833 2T810 15T798 35L555 502L313 35Q307 23 300 15T278 3T235 -4T162 -6Q110 -6 82 -3T43 11T39 43T64 99L374 664L86 1195Q68 1231 62 1252T66 1284T109 1297T197 1300Q244 1300 271 1298T315 1292T337 1279T350 1259L577 831L798 1259Q804 1271 810 1279T831 1291T871 1298T942 1300Q992 1300 1021 1298T1061 1284T1067 1252T1044 1195L756 667L1063 99Z"/><glyph unicode="Y" horiz-adv-x="1064" d="M664 491V36Q664 26 658 18T636 5T596 -3T532 -6Q493 -6 468 -3T428 5T406 18T400 36V491L46 1196Q27 1233 22 1253T27 1284T70 1297T156 1300Q202 1300 229 1298T273 1291T296 1276T311 1253L455 935Q476 889 496 838T538 731H540Q559 785 579 836T618 933L760 1249Q765 1265 772 1274T795 1290T836 1298T905 1300Q962 1300 993 1298T1036 1285T1042 1253T1018 1196L664 491Z"/><glyph unicode="Z" horiz-adv-x="979" d="M936 104Q936 75 934 55T926 23T914 5T897 0H134Q94 0 73 23T51 90V134Q51 154 53 170T62 204T79 241T108 289L610 1085H112Q100 1085 92 1090T78 1108T70 1140T67 1188Q67 1218 69 1238T77 1271T91 1289T112 1294H827Q868 1294 887 1273T907 1214V1165Q907 1138 905 1119T896 1081T878 1043T850 996L356 211H897Q916 211 926 187T936 104Z"/><glyph unicode="[" horiz-adv-x="665" d="M578 -248Q578 -298 569 -318T543 -338H234Q217 -338 203 -333T179 -318T163 -292T157 -254V1332Q157 1353 163 1369T179 1395T203 1410T234 1415H543Q551 1415 558 1411T569 1396T576 1368T578 1325Q578 1274 569 1255T543 1235H392V-158H543Q551 -158 558 -162T569 -177T576 -205T578 -248Z"/><glyph unicode="\" horiz-adv-x="880" d="M866 -218Q874 -243 875 -258T865 -281T828 -290T759 -293Q719 -293 695 -291T656 -285T636 -274T625 -255L39 1396Q30 1422 29 1437T39 1459T76 1468T145 1471Q185 1471 209 1469T248 1463T268 1452T278 1433L866 -218Z"/><glyph unicode="]" horiz-adv-x="665" d="M510 -254Q510 -276 504 -292T487 -318T463 -333T432 -338H122Q105 -338 96 -318T87 -248Q87 -222 89 -205T96 -177T107 -162T122 -158H274V1235H122Q105 1235 96 1254T87 1325Q87 1351 89 1368T96 1395T107 1410T122 1415H432Q449 1415 463 1411T487 1396T503 1369T510 1332V-254Z"/><glyph unicode="^" horiz-adv-x="1020" d="M968 596Q981 568 984 551T977 525T941 514T871 511Q832 511 807 513T765 521T740 535T726 556L505 1097L500 1096L288 556Q283 544 275 536T250 522T209 514T144 511Q100 511 76 513T41 525T33 551T49 596L337 1252Q343 1265 355 1274T387 1290T437 1300T506 1304Q546 1304 575 1301T625 1291T657 1275T675 1252L968 596Z"/><glyph unicode="_" horiz-adv-x="1020" d="M1026 -272Q1026 -322 1017 -343T985 -365H35Q12 -365 3 -344T-7 -273Q-7 -223 2 -201T35 -179H985Q1007 -179 1016 -200T1026 -272Z"/><glyph unicode="`" horiz-adv-x="615" d="M502 1135Q511 1122 513 1112T507 1096T479 1086T424 1083Q395 1083 376 1085T344 1091T323 1101T306 1118L113 1350Q103 1361 102 1371T112 1388T151 1400T224 1404Q257 1404 279 1402T317 1396T341 1383T359 1364L502 1135Z"/><glyph unicode="a" horiz-adv-x="1011" d="M886 31Q886 17 876 9T845 -2T781 -6Q736 -6 716 -3T687 9T678 31V102Q623 43 553 10T396 -23Q325 -23 266 -5T163 50T95 141T71 267Q71 345 101 402T192 497T343 553T552 571H639V625Q639 667 631 698T603 751T551 782T470 792Q407 792 358 778T270 747T207 716T165 702Q154 702 146 709T132 729T123 761T120 803Q120 834 125 852T144 884T193 916T275 949T377 973T492 983Q597 983 671 963T794 900T864 790T886 631V31ZM639 413H543Q482 413 439 404T369 377T330 334T317 275Q317 219 352 187T451 155Q504 155 548 182T639 261V413Z"/><glyph unicode="b" horiz-adv-x="1099" d="M1024 492Q1024 373 998 278T923 116T803 13T640 -23Q595 -23 556 -15T482 13T412 61T341 131V34Q341 23 336 16T318 3T284 -4T233 -6Q202 -6 182 -4T149 3T131 15T126 34V1349Q126 1359 132 1367T152 1380T191 1389T252 1392Q289 1392 313 1389T351 1381T372 1367T378 1349V856Q412 890 446 914T514 953T584 976T660 983Q759 983 828 944T940 837T1004 681T1024 492ZM763 474Q763 531 755 584T725 678T671 743T586 768Q561 768 537 761T488 737T435 693T378 626V330Q431 262 479 227T581 191Q630 191 664 216T720 281T753 372T763 474Z"/><glyph unicode="c" horiz-adv-x="857" d="M801 176Q801 150 800 133T796 103T790 84T774 65T733 37T667 7T587 -14T497 -22Q394 -22 315 10T181 104T100 257T72 463Q72 597 105 694T199 856T341 951T521 982Q561 982 599 975T671 956T731 929T769 903T784 885T791 865T795 836T797 793Q797 735 787 712T761 688Q744 688 725 702T680 733T618 764T532 778Q434 778 382 703T330 481Q330 409 343 354T381 262T445 207T535 188Q587 188 624 203T690 238T737 272T769 288Q778 288 784 283T793 265T799 230T801 176Z"/><glyph unicode="d" horiz-adv-x="1099" d="M972 34Q972 23 967 16T950 3T918 -4T867 -6Q835 -6 815 -4T783 3T765 15T759 34V133Q690 59 615 18T447 -23Q345 -23 275 16T160 123T95 279T75 468Q75 587 100 682T175 844T297 947T465 983Q540 983 601 953T722 863V1346Q722 1356 727 1364T747 1377T786 1386T847 1389Q884 1389 908 1386T946 1378T966 1364T972 1346V34ZM722 630Q668 698 619 734T515 770Q466 770 431 746T374 680T342 589T331 485Q331 429 340 376T369 282T424 215T510 190Q536 190 560 197T610 222T663 266T722 334V630Z"/><glyph unicode="e" horiz-adv-x="1031" d="M950 506Q950 460 930 438T873 416H330Q330 359 343 313T386 234T462 184T574 167Q640 167 690 176T776 197T837 218T876 228Q885 228 891 225T901 212T906 187T908 145Q908 123 907 108T904 81T898 63T888 48T852 29T778 6T675 -14T551 -23Q432 -23 343 7T193 98T104 252T74 470Q74 589 105 684T195 846T338 948T529 983Q641 983 720 950T851 859T926 720T950 546V506ZM706 578Q709 684 664 744T523 805Q475 805 440 787T381 739T345 667T330 578H706Z"/><glyph unicode="f" horiz-adv-x="648" d="M664 1266Q664 1237 662 1220T656 1193T647 1180T636 1176Q629 1176 621 1179T600 1187T570 1194T530 1198Q503 1198 484 1190T451 1163T432 1115T426 1042V960H589Q598 960 605 955T618 939T625 907T628 858Q628 803 618 780T589 756H426V34Q426 24 420 17T400 4T361 -3T300 -6Q264 -6 240 -4T201 4T181 16T175 34V756H63Q44 756 35 779T25 858Q25 887 27 907T34 938T46 955T64 960H175V1035Q175 1126 193 1194T249 1308T347 1377T488 1400Q527 1400 562 1394T617 1380T644 1366T655 1347T662 1315T664 1266Z"/><glyph unicode="g" horiz-adv-x="971" d="M930 864Q930 816 919 793T892 770H787Q809 746 818 716T828 652Q828 574 802 514T728 412T611 349T458 327Q415 327 376 337T316 362Q304 349 295 331T285 291Q285 262 310 244T382 223L599 215Q675 212 734 194T834 142T896 61T918 -46Q918 -112 889 -170T802 -272T657 -340T452 -365Q338 -365 258 -347T126 -297T51 -221T27 -123Q27 -90 35 -60T60 -3T101 50T156 98Q113 121 90 160T66 247Q66 306 93 354T163 442Q128 477 107 526T86 648Q86 726 113 787T190 891T307 956T457 979Q499 979 537 974T609 960H892Q909 960 919 938T930 864ZM607 653Q607 725 567 765T454 805Q417 805 389 793T343 759T315 709T306 649Q306 581 346 542T457 502Q495 502 523 514T569 547T597 595T607 653ZM666 -59Q666 -14 630 10T531 36L352 41Q326 22 311 5T286 -29T273 -60T270 -91Q270 -141 320 -167T463 -193Q520 -193 559 -182T622 -151T656 -109T666 -59Z"/><glyph unicode="h" horiz-adv-x="1099" d="M978 34Q978 24 972 17T952 4T914 -3T853 -6Q816 -6 792 -4T753 4T733 16T727 34V543Q727 608 718 645T690 708T644 749T577 764Q529 764 480 729T378 627V34Q378 24 372 17T352 4T313 -3T252 -6Q215 -6 191 -4T153 4T132 16T126 34V1349Q126 1359 132 1367T152 1380T191 1389T252 1392Q289 1392 313 1389T351 1381T372 1367T378 1349V856Q443 920 510 951T651 983Q742 983 804 953T905 871T961 750T978 581V34Z"/><glyph unicode="i" horiz-adv-x="503" d="M378 34Q378 24 372 17T352 4T313 -3T252 -6Q215 -6 191 -4T153 4T132 16T126 34V924Q126 934 132 941T152 954T191 963T252 966Q289 966 313 963T351 955T372 942T378 924V34ZM397 1228Q397 1152 366 1123T251 1094Q166 1094 137 1122T107 1223Q107 1299 137 1328T253 1358Q337 1358 367 1330T397 1228Z"/><glyph unicode="j" horiz-adv-x="523" d="M397 4Q397 -101 379 -166T325 -275T233 -342T104 -365Q63 -365 34 -360T-8 -348T-26 -333T-33 -313T-36 -287T-37 -249Q-37 -221 -36 -203T-30 -173T-21 -157T-8 -152Q-3 -152 12 -154T46 -157Q72 -157 91 -149T122 -124T140 -79T146 9V924Q146 934 152 941T172 954T210 963T271 966Q308 966 332 963T370 955T391 942T397 924V4ZM416 1228Q416 1152 386 1123T270 1094Q186 1094 156 1122T126 1223Q126 1299 157 1328T272 1358Q357 1358 386 1330T416 1228Z"/><glyph unicode="k" horiz-adv-x="983" d="M955 33Q955 23 950 16T930 4T890 -3T825 -6Q784 -6 759 -4T717 2T691 15T675 36L378 506V34Q378 24 372 17T352 4T313 -3T252 -6Q215 -6 191 -4T153 4T132 16T126 34V1349Q126 1359 132 1367T152 1380T191 1389T252 1392Q289 1392 313 1389T351 1381T372 1367T378 1349V566L642 921Q650 933 660 942T686 956T727 963T790 966Q827 966 852 964T893 956T915 944T921 925Q921 910 914 893T891 857L630 561L932 94Q944 74 949 60T955 33Z"/><glyph unicode="l" horiz-adv-x="503" d="M378 34Q378 24 372 17T352 4T313 -3T252 -6Q215 -6 191 -4T153 4T132 16T126 34V1349Q126 1359 132 1367T152 1380T191 1389T252 1392Q289 1392 313 1389T351 1381T372 1367T378 1349V34Z"/><glyph unicode="m" horiz-adv-x="1666" d="M1545 34Q1545 24 1539 17T1519 4T1481 -3T1420 -6Q1382 -6 1358 -4T1320 4T1300 16T1294 34V563Q1294 608 1286 645T1260 708T1216 749T1152 764Q1107 764 1061 729T961 627V34Q961 24 955 17T935 4T896 -3T836 -6Q799 -6 775 -4T737 4T716 16T710 34V563Q710 608 702 645T676 708T632 749T569 764Q523 764 477 729T378 627V34Q378 24 372 17T352 4T313 -3T252 -6Q215 -6 191 -4T153 4T132 16T126 34V926Q126 936 131 943T149 956T182 963T234 966Q266 966 287 964T319 956T336 944T341 926V823Q415 903 488 943T642 983Q697 983 741 972T819 939T879 887T921 820Q961 863 999 894T1075 944T1150 973T1227 983Q1316 983 1377 953T1475 872T1529 751T1545 605V34Z"/><glyph unicode="n" horiz-adv-x="1099" d="M978 34Q978 24 972 17T952 4T914 -3T853 -6Q816 -6 792 -4T753 4T733 16T727 34V543Q727 608 718 645T690 708T644 749T577 764Q529 764 480 729T378 627V34Q378 24 372 17T352 4T313 -3T252 -6Q215 -6 191 -4T153 4T132 16T126 34V926Q126 936 131 943T149 956T182 963T234 966Q266 966 287 964T319 956T336 944T341 926V823Q415 903 491 943T651 983Q742 983 804 953T905 872T961 751T978 585V34Z"/><glyph unicode="o" horiz-adv-x="1101" d="M1028 489Q1028 375 998 281T907 119T754 14T539 -23Q420 -23 332 10T186 106T100 261T72 471Q72 585 102 679T194 841T346 946T561 983Q681 983 769 951T914 855T1000 700T1028 489ZM769 479Q769 545 759 600T723 697T657 761T552 784Q496 784 454 764T385 704T345 609T331 482Q331 416 342 361T377 264T444 201T548 178Q605 178 647 198T716 258T756 352T769 479Z"/><glyph unicode="p" horiz-adv-x="1099" d="M1024 493Q1024 374 999 279T924 116T802 13T635 -23Q596 -23 564 -16T501 7T440 46T378 100V-320Q378 -330 372 -338T352 -351T313 -360T252 -363Q215 -363 191 -360T153 -352T132 -338T126 -320V926Q126 936 131 943T148 956T181 963T233 966Q263 966 283 964T316 956T334 944T339 926V821Q378 861 415 891T492 942T572 973T661 983Q759 983 828 945T940 839T1004 683T1024 493ZM762 475Q762 532 754 584T725 678T671 743T587 768Q562 768 538 761T488 736T435 692T378 625V331Q431 264 479 228T579 191Q628 191 662 216T719 281T751 373T762 475Z"/><glyph unicode="q" horiz-adv-x="1099" d="M972 -320Q972 -330 966 -338T946 -351T908 -360T847 -363Q810 -363 786 -360T748 -352T728 -338T722 -320V104Q686 71 652 47T584 7T514 -16T438 -23Q340 -23 271 16T159 123T95 279T75 468Q75 587 101 682T177 844T300 947T469 983Q506 983 540 976T608 950T678 902T759 829V926Q759 936 764 943T782 956T815 963T867 966Q897 966 917 964T950 956T967 944T972 926V-320ZM722 630Q668 698 619 734T515 770Q466 770 431 746T374 680T342 589T331 485Q331 429 340 376T369 281T424 215T510 190Q536 190 560 197T610 222T663 266T722 334V630Z"/><glyph unicode="r" horiz-adv-x="728" d="M699 843Q699 807 697 784T691 748T681 730T664 725Q656 725 646 728T624 736T596 743T563 747Q542 747 521 739T478 712T431 664T378 590V34Q378 24 372 17T352 4T313 -3T252 -6Q215 -6 191 -4T153 4T132 16T126 34V926Q126 936 131 943T149 956T182 963T234 966Q266 966 287 964T319 956T336 944T341 926V815Q376 865 407 897T466 949T522 975T578 983Q591 983 606 982T637 977T665 969T682 959T690 948T695 932T698 900T699 843Z"/><glyph unicode="s" horiz-adv-x="817" d="M754 286Q754 210 726 152T645 55T522 -3T368 -23Q318 -23 273 -16T191 3T131 27T96 49T79 82T73 149Q73 178 75 195T81 223T91 237T106 241Q117 241 138 229T192 201T266 173T363 160Q397 160 423 167T469 187T499 220T509 266Q509 296 491 317T442 355T373 385T294 416T215 455T146 509T97 586T78 694Q78 758 103 811T175 903T289 962T441 983Q483 983 522 977T594 962T648 943T679 925T693 910T699 892T702 866T704 827Q704 800 703 783T698 756T688 743T674 739Q665 739 646 749T599 772T533 794T447 805Q413 805 388 798T347 778T323 748T315 710Q315 679 334 658T384 621T454 591T534 561T614 522T685 468T735 392T754 286Z"/><glyph unicode="t" horiz-adv-x="710" d="M654 122Q654 78 649 55T634 22T608 5T567 -8T516 -17T460 -20Q385 -20 330 -1T239 57T186 157T169 299V756H62Q43 756 33 779T23 858Q23 887 25 907T33 938T45 955T63 960H169V1159Q169 1169 174 1177T194 1190T233 1198T294 1201Q331 1201 355 1199T394 1191T414 1177T420 1159V960H614Q624 960 631 955T644 939T651 907T654 858Q654 803 644 780T615 756H420V337Q420 264 443 228T525 191Q545 191 561 194T589 202T610 210T626 214Q632 214 637 211T646 197T651 168T654 122Z"/><glyph unicode="u" horiz-adv-x="1099" d="M972 34Q972 24 967 17T950 4T917 -3T865 -6Q832 -6 812 -4T779 4T762 16T757 34V137Q683 57 607 17T448 -23Q356 -23 294 7T193 89T138 209T121 380V926Q121 936 126 943T146 956T185 963T246 966Q283 966 307 964T345 956T366 944T372 926V422Q372 352 381 315T408 252T455 211T522 196Q570 196 618 231T722 333V926Q722 936 727 943T747 956T786 963T847 966Q884 966 908 964T946 956T966 944T972 926V34Z"/><glyph unicode="v" horiz-adv-x="969" d="M947 927Q947 922 947 915T945 900T941 880T934 855L666 48Q661 31 653 21T625 4T572 -4T484 -6Q431 -6 398 -4T345 5T318 21T304 48L36 855Q30 875 27 891T23 914T22 927Q22 937 27 944T47 957T85 964T147 966Q188 966 213 964T252 957T273 944T283 923L486 268L492 243L498 268L698 923Q701 935 707 943T728 956T765 963T827 966Q864 966 887 964T924 957T942 945T947 927Z"/><glyph unicode="w" horiz-adv-x="1526" d="M1491 928Q1491 917 1488 901T1477 855L1239 48Q1234 31 1226 21T1202 4T1155 -4T1075 -6Q1026 -6 995 -4T947 5T921 21T909 48L759 590L757 599L755 590L617 48Q613 31 606 21T580 4T531 -4T451 -6Q401 -6 371 -4T323 5T297 21T285 48L49 855Q40 884 38 900T35 928Q35 938 40 945T60 957T99 964T161 966Q201 966 226 964T265 957T284 944T293 923L470 268L472 256L474 268L640 923Q643 935 649 943T669 957T705 964T766 966Q803 966 826 964T862 957T881 945T890 927L1068 267L1071 256L1073 268L1243 923Q1245 935 1251 943T1271 957T1309 964T1370 966Q1407 966 1430 964T1467 958T1486 946T1491 928Z"/><glyph unicode="x" horiz-adv-x="941" d="M901 52Q909 35 909 24T894 6T851 -3T774 -6Q729 -6 702 -5T659 1T636 12T624 29L459 346L294 29Q290 19 283 13T262 2T221 -4T153 -6Q109 -6 83 -4T45 6T33 24T41 52L288 491L60 903Q51 921 51 933T63 953T104 963T182 966Q226 966 252 965T294 960T316 951T328 934L487 636L645 934Q648 942 654 948T673 958T708 964T770 966Q814 966 840 964T878 955T890 936T878 903L656 498L901 52Z"/><glyph unicode="y" horiz-adv-x="970" d="M643 0L535 -316Q526 -341 486 -352T369 -363Q329 -363 305 -360T269 -348T256 -328T262 -299L381 0Q368 6 358 18T342 45L35 865Q22 900 22 918T34 947T74 962T150 966Q193 966 218 965T257 957T278 939T292 903L502 306H505L697 915Q703 941 712 949T744 962T821 966Q864 966 892 962T934 947T948 918T940 874L643 0Z"/><glyph unicode="z" horiz-adv-x="814" d="M750 103Q750 74 747 54T739 21T726 5T708 0H125Q98 0 84 18T69 77V123Q69 141 70 155T76 183T88 211T108 242L442 758H126Q107 758 96 782T84 859Q84 888 86 907T94 938T107 955T126 960H671Q685 960 695 957T711 946T721 924T725 889V840Q725 820 723 805T717 775T706 747T688 717L356 202H708Q717 202 725 198T738 183T747 153T750 103Z"/><glyph unicode="{" horiz-adv-x="704" d="M632 -238Q632 -264 630 -280T622 -307T610 -322T595 -329Q572 -335 551 -337T504 -339Q425 -339 373 -314T290 -242T247 -122T234 64V236Q234 299 226 336T201 401T158 449T93 474Q83 476 76 481T64 497T57 526T54 570Q54 597 56 615T62 645T73 660T90 667Q160 677 197 735T234 906V1035Q234 1149 246 1220T290 1340T374 1413T504 1438Q530 1438 551 1436T594 1428Q603 1427 610 1422T622 1407T629 1380T632 1337Q632 1311 629 1294T621 1266T608 1251T592 1246L555 1245Q530 1244 514 1236T487 1206T472 1148T467 1034V910Q467 833 456 781T421 687T357 615T261 571Q318 558 357 528T420 456T456 361T467 233V65Q467 -11 471 -47T485 -105T509 -136T546 -146H583Q597 -147 607 -151T622 -166T630 -194T632 -238Z"/><glyph unicode="|" horiz-adv-x="973" d="M605 -323Q605 -333 600 -341T580 -354T544 -362T486 -365Q452 -365 430 -363T393 -355T374 -341T368 -323V1403Q368 1413 373 1421T393 1434T429 1443T486 1446Q521 1446 543 1443T580 1435T599 1421T605 1403V-323Z"/><glyph unicode="}" horiz-adv-x="704" d="M684 574Q684 546 682 528T675 499T664 483T648 477Q610 472 583 448T539 387T513 305T504 193V64Q504 -50 492 -121T448 -241T364 -314T234 -339Q209 -339 188 -337T142 -329Q134 -327 128 -322T116 -307T108 -281T105 -238Q105 -212 108 -195T116 -167T129 -152T145 -146H183Q208 -145 224 -137T251 -107T266 -48T271 65V190Q271 266 282 325T317 434T380 522T477 573Q420 586 381 609T317 666T282 745T271 867V1034Q271 1110 267 1146T253 1205T229 1235T192 1245L156 1246Q141 1246 131 1250T115 1265T107 1292T105 1337Q105 1362 107 1379T115 1407T128 1422T144 1428Q167 1434 188 1436T234 1438Q313 1438 365 1414T448 1341T491 1222T504 1035V863Q504 801 512 771T536 720T580 688T645 669Q654 668 661 663T673 646T681 618T684 574Z"/><glyph unicode="~" horiz-adv-x="1020" d="M966 1070Q965 991 942 932T882 835T797 777T695 758Q652 758 619 766T560 787T514 819T473 858T436 898T405 931T373 952T335 960Q310 960 292 950T263 920T247 874T241 815Q241 796 219 788T149 780Q122 780 104 782T76 790T61 804T57 822V849Q57 929 77 989T134 1088T220 1147T328 1166Q371 1166 404 1159T463 1138T510 1107T551 1068T587 1028T618 995T649 973T688 965Q712 965 730 975T759 1005T776 1051T782 1113Q782 1130 806 1137T873 1145Q901 1145 919 1143T947 1135T962 1121T966 1102V1070Z"/><glyph unicode=" " horiz-adv-x="463"/><glyph unicode="¡" horiz-adv-x="667" d="M186 767Q187 777 192 785T209 798T243 807T296 810Q328 810 349 807T382 799T400 785T406 767L432 -141Q432 -154 426 -164T405 -180T363 -190T296 -193Q256 -193 230 -190T189 -180T167 -164T160 -141L186 767ZM155 1060Q155 1101 161 1129T184 1174T228 1198T296 1206Q337 1206 364 1199T408 1174T430 1129T437 1060Q437 1018 431 990T408 944T365 919T296 911Q255 911 228 918T185 943T162 989T155 1060Z"/><glyph unicode="¢" horiz-adv-x="1020" d="M896 331Q896 288 892 267T877 233T848 209T809 186T762 167T707 153V15Q707 5 703 -2T686 -15T654 -22T604 -25Q574 -25 554 -23T522 -15T506 -3T501 15V149Q338 175 254 297T169 627Q169 739 193 825T260 973T365 1074T500 1129V1266Q500 1276 504 1284T521 1297T553 1305T603 1308Q633 1308 653 1306T685 1298T702 1284T707 1266V1134Q729 1131 753 1124T800 1107T842 1085T872 1062T888 1043T896 1023T900 995T901 956Q901 937 899 918T892 884T878 859T856 849Q840 849 823 863T780 894T719 925T631 940Q587 940 551 924T487 871T444 779T428 643Q428 566 442 511T483 420T550 367T641 350Q692 350 728 365T790 400T835 434T867 450Q876 450 882 441T891 417T895 379T896 331Z"/><glyph unicode="£" horiz-adv-x="1038" d="M958 101Q958 73 955 54T947 22T934 5T918 0H116Q107 0 100 5T88 22T79 53T76 101Q76 130 78 149T86 181T99 198T116 203H222V559H116Q107 559 100 563T88 579T79 610T76 658Q76 686 78 705T86 735T99 752T116 757H222V849Q222 971 249 1059T328 1205T457 1288T634 1315Q678 1315 718 1309T793 1291T854 1264T894 1235T912 1214T921 1193T925 1162T927 1118Q927 1090 925 1071T917 1041T905 1024T890 1019Q876 1019 859 1033T815 1063T752 1094T666 1108Q616 1108 581 1092T524 1044T492 966T482 859V757H751Q760 757 767 752T780 736T788 705T791 658Q791 629 788 610T780 580T767 564T751 559H482V203H918Q927 203 934 198T947 181T955 150T958 101Z"/><glyph unicode="¤" horiz-adv-x="1020" d="M830 858Q867 811 888 742T910 586Q910 499 886 429T817 308L952 102Q968 75 973 57T969 29T934 15T864 11Q826 11 803 12T765 18T743 29T731 46L646 206Q617 193 581 185T499 177Q459 177 426 182T368 199L283 40Q278 29 271 22T250 12T212 7T150 5Q106 5 81 8T45 22T40 49T62 94L193 295Q151 344 129 411T106 569Q106 661 130 732T195 853L60 1063Q43 1090 38 1107T42 1135T77 1149T147 1153Q185 1153 208 1151T246 1146T268 1135T280 1118L366 958Q395 971 434 979T518 987Q560 987 594 981T657 960L742 1119Q746 1130 753 1137T774 1148T812 1153T875 1155Q919 1155 944 1151T979 1137T984 1110T962 1065L830 858ZM685 574Q685 626 675 669T643 742T587 790T505 808Q461 808 429 791T375 744T342 675T331 589Q331 530 342 487T376 415T433 372T513 357Q557 357 589 374T643 419T674 488T685 574Z"/><glyph unicode="¥" horiz-adv-x="1038" d="M651 642V606H901Q915 606 924 587T933 522Q933 473 924 453T901 433H651V308H901Q915 308 924 289T933 222Q933 174 924 154T901 134H651V32Q651 22 645 15T623 3T583 -4T519 -6Q481 -6 456 -4T415 2T394 14T387 32V134H138Q124 134 115 154T105 222Q105 269 114 288T138 308H387V433H138Q124 433 115 453T105 522Q105 568 114 587T138 606H387V642L65 1196Q44 1231 37 1252T39 1284T79 1297T163 1300Q206 1300 233 1299T276 1293T300 1281T315 1259L425 1051Q454 995 479 940T528 830Q552 884 577 939T632 1051L742 1259Q749 1273 756 1281T777 1293T818 1298T888 1300Q936 1300 963 1298T1000 1285T1001 1254T972 1196L651 642Z"/><glyph unicode="¦" horiz-adv-x="1020" d="M627 771Q627 761 622 753T603 740T566 731T509 728Q475 728 452 731T416 739T397 753T391 771V1414Q391 1424 396 1432T415 1445T452 1453T509 1456Q543 1456 566 1453T602 1445T621 1432T627 1414V771ZM627 -339Q627 -349 622 -357T603 -370T566 -378T509 -381Q475 -381 452 -378T416 -370T397 -357T391 -339V309Q391 319 396 326T415 340T452 348T509 351Q543 351 566 349T602 340T621 327T627 309V-339Z"/><glyph unicode="§" horiz-adv-x="1020" d="M937 571Q937 526 925 486T889 410T835 345T764 294Q804 256 824 209T844 101Q844 25 816 -33T735 -130T613 -188T459 -208Q403 -208 356 -199T273 -177T215 -152T186 -133T176 -121T170 -103T167 -77T165 -40Q165 -11 167 7T173 35T183 49T198 53Q212 53 232 41T283 13T356 -15T456 -28Q489 -28 515 -22T560 -1T589 32T599 79Q599 104 591 123T565 160T515 193T439 228L351 263Q287 289 238 319T155 386T104 472T86 585Q86 628 99 668T135 744T190 809T262 860Q223 898 203 947T183 1065Q183 1134 209 1188T284 1279T399 1335T544 1355Q587 1355 627 1349T699 1333T753 1312T783 1295T793 1283T799 1266T803 1239T805 1198Q805 1171 804 1154T798 1127T789 1113T775 1109Q764 1109 747 1119T702 1142T638 1166T550 1177Q516 1177 492 1169T453 1147T432 1116T425 1081Q425 1055 433 1035T459 996T509 962T585 926L672 891Q737 865 786 836T869 768T920 682T937 571ZM695 548Q695 601 664 634T565 693L487 726Q469 733 454 740T425 754Q375 732 352 692T328 606Q328 581 335 560T359 522T399 490T459 461L537 430Q555 423 570 416T598 400Q648 423 671 464T695 548Z"/><glyph unicode="¨" horiz-adv-x="849" d="M356 1227Q356 1157 330 1130T229 1102Q154 1102 128 1128T102 1222Q102 1294 129 1321T229 1348Q305 1348 330 1322T356 1227ZM747 1227Q747 1157 721 1130T619 1102Q545 1102 519 1128T493 1222Q493 1294 519 1321T620 1348Q695 1348 721 1322T747 1227Z"/><glyph unicode="©" horiz-adv-x="1709" d="M858 135Q1005 135 1103 178T1261 296T1345 475T1370 697Q1370 828 1344 929T1256 1100T1096 1206T851 1242Q717 1242 621 1205T462 1097T369 920T339 678Q339 540 368 438T459 268T620 168T858 135ZM1552 711Q1552 525 1505 387T1368 158T1148 22T848 -23Q677 -23 548 20T332 150T202 366T158 665Q158 852 205 990T342 1219T562 1355T860 1400Q1031 1400 1160 1356T1376 1225T1508 1009T1552 711ZM1123 425Q1123 403 1122 388T1119 362T1114 345T1101 329T1070 306T1016 280T947 261T865 253Q775 253 706 280T590 362T519 494T495 674Q495 789 524 873T604 1011T727 1092T882 1119Q919 1119 953 1113T1016 1097T1068 1074T1101 1050T1116 1033T1122 1016T1126 992T1127 959Q1127 943 1125 927T1119 898T1108 877T1088 869Q1074 869 1059 881T1022 908T970 935T893 947Q807 947 761 882T714 689Q714 624 724 576T758 495T816 446T900 430Q943 430 974 443T1029 473T1069 503T1099 517Q1105 517 1109 513T1117 499T1121 471T1123 425Z"/><glyph unicode="ª" horiz-adv-x="852" d="M721 648Q721 641 718 636T705 627T679 621T637 619Q610 619 593 621T566 627T553 636T549 650V691H546Q512 653 461 631T345 608Q288 608 243 621T167 660T119 725T102 816Q102 871 123 911T187 978T295 1016T450 1029H515V1060Q515 1084 510 1102T492 1132T456 1150T399 1157Q356 1157 323 1148T265 1128T223 1108T195 1099Q174 1099 163 1122T152 1189Q152 1204 154 1215T160 1235T172 1250T213 1271T302 1299T429 1313Q506 1313 561 1299T652 1253T704 1175T721 1063V648ZM730 411Q730 365 721 346T689 326H151Q129 326 120 345T110 411Q110 459 119 478T151 498H689Q711 498 720 479T730 411ZM515 912H457Q415 912 387 907T341 890T316 862T308 824Q308 787 332 768T397 748Q415 748 430 752T460 764T487 784T515 813V912Z"/><glyph unicode="«" horiz-adv-x="1103" d="M943 157Q949 145 948 137T937 122T904 113T845 110Q816 110 798 111T767 115T749 124T737 138L515 484Q502 505 502 526T519 574L725 902Q730 910 737 916T755 926T785 931T832 933Q868 933 890 930T924 920T935 904T930 881L740 526L943 157ZM331 525L531 142Q538 129 538 119T527 101T494 90T435 86Q406 86 388 88T357 93T338 103T326 119L102 484Q89 506 89 528T106 575L319 922Q325 931 331 937T350 947T380 953T429 955Q465 955 487 952T520 941T532 923T526 900L331 525Z"/><glyph unicode="¬" horiz-adv-x="1020" d="M934 277Q934 267 929 259T912 245T881 236T833 233Q804 233 785 236T754 244T737 258T731 277V491H86Q76 491 69 495T57 511T50 542T47 588Q47 615 50 633T58 662T71 679T88 684H848Q891 684 912 664T934 596V277Z"/><glyph unicode="­" horiz-adv-x="627" d="M568 503Q568 445 557 422T522 399H106Q81 399 70 422T59 503Q59 559 70 582T106 605H522Q534 605 542 600T557 583T565 551T568 503Z"/><glyph unicode="®" horiz-adv-x="1038" d="M933 1016Q933 930 901 856T812 726T680 640T517 608Q428 608 353 638T222 722T136 850T105 1014Q105 1100 137 1174T226 1303T358 1389T521 1421Q611 1421 686 1391T817 1307T902 1179T933 1016ZM815 1012Q815 1079 793 1135T732 1232T639 1295T520 1318Q453 1318 399 1295T305 1230T245 1135T223 1018Q223 951 245 895T306 797T399 734T518 711Q585 711 640 734T733 799T793 894T815 1012ZM714 834Q714 829 712 826T701 820T680 817T644 816Q622 816 609 817T589 822T578 830T572 843L555 909Q545 943 533 954T496 966H472V839Q472 826 461 821T412 816Q373 816 360 821T347 839V1181Q347 1208 360 1223T401 1238H529Q564 1238 595 1232T650 1212T688 1175T702 1117Q702 1072 677 1044T608 1005Q634 998 654 980T687 927L707 868Q714 843 714 834ZM568 1102Q568 1111 565 1119T556 1134T538 1143T509 1147H472V1053H508Q542 1053 555 1067T568 1102Z"/><glyph unicode="¯" horiz-adv-x="799" d="M656 1323Q667 1323 675 1319T687 1303T694 1275T697 1231Q697 1205 695 1188T688 1160T675 1145T656 1140H146Q134 1140 126 1144T112 1160T105 1188T102 1231Q102 1256 104 1274T112 1302T125 1318T146 1323H656Z"/><glyph unicode="°" horiz-adv-x="701" d="M627 1127Q627 1071 607 1023T549 939T460 883T346 862Q284 862 234 881T148 933T93 1014T74 1117Q74 1173 95 1221T153 1304T241 1361T354 1382Q416 1382 466 1363T552 1311T607 1230T627 1127ZM455 1121Q455 1145 447 1166T425 1203T391 1226T348 1234Q327 1234 308 1226T275 1202T253 1167T245 1123Q245 1099 253 1078T275 1041T309 1018T352 1009Q373 1009 392 1017T426 1041T447 1077T455 1121Z"/><glyph unicode="±" horiz-adv-x="1020" d="M951 756Q951 704 939 683T909 661H609V333Q609 324 604 317T588 304T557 296T510 293Q482 293 463 296T432 304T415 316T410 333V661H110Q93 661 81 682T69 756Q69 782 72 800T80 830T92 845T108 850H410V1179Q410 1189 415 1196T431 1208T462 1217T510 1220Q538 1220 557 1217T587 1209T604 1196T609 1179V850H912Q920 850 927 846T939 830T948 801T951 756ZM938 96Q938 69 935 50T926 20T913 5T897 0H125Q117 0 110 4T97 20T88 50T84 96Q84 124 86 142T94 172T106 189T122 194H900Q908 194 915 189T927 173T935 143T938 96Z"/><glyph unicode="²" horiz-adv-x="692" d="M637 793Q637 751 631 733T609 715H123Q106 715 94 717T75 728T65 751T62 792Q62 816 64 832T73 863T89 889T114 917L246 1047Q281 1082 304 1110T339 1162T356 1208T361 1250Q361 1288 337 1311T267 1334Q236 1334 210 1325T164 1306T128 1286T103 1277Q97 1277 92 1281T84 1295T79 1321T77 1365Q77 1394 80 1410T94 1437T127 1459T182 1483T254 1501T336 1509Q404 1509 454 1494T539 1450T589 1381T606 1294Q606 1259 599 1225T569 1149T501 1057T381 938L309 871H607Q619 871 628 853T637 793Z"/><glyph unicode="³" horiz-adv-x="688" d="M625 946Q625 882 599 836T527 759T420 713T288 698Q242 698 205 703T139 717T95 732T74 744T66 755T60 771T57 797T56 838Q56 869 61 883T79 897Q86 897 100 890T137 875T190 859T257 852Q320 852 353 875T387 943Q387 965 378 983T349 1014T299 1033T225 1039H164Q153 1039 147 1042T137 1053T132 1076T130 1113Q130 1134 132 1147T137 1167T147 1178T162 1181H226Q298 1181 333 1206T368 1278Q368 1314 344 1335T268 1356Q235 1356 207 1348T156 1329T119 1310T95 1302Q82 1302 77 1317T72 1371Q72 1388 73 1400T75 1419T79 1432T88 1443T116 1461T169 1483T240 1501T328 1509Q394 1509 444 1495T526 1454T575 1391T591 1310Q591 1239 555 1190T444 1123V1121Q484 1118 518 1103T575 1065T612 1011T625 946Z"/><glyph unicode="´" horiz-adv-x="616" d="M256 1364Q263 1375 273 1383T298 1395T336 1402T392 1404Q438 1404 464 1400T502 1389T513 1371T503 1350L309 1118Q301 1108 293 1102T273 1091T241 1085T193 1083Q158 1083 138 1086T109 1095T102 1112T113 1135L256 1364Z"/><glyph unicode="µ" horiz-adv-x="1154" d="M1140 108Q1140 63 1135 40T1121 9T1098 -5T1065 -14T1025 -20T981 -22Q893 -22 836 12T754 126Q688 50 624 17T497 -16Q451 -16 417 -4T360 35Q363 9 366 -20T372 -79T376 -139T378 -192V-320Q378 -330 372 -338T352 -351T313 -360T252 -363Q215 -363 191 -360T153 -352T132 -338T126 -320V926Q126 936 132 943T152 956T191 963T252 966Q289 966 313 964T351 956T372 944T378 926V385Q378 297 416 247T527 196Q576 196 624 230T727 332V926Q727 936 733 943T753 956T791 963T853 966Q889 966 913 964T952 956T972 944T978 926V310Q978 276 982 253T994 216T1016 196T1050 189Q1063 189 1072 190T1089 193T1102 196T1114 198Q1121 198 1125 195T1133 182T1138 155T1140 108Z"/><glyph unicode="¶" horiz-adv-x="1224" d="M1068 -203Q1068 -211 1064 -217T1048 -227T1019 -234T973 -236Q946 -236 928 -234T898 -228T883 -217T878 -203V1119H702V-203Q702 -211 698 -217T682 -227T653 -234T607 -236Q552 -236 532 -228T512 -203V505Q411 505 331 530T196 606T111 728T82 893Q82 980 112 1053T198 1180T337 1264T545 1294H1008Q1037 1294 1052 1277T1068 1231V-203Z"/><glyph unicode="·" horiz-adv-x="548" d="M422 598Q422 505 390 473T273 440Q189 440 157 472T125 592Q125 685 157 717T275 750Q358 750 390 718T422 598Z"/><glyph unicode="¸" horiz-adv-x="621" d="M485 -66Q502 -105 510 -134T519 -190Q519 -236 502 -269T456 -323T388 -354T304 -365Q261 -365 223 -359T161 -346T126 -334T111 -321T104 -301T102 -266Q102 -226 109 -211T137 -195H253Q282 -195 296 -183T311 -148Q311 -136 306 -121T294 -90L253 0H455L485 -66Z"/><glyph unicode="¹" horiz-adv-x="517" d="M407 737Q407 730 403 725T387 716T356 711T306 709Q276 709 257 710T226 715T209 724T204 737V1311L84 1253Q67 1245 57 1244T40 1249T32 1271T29 1311Q29 1330 30 1342T34 1363T42 1378T56 1390L228 1494Q233 1496 239 1498T255 1501T280 1502T321 1503Q350 1503 367 1502T394 1498T405 1492T407 1483V737Z"/><glyph unicode="º" horiz-adv-x="891" d="M796 966Q796 885 773 819T704 705T592 633T440 608Q348 608 281 630T171 697T106 807T85 958Q85 1040 107 1106T175 1218T287 1290T446 1315Q533 1315 598 1292T707 1223T773 1113T796 966ZM756 411Q756 365 747 346T716 326H164Q142 326 132 345T122 411Q122 459 132 478T164 498H716Q738 498 747 479T756 411ZM570 958Q570 1000 564 1035T542 1095T503 1134T440 1149Q407 1149 382 1136T342 1100T319 1042T311 963Q311 920 317 885T338 826T378 788T440 774Q472 774 496 784T537 817T561 874T570 958Z"/><glyph unicode="»" horiz-adv-x="1103" d="M781 119Q775 110 769 104T750 94T720 88T672 86Q635 86 613 89T580 100T569 118T574 141L769 516L569 899Q562 912 562 922T573 940T606 951T666 955Q695 955 713 953T743 948T762 938T774 922L998 556Q1011 535 1011 513T994 465L781 119ZM376 139Q370 130 364 124T345 115T315 110T268 108Q231 108 209 111T176 120T165 137T171 160L361 515L158 884Q151 896 152 904T163 919T196 928T256 931Q285 931 303 930T333 926T351 917T364 903L585 556Q598 536 598 515T581 467L376 139Z"/><glyph unicode="¼" horiz-adv-x="1347" d="M1288 184Q1288 150 1281 133T1262 116H1198V19Q1198 13 1194 8T1177 0T1146 -4T1098 -6Q1070 -6 1051 -5T1021 0T1005 8T1000 19V116H723Q713 116 705 118T693 128T686 151T683 193Q683 214 684 229T687 256T694 278T706 302L914 631Q917 635 926 639T951 647T993 651T1055 653Q1097 653 1124 651T1168 646T1191 637T1198 626V250H1262Q1272 250 1280 235T1288 184ZM1000 504H998L837 250H1000V504ZM291 7Q282 -5 273 -12T249 -25T215 -32T166 -34Q133 -34 114 -30T86 -18T78 0T91 26L1013 1289Q1022 1300 1031 1308T1054 1321T1089 1328T1138 1330Q1171 1330 1190 1326T1218 1314T1225 1295T1213 1270L291 7ZM438 667Q438 660 434 656T419 648T387 643T336 641Q306 641 286 642T254 647T237 655T232 667V1129L112 1073Q94 1066 83 1064T66 1067T58 1086T56 1125Q56 1142 56 1154T60 1175T68 1189T82 1200L258 1299Q262 1301 267 1302T282 1304T307 1305T348 1306Q378 1306 396 1305T423 1302T435 1296T438 1289V667Z"/><glyph unicode="½" horiz-adv-x="1415" d="M438 667Q438 660 434 656T419 648T387 643T336 641Q306 641 286 642T254 647T237 655T232 667V1129L112 1073Q94 1066 83 1064T66 1067T58 1086T56 1125Q56 1142 56 1154T60 1175T68 1189T82 1200L258 1299Q262 1301 267 1302T282 1304T307 1305T348 1306Q378 1306 396 1305T423 1302T435 1296T438 1289V667ZM1344 70Q1344 32 1338 16T1319 0H874Q856 0 844 2T825 12T816 37T813 81Q813 99 814 112T820 135T833 156T856 180L982 290Q1011 317 1030 337T1062 374T1079 409T1085 445Q1085 474 1063 493T1005 512Q975 512 951 505T908 489T874 473T851 465Q846 465 842 468T834 481T829 505T827 544Q827 571 830 583T841 604T870 622T920 642T988 658T1071 664Q1134 664 1180 651T1257 613T1303 553T1318 476Q1318 445 1310 415T1281 353T1224 284T1133 207L1052 143H1314Q1329 143 1336 125T1344 70ZM291 7Q282 -5 273 -12T249 -25T215 -32T166 -34Q133 -34 114 -30T86 -18T78 0T91 26L1013 1289Q1022 1300 1031 1308T1054 1321T1089 1328T1138 1330Q1171 1330 1190 1326T1218 1314T1225 1295T1213 1270L291 7Z"/><glyph unicode="¾" horiz-adv-x="1437" d="M608 839Q608 789 585 750T521 685T421 644T293 630Q252 630 217 634T153 646T105 661T76 679T63 706T59 755Q59 787 64 797T80 807Q89 807 102 801T136 786T186 772T257 765Q288 765 310 771T345 786T365 809T372 837Q372 855 365 869T341 894T297 909T228 914H165Q155 914 149 916T139 926T134 945T132 977Q132 996 133 1008T138 1026T148 1035T162 1037H230Q294 1037 325 1057T356 1113Q356 1140 335 1158T264 1177Q235 1177 209 1170T162 1154T125 1138T102 1130Q97 1130 93 1132T85 1142T81 1161T79 1192Q79 1207 79 1217T81 1235T86 1246T94 1255T121 1270T173 1290T244 1305T330 1311Q391 1311 437 1300T515 1268T562 1214T578 1142Q578 1114 570 1089T544 1044T502 1009T442 986Q484 982 515 970T567 938T598 893T608 839ZM378 7Q369 -5 360 -12T336 -25T302 -32T253 -34Q220 -34 201 -30T173 -18T165 0T178 26L1100 1289Q1109 1300 1118 1308T1141 1321T1176 1328T1225 1330Q1258 1330 1277 1326T1305 1314T1312 1295T1300 1270L378 7ZM1378 184Q1378 150 1371 133T1352 116H1288V19Q1288 13 1284 8T1267 0T1236 -4T1188 -6Q1160 -6 1141 -5T1111 0T1095 8T1090 19V116H813Q803 116 795 118T783 128T776 151T773 193Q773 214 774 229T777 256T784 278T796 302L1004 631Q1007 635 1016 639T1041 647T1083 651T1145 653Q1187 653 1214 651T1258 646T1281 637T1288 626V250H1352Q1362 250 1370 235T1378 184ZM1090 504H1088L927 250H1090V504Z"/><glyph unicode="¿" horiz-adv-x="949" d="M83 204Q83 286 106 352T172 466T274 543T406 580L414 775Q415 793 442 802T522 811Q555 811 577 810T613 804T632 793T639 775L648 539Q649 507 645 487T631 455T604 439T566 434H552Q499 434 461 417T397 372T361 306T349 225Q349 177 362 137T403 68T472 24T570 8Q621 8 660 18T727 40T773 62T802 72Q809 72 815 68T825 51T831 17T834 -39Q834 -74 831 -90T818 -116T780 -139T713 -164T626 -184T526 -192Q408 -192 324 -160T187 -72T108 54T83 204ZM379 1061Q379 1102 385 1130T408 1175T452 1199T520 1207Q562 1207 589 1200T632 1175T655 1130T662 1061Q662 1019 656 991T633 945T589 920T520 912Q480 912 453 919T409 944T386 990T379 1061Z"/><glyph unicode="À" horiz-adv-x="1241" d="M1201 98Q1213 62 1216 41T1208 10T1169 -3T1092 -6Q1041 -6 1013 -5T969 1T948 14T938 35L851 295H365L283 42Q279 28 273 19T252 4T211 -4T141 -6Q95 -6 69 -3T33 11T26 44T41 100L440 1248Q446 1265 454 1275T479 1291T528 1298T610 1300Q669 1300 704 1299T758 1292T786 1275T801 1245L1201 98ZM607 1047H606L423 497H790L607 1047ZM700 1439Q711 1425 713 1415T707 1399T678 1389T624 1386Q593 1386 572 1388T536 1394T511 1405T490 1421L268 1621Q253 1634 249 1646T253 1667T288 1683T360 1689Q397 1689 421 1688T463 1681T494 1667T520 1643L700 1439Z"/><glyph unicode="Á" horiz-adv-x="1241" d="M1201 98Q1213 62 1216 41T1208 10T1169 -3T1092 -6Q1041 -6 1013 -5T969 1T948 14T938 35L851 295H365L283 42Q279 28 273 19T252 4T211 -4T141 -6Q95 -6 69 -3T33 11T26 44T41 100L440 1248Q446 1265 454 1275T479 1291T528 1298T610 1300Q669 1300 704 1299T758 1292T786 1275T801 1245L1201 98ZM607 1047H606L423 497H790L607 1047ZM676 1643Q689 1658 701 1667T731 1681T774 1687T836 1689Q882 1689 907 1683T942 1668T947 1646T928 1621L706 1421Q696 1412 686 1406T660 1395T624 1388T572 1386Q538 1386 518 1389T489 1398T482 1415T496 1439L676 1643Z"/><glyph unicode="Â" horiz-adv-x="1241" d="M1201 98Q1213 62 1216 41T1208 10T1169 -3T1092 -6Q1041 -6 1013 -5T969 1T948 14T938 35L851 295H365L283 42Q279 28 273 19T252 4T211 -4T141 -6Q95 -6 69 -3T33 11T26 44T41 100L440 1248Q446 1265 454 1275T479 1291T528 1298T610 1300Q669 1300 704 1299T758 1292T786 1275T801 1245L1201 98ZM607 1047H606L423 497H790L607 1047ZM626 1689Q658 1689 680 1688T717 1683T744 1670T769 1648L967 1434Q980 1420 982 1411T977 1396T947 1388T891 1386Q850 1386 824 1387T783 1392T759 1402T742 1417L624 1554L502 1420Q493 1409 485 1403T461 1393T420 1388T353 1386Q319 1386 299 1388T271 1396T264 1411T278 1434L473 1648Q484 1661 497 1669T527 1681T569 1687T626 1689Z"/><glyph unicode="Ã" horiz-adv-x="1241" d="M1201 98Q1213 62 1216 41T1208 10T1169 -3T1092 -6Q1041 -6 1013 -5T969 1T948 14T938 35L851 295H365L283 42Q279 28 273 19T252 4T211 -4T141 -6Q95 -6 69 -3T33 11T26 44T41 100L440 1248Q446 1265 454 1275T479 1291T528 1298T610 1300Q669 1300 704 1299T758 1292T786 1275T801 1245L1201 98ZM607 1047H606L423 497H790L607 1047ZM828 1636Q828 1652 845 1657T907 1662Q952 1662 967 1655T983 1624Q983 1509 927 1449T764 1389Q707 1389 668 1404T597 1438T541 1472T485 1488Q451 1488 437 1469T422 1415Q422 1406 418 1401T403 1394T379 1390T343 1389Q298 1389 283 1396T267 1427Q267 1484 282 1528T325 1601T394 1646T486 1662Q543 1662 582 1647T652 1612T709 1578T765 1562Q794 1562 811 1578T828 1636Z"/><glyph unicode="Ä" horiz-adv-x="1241" d="M1201 98Q1213 62 1216 41T1208 10T1169 -3T1092 -6Q1041 -6 1013 -5T969 1T948 14T938 35L851 295H365L283 42Q279 28 273 19T252 4T211 -4T141 -6Q95 -6 69 -3T33 11T26 44T41 100L440 1248Q446 1265 454 1275T479 1291T528 1298T610 1300Q669 1300 704 1299T758 1292T786 1275T801 1245L1201 98ZM607 1047H606L423 497H790L607 1047ZM537 1534Q537 1464 510 1436T405 1408Q328 1408 301 1435T274 1530Q274 1601 302 1628T406 1656Q484 1656 510 1630T537 1534ZM974 1534Q974 1464 946 1436T841 1408Q764 1408 738 1435T711 1530Q711 1601 738 1628T843 1656Q920 1656 947 1630T974 1534Z"/><glyph unicode="Å" horiz-adv-x="1241" d="M1201 98Q1213 62 1216 41T1208 10T1169 -3T1092 -6Q1041 -6 1013 -5T969 1T948 14T938 35L851 295H365L283 42Q279 28 273 19T252 4T211 -4T141 -6Q95 -6 69 -3T33 11T26 44T41 100L440 1248Q446 1265 454 1275T479 1291T528 1298T610 1300Q669 1300 704 1299T758 1292T786 1275T801 1245L1201 98ZM607 1047H606L423 497H790L607 1047ZM862 1558Q862 1510 846 1472T799 1409T723 1369T619 1355Q560 1355 517 1368T444 1406T401 1467T386 1551Q386 1599 402 1636T449 1700T524 1739T627 1753Q743 1753 802 1704T862 1558ZM709 1553Q709 1592 689 1616T622 1640Q581 1640 560 1618T539 1556Q539 1514 559 1491T626 1468Q668 1468 688 1491T709 1553Z"/><glyph unicode="Æ" horiz-adv-x="1588" d="M1494 103Q1494 74 1492 55T1484 23T1472 6T1456 0H807Q774 0 752 19T730 83V281H340L222 41Q216 27 208 18T184 3T141 -4T69 -6Q37 -6 15 -5T-20 0T-39 11T-45 29Q-45 40 -40 56T-21 100L549 1240Q557 1258 566 1268T594 1285T644 1292T726 1294H1451Q1460 1294 1467 1289T1480 1272T1487 1240T1490 1190Q1490 1162 1488 1143T1480 1111T1468 1094T1451 1088H990V771H1380Q1390 771 1397 766T1410 749T1417 718T1420 670Q1420 641 1418 622T1410 590T1398 573T1380 568H990V206H1456Q1465 206 1472 201T1484 183T1491 152T1494 103ZM730 1088H725L421 482H730V1088Z"/><glyph unicode="Ç" horiz-adv-x="1084" d="M769 -66Q787 -105 795 -134T804 -190Q804 -236 787 -269T741 -323T673 -354T589 -365Q546 -365 508 -359T446 -346T411 -334T396 -321T389 -301T387 -266Q387 -226 394 -211T422 -195H538Q567 -195 581 -183T596 -148Q596 -136 591 -121T579 -90L545 -13Q459 -2 378 35T229 148T120 346T79 630Q79 795 123 923T246 1138T435 1270T679 1315Q733 1315 783 1306T875 1283T952 1249T999 1217T1018 1194T1026 1171T1030 1138T1032 1091Q1032 1061 1030 1040T1023 1006T1011 987T995 981Q980 981 957 998T898 1037T811 1076T690 1094Q613 1094 553 1063T450 973T385 831T363 644Q363 530 386 447T453 309T558 229T697 202Q764 202 816 218T905 254T965 291T1002 307Q1012 307 1018 303T1028 287T1034 254T1036 196Q1036 171 1035 154T1030 124T1022 102T1006 82T964 52T894 19T818 -4T746 -16L769 -66Z"/><glyph unicode="È" horiz-adv-x="999" d="M908 103Q908 74 906 55T898 23T886 6T869 0H219Q186 0 164 19T141 83V1211Q141 1255 163 1274T219 1294H865Q874 1294 881 1289T893 1272T900 1240T903 1190Q903 1162 901 1143T893 1111T881 1094T865 1088H403V772H794Q803 772 810 767T823 750T830 719T833 671Q833 642 831 623T823 593T811 576T794 571H403V206H869Q878 206 885 201T898 183T905 152T908 103ZM618 1439Q629 1425 631 1415T625 1399T596 1389T542 1386Q511 1386 490 1388T454 1394T429 1405T408 1421L186 1621Q171 1634 167 1646T171 1667T206 1683T278 1689Q315 1689 339 1688T381 1681T412 1667T438 1643L618 1439Z"/><glyph unicode="É" horiz-adv-x="999" d="M908 103Q908 74 906 55T898 23T886 6T869 0H219Q186 0 164 19T141 83V1211Q141 1255 163 1274T219 1294H865Q874 1294 881 1289T893 1272T900 1240T903 1190Q903 1162 901 1143T893 1111T881 1094T865 1088H403V772H794Q803 772 810 767T823 750T830 719T833 671Q833 642 831 623T823 593T811 576T794 571H403V206H869Q878 206 885 201T898 183T905 152T908 103ZM600 1643Q613 1658 625 1667T655 1681T698 1687T760 1689Q806 1689 831 1683T866 1668T871 1646T852 1621L630 1421Q620 1412 610 1406T584 1395T548 1388T496 1386Q462 1386 442 1389T413 1398T406 1415T420 1439L600 1643Z"/><glyph unicode="Ê" horiz-adv-x="999" d="M908 103Q908 74 906 55T898 23T886 6T869 0H219Q186 0 164 19T141 83V1211Q141 1255 163 1274T219 1294H865Q874 1294 881 1289T893 1272T900 1240T903 1190Q903 1162 901 1143T893 1111T881 1094T865 1088H403V772H794Q803 772 810 767T823 750T830 719T833 671Q833 642 831 623T823 593T811 576T794 571H403V206H869Q878 206 885 201T898 183T905 152T908 103ZM527 1689Q559 1689 581 1688T618 1683T645 1670T670 1648L868 1434Q881 1420 883 1411T878 1396T848 1388T792 1386Q751 1386 725 1387T684 1392T660 1402T643 1417L525 1554L403 1420Q394 1409 386 1403T362 1393T321 1388T254 1386Q220 1386 200 1388T172 1396T165 1411T179 1434L374 1648Q385 1661 398 1669T428 1681T470 1687T527 1689Z"/><glyph unicode="Ë" horiz-adv-x="999" d="M908 103Q908 74 906 55T898 23T886 6T869 0H219Q186 0 164 19T141 83V1211Q141 1255 163 1274T219 1294H865Q874 1294 881 1289T893 1272T900 1240T903 1190Q903 1162 901 1143T893 1111T881 1094T865 1088H403V772H794Q803 772 810 767T823 750T830 719T833 671Q833 642 831 623T823 593T811 576T794 571H403V206H869Q878 206 885 201T898 183T905 152T908 103ZM442 1534Q442 1464 415 1436T310 1408Q233 1408 206 1435T179 1530Q179 1601 207 1628T311 1656Q389 1656 415 1630T442 1534ZM879 1534Q879 1464 851 1436T746 1408Q669 1408 643 1435T616 1530Q616 1601 643 1628T748 1656Q825 1656 852 1630T879 1534Z"/><glyph unicode="Ì" horiz-adv-x="546" d="M405 36Q405 26 399 18T377 5T337 -3T273 -6Q235 -6 210 -3T169 5T148 18T141 36V1258Q141 1268 147 1276T169 1289T210 1297T273 1300Q312 1300 337 1297T377 1289T398 1276T405 1258V36ZM389 1439Q400 1425 402 1415T396 1399T367 1389T313 1386Q282 1386 261 1388T225 1394T200 1405T179 1421L-43 1621Q-58 1634 -62 1646T-58 1667T-23 1683T49 1689Q86 1689 110 1688T152 1681T183 1667T209 1643L389 1439Z"/><glyph unicode="Í" horiz-adv-x="546" d="M405 36Q405 26 399 18T377 5T337 -3T273 -6Q235 -6 210 -3T169 5T148 18T141 36V1258Q141 1268 147 1276T169 1289T210 1297T273 1300Q312 1300 337 1297T377 1289T398 1276T405 1258V36ZM335 1643Q348 1658 360 1667T390 1681T433 1687T495 1689Q541 1689 566 1683T601 1668T606 1646T587 1621L365 1421Q355 1412 345 1406T319 1395T283 1388T231 1386Q197 1386 177 1389T148 1398T141 1415T155 1439L335 1643Z"/><glyph unicode="Î" horiz-adv-x="546" d="M405 36Q405 26 399 18T377 5T337 -3T273 -6Q235 -6 210 -3T169 5T148 18T141 36V1258Q141 1268 147 1276T169 1289T210 1297T273 1300Q312 1300 337 1297T377 1289T398 1276T405 1258V36ZM276 1689Q308 1689 330 1688T367 1683T394 1670T419 1648L617 1434Q630 1420 632 1411T627 1396T597 1388T541 1386Q500 1386 474 1387T433 1392T409 1402T392 1417L274 1554L152 1420Q143 1409 135 1403T111 1393T70 1388T3 1386Q-31 1386 -51 1388T-79 1396T-86 1411T-72 1434L123 1648Q134 1661 147 1669T177 1681T219 1687T276 1689Z"/><glyph unicode="Ï" horiz-adv-x="546" d="M405 36Q405 26 399 18T377 5T337 -3T273 -6Q235 -6 210 -3T169 5T148 18T141 36V1258Q141 1268 147 1276T169 1289T210 1297T273 1300Q312 1300 337 1297T377 1289T398 1276T405 1258V36ZM187 1534Q187 1464 160 1436T55 1408Q-22 1408 -49 1435T-76 1530Q-76 1601 -48 1628T56 1656Q134 1656 160 1630T187 1534ZM624 1534Q624 1464 596 1436T491 1408Q414 1408 388 1435T361 1530Q361 1601 388 1628T493 1656Q570 1656 597 1630T624 1534Z"/><glyph unicode="Ð" horiz-adv-x="1309" d="M1235 666Q1235 488 1189 362T1055 155T843 38T546 0H237Q204 0 182 19T160 83V568H54Q45 568 38 572T25 588T18 620T15 670Q15 699 17 718T25 749T37 766T54 771H160V1211Q160 1255 182 1274T237 1294H570Q742 1294 863 1254T1066 1134T1192 937T1235 666ZM962 657Q962 749 941 828T872 965T750 1055T557 1088H422V771H619Q628 771 635 766T648 749T655 718T658 670Q658 641 656 622T648 590T636 573T619 568H422V208H559Q667 208 740 236T863 320T937 461T962 657Z"/><glyph unicode="Ñ" horiz-adv-x="1349" d="M1208 92Q1208 69 1200 51T1179 21T1147 4T1109 -2H997Q962 -2 937 5T890 30T848 80T803 162L481 767Q453 821 424 883T372 1005H370Q374 933 376 862T378 714V37Q378 27 373 19T354 6T317 -3T258 -6Q223 -6 200 -3T164 5T146 19T141 37V1200Q141 1247 168 1270T236 1294H377Q415 1294 441 1288T487 1266T526 1225T563 1159L815 686Q837 643 858 602T900 519T939 437T976 357H977Q974 427 973 503T971 648V1255Q971 1265 977 1273T997 1287T1034 1295T1093 1298Q1127 1298 1150 1296T1185 1287T1203 1273T1208 1255V92ZM878 1636Q878 1652 895 1657T957 1662Q1002 1662 1017 1655T1033 1624Q1033 1509 977 1449T814 1389Q757 1389 718 1404T647 1438T591 1472T535 1488Q501 1488 487 1469T472 1415Q472 1406 468 1401T453 1394T429 1390T393 1389Q348 1389 333 1396T317 1427Q317 1484 332 1528T375 1601T444 1646T536 1662Q593 1662 632 1647T702 1612T759 1578T815 1562Q844 1562 861 1578T878 1636Z"/><glyph unicode="Ò" horiz-adv-x="1385" d="M1305 662Q1305 501 1265 374T1146 159T951 24T681 -23Q530 -23 418 16T230 137T118 343T80 639Q80 796 120 921T239 1135T434 1270T705 1317Q852 1317 964 1278T1152 1158T1266 954T1305 662ZM1029 648Q1029 750 1013 833T959 976T856 1068T696 1101Q599 1101 534 1065T429 967T373 825T356 652Q356 546 372 462T426 317T528 226T689 194Q786 194 851 230T956 328T1012 472T1029 648ZM796 1439Q807 1425 809 1415T803 1399T774 1389T720 1386Q689 1386 668 1388T632 1394T607 1405T586 1421L364 1621Q349 1634 345 1646T349 1667T384 1683T456 1689Q493 1689 517 1688T559 1681T590 1667T616 1643L796 1439Z"/><glyph unicode="Ó" horiz-adv-x="1385" d="M1305 662Q1305 501 1265 374T1146 159T951 24T681 -23Q530 -23 418 16T230 137T118 343T80 639Q80 796 120 921T239 1135T434 1270T705 1317Q852 1317 964 1278T1152 1158T1266 954T1305 662ZM1029 648Q1029 750 1013 833T959 976T856 1068T696 1101Q599 1101 534 1065T429 967T373 825T356 652Q356 546 372 462T426 317T528 226T689 194Q786 194 851 230T956 328T1012 472T1029 648ZM758 1643Q771 1658 783 1667T813 1681T856 1687T918 1689Q964 1689 989 1683T1024 1668T1029 1646T1010 1621L788 1421Q778 1412 768 1406T742 1395T706 1388T654 1386Q620 1386 600 1389T571 1398T564 1415T578 1439L758 1643Z"/><glyph unicode="Ô" horiz-adv-x="1385" d="M1305 662Q1305 501 1265 374T1146 159T951 24T681 -23Q530 -23 418 16T230 137T118 343T80 639Q80 796 120 921T239 1135T434 1270T705 1317Q852 1317 964 1278T1152 1158T1266 954T1305 662ZM1029 648Q1029 750 1013 833T959 976T856 1068T696 1101Q599 1101 534 1065T429 967T373 825T356 652Q356 546 372 462T426 317T528 226T689 194Q786 194 851 230T956 328T1012 472T1029 648ZM697 1689Q729 1689 751 1688T788 1683T815 1670T840 1648L1038 1434Q1051 1420 1053 1411T1048 1396T1018 1388T962 1386Q921 1386 895 1387T854 1392T830 1402T813 1417L695 1554L573 1420Q564 1409 556 1403T532 1393T491 1388T424 1386Q390 1386 370 1388T342 1396T335 1411T349 1434L544 1648Q555 1661 568 1669T598 1681T640 1687T697 1689Z"/><glyph unicode="Õ" horiz-adv-x="1385" d="M1305 662Q1305 501 1265 374T1146 159T951 24T681 -23Q530 -23 418 16T230 137T118 343T80 639Q80 796 120 921T239 1135T434 1270T705 1317Q852 1317 964 1278T1152 1158T1266 954T1305 662ZM1029 648Q1029 750 1013 833T959 976T856 1068T696 1101Q599 1101 534 1065T429 967T373 825T356 652Q356 546 372 462T426 317T528 226T689 194Q786 194 851 230T956 328T1012 472T1029 648ZM899 1636Q899 1652 916 1657T978 1662Q1023 1662 1038 1655T1054 1624Q1054 1509 998 1449T835 1389Q778 1389 739 1404T668 1438T612 1472T556 1488Q522 1488 508 1469T493 1415Q493 1406 489 1401T474 1394T450 1390T414 1389Q369 1389 354 1396T338 1427Q338 1484 353 1528T396 1601T465 1646T557 1662Q614 1662 653 1647T723 1612T780 1578T836 1562Q865 1562 882 1578T899 1636Z"/><glyph unicode="Ö" horiz-adv-x="1385" d="M1305 662Q1305 501 1265 374T1146 159T951 24T681 -23Q530 -23 418 16T230 137T118 343T80 639Q80 796 120 921T239 1135T434 1270T705 1317Q852 1317 964 1278T1152 1158T1266 954T1305 662ZM1029 648Q1029 750 1013 833T959 976T856 1068T696 1101Q599 1101 534 1065T429 967T373 825T356 652Q356 546 372 462T426 317T528 226T689 194Q786 194 851 230T956 328T1012 472T1029 648ZM608 1534Q608 1464 581 1436T476 1408Q399 1408 372 1435T345 1530Q345 1601 373 1628T477 1656Q555 1656 581 1630T608 1534ZM1045 1534Q1045 1464 1017 1436T912 1408Q835 1408 809 1435T782 1530Q782 1601 809 1628T914 1656Q991 1656 1018 1630T1045 1534Z"/><glyph unicode="×" horiz-adv-x="1020" d="M643 577L920 301Q927 294 930 286T933 270Q933 252 920 231T888 193T849 163T816 151Q808 151 802 154T789 163L510 443L232 167Q226 161 218 158T201 154Q183 154 163 167T125 199T96 238T84 271Q84 286 96 298L376 577L99 855Q94 861 90 869T86 885Q86 904 99 924T131 962T170 992T204 1004Q219 1004 231 991L510 711L787 988Q793 994 800 997T818 1001Q836 1001 857 987T895 955T924 917T936 884Q936 878 934 871T924 857L643 577Z"/><glyph unicode="Ø" horiz-adv-x="1394" d="M1314 662Q1314 501 1274 374T1154 159T957 24T685 -23Q632 -23 584 -17T496 2L401 -192Q397 -200 389 -206T368 -215T334 -221T286 -223Q250 -223 228 -219T195 -208T183 -190T188 -167L306 74Q251 112 209 165T138 287T95 444T80 639Q80 796 120 921T239 1135T436 1270T709 1317Q761 1317 806 1311T899 1291L990 1479Q994 1487 1002 1492T1023 1502T1057 1508T1106 1510Q1142 1510 1164 1506T1197 1495T1208 1477T1203 1454L1088 1218Q1143 1179 1185 1126T1256 1003T1299 849T1314 662ZM1048 654Q1048 754 1028 835T965 977L588 207Q612 198 638 193T697 188Q797 188 864 223T972 322T1030 470T1048 654ZM808 1088Q784 1098 758 1103T697 1108Q596 1108 529 1072T422 973T364 827T347 651Q347 547 366 462T429 317L808 1088Z"/><glyph unicode="Ù" horiz-adv-x="1337" d="M1197 482Q1197 363 1162 269T1059 110T891 11T661 -23Q539 -23 442 7T278 100T176 254T140 471V1258Q140 1268 146 1276T167 1289T208 1297T272 1300Q310 1300 335 1297T375 1289T396 1276T403 1258V494Q403 417 422 361T476 267T561 212T672 193Q734 193 783 212T866 267T918 357T937 479V1258Q937 1268 943 1276T964 1289T1004 1297T1068 1300Q1106 1300 1130 1297T1170 1289T1191 1276T1197 1258V482ZM760 1439Q771 1425 773 1415T767 1399T738 1389T684 1386Q653 1386 632 1388T596 1394T571 1405T550 1421L328 1621Q313 1634 309 1646T313 1667T348 1683T420 1689Q457 1689 481 1688T523 1681T554 1667T580 1643L760 1439Z"/><glyph unicode="Ú" horiz-adv-x="1337" d="M1197 482Q1197 363 1162 269T1059 110T891 11T661 -23Q539 -23 442 7T278 100T176 254T140 471V1258Q140 1268 146 1276T167 1289T208 1297T272 1300Q310 1300 335 1297T375 1289T396 1276T403 1258V494Q403 417 422 361T476 267T561 212T672 193Q734 193 783 212T866 267T918 357T937 479V1258Q937 1268 943 1276T964 1289T1004 1297T1068 1300Q1106 1300 1130 1297T1170 1289T1191 1276T1197 1258V482ZM741 1643Q754 1658 766 1667T796 1681T839 1687T901 1689Q947 1689 972 1683T1007 1668T1012 1646T993 1621L771 1421Q761 1412 751 1406T725 1395T689 1388T637 1386Q603 1386 583 1389T554 1398T547 1415T561 1439L741 1643Z"/><glyph unicode="Û" horiz-adv-x="1337" d="M1197 482Q1197 363 1162 269T1059 110T891 11T661 -23Q539 -23 442 7T278 100T176 254T140 471V1258Q140 1268 146 1276T167 1289T208 1297T272 1300Q310 1300 335 1297T375 1289T396 1276T403 1258V494Q403 417 422 361T476 267T561 212T672 193Q734 193 783 212T866 267T918 357T937 479V1258Q937 1268 943 1276T964 1289T1004 1297T1068 1300Q1106 1300 1130 1297T1170 1289T1191 1276T1197 1258V482ZM668 1689Q700 1689 722 1688T759 1683T786 1670T811 1648L1009 1434Q1022 1420 1024 1411T1019 1396T989 1388T933 1386Q892 1386 866 1387T825 1392T801 1402T784 1417L666 1554L544 1420Q535 1409 527 1403T503 1393T462 1388T395 1386Q361 1386 341 1388T313 1396T306 1411T320 1434L515 1648Q526 1661 539 1669T569 1681T611 1687T668 1689Z"/><glyph unicode="Ü" horiz-adv-x="1337" d="M1197 482Q1197 363 1162 269T1059 110T891 11T661 -23Q539 -23 442 7T278 100T176 254T140 471V1258Q140 1268 146 1276T167 1289T208 1297T272 1300Q310 1300 335 1297T375 1289T396 1276T403 1258V494Q403 417 422 361T476 267T561 212T672 193Q734 193 783 212T866 267T918 357T937 479V1258Q937 1268 943 1276T964 1289T1004 1297T1068 1300Q1106 1300 1130 1297T1170 1289T1191 1276T1197 1258V482ZM580 1534Q580 1464 553 1436T448 1408Q371 1408 344 1435T317 1530Q317 1601 345 1628T449 1656Q527 1656 553 1630T580 1534ZM1017 1534Q1017 1464 989 1436T884 1408Q807 1408 781 1435T754 1530Q754 1601 781 1628T886 1656Q963 1656 990 1630T1017 1534Z"/><glyph unicode="Ý" horiz-adv-x="1064" d="M664 491V36Q664 26 658 18T636 5T596 -3T532 -6Q493 -6 468 -3T428 5T406 18T400 36V491L46 1196Q27 1233 22 1253T27 1284T70 1297T156 1300Q202 1300 229 1298T273 1291T296 1276T311 1253L455 935Q476 889 496 838T538 731H540Q559 785 579 836T618 933L760 1249Q765 1265 772 1274T795 1290T836 1298T905 1300Q962 1300 993 1298T1036 1285T1042 1253T1018 1196L664 491ZM639 1643Q652 1658 664 1667T694 1681T737 1687T799 1689Q845 1689 870 1683T905 1668T910 1646T891 1621L669 1421Q659 1412 649 1406T623 1395T587 1388T535 1386Q501 1386 481 1389T452 1398T445 1415T459 1439L639 1643Z"/><glyph unicode="Þ" horiz-adv-x="1090" d="M1027 695Q1027 585 994 501T896 360T738 272T525 242H404V30Q404 20 398 13T376 0T336 -7T272 -9Q234 -9 209 -7T168 0T147 12T141 30V1262Q141 1272 147 1279T168 1292T208 1299T272 1302Q311 1302 336 1300T376 1292T397 1280T404 1262V1087H535Q581 1087 623 1084T707 1072Q781 1058 840 1027T941 948T1005 837T1027 695ZM752 675Q752 751 719 802T620 872Q597 880 572 882T518 884H404V446H539Q593 446 633 463T699 510T738 582T752 675Z"/><glyph unicode="ß" horiz-adv-x="1136" d="M1084 296Q1084 230 1060 172T990 71T875 4T718 -21Q684 -21 653 -16T596 -4T552 12T525 29T513 56T508 114Q508 140 510 157T517 186T529 202T544 207Q556 207 569 200T599 185T640 169T697 162Q730 162 755 171T796 195T821 231T830 275Q830 305 816 327T780 368T728 406T668 444T609 488T557 545T521 618T507 715Q507 764 521 804T561 876T626 930T711 963Q718 982 720 1001T723 1044Q723 1074 714 1102T686 1151T636 1185T562 1199Q512 1199 477 1183T420 1136T389 1062T379 965V42Q379 31 373 22T353 6T315 -3T253 -6Q216 -6 192 -3T154 6T133 21T127 42V960Q127 1064 156 1146T241 1284T380 1370T570 1400Q669 1400 745 1375T873 1306T951 1200T978 1064Q978 1015 971 969T949 887T922 841T888 830Q851 830 826 823T786 802T763 771T756 734Q756 694 780 666T841 612T920 561T999 500T1059 416T1084 296Z"/><glyph unicode="à" horiz-adv-x="1011" d="M886 31Q886 17 876 9T845 -2T781 -6Q736 -6 716 -3T687 9T678 31V102Q623 43 553 10T396 -23Q325 -23 266 -5T163 50T95 141T71 267Q71 345 101 402T192 497T343 553T552 571H639V625Q639 667 631 698T603 751T551 782T470 792Q407 792 358 778T270 747T207 716T165 702Q154 702 146 709T132 729T123 761T120 803Q120 834 125 852T144 884T193 916T275 949T377 973T492 983Q597 983 671 963T794 900T864 790T886 631V31ZM639 413H543Q482 413 439 404T369 377T330 334T317 275Q317 219 352 187T451 155Q504 155 548 182T639 261V413ZM613 1135Q622 1122 624 1112T618 1096T590 1086T535 1083Q506 1083 487 1085T455 1091T434 1101T417 1118L224 1350Q214 1361 213 1371T223 1388T262 1400T335 1404Q368 1404 390 1402T428 1396T452 1383T470 1364L613 1135Z"/><glyph unicode="á" horiz-adv-x="1011" d="M886 31Q886 17 876 9T845 -2T781 -6Q736 -6 716 -3T687 9T678 31V102Q623 43 553 10T396 -23Q325 -23 266 -5T163 50T95 141T71 267Q71 345 101 402T192 497T343 553T552 571H639V625Q639 667 631 698T603 751T551 782T470 792Q407 792 358 778T270 747T207 716T165 702Q154 702 146 709T132 729T123 761T120 803Q120 834 125 852T144 884T193 916T275 949T377 973T492 983Q597 983 671 963T794 900T864 790T886 631V31ZM639 413H543Q482 413 439 404T369 377T330 334T317 275Q317 219 352 187T451 155Q504 155 548 182T639 261V413ZM551 1364Q558 1375 568 1383T593 1395T631 1402T687 1404Q733 1404 759 1400T797 1389T808 1371T798 1350L604 1118Q596 1108 588 1102T568 1091T536 1085T488 1083Q453 1083 433 1086T404 1095T397 1112T408 1135L551 1364Z"/><glyph unicode="â" horiz-adv-x="1011" d="M886 31Q886 17 876 9T845 -2T781 -6Q736 -6 716 -3T687 9T678 31V102Q623 43 553 10T396 -23Q325 -23 266 -5T163 50T95 141T71 267Q71 345 101 402T192 497T343 553T552 571H639V625Q639 667 631 698T603 751T551 782T470 792Q407 792 358 778T270 747T207 716T165 702Q154 702 146 709T132 729T123 761T120 803Q120 834 125 852T144 884T193 916T275 949T377 973T492 983Q597 983 671 963T794 900T864 790T886 631V31ZM639 413H543Q482 413 439 404T369 377T330 334T317 275Q317 219 352 187T451 155Q504 155 548 182T639 261V413ZM411 1118Q404 1107 397 1100T378 1090T348 1085T299 1083Q259 1083 238 1086T209 1097T207 1118T227 1149L385 1372Q391 1382 400 1387T425 1397T463 1402T516 1404Q548 1404 569 1402T605 1396T629 1386T645 1372L802 1149Q816 1130 821 1118T819 1098T791 1087T730 1083Q698 1083 680 1084T650 1090T632 1100T619 1118L515 1268L411 1118Z"/><glyph unicode="ã" horiz-adv-x="1011" d="M886 31Q886 17 876 9T845 -2T781 -6Q736 -6 716 -3T687 9T678 31V102Q623 43 553 10T396 -23Q325 -23 266 -5T163 50T95 141T71 267Q71 345 101 402T192 497T343 553T552 571H639V625Q639 667 631 698T603 751T551 782T470 792Q407 792 358 778T270 747T207 716T165 702Q154 702 146 709T132 729T123 761T120 803Q120 834 125 852T144 884T193 916T275 949T377 973T492 983Q597 983 671 963T794 900T864 790T886 631V31ZM639 413H543Q482 413 439 404T369 377T330 334T317 275Q317 219 352 187T451 155Q504 155 548 182T639 261V413ZM865 1336Q865 1215 808 1151T648 1086Q609 1086 579 1094T525 1115T482 1142T444 1169T409 1190T371 1199Q338 1199 324 1176T310 1114Q310 1105 307 1100T295 1091T271 1087T231 1086Q210 1086 196 1087T173 1093T160 1106T156 1127Q156 1243 212 1309T372 1376Q429 1376 468 1359T538 1320T595 1281T649 1263Q679 1263 695 1284T711 1348Q711 1365 726 1370T787 1376Q832 1376 848 1369T865 1336Z"/><glyph unicode="ä" horiz-adv-x="1011" d="M886 31Q886 17 876 9T845 -2T781 -6Q736 -6 716 -3T687 9T678 31V102Q623 43 553 10T396 -23Q325 -23 266 -5T163 50T95 141T71 267Q71 345 101 402T192 497T343 553T552 571H639V625Q639 667 631 698T603 751T551 782T470 792Q407 792 358 778T270 747T207 716T165 702Q154 702 146 709T132 729T123 761T120 803Q120 834 125 852T144 884T193 916T275 949T377 973T492 983Q597 983 671 963T794 900T864 790T886 631V31ZM639 413H543Q482 413 439 404T369 377T330 334T317 275Q317 219 352 187T451 155Q504 155 548 182T639 261V413ZM443 1227Q443 1157 417 1130T316 1102Q241 1102 215 1128T189 1222Q189 1294 216 1321T316 1348Q392 1348 417 1322T443 1227ZM834 1227Q834 1157 808 1130T706 1102Q632 1102 606 1128T580 1222Q580 1294 606 1321T707 1348Q782 1348 808 1322T834 1227Z"/><glyph unicode="å" horiz-adv-x="1011" d="M886 31Q886 17 876 9T845 -2T781 -6Q736 -6 716 -3T687 9T678 31V102Q623 43 553 10T396 -23Q325 -23 266 -5T163 50T95 141T71 267Q71 345 101 402T192 497T343 553T552 571H639V625Q639 667 631 698T603 751T551 782T470 792Q407 792 358 778T270 747T207 716T165 702Q154 702 146 709T132 729T123 761T120 803Q120 834 125 852T144 884T193 916T275 949T377 973T492 983Q597 983 671 963T794 900T864 790T886 631V31ZM639 413H543Q482 413 439 404T369 377T330 334T317 275Q317 219 352 187T451 155Q504 155 548 182T639 261V413ZM744 1266Q744 1219 728 1182T682 1120T607 1081T506 1067Q448 1067 405 1080T334 1117T291 1177T277 1259Q277 1306 292 1343T338 1405T413 1444T514 1457Q627 1457 685 1408T744 1266ZM594 1261Q594 1300 574 1323T508 1347Q468 1347 448 1325T427 1264Q427 1223 446 1200T512 1177Q553 1177 573 1199T594 1261Z"/><glyph unicode="æ" horiz-adv-x="1587" d="M1506 506Q1506 460 1486 438T1429 416H886Q886 359 899 313T943 234T1020 184T1135 167Q1199 167 1248 176T1333 197T1393 218T1432 228Q1441 228 1447 225T1457 212T1463 187T1465 145Q1465 123 1464 108T1461 81T1455 63T1444 48T1408 29T1335 6T1233 -14T1111 -23Q1038 -23 980 -13T876 18T796 68T735 134Q702 93 663 64T581 15T492 -14T396 -23Q325 -23 266 -5T163 50T95 141T71 266Q71 345 101 402T192 497T343 553T552 571H639V625Q639 667 631 698T603 751T551 782T470 792Q407 792 358 778T270 747T206 716T164 702Q153 702 145 709T131 729T123 761T120 803Q120 834 125 852T144 884T193 916T275 949T377 973T492 983Q551 983 598 975T683 951T749 912T797 859Q845 919 921 951T1096 983Q1203 983 1280 950T1407 858T1482 719T1506 545V506ZM1263 578Q1264 631 1253 673T1220 744T1162 789T1080 805Q1031 805 996 787T937 739T901 667T886 578H1263ZM655 279Q645 306 641 343T637 413H543Q482 413 439 404T369 377T330 334T317 275Q317 219 352 187T451 155Q504 155 553 185T655 279Z"/><glyph unicode="ç" horiz-adv-x="857" d="M801 176Q801 150 800 133T796 103T790 84T774 65T732 36T661 5T572 -16L594 -66Q612 -105 620 -134T628 -190Q628 -236 612 -269T566 -323T498 -354T414 -365Q370 -365 333 -359T270 -346T235 -334T220 -321T214 -301T212 -266Q212 -226 219 -211T247 -195H363Q392 -195 406 -183T420 -148Q420 -136 416 -121T404 -90L365 -5Q267 20 202 82T105 240T72 463Q72 597 105 694T199 856T341 951T521 982Q561 982 599 975T671 956T731 929T769 903T784 885T791 865T795 836T797 793Q797 735 787 712T761 688Q744 688 725 702T680 733T618 764T532 778Q434 778 382 703T330 481Q330 409 343 354T381 262T445 207T535 188Q587 188 624 203T690 238T737 272T769 288Q778 288 784 283T793 265T799 230T801 176Z"/><glyph unicode="è" horiz-adv-x="1031" d="M950 506Q950 460 930 438T873 416H330Q330 359 343 313T386 234T462 184T574 167Q640 167 690 176T776 197T837 218T876 228Q885 228 891 225T901 212T906 187T908 145Q908 123 907 108T904 81T898 63T888 48T852 29T778 6T675 -14T551 -23Q432 -23 343 7T193 98T104 252T74 470Q74 589 105 684T195 846T338 948T529 983Q641 983 720 950T851 859T926 720T950 546V506ZM706 578Q709 684 664 744T523 805Q475 805 440 787T381 739T345 667T330 578H706ZM620 1135Q629 1122 631 1112T625 1096T597 1086T542 1083Q513 1083 494 1085T462 1091T441 1101T424 1118L231 1350Q221 1361 220 1371T230 1388T269 1400T342 1404Q375 1404 397 1402T435 1396T459 1383T477 1364L620 1135Z"/><glyph unicode="é" horiz-adv-x="1031" d="M950 506Q950 460 930 438T873 416H330Q330 359 343 313T386 234T462 184T574 167Q640 167 690 176T776 197T837 218T876 228Q885 228 891 225T901 212T906 187T908 145Q908 123 907 108T904 81T898 63T888 48T852 29T778 6T675 -14T551 -23Q432 -23 343 7T193 98T104 252T74 470Q74 589 105 684T195 846T338 948T529 983Q641 983 720 950T851 859T926 720T950 546V506ZM706 578Q709 684 664 744T523 805Q475 805 440 787T381 739T345 667T330 578H706ZM565 1364Q572 1375 582 1383T607 1395T645 1402T701 1404Q747 1404 773 1400T811 1389T822 1371T812 1350L618 1118Q610 1108 602 1102T582 1091T550 1085T502 1083Q467 1083 447 1086T418 1095T411 1112T422 1135L565 1364Z"/><glyph unicode="ê" horiz-adv-x="1031" d="M950 506Q950 460 930 438T873 416H330Q330 359 343 313T386 234T462 184T574 167Q640 167 690 176T776 197T837 218T876 228Q885 228 891 225T901 212T906 187T908 145Q908 123 907 108T904 81T898 63T888 48T852 29T778 6T675 -14T551 -23Q432 -23 343 7T193 98T104 252T74 470Q74 589 105 684T195 846T338 948T529 983Q641 983 720 950T851 859T926 720T950 546V506ZM706 578Q709 684 664 744T523 805Q475 805 440 787T381 739T345 667T330 578H706ZM417 1118Q410 1107 403 1100T384 1090T354 1085T305 1083Q265 1083 244 1086T215 1097T213 1118T233 1149L391 1372Q397 1382 406 1387T431 1397T469 1402T522 1404Q554 1404 575 1402T611 1396T635 1386T651 1372L808 1149Q822 1130 827 1118T825 1098T797 1087T736 1083Q704 1083 686 1084T656 1090T638 1100T625 1118L521 1268L417 1118Z"/><glyph unicode="ë" horiz-adv-x="1031" d="M950 506Q950 460 930 438T873 416H330Q330 359 343 313T386 234T462 184T574 167Q640 167 690 176T776 197T837 218T876 228Q885 228 891 225T901 212T906 187T908 145Q908 123 907 108T904 81T898 63T888 48T852 29T778 6T675 -14T551 -23Q432 -23 343 7T193 98T104 252T74 470Q74 589 105 684T195 846T338 948T529 983Q641 983 720 950T851 859T926 720T950 546V506ZM706 578Q709 684 664 744T523 805Q475 805 440 787T381 739T345 667T330 578H706ZM452 1227Q452 1157 426 1130T325 1102Q250 1102 224 1128T198 1222Q198 1294 225 1321T325 1348Q401 1348 426 1322T452 1227ZM843 1227Q843 1157 817 1130T715 1102Q641 1102 615 1128T589 1222Q589 1294 615 1321T716 1348Q791 1348 817 1322T843 1227Z"/><glyph unicode="ì" horiz-adv-x="503" d="M378 34Q378 24 372 17T352 4T313 -3T252 -6Q215 -6 191 -4T153 4T132 16T126 34V926Q126 936 132 943T152 956T191 963T252 966Q289 966 313 964T351 956T372 944T378 926V34ZM366 1135Q375 1122 377 1112T371 1096T343 1086T288 1083Q259 1083 240 1085T208 1091T187 1101T170 1118L-23 1350Q-33 1361 -34 1371T-24 1388T15 1400T88 1404Q121 1404 143 1402T181 1396T205 1383T223 1364L366 1135Z"/><glyph unicode="í" horiz-adv-x="503" d="M378 34Q378 24 372 17T352 4T313 -3T252 -6Q215 -6 191 -4T153 4T132 16T126 34V926Q126 936 132 943T152 956T191 963T252 966Q289 966 313 964T351 956T372 944T378 926V34ZM282 1364Q289 1375 299 1383T324 1395T362 1402T418 1404Q464 1404 490 1400T528 1389T539 1371T529 1350L335 1118Q327 1108 319 1102T299 1091T267 1085T219 1083Q184 1083 164 1086T135 1095T128 1112T139 1135L282 1364Z"/><glyph unicode="î" horiz-adv-x="503" d="M378 34Q378 24 372 17T352 4T313 -3T252 -6Q215 -6 191 -4T153 4T132 16T126 34V926Q126 936 132 943T152 956T191 963T252 966Q289 966 313 964T351 956T372 944T378 926V34ZM150 1118Q143 1107 136 1100T117 1090T87 1085T38 1083Q-2 1083 -23 1086T-52 1097T-54 1118T-34 1149L124 1372Q130 1382 139 1387T164 1397T202 1402T255 1404Q287 1404 308 1402T344 1396T368 1386T384 1372L541 1149Q555 1130 560 1118T558 1098T530 1087T469 1083Q437 1083 419 1084T389 1090T371 1100T358 1118L254 1268L150 1118Z"/><glyph unicode="ï" horiz-adv-x="503" d="M378 34Q378 24 372 17T352 4T313 -3T252 -6Q215 -6 191 -4T153 4T132 16T126 34V926Q126 936 132 943T152 956T191 963T252 966Q289 966 313 964T351 956T372 944T378 926V34ZM207 1227Q207 1157 181 1130T85 1102Q14 1102 -11 1128T-36 1222Q-36 1293 -10 1320T85 1348Q157 1348 182 1322T207 1227ZM543 1227Q543 1157 517 1130T421 1102Q350 1102 326 1128T301 1222Q301 1293 326 1320T422 1348Q493 1348 518 1322T543 1227Z"/><glyph unicode="ð" horiz-adv-x="1099" d="M289 1055Q276 1052 268 1053T254 1062T247 1085T245 1125Q245 1148 247 1163T254 1188T268 1203T290 1210L438 1247Q429 1257 417 1269T393 1295T368 1321T345 1345Q336 1354 334 1363T343 1378T384 1389T467 1394Q511 1394 537 1392T581 1386T609 1376T631 1359Q650 1338 664 1323T681 1304L928 1363Q940 1366 948 1365T962 1357T970 1335T972 1295Q972 1272 970 1256T963 1231T949 1216T927 1208L791 1175Q845 1103 883 1034T944 892T978 743T988 577Q988 428 958 316T867 128T715 15T505 -23Q389 -23 308 11T175 108T100 263T76 468Q76 596 104 692T183 853T305 950T465 983Q496 983 524 978T580 961T633 933T687 893Q678 916 666 942T638 997T601 1056T552 1119L289 1055ZM730 539Q730 566 730 591T727 633Q696 667 669 692T615 735T565 760T516 769Q470 769 435 747T378 687T344 597T332 485Q332 425 341 371T372 277T427 214T513 190Q567 190 608 210T676 274T716 382T730 539Z"/><glyph unicode="ñ" horiz-adv-x="1099" d="M978 34Q978 24 972 17T952 4T914 -3T853 -6Q816 -6 792 -4T753 4T733 16T727 34V543Q727 608 718 645T690 708T644 749T577 764Q529 764 480 729T378 627V34Q378 24 372 17T352 4T313 -3T252 -6Q215 -6 191 -4T153 4T132 16T126 34V926Q126 936 131 943T149 956T182 963T234 966Q266 966 287 964T319 956T336 944T341 926V823Q415 903 491 943T651 983Q742 983 804 953T905 872T961 751T978 585V34ZM909 1336Q909 1215 852 1151T692 1086Q653 1086 623 1094T569 1115T526 1142T488 1169T453 1190T415 1199Q382 1199 368 1176T354 1114Q354 1105 351 1100T339 1091T315 1087T275 1086Q254 1086 240 1087T217 1093T204 1106T200 1127Q200 1243 256 1309T416 1376Q473 1376 512 1359T582 1320T639 1281T693 1263Q723 1263 739 1284T755 1348Q755 1365 770 1370T831 1376Q876 1376 892 1369T909 1336Z"/><glyph unicode="ò" horiz-adv-x="1101" d="M1028 489Q1028 375 998 281T907 119T754 14T539 -23Q420 -23 332 10T186 106T100 261T72 471Q72 585 102 679T194 841T346 946T561 983Q681 983 769 951T914 855T1000 700T1028 489ZM769 479Q769 545 759 600T723 697T657 761T552 784Q496 784 454 764T385 704T345 609T331 482Q331 416 342 361T377 264T444 201T548 178Q605 178 647 198T716 258T756 352T769 479ZM656 1135Q665 1122 667 1112T661 1096T633 1086T578 1083Q549 1083 530 1085T498 1091T477 1101T460 1118L267 1350Q257 1361 256 1371T266 1388T305 1400T378 1404Q411 1404 433 1402T471 1396T495 1383T513 1364L656 1135Z"/><glyph unicode="ó" horiz-adv-x="1101" d="M1028 489Q1028 375 998 281T907 119T754 14T539 -23Q420 -23 332 10T186 106T100 261T72 471Q72 585 102 679T194 841T346 946T561 983Q681 983 769 951T914 855T1000 700T1028 489ZM769 479Q769 545 759 600T723 697T657 761T552 784Q496 784 454 764T385 704T345 609T331 482Q331 416 342 361T377 264T444 201T548 178Q605 178 647 198T716 258T756 352T769 479ZM599 1364Q606 1375 616 1383T641 1395T679 1402T735 1404Q781 1404 807 1400T845 1389T856 1371T846 1350L652 1118Q644 1108 636 1102T616 1091T584 1085T536 1083Q501 1083 481 1086T452 1095T445 1112T456 1135L599 1364Z"/><glyph unicode="ô" horiz-adv-x="1101" d="M1028 489Q1028 375 998 281T907 119T754 14T539 -23Q420 -23 332 10T186 106T100 261T72 471Q72 585 102 679T194 841T346 946T561 983Q681 983 769 951T914 855T1000 700T1028 489ZM769 479Q769 545 759 600T723 697T657 761T552 784Q496 784 454 764T385 704T345 609T331 482Q331 416 342 361T377 264T444 201T548 178Q605 178 647 198T716 258T756 352T769 479ZM448 1118Q441 1107 434 1100T415 1090T385 1085T336 1083Q296 1083 275 1086T246 1097T244 1118T264 1149L422 1372Q428 1382 437 1387T462 1397T500 1402T553 1404Q585 1404 606 1402T642 1396T666 1386T682 1372L839 1149Q853 1130 858 1118T856 1098T828 1087T767 1083Q735 1083 717 1084T687 1090T669 1100T656 1118L552 1268L448 1118Z"/><glyph unicode="õ" horiz-adv-x="1101" d="M1028 489Q1028 375 998 281T907 119T754 14T539 -23Q420 -23 332 10T186 106T100 261T72 471Q72 585 102 679T194 841T346 946T561 983Q681 983 769 951T914 855T1000 700T1028 489ZM769 479Q769 545 759 600T723 697T657 761T552 784Q496 784 454 764T385 704T345 609T331 482Q331 416 342 361T377 264T444 201T548 178Q605 178 647 198T716 258T756 352T769 479ZM907 1336Q907 1215 850 1151T690 1086Q651 1086 621 1094T567 1115T524 1142T486 1169T451 1190T413 1199Q380 1199 366 1176T352 1114Q352 1105 349 1100T337 1091T313 1087T273 1086Q252 1086 238 1087T215 1093T202 1106T198 1127Q198 1243 254 1309T414 1376Q471 1376 510 1359T580 1320T637 1281T691 1263Q721 1263 737 1284T753 1348Q753 1365 768 1370T829 1376Q874 1376 890 1369T907 1336Z"/><glyph unicode="ö" horiz-adv-x="1101" d="M1028 489Q1028 375 998 281T907 119T754 14T539 -23Q420 -23 332 10T186 106T100 261T72 471Q72 585 102 679T194 841T346 946T561 983Q681 983 769 951T914 855T1000 700T1028 489ZM769 479Q769 545 759 600T723 697T657 761T552 784Q496 784 454 764T385 704T345 609T331 482Q331 416 342 361T377 264T444 201T548 178Q605 178 647 198T716 258T756 352T769 479ZM485 1227Q485 1157 459 1130T358 1102Q283 1102 257 1128T231 1222Q231 1294 258 1321T358 1348Q434 1348 459 1322T485 1227ZM876 1227Q876 1157 850 1130T748 1102Q674 1102 648 1128T622 1222Q622 1294 648 1321T749 1348Q824 1348 850 1322T876 1227Z"/><glyph unicode="÷" horiz-adv-x="1020" d="M650 954Q650 912 643 884T619 838T574 812T504 804Q462 804 434 812T390 838T366 884T359 954Q359 996 366 1025T389 1073T434 1099T504 1108Q545 1108 573 1100T618 1073T642 1026T650 954ZM976 576Q976 549 973 531T966 501T954 484T939 479H70Q61 479 54 484T43 500T36 530T34 576Q34 603 36 621T42 651T54 667T70 672H939Q947 672 954 667T965 651T973 622T976 576ZM650 192Q650 151 643 123T619 77T574 51T504 43Q462 43 434 51T390 76T366 122T359 192Q359 235 366 264T389 312T434 338T504 346Q545 346 573 338T618 312T642 265T650 192Z"/><glyph unicode="ø" horiz-adv-x="1114" d="M1042 489Q1042 375 1011 281T918 119T763 14T546 -23Q508 -23 477 -19T418 -8L352 -146Q345 -162 321 -168T253 -175Q193 -175 175 -164T169 -128L254 50Q207 80 173 123T116 221T83 338T72 471Q72 586 102 680T195 841T350 946T568 983Q601 983 633 980T695 969L758 1101Q766 1116 788 1123T856 1130Q916 1130 934 1119T941 1083L859 911Q906 881 940 838T997 741T1031 624T1042 489ZM804 486Q804 514 801 542T792 597T774 647T747 689L499 170Q512 165 529 163T563 160Q623 160 668 181T744 244T789 346T804 486ZM616 792Q603 796 586 798T550 801Q490 801 445 779T370 716T325 614T310 476Q310 417 322 363T367 271L616 792Z"/><glyph unicode="ù" horiz-adv-x="1099" d="M972 34Q972 24 967 17T950 4T917 -3T865 -6Q832 -6 812 -4T779 4T762 16T757 34V137Q683 57 607 17T448 -23Q356 -23 294 7T193 89T138 209T121 380V926Q121 936 126 943T146 956T185 963T246 966Q283 966 307 964T345 956T366 944T372 926V422Q372 352 381 315T408 252T455 211T522 196Q570 196 618 231T722 333V926Q722 936 727 943T747 956T786 963T847 966Q884 966 908 964T946 956T966 944T972 926V34ZM634 1135Q643 1122 645 1112T639 1096T611 1086T556 1083Q527 1083 508 1085T476 1091T455 1101T438 1118L245 1350Q235 1361 234 1371T244 1388T283 1400T356 1404Q389 1404 411 1402T449 1396T473 1383T491 1364L634 1135Z"/><glyph unicode="ú" horiz-adv-x="1099" d="M972 34Q972 24 967 17T950 4T917 -3T865 -6Q832 -6 812 -4T779 4T762 16T757 34V137Q683 57 607 17T448 -23Q356 -23 294 7T193 89T138 209T121 380V926Q121 936 126 943T146 956T185 963T246 966Q283 966 307 964T345 956T366 944T372 926V422Q372 352 381 315T408 252T455 211T522 196Q570 196 618 231T722 333V926Q722 936 727 943T747 956T786 963T847 966Q884 966 908 964T946 956T966 944T972 926V34ZM598 1364Q605 1375 615 1383T640 1395T678 1402T734 1404Q780 1404 806 1400T844 1389T855 1371T845 1350L651 1118Q643 1108 635 1102T615 1091T583 1085T535 1083Q500 1083 480 1086T451 1095T444 1112T455 1135L598 1364Z"/><glyph unicode="û" horiz-adv-x="1099" d="M972 34Q972 24 967 17T950 4T917 -3T865 -6Q832 -6 812 -4T779 4T762 16T757 34V137Q683 57 607 17T448 -23Q356 -23 294 7T193 89T138 209T121 380V926Q121 936 126 943T146 956T185 963T246 966Q283 966 307 964T345 956T366 944T372 926V422Q372 352 381 315T408 252T455 211T522 196Q570 196 618 231T722 333V926Q722 936 727 943T747 956T786 963T847 966Q884 966 908 964T946 956T966 944T972 926V34ZM445 1118Q438 1107 431 1100T412 1090T382 1085T333 1083Q293 1083 272 1086T243 1097T241 1118T261 1149L419 1372Q425 1382 434 1387T459 1397T497 1402T550 1404Q582 1404 603 1402T639 1396T663 1386T679 1372L836 1149Q850 1130 855 1118T853 1098T825 1087T764 1083Q732 1083 714 1084T684 1090T666 1100T653 1118L549 1268L445 1118Z"/><glyph unicode="ü" horiz-adv-x="1099" d="M972 34Q972 24 967 17T950 4T917 -3T865 -6Q832 -6 812 -4T779 4T762 16T757 34V137Q683 57 607 17T448 -23Q356 -23 294 7T193 89T138 209T121 380V926Q121 936 126 943T146 956T185 963T246 966Q283 966 307 964T345 956T366 944T372 926V422Q372 352 381 315T408 252T455 211T522 196Q570 196 618 231T722 333V926Q722 936 727 943T747 956T786 963T847 966Q884 966 908 964T946 956T966 944T972 926V34ZM481 1227Q481 1157 455 1130T354 1102Q279 1102 253 1128T227 1222Q227 1294 254 1321T354 1348Q430 1348 455 1322T481 1227ZM872 1227Q872 1157 846 1130T744 1102Q670 1102 644 1128T618 1222Q618 1294 644 1321T745 1348Q820 1348 846 1322T872 1227Z"/><glyph unicode="ý" horiz-adv-x="970" d="M643 0L535 -316Q526 -341 486 -352T369 -363Q329 -363 305 -360T269 -348T256 -328T262 -299L381 0Q368 6 358 18T342 45L35 865Q22 900 22 918T34 947T74 962T150 966Q193 966 218 965T257 957T278 939T292 903L502 306H505L697 915Q703 941 712 949T744 962T821 966Q864 966 892 962T934 947T948 918T940 874L643 0ZM545 1364Q552 1375 562 1383T587 1395T625 1402T681 1404Q727 1404 753 1400T791 1389T802 1371T792 1350L598 1118Q590 1108 582 1102T562 1091T530 1085T482 1083Q447 1083 427 1086T398 1095T391 1112T402 1135L545 1364Z"/><glyph unicode="þ" horiz-adv-x="1099" d="M1024 492Q1024 373 999 278T925 115T803 13T636 -23Q597 -23 564 -16T501 7T440 46T378 100V-320Q378 -330 372 -338T352 -351T313 -360T252 -363Q215 -363 191 -360T153 -352T132 -338T126 -320V1349Q126 1359 132 1367T152 1380T191 1389T252 1392Q289 1392 313 1389T351 1381T372 1367T378 1349V856Q412 888 445 912T512 951T582 975T660 983Q758 983 827 944T940 839T1004 683T1024 492ZM762 474Q762 531 754 584T725 678T670 743T586 768Q561 768 537 761T488 736T435 692T378 625V331Q431 264 479 228T580 191Q629 191 663 216T720 281T752 372T762 474Z"/><glyph unicode="ÿ" horiz-adv-x="970" d="M643 0L535 -316Q526 -341 486 -352T369 -363Q329 -363 305 -360T269 -348T256 -328T262 -299L381 0Q368 6 358 18T342 45L35 865Q22 900 22 918T34 947T74 962T150 966Q193 966 218 965T257 957T278 939T292 903L502 306H505L697 915Q703 941 712 949T744 962T821 966Q864 966 892 962T934 947T948 918T940 874L643 0ZM422 1227Q422 1157 396 1130T295 1102Q220 1102 194 1128T168 1222Q168 1294 195 1321T295 1348Q371 1348 396 1322T422 1227ZM813 1227Q813 1157 787 1130T685 1102Q611 1102 585 1128T559 1222Q559 1294 585 1321T686 1348Q761 1348 787 1322T813 1227Z"/><glyph unicode="Ā" horiz-adv-x="1241" d="M1201 98Q1213 62 1216 41T1208 10T1169 -3T1092 -6Q1041 -6 1013 -5T969 1T948 14T938 35L851 295H365L283 42Q279 28 273 19T252 4T211 -4T141 -6Q95 -6 69 -3T33 11T26 44T41 100L440 1248Q446 1265 454 1275T479 1291T528 1298T610 1300Q669 1300 704 1299T758 1292T786 1275T801 1245L1201 98ZM607 1047H606L423 497H790L607 1047ZM921 1616Q932 1616 939 1611T952 1596T959 1567T961 1523Q961 1497 959 1480T952 1451T940 1436T921 1431H331Q319 1431 311 1435T297 1451T290 1479T287 1523Q287 1548 289 1566T297 1595T310 1611T331 1616H921Z"/><glyph unicode="ā" horiz-adv-x="1011" d="M886 31Q886 17 876 9T845 -2T781 -6Q736 -6 716 -3T687 9T678 31V102Q623 43 553 10T396 -23Q325 -23 266 -5T163 50T95 141T71 267Q71 345 101 402T192 497T343 553T552 571H639V625Q639 667 631 698T603 751T551 782T470 792Q407 792 358 778T270 747T207 716T165 702Q154 702 146 709T132 729T123 761T120 803Q120 834 125 852T144 884T193 916T275 949T377 973T492 983Q597 983 671 963T794 900T864 790T886 631V31ZM639 413H543Q482 413 439 404T369 377T330 334T317 275Q317 219 352 187T451 155Q504 155 548 182T639 261V413ZM767 1323Q778 1323 786 1319T798 1303T805 1275T808 1231Q808 1205 806 1188T799 1160T786 1145T767 1140H257Q245 1140 237 1144T223 1160T216 1188T213 1231Q213 1256 215 1274T223 1302T236 1318T257 1323H767Z"/><glyph unicode="Ă" horiz-adv-x="1241" d="M1201 98Q1213 62 1216 41T1208 10T1169 -3T1092 -6Q1041 -6 1013 -5T969 1T948 14T938 35L851 295H365L283 42Q279 28 273 19T252 4T211 -4T141 -6Q95 -6 69 -3T33 11T26 44T41 100L440 1248Q446 1265 454 1275T479 1291T528 1298T610 1300Q669 1300 704 1299T758 1292T786 1275T801 1245L1201 98ZM607 1047H606L423 497H790L607 1047ZM924 1661Q924 1598 905 1547T848 1460T754 1405T623 1386Q545 1386 489 1406T396 1461T342 1548T324 1661Q324 1681 341 1689T408 1697Q456 1697 475 1690T496 1666T506 1622T530 1580T569 1555T625 1546Q668 1546 695 1562T736 1604T751 1653T770 1687T836 1697Q887 1697 905 1689T924 1661Z"/><glyph unicode="ă" horiz-adv-x="1011" d="M886 31Q886 17 876 9T845 -2T781 -6Q736 -6 716 -3T687 9T678 31V102Q623 43 553 10T396 -23Q325 -23 266 -5T163 50T95 141T71 267Q71 345 101 402T192 497T343 553T552 571H639V625Q639 667 631 698T603 751T551 782T470 792Q407 792 358 778T270 747T207 716T165 702Q154 702 146 709T132 729T123 761T120 803Q120 834 125 852T144 884T193 916T275 949T377 973T492 983Q597 983 671 963T794 900T864 790T886 631V31ZM639 413H543Q482 413 439 404T369 377T330 334T317 275Q317 219 352 187T451 155Q504 155 548 182T639 261V413ZM635 1361Q637 1380 654 1390T716 1400Q742 1400 759 1398T785 1392T798 1381T802 1365Q802 1298 785 1246T732 1159T641 1105T510 1086Q432 1086 377 1104T287 1158T236 1245T219 1363Q219 1383 236 1391T301 1400Q326 1400 342 1398T369 1391T383 1379T388 1361Q391 1334 398 1313T419 1276T456 1252T510 1244Q539 1244 561 1251T599 1272T624 1308T635 1361Z"/><glyph unicode="Ą" horiz-adv-x="1241" d="M1235 -260Q1235 -281 1233 -295T1226 -319T1213 -334T1178 -347T1132 -358T1088 -363T1037 -365Q985 -365 942 -356T868 -327T820 -276T803 -201Q803 -183 807 -165T822 -126T848 -84T891 -36L943 16L851 295H365L283 42Q279 28 273 19T252 4T211 -4T141 -6Q95 -6 69 -3T33 11T26 44T41 100L440 1248Q446 1265 454 1275T479 1291T528 1298T610 1300Q669 1300 704 1299T758 1292T786 1276T801 1245L1193 116Q1201 92 1204 76T1204 44T1187 12T1149 -30L1094 -85Q1073 -106 1065 -121T1056 -154Q1056 -175 1072 -185T1127 -195H1200Q1220 -195 1227 -207T1235 -260ZM607 1047H606L423 497H790L607 1047Z"/><glyph unicode="ą" horiz-adv-x="1011" d="M947 -260Q947 -281 945 -295T939 -318T928 -332T911 -341Q881 -353 844 -359T760 -365Q657 -365 600 -325T542 -205Q542 -186 546 -167T559 -128T584 -88T623 -44L680 13V107H678Q623 45 554 11T396 -23Q325 -23 266 -5T163 50T95 141T71 267Q71 345 101 402T192 497T343 553T552 571H639V625Q639 667 631 698T603 751T551 782T470 792Q407 792 358 778T270 747T207 716T165 702Q154 702 146 709T132 729T123 761T120 803Q120 834 125 852T144 884T193 916T275 949T377 973T492 983Q597 983 671 963T794 900T864 790T886 631V40Q886 13 880 -7T858 -44L815 -85Q795 -106 787 -122T779 -154Q779 -196 840 -196H912Q932 -196 939 -209T947 -260ZM639 413H543Q482 413 439 404T369 377T330 334T317 275Q317 219 352 187T451 155Q504 155 548 182T639 261V413Z"/><glyph unicode="Ć" horiz-adv-x="1084" d="M1036 196Q1036 171 1035 154T1030 124T1022 102T1006 82T964 52T887 18T783 -10T656 -21Q523 -21 416 20T234 142T119 346T79 630Q79 795 123 923T246 1138T435 1270T679 1315Q733 1315 783 1306T875 1283T952 1249T999 1217T1018 1194T1026 1171T1030 1138T1032 1091Q1032 1061 1030 1040T1023 1006T1011 987T995 981Q980 981 957 998T898 1037T811 1076T690 1094Q613 1094 553 1063T450 973T385 831T363 644Q363 530 386 447T453 309T558 229T697 202Q767 202 818 218T905 255T965 291T1002 307Q1012 307 1018 303T1028 287T1034 254T1036 196ZM687 1643Q700 1658 712 1667T742 1681T785 1687T847 1689Q893 1689 918 1683T953 1668T958 1646T939 1621L717 1421Q707 1412 697 1406T671 1395T635 1388T583 1386Q549 1386 529 1389T500 1398T493 1415T507 1439L687 1643Z"/><glyph unicode="ć" horiz-adv-x="857" d="M801 176Q801 150 800 133T796 103T790 84T774 65T733 37T667 7T587 -14T497 -22Q394 -22 315 10T181 104T100 257T72 463Q72 597 105 694T199 856T341 951T521 982Q561 982 599 975T671 956T731 929T769 903T784 885T791 865T795 836T797 793Q797 735 787 712T761 688Q744 688 725 702T680 733T618 764T532 778Q434 778 382 703T330 481Q330 409 343 354T381 262T445 207T535 188Q587 188 624 203T690 238T737 272T769 288Q778 288 784 283T793 265T799 230T801 176ZM509 1364Q516 1375 526 1383T551 1395T589 1402T645 1404Q691 1404 717 1400T755 1389T766 1371T756 1350L562 1118Q554 1108 546 1102T526 1091T494 1085T446 1083Q411 1083 391 1086T362 1095T355 1112T366 1135L509 1364Z"/><glyph unicode="Č" horiz-adv-x="1084" d="M1036 196Q1036 171 1035 154T1030 124T1022 102T1006 82T964 52T887 18T783 -10T656 -21Q523 -21 416 20T234 142T119 346T79 630Q79 795 123 923T246 1138T435 1270T679 1315Q733 1315 783 1306T875 1283T952 1249T999 1217T1018 1194T1026 1171T1030 1138T1032 1091Q1032 1061 1030 1040T1023 1006T1011 987T995 981Q980 981 957 998T898 1037T811 1076T690 1094Q613 1094 553 1063T450 973T385 831T363 644Q363 530 386 447T453 309T558 229T697 202Q767 202 818 218T905 255T965 291T1002 307Q1012 307 1018 303T1028 287T1034 254T1036 196ZM629 1386Q597 1386 575 1387T538 1392T511 1405T486 1427L288 1641Q275 1656 273 1665T278 1680T308 1687T364 1689Q405 1689 431 1688T472 1683T496 1673T513 1658L631 1521L754 1656Q762 1666 770 1672T794 1682T835 1687T902 1689Q936 1689 956 1687T984 1679T991 1664T977 1641L782 1427Q771 1414 758 1406T728 1394T687 1388T629 1386Z"/><glyph unicode="č" horiz-adv-x="857" d="M801 176Q801 150 800 133T796 103T790 84T774 65T733 37T667 7T587 -14T497 -22Q394 -22 315 10T181 104T100 257T72 463Q72 597 105 694T199 856T341 951T521 982Q561 982 599 975T671 956T731 929T769 903T784 885T791 865T795 836T797 793Q797 735 787 712T761 688Q744 688 725 702T680 733T618 764T532 778Q434 778 382 703T330 481Q330 409 343 354T381 262T445 207T535 188Q587 188 624 203T690 238T737 272T769 288Q778 288 784 283T793 265T799 230T801 176ZM592 1370Q599 1380 606 1387T625 1397T655 1402T704 1404Q744 1404 765 1401T793 1390T795 1370T776 1338L619 1115Q612 1106 602 1100T577 1090T540 1085T487 1083Q456 1083 434 1085T398 1091T374 1101T359 1115L200 1338Q187 1357 182 1369T184 1390T212 1401T273 1404Q305 1404 323 1403T353 1397T371 1387T384 1370L487 1219L592 1370Z"/><glyph unicode="Ď" horiz-adv-x="1291" d="M1216 666Q1216 488 1170 362T1036 155T825 38T528 0H219Q186 0 164 19T141 83V1211Q141 1255 163 1274T219 1294H551Q724 1294 844 1254T1047 1134T1173 937T1216 666ZM944 657Q944 749 923 828T854 965T732 1055T536 1088H403V208H540Q648 208 722 236T845 320T919 461T944 657ZM615 1386Q583 1386 561 1387T524 1392T497 1405T472 1427L274 1641Q261 1656 259 1665T264 1680T294 1687T350 1689Q391 1689 417 1688T458 1683T482 1673T499 1658L617 1521L740 1656Q748 1666 756 1672T780 1682T821 1687T888 1689Q922 1689 942 1687T970 1679T977 1664T963 1641L768 1427Q757 1414 744 1406T714 1394T673 1388T615 1386Z"/><glyph unicode="ď" horiz-adv-x="1222" d="M972 34Q972 23 967 16T950 3T918 -4T867 -6Q835 -6 815 -4T783 3T765 15T759 34V133Q690 59 615 18T447 -23Q345 -23 275 16T160 123T95 279T75 468Q75 587 100 682T175 844T297 947T465 983Q540 983 601 953T722 863V1346Q722 1356 727 1364T747 1377T786 1386T847 1389Q884 1389 908 1386T946 1378T966 1364T972 1346V34ZM722 630Q668 698 619 734T515 770Q466 770 431 746T374 680T342 589T331 485Q331 429 340 376T369 282T424 215T510 190Q536 190 560 197T610 222T663 266T722 334V630ZM1111 1388Q1114 1400 1121 1408T1143 1423T1179 1432T1234 1435Q1270 1435 1291 1432T1323 1422T1333 1407T1330 1385L1206 1071Q1202 1060 1195 1054T1175 1044T1143 1039T1095 1037Q1072 1037 1059 1039T1039 1047T1031 1061T1033 1083L1111 1388Z"/><glyph unicode="Đ" horiz-adv-x="1309" d="M1235 666Q1235 488 1189 362T1055 155T843 38T546 0H237Q204 0 182 19T160 83V568H54Q45 568 38 572T25 588T18 620T15 670Q15 699 17 718T25 749T37 766T54 771H160V1211Q160 1255 182 1274T237 1294H570Q742 1294 863 1254T1066 1134T1192 937T1235 666ZM962 657Q962 749 941 828T872 965T750 1055T557 1088H422V771H619Q628 771 635 766T648 749T655 718T658 670Q658 641 656 622T648 590T636 573T619 568H422V208H559Q667 208 740 236T863 320T937 461T962 657Z"/><glyph unicode="đ" horiz-adv-x="1165" d="M1124 1166Q1124 1138 1122 1120T1115 1092T1103 1077T1086 1073H972V34Q972 23 967 16T950 3T918 -4T867 -6Q835 -6 815 -4T783 3T765 15T759 34V133Q690 59 615 18T447 -23Q345 -23 275 16T160 122T95 278T75 466Q75 585 100 679T175 840T297 942T465 978Q540 978 600 948T722 859V1073H519Q510 1073 503 1077T490 1091T483 1120T480 1166Q480 1194 482 1212T490 1240T502 1253T519 1257H722V1346Q722 1356 727 1364T747 1377T786 1386T847 1389Q884 1389 908 1386T946 1378T966 1364T972 1346V1257H1084Q1094 1257 1101 1254T1114 1240T1121 1212T1124 1166ZM722 626Q668 694 619 729T513 765Q465 765 431 742T374 680T342 590T331 484Q331 428 340 375T369 281T424 215T510 190Q536 190 560 197T610 222T663 266T722 334V626Z"/><glyph unicode="Ē" horiz-adv-x="999" d="M908 103Q908 74 906 55T898 23T886 6T869 0H219Q186 0 164 19T141 83V1211Q141 1255 163 1274T219 1294H865Q874 1294 881 1289T893 1272T900 1240T903 1190Q903 1162 901 1143T893 1111T881 1094T865 1088H403V772H794Q803 772 810 767T823 750T830 719T833 671Q833 642 831 623T823 593T811 576T794 571H403V206H869Q878 206 885 201T898 183T905 152T908 103ZM821 1616Q832 1616 839 1611T852 1596T859 1567T861 1523Q861 1497 859 1480T852 1451T840 1436T821 1431H231Q219 1431 211 1435T197 1451T190 1479T187 1523Q187 1548 189 1566T197 1595T210 1611T231 1616H821Z"/><glyph unicode="ē" horiz-adv-x="1031" d="M950 506Q950 460 930 438T873 416H330Q330 359 343 313T386 234T462 184T574 167Q640 167 690 176T776 197T837 218T876 228Q885 228 891 225T901 212T906 187T908 145Q908 123 907 108T904 81T898 63T888 48T852 29T778 6T675 -14T551 -23Q432 -23 343 7T193 98T104 252T74 470Q74 589 105 684T195 846T338 948T529 983Q641 983 720 950T851 859T926 720T950 546V506ZM706 578Q709 684 664 744T523 805Q475 805 440 787T381 739T345 667T330 578H706ZM779 1323Q790 1323 798 1319T810 1303T817 1275T820 1231Q820 1205 818 1188T811 1160T798 1145T779 1140H269Q257 1140 249 1144T235 1160T228 1188T225 1231Q225 1256 227 1274T235 1302T248 1318T269 1323H779Z"/><glyph unicode="Ė" horiz-adv-x="999" d="M908 103Q908 74 906 55T898 23T886 6T869 0H219Q186 0 164 19T141 83V1211Q141 1255 163 1274T219 1294H865Q874 1294 881 1289T893 1272T900 1240T903 1190Q903 1162 901 1143T893 1111T881 1094T865 1088H403V772H794Q803 772 810 767T823 750T830 719T833 671Q833 642 831 623T823 593T811 576T794 571H403V206H869Q878 206 885 201T898 183T905 152T908 103ZM669 1534Q669 1463 640 1435T530 1406Q450 1406 421 1433T392 1529Q392 1601 422 1629T532 1657Q612 1657 640 1630T669 1534Z"/><glyph unicode="ė" horiz-adv-x="1031" d="M950 506Q950 460 930 438T873 416H330Q330 359 343 313T386 234T462 184T574 167Q640 167 690 176T776 197T837 218T876 228Q885 228 891 225T901 212T906 187T908 145Q908 123 907 108T904 81T898 63T888 48T852 29T778 6T675 -14T551 -23Q432 -23 343 7T193 98T104 252T74 470Q74 589 105 684T195 846T338 948T529 983Q641 983 720 950T851 859T926 720T950 546V506ZM706 578Q709 684 664 744T523 805Q475 805 440 787T381 739T345 667T330 578H706ZM661 1235Q661 1164 632 1136T522 1107Q442 1107 413 1134T384 1230Q384 1301 414 1329T524 1358Q604 1358 632 1331T661 1235Z"/><glyph unicode="Ę" horiz-adv-x="999" d="M940 -259Q940 -281 938 -295T932 -318T920 -332T887 -345T824 -359T735 -365Q681 -365 639 -355T567 -325T521 -273T505 -199Q505 -162 522 -125T580 -46L627 0H219Q186 0 164 19T141 83V1211Q141 1255 163 1274T219 1294H865Q874 1294 881 1289T893 1272T900 1240T903 1190Q903 1162 901 1143T893 1111T881 1094T865 1088H403V772H794Q803 772 810 767T823 751T830 720T833 673Q833 644 831 625T823 593T811 576T794 571H403V206H869Q888 206 898 185T908 114Q908 89 907 72T902 41T890 15T866 -11L790 -86Q772 -106 764 -122T756 -153Q756 -174 772 -184T826 -195H905Q915 -195 921 -197T932 -207T938 -227T940 -259Z"/><glyph unicode="ę" horiz-adv-x="1031" d="M950 506Q950 460 930 438T873 416H330Q330 359 343 313T386 234T462 184T574 167Q640 167 690 176T776 197T837 218T876 228Q885 228 891 225T901 212T906 187T908 145Q908 116 907 97T903 64T892 40T871 16L770 -86Q747 -109 740 -124T733 -154Q733 -174 747 -185T797 -196H883Q901 -196 909 -208T918 -258Q918 -280 916 -294T910 -318T898 -332T879 -340Q841 -353 803 -359T717 -365Q610 -365 551 -325T491 -205Q491 -184 494 -166T506 -130T528 -95T561 -58L607 -11Q590 -14 569 -16T522 -18Q413 -18 330 12T189 102T103 254T74 470Q74 589 105 684T195 846T338 948T529 983Q641 983 720 950T851 859T926 720T950 546V506ZM706 578Q709 684 664 744T523 805Q475 805 440 787T381 739T345 667T330 578H706Z"/><glyph unicode="Ě" horiz-adv-x="999" d="M908 103Q908 74 906 55T898 23T886 6T869 0H219Q186 0 164 19T141 83V1211Q141 1255 163 1274T219 1294H865Q874 1294 881 1289T893 1272T900 1240T903 1190Q903 1162 901 1143T893 1111T881 1094T865 1088H403V772H794Q803 772 810 767T823 750T830 719T833 671Q833 642 831 623T823 593T811 576T794 571H403V206H869Q878 206 885 201T898 183T905 152T908 103ZM519 1386Q487 1386 465 1387T428 1392T401 1405T376 1427L178 1641Q165 1656 163 1665T168 1680T198 1687T254 1689Q295 1689 321 1688T362 1683T386 1673T403 1658L521 1521L644 1656Q652 1666 660 1672T684 1682T725 1687T792 1689Q826 1689 846 1687T874 1679T881 1664T867 1641L672 1427Q661 1414 648 1406T618 1394T577 1388T519 1386Z"/><glyph unicode="ě" horiz-adv-x="1031" d="M950 506Q950 460 930 438T873 416H330Q330 359 343 313T386 234T462 184T574 167Q640 167 690 176T776 197T837 218T876 228Q885 228 891 225T901 212T906 187T908 145Q908 123 907 108T904 81T898 63T888 48T852 29T778 6T675 -14T551 -23Q432 -23 343 7T193 98T104 252T74 470Q74 589 105 684T195 846T338 948T529 983Q641 983 720 950T851 859T926 720T950 546V506ZM706 578Q709 684 664 744T523 805Q475 805 440 787T381 739T345 667T330 578H706ZM624 1370Q631 1380 638 1387T657 1397T687 1402T736 1404Q776 1404 797 1401T825 1390T827 1370T808 1338L651 1115Q644 1106 634 1100T609 1090T572 1085T519 1083Q488 1083 466 1085T430 1091T406 1101T391 1115L232 1338Q219 1357 214 1369T216 1390T244 1401T305 1404Q337 1404 355 1403T385 1397T403 1387T416 1370L519 1219L624 1370Z"/><glyph unicode="Ğ" horiz-adv-x="1305" d="M1179 1093Q1179 1064 1177 1043T1170 1010T1159 992T1143 987Q1130 987 1101 1005T1024 1044T910 1083T755 1101Q661 1101 585 1069T455 977T372 834T343 649Q343 538 372 454T455 312T582 226T747 197Q791 197 834 207T914 237V537H669Q651 537 641 559T631 636Q631 664 633 683T641 713T653 730T669 736H1106Q1122 736 1134 731T1156 714T1171 688T1176 652V137Q1176 107 1166 85T1123 49T1042 22T943 -2T839 -17T733 -22Q578 -22 456 22T248 151T118 357T73 633Q73 792 121 918T257 1133T469 1269T747 1316Q831 1316 900 1305T1020 1277T1106 1241T1153 1208T1173 1169T1179 1093ZM991 1661Q991 1598 972 1547T915 1460T821 1405T690 1386Q612 1386 556 1406T463 1461T409 1548T391 1661Q391 1681 408 1689T475 1697Q523 1697 542 1690T563 1666T573 1622T597 1580T636 1555T692 1546Q735 1546 762 1562T803 1604T818 1653T837 1687T903 1697Q954 1697 972 1689T991 1661Z"/><glyph unicode="ğ" horiz-adv-x="971" d="M930 864Q930 816 919 793T892 770H787Q809 746 818 716T828 652Q828 574 802 514T728 412T611 349T458 327Q415 327 376 337T316 362Q304 349 295 331T285 291Q285 262 310 244T382 223L599 215Q675 212 734 194T834 142T896 61T918 -46Q918 -112 889 -170T802 -272T657 -340T452 -365Q338 -365 258 -347T126 -297T51 -221T27 -123Q27 -90 35 -60T60 -3T101 50T156 98Q113 121 90 160T66 247Q66 306 93 354T163 442Q128 477 107 526T86 648Q86 726 113 787T190 891T307 956T457 979Q499 979 537 974T609 960H892Q909 960 919 938T930 864ZM607 653Q607 725 567 765T454 805Q417 805 389 793T343 759T315 709T306 649Q306 581 346 542T457 502Q495 502 523 514T569 547T597 595T607 653ZM666 -59Q666 -14 630 10T531 36L352 41Q326 22 311 5T286 -29T273 -60T270 -91Q270 -141 320 -167T463 -193Q520 -193 559 -182T622 -151T656 -109T666 -59ZM610 1361Q612 1380 629 1390T691 1400Q717 1400 734 1398T760 1392T773 1381T777 1365Q777 1298 760 1246T707 1159T616 1105T485 1086Q407 1086 352 1104T262 1158T211 1245T194 1363Q194 1383 211 1391T276 1400Q301 1400 317 1398T344 1391T358 1379T363 1361Q366 1334 373 1313T394 1276T431 1252T485 1244Q514 1244 536 1251T574 1272T599 1308T610 1361Z"/><glyph unicode="Ģ" horiz-adv-x="1305" d="M1179 1093Q1179 1064 1177 1043T1170 1010T1159 992T1143 987Q1130 987 1101 1005T1024 1044T910 1083T755 1101Q661 1101 585 1069T455 977T372 834T343 649Q343 538 372 454T455 312T582 226T747 197Q791 197 834 207T914 237V537H669Q651 537 641 559T631 636Q631 664 633 683T641 713T653 730T669 736H1106Q1122 736 1134 731T1156 714T1171 688T1176 652V137Q1176 107 1166 85T1123 49T1042 22T943 -2T839 -17T733 -22Q578 -22 456 22T248 151T118 357T73 633Q73 792 121 918T257 1133T469 1269T747 1316Q831 1316 900 1305T1020 1277T1106 1241T1153 1208T1173 1169T1179 1093ZM559 -123Q562 -112 570 -104T593 -90T634 -83T700 -81Q740 -81 763 -85T796 -96T807 -115T799 -140L701 -330Q696 -340 689 -346T670 -357T637 -363T584 -365Q552 -365 534 -363T507 -354T498 -337T502 -313L559 -123Z"/><glyph unicode="ģ" horiz-adv-x="971" d="M930 864Q930 816 919 793T892 770H787Q809 746 818 716T828 652Q828 574 802 514T728 412T611 349T458 327Q415 327 376 337T316 362Q304 349 295 331T285 291Q285 262 310 244T382 223L599 215Q675 212 734 194T834 142T896 61T918 -46Q918 -112 889 -170T802 -272T657 -340T452 -365Q338 -365 258 -347T126 -297T51 -221T27 -123Q27 -90 35 -60T60 -3T101 50T156 98Q113 121 90 160T66 247Q66 306 93 354T163 442Q128 477 107 526T86 648Q86 726 113 787T190 891T307 956T457 979Q499 979 537 974T609 960H892Q909 960 919 938T930 864ZM607 653Q607 725 567 765T454 805Q417 805 389 793T343 759T315 709T306 649Q306 581 346 542T457 502Q495 502 523 514T569 547T597 595T607 653ZM666 -59Q666 -14 630 10T531 36L352 41Q326 22 311 5T286 -29T273 -60T270 -91Q270 -141 320 -167T463 -193Q520 -193 559 -182T622 -151T656 -109T666 -59ZM592 1108Q588 1097 581 1090T558 1077T520 1070T459 1068Q416 1068 391 1071T354 1082T342 1100T349 1122L488 1359Q494 1369 502 1375T525 1386T560 1392T611 1394Q640 1394 657 1391T683 1381T692 1365T688 1341L592 1108Z"/><glyph unicode="ħ" horiz-adv-x="1121" d="M1000 34Q1000 24 994 17T974 4T936 -3T875 -6Q837 -6 814 -4T776 4T755 16T749 34V524Q749 589 740 626T713 690T666 731T599 746Q551 746 503 711T399 609V34Q399 24 394 17T374 4T335 -3T274 -6Q237 -6 213 -4T175 4T155 16T149 34V1071H31Q22 1071 15 1075T3 1091T-4 1120T-7 1166Q-7 1194 -5 1212T3 1240T15 1253T33 1257H149V1352Q149 1362 154 1370T174 1383T213 1391T274 1394Q311 1394 335 1392T373 1384T393 1370T399 1352V1257H598Q607 1257 614 1254T627 1240T634 1212T637 1166Q637 1138 635 1120T627 1091T615 1076T598 1071H398V837Q463 900 531 932T673 965Q765 965 827 935T928 853T983 733T1000 566V34Z"/><glyph unicode="Ī" horiz-adv-x="546" d="M405 36Q405 26 399 18T377 5T337 -3T273 -6Q235 -6 210 -3T169 5T148 18T141 36V1258Q141 1268 147 1276T169 1289T210 1297T273 1300Q312 1300 337 1297T377 1289T398 1276T405 1258V36ZM571 1616Q582 1616 589 1611T602 1596T609 1567T611 1523Q611 1497 609 1480T602 1451T590 1436T571 1431H-19Q-31 1431 -39 1435T-53 1451T-60 1479T-63 1523Q-63 1548 -61 1566T-53 1595T-40 1611T-19 1616H571Z"/><glyph unicode="ī" horiz-adv-x="503" d="M378 34Q378 24 372 17T352 4T313 -3T252 -6Q215 -6 191 -4T153 4T132 16T126 34V926Q126 936 132 943T152 956T191 963T252 966Q289 966 313 964T351 956T372 944T378 926V34ZM509 1323Q520 1323 528 1319T540 1303T547 1275T550 1231Q550 1205 548 1188T541 1160T528 1145T509 1140H-1Q-13 1140 -21 1144T-35 1160T-42 1188T-45 1231Q-45 1256 -43 1274T-35 1302T-22 1318T-1 1323H509Z"/><glyph unicode="Į" horiz-adv-x="546" d="M463 -260Q463 -281 461 -295T455 -318T443 -332T425 -340Q387 -353 345 -359T256 -365Q149 -365 90 -326T30 -205Q30 -185 33 -166T45 -128T69 -87T107 -43L156 6Q151 10 146 16T141 31V1260Q141 1270 147 1277T169 1290T210 1297T273 1300Q312 1300 337 1298T377 1290T398 1278T405 1260V31Q405 17 400 6T384 -16L322 -78Q296 -103 287 -120T278 -153Q278 -174 294 -184T341 -195H428Q448 -195 455 -207T463 -260Z"/><glyph unicode="į" horiz-adv-x="503" d="M292 -84Q267 -109 259 -126T250 -159Q250 -180 265 -190T313 -200H395Q405 -200 412 -202T423 -211T429 -230T431 -260Q431 -281 429 -295T423 -318T411 -333T392 -341Q357 -353 317 -359T222 -365Q173 -365 134 -355T66 -325T23 -274T8 -202Q8 -181 11 -162T23 -123T47 -85T84 -43L126 0V924Q126 934 132 941T152 954T191 963T252 966Q289 966 313 963T351 955T372 942T378 924V35Q378 22 371 4T352 -25L292 -84ZM397 1228Q397 1152 366 1123T251 1094Q166 1094 137 1122T107 1223Q107 1299 137 1328T253 1358Q337 1358 367 1330T397 1228Z"/><glyph unicode="İ" horiz-adv-x="546" d="M405 36Q405 26 399 18T377 5T337 -3T273 -6Q235 -6 210 -3T169 5T148 18T141 36V1258Q141 1268 147 1276T169 1289T210 1297T273 1300Q312 1300 337 1297T377 1289T398 1276T405 1258V36ZM413 1534Q413 1463 384 1435T274 1406Q194 1406 165 1433T136 1529Q136 1601 166 1629T276 1657Q356 1657 384 1630T413 1534Z"/><glyph unicode="ı" horiz-adv-x="503" d="M378 34Q378 24 372 17T352 4T313 -3T252 -6Q215 -6 191 -4T153 4T132 16T126 34V926Q126 936 132 943T152 956T191 963T252 966Q289 966 313 964T351 956T372 944T378 926V34Z"/><glyph unicode="Ķ" horiz-adv-x="1120" d="M1086 39Q1086 28 1081 20T1060 6T1017 -3T949 -6Q884 -6 856 -1T815 14T795 38L404 652V38Q404 27 398 19T377 6T337 -3T273 -6Q235 -6 210 -3T169 5T148 19T141 38V1257Q141 1268 147 1276T169 1289T209 1297T273 1300Q312 1300 337 1297T377 1289T398 1276T404 1257V706L783 1256Q790 1269 800 1277T826 1291T867 1298T931 1300Q971 1300 997 1297T1038 1289T1060 1275T1066 1257Q1066 1240 1057 1222T1023 1165L668 700L1055 115Q1077 74 1081 61T1086 39ZM460 -123Q463 -112 471 -104T494 -90T535 -83T601 -81Q641 -81 664 -85T697 -96T708 -115T700 -140L602 -330Q597 -340 590 -346T571 -357T538 -363T485 -365Q453 -365 435 -363T408 -354T399 -337T403 -313L460 -123Z"/><glyph unicode="ķ" horiz-adv-x="983" d="M955 33Q955 23 950 16T930 4T890 -3T825 -6Q784 -6 759 -4T717 2T691 15T675 36L378 506V34Q378 24 372 17T352 4T313 -3T252 -6Q215 -6 191 -4T153 4T132 16T126 34V1349Q126 1359 132 1367T152 1380T191 1389T252 1392Q289 1392 313 1389T351 1381T372 1367T378 1349V566L642 921Q650 933 660 942T686 956T727 963T790 966Q827 966 852 964T893 956T915 944T921 925Q921 910 914 893T891 857L630 561L932 94Q944 74 949 60T955 33ZM393 -123Q396 -112 404 -104T427 -90T468 -83T534 -81Q574 -81 597 -85T630 -96T641 -115T633 -140L535 -330Q530 -340 523 -346T504 -357T471 -363T418 -365Q386 -365 368 -363T341 -354T332 -337T336 -313L393 -123Z"/><glyph unicode="ĸ" horiz-adv-x="983" d="M951 33Q951 22 945 15T923 3T881 -4T815 -6Q775 -6 750 -4T710 3T686 16T671 37L378 471V34Q378 24 372 17T352 4T313 -3T252 -6Q215 -6 191 -4T153 4T132 16T126 34V926Q126 936 132 943T152 956T191 963T252 966Q289 966 313 964T351 956T372 944T378 926V530L656 923Q663 935 671 943T695 956T733 963T794 966Q832 966 857 964T897 957T919 945T925 928Q925 919 924 910T918 890T905 865T886 835L630 527L919 113Q928 97 934 85T944 63T949 46T951 33Z"/><glyph unicode="Ĺ" horiz-adv-x="866" d="M852 110Q852 80 850 60T842 26T830 6T812 0H219Q186 0 164 19T141 83V1258Q141 1268 147 1276T169 1289T209 1297T273 1300Q312 1300 337 1297T377 1289T398 1276T405 1258V217H812Q822 217 829 212T842 194T849 161T852 110ZM411 1643Q424 1658 436 1667T466 1681T509 1687T571 1689Q617 1689 642 1683T677 1668T682 1646T663 1621L441 1421Q431 1412 421 1406T395 1395T359 1388T307 1386Q273 1386 253 1389T224 1398T217 1415T231 1439L411 1643Z"/><glyph unicode="ĺ" horiz-adv-x="503" d="M378 34Q378 24 372 17T352 4T313 -3T252 -6Q215 -6 191 -4T153 4T132 16T126 34V1349Q126 1359 132 1367T152 1380T191 1389T252 1392Q289 1392 313 1389T351 1381T372 1367T378 1349V34ZM347 1704Q360 1719 372 1728T402 1742T445 1748T507 1750Q553 1750 578 1744T613 1729T618 1707T599 1682L377 1482Q367 1473 357 1467T331 1456T295 1449T243 1447Q209 1447 189 1450T160 1459T153 1476T167 1500L347 1704Z"/><glyph unicode="Ļ" horiz-adv-x="866" d="M852 110Q852 80 850 60T842 26T830 6T812 0H219Q186 0 164 19T141 83V1258Q141 1268 147 1276T169 1289T209 1297T273 1300Q312 1300 337 1297T377 1289T398 1276T405 1258V217H812Q822 217 829 212T842 194T849 161T852 110ZM365 -123Q368 -112 376 -104T399 -90T440 -83T506 -81Q546 -81 569 -85T602 -96T613 -115T605 -140L507 -330Q502 -340 495 -346T476 -357T443 -363T390 -365Q358 -365 340 -363T313 -354T304 -337T308 -313L365 -123Z"/><glyph unicode="ļ" horiz-adv-x="503" d="M378 34Q378 24 372 17T352 4T313 -3T252 -6Q215 -6 191 -4T153 4T132 16T126 34V1349Q126 1359 132 1367T152 1380T191 1389T252 1392Q289 1392 313 1389T351 1381T372 1367T378 1349V34ZM380 -123Q383 -112 391 -104T414 -90T455 -83T521 -81Q561 -81 584 -85T617 -96T628 -115T620 -140L522 -330Q517 -340 510 -346T491 -357T458 -363T405 -365Q373 -365 355 -363T328 -354T319 -337T323 -313L380 -123Z"/><glyph unicode="Ľ" horiz-adv-x="881" d="M852 110Q852 80 850 60T842 26T830 6T812 0H219Q186 0 164 19T141 83V1258Q141 1268 147 1276T169 1289T209 1297T273 1300Q312 1300 337 1297T377 1289T398 1276T405 1258V217H812Q822 217 829 212T842 194T849 161T852 110ZM601 1327Q604 1339 611 1347T633 1362T669 1371T724 1374Q760 1374 781 1371T813 1361T823 1346T820 1324L696 1010Q692 999 685 993T665 983T633 978T585 976Q562 976 549 978T529 986T521 1000T523 1022L601 1327Z"/><glyph unicode="ľ" horiz-adv-x="627" d="M378 34Q378 24 372 17T352 4T313 -3T252 -6Q215 -6 191 -4T153 4T132 16T126 34V1349Q126 1359 132 1367T152 1380T191 1389T252 1392Q289 1392 313 1389T351 1381T372 1367T378 1349V34ZM510 1355Q513 1367 520 1375T542 1390T578 1399T633 1402Q669 1402 690 1399T722 1389T732 1374T729 1352L605 1038Q601 1027 594 1021T574 1011T542 1006T494 1004Q471 1004 458 1006T438 1014T430 1028T432 1050L510 1355Z"/><glyph unicode="Ł" horiz-adv-x="886" d="M871 110Q871 80 869 60T861 26T848 6T830 0H237Q204 0 182 19T160 83V482L62 419Q41 406 31 426T21 507Q21 536 22 555T28 588T40 610T58 626L160 691V1260Q160 1270 166 1277T187 1290T228 1297T292 1300Q330 1300 355 1298T396 1290T417 1278T424 1260V856L615 976Q637 990 646 969T656 888Q656 860 655 841T649 808T638 785T619 769L424 647V217H830Q840 217 847 212T860 194T868 161T871 110Z"/><glyph unicode="ł" horiz-adv-x="540" d="M521 961Q521 933 520 914T514 881T502 858T483 842L396 787V34Q396 24 390 17T370 4T331 -3T271 -6Q233 -6 209 -4T171 4T151 16T145 34V630L61 576Q40 563 30 584T20 665Q20 693 21 712T27 745T39 768T57 784L145 839V1349Q145 1359 151 1367T171 1380T209 1389T271 1392Q307 1392 331 1389T369 1381T390 1367T396 1349V997L479 1050Q501 1063 511 1042T521 961Z"/><glyph unicode="Ń" horiz-adv-x="1349" d="M1208 92Q1208 69 1200 51T1179 21T1147 4T1109 -2H997Q962 -2 937 5T890 30T848 80T803 162L481 767Q453 821 424 883T372 1005H370Q374 933 376 862T378 714V37Q378 27 373 19T354 6T317 -3T258 -6Q223 -6 200 -3T164 5T146 19T141 37V1200Q141 1247 168 1270T236 1294H377Q415 1294 441 1288T487 1266T526 1225T563 1159L815 686Q837 643 858 602T900 519T939 437T976 357H977Q974 427 973 503T971 648V1255Q971 1265 977 1273T997 1287T1034 1295T1093 1298Q1127 1298 1150 1296T1185 1287T1203 1273T1208 1255V92ZM772 1643Q785 1658 797 1667T827 1681T870 1687T932 1689Q978 1689 1003 1683T1038 1668T1043 1646T1024 1621L802 1421Q792 1412 782 1406T756 1395T720 1388T668 1386Q634 1386 614 1389T585 1398T578 1415T592 1439L772 1643Z"/><glyph unicode="ń" horiz-adv-x="1099" d="M978 34Q978 24 972 17T952 4T914 -3T853 -6Q816 -6 792 -4T753 4T733 16T727 34V543Q727 608 718 645T690 708T644 749T577 764Q529 764 480 729T378 627V34Q378 24 372 17T352 4T313 -3T252 -6Q215 -6 191 -4T153 4T132 16T126 34V926Q126 936 131 943T149 956T182 963T234 966Q266 966 287 964T319 956T336 944T341 926V823Q415 903 491 943T651 983Q742 983 804 953T905 872T961 751T978 585V34ZM607 1364Q614 1375 624 1383T649 1395T687 1402T743 1404Q789 1404 815 1400T853 1389T864 1371T854 1350L660 1118Q652 1108 644 1102T624 1091T592 1085T544 1083Q509 1083 489 1086T460 1095T453 1112T464 1135L607 1364Z"/><glyph unicode="Ņ" horiz-adv-x="1349" d="M1208 92Q1208 69 1200 51T1179 21T1147 4T1109 -2H997Q962 -2 937 5T890 30T848 80T803 162L481 767Q453 821 424 883T372 1005H370Q374 933 376 862T378 714V37Q378 27 373 19T354 6T317 -3T258 -6Q223 -6 200 -3T164 5T146 19T141 37V1200Q141 1247 168 1270T236 1294H377Q415 1294 441 1288T487 1266T526 1225T563 1159L815 686Q837 643 858 602T900 519T939 437T976 357H977Q974 427 973 503T971 648V1255Q971 1265 977 1273T997 1287T1034 1295T1093 1298Q1127 1298 1150 1296T1185 1287T1203 1273T1208 1255V92ZM529 -123Q532 -112 540 -104T563 -90T604 -83T670 -81Q710 -81 733 -85T766 -96T777 -115T769 -140L671 -330Q666 -340 659 -346T640 -357T607 -363T554 -365Q522 -365 504 -363T477 -354T468 -337T472 -313L529 -123Z"/><glyph unicode="ņ" horiz-adv-x="1099" d="M978 34Q978 24 972 17T952 4T914 -3T853 -6Q816 -6 792 -4T753 4T733 16T727 34V543Q727 608 718 645T690 708T644 749T577 764Q529 764 480 729T378 627V34Q378 24 372 17T352 4T313 -3T252 -6Q215 -6 191 -4T153 4T132 16T126 34V926Q126 936 131 943T149 956T182 963T234 966Q266 966 287 964T319 956T336 944T341 926V823Q415 903 491 943T651 983Q742 983 804 953T905 872T961 751T978 585V34ZM436 -123Q439 -112 447 -104T470 -90T511 -83T577 -81Q617 -81 640 -85T673 -96T684 -115T676 -140L578 -330Q573 -340 566 -346T547 -357T514 -363T461 -365Q429 -365 411 -363T384 -354T375 -337T379 -313L436 -123Z"/><glyph unicode="Ň" horiz-adv-x="1349" d="M1208 92Q1208 69 1200 51T1179 21T1147 4T1109 -2H997Q962 -2 937 5T890 30T848 80T803 162L481 767Q453 821 424 883T372 1005H370Q374 933 376 862T378 714V37Q378 27 373 19T354 6T317 -3T258 -6Q223 -6 200 -3T164 5T146 19T141 37V1200Q141 1247 168 1270T236 1294H377Q415 1294 441 1288T487 1266T526 1225T563 1159L815 686Q837 643 858 602T900 519T939 437T976 357H977Q974 427 973 503T971 648V1255Q971 1265 977 1273T997 1287T1034 1295T1093 1298Q1127 1298 1150 1296T1185 1287T1203 1273T1208 1255V92ZM678 1386Q646 1386 624 1387T587 1392T560 1405T535 1427L337 1641Q324 1656 322 1665T327 1680T357 1687T413 1689Q454 1689 480 1688T521 1683T545 1673T562 1658L680 1521L803 1656Q811 1666 819 1672T843 1682T884 1687T951 1689Q985 1689 1005 1687T1033 1679T1040 1664T1026 1641L831 1427Q820 1414 807 1406T777 1394T736 1388T678 1386Z"/><glyph unicode="ň" horiz-adv-x="1099" d="M978 34Q978 24 972 17T952 4T914 -3T853 -6Q816 -6 792 -4T753 4T733 16T727 34V543Q727 608 718 645T690 708T644 749T577 764Q529 764 480 729T378 627V34Q378 24 372 17T352 4T313 -3T252 -6Q215 -6 191 -4T153 4T132 16T126 34V926Q126 936 131 943T149 956T182 963T234 966Q266 966 287 964T319 956T336 944T341 926V823Q415 903 491 943T651 983Q742 983 804 953T905 872T961 751T978 585V34ZM675 1370Q682 1380 689 1387T708 1397T738 1402T787 1404Q827 1404 848 1401T876 1390T878 1370T859 1338L702 1115Q695 1106 685 1100T660 1090T623 1085T570 1083Q539 1083 517 1085T481 1091T457 1101T442 1115L283 1338Q270 1357 265 1369T267 1390T295 1401T356 1404Q388 1404 406 1403T436 1397T454 1387T467 1370L570 1219L675 1370Z"/><glyph unicode="Ō" horiz-adv-x="1385" d="M1305 662Q1305 501 1265 374T1146 159T951 24T681 -23Q530 -23 418 16T230 137T118 343T80 639Q80 796 120 921T239 1135T434 1270T705 1317Q852 1317 964 1278T1152 1158T1266 954T1305 662ZM1029 648Q1029 750 1013 833T959 976T856 1068T696 1101Q599 1101 534 1065T429 967T373 825T356 652Q356 546 372 462T426 317T528 226T689 194Q786 194 851 230T956 328T1012 472T1029 648ZM992 1616Q1003 1616 1010 1611T1023 1596T1030 1567T1032 1523Q1032 1497 1030 1480T1023 1451T1011 1436T992 1431H402Q390 1431 382 1435T368 1451T361 1479T358 1523Q358 1548 360 1566T368 1595T381 1611T402 1616H992Z"/><glyph unicode="ō" horiz-adv-x="1101" d="M1028 489Q1028 375 998 281T907 119T754 14T539 -23Q420 -23 332 10T186 106T100 261T72 471Q72 585 102 679T194 841T346 946T561 983Q681 983 769 951T914 855T1000 700T1028 489ZM769 479Q769 545 759 600T723 697T657 761T552 784Q496 784 454 764T385 704T345 609T331 482Q331 416 342 361T377 264T444 201T548 178Q605 178 647 198T716 258T756 352T769 479ZM809 1323Q820 1323 828 1319T840 1303T847 1275T850 1231Q850 1205 848 1188T841 1160T828 1145T809 1140H299Q287 1140 279 1144T265 1160T258 1188T255 1231Q255 1256 257 1274T265 1302T278 1318T299 1323H809Z"/><glyph unicode="Ő" horiz-adv-x="1385" d="M1305 662Q1305 501 1265 374T1146 159T951 24T681 -23Q530 -23 418 16T230 137T118 343T80 639Q80 796 120 921T239 1135T434 1270T705 1317Q852 1317 964 1278T1152 1158T1266 954T1305 662ZM1029 648Q1029 750 1013 833T959 976T856 1068T696 1101Q599 1101 534 1065T429 967T373 825T356 652Q356 546 372 462T426 317T528 226T689 194Q786 194 851 230T956 328T1012 472T1029 648ZM581 1409Q573 1401 564 1397T542 1390T509 1387T462 1386Q409 1386 393 1397T391 1429L554 1661Q561 1671 572 1677T600 1688T642 1695T700 1697Q754 1697 784 1694T827 1684T836 1667T819 1645L581 1409ZM1014 1411Q1004 1402 995 1397T972 1390T938 1387T888 1386Q858 1386 838 1388T808 1396T796 1408T802 1425L985 1661Q991 1670 1001 1676T1029 1688T1074 1695T1143 1697Q1191 1697 1220 1694T1261 1683T1272 1666T1256 1644L1014 1411Z"/><glyph unicode="ő" horiz-adv-x="1101" d="M1028 489Q1028 375 998 281T907 119T754 14T539 -23Q420 -23 332 10T186 106T100 261T72 471Q72 585 102 679T194 841T346 946T561 983Q681 983 769 951T914 855T1000 700T1028 489ZM769 479Q769 545 759 600T723 697T657 761T552 784Q496 784 454 764T385 704T345 609T331 482Q331 416 342 361T377 264T444 201T548 178Q605 178 647 198T716 258T756 352T769 479ZM459 1093Q452 1085 445 1080T427 1073T401 1069T365 1068Q334 1068 315 1070T286 1077T276 1090T283 1110L434 1353Q441 1364 450 1372T473 1384T507 1391T559 1394Q606 1394 634 1390T675 1378T684 1359T666 1330L459 1093ZM831 1094Q823 1085 814 1080T793 1073T766 1069T727 1068Q668 1068 648 1076T643 1107L823 1361Q830 1371 839 1377T863 1387T901 1392T963 1394Q1003 1394 1026 1389T1059 1376T1066 1356T1050 1331L831 1094Z"/><glyph unicode="Œ" horiz-adv-x="1790" d="M1697 103Q1697 74 1695 55T1687 23T1675 6T1658 0H1024Q1004 0 987 8T964 38Q908 8 836 -7T681 -23Q530 -23 418 15T230 135T118 341T80 640Q80 797 120 922T239 1135T434 1270T705 1317Q779 1317 847 1302T963 1264Q972 1281 987 1287T1022 1294H1654Q1663 1294 1670 1289T1682 1272T1689 1240T1692 1190Q1692 1162 1690 1143T1682 1111T1670 1094T1654 1088H1192V771H1584Q1592 771 1599 766T1612 749T1619 718T1622 670Q1622 641 1620 622T1612 590T1600 573T1584 568H1192V206H1658Q1667 206 1674 201T1687 183T1694 152T1697 103ZM930 1031Q878 1066 821 1083T696 1101Q599 1101 534 1065T429 968T373 826T356 654Q356 547 372 462T426 317T528 226T689 194Q760 194 819 213T930 270V1031Z"/><glyph unicode="œ" horiz-adv-x="1726" d="M1644 506Q1644 460 1624 438T1568 416H1025Q1025 359 1038 313T1081 234T1157 184T1270 167Q1335 167 1384 176T1471 197T1532 218T1570 228Q1579 228 1585 225T1596 212T1601 187T1603 145Q1603 123 1602 109T1599 83T1594 64T1583 48T1547 29T1473 5T1370 -15T1246 -23Q1122 -23 1033 14T885 135Q829 56 742 17T540 -23Q420 -23 333 10T187 106T100 261T72 472Q72 586 102 680T194 841T346 946T561 983Q679 983 763 944T904 825Q960 906 1040 944T1226 983Q1337 983 1416 950T1546 859T1620 720T1644 546V506ZM1401 578Q1404 684 1359 744T1218 805Q1170 805 1134 787T1075 739T1039 667T1025 578H1401ZM769 478Q769 544 759 600T723 697T657 762T552 785Q496 785 454 764T385 704T345 609T331 482Q331 416 342 360T377 264T444 200T548 177Q605 177 647 197T716 257T756 352T769 478Z"/><glyph unicode="Ŕ" horiz-adv-x="1153" d="M1101 34Q1101 23 1097 16T1078 3T1034 -4T955 -6Q913 -6 888 -4T849 3T828 17T818 38L702 327Q681 376 661 414T617 477T560 516T486 529H404V36Q404 26 398 18T376 5T336 -3T272 -6Q234 -6 209 -3T168 5T147 18T141 36V1211Q141 1255 163 1274T219 1294H554Q605 1294 638 1292T698 1287Q776 1276 838 1249T944 1179T1011 1076T1034 939Q1034 874 1018 821T969 725T890 652T783 602Q812 588 837 568T885 520T928 455T967 372L1076 117Q1091 79 1096 62T1101 34ZM762 912Q762 976 733 1020T638 1082Q618 1087 593 1090T522 1093H404V726H538Q594 726 636 739T706 777T748 836T762 912ZM611 1643Q624 1658 636 1667T666 1681T709 1687T771 1689Q817 1689 842 1683T877 1668T882 1646T863 1621L641 1421Q631 1412 621 1406T595 1395T559 1388T507 1386Q473 1386 453 1389T424 1398T417 1415T431 1439L611 1643Z"/><glyph unicode="ŕ" horiz-adv-x="728" d="M699 843Q699 807 697 784T691 748T681 730T664 725Q656 725 646 728T624 736T596 743T563 747Q542 747 521 739T478 712T431 664T378 590V34Q378 24 372 17T352 4T313 -3T252 -6Q215 -6 191 -4T153 4T132 16T126 34V926Q126 936 131 943T149 956T182 963T234 966Q266 966 287 964T319 956T336 944T341 926V815Q376 865 407 897T466 949T522 975T578 983Q591 983 606 982T637 977T665 969T682 959T690 948T695 932T698 900T699 843ZM441 1364Q448 1375 458 1383T483 1395T521 1402T577 1404Q623 1404 649 1400T687 1389T698 1371T688 1350L494 1118Q486 1108 478 1102T458 1091T426 1085T378 1083Q343 1083 323 1086T294 1095T287 1112T298 1135L441 1364Z"/><glyph unicode="Ŗ" horiz-adv-x="1153" d="M1101 34Q1101 23 1097 16T1078 3T1034 -4T955 -6Q913 -6 888 -4T849 3T828 17T818 38L702 327Q681 376 661 414T617 477T560 516T486 529H404V36Q404 26 398 18T376 5T336 -3T272 -6Q234 -6 209 -3T168 5T147 18T141 36V1211Q141 1255 163 1274T219 1294H554Q605 1294 638 1292T698 1287Q776 1276 838 1249T944 1179T1011 1076T1034 939Q1034 874 1018 821T969 725T890 652T783 602Q812 588 837 568T885 520T928 455T967 372L1076 117Q1091 79 1096 62T1101 34ZM762 912Q762 976 733 1020T638 1082Q618 1087 593 1090T522 1093H404V726H538Q594 726 636 739T706 777T748 836T762 912ZM471 -123Q474 -112 482 -104T505 -90T546 -83T612 -81Q652 -81 675 -85T708 -96T719 -115T711 -140L613 -330Q608 -340 601 -346T582 -357T549 -363T496 -365Q464 -365 446 -363T419 -354T410 -337T414 -313L471 -123Z"/><glyph unicode="ŗ" horiz-adv-x="728" d="M699 843Q699 807 697 784T691 748T681 730T664 725Q656 725 646 728T624 736T596 743T563 747Q542 747 521 739T478 712T431 664T378 590V34Q378 24 372 17T352 4T313 -3T252 -6Q215 -6 191 -4T153 4T132 16T126 34V926Q126 936 131 943T149 956T182 963T234 966Q266 966 287 964T319 956T336 944T341 926V815Q376 865 407 897T466 949T522 975T578 983Q591 983 606 982T637 977T665 969T682 959T690 948T695 932T698 900T699 843ZM404 -123Q407 -112 415 -104T438 -90T479 -83T545 -81Q585 -81 608 -85T641 -96T652 -115T644 -140L546 -330Q541 -340 534 -346T515 -357T482 -363T429 -365Q397 -365 379 -363T352 -354T343 -337T347 -313L404 -123Z"/><glyph unicode="Ř" horiz-adv-x="1153" d="M1101 34Q1101 23 1097 16T1078 3T1034 -4T955 -6Q913 -6 888 -4T849 3T828 17T818 38L702 327Q681 376 661 414T617 477T560 516T486 529H404V36Q404 26 398 18T376 5T336 -3T272 -6Q234 -6 209 -3T168 5T147 18T141 36V1211Q141 1255 163 1274T219 1294H554Q605 1294 638 1292T698 1287Q776 1276 838 1249T944 1179T1011 1076T1034 939Q1034 874 1018 821T969 725T890 652T783 602Q812 588 837 568T885 520T928 455T967 372L1076 117Q1091 79 1096 62T1101 34ZM762 912Q762 976 733 1020T638 1082Q618 1087 593 1090T522 1093H404V726H538Q594 726 636 739T706 777T748 836T762 912ZM565 1386Q533 1386 511 1387T474 1392T447 1405T422 1427L224 1641Q211 1656 209 1665T214 1680T244 1687T300 1689Q341 1689 367 1688T408 1683T432 1673T449 1658L567 1521L690 1656Q698 1666 706 1672T730 1682T771 1687T838 1689Q872 1689 892 1687T920 1679T927 1664T913 1641L718 1427Q707 1414 694 1406T664 1394T623 1388T565 1386Z"/><glyph unicode="ř" horiz-adv-x="728" d="M699 843Q699 807 697 784T691 748T681 730T664 725Q656 725 646 728T624 736T596 743T563 747Q542 747 521 739T478 712T431 664T378 590V34Q378 24 372 17T352 4T313 -3T252 -6Q215 -6 191 -4T153 4T132 16T126 34V926Q126 936 131 943T149 956T182 963T234 966Q266 966 287 964T319 956T336 944T341 926V815Q376 865 407 897T466 949T522 975T578 983Q591 983 606 982T637 977T665 969T682 959T690 948T695 932T698 900T699 843ZM757 1370Q764 1380 771 1387T790 1397T820 1402T869 1404Q909 1404 930 1401T958 1390T960 1370T941 1338L784 1115Q777 1106 767 1100T742 1090T705 1085T652 1083Q621 1083 599 1085T563 1091T539 1101T524 1115L365 1338Q352 1357 347 1369T349 1390T377 1401T438 1404Q470 1404 488 1403T518 1397T536 1387T549 1370L652 1219L757 1370Z"/><glyph unicode="Ś" horiz-adv-x="968" d="M908 388Q908 286 870 209T767 81T615 3T429 -23Q362 -23 305 -12T203 14T130 47T87 77T69 114T63 185Q63 216 65 237T71 271T83 289T101 295Q115 295 140 279T206 242T301 206T430 189Q478 189 516 200T580 233T621 285T635 354Q635 398 611 429T549 485T461 531T360 577T259 631T172 704T109 805T85 944Q85 1037 119 1107T212 1224T350 1294T519 1317Q565 1317 611 1310T697 1291T768 1264T809 1239T822 1222T828 1204T832 1175T833 1131Q833 1102 832 1082T827 1049T817 1030T799 1024Q788 1024 764 1038T705 1068T624 1098T523 1112Q480 1112 448 1102T395 1073T363 1028T352 973Q352 930 375 899T438 843T528 797T630 751T732 697T821 624T884 524T908 388ZM570 1643Q583 1658 595 1667T625 1681T668 1687T730 1689Q776 1689 801 1683T836 1668T841 1646T822 1621L600 1421Q590 1412 580 1406T554 1395T518 1388T466 1386Q432 1386 412 1389T383 1398T376 1415T390 1439L570 1643Z"/><glyph unicode="ś" horiz-adv-x="817" d="M754 286Q754 210 726 152T645 55T522 -3T368 -23Q318 -23 273 -16T191 3T131 27T96 49T79 82T73 149Q73 178 75 195T81 223T91 237T106 241Q117 241 138 229T192 201T266 173T363 160Q397 160 423 167T469 187T499 220T509 266Q509 296 491 317T442 355T373 385T294 416T215 455T146 509T97 586T78 694Q78 758 103 811T175 903T289 962T441 983Q483 983 522 977T594 962T648 943T679 925T693 910T699 892T702 866T704 827Q704 800 703 783T698 756T688 743T674 739Q665 739 646 749T599 772T533 794T447 805Q413 805 388 798T347 778T323 748T315 710Q315 679 334 658T384 621T454 591T534 561T614 522T685 468T735 392T754 286ZM463 1364Q470 1375 480 1383T505 1395T543 1402T599 1404Q645 1404 671 1400T709 1389T720 1371T710 1350L516 1118Q508 1108 500 1102T480 1091T448 1085T400 1083Q365 1083 345 1086T316 1095T309 1112T320 1135L463 1364Z"/><glyph unicode="Ş" horiz-adv-x="968" d="M555 -11L580 -66Q598 -105 606 -134T615 -190Q615 -236 598 -269T552 -323T484 -354T400 -365Q356 -365 319 -359T257 -346T222 -334T207 -321T200 -301T198 -266Q198 -226 205 -211T233 -195H349Q378 -195 392 -183T407 -148Q407 -136 402 -121T390 -90L358 -19Q317 -16 279 -8T199 16T129 47T87 77T69 114T63 185Q63 216 65 237T71 271T83 289T101 295Q115 295 140 279T206 242T301 206T430 189Q478 189 516 200T580 233T621 285T635 354Q635 398 611 429T549 485T461 531T360 577T259 631T172 704T109 805T85 944Q85 1037 119 1107T212 1224T350 1294T519 1317Q565 1317 611 1310T697 1291T768 1264T809 1239T822 1222T828 1204T832 1175T833 1131Q833 1102 832 1082T827 1049T817 1030T799 1024Q788 1024 764 1038T705 1068T624 1098T523 1112Q480 1112 448 1102T395 1073T363 1028T352 973Q352 930 375 899T438 843T528 797T630 751T732 697T821 624T884 524T908 388Q908 287 869 206T752 68T555 -11Z"/><glyph unicode="ş" horiz-adv-x="817" d="M519 -4L547 -66Q565 -105 573 -134T582 -190Q582 -236 565 -269T519 -323T451 -354T367 -365Q324 -365 286 -359T224 -346T189 -334T174 -321T167 -301T165 -266Q165 -226 172 -211T200 -195H316Q345 -195 359 -183T374 -148Q374 -136 369 -121T357 -90L326 -21Q263 -16 216 -3T138 24T97 49T79 82T73 149Q73 178 75 195T81 223T91 237T106 241Q117 241 138 229T192 201T266 173T363 160Q397 160 423 167T469 187T499 220T509 266Q509 296 491 317T442 355T373 385T294 416T215 455T146 509T97 586T78 694Q78 758 103 811T175 903T289 962T441 983Q483 983 522 977T594 962T648 943T679 925T693 910T699 892T702 866T704 827Q704 800 703 783T698 756T688 743T674 739Q665 739 646 749T599 772T533 794T447 805Q413 805 388 798T347 778T323 748T315 710Q315 679 334 658T384 621T454 591T534 561T614 522T685 468T735 392T754 286Q754 211 726 153T643 54T519 -4Z"/><glyph unicode="Š" horiz-adv-x="968" d="M908 388Q908 286 870 209T767 81T615 3T429 -23Q362 -23 305 -12T203 14T130 47T87 77T69 114T63 185Q63 216 65 237T71 271T83 289T101 295Q115 295 140 279T206 242T301 206T430 189Q478 189 516 200T580 233T621 285T635 354Q635 398 611 429T549 485T461 531T360 577T259 631T172 704T109 805T85 944Q85 1037 119 1107T212 1224T350 1294T519 1317Q565 1317 611 1310T697 1291T768 1264T809 1239T822 1222T828 1204T832 1175T833 1131Q833 1102 832 1082T827 1049T817 1030T799 1024Q788 1024 764 1038T705 1068T624 1098T523 1112Q480 1112 448 1102T395 1073T363 1028T352 973Q352 930 375 899T438 843T528 797T630 751T732 697T821 624T884 524T908 388ZM494 1386Q462 1386 440 1387T403 1392T376 1405T351 1427L153 1641Q140 1656 138 1665T143 1680T173 1687T229 1689Q270 1689 296 1688T337 1683T361 1673T378 1658L496 1521L619 1656Q627 1666 635 1672T659 1682T700 1687T767 1689Q801 1689 821 1687T849 1679T856 1664T842 1641L647 1427Q636 1414 623 1406T593 1394T552 1388T494 1386Z"/><glyph unicode="š" horiz-adv-x="817" d="M754 286Q754 210 726 152T645 55T522 -3T368 -23Q318 -23 273 -16T191 3T131 27T96 49T79 82T73 149Q73 178 75 195T81 223T91 237T106 241Q117 241 138 229T192 201T266 173T363 160Q397 160 423 167T469 187T499 220T509 266Q509 296 491 317T442 355T373 385T294 416T215 455T146 509T97 586T78 694Q78 758 103 811T175 903T289 962T441 983Q483 983 522 977T594 962T648 943T679 925T693 910T699 892T702 866T704 827Q704 800 703 783T698 756T688 743T674 739Q665 739 646 749T599 772T533 794T447 805Q413 805 388 798T347 778T323 748T315 710Q315 679 334 658T384 621T454 591T534 561T614 522T685 468T735 392T754 286ZM515 1370Q522 1380 529 1387T548 1397T578 1402T627 1404Q667 1404 688 1401T716 1390T718 1370T699 1338L542 1115Q535 1106 525 1100T500 1090T463 1085T410 1083Q379 1083 357 1085T321 1091T297 1101T282 1115L123 1338Q110 1357 105 1369T107 1390T135 1401T196 1404Q228 1404 246 1403T276 1397T294 1387T307 1370L410 1219L515 1370Z"/><glyph unicode="Ţ" horiz-adv-x="1014" d="M1002 1186Q1002 1157 1000 1137T992 1104T980 1085T963 1079H639V36Q639 26 633 18T611 5T571 -3T507 -6Q469 -6 444 -3T403 5T382 18T375 36V1079H51Q41 1079 34 1085T22 1103T15 1136T12 1186Q12 1216 14 1237T22 1270T34 1288T51 1294H963Q972 1294 979 1289T992 1271T999 1237T1002 1186ZM381 -123Q384 -112 392 -104T415 -90T456 -83T522 -81Q562 -81 585 -85T618 -96T629 -115T621 -140L523 -330Q518 -340 511 -346T492 -357T459 -363T406 -365Q374 -365 356 -363T329 -354T320 -337T324 -313L381 -123Z"/><glyph unicode="ţ" horiz-adv-x="710" d="M654 122Q654 78 649 55T634 22T608 5T567 -8T516 -17T460 -20Q385 -20 330 -1T239 57T186 157T169 299V756H62Q43 756 33 779T23 858Q23 887 25 907T33 938T45 955T63 960H169V1159Q169 1169 174 1177T194 1190T233 1198T294 1201Q331 1201 355 1199T394 1191T414 1177T420 1159V960H614Q624 960 631 955T644 939T651 907T654 858Q654 803 644 780T615 756H420V337Q420 264 443 228T525 191Q545 191 561 194T589 202T610 210T626 214Q632 214 637 211T646 197T651 168T654 122ZM278 -123Q281 -112 289 -104T312 -90T353 -83T419 -81Q459 -81 482 -85T515 -96T526 -115T518 -140L420 -330Q415 -340 408 -346T389 -357T356 -363T303 -365Q271 -365 253 -363T226 -354T217 -337T221 -313L278 -123Z"/><glyph unicode="Ť" horiz-adv-x="1014" d="M1002 1186Q1002 1157 1000 1137T992 1104T980 1085T963 1079H639V36Q639 26 633 18T611 5T571 -3T507 -6Q469 -6 444 -3T403 5T382 18T375 36V1079H51Q41 1079 34 1085T22 1103T15 1136T12 1186Q12 1216 14 1237T22 1270T34 1288T51 1294H963Q972 1294 979 1289T992 1271T999 1237T1002 1186ZM504 1386Q472 1386 450 1387T413 1392T386 1405T361 1427L163 1641Q150 1656 148 1665T153 1680T183 1687T239 1689Q280 1689 306 1688T347 1683T371 1673T388 1658L506 1521L629 1656Q637 1666 645 1672T669 1682T710 1687T777 1689Q811 1689 831 1687T859 1679T866 1664T852 1641L657 1427Q646 1414 633 1406T603 1394T562 1388T504 1386Z"/><glyph unicode="ť" horiz-adv-x="744" d="M654 122Q654 78 649 55T634 22T608 5T567 -8T516 -17T460 -20Q385 -20 330 -1T239 57T186 157T169 299V756H62Q43 756 33 779T23 858Q23 887 25 907T33 938T45 955T63 960H169V1159Q169 1169 174 1177T194 1190T233 1198T294 1201Q331 1201 355 1199T394 1191T414 1177T420 1159V960H614Q624 960 631 955T644 939T651 907T654 858Q654 803 644 780T615 756H420V337Q420 264 443 228T525 191Q545 191 561 194T589 202T610 210T626 214Q632 214 637 211T646 197T651 168T654 122ZM598 1475Q601 1487 608 1495T630 1510T666 1519T721 1522Q757 1522 778 1519T810 1509T820 1494T817 1472L693 1158Q689 1147 682 1141T662 1131T630 1126T582 1124Q559 1124 546 1126T526 1134T518 1148T520 1170L598 1475Z"/><glyph unicode="Ū" horiz-adv-x="1337" d="M1197 482Q1197 363 1162 269T1059 110T891 11T661 -23Q539 -23 442 7T278 100T176 254T140 471V1258Q140 1268 146 1276T167 1289T208 1297T272 1300Q310 1300 335 1297T375 1289T396 1276T403 1258V494Q403 417 422 361T476 267T561 212T672 193Q734 193 783 212T866 267T918 357T937 479V1258Q937 1268 943 1276T964 1289T1004 1297T1068 1300Q1106 1300 1130 1297T1170 1289T1191 1276T1197 1258V482ZM964 1616Q975 1616 982 1611T995 1596T1002 1567T1004 1523Q1004 1497 1002 1480T995 1451T983 1436T964 1431H374Q362 1431 354 1435T340 1451T333 1479T330 1523Q330 1548 332 1566T340 1595T353 1611T374 1616H964Z"/><glyph unicode="ū" horiz-adv-x="1099" d="M972 34Q972 24 967 17T950 4T917 -3T865 -6Q832 -6 812 -4T779 4T762 16T757 34V137Q683 57 607 17T448 -23Q356 -23 294 7T193 89T138 209T121 380V926Q121 936 126 943T146 956T185 963T246 966Q283 966 307 964T345 956T366 944T372 926V422Q372 352 381 315T408 252T455 211T522 196Q570 196 618 231T722 333V926Q722 936 727 943T747 956T786 963T847 966Q884 966 908 964T946 956T966 944T972 926V34ZM806 1323Q817 1323 825 1319T837 1303T844 1275T847 1231Q847 1205 845 1188T838 1160T825 1145T806 1140H296Q284 1140 276 1144T262 1160T255 1188T252 1231Q252 1256 254 1274T262 1302T275 1318T296 1323H806Z"/><glyph unicode="Ů" horiz-adv-x="1337" d="M1197 482Q1197 363 1162 269T1059 110T891 11T661 -23Q539 -23 442 7T278 100T176 254T140 471V1258Q140 1268 146 1276T167 1289T208 1297T272 1300Q310 1300 335 1297T375 1289T396 1276T403 1258V494Q403 417 422 361T476 267T561 212T672 193Q734 193 783 212T866 267T918 357T937 479V1258Q937 1268 943 1276T964 1289T1004 1297T1068 1300Q1106 1300 1130 1297T1170 1289T1191 1276T1197 1258V482ZM905 1558Q905 1510 889 1472T842 1409T766 1369T662 1355Q603 1355 560 1368T487 1406T444 1467T429 1551Q429 1599 445 1636T492 1700T567 1739T670 1753Q786 1753 845 1704T905 1558ZM752 1553Q752 1592 732 1616T665 1640Q624 1640 603 1618T582 1556Q582 1514 602 1491T669 1468Q711 1468 731 1491T752 1553Z"/><glyph unicode="ů" horiz-adv-x="1099" d="M972 34Q972 24 967 17T950 4T917 -3T865 -6Q832 -6 812 -4T779 4T762 16T757 34V137Q683 57 607 17T448 -23Q356 -23 294 7T193 89T138 209T121 380V926Q121 936 126 943T146 956T185 963T246 966Q283 966 307 964T345 956T366 944T372 926V422Q372 352 381 315T408 252T455 211T522 196Q570 196 618 231T722 333V926Q722 936 727 943T747 956T786 963T847 966Q884 966 908 964T946 956T966 944T972 926V34ZM783 1266Q783 1219 767 1182T721 1120T646 1081T545 1067Q487 1067 444 1080T373 1117T330 1177T316 1259Q316 1306 331 1343T377 1405T452 1444T553 1457Q666 1457 724 1408T783 1266ZM633 1261Q633 1300 613 1323T547 1347Q507 1347 487 1325T466 1264Q466 1223 485 1200T551 1177Q592 1177 612 1199T633 1261Z"/><glyph unicode="Ű" horiz-adv-x="1337" d="M1197 482Q1197 363 1162 269T1059 110T891 11T661 -23Q539 -23 442 7T278 100T176 254T140 471V1258Q140 1268 146 1276T167 1289T208 1297T272 1300Q310 1300 335 1297T375 1289T396 1276T403 1258V494Q403 417 422 361T476 267T561 212T672 193Q734 193 783 212T866 267T918 357T937 479V1258Q937 1268 943 1276T964 1289T1004 1297T1068 1300Q1106 1300 1130 1297T1170 1289T1191 1276T1197 1258V482ZM547 1409Q539 1401 530 1397T508 1390T475 1387T428 1386Q375 1386 359 1397T357 1429L520 1661Q527 1671 538 1677T566 1688T608 1695T666 1697Q720 1697 750 1694T793 1684T802 1667T785 1645L547 1409ZM980 1411Q970 1402 961 1397T938 1390T904 1387T854 1386Q824 1386 804 1388T774 1396T762 1408T768 1425L951 1661Q957 1670 967 1676T995 1688T1040 1695T1109 1697Q1157 1697 1186 1694T1227 1683T1238 1666T1222 1644L980 1411Z"/><glyph unicode="ű" horiz-adv-x="1099" d="M972 34Q972 24 967 17T950 4T917 -3T865 -6Q832 -6 812 -4T779 4T762 16T757 34V137Q683 57 607 17T448 -23Q356 -23 294 7T193 89T138 209T121 380V926Q121 936 126 943T146 956T185 963T246 966Q283 966 307 964T345 956T366 944T372 926V422Q372 352 381 315T408 252T455 211T522 196Q570 196 618 231T722 333V926Q722 936 727 943T747 956T786 963T847 966Q884 966 908 964T946 956T966 944T972 926V34ZM452 1093Q445 1085 438 1080T420 1073T394 1069T358 1068Q327 1068 308 1070T279 1077T269 1090T276 1110L427 1353Q434 1364 443 1372T466 1384T500 1391T552 1394Q599 1394 627 1390T668 1378T677 1359T659 1330L452 1093ZM824 1094Q816 1085 807 1080T786 1073T759 1069T720 1068Q661 1068 641 1076T636 1107L816 1361Q823 1371 832 1377T856 1387T894 1392T956 1394Q996 1394 1019 1389T1052 1376T1059 1356T1043 1331L824 1094Z"/><glyph unicode="Ų" horiz-adv-x="1337" d="M1197 482Q1197 347 1153 246T1018 77Q994 59 977 46T943 18T911 -12T871 -51L834 -87Q814 -107 808 -124T801 -152Q801 -174 816 -184T863 -195H961Q970 -195 976 -197T986 -207T991 -227T993 -260Q993 -281 991 -295T985 -318T973 -332T955 -340Q918 -353 874 -359T775 -365Q670 -365 610 -324T550 -199Q550 -184 552 -168T563 -133T584 -94T621 -51L657 -15Q651 -16 643 -17T623 -18Q559 -18 498 -6T383 31T285 95T208 188T158 313T140 471V1260Q140 1270 146 1277T167 1290T208 1297T272 1300Q310 1300 335 1298T375 1290T396 1278T403 1260V490Q403 415 422 359T476 267T561 212T672 193Q734 193 783 212T866 267T918 357T937 479V1260Q937 1270 943 1277T964 1290T1004 1297T1069 1300Q1107 1300 1131 1298T1170 1290T1191 1278T1197 1260V482Z"/><glyph unicode="ų" horiz-adv-x="1099" d="M1026 -261Q1026 -282 1025 -296T1019 -319T1007 -333T988 -342Q956 -355 922 -360T841 -365Q785 -365 744 -354T676 -323T635 -273T621 -207Q621 -184 625 -164T641 -123T669 -82T712 -35L761 15V137H758Q685 57 608 17T448 -23Q356 -23 294 7T193 89T138 209T121 380V926Q121 936 126 943T146 956T185 963T246 966Q283 966 307 964T345 956T366 944T372 926V422Q372 352 381 315T408 252T455 211T522 196Q570 196 619 231T722 333V926Q722 936 727 943T747 956T786 963T847 966Q884 966 908 964T946 956T966 944T972 926V43Q972 31 971 20T966 -2T955 -23T936 -46L885 -97Q870 -113 863 -128T856 -159Q856 -179 870 -189T916 -200H991Q1010 -200 1018 -211T1026 -261Z"/><glyph unicode="Ÿ" horiz-adv-x="1064" d="M664 491V36Q664 26 658 18T636 5T596 -3T532 -6Q493 -6 468 -3T428 5T406 18T400 36V491L46 1196Q27 1233 22 1253T27 1284T70 1297T156 1300Q202 1300 229 1298T273 1291T296 1276T311 1253L455 935Q476 889 496 838T538 731H540Q559 785 579 836T618 933L760 1249Q765 1265 772 1274T795 1290T836 1298T905 1300Q962 1300 993 1298T1036 1285T1042 1253T1018 1196L664 491ZM450 1534Q450 1464 423 1436T318 1408Q241 1408 214 1435T187 1530Q187 1601 215 1628T319 1656Q397 1656 423 1630T450 1534ZM887 1534Q887 1464 859 1436T754 1408Q677 1408 651 1435T624 1530Q624 1601 651 1628T756 1656Q833 1656 860 1630T887 1534Z"/><glyph unicode="Ź" horiz-adv-x="979" d="M936 104Q936 75 934 55T926 23T914 5T897 0H134Q94 0 73 23T51 90V134Q51 154 53 170T62 204T79 241T108 289L610 1085H112Q100 1085 92 1090T78 1108T70 1140T67 1188Q67 1218 69 1238T77 1271T91 1289T112 1294H827Q868 1294 887 1273T907 1214V1165Q907 1138 905 1119T896 1081T878 1043T850 996L356 211H897Q916 211 926 187T936 104ZM560 1643Q573 1658 585 1667T615 1681T658 1687T720 1689Q766 1689 791 1683T826 1668T831 1646T812 1621L590 1421Q580 1412 570 1406T544 1395T508 1388T456 1386Q422 1386 402 1389T373 1398T366 1415T380 1439L560 1643Z"/><glyph unicode="ź" horiz-adv-x="814" d="M750 103Q750 74 747 54T739 21T726 5T708 0H125Q98 0 84 18T69 77V123Q69 141 70 155T76 183T88 211T108 242L442 758H126Q107 758 96 782T84 859Q84 888 86 907T94 938T107 955T126 960H671Q685 960 695 957T711 946T721 924T725 889V840Q725 820 723 805T717 775T706 747T688 717L356 202H708Q717 202 725 198T738 183T747 153T750 103ZM443 1364Q450 1375 460 1383T485 1395T523 1402T579 1404Q625 1404 651 1400T689 1389T700 1371T690 1350L496 1118Q488 1108 480 1102T460 1091T428 1085T380 1083Q345 1083 325 1086T296 1095T289 1112T300 1135L443 1364Z"/><glyph unicode="Ż" horiz-adv-x="979" d="M936 104Q936 75 934 55T926 23T914 5T897 0H134Q94 0 73 23T51 90V134Q51 154 53 170T62 204T79 241T108 289L610 1085H112Q100 1085 92 1090T78 1108T70 1140T67 1188Q67 1218 69 1238T77 1271T91 1289T112 1294H827Q868 1294 887 1273T907 1214V1165Q907 1138 905 1119T896 1081T878 1043T850 996L356 211H897Q916 211 926 187T936 104ZM633 1534Q633 1463 604 1435T494 1406Q414 1406 385 1433T356 1529Q356 1601 386 1629T496 1657Q576 1657 604 1630T633 1534Z"/><glyph unicode="ż" horiz-adv-x="814" d="M750 103Q750 74 747 54T739 21T726 5T708 0H125Q98 0 84 18T69 77V123Q69 141 70 155T76 183T88 211T108 242L442 758H126Q107 758 96 782T84 859Q84 888 86 907T94 938T107 955T126 960H671Q685 960 695 957T711 946T721 924T725 889V840Q725 820 723 805T717 775T706 747T688 717L356 202H708Q717 202 725 198T738 183T747 153T750 103ZM561 1235Q561 1164 532 1136T422 1107Q342 1107 313 1134T284 1230Q284 1301 314 1329T424 1358Q504 1358 532 1331T561 1235Z"/><glyph unicode="Ž" horiz-adv-x="979" d="M936 104Q936 75 934 55T926 23T914 5T897 0H134Q94 0 73 23T51 90V134Q51 154 53 170T62 204T79 241T108 289L610 1085H112Q100 1085 92 1090T78 1108T70 1140T67 1188Q67 1218 69 1238T77 1271T91 1289T112 1294H827Q868 1294 887 1273T907 1214V1165Q907 1138 905 1119T896 1081T878 1043T850 996L356 211H897Q916 211 926 187T936 104ZM489 1386Q457 1386 435 1387T398 1392T371 1405T346 1427L148 1641Q135 1656 133 1665T138 1680T168 1687T224 1689Q265 1689 291 1688T332 1683T356 1673T373 1658L491 1521L614 1656Q622 1666 630 1672T654 1682T695 1687T762 1689Q796 1689 816 1687T844 1679T851 1664T837 1641L642 1427Q631 1414 618 1406T588 1394T547 1388T489 1386Z"/><glyph unicode="ž" horiz-adv-x="814" d="M750 103Q750 74 747 54T739 21T726 5T708 0H125Q98 0 84 18T69 77V123Q69 141 70 155T76 183T88 211T108 242L442 758H126Q107 758 96 782T84 859Q84 888 86 907T94 938T107 955T126 960H671Q685 960 695 957T711 946T721 924T725 889V840Q725 820 723 805T717 775T706 747T688 717L356 202H708Q717 202 725 198T738 183T747 153T750 103ZM518 1370Q525 1380 532 1387T551 1397T581 1402T630 1404Q670 1404 691 1401T719 1390T721 1370T702 1338L545 1115Q538 1106 528 1100T503 1090T466 1085T413 1083Q382 1083 360 1085T324 1091T300 1101T285 1115L126 1338Q113 1357 108 1369T110 1390T138 1401T199 1404Q231 1404 249 1403T279 1397T297 1387T310 1370L413 1219L518 1370Z"/><glyph unicode="ƒ" horiz-adv-x="1020" d="M919 1247Q919 1214 916 1193T907 1160T895 1142T882 1137Q875 1137 864 1140T839 1148T807 1156T768 1160Q732 1160 706 1151T661 1123T631 1073T614 1000L584 779H795Q804 779 811 774T824 758T831 727T834 678Q834 623 824 599T795 575H556L434 -306Q433 -317 426 -324T403 -337T361 -345T298 -348Q260 -348 236 -345T198 -337T180 -323T176 -305L297 575H139Q120 575 110 599T99 678Q99 707 101 726T109 757T122 774T139 779H326L359 1027Q372 1118 401 1183T477 1289T586 1351T725 1371Q756 1371 785 1368T837 1358T878 1345T901 1333T910 1321T915 1306T918 1282T919 1247Z"/><glyph unicode="Ș" horiz-adv-x="968" d="M908 388Q908 286 870 209T767 81T615 3T429 -23Q362 -23 305 -12T203 14T130 47T87 77T69 114T63 185Q63 216 65 237T71 271T83 289T101 295Q115 295 140 279T206 242T301 206T430 189Q478 189 516 200T580 233T621 285T635 354Q635 398 611 429T549 485T461 531T360 577T259 631T172 704T109 805T85 944Q85 1037 119 1107T212 1224T350 1294T519 1317Q565 1317 611 1310T697 1291T768 1264T809 1239T822 1222T828 1204T832 1175T833 1131Q833 1102 832 1082T827 1049T817 1030T799 1024Q788 1024 764 1038T705 1068T624 1098T523 1112Q480 1112 448 1102T395 1073T363 1028T352 973Q352 930 375 899T438 843T528 797T630 751T732 697T821 624T884 524T908 388ZM351 -123Q354 -112 362 -104T385 -90T426 -83T492 -81Q532 -81 555 -85T588 -96T599 -115T591 -140L493 -330Q488 -340 481 -346T462 -357T429 -363T376 -365Q344 -365 326 -363T299 -354T290 -337T294 -313L351 -123Z"/><glyph unicode="ș" horiz-adv-x="817" d="M754 286Q754 210 726 152T645 55T522 -3T368 -23Q318 -23 273 -16T191 3T131 27T96 49T79 82T73 149Q73 178 75 195T81 223T91 237T106 241Q117 241 138 229T192 201T266 173T363 160Q397 160 423 167T469 187T499 220T509 266Q509 296 491 317T442 355T373 385T294 416T215 455T146 509T97 586T78 694Q78 758 103 811T175 903T289 962T441 983Q483 983 522 977T594 962T648 943T679 925T693 910T699 892T702 866T704 827Q704 800 703 783T698 756T688 743T674 739Q665 739 646 749T599 772T533 794T447 805Q413 805 388 798T347 778T323 748T315 710Q315 679 334 658T384 621T454 591T534 561T614 522T685 468T735 392T754 286ZM280 -123Q283 -112 291 -104T314 -90T355 -83T421 -81Q461 -81 484 -85T517 -96T528 -115T520 -140L422 -330Q417 -340 410 -346T391 -357T358 -363T305 -365Q273 -365 255 -363T228 -354T219 -337T223 -313L280 -123Z"/><glyph unicode="Ț" horiz-adv-x="1014" d="M1002 1186Q1002 1157 1000 1137T992 1104T980 1085T963 1079H639V36Q639 26 633 18T611 5T571 -3T507 -6Q469 -6 444 -3T403 5T382 18T375 36V1079H51Q41 1079 34 1085T22 1103T15 1136T12 1186Q12 1216 14 1237T22 1270T34 1288T51 1294H963Q972 1294 979 1289T992 1271T999 1237T1002 1186ZM381 -123Q384 -112 392 -104T415 -90T456 -83T522 -81Q562 -81 585 -85T618 -96T629 -115T621 -140L523 -330Q518 -340 511 -346T492 -357T459 -363T406 -365Q374 -365 356 -363T329 -354T320 -337T324 -313L381 -123Z"/><glyph unicode="ț" horiz-adv-x="710" d="M654 122Q654 78 649 55T634 22T608 5T567 -8T516 -17T460 -20Q385 -20 330 -1T239 57T186 157T169 299V756H62Q43 756 33 779T23 858Q23 887 25 907T33 938T45 955T63 960H169V1159Q169 1169 174 1177T194 1190T233 1198T294 1201Q331 1201 355 1199T394 1191T414 1177T420 1159V960H614Q624 960 631 955T644 939T651 907T654 858Q654 803 644 780T615 756H420V337Q420 264 443 228T525 191Q545 191 561 194T589 202T610 210T626 214Q632 214 637 211T646 197T651 168T654 122ZM278 -123Q281 -112 289 -104T312 -90T353 -83T419 -81Q459 -81 482 -85T515 -96T526 -115T518 -140L420 -330Q415 -340 408 -346T389 -357T356 -363T303 -365Q271 -365 253 -363T226 -354T217 -337T221 -313L278 -123Z"/><glyph unicode="ˆ" horiz-adv-x="822" d="M307 1118Q300 1107 293 1100T274 1090T244 1085T195 1083Q155 1083 134 1086T105 1097T103 1118T123 1149L281 1372Q287 1382 296 1387T321 1397T359 1402T412 1404Q444 1404 465 1402T501 1396T525 1386T541 1372L698 1149Q712 1130 717 1118T715 1098T687 1087T626 1083Q594 1083 576 1084T546 1090T528 1100T515 1118L411 1268L307 1118Z"/><glyph unicode="ˇ" horiz-adv-x="822" d="M515 1370Q522 1380 529 1387T548 1397T578 1402T627 1404Q667 1404 688 1401T716 1390T718 1370T699 1338L542 1115Q535 1106 525 1100T500 1090T463 1085T410 1083Q379 1083 357 1085T321 1091T297 1101T282 1115L123 1338Q110 1357 105 1369T107 1390T135 1401T196 1404Q228 1404 246 1403T276 1397T294 1387T307 1370L410 1219L515 1370Z"/><glyph unicode="ˉ" horiz-adv-x="799" d="M656 1323Q667 1323 675 1319T687 1303T694 1275T697 1231Q697 1205 695 1188T688 1160T675 1145T656 1140H146Q134 1140 126 1144T112 1160T105 1188T102 1231Q102 1256 104 1274T112 1302T125 1318T146 1323H656Z"/><glyph unicode="˘" horiz-adv-x="788" d="M518 1361Q520 1380 537 1390T599 1400Q625 1400 642 1398T668 1392T681 1381T685 1365Q685 1298 668 1246T615 1159T524 1105T393 1086Q315 1086 260 1104T170 1158T119 1245T102 1363Q102 1383 119 1391T184 1400Q209 1400 225 1398T252 1391T266 1379T271 1361Q274 1334 281 1313T302 1276T339 1252T393 1244Q422 1244 444 1251T482 1272T507 1308T518 1361Z"/><glyph unicode="˙" horiz-adv-x="482" d="M379 1235Q379 1164 350 1136T240 1107Q160 1107 131 1134T102 1230Q102 1301 132 1329T242 1358Q322 1358 350 1331T379 1235Z"/><glyph unicode="˚" horiz-adv-x="671" d="M569 1266Q569 1219 553 1182T507 1120T432 1081T331 1067Q273 1067 230 1080T159 1117T116 1177T102 1259Q102 1306 117 1343T163 1405T238 1444T339 1457Q452 1457 510 1408T569 1266ZM419 1261Q419 1300 399 1323T333 1347Q293 1347 273 1325T252 1264Q252 1223 271 1200T337 1177Q378 1177 398 1199T419 1261Z"/><glyph unicode="˛" horiz-adv-x="646" d="M471 0L387 -84Q362 -109 353 -126T344 -159Q344 -180 360 -190T406 -200H508Q518 -200 525 -202T536 -211T542 -230T544 -260Q544 -281 542 -295T536 -318T524 -332T506 -340Q469 -353 428 -359T339 -365Q289 -365 246 -355T171 -324T121 -271T102 -196Q102 -177 105 -159T117 -123T140 -85T178 -43L220 0H471Z"/><glyph unicode="˜" horiz-adv-x="910" d="M810 1336Q810 1215 753 1151T593 1086Q554 1086 524 1094T470 1115T427 1142T389 1169T354 1190T316 1199Q283 1199 269 1176T255 1114Q255 1105 252 1100T240 1091T216 1087T176 1086Q155 1086 141 1087T118 1093T105 1106T101 1127Q101 1243 157 1309T317 1376Q374 1376 413 1359T483 1320T540 1281T594 1263Q624 1263 640 1284T656 1348Q656 1365 671 1370T732 1376Q777 1376 793 1369T810 1336Z"/><glyph unicode="˝" horiz-adv-x="995" d="M285 1093Q278 1085 271 1080T253 1073T227 1069T191 1068Q160 1068 141 1070T112 1077T102 1090T109 1110L260 1353Q267 1364 276 1372T299 1384T333 1391T385 1394Q432 1394 460 1390T501 1378T510 1359T492 1330L285 1093ZM657 1094Q649 1085 640 1080T619 1073T592 1069T553 1068Q494 1068 474 1076T469 1107L649 1361Q656 1371 665 1377T689 1387T727 1392T789 1394Q829 1394 852 1389T885 1376T892 1356T876 1331L657 1094Z"/><glyph unicode="̒" horiz-adv-x="556" d="M353 1108Q349 1097 342 1090T319 1077T281 1070T220 1068Q177 1068 152 1071T115 1082T103 1100T110 1122L249 1359Q255 1369 263 1375T286 1386T321 1392T372 1394Q401 1394 418 1391T444 1381T453 1365T449 1341L353 1108Z"/><glyph unicode="̕" horiz-adv-x="508" d="M183 1327Q186 1339 193 1347T215 1362T251 1371T306 1374Q342 1374 363 1371T395 1361T405 1346T402 1324L278 1010Q274 999 267 993T247 983T215 978T167 976Q144 976 131 978T111 986T103 1000T105 1022L183 1327Z"/><glyph unicode="̦" horiz-adv-x="514" d="M164 -123Q167 -112 175 -104T198 -90T239 -83T305 -81Q345 -81 368 -85T401 -96T412 -115T404 -140L306 -330Q301 -340 294 -346T275 -357T242 -363T189 -365Q157 -365 139 -363T112 -354T103 -337T107 -313L164 -123Z"/><glyph unicode="΄" horiz-adv-x="649" d="M352 1117Q347 1106 338 1100T314 1089T279 1084T233 1083Q183 1083 162 1093T149 1129L227 1402Q234 1425 265 1436T363 1448Q402 1448 425 1445T461 1435T475 1419T472 1395L352 1117Z"/><glyph unicode="΅" horiz-adv-x="1012" d="M565 1117Q559 1098 538 1091T466 1083Q425 1083 409 1092T395 1129L446 1402Q448 1414 454 1422T474 1436T507 1445T560 1448Q592 1448 611 1445T641 1436T653 1421T651 1399L565 1117ZM322 1214Q322 1151 300 1127T217 1103Q154 1103 133 1126T111 1210Q111 1273 133 1297T217 1322Q279 1322 300 1298T322 1214ZM905 1214Q905 1151 883 1127T799 1103Q737 1103 716 1126T694 1210Q694 1273 716 1297T799 1322Q862 1322 883 1298T905 1214Z"/><glyph unicode="Ά" horiz-adv-x="1241" d="M1201 98Q1213 62 1216 41T1208 10T1169 -3T1092 -6Q1041 -6 1013 -5T969 1T948 14T938 35L851 295H365L283 42Q279 28 273 19T252 4T211 -4T141 -6Q95 -6 69 -3T33 11T26 44T41 100L440 1248Q446 1265 454 1275T479 1291T528 1298T610 1300Q669 1300 704 1299T758 1292T786 1275T801 1245L1201 98ZM607 1047H606L423 497H790L607 1047ZM210 1117Q205 1106 196 1100T172 1089T137 1084T91 1083Q41 1083 20 1093T7 1129L85 1402Q92 1425 123 1436T221 1448Q260 1448 283 1445T319 1435T333 1419T330 1395L210 1117Z"/><glyph unicode="Έ" horiz-adv-x="999" d="M908 103Q908 74 906 55T898 23T886 6T869 0H219Q186 0 164 19T141 83V1211Q141 1255 163 1274T219 1294H865Q874 1294 881 1289T893 1272T900 1240T903 1190Q903 1162 901 1143T893 1111T881 1094T865 1088H403V772H794Q803 772 810 767T823 750T830 719T833 671Q833 642 831 623T823 593T811 576T794 571H403V206H869Q878 206 885 201T898 183T905 152T908 103ZM-3 1117Q-8 1106 -17 1100T-41 1089T-76 1084T-122 1083Q-172 1083 -193 1093T-206 1129L-128 1402Q-121 1425 -90 1436T8 1448Q47 1448 70 1445T106 1435T120 1419T117 1395L-3 1117Z"/><glyph unicode="Ή" horiz-adv-x="1292" d="M1151 36Q1151 26 1145 18T1123 5T1083 -3T1020 -6Q981 -6 956 -3T916 5T895 18T888 36V559H404V36Q404 26 398 18T377 5T337 -3T273 -6Q235 -6 210 -3T169 5T148 18T141 36V1258Q141 1268 147 1276T169 1289T209 1297T273 1300Q312 1300 337 1297T377 1289T398 1276T404 1258V783H888V1258Q888 1268 894 1276T915 1289T955 1297T1020 1300Q1058 1300 1083 1297T1123 1289T1144 1276T1151 1258V36ZM-38 1117Q-43 1106 -52 1100T-76 1089T-111 1084T-157 1083Q-207 1083 -228 1093T-241 1129L-163 1402Q-156 1425 -125 1436T-27 1448Q12 1448 35 1445T71 1435T85 1419T82 1395L-38 1117Z"/><glyph unicode="Ί" horiz-adv-x="546" d="M405 36Q405 26 399 18T377 5T337 -3T273 -6Q235 -6 210 -3T169 5T148 18T141 36V1258Q141 1268 147 1276T169 1289T210 1297T273 1300Q312 1300 337 1297T377 1289T398 1276T405 1258V36ZM-13 1117Q-18 1106 -27 1100T-51 1089T-86 1084T-132 1083Q-182 1083 -203 1093T-216 1129L-138 1402Q-131 1425 -100 1436T-2 1448Q37 1448 60 1445T96 1435T110 1419T107 1395L-13 1117Z"/><glyph unicode="Ό" horiz-adv-x="1385" d="M1305 662Q1305 501 1265 374T1146 159T951 24T681 -23Q530 -23 418 16T230 137T118 343T80 639Q80 796 120 921T239 1135T434 1270T705 1317Q852 1317 964 1278T1152 1158T1266 954T1305 662ZM1029 648Q1029 750 1013 833T959 976T856 1068T696 1101Q599 1101 534 1065T429 967T373 825T356 652Q356 546 372 462T426 317T528 226T689 194Q786 194 851 230T956 328T1012 472T1029 648ZM111 1117Q106 1106 97 1100T73 1089T38 1084T-8 1083Q-58 1083 -79 1093T-92 1129L-14 1402Q-7 1425 24 1436T122 1448Q161 1448 184 1445T220 1435T234 1419T231 1395L111 1117Z"/><glyph unicode="Ύ" horiz-adv-x="1064" d="M664 491V36Q664 26 658 18T636 5T596 -3T532 -6Q493 -6 468 -3T428 5T406 18T400 36V491L46 1196Q27 1233 22 1253T27 1284T70 1297T156 1300Q202 1300 229 1298T273 1291T296 1276T311 1253L455 935Q476 889 496 838T538 731H540Q559 785 579 836T618 933L760 1249Q765 1265 772 1274T795 1290T836 1298T905 1300Q962 1300 993 1298T1036 1285T1042 1253T1018 1196L664 491ZM-83 1117Q-88 1106 -97 1100T-121 1089T-156 1084T-202 1083Q-252 1083 -273 1093T-286 1129L-208 1402Q-201 1425 -170 1436T-72 1448Q-33 1448 -10 1445T26 1435T40 1419T37 1395L-83 1117Z"/><glyph unicode="Ώ" horiz-adv-x="1394" d="M1313 104Q1313 75 1311 55T1303 23T1291 5T1274 0H867Q827 0 806 23T784 90V136Q784 153 786 165T794 191T814 220T860 264T928 333T986 425T1019 539T1030 684Q1030 745 1022 800T997 901T954 984T890 1047T805 1087T696 1101Q633 1101 583 1085T495 1040T431 972T389 888T365 793T357 693Q357 605 368 539T401 423T458 333T526 265T573 221T592 192T600 166T602 136V90Q602 46 581 23T520 0H112Q102 0 95 5T83 22T76 55T73 104Q73 163 83 187T112 211H310Q256 245 214 292T142 397T97 526T81 679Q81 825 124 942T247 1143T443 1272T704 1317Q852 1317 965 1275T1153 1153T1267 958T1306 697Q1306 608 1290 534T1245 400T1173 292T1077 211H1274Q1293 211 1303 187T1313 104ZM83 1117Q78 1106 69 1100T45 1089T10 1084T-36 1083Q-86 1083 -107 1093T-120 1129L-42 1402Q-35 1425 -4 1436T94 1448Q133 1448 156 1445T192 1435T206 1419T203 1395L83 1117Z"/><glyph unicode="ΐ" horiz-adv-x="586" d="M586 117Q586 71 580 48T566 16T540 1T501 -11T453 -18T401 -21Q328 -21 275 -2T187 58T137 160T121 309V925Q121 935 126 943T146 956T184 963T244 966Q281 966 305 964T344 956T365 943T372 925V343Q372 305 376 277T392 230T421 202T467 192Q488 192 503 194T528 199T545 205T559 208Q565 208 570 205T578 191T584 163T586 117ZM338 1117Q332 1098 311 1091T239 1083Q198 1083 182 1092T168 1129L219 1402Q221 1414 227 1422T247 1436T280 1445T333 1448Q365 1448 384 1445T414 1436T426 1421T424 1399L338 1117ZM95 1214Q95 1151 73 1127T-10 1103Q-73 1103 -94 1126T-116 1210Q-116 1273 -94 1297T-10 1322Q52 1322 73 1298T95 1214ZM678 1214Q678 1151 656 1127T572 1103Q510 1103 489 1126T467 1210Q467 1273 489 1297T572 1322Q635 1322 656 1298T678 1214Z"/><glyph unicode="Α" horiz-adv-x="1241" d="M1201 98Q1213 62 1216 41T1208 10T1169 -3T1092 -6Q1041 -6 1013 -5T969 1T948 14T938 35L851 295H365L283 42Q279 28 273 19T252 4T211 -4T141 -6Q95 -6 69 -3T33 11T26 44T41 100L440 1248Q446 1265 454 1275T479 1291T528 1298T610 1300Q669 1300 704 1299T758 1292T786 1275T801 1245L1201 98ZM607 1047H606L423 497H790L607 1047Z"/><glyph unicode="Β" horiz-adv-x="1148" d="M1078 388Q1078 319 1059 263T1007 164T927 90T824 39T705 10T563 0H219Q186 0 164 19T141 83V1211Q141 1255 163 1274T219 1294H544Q663 1294 745 1274T884 1214T971 1111T1001 965Q1001 918 989 877T954 801T898 741T821 699Q876 689 922 664T1003 600T1058 507T1078 388ZM738 933Q738 972 726 1003T690 1054T630 1086T532 1097H399V761H546Q603 761 637 774T693 811T727 866T738 933ZM805 379Q805 424 790 459T746 519T672 556T555 569H399V201H589Q644 201 681 212T746 246T789 302T805 379Z"/><glyph unicode="Γ" horiz-adv-x="839" d="M862 1191Q862 1163 860 1143T852 1111T840 1094T823 1088H405V36Q405 25 399 18T378 5T337 -3T273 -6Q235 -6 210 -4T169 4T148 17T141 36V1200Q141 1247 165 1270T230 1294H823Q832 1294 839 1289T852 1272T859 1240T862 1191Z"/><glyph unicode="Δ" horiz-adv-x="1183" d="M1140 91Q1140 47 1118 24T1056 0H126Q87 0 65 23T43 91V127Q43 141 45 158T51 195T63 241T82 300L411 1248Q417 1265 424 1275T449 1291T498 1298T582 1300Q641 1300 676 1299T730 1292T758 1275T773 1245L1100 301Q1112 268 1119 242T1132 195T1138 158T1140 127V91ZM579 1042H577L307 206H848L579 1042Z"/><glyph unicode="Ε" horiz-adv-x="999" d="M908 103Q908 74 906 55T898 23T886 6T869 0H219Q186 0 164 19T141 83V1211Q141 1255 163 1274T219 1294H865Q874 1294 881 1289T893 1272T900 1240T903 1190Q903 1162 901 1143T893 1111T881 1094T865 1088H403V772H794Q803 772 810 767T823 750T830 719T833 671Q833 642 831 623T823 593T811 576T794 571H403V206H869Q878 206 885 201T898 183T905 152T908 103Z"/><glyph unicode="Ζ" horiz-adv-x="979" d="M936 104Q936 75 934 55T926 23T914 5T897 0H134Q94 0 73 23T51 90V134Q51 154 53 170T62 204T79 241T108 289L610 1085H112Q100 1085 92 1090T78 1108T70 1140T67 1188Q67 1218 69 1238T77 1271T91 1289T112 1294H827Q868 1294 887 1273T907 1214V1165Q907 1138 905 1119T896 1081T878 1043T850 996L356 211H897Q916 211 926 187T936 104Z"/><glyph unicode="Η" horiz-adv-x="1292" d="M1151 36Q1151 26 1145 18T1123 5T1083 -3T1020 -6Q981 -6 956 -3T916 5T895 18T888 36V559H404V36Q404 26 398 18T377 5T337 -3T273 -6Q235 -6 210 -3T169 5T148 18T141 36V1258Q141 1268 147 1276T169 1289T209 1297T273 1300Q312 1300 337 1297T377 1289T398 1276T404 1258V783H888V1258Q888 1268 894 1276T915 1289T955 1297T1020 1300Q1058 1300 1083 1297T1123 1289T1144 1276T1151 1258V36Z"/><glyph unicode="Θ" horiz-adv-x="1385" d="M1305 666Q1305 506 1265 378T1147 161T952 25T681 -23Q530 -23 418 16T230 136T118 341T80 638Q80 794 120 920T239 1134T434 1269T705 1317Q851 1317 963 1279T1151 1161T1266 958T1305 666ZM1029 652Q1029 754 1013 836T959 978T856 1069T696 1101Q599 1101 534 1065T429 967T373 824T356 652Q356 545 372 460T426 316T528 226T689 194Q786 194 851 230T956 329T1012 475T1029 652ZM897 655Q897 626 895 607T887 576T875 559T858 553H524Q514 553 507 558T495 575T488 606T485 655Q485 683 487 702T495 734T507 751T524 756H858Q867 756 874 751T887 734T894 703T897 655Z"/><glyph unicode="Ι" horiz-adv-x="546" d="M405 36Q405 26 399 18T377 5T337 -3T273 -6Q235 -6 210 -3T169 5T148 18T141 36V1258Q141 1268 147 1276T169 1289T210 1297T273 1300Q312 1300 337 1297T377 1289T398 1276T405 1258V36Z"/><glyph unicode="Κ" horiz-adv-x="1120" d="M1086 39Q1086 28 1081 20T1060 6T1017 -3T949 -6Q884 -6 856 -1T815 14T795 38L404 652V38Q404 27 398 19T377 6T337 -3T273 -6Q235 -6 210 -3T169 5T148 19T141 38V1257Q141 1268 147 1276T169 1289T209 1297T273 1300Q312 1300 337 1297T377 1289T398 1276T404 1257V706L783 1256Q790 1269 800 1277T826 1291T867 1298T931 1300Q971 1300 997 1297T1038 1289T1060 1275T1066 1257Q1066 1240 1057 1222T1023 1165L668 700L1055 115Q1077 74 1081 61T1086 39Z"/><glyph unicode="Λ" horiz-adv-x="1216" d="M1171 99Q1182 63 1185 42T1178 10T1137 -3T1052 -6Q1003 -6 976 -5T934 2T915 15T906 38L596 1042H594L286 41Q282 27 276 18T256 3T216 -4T145 -6Q98 -6 73 -3T37 12T29 44T45 101L428 1248Q433 1265 441 1275T467 1291T516 1298T598 1300Q637 1300 666 1300T715 1297T747 1292T768 1282T781 1267T790 1245L1171 99Z"/><glyph unicode="Μ" horiz-adv-x="1790" d="M1649 36Q1649 26 1644 18T1624 5T1585 -3T1524 -6Q1488 -6 1464 -3T1426 5T1406 18T1400 36V1089H1398L1023 37Q1019 24 1010 16T986 2T946 -4T888 -6Q854 -6 830 -4T791 4T766 18T754 37L392 1089H390V36Q390 26 385 18T364 5T326 -3T265 -6Q229 -6 205 -3T167 5T147 18T141 36V1189Q141 1240 168 1267T240 1294H412Q458 1294 491 1287T548 1262T588 1216T616 1145L896 374H900L1190 1143Q1203 1185 1218 1214T1254 1261T1303 1286T1368 1294H1545Q1572 1294 1591 1287T1623 1267T1642 1234T1649 1189V36Z"/><glyph unicode="Ν" horiz-adv-x="1349" d="M1208 92Q1208 69 1200 51T1179 21T1147 4T1109 -2H997Q962 -2 937 5T890 30T848 80T803 162L481 767Q453 821 424 883T372 1005H370Q374 933 376 862T378 714V37Q378 27 373 19T354 6T317 -3T258 -6Q223 -6 200 -3T164 5T146 19T141 37V1200Q141 1247 168 1270T236 1294H377Q415 1294 441 1288T487 1266T526 1225T563 1159L815 686Q837 643 858 602T900 519T939 437T976 357H977Q974 427 973 503T971 648V1255Q971 1265 977 1273T997 1287T1034 1295T1093 1298Q1127 1298 1150 1296T1185 1287T1203 1273T1208 1255V92Z"/><glyph unicode="Ξ" horiz-adv-x="1008" d="M921 1185Q921 1125 911 1100T882 1075H125Q106 1075 97 1100T87 1185Q87 1246 96 1270T125 1294H882Q891 1294 898 1289T911 1270T918 1237T921 1185ZM832 666Q832 608 822 585T793 561H212Q202 561 195 566T183 584T176 617T173 666Q173 695 175 714T183 746T195 764T212 770H793Q803 770 810 765T822 747T829 715T832 666ZM931 110Q931 50 921 25T891 0H116Q97 0 87 25T77 110Q77 172 87 196T116 221H891Q910 221 920 197T931 110Z"/><glyph unicode="Ο" horiz-adv-x="1385" d="M1305 662Q1305 501 1265 374T1146 159T951 24T681 -23Q530 -23 418 16T230 137T118 343T80 639Q80 796 120 921T239 1135T434 1270T705 1317Q852 1317 964 1278T1152 1158T1266 954T1305 662ZM1029 648Q1029 750 1013 833T959 976T856 1068T696 1101Q599 1101 534 1065T429 967T373 825T356 652Q356 546 372 462T426 317T528 226T689 194Q786 194 851 230T956 328T1012 472T1029 648Z"/><glyph unicode="Π" horiz-adv-x="1292" d="M1151 34Q1151 24 1145 17T1123 4T1083 -3T1020 -6Q981 -6 956 -4T916 4T895 16T888 34V1070H404V34Q404 24 398 17T377 4T337 -3T273 -6Q235 -6 210 -4T169 4T148 16T141 34V1200Q141 1247 165 1270T230 1294H1062Q1102 1294 1126 1271T1151 1200V34Z"/><glyph unicode="Ρ" horiz-adv-x="1090" d="M1027 901Q1027 792 993 708T894 567T735 479T512 449H404V36Q404 26 398 18T376 5T336 -3T272 -6Q234 -6 209 -3T168 5T147 18T141 36V1200Q141 1247 165 1270T230 1294H535Q581 1294 622 1291T722 1276T839 1233T941 1155T1005 1044T1027 901ZM752 882Q752 950 728 994T669 1059T596 1085T516 1091H404V652H522Q585 652 627 669T697 716T738 789T752 882Z"/><glyph unicode="Σ" horiz-adv-x="962" d="M892 103Q892 74 890 55T882 23T870 6T853 0H157Q117 0 96 23T74 90V131Q74 158 76 178T85 215T103 250T135 293L433 674L155 1002Q136 1023 125 1039T108 1073T100 1111T98 1164V1205Q98 1248 118 1271T180 1294H848Q857 1294 864 1289T877 1272T884 1240T887 1190Q887 1162 885 1143T877 1111T865 1094T848 1088H409L669 783Q680 771 687 762T697 743T702 718T703 682Q703 661 702 648T698 624T687 604T669 580L382 206H853Q862 206 869 201T882 183T889 152T892 103Z"/><glyph unicode="Τ" horiz-adv-x="1014" d="M1002 1186Q1002 1157 1000 1137T992 1104T980 1085T963 1079H639V36Q639 26 633 18T611 5T571 -3T507 -6Q469 -6 444 -3T403 5T382 18T375 36V1079H51Q41 1079 34 1085T22 1103T15 1136T12 1186Q12 1216 14 1237T22 1270T34 1288T51 1294H963Q972 1294 979 1289T992 1271T999 1237T1002 1186Z"/><glyph unicode="Υ" horiz-adv-x="1064" d="M664 491V36Q664 26 658 18T636 5T596 -3T532 -6Q493 -6 468 -3T428 5T406 18T400 36V491L46 1196Q27 1233 22 1253T27 1284T70 1297T156 1300Q202 1300 229 1298T273 1291T296 1276T311 1253L455 935Q476 889 496 838T538 731H540Q559 785 579 836T618 933L760 1249Q765 1265 772 1274T795 1290T836 1298T905 1300Q962 1300 993 1298T1036 1285T1042 1253T1018 1196L664 491Z"/><glyph unicode="Φ" horiz-adv-x="1641" d="M1568 657Q1568 514 1528 400T1410 205T1216 77T951 23V-69Q951 -78 945 -85T924 -98T884 -106T820 -108Q782 -108 757 -106T717 -99T696 -86T690 -69V23Q536 29 421 71T228 190T111 379T72 636Q72 780 113 894T232 1089T426 1216T690 1271V1352Q690 1362 695 1369T716 1381T757 1388T820 1391Q858 1391 883 1389T924 1382T945 1370T951 1352V1271Q1107 1264 1222 1221T1415 1100T1530 911T1568 657ZM1297 643Q1297 735 1279 809T1220 937T1113 1023T951 1058V236Q1043 240 1109 272T1216 358T1277 484T1297 643ZM690 1058Q595 1053 529 1020T422 932T363 805T344 650Q344 557 362 483T421 356T528 271T690 236V1058Z"/><glyph unicode="Χ" horiz-adv-x="1128" d="M1063 99Q1081 64 1086 43T1080 11T1037 -3T949 -6Q902 -6 875 -4T833 2T810 15T798 35L555 502L313 35Q307 23 300 15T278 3T235 -4T162 -6Q110 -6 82 -3T43 11T39 43T64 99L374 664L86 1195Q68 1231 62 1252T66 1284T109 1297T197 1300Q244 1300 271 1298T315 1292T337 1279T350 1259L577 831L798 1259Q804 1271 810 1279T831 1291T871 1298T942 1300Q992 1300 1021 1298T1061 1284T1067 1252T1044 1195L756 667L1063 99Z"/><glyph unicode="Ψ" horiz-adv-x="1654" d="M1515 768Q1515 644 1478 546T1369 379T1192 273T950 231V33Q950 23 944 16T923 4T882 -3T819 -6Q780 -6 755 -4T715 3T693 15T687 33V231Q551 234 446 268T268 369T157 531T119 754V1260Q119 1270 125 1277T147 1290T187 1297T251 1300Q289 1300 314 1298T355 1290T376 1278T382 1260V773Q382 702 399 644T453 542T548 475T687 447V1260Q687 1270 693 1277T715 1290T756 1297T819 1300Q856 1300 882 1298T923 1290T944 1278T950 1260V447Q1029 449 1086 473T1182 538T1238 636T1256 762V1260Q1256 1270 1262 1277T1282 1290T1322 1297T1386 1300Q1424 1300 1449 1298T1488 1290T1509 1278T1515 1260V768Z"/><glyph unicode="Ω" horiz-adv-x="1394" d="M1313 104Q1313 75 1311 55T1303 23T1291 5T1274 0H867Q827 0 806 23T784 90V136Q784 153 786 165T794 191T814 220T860 264T928 333T986 425T1019 539T1030 684Q1030 745 1022 800T997 901T954 984T890 1047T805 1087T696 1101Q633 1101 583 1085T495 1040T431 972T389 888T365 793T357 693Q357 605 368 539T401 423T458 333T526 265T573 221T592 192T600 166T602 136V90Q602 46 581 23T520 0H112Q102 0 95 5T83 22T76 55T73 104Q73 163 83 187T112 211H310Q256 245 214 292T142 397T97 526T81 679Q81 825 124 942T247 1143T443 1272T704 1317Q852 1317 965 1275T1153 1153T1267 958T1306 697Q1306 608 1290 534T1245 400T1173 292T1077 211H1274Q1293 211 1303 187T1313 104Z"/><glyph unicode="Ϊ" horiz-adv-x="546" d="M405 36Q405 26 399 18T377 5T337 -3T273 -6Q235 -6 210 -3T169 5T148 18T141 36V1258Q141 1268 147 1276T169 1289T210 1297T273 1300Q312 1300 337 1297T377 1289T398 1276T405 1258V36ZM188 1534Q188 1464 161 1436T56 1408Q-21 1408 -48 1435T-75 1530Q-75 1601 -47 1628T57 1656Q135 1656 161 1630T188 1534ZM625 1534Q625 1464 597 1436T492 1408Q415 1408 389 1435T362 1530Q362 1601 389 1628T494 1656Q571 1656 598 1630T625 1534Z"/><glyph unicode="Ϋ" horiz-adv-x="1064" d="M664 491V36Q664 26 658 18T636 5T596 -3T532 -6Q493 -6 468 -3T428 5T406 18T400 36V491L46 1196Q27 1233 22 1253T27 1284T70 1297T156 1300Q202 1300 229 1298T273 1291T296 1276T311 1253L455 935Q476 889 496 838T538 731H540Q559 785 579 836T618 933L760 1249Q765 1265 772 1274T795 1290T836 1298T905 1300Q962 1300 993 1298T1036 1285T1042 1253T1018 1196L664 491ZM446 1534Q446 1464 419 1436T314 1408Q237 1408 210 1435T183 1530Q183 1601 211 1628T315 1656Q393 1656 419 1630T446 1534ZM883 1534Q883 1464 855 1436T750 1408Q673 1408 647 1435T620 1530Q620 1601 647 1628T752 1656Q829 1656 856 1630T883 1534Z"/><glyph unicode="ά" horiz-adv-x="1210" d="M1179 106Q1179 59 1175 38T1163 9T1141 -4T1107 -13T1064 -19T1017 -22Q973 -22 936 -14T870 13T821 63T790 143Q769 106 739 76T669 23T582 -11T482 -23Q378 -23 302 12T176 113T101 269T76 472Q76 588 105 682T189 844T326 947T512 983Q573 983 626 966T722 917T793 837T836 727Q849 782 856 821T866 887T872 928T880 948Q883 952 889 955T908 960T938 964T984 966Q1020 966 1043 964T1080 957T1098 945T1104 928Q1104 908 1099 872T1086 789T1065 689T1038 582T1007 477T973 383Q974 320 981 282T1002 221T1031 192T1063 184Q1081 184 1095 187T1120 193T1139 199T1155 202Q1161 202 1165 198T1173 183T1177 154T1179 106ZM719 483Q719 560 704 617T663 711T602 765T528 783Q476 783 440 759T380 693T345 597T334 484Q334 423 342 368T372 270T429 202T519 177Q567 177 604 200T667 263T705 359T719 480V483ZM691 1117Q686 1106 677 1100T653 1089T618 1084T572 1083Q522 1083 501 1093T488 1129L566 1402Q573 1425 604 1436T702 1448Q741 1448 764 1445T800 1435T814 1419T811 1395L691 1117Z"/><glyph unicode="έ" horiz-adv-x="937" d="M859 147Q859 124 858 109T855 82T848 65T834 50T789 27T708 2T608 -16T498 -23Q388 -23 308 -3T175 53T97 141T71 254Q71 296 83 333T118 402T175 457T254 498Q212 515 183 535T136 581T110 636T101 702Q101 764 128 816T208 905T338 963T518 983Q566 983 615 976T708 958T782 935T823 914T837 898T843 879T847 852T848 810Q848 781 846 763T841 734T832 720T817 716Q804 716 780 728T720 755T635 782T524 794Q477 794 443 786T388 762T358 728T348 686Q348 662 359 643T393 610T448 589T523 581H673Q683 581 690 577T703 563T710 536T713 494Q713 470 711 454T703 428T690 414T669 409H507Q461 409 428 401T373 377T341 340T330 292Q330 266 341 244T378 205T443 180T538 171Q601 171 651 182T738 207T797 232T831 244Q839 244 844 241T853 227T857 197T859 147ZM604 1117Q599 1106 590 1100T566 1089T531 1084T485 1083Q435 1083 414 1093T401 1129L479 1402Q486 1425 517 1436T615 1448Q654 1448 677 1445T713 1435T727 1419T724 1395L604 1117Z"/><glyph unicode="ή" horiz-adv-x="1114" d="M978 -323Q978 -333 972 -340T952 -353T914 -360T852 -363Q816 -363 792 -361T753 -353T733 -341T727 -323V543Q727 608 718 645T690 708T644 749T577 764Q529 764 480 729T378 627V34Q378 24 372 17T352 4T313 -3T252 -6Q215 -6 191 -4T153 4T132 16T126 34V926Q126 936 131 943T149 956T182 963T234 966Q266 966 287 964T319 956T336 944T341 926V823Q415 903 491 943T651 983Q742 983 804 953T905 872T961 751T978 585V-323ZM667 1117Q662 1106 653 1100T629 1089T594 1084T548 1083Q498 1083 477 1093T464 1129L542 1402Q549 1425 580 1436T678 1448Q717 1448 740 1445T776 1435T790 1419T787 1395L667 1117Z"/><glyph unicode="ί" horiz-adv-x="586" d="M586 117Q586 71 580 48T566 16T540 1T501 -11T453 -18T401 -21Q328 -21 275 -2T187 58T137 160T121 309V925Q121 935 126 943T146 956T184 963T244 966Q281 966 305 964T344 956T365 943T372 925V343Q372 305 376 277T392 230T421 202T467 192Q488 192 503 194T528 199T545 205T559 208Q565 208 570 205T578 191T584 163T586 117ZM352 1117Q347 1106 338 1100T314 1089T279 1084T233 1083Q183 1083 162 1093T149 1129L227 1402Q234 1425 265 1436T363 1448Q402 1448 425 1445T461 1435T475 1419T472 1395L352 1117Z"/><glyph unicode="ΰ" horiz-adv-x="1123" d="M997 543Q997 407 966 302T876 125T730 15T531 -23Q417 -23 338 4T210 87T139 224T117 415Q117 459 118 501T122 584T125 667T127 751Q127 766 127 787T124 838T119 891T116 925Q116 936 122 943T142 956T180 964T234 966Q271 966 295 964T335 956T358 943T366 925Q373 880 375 836T378 762Q378 679 373 599T368 438Q368 371 379 323T412 244T466 198T542 183Q590 183 628 201T692 260T732 368T746 533Q746 571 743 617T735 714T722 817T706 919Q704 931 709 940T728 954T767 963T828 966Q865 966 889 964T928 956T949 943T958 925Q966 875 973 823T986 720T994 625T997 543ZM605 1117Q599 1098 578 1091T506 1083Q465 1083 449 1092T435 1129L486 1402Q488 1414 494 1422T514 1436T547 1445T600 1448Q632 1448 651 1445T681 1436T693 1421T691 1399L605 1117ZM362 1214Q362 1151 340 1127T257 1103Q194 1103 173 1126T151 1210Q151 1273 173 1297T257 1322Q319 1322 340 1298T362 1214ZM945 1214Q945 1151 923 1127T839 1103Q777 1103 756 1126T734 1210Q734 1273 756 1297T839 1322Q902 1322 923 1298T945 1214Z"/><glyph unicode="α" horiz-adv-x="1210" d="M1179 106Q1179 59 1175 38T1163 9T1141 -4T1107 -13T1064 -19T1017 -22Q973 -22 936 -14T870 13T821 63T790 143Q769 106 739 76T669 23T582 -11T482 -23Q378 -23 302 12T176 113T101 269T76 472Q76 588 105 682T189 844T326 947T512 983Q573 983 626 966T722 917T793 837T836 727Q849 782 856 821T866 887T872 928T880 948Q883 952 889 955T908 960T938 964T984 966Q1020 966 1043 964T1080 957T1098 945T1104 928Q1104 908 1099 872T1086 789T1065 689T1038 582T1007 477T973 383Q974 320 981 282T1002 221T1031 192T1063 184Q1081 184 1095 187T1120 193T1139 199T1155 202Q1161 202 1165 198T1173 183T1177 154T1179 106ZM719 483Q719 560 704 617T663 711T602 765T528 783Q476 783 440 759T380 693T345 597T334 484Q334 423 342 368T372 270T429 202T519 177Q567 177 604 200T667 263T705 359T719 480V483Z"/><glyph unicode="β" horiz-adv-x="1117" d="M1046 421Q1046 325 1018 245T935 105T798 14T609 -19Q569 -19 534 -14T469 0T414 24T368 56Q373 22 375 -17T378 -94V-320Q378 -330 372 -338T352 -351T313 -360T252 -363Q215 -363 191 -360T153 -352T132 -338T126 -320V949Q126 1061 158 1145T247 1287T385 1373T563 1402Q665 1402 740 1374T865 1299T939 1189T964 1056Q964 952 918 876T777 766Q842 756 892 726T976 651T1028 546T1046 421ZM780 405Q780 454 768 494T731 563T665 607T567 623H509Q488 623 478 646T468 724Q468 752 470 771T477 802T489 819T507 824H520Q570 824 605 839T664 883T697 947T708 1025Q708 1061 700 1092T674 1147T625 1185T553 1199Q509 1199 476 1184T421 1138T389 1062T378 957V271Q422 229 473 209T576 188Q628 188 666 203T730 246T767 314T780 405Z"/><glyph unicode="γ" horiz-adv-x="957" d="M907 926Q907 819 886 705T818 473T699 234T526 -6Q532 -49 535 -89T540 -167T543 -244T544 -320Q544 -330 538 -338T518 -350T480 -357T419 -360Q382 -360 358 -358T320 -351T299 -338T293 -320Q293 -252 291 -191T283 -71T269 48T247 174T215 315T170 479T108 674T29 892Q12 935 33 950T147 966Q186 966 212 964T254 956T279 944T292 926Q334 817 364 719T416 538T448 390T463 283Q512 361 548 442T609 606T644 768T656 926Q656 947 690 956T797 966Q834 966 856 964T889 956T903 944T907 926Z"/><glyph unicode="δ" horiz-adv-x="1091" d="M1014 460Q1014 357 983 269T890 116T740 14T535 -23Q415 -23 328 9T185 101T101 242T74 426Q74 582 151 709T371 912Q335 936 311 962T272 1015T251 1072T244 1134Q244 1193 267 1242T335 1326T447 1380T603 1400Q659 1400 711 1392T806 1373T873 1351T908 1334T921 1320T928 1301T932 1273T933 1231Q933 1207 931 1191T925 1165T916 1152T904 1148Q895 1148 870 1159T807 1183T724 1207T627 1218Q596 1218 573 1212T534 1196T512 1171T504 1139Q504 1124 508 1111T521 1084T545 1055T583 1022T640 981T733 919T845 832T936 727T994 603T1014 460ZM755 428Q755 478 745 520T710 602T642 680T531 763Q491 741 454 710T390 639T348 550T333 440Q333 386 344 338T380 254T446 198T546 177Q592 177 630 194T696 244T739 322T755 428Z"/><glyph unicode="ε" horiz-adv-x="937" d="M859 147Q859 124 858 109T855 82T848 65T834 50T789 27T708 2T608 -16T498 -23Q388 -23 308 -3T175 53T97 141T71 254Q71 296 83 333T118 402T175 457T254 498Q212 515 183 535T136 581T110 636T101 702Q101 764 128 816T208 905T338 963T518 983Q566 983 615 976T708 958T782 935T823 914T837 898T843 879T847 852T848 810Q848 781 846 763T841 734T832 720T817 716Q804 716 780 728T720 755T635 782T524 794Q477 794 443 786T388 762T358 728T348 686Q348 662 359 643T393 610T448 589T523 581H673Q683 581 690 577T703 563T710 536T713 494Q713 470 711 454T703 428T690 414T669 409H507Q461 409 428 401T373 377T341 340T330 292Q330 266 341 244T378 205T443 180T538 171Q601 171 651 182T738 207T797 232T831 244Q839 244 844 241T853 227T857 197T859 147Z"/><glyph unicode="ζ" horiz-adv-x="746" d="M751 -48Q751 -90 741 -134T718 -215T690 -280T668 -315T652 -326T629 -333T594 -338T546 -339Q516 -339 498 -337T468 -330T453 -319T449 -307Q449 -301 461 -281T487 -233T513 -170T525 -98Q525 -64 507 -46T459 -16T390 4T311 24T228 59T149 123T88 231T64 384Q64 472 91 568T167 758T279 939T419 1094H118Q98 1094 88 1117T78 1194Q78 1222 80 1241T86 1272T99 1289T118 1294H682Q693 1294 701 1291T714 1277T721 1248T723 1198Q723 1172 721 1155T715 1127T705 1108T645 1053T522 913T407 729T341 557T320 420Q320 361 332 325T370 263T432 225T511 201T596 175T673 135T729 65T751 -48Z"/><glyph unicode="η" horiz-adv-x="1114" d="M978 -323Q978 -333 972 -340T952 -353T914 -360T852 -363Q816 -363 792 -361T753 -353T733 -341T727 -323V543Q727 608 718 645T690 708T644 749T577 764Q529 764 480 729T378 627V34Q378 24 372 17T352 4T313 -3T252 -6Q215 -6 191 -4T153 4T132 16T126 34V926Q126 936 131 943T149 956T182 963T234 966Q266 966 287 964T319 956T336 944T341 926V823Q415 903 491 943T651 983Q742 983 804 953T905 872T961 751T978 585V-323Z"/><glyph unicode="θ" horiz-adv-x="1116" d="M1036 700Q1036 505 1002 368T905 144T752 17T548 -23Q430 -23 343 13T197 132T109 349T80 680Q80 873 112 1009T207 1233T360 1360T568 1400Q682 1400 769 1363T916 1243T1005 1027T1036 700ZM775 790Q772 892 760 968T722 1096T657 1174T561 1200Q506 1200 467 1176T400 1102T358 974T340 790H775ZM340 611Q342 502 354 421T392 285T458 205T555 178Q612 178 652 204T719 284T759 419T776 611H340Z"/><glyph unicode="ι" horiz-adv-x="586" d="M586 117Q586 71 580 48T566 16T540 1T501 -11T453 -18T401 -21Q328 -21 275 -2T187 58T137 160T121 309V925Q121 935 126 943T146 956T184 963T244 966Q281 966 305 964T344 956T365 943T372 925V343Q372 305 376 277T392 230T421 202T467 192Q488 192 503 194T528 199T545 205T559 208Q565 208 570 205T578 191T584 163T586 117Z"/><glyph unicode="κ" horiz-adv-x="983" d="M951 33Q951 22 945 15T923 3T881 -4T815 -6Q775 -6 750 -4T710 3T686 16T671 37L378 471V34Q378 24 372 17T352 4T313 -3T252 -6Q215 -6 191 -4T153 4T132 16T126 34V926Q126 936 132 943T152 956T191 963T252 966Q289 966 313 964T351 956T372 944T378 926V530L656 923Q663 935 671 943T695 956T733 963T794 966Q832 966 857 964T897 957T919 945T925 928Q925 919 924 910T918 890T905 865T886 835L630 527L919 113Q928 97 934 85T944 63T949 46T951 33Z"/><glyph unicode="λ" horiz-adv-x="996" d="M995 103Q995 81 994 65T990 37T984 19T974 6T956 -5T928 -13T895 -18T862 -20Q807 -20 767 -10T695 29T639 108T594 239L472 666L281 55Q276 33 268 21T244 3T202 -4T132 -6Q85 -6 57 -3T17 12T7 42T21 93L358 984L336 1041Q300 1140 275 1166T202 1192Q175 1192 143 1184T102 1176Q95 1176 91 1179T84 1193T80 1220T78 1264Q78 1308 83 1332T97 1366T125 1381T166 1391T208 1397T250 1399Q320 1399 374 1383T471 1328T547 1224T611 1061L846 287Q855 256 863 238T881 209T901 196T928 192Q940 192 949 193T965 194Q972 194 978 192T987 180T993 152T995 103Z"/><glyph unicode="μ" horiz-adv-x="1154" d="M1140 108Q1140 63 1135 40T1121 9T1098 -5T1065 -14T1025 -20T981 -22Q893 -22 836 12T754 126Q688 50 624 17T497 -16Q451 -16 417 -4T360 35Q363 9 366 -20T372 -79T376 -139T378 -192V-320Q378 -330 372 -338T352 -351T313 -360T252 -363Q215 -363 191 -360T153 -352T132 -338T126 -320V926Q126 936 132 943T152 956T191 963T252 966Q289 966 313 964T351 956T372 944T378 926V385Q378 297 416 247T527 196Q576 196 624 230T727 332V926Q727 936 733 943T753 956T791 963T853 966Q889 966 913 964T952 956T972 944T978 926V310Q978 276 982 253T994 216T1016 196T1050 189Q1063 189 1072 190T1089 193T1102 196T1114 198Q1121 198 1125 195T1133 182T1138 155T1140 108Z"/><glyph unicode="ν" horiz-adv-x="965" d="M926 925Q926 870 917 806T891 670T848 521T790 364T719 206T654 80T616 21T588 3T544 -4T474 -6Q420 -6 388 -4T337 5T310 21T297 48L36 855Q29 880 26 897T22 925Q22 937 28 944T49 957T89 964T151 966Q191 966 216 964T254 957T274 944T283 923L482 262L486 236L495 262Q535 345 567 432T623 606T658 774T671 925Q671 936 676 944T696 956T734 963T796 966Q832 966 857 964T897 957T919 945T926 925Z"/><glyph unicode="ξ" horiz-adv-x="789" d="M772 -56Q772 -96 762 -138T739 -217T711 -281T689 -315T673 -326T650 -333T615 -338T567 -339Q538 -339 519 -337T489 -330T474 -319T470 -307Q470 -301 482 -281T508 -233T534 -169T546 -95Q546 -62 528 -45T480 -16T409 2T325 23T236 59T148 125T84 227T62 366Q62 428 78 483T126 584T202 668T306 732Q265 741 228 763T164 820T120 901T104 1005Q104 1083 129 1154T208 1280T347 1367T552 1400Q577 1400 602 1398T648 1393T685 1384T705 1375T713 1364T718 1346T721 1317T722 1276Q722 1250 720 1233T715 1205T706 1190T691 1185Q681 1185 670 1187T642 1193T603 1198T547 1200Q494 1200 456 1186T394 1147T357 1090T345 1022Q345 980 360 947T410 891T498 855T631 842H647Q667 842 676 818T686 742Q686 694 677 669T642 644H625Q544 644 487 622T392 565T339 485T322 395Q322 351 333 320T370 263T436 225T520 200T610 175T690 134T749 62T772 -56Z"/><glyph unicode="ο" horiz-adv-x="1101" d="M1028 489Q1028 375 998 281T907 119T754 14T539 -23Q420 -23 332 10T186 106T100 261T72 471Q72 585 102 679T194 841T346 946T561 983Q681 983 769 951T914 855T1000 700T1028 489ZM769 479Q769 545 759 600T723 697T657 761T552 784Q496 784 454 764T385 704T345 609T331 482Q331 416 342 361T377 264T444 201T548 178Q605 178 647 198T716 258T756 352T769 479Z"/><glyph unicode="π" horiz-adv-x="1186" d="M1141 118Q1141 74 1136 51T1123 20T1100 6T1066 -6T1021 -15T967 -19Q911 -19 865 -9T784 32T725 116T689 256T677 464T692 755H441Q443 602 435 486T414 285T383 140T358 61T344 31T333 15T319 5T297 -1T263 -5T214 -6Q172 -6 147 -4T108 2T89 12T84 26Q84 36 90 52T106 96T135 184T167 327T189 514T197 755H73Q54 755 43 780T32 857Q32 885 34 905T41 937T54 954T73 960H1065Q1077 960 1085 955T1098 937T1105 905T1107 857Q1107 805 1096 780T1063 755H934Q927 624 927 532T931 377T945 278T966 222T994 198T1026 192Q1050 192 1078 200T1115 208Q1121 208 1125 205T1133 192T1139 165T1141 118Z"/><glyph unicode="ρ" horiz-adv-x="1086" d="M1009 487Q1009 360 981 264T900 104T769 9T593 -23Q559 -23 525 -19T459 -4T398 23T344 62Q347 35 349 4T351 -64V-320Q351 -330 346 -338T326 -351T287 -360T226 -363Q189 -363 165 -360T127 -352T106 -338T100 -320V482Q100 596 128 689T213 847T357 947T563 983Q673 983 756 952T895 859T980 703T1009 487ZM745 477Q745 543 735 598T703 693T643 755T552 777Q497 777 459 755T397 692T362 599T351 485V274Q395 229 445 208T548 186Q602 186 640 206T701 265T735 357T745 477Z"/><glyph unicode="ς" horiz-adv-x="833" d="M794 -56Q794 -96 785 -138T761 -217T733 -281T712 -315T696 -326T676 -333T645 -338T599 -339Q566 -339 545 -337T513 -330T497 -319T492 -307Q492 -301 504 -281T530 -233T556 -169T568 -95Q568 -64 550 -46T503 -16T434 5T353 30T267 67T194 119T143 184T107 261T82 358T73 475Q73 604 106 699T200 858T342 952T521 983Q564 983 602 976T671 958T725 934T757 912T770 896T776 878T780 850T781 808Q781 778 779 758T771 725T758 706T741 700Q726 700 710 712T671 740T616 767T535 779Q486 779 449 760T385 705T345 618T331 500Q331 425 350 369T400 282T472 234T557 203T643 174T719 131T773 59T794 -56Z"/></font>
</defs>
</svg>
