<?xml version="1.0" encoding="UTF-8"?><svg xmlns="http://www.w3.org/2000/svg" width="100%" height="100%"><defs><font id="web" horiz-adv-x="1029"><!--



NOTICE: This font software is the valuable property 
of Monotype Imaging and/or its suppliers and its use 
by you is covered under the terms of the Web Font license 
agreement between you and Monotype Imaging. You may 
ONLY use this font software with the licensed web site. 
Except as specifically permitted by the license, you 
may not copy this font software. If you have any questions, 
please contact Monotype Imaging. 

For more information, please visit http://www.ascenderfonts.com/info/webfont-eula.aspx

Licensed to: isobar.com

Serial number: SH-140
--><font-face font-family="" units-per-em="2048" panose-1="2 15 5 2 2 2 4 10 2 4" ascent="1950" descent="-550" alphabetic="0"/><missing-glyph horiz-adv-x="1038" d="M986 1294V0H53V1294H986ZM900 81V1213H138V81H900ZM773 898Q773 846 758 795T708 702T618 634T485 602L449 450Q447 440 432 436T389 432Q375 432 365 433T349 436T341 441T339 450L371 638Q376 665 391 676T430 688H438Q499 688 538 706T601 754T633 819T643 887Q643 912 636 933T612 971T569 996T502 1006Q462 1006 430 999T375 982T336 964T313 956Q303 956 300 962T297 982Q297 987 298 996T301 1017T308 1037T318 1052Q326 1059 346 1068T396 1087T459 1101T527 1107Q595 1107 642 1088T718 1039T760 971T773 898ZM442 305Q442 297 441 286T436 261T427 237T414 218Q404 208 388 203T350 198Q328 198 315 201T295 211T286 225T283 243Q283 252 285 264T290 288T300 311T314 330Q323 339 339 344T380 349Q399 349 411 346T431 337T440 323T442 305Z"/><glyph unicode="&#9;" horiz-adv-x="463"/><glyph unicode="&#13;" horiz-adv-x="463"/><glyph unicode=" " horiz-adv-x="463"/><glyph unicode="!" horiz-adv-x="667" d="M425 373Q424 365 419 359T404 349T380 343T344 341Q322 341 309 343T289 349T279 359T279 373L451 1327Q454 1340 460 1349T478 1363T508 1371T552 1374Q579 1374 596 1372T622 1363T634 1348T633 1327L425 373ZM410 156Q410 142 407 123T399 84T386 47T367 19Q353 4 331 -3T274 -10Q248 -10 231 -6T204 5T191 25T187 52Q187 65 189 84T197 123T210 161T228 191Q244 207 265 212T319 218Q348 218 366 214T393 201T406 181T410 156Z"/><glyph unicode="&quot;" horiz-adv-x="821" d="M729 902Q728 894 724 888T711 878T690 872T660 870Q642 870 631 872T613 878T604 888T603 902L675 1365Q676 1373 681 1379T698 1389T727 1395T767 1397Q815 1397 832 1389T846 1365L729 902ZM374 902Q373 894 369 888T356 878T335 872T304 870Q286 870 275 872T257 878T249 888T248 902L320 1365Q321 1373 326 1379T343 1389T372 1395T412 1397Q460 1397 477 1389T491 1365L374 902Z"/><glyph unicode="#" horiz-adv-x="1020" d="M1071 917Q1071 908 1068 892T1059 861T1044 834T1020 822H891L782 491H899Q911 491 917 482T924 457Q924 446 921 430T912 399T896 374T872 364H739L630 22Q624 6 606 0T543 -6Q520 -6 507 -5T487 0T479 9T481 22L592 364H314L203 22Q200 14 196 9T183 1T160 -4T123 -6Q100 -6 86 -5T64 0T55 9T55 22L166 364H50Q26 364 26 398Q26 408 28 423T36 454T51 480T76 491H208L316 822H196Q182 822 176 831T170 859Q170 873 174 889T184 918T200 941T220 950H357L462 1271Q463 1279 468 1284T484 1293T510 1298T548 1300Q571 1300 584 1298T604 1293T611 1284T610 1272L505 950H782L886 1271Q889 1286 906 1293T969 1300Q992 1300 1006 1298T1026 1293T1034 1284T1034 1272L931 950H1046Q1059 950 1065 941T1071 917ZM464 822L356 491H634L742 822H464Z"/><glyph unicode="$" horiz-adv-x="1038" d="M916 416Q916 336 887 263T794 134T634 42T404 0L338 -217Q333 -230 320 -237T267 -245Q245 -245 232 -243T211 -237T203 -227T205 -212L271 5Q208 13 155 29T69 66Q46 81 39 93T31 127Q31 132 32 143T36 165T41 189T50 212T61 228T76 235Q88 235 109 221T166 190T254 158T382 144Q483 144 551 167T659 226T717 307T735 396Q735 443 713 474T654 530T571 572T475 610T379 653T296 709T238 789T215 902Q215 972 240 1040T319 1162T458 1251T661 1294L722 1495Q724 1501 727 1506T738 1516T759 1521T792 1523Q814 1523 828 1521T849 1515T857 1504T855 1490L794 1288Q846 1279 894 1262T969 1224Q988 1211 993 1202T998 1181Q998 1174 997 1163T993 1140T988 1115T980 1092T969 1076T954 1069Q942 1069 923 1082T871 1111T791 1140T674 1154Q595 1154 542 1133T455 1078T408 1003T394 922Q394 879 416 849T475 796T559 755T655 717T751 673T835 614T894 531T916 416Z"/><glyph unicode="%" horiz-adv-x="1464" d="M740 1086Q740 1051 735 1004T715 906T676 806T612 718T518 656T389 632Q332 632 289 647T218 690T176 759T162 855Q162 893 167 942T188 1041T228 1140T291 1225T384 1285T510 1309Q574 1309 618 1292T690 1246T728 1175T740 1086ZM600 1079Q600 1137 578 1167T495 1198Q455 1198 425 1179T374 1128T338 1059T316 984T305 915T302 862Q302 798 327 771T406 743Q446 743 476 762T528 811T563 878T585 954T596 1024T600 1079ZM1374 439Q1374 404 1369 357T1349 259T1310 159T1246 71T1152 9T1023 -15Q966 -15 923 0T852 43T810 112T796 208Q796 246 801 295T822 394T862 493T925 578T1018 638T1144 662Q1208 662 1252 645T1324 599T1362 528T1374 439ZM1234 432Q1234 490 1212 520T1129 551Q1089 551 1059 532T1008 481T972 412T950 337T939 268T936 215Q936 151 961 124T1040 96Q1080 96 1110 115T1162 164T1197 231T1219 307T1230 377T1234 432ZM254 -8Q247 -17 239 -21T220 -29T194 -34T159 -36Q115 -36 106 -22T118 16L1276 1305Q1284 1313 1292 1318T1311 1327T1336 1331T1371 1333Q1393 1333 1406 1330T1424 1319T1426 1302T1412 1281L254 -8Z"/><glyph unicode="&amp;" horiz-adv-x="1397" d="M904 134Q807 64 695 23T460 -18Q371 -18 300 2T180 62T104 156T77 278Q77 340 97 400T160 518T270 628T433 730Q405 781 387 824T360 904T346 968T342 1018Q342 1051 350 1089T378 1164T428 1236T505 1296T613 1338T757 1354Q851 1354 914 1335T1015 1283T1070 1211T1087 1131Q1087 1072 1067 1018T998 911T866 803T657 689Q689 636 719 592T782 506T847 425T919 343Q974 406 1010 474T1061 597T1077 669T1084 694T1099 706T1124 713T1165 715Q1209 715 1225 710T1241 691T1232 636T1207 544T1165 442T1104 338T1026 242Q1090 181 1131 154T1204 126Q1225 126 1232 120T1238 99Q1238 92 1236 78T1230 49T1221 20T1209 -1T1185 -12T1149 -17Q1130 -17 1107 -9T1054 16T987 63T904 134ZM585 801Q687 849 750 890T848 968T895 1039T908 1107Q908 1123 901 1142T876 1179T828 1207T748 1218Q679 1218 635 1199T565 1150T527 1087T516 1025Q516 1006 519 984T529 935T550 875T585 801ZM504 612Q445 581 399 547T322 475T275 393T258 299Q258 266 269 234T307 177T378 137T488 122Q528 122 569 130T651 153T727 188T794 233Q752 279 715 323T642 414T572 509T504 612Z"/><glyph unicode="'" horiz-adv-x="452" d="M376 902Q373 887 357 879T305 870Q287 870 276 872T258 878T249 888T248 902L320 1365Q321 1381 344 1389T413 1397Q461 1397 479 1389T493 1365L376 902Z"/><glyph unicode="(" horiz-adv-x="621" d="M681 1378Q572 1213 496 1051T373 733T303 433T281 157Q281 104 284 46T294 -72T311 -190T336 -300Q339 -312 339 -320T331 -334T309 -342T269 -345Q252 -345 240 -344T219 -340T206 -333T199 -324Q162 -209 140 -80T117 200Q117 329 137 468T206 756T333 1064T529 1392Q533 1399 539 1404T556 1412T583 1417T622 1419Q645 1419 659 1416T680 1408T688 1395T681 1378Z"/><glyph unicode=")" horiz-adv-x="621" d="M-31 -304Q78 -140 154 22T277 341T347 642T369 917Q369 970 366 1028T356 1146T339 1264T314 1374Q311 1385 312 1393T319 1408T341 1416T381 1419Q399 1419 411 1418T432 1414T445 1407T451 1397Q488 1283 511 1154T534 873Q534 744 514 606T445 318T318 10T122 -319Q117 -325 111 -330T94 -338T67 -343T28 -345Q5 -345 -9 -342T-30 -334T-37 -322T-31 -304Z"/><glyph unicode="*" horiz-adv-x="1020" d="M982 1229Q998 1189 995 1169T977 1143L716 1038L931 929Q944 924 941 908T910 854Q879 813 864 806T837 808L652 961L628 699Q628 684 611 676T550 668Q503 668 488 676T478 699L559 961L324 808Q306 795 292 805T262 854Q246 895 249 915T267 940L530 1047L319 1148Q310 1152 306 1158T303 1173T311 1196T334 1229Q349 1249 360 1261T381 1277T398 1281T413 1272L589 1123L614 1384Q615 1400 632 1408T693 1416Q741 1416 756 1408T766 1384L683 1123L926 1279Q940 1288 954 1278T982 1229Z"/><glyph unicode="+" horiz-adv-x="1020" d="M976 609Q976 603 975 593T971 571T964 547T953 526T939 510T920 504H592L518 140Q517 132 512 127T498 117T474 111T438 108Q418 108 404 110T383 117T372 126T370 140L444 504H116Q104 504 97 512T89 542Q89 548 90 558T93 581T100 604T110 625T124 641T143 647H472L545 1011Q547 1019 552 1025T566 1036T591 1043T626 1046Q647 1046 660 1044T682 1037T692 1026T693 1011L620 647H949Q962 647 969 638T976 609Z"/><glyph unicode="," horiz-adv-x="511" d="M310 172Q310 115 285 58T212 -56L33 -262Q20 -277 -1 -283T-59 -290Q-77 -290 -88 -288T-103 -281T-106 -269T-97 -250L91 25L114 143Q119 170 127 186T147 210T178 221T225 224Q250 224 266 222T292 213T306 197T310 172Z"/><glyph unicode="-" horiz-adv-x="627" d="M569 540Q569 534 569 524T565 503T558 480T549 458T535 442T516 436H97Q84 436 78 445T72 472Q72 477 73 486T76 507T83 531T93 552T106 567T125 573H544Q558 573 563 564T569 540Z"/><glyph unicode="." horiz-adv-x="517" d="M298 153Q298 139 296 120T288 81T276 44T256 15T222 -3T166 -9Q138 -9 120 -5T92 8T78 31T74 62Q74 78 76 97T84 136T97 171T116 199T148 217T207 224Q236 224 253 219T281 205T294 182T298 153Z"/><glyph unicode="/" horiz-adv-x="794" d="M33 -241Q26 -254 18 -261T-3 -273T-30 -279T-67 -281Q-94 -281 -111 -278T-135 -268T-143 -252T-134 -229L803 1430Q810 1443 818 1450T838 1462T866 1468T903 1470Q929 1470 946 1467T970 1457T978 1441T971 1418L33 -241Z"/><glyph unicode="0" horiz-adv-x="1038" d="M1033 925Q1033 881 1028 818T1010 681T977 528T928 374T860 231T769 113Q710 53 627 17T431 -19Q337 -19 270 6T160 81T97 203T77 369Q77 413 82 476T100 613T133 765T182 919T251 1062T341 1181Q372 1212 408 1237T487 1278T578 1304T680 1313Q775 1313 842 1287T951 1212T1013 1090T1033 925ZM858 923Q858 1050 811 1111T659 1172Q600 1172 553 1152T465 1092Q425 1052 394 993T339 866T299 725T273 585T257 462T252 371Q252 244 300 183T451 122Q511 122 558 142T645 202Q684 241 715 300T771 428T811 569T838 709T853 832T858 923Z"/><glyph unicode="1" horiz-adv-x="1038" d="M851 102Q851 96 850 86T846 64T839 41T829 21T816 6T799 0H122Q110 0 103 10T95 37Q95 42 96 51T100 72T107 95T118 116T132 131T150 138H420L615 1112L334 964Q318 956 308 954T292 954T283 965T280 985Q280 996 282 1012T290 1045T305 1077T328 1100L665 1291Q670 1294 676 1296T692 1300T713 1302T743 1303Q768 1303 783 1301T807 1296T817 1287T818 1275L592 138H826Q840 138 845 129T851 102Z"/><glyph unicode="2" horiz-adv-x="1038" d="M850 105Q850 99 849 88T844 66T837 42T826 21T811 6T793 0H78Q65 0 56 3T42 11T35 24T32 42Q32 52 33 68T41 103T59 141T92 179L425 471Q503 539 559 598T654 709T716 804T752 884T769 949T773 1002Q773 1026 766 1053T740 1105T687 1145T601 1161Q544 1161 492 1144T398 1107T328 1069T288 1051Q278 1051 272 1061T266 1090Q266 1098 267 1107T270 1128T275 1150T283 1171T293 1190T306 1207Q317 1218 349 1236T428 1271T530 1300T646 1313Q742 1313 805 1286T904 1218T955 1129T970 1038Q970 997 964 954T941 864T892 763T810 649T688 516T517 360L267 146H819Q836 146 843 134T850 105Z"/><glyph unicode="3" horiz-adv-x="1038" d="M896 413Q896 364 884 313T844 214T776 124T676 50T542 0T372 -19Q322 -19 278 -13T194 3T122 28T63 60Q48 69 42 81T35 110Q35 116 36 126T39 149T44 174T51 198T62 215T77 222Q86 222 109 207T171 173T260 139T379 123Q463 123 524 149T626 215T685 305T705 404Q705 444 691 479T645 539T563 580T441 595H302Q286 595 278 603T269 631Q269 638 270 649T275 670T282 692T293 712T308 726T327 731H440Q514 731 576 753T682 815T752 907T777 1018Q777 1089 737 1130T602 1171Q545 1171 493 1154T399 1116T328 1077T286 1059Q277 1059 272 1067T267 1091Q267 1099 269 1114T275 1146T287 1179T305 1205Q316 1216 348 1234T426 1270T529 1300T648 1313Q727 1313 786 1295T885 1242T943 1158T963 1047Q963 977 941 916T877 806T778 724T653 674V672Q719 665 765 641T841 581T883 502T896 413Z"/><glyph unicode="4" horiz-adv-x="1038" d="M963 401Q963 393 962 383T957 361T950 338T939 317T924 303T907 297H761L707 25Q705 17 700 12T684 2T657 -4T616 -6Q591 -6 576 -4T552 2T540 11T540 25L593 297H59Q39 297 32 306T24 333Q24 340 25 351T28 375T35 402T44 431T55 458T71 482L695 1269Q701 1277 712 1283T740 1293T780 1298T834 1300Q867 1300 890 1298T929 1291T950 1281T956 1265L790 439H936Q951 439 957 429T963 401ZM762 1140H760L205 439H623L762 1140Z"/><glyph unicode="5" horiz-adv-x="1038" d="M913 493Q913 429 898 366T852 246T774 141T664 57T522 1T345 -19Q301 -19 259 -14T180 1T112 22T56 46Q42 53 36 63T29 90Q29 96 30 106T33 129T39 154T48 178T59 196T75 203Q85 203 105 191T158 164T240 136T356 123Q449 123 519 152T636 230T706 342T729 477Q729 512 717 544T673 600T590 637T462 651Q390 651 341 645T252 639Q225 639 216 652T214 702L320 1229Q326 1262 344 1278T392 1294H965Q979 1294 986 1285T993 1257Q993 1250 992 1239T987 1215T980 1190T969 1167T955 1151T935 1144H452L380 781Q415 785 444 787T511 789Q621 789 697 766T822 702T891 608T913 493Z"/><glyph unicode="6" horiz-adv-x="1038" d="M956 514Q956 459 944 398T906 277T840 165T742 70T609 5T437 -19Q346 -19 284 7T181 81T124 193T106 337Q106 376 111 438T128 576T163 736T222 901T310 1057T430 1188T590 1278T794 1312Q859 1312 911 1302T1002 1278Q1026 1268 1034 1258T1043 1229Q1043 1222 1042 1213T1039 1192T1034 1170T1026 1150T1015 1136T999 1130Q988 1130 972 1137T929 1152T867 1168T781 1175Q687 1175 613 1137T484 1036T390 891T330 717Q388 748 463 771T634 794Q721 794 781 772T881 713T938 624T956 514ZM780 492Q780 529 770 560T737 613T677 646T589 658Q552 658 514 652T438 635T367 608T303 574Q289 505 284 449T278 348Q278 225 326 173T467 120Q520 120 564 136T643 181T703 247T746 326T771 410T780 492Z"/><glyph unicode="7" horiz-adv-x="1038" d="M1097 1257Q1097 1245 1095 1228T1088 1190T1074 1149T1052 1107L371 34Q363 21 354 14T331 2T299 -4T254 -6Q220 -6 201 -3T174 7T168 23T178 45L887 1143H271Q257 1143 251 1153T244 1180Q244 1186 245 1197T249 1221T256 1247T267 1270T282 1287T302 1294H1056Q1083 1294 1090 1284T1097 1257Z"/><glyph unicode="8" horiz-adv-x="1038" d="M930 374Q930 329 918 282T881 191T815 109T719 43T589 -2T422 -19Q325 -19 254 1T137 58T69 143T46 248Q46 316 70 375T141 485T257 582T415 667Q317 723 273 789T229 938Q229 983 240 1028T275 1114T335 1192T422 1255T537 1297T683 1313Q784 1313 849 1289T952 1229T1006 1149T1021 1064Q1021 998 998 941T933 836T832 747T699 671Q761 637 805 603T876 533T917 457T930 374ZM849 1043Q849 1068 840 1092T809 1136T752 1167T664 1179Q594 1179 544 1159T462 1107T415 1035T400 956Q400 924 406 898T431 848T482 798T571 742Q637 773 688 805T775 875T830 954T849 1043ZM754 360Q754 392 743 420T707 477T642 533T544 594Q449 552 387 513T288 435T236 356T221 270Q221 240 232 212T269 162T338 128T447 115Q528 115 586 136T681 191T736 270T754 360Z"/><glyph unicode="9" horiz-adv-x="1038" d="M157 780Q157 835 169 896T206 1017T272 1129T370 1224T503 1289T675 1313Q766 1313 828 1287T931 1213T988 1101T1006 958Q1006 919 1002 857T985 718T949 558T889 391T800 235T675 105T509 15T296 -19Q263 -19 233 -16T175 -8T124 5T81 19Q58 29 50 39T41 67Q41 72 42 82T45 104T50 126T58 146T69 160T85 166Q96 166 114 159T161 143T227 127T314 120Q415 120 491 156T623 255T718 401T781 577Q722 546 647 523T477 500Q391 500 330 521T231 581T175 670T157 780ZM332 802Q332 765 342 734T375 681T434 647T523 635Q560 635 598 641T673 659T744 686T808 719Q821 788 827 845T834 946Q834 1069 786 1122T645 1176Q592 1176 548 1160T470 1114T409 1048T366 968T341 884T332 802Z"/><glyph unicode=":" horiz-adv-x="548" d="M464 800Q458 768 449 746T425 711T389 691T336 685Q306 685 287 691T259 710T249 746T255 800Q261 833 270 855T293 891T328 911T381 917Q411 917 430 911T460 892T470 856T464 800ZM325 106Q320 74 311 52T286 17T250 -3T197 -9Q166 -9 147 -4T119 14T109 49T115 106Q121 138 130 160T153 196T189 216T240 222Q272 222 291 216T320 197T330 161T325 106Z"/><glyph unicode=";" horiz-adv-x="548" d="M464 801Q458 768 449 746T426 711T390 692T336 685Q305 685 286 691T258 710T249 745T255 801Q262 837 272 860T296 895T331 912T383 917Q415 917 434 911T462 891T471 855T464 801ZM337 172Q337 115 311 58T238 -56L60 -260Q53 -268 45 -273T26 -281T2 -287T-31 -289Q-50 -289 -60 -287T-75 -280T-77 -268T-68 -249L119 25L143 143Q148 170 155 186T175 210T205 221T252 224Q277 224 293 222T319 213T333 197T337 172Z"/><glyph unicode="&lt;" horiz-adv-x="1020" d="M1030 1026Q1030 1004 1026 981T1013 939T993 904T967 882L262 571L841 260Q867 245 867 220Q867 207 865 192T860 162T853 134T842 111T828 98T811 99L101 497Q94 501 91 510T87 538Q87 550 89 568T97 603T112 635T135 656L993 1049Q1013 1058 1021 1052T1030 1026Z"/><glyph unicode="=" horiz-adv-x="1020" d="M911 416Q911 410 910 400T907 378T900 355T890 334T875 318T856 312H102Q89 312 81 321T73 350Q73 361 76 378T85 412T102 441T129 453H884Q898 453 904 443T911 416ZM989 805Q989 798 988 788T985 767T978 744T968 723T953 707T933 700H179Q167 700 159 709T151 739Q151 750 154 767T163 800T180 829T207 841H962Q976 841 982 832T989 805Z"/><glyph unicode="&gt;" horiz-adv-x="1020" d="M34 124Q34 146 39 169T52 212T72 247T98 268L803 579L223 892Q198 905 198 931Q198 943 199 958T204 989T212 1017T223 1040T237 1053T254 1052L963 653Q970 649 974 640T978 614Q978 602 976 584T967 549T952 516T930 495L72 101Q52 92 43 98T34 124Z"/><glyph unicode="?" horiz-adv-x="949" d="M964 1049Q964 968 940 892T864 756T732 656T541 610L487 371Q483 356 464 349T406 341Q385 341 371 342T348 347T336 357T335 371L383 648Q387 671 394 685T413 709T439 722T472 726H478Q565 726 624 753T720 824T773 921T790 1027Q790 1072 777 1110T739 1176T674 1220T581 1236Q521 1236 474 1223T391 1193T334 1163T299 1150Q289 1150 285 1158T281 1189Q281 1199 282 1213T288 1242T298 1268T312 1289Q325 1302 356 1317T428 1344T517 1365T608 1374Q673 1374 724 1362T815 1329T883 1277T929 1210T956 1133T964 1049ZM472 156Q472 142 469 123T461 84T448 47T431 19Q415 4 394 -3T338 -10Q311 -10 294 -6T268 5T254 25T250 52Q250 65 252 84T260 123T273 161T292 191Q308 207 329 212T383 218Q411 218 428 214T456 201T469 181T472 156Z"/><glyph unicode="@" horiz-adv-x="1831" d="M1701 853Q1701 798 1692 726T1660 577T1601 426T1513 293T1392 200T1234 165Q1188 165 1152 177T1090 212T1054 269T1045 346Q1015 302 976 268T894 211T811 177T732 165Q693 165 663 173T610 196T572 232T547 279T533 335T528 399Q528 450 539 511T573 636T632 758T716 864T827 938T965 966Q998 966 1026 959T1080 935T1128 894T1173 837L1200 926Q1205 940 1219 947T1271 954Q1308 954 1321 947T1329 926L1191 493Q1159 389 1176 342T1261 294Q1308 294 1348 320T1420 391T1476 493T1516 611T1540 732T1548 843Q1548 912 1528 975T1457 1088T1320 1166T1101 1195Q970 1195 866 1163T681 1078T542 956T443 810T377 656T337 508T317 381T312 292Q312 242 319 193T346 99T401 16T490 -50T623 -95T807 -111Q883 -111 943 -102T1048 -83T1119 -65T1154 -56Q1165 -56 1169 -63T1173 -86Q1173 -98 1171 -112T1164 -140T1154 -165T1141 -185Q1134 -192 1104 -202T1026 -221T915 -237T780 -243Q655 -243 561 -223T397 -168T283 -83T210 23T171 144T160 274Q160 319 167 388T193 539T244 712T328 890T451 1056T620 1195T842 1290T1124 1326Q1276 1326 1385 1291T1565 1194T1668 1044T1701 853ZM1110 707Q1080 770 1045 803T959 836Q914 836 876 815T807 759T753 680T714 590T690 500T682 423Q682 358 705 328T779 298Q813 298 857 321T943 385T1020 479T1074 594L1110 707Z"/><glyph unicode="A" horiz-adv-x="1185" d="M1060 61Q1063 39 1062 26T1051 5T1021 -4T967 -6Q945 -6 929 -5T905 0T892 10T887 25L839 340H300L131 28Q126 18 120 12T102 1T72 -4T26 -6Q-4 -6 -22 -4T-47 6T-51 26T-37 62L637 1264Q644 1275 652 1282T673 1293T706 1298T755 1300Q788 1300 808 1299T841 1293T859 1282T866 1263L1060 61ZM723 1122H722L372 477H820L723 1122Z"/><glyph unicode="B" horiz-adv-x="1114" d="M1051 1042Q1051 981 1035 927T988 826T914 745T815 687Q857 679 893 658T956 606T996 531T1011 436Q1011 383 997 330T955 228T884 138T784 65T657 17T493 0H150Q117 0 101 16T93 70L323 1224Q330 1263 355 1278T407 1294H685Q784 1294 851 1278T962 1229T1029 1150T1051 1042ZM868 1011Q868 1044 857 1070T822 1114T760 1143T661 1154H479L396 735H591Q670 735 721 761T804 827T852 917T868 1011ZM829 424Q829 507 770 552T588 598H367L277 142H518Q600 142 656 165T751 227T809 317T829 424Z"/><glyph unicode="C" horiz-adv-x="1070" d="M1145 1162Q1145 1141 1138 1110T1120 1061T1095 1043Q1081 1043 1062 1061T1011 1101T929 1141T802 1160Q718 1160 649 1129T525 1044T427 920T358 774T316 619T302 471Q302 391 322 329T380 223T473 158T598 136Q676 136 732 153T829 192T897 231T941 249Q952 249 957 241T962 217Q962 212 961 203T957 182T953 158T946 134T938 113T923 93T879 64T797 27T688 -3T559 -16Q457 -16 375 14T236 104T147 252T115 456Q115 551 135 651T194 847T291 1026T427 1173T602 1273T815 1310Q888 1310 951 1294T1060 1252T1125 1208T1145 1162Z"/><glyph unicode="D" horiz-adv-x="1260" d="M1221 828Q1221 763 1212 693T1184 552T1133 413T1058 284T955 170T821 80T654 21T433 0H146Q133 0 122 3T102 15T91 36T93 70L323 1224Q330 1263 353 1278T407 1294H680Q829 1294 927 1263T1090 1171T1188 1025T1221 828ZM1039 813Q1039 887 1019 949T954 1055T842 1125T660 1151H480L279 144H457Q579 144 661 173T806 253T913 371T985 512T1026 663T1039 813Z"/><glyph unicode="E" horiz-adv-x="1000" d="M1038 1261Q1038 1256 1038 1246T1035 1223T1029 1198T1019 1175T1005 1158T986 1151H481L399 745H834Q846 745 852 737T858 713Q858 708 857 698T853 675T847 650T838 629T824 613T806 606H372L278 143H793Q803 143 809 135T816 110Q816 104 815 93T812 70T806 46T796 23T782 6T763 0H141Q130 0 120 3T102 15T91 37T93 70L324 1224Q331 1263 355 1278T402 1294H1015Q1038 1294 1038 1261Z"/><glyph unicode="F" horiz-adv-x="941" d="M1006 1260Q1006 1254 1006 1244T1003 1222T996 1196T986 1172T972 1155T954 1148H481L393 708H841Q853 708 858 700T864 676Q864 668 863 658T860 636T853 611T843 588T829 572T811 565H364L256 26Q255 18 250 12T234 3T206 -3T164 -6Q139 -6 123 -4T97 2T85 12T84 26L324 1224Q331 1263 355 1278T402 1294H983Q997 1294 1001 1285T1006 1260Z"/><glyph unicode="G" horiz-adv-x="1292" d="M1279 1153Q1279 1146 1278 1136T1274 1114T1267 1090T1258 1068T1247 1053T1234 1047Q1219 1047 1194 1065T1126 1105T1022 1146T876 1165Q787 1165 710 1139T567 1066T451 956T365 818T311 661T292 495Q292 407 317 340T391 226T507 157T659 133Q721 133 788 147T914 192L989 567H690Q678 567 672 575T665 600Q665 607 666 618T670 642T677 666T688 687T701 702T718 708H1129Q1157 708 1169 689T1175 638L1075 140Q1071 121 1065 110T1050 89Q1041 80 1005 63T913 27T788 -4T642 -18Q512 -18 413 15T247 113T145 268T110 474Q110 581 134 684T205 881T318 1053T473 1189T666 1279T893 1312Q963 1312 1024 1300T1133 1270T1214 1231T1259 1199T1275 1178T1279 1153Z"/><glyph unicode="H" horiz-adv-x="1276" d="M1016 25Q1014 18 1009 12T993 3T966 -3T923 -6Q899 -6 883 -4T858 2T845 12T845 25L959 600H370L256 25Q254 18 249 12T233 3T205 -3T164 -6Q138 -6 122 -4T97 2T85 12T84 25L332 1269Q333 1276 339 1282T356 1291T383 1297T425 1300Q449 1300 465 1298T491 1292T502 1282T504 1269L401 750H989L1093 1269Q1094 1276 1099 1282T1116 1291T1143 1297T1186 1300Q1210 1300 1226 1298T1251 1292T1263 1282T1264 1269L1016 25Z"/><glyph unicode="I" horiz-adv-x="516" d="M256 25Q255 18 250 12T233 3T205 -3T164 -6Q138 -6 122 -4T97 2T85 12T84 25L332 1269Q333 1276 339 1282T357 1291T384 1297T425 1300Q449 1300 465 1298T490 1292T503 1282T504 1269L256 25Z"/><glyph unicode="J" horiz-adv-x="653" d="M454 312Q440 241 415 181T350 76T254 7T119 -18Q72 -18 33 -11T-32 9T-65 32T-72 57Q-72 64 -71 76T-67 101T-60 128T-50 153T-39 171T-26 179Q-15 179 -4 172T22 156T60 140T114 132Q152 132 179 142T225 175T259 236T284 328L472 1269Q473 1276 479 1282T496 1292T523 1298T565 1300Q588 1300 604 1298T629 1293T642 1283T645 1269L454 312Z"/><glyph unicode="K" horiz-adv-x="1064" d="M1151 1267Q1151 1254 1141 1239T1108 1203L571 679L910 76Q919 59 922 49T926 30Q926 21 922 14T909 3T882 -3T837 -6Q809 -6 792 -4T764 1T748 11T738 27L384 673L256 26Q255 18 250 12T233 3T205 -3T164 -6Q139 -6 123 -4T97 2T85 12T84 26L332 1269Q333 1276 339 1282T356 1291T384 1297T425 1300Q449 1300 465 1298T491 1292T503 1282T505 1269L390 693L956 1267Q964 1276 973 1282T995 1292T1026 1298T1068 1300Q1094 1300 1110 1298T1135 1291T1147 1281T1151 1267Z"/><glyph unicode="L" horiz-adv-x="861" d="M769 115Q769 110 768 99T764 75T758 49T748 25T734 7T716 0H143Q131 0 121 3T102 15T91 37T93 70L332 1269Q333 1276 339 1282T356 1291T384 1297T425 1300Q449 1300 465 1298T491 1292T503 1282T504 1269L281 149H745Q758 149 763 140T769 115Z"/><glyph unicode="M" horiz-adv-x="1751" d="M1491 25Q1489 18 1484 12T1469 3T1443 -3T1401 -6Q1377 -6 1361 -4T1336 2T1325 12T1324 25L1549 1152H1547L858 21Q850 7 829 1T768 -6Q727 -6 710 1T692 21L477 1153H475L250 25Q248 18 243 12T228 3T202 -3T160 -6Q136 -6 120 -4T96 2T85 12T84 25L321 1216Q325 1236 334 1251T355 1275T380 1289T408 1294H508Q540 1294 561 1288T597 1268T620 1235T632 1187L819 252H824L1402 1187Q1417 1214 1432 1233T1465 1266T1506 1287T1557 1294H1671Q1686 1294 1698 1290T1718 1276T1729 1252T1728 1216L1491 25Z"/><glyph unicode="N" horiz-adv-x="1320" d="M1068 71Q1065 51 1056 37T1036 14T1011 1T985 -3H920Q894 -3 876 3T845 23T821 61T798 120L555 810Q530 884 506 957T458 1105H456Q443 1023 428 942T397 780L247 26Q245 18 240 12T224 3T197 -3T157 -6Q134 -6 119 -4T95 2T85 12T84 26L322 1220Q330 1260 355 1277T407 1294H486Q510 1294 528 1289T559 1271T582 1238T604 1185L849 486Q872 421 894 356T939 225H941Q955 307 971 395T1004 565L1145 1266Q1147 1274 1152 1279T1167 1289T1192 1295T1232 1297Q1255 1297 1270 1295T1294 1289T1306 1280T1308 1266L1068 71Z"/><glyph unicode="O" horiz-adv-x="1340" d="M1298 860Q1298 783 1284 688T1237 495T1150 305T1015 141T825 25T573 -19Q459 -19 373 9T230 94T143 234T114 426Q114 512 129 611T178 808T268 998T404 1159T593 1271T841 1313Q954 1313 1039 1284T1182 1197T1269 1055T1298 860ZM1114 848Q1114 918 1098 976T1047 1077T954 1142T814 1166Q710 1166 632 1128T496 1027T401 887T341 728T309 573T299 443Q299 372 314 315T366 216T459 153T600 130Q703 130 781 167T916 266T1011 404T1072 561T1104 716T1114 848Z"/><glyph unicode="P" horiz-adv-x="1058" d="M1064 990Q1064 937 1052 879T1012 766T944 661T843 573T708 514T527 492H349L256 25Q254 18 249 12T233 3T205 -3T163 -6Q140 -6 124 -4T99 1T86 11T84 25L322 1220Q330 1260 355 1277T413 1294H668Q718 1294 756 1291T831 1279Q885 1267 928 1242T1002 1181T1048 1096T1064 990ZM882 972Q882 1034 852 1078T757 1141Q733 1148 704 1150T642 1152H480L378 633H541Q612 633 661 649T747 691T809 752T851 824T874 900T882 972Z"/><glyph unicode="Q" horiz-adv-x="1360" d="M1289 -74Q1289 -82 1288 -94T1283 -119T1276 -144T1265 -167T1252 -183T1236 -189Q1228 -189 1208 -183T1161 -165T1099 -134T1027 -87T951 -26T876 50Q814 16 740 -1T572 -19Q458 -19 373 9T230 94T143 234T114 426Q114 512 128 611T177 808T267 998T403 1159T592 1271T840 1313Q953 1313 1038 1284T1181 1197T1268 1055T1297 860Q1297 810 1292 750T1273 627T1237 497T1184 368T1111 246T1012 137Q1068 83 1113 51T1193 1T1249 -26T1277 -41T1286 -53T1289 -74ZM1113 848Q1113 918 1097 976T1046 1077T954 1142T813 1166Q709 1166 631 1128T495 1027T400 887T340 728T308 573T298 443Q298 372 313 315T365 216T459 153T600 130Q702 130 780 167T915 266T1010 404T1071 561T1103 716T1113 848Z"/><glyph unicode="R" horiz-adv-x="1112" d="M1062 1023Q1062 954 1043 892T984 778T885 686T746 620Q799 601 832 540T883 379L936 93Q939 74 941 58T944 28Q944 19 939 13T923 2T893 -4T845 -6Q819 -6 803 -4T779 3T767 15T761 36L710 340Q702 393 688 436T647 510T581 559T482 577H367L256 25Q254 18 249 12T233 3T205 -3T163 -6Q140 -6 124 -4T98 1T86 11T84 25L324 1224Q332 1263 356 1278T409 1294H690Q782 1294 851 1276T968 1224T1038 1139T1062 1023ZM876 996Q876 1030 864 1059T827 1109T760 1141T661 1152H482L394 716H546Q635 716 697 740T799 803T857 893T876 996Z"/><glyph unicode="S" horiz-adv-x="926" d="M921 1196Q921 1188 920 1178T917 1156T911 1132T902 1110T891 1094T876 1088Q865 1088 846 1101T796 1128T723 1156T626 1169Q565 1169 519 1151T442 1101T396 1029T380 946Q380 902 399 869T450 809T522 758T605 709T688 656T760 590T811 504T831 391Q831 306 796 232T697 102T541 14T338 -19Q277 -19 225 -9T130 17T59 49T17 79T4 117Q4 123 5 134T10 158T16 183T25 206T37 223T53 230Q69 230 93 214T152 180T237 145T352 129Q422 129 477 148T569 201T627 280T647 376Q647 421 628 454T578 515T507 565T425 613T343 666T272 732T222 818T202 932Q202 1011 233 1080T321 1201T459 1283T640 1313Q688 1313 731 1305T810 1286T870 1261T904 1238T917 1220T921 1196Z"/><glyph unicode="T" horiz-adv-x="998" d="M1139 1259Q1139 1253 1139 1243T1136 1220T1129 1195T1119 1171T1105 1155T1086 1148H722L497 26Q495 18 490 12T474 3T446 -3T404 -6Q379 -6 363 -4T338 2T326 12T325 26L549 1148H187Q173 1148 168 1157T163 1182Q163 1189 164 1199T168 1223T175 1248T185 1270T198 1287T216 1294H1116Q1129 1294 1134 1285T1139 1259Z"/><glyph unicode="U" horiz-adv-x="1314" d="M1145 471Q1121 349 1069 257T942 104T773 12T569 -19Q453 -19 368 12T231 106T163 262T172 478L330 1268Q331 1276 336 1282T353 1291T380 1297T422 1300Q447 1300 463 1298T488 1292T500 1282T501 1268L344 480Q327 392 334 326T373 216T458 150T589 128Q664 128 727 151T840 218T924 328T976 478L1134 1268Q1135 1276 1140 1282T1156 1291T1183 1297T1225 1300Q1249 1300 1265 1298T1290 1292T1303 1282T1305 1268L1145 471Z"/><glyph unicode="V" horiz-adv-x="1162" d="M608 30Q601 19 593 12T572 1T539 -4T489 -6Q457 -6 436 -5T403 1T386 12T379 31L196 1241Q193 1260 193 1272T202 1290T228 1298T277 1300Q307 1300 324 1299T352 1293T365 1282T371 1265L522 177H523L1100 1266Q1105 1276 1111 1282T1129 1293T1158 1298T1207 1300Q1238 1300 1256 1298T1281 1288T1285 1268T1270 1232L608 30Z"/><glyph unicode="W" horiz-adv-x="1823" d="M1325 37Q1319 23 1310 15T1285 2T1249 -4T1199 -6Q1168 -6 1147 -5T1113 1T1094 14T1087 35L1010 1015H1008L566 37Q561 23 552 15T529 2T495 -4T442 -6Q408 -6 386 -5T351 1T331 15T324 38L221 1237Q219 1257 220 1270T230 1289T256 1298T306 1300Q331 1300 351 1298T381 1291T393 1277T396 1254L468 180H470L964 1262Q969 1273 975 1280T993 1292T1022 1298T1072 1300Q1099 1300 1115 1299T1140 1293T1151 1281T1155 1262L1237 180H1239L1741 1266Q1745 1276 1751 1282T1768 1293T1798 1298T1845 1300Q1874 1300 1891 1298T1915 1288T1919 1268T1907 1232L1325 37Z"/><glyph unicode="X" horiz-adv-x="1063" d="M681 661L923 63Q930 41 930 28T922 7T892 -3T836 -6Q807 -6 790 -5T764 1T750 10T743 25L547 544L155 25Q148 16 141 10T121 1T90 -4T42 -6Q9 -6 -11 -4T-39 6T-42 27T-21 62L458 666L237 1232Q229 1254 229 1267T240 1287T271 1297T326 1300Q353 1300 369 1299T395 1292T410 1280T419 1260L595 787L960 1269Q967 1277 974 1283T993 1293T1023 1298T1070 1300Q1103 1300 1123 1298T1151 1288T1155 1267T1135 1232L681 661Z"/><glyph unicode="Y" horiz-adv-x="998" d="M592 503L497 25Q495 18 490 12T473 3T445 -3T404 -6Q379 -6 363 -4T338 2T326 12T324 25L420 503L200 1233Q194 1255 193 1268T199 1288T225 1297T279 1300Q306 1300 323 1299T350 1292T364 1280T373 1259L476 904Q494 842 508 785T535 665H537Q573 725 610 784T688 903L933 1264Q939 1274 946 1281T966 1292T996 1298T1044 1300Q1080 1300 1099 1297T1123 1285T1123 1264T1104 1233L592 503Z"/><glyph unicode="Z" horiz-adv-x="959" d="M998 1294Q1018 1294 1030 1283T1042 1251Q1042 1239 1038 1213T1028 1169Q1025 1160 1022 1152T1011 1134T994 1110T966 1075L192 145H817Q830 145 835 137T840 112Q840 106 839 96T836 73T831 47T822 24T808 7T789 0H24Q0 0 -12 13T-24 46Q-24 52 -23 63T-19 86T-13 110T-7 129Q-4 136 0 144T11 163T28 187T55 219L829 1150H245Q220 1150 220 1185Q220 1190 221 1200T224 1223T230 1248T240 1271T255 1287T275 1294H998Z"/><glyph unicode="[" horiz-adv-x="628" d="M717 1371Q717 1365 716 1356T712 1337T707 1316T698 1297T687 1283T672 1277H509L214 -199H377Q387 -199 392 -206T397 -227Q397 -234 396 -243T393 -262T387 -283T378 -302T367 -315T352 -320H96Q84 -320 74 -317T57 -305T46 -284T48 -250L363 1329Q371 1368 394 1383T442 1399H697Q717 1399 717 1371Z"/><glyph unicode="\" horiz-adv-x="787" d="M642 -223Q644 -240 643 -250T633 -265T608 -272T565 -274Q539 -274 523 -273T498 -269T486 -260T480 -246L207 1413Q204 1430 205 1440T216 1455T241 1461T285 1463Q311 1463 326 1462T349 1458T361 1449T366 1436L642 -223Z"/><glyph unicode="]" horiz-adv-x="628" d="M294 -250Q287 -290 264 -305T217 -320H-39Q-48 -320 -53 -313T-59 -291Q-59 -285 -58 -276T-55 -257T-49 -237T-40 -218T-29 -204T-14 -199H148L443 1277H281Q270 1277 265 1284T260 1304Q260 1310 261 1319T264 1339T269 1361T278 1380T289 1393T306 1399H561Q573 1399 583 1396T601 1384T611 1362T611 1329L294 -250Z"/><glyph unicode="^" horiz-adv-x="1020" d="M931 624Q937 605 936 594T925 576T898 569T851 567Q824 567 808 568T782 574T769 584T764 598L641 1149L638 1146L310 598Q304 590 297 584T277 574T247 569T203 567Q175 567 159 568T136 576T132 594T147 624L560 1272Q566 1281 575 1287T597 1298T629 1304T672 1306Q697 1306 714 1304T743 1298T761 1288T770 1272L931 624Z"/><glyph unicode="_" horiz-adv-x="1020" d="M875 -267Q875 -273 874 -282T871 -302T864 -324T854 -344T841 -359T824 -365H-139Q-152 -365 -157 -356T-162 -332Q-162 -326 -161 -317T-158 -297T-152 -275T-143 -253T-130 -238T-112 -232H850Q863 -232 869 -241T875 -267Z"/><glyph unicode="`" horiz-adv-x="596" d="M607 1134Q614 1123 615 1115T612 1102T593 1094T557 1091Q537 1091 524 1092T502 1096T486 1106T472 1123L301 1356Q294 1365 294 1373T300 1388T325 1398T372 1402Q396 1402 412 1401T439 1395T457 1384T472 1365L607 1134Z"/><glyph unicode="a" horiz-adv-x="1053" d="M812 25Q808 8 790 1T730 -6Q710 -6 697 -4T676 1T665 10T665 25L698 195Q685 163 651 125T571 55T467 2T351 -19Q271 -19 219 9T135 83T93 187T81 306Q81 362 91 433T125 578T186 722T277 847T400 936T559 970Q648 970 711 934T825 835L844 926Q848 942 867 949T926 956Q946 956 959 955T981 949T991 939T992 926L812 25ZM781 690Q734 759 680 793T557 828Q503 828 460 803T383 735T325 640T285 529T262 417T254 318Q254 283 259 249T280 186T323 140T393 122Q448 122 503 152T607 237T692 364T747 525L781 690Z"/><glyph unicode="b" horiz-adv-x="1053" d="M976 644Q976 584 965 512T930 366T868 223T778 100T655 14T498 -19Q408 -19 344 15T230 113L212 25Q210 8 191 1T131 -6Q89 -6 75 2T65 25L331 1361Q333 1369 337 1375T352 1385T379 1391T421 1393Q445 1393 460 1391T484 1385T495 1375T496 1361L416 959Q411 933 404 905T390 850T375 798T361 755Q377 790 411 827T492 896T594 949T705 970Q765 970 808 954T881 912T929 851T958 781T972 710T976 644ZM803 630Q803 657 798 692T779 757T737 807T663 828Q609 828 553 797T449 712T364 584T309 423L276 257Q323 188 377 155T499 122Q551 122 593 146T669 210T728 301T769 409T794 523T803 630Z"/><glyph unicode="c" horiz-adv-x="852" d="M854 846Q854 828 851 809T840 774T824 746T802 735Q788 735 773 749T734 782T672 815T576 830Q512 830 463 804T377 735T316 638T277 529T256 423T249 333Q249 230 294 177T428 124Q493 124 539 140T618 176T672 213T709 229Q717 229 721 222T726 200Q726 188 724 172T718 138T707 105T688 78T646 47T577 15T491 -9T396 -19Q235 -19 156 63T76 307Q76 368 86 440T122 586T186 729T282 851T414 937T586 969Q626 969 663 963T732 945T791 918T832 888T850 866T854 846Z"/><glyph unicode="d" horiz-adv-x="1053" d="M813 25Q810 8 792 1T732 -6Q711 -6 698 -4T677 1T667 10T666 25L698 193Q685 160 651 123T571 54T467 2T351 -19Q292 -19 249 -4T176 38T128 98T99 169T85 243T81 311Q81 369 92 441T127 585T188 727T279 850T401 937T559 970Q602 970 640 961T709 935T766 895T813 847L915 1357Q916 1364 921 1370T936 1380T962 1386T1003 1389Q1027 1389 1042 1387T1067 1381T1078 1371T1079 1357L813 25ZM781 687Q734 756 680 792T557 828Q504 828 462 804T385 738T327 644T286 535T262 423T254 322Q254 225 287 174T393 122Q448 122 503 152T607 235T692 361T747 521L781 687Z"/><glyph unicode="e" horiz-adv-x="978" d="M925 741Q925 672 893 617T793 523T619 463T365 442H259Q252 409 250 378T247 320Q247 220 296 167T457 114Q521 114 572 123T660 144T722 164T755 174Q764 174 768 168T773 149Q773 139 771 125T765 97T755 69T740 47Q728 35 698 24T625 3T533 -13T433 -19Q344 -19 277 1T166 62T99 166T77 312Q77 377 89 451T129 599T199 739T301 857T439 939T615 970Q699 970 757 949T853 895T908 822T925 741ZM756 726Q756 777 716 808T602 840Q537 840 487 818T399 757T333 669T288 562H390Q495 562 565 575T678 610T738 663T756 726Z"/><glyph unicode="f" horiz-adv-x="625" d="M817 1335Q817 1331 816 1323T814 1304T809 1282T802 1260T793 1244T782 1238Q775 1238 765 1242T740 1250T707 1259T665 1263Q622 1263 592 1250T539 1210T502 1140T476 1041L459 951H660Q671 951 677 944T684 919Q684 908 682 896T677 873T670 851T660 832T647 819T633 814H431L260 -38Q243 -122 214 -183T143 -285T46 -345T-78 -365Q-123 -365 -151 -358T-187 -345Q-191 -340 -193 -334T-195 -318Q-195 -314 -194 -305T-190 -285T-185 -263T-178 -241T-169 -225T-157 -219Q-150 -219 -144 -220T-130 -223T-112 -226T-85 -228Q-43 -228 -13 -215T39 -175T75 -105T102 -4L266 814H138Q128 814 123 820T117 845Q117 853 118 864T121 888T128 911T138 931T150 945T167 951H293L318 1076Q334 1158 364 1219T436 1321T534 1380T657 1400Q679 1400 703 1398T747 1391T783 1380T805 1368Q811 1363 814 1354T817 1335Z"/><glyph unicode="g" horiz-adv-x="1053" d="M797 -46Q781 -126 746 -186T655 -285T525 -345T353 -365Q270 -365 202 -349T92 -309Q77 -299 72 -290T66 -265Q66 -259 66 -248T69 -226T75 -203T84 -182T98 -167T115 -161Q127 -161 145 -171T193 -195T267 -219T377 -230Q431 -230 474 -219T550 -186T603 -130T634 -49Q651 42 668 102T696 195Q680 158 645 121T564 52T463 1T351 -19Q276 -19 224 6T141 74T95 177T81 306Q81 364 92 436T127 582T188 725T279 849T401 937T559 970Q648 970 711 934T825 835L844 926Q848 942 867 949T926 956Q946 956 959 955T981 949T991 939T992 926L797 -46ZM781 690Q734 759 680 793T557 828Q503 828 460 803T384 737T325 641T285 531T262 419T254 318Q254 275 261 239T285 178T328 137T393 122Q448 122 503 152T607 237T692 364T747 525L781 690Z"/><glyph unicode="h" horiz-adv-x="1053" d="M817 25Q815 17 810 12T795 2T768 -4T727 -6Q703 -6 688 -4T664 2T653 11T651 25L762 581Q767 607 770 639T774 696Q774 725 768 749T749 790T714 818T661 828Q608 828 553 797T450 712T365 583T310 424L230 25Q228 17 223 12T208 2T182 -4T141 -6Q116 -6 101 -4T77 2T66 11T65 25L331 1361Q333 1369 337 1375T352 1385T379 1391T421 1393Q445 1393 460 1391T484 1385T495 1375T496 1361L416 954Q411 928 404 901T390 848T375 797T361 755Q377 790 411 827T491 896T592 949T707 970Q771 970 816 952T889 901T931 823T944 726Q944 690 940 656T929 587L817 25Z"/><glyph unicode="i" horiz-adv-x="470" d="M489 1228Q484 1200 476 1181T453 1151T418 1134T367 1129Q338 1129 319 1134T291 1150T281 1181T285 1228Q291 1256 300 1274T322 1305T357 1322T408 1327Q437 1327 455 1323T483 1306T494 1275T489 1228ZM230 25Q228 17 223 12T208 2T182 -4T141 -6Q116 -6 101 -4T77 2T66 11T65 25L244 925Q245 932 250 938T265 948T291 954T333 956Q357 956 372 954T396 948T407 938T409 925L230 25Z"/><glyph unicode="j" horiz-adv-x="490" d="M508 1228Q502 1200 494 1181T472 1151T438 1134T387 1129Q358 1129 340 1134T311 1150T301 1181T305 1228Q311 1256 319 1274T341 1305T376 1322T426 1327Q456 1327 475 1323T503 1306T513 1275T508 1228ZM235 -34Q220 -112 196 -173T134 -277T42 -342T-86 -365Q-127 -365 -154 -359T-189 -347Q-193 -342 -195 -336T-197 -320Q-197 -315 -196 -306T-192 -285T-187 -262T-179 -241T-168 -225T-155 -219Q-148 -219 -143 -220T-132 -221T-117 -223T-92 -224Q-59 -224 -33 -215T12 -182T46 -122T71 -31L262 925Q264 932 269 938T284 948T311 954T352 956Q375 956 391 954T415 948T426 938T428 925L235 -34Z"/><glyph unicode="k" horiz-adv-x="931" d="M947 928Q947 916 939 903T905 867L514 532L783 79Q793 61 797 49T801 29Q801 20 797 14T783 3T755 -3T711 -6Q683 -6 667 -5T641 1T626 11T617 26L329 524L230 25Q228 17 223 12T208 2T181 -4T140 -6Q116 -6 101 -4T77 1T65 11T64 25L331 1361Q333 1369 337 1375T352 1385T379 1391T421 1393Q445 1393 460 1391T484 1385T495 1375T496 1361L333 547L750 924Q758 933 768 939T791 949T821 954T863 956Q887 956 903 955T929 950T943 941T947 928Z"/><glyph unicode="l" horiz-adv-x="470" d="M230 25Q228 17 223 12T208 2T182 -4T141 -6Q116 -6 101 -4T77 2T66 11T65 25L331 1361Q333 1369 337 1375T352 1385T379 1391T421 1393Q445 1393 460 1391T484 1385T495 1375T496 1361L230 25Z"/><glyph unicode="m" horiz-adv-x="1620" d="M1383 25Q1382 17 1377 12T1362 2T1335 -4T1294 -6Q1270 -6 1255 -4T1231 2T1219 11T1218 25L1329 581Q1334 610 1337 636T1341 688Q1341 752 1317 790T1231 828Q1181 828 1128 798T1026 714T941 587T887 427L807 25Q805 17 800 12T785 2T758 -4T717 -6Q693 -6 678 -4T654 2T643 11T641 25L752 581Q759 611 761 640T764 694Q764 755 739 791T654 828Q603 828 550 798T449 714T364 587T310 427L230 25Q228 17 223 12T208 2T182 -4T141 -6Q116 -6 101 -4T77 2T66 11T65 25L246 926Q247 933 251 939T265 949T289 954T324 956Q345 956 358 955T379 949T389 939T390 926L356 754Q371 788 405 826T486 896T586 949T698 970Q758 970 801 954T871 909T912 841T928 754Q948 789 983 827T1064 896T1164 949T1274 970Q1341 970 1386 951T1459 899T1499 822T1511 726Q1511 691 1507 657T1496 587L1383 25Z"/><glyph unicode="n" horiz-adv-x="1053" d="M944 726Q944 691 940 657T929 587L816 25Q814 17 810 12T795 2T768 -4T727 -6Q703 -6 688 -4T664 2T653 11T651 25L762 581Q769 612 771 641T774 692Q774 753 748 790T661 828Q608 828 553 798T450 714T365 587T310 427L230 25Q228 17 223 12T208 2T182 -4T141 -6Q116 -6 101 -4T77 2T66 11T65 25L246 926Q247 933 251 939T265 949T289 954T324 956Q345 956 358 955T379 949T389 939T390 926L356 754Q371 788 405 826T486 896T589 949T707 970Q774 970 819 950T892 896T932 818T944 726Z"/><glyph unicode="o" horiz-adv-x="1051" d="M977 627Q977 553 963 476T921 328T848 193T745 83T610 9T441 -19Q345 -19 277 4T164 71T99 179T78 324Q78 398 91 475T134 623T206 757T309 868T444 942T613 970Q709 970 777 947T890 879T956 771T977 627ZM803 617Q803 667 793 707T758 774T694 817T598 832Q538 832 489 811T402 753T335 667T288 563T260 449T251 334Q251 284 262 244T297 176T361 133T456 118Q517 118 565 139T652 198T719 284T766 389T794 503T803 617Z"/><glyph unicode="p" horiz-adv-x="1053" d="M976 644Q976 586 965 514T930 367T869 224T778 100T656 14T498 -19Q453 -19 416 -10T348 15T291 52T243 100L158 -332Q156 -340 152 -346T137 -356T111 -362T69 -364Q46 -364 31 -362T6 -356T-5 -346T-7 -332L246 926Q248 942 266 949T326 956Q347 956 360 955T381 950T391 940T392 926L358 755Q372 788 405 825T485 895T589 949T705 970Q781 970 832 944T916 875T962 772T976 644ZM803 633Q803 676 796 712T772 774T729 814T663 828Q609 828 553 798T449 714T364 587T309 426L276 261Q323 191 377 157T499 122Q552 122 595 147T672 214T730 309T771 419T795 532T803 633Z"/><glyph unicode="q" horiz-adv-x="1053" d="M741 -332Q739 -340 734 -346T719 -356T693 -362T651 -364Q628 -364 613 -362T589 -356T577 -346T575 -332L641 -7Q646 19 653 46T667 99T682 150T696 192Q680 158 645 121T564 52T463 1T351 -19Q280 -19 229 4T145 70T97 172T81 305Q81 360 91 431T125 576T186 721T276 847T399 936T559 970Q648 970 711 934T825 835L844 926Q848 942 867 949T926 957Q946 957 959 955T981 949T991 939T992 926L741 -332ZM781 690Q734 759 680 793T557 828Q501 828 457 802T379 731T321 632T282 520T261 410T254 318Q254 219 289 171T393 122Q448 122 503 152T607 237T692 364T747 525L781 690Z"/><glyph unicode="r" horiz-adv-x="702" d="M754 924Q754 920 753 909T749 882T743 851T733 822T721 799T706 790Q698 790 689 793T668 802T641 810T606 814Q572 814 528 785T440 703T362 580T309 426L230 25Q228 17 223 12T208 2T182 -4T141 -6Q116 -6 101 -4T77 2T66 11T65 25L244 926Q245 933 250 939T265 949T289 954T324 956Q345 956 358 955T379 949T389 939T390 926L357 762Q380 803 411 841T480 907T557 953T637 970Q654 970 671 968T704 962T730 954T748 943Q754 937 754 924Z"/><glyph unicode="s" horiz-adv-x="797" d="M747 876Q747 866 744 850T736 817T723 790T706 779Q694 779 678 788T637 810T580 832T500 842Q456 842 422 830T365 796T330 747T318 689Q318 649 344 623T411 575T497 534T583 484T649 413T676 308Q676 238 649 178T570 74T445 6T282 -19Q235 -19 194 -12T119 6T61 30T24 56Q16 64 13 72T9 93Q9 101 10 112T14 135T20 158T29 178T39 192T51 198Q63 198 80 185T124 156T193 127T295 113Q350 113 389 126T455 162T493 215T506 278Q506 320 480 346T415 394T329 437T244 486T178 556T151 662Q151 728 177 784T250 882T364 947T512 970Q550 970 585 964T651 949T703 929T736 907Q747 897 747 876Z"/><glyph unicode="t" horiz-adv-x="686" d="M709 915Q709 906 708 896T704 874T696 852T686 833T673 819T657 814H427L326 312Q322 291 319 265T316 222Q316 171 337 148T407 124Q434 124 454 128T488 138T514 147T533 152Q541 152 545 147T550 126Q550 113 548 98T541 67T531 40T518 21Q510 14 494 7T457 -5T413 -14T366 -17Q310 -17 269 -5T200 32T159 96T145 189Q145 201 146 215T149 246T154 278T160 308L261 814H136Q125 814 119 820T113 846Q113 860 116 878T125 913T140 940T163 951H289L332 1165Q333 1172 338 1178T354 1188T380 1195T421 1197Q445 1197 460 1195T484 1189T495 1178T497 1165L454 951H684Q699 951 704 940T709 915Z"/><glyph unicode="u" horiz-adv-x="1053" d="M812 25Q811 17 806 11T792 2T769 -4T733 -6Q713 -6 700 -4T679 1T669 11T668 25L701 194Q685 160 651 123T570 53T468 1T355 -19Q287 -19 241 -1T166 50T125 127T112 225Q112 258 116 292T128 362L239 926Q241 933 246 939T261 949T288 954T329 956Q353 956 368 955T392 949T403 939T405 926L295 368Q289 342 286 314T283 257Q283 227 288 203T307 160T342 132T395 122Q448 122 503 152T607 237T692 365T748 528L827 926Q828 933 833 939T849 949T876 954T917 956Q941 956 956 955T980 949T991 939T993 926L812 25Z"/><glyph unicode="v" horiz-adv-x="913" d="M931 933Q931 923 928 913T921 891Q884 782 838 671T735 449T611 232T463 26Q456 15 447 9T426 0T397 -5T359 -6Q328 -6 309 -4T280 2T265 13T259 30L126 883Q125 894 125 902T124 918Q124 931 128 938T141 949T165 954T207 956Q233 956 249 955T273 950T285 940T289 924L397 182V170L402 176Q461 265 510 348T601 521T680 708T757 924Q760 933 765 939T781 949T809 954T853 956Q877 956 892 955T915 951T927 944T931 933Z"/><glyph unicode="w" horiz-adv-x="1464" d="M1474 933Q1474 922 1472 911T1466 891Q1428 782 1383 671T1283 449T1165 232T1030 26Q1023 15 1013 9T989 0T958 -5T920 -6Q894 -6 877 -4T849 2T834 13T829 30L762 690L459 33Q454 22 446 15T425 3T393 -4T345 -6Q317 -6 297 -4T265 2T246 13T240 30L145 885Q144 894 144 902T143 917Q143 929 147 936T160 948T186 954T229 956Q255 956 270 955T294 950T306 940T310 924L380 180V171L384 180L725 924Q729 932 734 938T748 949T772 954T810 956Q833 956 848 955T873 950T886 940T891 926L965 185V177L970 185Q1016 257 1062 344T1151 528T1232 726T1303 924Q1305 933 1311 939T1327 949T1355 954T1398 956Q1422 956 1437 955T1461 951T1471 944T1474 933Z"/><glyph unicode="x" horiz-adv-x="887" d="M557 484L753 44Q759 30 758 21T745 5T715 -3T664 -6Q636 -6 620 -5T595 0T583 9T577 22L427 377L144 22Q138 15 132 10T113 1T83 -4T34 -6Q5 -6 -13 -4T-39 5T-47 20T-35 43L339 487L154 907Q148 921 149 930T159 946T188 954T238 956Q266 956 282 955T306 950T318 942T325 930L468 594L738 930Q744 936 750 941T767 949T794 954T838 956Q868 956 887 954T915 947T923 933T908 909L557 484Z"/><glyph unicode="y" horiz-adv-x="916" d="M931 932Q931 921 929 910T922 888Q889 797 850 699T759 493T638 268T472 22L213 -331Q207 -339 198 -345T176 -355T145 -362T101 -364Q74 -364 57 -362T30 -353T22 -337T34 -313L278 0L129 879Q127 891 126 901T125 918Q125 929 128 936T142 948T168 954T209 956Q236 956 251 955T275 950T287 939T292 922L409 188H411Q473 275 523 365T615 547T692 734T759 926Q761 934 766 939T782 949T811 954T856 956Q901 956 916 950T931 932Z"/><glyph unicode="z" horiz-adv-x="809" d="M787 917Q787 912 786 903T783 883T779 862T775 844Q769 822 757 803T722 757L213 139H626Q638 139 644 130T650 104Q650 96 649 85T645 63T638 41T628 20T615 6T599 0H42Q23 0 14 10T5 39Q5 46 7 57T11 79T15 101T20 116Q22 124 25 130T34 145T49 166T71 194L583 812H207Q194 812 188 820T181 847Q181 856 182 867T186 889T193 912T204 932T217 946T234 951H753Q772 951 779 942T787 917Z"/><glyph unicode="{" horiz-adv-x="644" d="M759 1371Q759 1358 756 1343T747 1313T732 1290T709 1280H678Q650 1280 629 1272T592 1239T562 1171T534 1059L497 872Q486 814 467 763T420 670T353 600T259 560Q296 552 320 531T359 481T379 421T385 361Q385 335 382 308T374 256L324 10Q317 -31 313 -62T309 -117Q309 -161 324 -177T367 -194H413Q428 -194 434 -203T440 -226Q440 -233 438 -244T433 -267T424 -290T413 -307Q409 -311 403 -313T387 -318T364 -321T332 -322Q280 -322 246 -309T193 -273T165 -217T156 -141Q156 -115 160 -73T174 23L224 266Q228 285 231 310T234 354Q234 384 228 410T209 455T176 487T126 504Q112 507 107 514T102 536Q102 544 104 556T108 579T115 599T125 613Q133 622 147 624T178 631T217 645T261 678Q291 708 311 757T344 865L388 1091Q405 1170 426 1229T481 1329T560 1388T673 1408Q689 1408 701 1408T724 1406T742 1402T753 1396Q757 1392 758 1386T759 1371Z"/><glyph unicode="|" horiz-adv-x="943" d="M389 -333Q387 -341 382 -347T368 -357T343 -363T305 -365Q282 -365 268 -363T245 -357T235 -347T234 -333L581 1403Q582 1410 587 1416T602 1426T627 1432T665 1434Q688 1434 702 1432T725 1426T735 1416T736 1403L389 -333Z"/><glyph unicode="}" horiz-adv-x="644" d="M-28 -285Q-28 -273 -25 -257T-16 -227T-1 -204T22 -194H53Q81 -194 102 -186T139 -153T169 -85T197 27L243 260Q254 317 272 369T320 462T388 532T481 571Q443 579 419 600T381 650T361 710T355 770Q355 798 357 824T366 876L407 1077Q414 1117 418 1148T422 1203Q422 1247 407 1263T364 1280H319Q303 1280 297 1289T291 1313Q291 1319 293 1330T298 1353T306 1376T318 1393Q322 1397 328 1400T344 1405T367 1407T399 1408Q450 1408 484 1395T538 1359T567 1303T576 1227Q576 1201 572 1159T556 1063L516 866Q512 847 509 822T506 777Q506 748 512 722T530 676T564 644T614 627Q628 625 633 618T638 596Q638 587 637 576T632 553T624 532T615 518Q607 510 594 507T562 500T523 486T479 453Q449 423 429 375T396 267L342 -5Q326 -84 305 -143T250 -242T170 -302T58 -322Q42 -322 30 -322T7 -320T-11 -316T-22 -310Q-25 -306 -26 -300T-28 -285Z"/><glyph unicode="~" horiz-adv-x="1020" d="M1066 1072Q1066 1009 1047 953T991 855T904 788T790 763Q729 763 688 780T619 824T569 880T527 937T479 980T414 998Q380 998 355 984T314 945T289 890T277 824Q276 806 259 801T209 795Q170 795 159 802T147 824Q147 886 164 942T216 1040T303 1107T427 1133Q486 1133 526 1116T596 1072T648 1016T691 960T738 917T799 900Q833 900 857 913T898 949T925 1005T936 1075Q937 1091 954 1096T1003 1102Q1023 1102 1034 1101T1053 1095T1063 1086T1066 1072Z"/><glyph unicode=" " horiz-adv-x="463"/><glyph unicode="¡" horiz-adv-x="667" d="M292 809Q293 817 298 823T313 833T337 839T373 841Q395 841 408 839T428 833T438 823T438 809L266 -145Q263 -158 257 -167T239 -181T209 -189T165 -192Q138 -192 121 -190T95 -181T83 -166T84 -145L292 809ZM307 1026Q307 1040 310 1059T318 1098T331 1135T350 1163Q364 1178 386 1185T443 1192Q469 1192 486 1188T513 1177T526 1157T530 1130Q530 1117 528 1098T520 1059T507 1021T489 991Q473 975 452 970T398 964Q369 964 351 968T324 981T311 1001T307 1026Z"/><glyph unicode="¢" horiz-adv-x="1020" d="M999 1002Q999 995 998 985T994 963T988 939T979 917T966 901T949 894Q936 894 920 910T879 945T816 981T718 997Q654 997 604 973T515 908T451 817T408 711T385 603T377 509Q377 460 387 420T419 352T479 308T572 292Q631 292 675 309T753 348T811 386T854 404Q862 404 866 397T871 374Q871 363 869 346T862 311T850 276T833 250Q818 235 793 220T738 191T674 169T607 154L578 9Q575 -6 558 -14T499 -22Q478 -22 464 -20T442 -14T432 -4T431 9L462 156Q392 167 343 196T262 268T217 367T203 489Q203 541 212 606T242 738T298 871T382 991T500 1082T656 1131L685 1276Q686 1283 691 1289T705 1299T728 1305T764 1307Q785 1307 798 1305T819 1299T829 1289T830 1276L802 1131Q851 1124 891 1106T970 1056Q986 1041 992 1030T999 1002Z"/><glyph unicode="£" horiz-adv-x="1038" d="M874 105Q874 99 873 89T869 67T862 44T852 23T839 7T822 0H27Q15 0 8 10T0 37Q0 44 1 54T6 75T14 98T25 118T38 133T53 139H176L268 593H145Q133 593 126 603T118 629Q118 634 119 644T123 665T130 687T140 707T153 722T170 728H293L322 868Q346 990 390 1074T493 1211T628 1287T789 1310Q825 1310 860 1305T930 1288T993 1260T1045 1220Q1056 1210 1061 1199T1066 1174Q1066 1167 1065 1157T1062 1134T1057 1110T1048 1089T1036 1074T1020 1067Q1006 1067 991 1083T949 1118T885 1154T786 1170Q668 1170 594 1089T487 850L463 728H790Q805 728 811 717T817 692Q817 686 816 676T812 655T805 633T795 613T782 599T765 593H437L346 139H849Q861 139 867 130T874 105Z"/><glyph unicode="¤" horiz-adv-x="1020" d="M875 856Q889 833 897 809T910 763T915 723T916 693Q916 639 906 587T876 484T825 388T753 303L856 99Q864 82 864 70T857 51T832 40T786 36Q762 36 747 37T722 41T708 48T701 61L625 231Q585 212 542 202T450 191Q405 191 367 198T301 221L159 50Q152 43 144 38T124 30T95 26T54 25Q26 25 10 29T-12 40T-13 60T7 89L193 296Q171 325 158 371T144 472Q144 524 153 577T182 679T231 774T300 859L197 1066Q190 1083 190 1095T197 1115T222 1126T268 1130Q292 1130 307 1129T331 1125T345 1117T353 1104L429 935Q467 953 513 963T611 974Q660 974 700 965T772 935L914 1107Q921 1115 929 1120T949 1127T978 1131T1020 1133Q1048 1133 1064 1129T1085 1117T1086 1096T1067 1067L875 856ZM760 664Q760 699 751 732T722 792T669 833T590 849Q532 849 488 832T412 785T358 718T324 641T305 565T299 499Q299 411 343 365T478 318Q555 318 608 351T695 436T744 549T760 664Z"/><glyph unicode="¥" horiz-adv-x="1038" d="M634 614L623 561H900Q912 561 916 552T921 532Q921 525 920 516T917 497T911 477T902 458T890 445T876 440H599L568 280H844Q856 280 860 271T865 251Q865 246 864 237T861 218T856 197T847 178T835 164T820 159H543L517 24Q516 16 511 11T494 2T466 -4T425 -6Q400 -6 384 -4T358 1T346 10T345 24L371 159H95Q85 159 80 167T74 190Q74 197 76 212T84 242T98 268T119 280H395L426 440H150Q140 440 135 448T130 473Q130 478 131 486T134 504T140 524T149 543T160 556T175 561H451L462 614L224 1233Q216 1254 215 1267T221 1288T249 1297T302 1300Q330 1300 347 1299T373 1294T386 1284T395 1269L577 765L955 1269Q962 1278 970 1284T990 1293T1022 1298T1071 1300Q1102 1300 1120 1298T1144 1288T1144 1268T1121 1233L634 614Z"/><glyph unicode="¦" horiz-adv-x="1020" d="M645 759Q642 752 638 746T624 736T599 730T561 728Q538 728 524 729T501 735T490 746T490 759L622 1422Q624 1429 629 1435T643 1445T668 1451T707 1454Q729 1454 743 1452T766 1445T776 1435T778 1422L645 759ZM421 -360Q419 -367 415 -373T400 -383T375 -389T337 -391Q315 -391 300 -389T277 -383T267 -373T266 -360L401 313Q402 320 406 326T421 336T447 343T485 345Q507 345 521 343T544 337T554 326T556 313L421 -360Z"/><glyph unicode="§" horiz-adv-x="1020" d="M928 1249Q928 1243 927 1234T924 1214T918 1191T910 1169T899 1153T885 1147Q876 1147 862 1158T825 1182T768 1206T684 1218Q641 1218 606 1204T547 1166T511 1112T498 1047Q498 1010 516 983T565 935T634 897T713 861T793 821T862 769T910 697T929 600Q929 544 910 494T859 401T785 324T696 265Q721 233 732 198T744 134Q744 97 734 58T704 -19T651 -89T574 -148T471 -188T338 -203Q290 -203 250 -196T179 -178T124 -153T86 -127Q78 -119 74 -111T69 -88Q69 -82 70 -72T74 -50T80 -28T89 -7T101 8T116 14Q130 14 147 1T191 -29T258 -58T359 -72Q415 -72 455 -56T522 -14T561 45T574 114Q574 149 555 174T506 219T437 257T357 293T278 334T209 386T160 457T141 554Q141 611 161 662T214 757T289 834T377 891Q352 921 342 954T331 1020Q331 1063 341 1104T371 1181T423 1247T495 1299T587 1333T699 1345Q738 1345 773 1340T836 1326T884 1306T917 1283Q928 1271 928 1249ZM764 579Q764 612 751 636T716 678T666 711T606 739T542 767T481 801Q446 787 414 765T359 713T322 648T308 575Q308 542 321 518T356 476T407 443T467 414T531 385T591 352Q626 366 657 388T712 440T750 505T764 579Z"/><glyph unicode="¨" horiz-adv-x="804" d="M823 1216Q818 1189 810 1171T790 1142T758 1127T713 1122Q687 1122 670 1126T645 1141T634 1170T637 1216Q641 1243 648 1261T669 1290T700 1305T745 1310Q771 1310 788 1306T814 1290T825 1261T823 1216ZM469 1216Q465 1189 457 1171T436 1142T404 1127T360 1122Q333 1122 316 1126T290 1141T280 1170T283 1216Q287 1243 294 1261T315 1290T346 1305T391 1310Q417 1310 434 1306T460 1290T471 1261T469 1216Z"/><glyph unicode="©" horiz-adv-x="1709" d="M804 97Q914 97 1002 122T1157 189T1273 287T1356 407T1411 537T1444 665T1460 783T1465 878Q1465 929 1458 979T1432 1075T1380 1158T1295 1224T1169 1268T995 1284Q883 1284 795 1259T639 1190T522 1090T439 970T384 840T352 711T337 596T333 504Q333 453 340 403T365 307T417 224T502 157T628 113T804 97ZM1597 896Q1597 847 1592 782T1571 643T1530 492T1461 341T1358 202T1215 87T1026 10T783 -19Q666 -19 577 0T424 55T317 137T248 241T212 358T201 484Q201 532 206 597T227 737T268 888T337 1040T440 1179T583 1293T773 1371T1016 1400Q1132 1400 1220 1381T1373 1327T1481 1245T1550 1141T1586 1023T1597 896ZM1240 1018Q1240 1002 1237 986T1227 955T1213 931T1192 921Q1179 921 1165 934T1129 964T1072 994T985 1007Q925 1007 880 983T801 921T745 835T709 737T689 640T683 560Q683 467 724 420T848 372Q908 372 950 387T1022 419T1071 451T1105 466Q1113 466 1118 460T1123 440Q1123 430 1121 416T1115 387T1105 359T1092 338Q1075 323 1048 307T985 278T908 256T820 248Q674 248 602 321T529 538Q529 591 539 656T571 787T628 914T715 1023T835 1100T992 1129Q1068 1129 1122 1110T1215 1061Q1228 1050 1234 1041T1240 1018Z"/><glyph unicode="ª" horiz-adv-x="882" d="M739 438Q739 431 737 416T729 385T712 357T687 345H137Q123 345 118 352T113 377Q113 385 115 400T122 431T137 458T163 470H713Q727 470 733 463T739 438ZM766 644Q761 632 745 626T689 620Q670 620 658 621T638 626T628 633T627 644L648 760Q636 737 612 711T553 662T476 625T389 610Q328 610 289 630T226 683T193 759T183 847Q183 888 191 938T216 1039T262 1138T329 1224T421 1285T541 1308Q606 1308 654 1285T739 1215L751 1274Q753 1286 772 1292T830 1298Q868 1298 881 1292T891 1274L766 644ZM701 1091Q669 1135 632 1160T547 1186Q511 1186 482 1170T429 1128T390 1066T363 995T347 922T342 855Q342 833 346 812T360 774T389 747T436 737Q470 737 509 758T583 817T646 908T687 1023L701 1091Z"/><glyph unicode="«" horiz-adv-x="1049" d="M137 480Q127 504 128 524T147 565L433 912Q440 920 446 925T463 933T488 937T525 938Q550 938 565 935T587 926T593 912T584 893L290 510L428 147Q432 137 431 129T423 114T401 104T361 101Q339 101 326 102T306 106T295 114T288 127L137 480ZM506 482Q496 504 497 523T516 564L795 893Q802 900 809 905T826 914T851 917T888 918Q913 918 929 916T952 908T959 895T951 877L657 511L803 161Q806 151 806 144T798 132T774 125T733 122Q711 122 698 122T678 126T667 133T660 146L506 482Z"/><glyph unicode="¬" horiz-adv-x="1020" d="M894 321Q891 313 887 307T872 296T848 289T813 287Q793 287 779 289T758 295T747 306T746 321L783 502H104Q92 502 85 510T78 537Q78 544 79 554T83 576T90 600T100 621T114 637T133 643H887Q926 643 940 629T945 576L894 321Z"/><glyph unicode="­" horiz-adv-x="627" d="M569 540Q569 534 569 524T565 503T558 480T549 458T535 442T516 436H97Q84 436 78 445T72 472Q72 477 73 486T76 507T83 531T93 552T106 567T125 573H544Q558 573 563 564T569 540Z"/><glyph unicode="®" horiz-adv-x="1038" d="M1020 1054Q1020 961 985 883T892 749T758 661T602 629Q513 629 445 657T330 734T261 844T237 975Q237 1071 271 1150T365 1287T499 1375T656 1407Q744 1407 811 1380T925 1305T995 1193T1020 1054ZM930 1046Q930 1108 912 1159T859 1249T772 1308T651 1329Q584 1329 525 1303T421 1231T352 1123T326 988Q326 921 346 869T403 781T492 727T608 708Q675 708 733 734T836 805T905 912T930 1046ZM772 856Q774 842 774 834T769 822T752 816T718 815Q685 815 676 820T664 841L658 900Q652 938 638 956T591 974H562L534 832Q532 823 521 819T480 815Q448 815 440 819T434 832L506 1193Q510 1214 523 1227T561 1240H666Q705 1240 734 1233T781 1212T809 1179T818 1132Q818 1106 809 1085T784 1047T747 1020T702 1003Q725 996 740 975T762 917L772 856ZM708 1121Q708 1129 706 1136T696 1149T676 1158T642 1162H598L576 1050H617Q644 1050 661 1055T689 1070T704 1093T708 1121Z"/><glyph unicode="¯" horiz-adv-x="807" d="M832 1262Q832 1256 831 1247T828 1228T822 1206T813 1185T801 1170T785 1164H306Q293 1164 287 1171T280 1196Q280 1203 282 1219T290 1252T305 1280T332 1293H811Q823 1293 827 1285T832 1262Z"/><glyph unicode="°" horiz-adv-x="694" d="M722 1151Q722 1095 702 1048T647 968T564 916T464 897Q410 897 368 913T295 957T250 1024T234 1107Q234 1164 255 1211T311 1292T394 1343T495 1361Q547 1361 589 1345T661 1301T706 1234T722 1151ZM598 1144Q598 1191 568 1223T483 1256Q458 1256 436 1246T396 1218T369 1175T358 1117Q358 1067 387 1034T473 1001Q497 1001 519 1011T559 1040T587 1085T598 1144Z"/><glyph unicode="±" horiz-adv-x="1020" d="M997 753Q997 745 996 734T992 712T985 690T974 670T960 655T943 649H619L546 289Q544 282 540 277T526 267T502 261T467 258Q448 258 435 260T414 267T403 276T402 289L474 649H149Q136 649 130 660T123 690Q123 697 124 707T128 728T135 750T146 769T160 783T178 789H502L574 1151Q576 1158 581 1164T596 1174T620 1181T655 1184Q675 1184 688 1182T708 1175T718 1164T719 1151L646 789H973Q986 789 991 780T997 753ZM860 105Q860 92 857 74T846 40T829 12T804 0H30Q19 0 11 9T3 38Q3 52 6 70T16 104T33 131T56 142H834Q848 142 854 132T860 105Z"/><glyph unicode="²" horiz-adv-x="688" d="M679 809Q679 800 677 786T671 757T659 732T640 721H169Q147 721 140 728T132 752Q132 763 134 776T143 803T158 832T182 858L373 1014Q432 1062 472 1103T536 1178T569 1243T579 1302Q579 1338 557 1362T482 1386Q445 1386 413 1376T356 1355T314 1334T285 1324Q279 1324 274 1330T269 1352Q269 1362 271 1375T276 1401T285 1425T297 1443Q308 1454 332 1465T387 1487T454 1504T523 1511Q586 1511 629 1496T698 1455T736 1397T748 1333Q748 1287 733 1243T684 1152T597 1053T465 940L338 838H661Q671 838 675 831T679 809Z"/><glyph unicode="³" horiz-adv-x="685" d="M697 968Q697 911 673 864T605 781T496 727T350 708Q294 708 242 718T147 751Q138 757 134 764T129 786Q129 793 131 808T138 837T150 863T166 874Q175 874 188 866T223 848T275 831T350 823Q389 823 423 831T482 857T522 900T537 960Q537 982 529 1000T500 1033T448 1054T367 1062H294Q283 1062 278 1070T273 1090Q273 1103 276 1117T285 1144T298 1164T314 1172H383Q425 1172 461 1181T524 1208T567 1254T583 1318Q583 1333 579 1347T563 1372T533 1390T483 1397Q446 1397 413 1388T353 1367T308 1346T280 1336Q266 1336 266 1360Q266 1370 268 1382T275 1407T285 1431T297 1449Q305 1457 326 1467T378 1488T444 1504T520 1511Q580 1511 621 1498T689 1461T726 1408T738 1345Q738 1298 722 1261T680 1195T619 1148T544 1122V1120Q583 1117 611 1103T659 1067T687 1020T697 968Z"/><glyph unicode="´" horiz-adv-x="598" d="M425 1123Q418 1113 412 1107T396 1098T373 1093T340 1091Q318 1091 305 1094T287 1102T284 1115T293 1134L447 1365Q454 1376 462 1383T482 1394T511 1400T553 1402Q581 1402 597 1399T620 1389T626 1374T616 1356L425 1123Z"/><glyph unicode="µ" horiz-adv-x="1102" d="M1008 120Q1008 115 1007 101T1002 68T991 33T975 7Q970 1 959 -3T932 -11T900 -16T866 -18Q772 -18 730 35T705 193Q689 159 655 122T574 54T475 3T369 -17Q340 -17 316 -11T275 5T245 28T226 55L202 -112L158 -332Q156 -340 152 -346T138 -356T111 -362T70 -364Q46 -364 31 -362T6 -356T-5 -346T-7 -332L244 926Q245 933 250 939T265 949T292 954T334 956Q357 956 372 955T396 949T407 939T409 926L296 359Q286 304 285 261T293 187T329 140T396 123Q450 123 505 153T609 236T695 364T752 526L832 926Q833 933 838 939T854 949T881 954T922 956Q945 956 960 955T984 949T996 939T998 926L866 272Q858 230 856 202T859 156T877 131T912 123Q945 123 963 128T996 134Q1002 134 1005 131T1008 120Z"/><glyph unicode="¶" horiz-adv-x="1200" d="M887 -205Q885 -212 881 -217T868 -226T845 -231T809 -234Q767 -234 754 -226T743 -205L1018 1165H820L546 -205Q544 -212 540 -217T526 -226T503 -231T468 -234Q426 -234 413 -226T402 -205L550 533Q458 533 391 555T279 616T213 712T191 837Q191 896 204 952T245 1059T314 1153T413 1227T542 1276T702 1294H1130Q1159 1294 1170 1277T1176 1234L887 -205Z"/><glyph unicode="·" horiz-adv-x="517" d="M396 633Q396 616 393 597T384 558T370 521T351 494Q335 477 310 472T259 467Q233 467 216 471T187 484T172 505T168 534Q168 551 171 570T180 609T194 645T211 670Q224 683 245 691T305 699Q334 699 352 694T379 681T392 660T396 633Z"/><glyph unicode="¸" horiz-adv-x="629" d="M364 -175Q364 -224 349 -260T305 -319T236 -353T145 -365Q119 -365 93 -363T46 -357T9 -349T-13 -340Q-18 -337 -20 -332T-23 -318Q-23 -308 -21 -295T-15 -270T-2 -250T18 -241H142Q158 -241 172 -238T198 -226T217 -205T224 -171Q224 -161 222 -145T216 -113L187 0H327L346 -74Q355 -107 359 -130T364 -175Z"/><glyph unicode="¹" horiz-adv-x="504" d="M426 739Q424 732 420 728T406 721T383 717T348 715Q329 715 317 716T296 720T285 727T283 739L407 1359L245 1281Q219 1270 212 1276T204 1298Q204 1310 205 1323T211 1349T222 1372T239 1388L448 1499Q453 1502 458 1503T471 1506T489 1507T516 1508Q536 1508 548 1507T567 1503T575 1498T577 1490L426 739Z"/><glyph unicode="º" horiz-adv-x="865" d="M868 1062Q868 1015 859 963T831 861T780 765T703 685T599 631T464 610Q380 610 326 633T241 693T199 773T187 858Q187 903 195 954T222 1055T272 1152T348 1233T453 1289T593 1310Q676 1310 729 1287T814 1228T856 1148T868 1062ZM705 1048Q705 1076 699 1101T678 1145T638 1175T573 1187Q528 1187 494 1171T435 1127T394 1066T368 997T354 930T350 873Q350 845 356 820T377 776T417 746T483 734Q527 734 561 750T620 792T661 852T687 921T701 989T705 1048ZM725 438Q725 431 723 416T714 385T698 357T673 345H154Q140 345 135 352T129 377Q129 385 131 400T139 431T154 458T180 470H699Q713 470 719 463T725 438Z"/><glyph unicode="»" horiz-adv-x="1049" d="M932 559Q942 535 941 515T922 473L635 127Q629 119 623 114T606 106T581 102T544 101Q518 101 503 104T481 113T475 127T485 145L779 529L640 892Q637 902 638 910T646 925T669 935T709 938Q731 938 743 937T763 933T774 925T781 912L932 559ZM562 557Q573 535 572 516T553 475L273 146Q267 138 260 133T243 126T218 122T181 121Q156 121 140 123T117 131T110 144T118 162L412 528L266 878Q262 888 263 895T271 907T294 915T336 918Q358 918 371 917T391 913T402 906T409 893L562 557Z"/><glyph unicode="¼" horiz-adv-x="1303" d="M1175 211Q1175 206 1173 193T1166 165T1154 141T1136 130H1062L1040 17Q1039 11 1034 7T1019 0T995 -4T961 -6Q942 -6 930 -5T912 0T903 7T901 17L924 130H638Q625 130 620 135T615 154Q615 165 617 180T625 212T636 244T653 271L962 633Q970 641 993 647T1065 653Q1092 653 1110 651T1141 646T1158 638T1163 628L1084 234H1157Q1167 234 1171 228T1175 211ZM1004 530H1002L748 234H945L1004 530ZM155 -8Q148 -17 140 -21T121 -29T95 -34T60 -36Q16 -36 7 -22T19 16L1177 1305Q1185 1313 1193 1318T1212 1327T1237 1331T1272 1333Q1294 1333 1307 1330T1325 1319T1327 1302T1313 1281L155 -8ZM444 664Q443 658 439 654T425 646T402 642T368 641Q349 641 336 642T315 646T304 653T302 664L401 1161L236 1082Q212 1071 204 1076T196 1097Q196 1109 198 1123T205 1150T217 1174T235 1190L442 1299Q445 1301 450 1302T462 1303T481 1304T509 1305Q529 1305 541 1304T560 1301T569 1297T570 1289L444 664Z"/><glyph unicode="½" horiz-adv-x="1375" d="M444 664Q443 658 439 654T425 646T402 642T368 641Q349 641 336 642T315 646T304 653T302 664L401 1161L236 1082Q212 1071 204 1076T196 1097Q196 1109 198 1123T205 1150T217 1174T235 1190L442 1299Q445 1301 450 1302T462 1303T481 1304T509 1305Q529 1305 541 1304T560 1301T569 1297T570 1289L444 664ZM1205 84Q1205 75 1203 61T1196 33T1185 10T1168 0H756Q736 0 728 7T720 31Q720 40 722 53T729 80T743 108T766 132L926 257Q977 297 1010 328T1063 385T1091 434T1100 482Q1100 494 1096 505T1082 526T1056 541T1018 548Q984 548 957 540T908 523T872 506T850 498Q842 498 838 505T833 526Q833 536 835 549T841 574T852 598T870 614Q914 637 961 649T1059 662Q1116 662 1154 648T1215 611T1247 560T1257 505Q1257 462 1244 425T1202 352T1125 275T1007 186L906 111H1187Q1198 111 1201 103T1205 84ZM155 -8Q148 -17 140 -21T121 -29T95 -34T60 -36Q16 -36 7 -22T19 16L1177 1305Q1185 1313 1193 1318T1212 1327T1237 1331T1272 1333Q1294 1333 1307 1330T1325 1319T1327 1302T1313 1281L155 -8Z"/><glyph unicode="¾" horiz-adv-x="1383" d="M627 856Q627 823 617 794T589 740T544 695T483 661T409 640T321 632Q268 632 224 641T141 671Q129 676 125 682T120 702Q120 708 122 722T127 749T137 772T150 782Q158 782 169 776T201 760T249 745T318 738Q352 738 380 745T429 766T461 802T473 852Q473 869 466 882T443 906T399 921T330 927H262Q252 927 247 933T242 953Q242 960 244 972T250 997T261 1018T279 1027H343Q423 1027 467 1059T512 1140Q512 1151 508 1162T494 1183T465 1198T418 1205Q386 1205 360 1197T312 1180T275 1163T251 1155Q243 1155 239 1160T234 1180Q234 1193 236 1206T244 1229T256 1248T271 1262Q288 1272 308 1280T352 1295T402 1305T457 1309Q509 1309 547 1299T610 1268T647 1220T660 1158Q660 1125 648 1096T613 1045T560 1006T492 982Q527 979 552 967T594 938T619 899T627 856ZM234 -8Q227 -17 219 -21T200 -29T174 -34T139 -36Q95 -36 86 -22T98 16L1256 1305Q1264 1313 1272 1318T1291 1327T1316 1331T1351 1333Q1373 1333 1386 1330T1404 1319T1406 1302T1392 1281L234 -8ZM1255 211Q1255 206 1253 193T1246 165T1234 141T1216 130H1142L1120 17Q1119 11 1114 7T1099 0T1075 -4T1041 -6Q1022 -6 1010 -5T992 0T983 7T981 17L1004 130H718Q705 130 700 135T695 154Q695 165 697 180T705 212T716 244T733 271L1042 633Q1050 641 1073 647T1145 653Q1172 653 1190 651T1221 646T1238 638T1243 628L1164 234H1237Q1247 234 1251 228T1255 211ZM1084 530H1082L828 234H1025L1084 530Z"/><glyph unicode="¿" horiz-adv-x="949" d="M34 133Q34 214 58 290T134 426T266 526T457 572L511 811Q515 826 534 833T592 841Q613 841 627 840T650 835T662 825T663 811L615 534Q611 511 604 497T585 473T559 460T526 456H520Q433 456 374 429T278 358T225 261T208 155Q208 110 221 72T259 6T324 -38T417 -54Q477 -54 524 -41T607 -11T664 19T699 32Q709 32 713 24T717 -7Q717 -17 716 -31T710 -60T700 -86T686 -107Q673 -120 642 -135T570 -162T481 -183T390 -192Q325 -192 274 -180T183 -147T115 -95T69 -28T42 49T34 133ZM526 1026Q526 1040 529 1059T537 1098T550 1135T567 1163Q583 1178 604 1185T660 1192Q687 1192 704 1188T730 1177T744 1157T748 1130Q748 1117 746 1098T738 1059T725 1021T706 991Q690 975 669 970T615 964Q587 964 570 968T542 981T529 1001T526 1026Z"/><glyph unicode="À" horiz-adv-x="1185" d="M1060 61Q1063 39 1062 26T1051 5T1021 -4T967 -6Q945 -6 929 -5T905 0T892 10T887 25L839 340H300L131 28Q126 18 120 12T102 1T72 -4T26 -6Q-4 -6 -22 -4T-47 6T-51 26T-37 62L637 1264Q644 1275 652 1282T673 1293T706 1298T755 1300Q788 1300 808 1299T841 1293T859 1282T866 1263L1060 61ZM723 1122H722L372 477H820L723 1122ZM839 1438Q848 1427 850 1419T847 1406T828 1398T792 1395Q771 1395 757 1396T733 1401T713 1410T694 1426L477 1638Q467 1648 465 1657T470 1673T495 1684T543 1689Q568 1689 585 1688T616 1683T640 1672T660 1651L839 1438Z"/><glyph unicode="Á" horiz-adv-x="1185" d="M1060 61Q1063 39 1062 26T1051 5T1021 -4T967 -6Q945 -6 929 -5T905 0T892 10T887 25L839 340H300L131 28Q126 18 120 12T102 1T72 -4T26 -6Q-4 -6 -22 -4T-47 6T-51 26T-37 62L637 1264Q644 1275 652 1282T673 1293T706 1298T755 1300Q788 1300 808 1299T841 1293T859 1282T866 1263L1060 61ZM723 1122H722L372 477H820L723 1122ZM864 1426Q853 1417 844 1411T824 1402T799 1397T764 1395Q718 1395 709 1405T720 1438L917 1651Q928 1663 939 1670T964 1682T995 1687T1038 1689Q1068 1689 1085 1685T1109 1673T1113 1657T1099 1638L864 1426Z"/><glyph unicode="Â" horiz-adv-x="1185" d="M1060 61Q1063 39 1062 26T1051 5T1021 -4T967 -6Q945 -6 929 -5T905 0T892 10T887 25L839 340H300L131 28Q126 18 120 12T102 1T72 -4T26 -6Q-4 -6 -22 -4T-47 6T-51 26T-37 62L637 1264Q644 1275 652 1282T673 1293T706 1298T755 1300Q788 1300 808 1299T841 1293T859 1282T866 1263L1060 61ZM723 1122H722L372 477H820L723 1122ZM1119 1433Q1126 1423 1126 1416T1118 1404T1097 1397T1061 1395Q1031 1395 1014 1396T987 1400T972 1407T963 1417L845 1590L652 1422Q642 1414 633 1408T610 1400T577 1396T531 1395Q506 1395 493 1397T475 1404T474 1416T490 1433L759 1660Q768 1669 777 1674T798 1683T825 1688T861 1689Q882 1689 895 1688T918 1684T935 1675T949 1660L1119 1433Z"/><glyph unicode="Ã" horiz-adv-x="1185" d="M1060 61Q1063 39 1062 26T1051 5T1021 -4T967 -6Q945 -6 929 -5T905 0T892 10T887 25L839 340H300L131 28Q126 18 120 12T102 1T72 -4T26 -6Q-4 -6 -22 -4T-47 6T-51 26T-37 62L637 1264Q644 1275 652 1282T673 1293T706 1298T755 1300Q788 1300 808 1299T841 1293T859 1282T866 1263L1060 61ZM723 1122H722L372 477H820L723 1122ZM1044 1614Q1045 1621 1049 1625T1061 1631T1081 1635T1109 1636Q1143 1636 1153 1630T1163 1611Q1163 1607 1162 1590T1153 1548T1133 1498T1097 1449T1037 1411T950 1396Q898 1396 860 1414T792 1453T733 1492T672 1510Q629 1510 610 1485T585 1418Q584 1412 580 1408T569 1402T549 1398T521 1396Q488 1396 477 1401T465 1421Q465 1432 468 1453T479 1497T503 1545T542 1590T600 1623T681 1636Q732 1636 769 1618T838 1579T897 1540T957 1522Q993 1522 1016 1542T1044 1614Z"/><glyph unicode="Ä" horiz-adv-x="1185" d="M1060 61Q1063 39 1062 26T1051 5T1021 -4T967 -6Q945 -6 929 -5T905 0T892 10T887 25L839 340H300L131 28Q126 18 120 12T102 1T72 -4T26 -6Q-4 -6 -22 -4T-47 6T-51 26T-37 62L637 1264Q644 1275 652 1282T673 1293T706 1298T755 1300Q788 1300 808 1299T841 1293T859 1282T866 1263L1060 61ZM723 1122H722L372 477H820L723 1122ZM1122 1527Q1117 1499 1110 1481T1089 1452T1056 1436T1009 1431Q981 1431 964 1435T937 1451T926 1481T928 1527Q933 1555 940 1573T960 1603T993 1619T1040 1624Q1068 1624 1085 1620T1112 1604T1124 1574T1122 1527ZM709 1527Q705 1499 697 1481T676 1452T643 1436T595 1431Q567 1431 550 1435T523 1451T513 1481T516 1527Q520 1555 527 1573T547 1603T579 1619T628 1624Q655 1624 672 1620T699 1604T711 1574T709 1527Z"/><glyph unicode="Å" horiz-adv-x="1185" d="M1060 61Q1063 39 1062 26T1051 5T1021 -4T967 -6Q945 -6 929 -5T905 0T892 10T887 25L839 340H300L131 28Q126 18 120 12T102 1T72 -4T26 -6Q-4 -6 -22 -4T-47 6T-51 26T-37 62L637 1264Q644 1275 652 1282T673 1293T706 1298T755 1300Q788 1300 808 1299T841 1293T859 1282T866 1263L1060 61ZM723 1122H722L372 477H820L723 1122ZM1025 1571Q1025 1527 1009 1489T964 1422T892 1377T797 1360Q748 1360 714 1373T658 1409T626 1459T616 1519Q616 1549 622 1576T642 1626T675 1670T720 1704T777 1725T843 1733Q892 1733 926 1720T983 1683T1015 1631T1025 1571ZM913 1559Q913 1574 909 1589T895 1617T869 1636T829 1644Q805 1644 786 1636T754 1612T735 1576T728 1532Q728 1517 732 1502T745 1475T771 1456T811 1449Q835 1449 854 1457T886 1480T906 1515T913 1559Z"/><glyph unicode="Æ" horiz-adv-x="1563" d="M1378 110Q1378 103 1377 93T1373 70T1367 46T1357 23T1344 7T1327 0H712Q700 0 689 3T671 15T661 37T661 70L711 316H266L54 28Q46 18 38 12T17 1T-15 -4T-64 -6Q-93 -6 -110 -4T-134 6T-136 26T-116 62L771 1257Q779 1269 788 1276T812 1287T847 1292T896 1294H1577Q1601 1294 1601 1260Q1601 1253 1600 1243T1596 1220T1590 1196T1580 1174T1566 1157T1548 1151H1049L967 744H1395Q1407 744 1412 735T1418 710Q1418 703 1417 693T1414 670T1407 645T1398 623T1385 607T1367 601H938L847 143H1354Q1365 143 1371 134T1378 110ZM877 1151H874L359 454H739L877 1151Z"/><glyph unicode="Ç" horiz-adv-x="1070" d="M463 -8Q336 14 261 81T151 244T116 456Q116 551 135 651T194 847T292 1026T428 1173T602 1273T815 1310Q888 1310 951 1294T1060 1252T1126 1208T1146 1162Q1146 1141 1139 1110T1120 1061T1095 1043Q1081 1043 1063 1061T1012 1101T930 1141T803 1160Q719 1160 650 1129T525 1044T428 920T358 774T317 619T303 471Q303 391 323 329T381 223T474 158T599 136Q676 136 732 153T830 192T898 231T941 249Q953 249 958 241T963 217Q963 212 962 203T958 182T953 158T947 134T938 113T923 93T875 61T765 16T604 -14L619 -74Q628 -107 633 -130T638 -175Q638 -224 622 -260T578 -319T509 -353T418 -365Q393 -365 367 -363T320 -357T283 -349T260 -340Q255 -337 253 -332T250 -318Q250 -308 252 -295T259 -270T272 -250T292 -241H415Q431 -241 446 -238T472 -226T490 -205T497 -171Q497 -161 495 -145T489 -113L463 -8Z"/><glyph unicode="È" horiz-adv-x="1000" d="M1038 1261Q1038 1256 1038 1246T1035 1223T1029 1198T1019 1175T1005 1158T986 1151H481L399 745H834Q846 745 852 737T858 713Q858 708 857 698T853 675T847 650T838 629T824 613T806 606H372L278 143H793Q803 143 809 135T816 110Q816 104 815 93T812 70T806 46T796 23T782 6T763 0H141Q130 0 120 3T102 15T91 37T93 70L324 1224Q331 1263 355 1278T402 1294H1015Q1038 1294 1038 1261ZM778 1438Q787 1427 789 1419T786 1406T767 1398T731 1395Q710 1395 696 1396T672 1401T652 1410T633 1426L416 1638Q406 1648 404 1657T409 1673T434 1684T482 1689Q507 1689 524 1688T555 1683T579 1672T599 1651L778 1438Z"/><glyph unicode="É" horiz-adv-x="1000" d="M1038 1261Q1038 1256 1038 1246T1035 1223T1029 1198T1019 1175T1005 1158T986 1151H481L399 745H834Q846 745 852 737T858 713Q858 708 857 698T853 675T847 650T838 629T824 613T806 606H372L278 143H793Q803 143 809 135T816 110Q816 104 815 93T812 70T806 46T796 23T782 6T763 0H141Q130 0 120 3T102 15T91 37T93 70L324 1224Q331 1263 355 1278T402 1294H1015Q1038 1294 1038 1261ZM799 1426Q788 1417 779 1411T759 1402T734 1397T699 1395Q653 1395 644 1405T655 1438L852 1651Q863 1663 874 1670T899 1682T930 1687T973 1689Q1003 1689 1020 1685T1044 1673T1048 1657T1034 1638L799 1426Z"/><glyph unicode="Ê" horiz-adv-x="1000" d="M1038 1261Q1038 1256 1038 1246T1035 1223T1029 1198T1019 1175T1005 1158T986 1151H481L399 745H834Q846 745 852 737T858 713Q858 708 857 698T853 675T847 650T838 629T824 613T806 606H372L278 143H793Q803 143 809 135T816 110Q816 104 815 93T812 70T806 46T796 23T782 6T763 0H141Q130 0 120 3T102 15T91 37T93 70L324 1224Q331 1263 355 1278T402 1294H1015Q1038 1294 1038 1261ZM1035 1433Q1042 1423 1042 1416T1034 1404T1013 1397T977 1395Q947 1395 930 1396T903 1400T888 1407T879 1417L761 1590L568 1422Q558 1414 549 1408T526 1400T493 1396T447 1395Q422 1395 409 1397T391 1404T390 1416T406 1433L675 1660Q684 1669 693 1674T714 1683T741 1688T777 1689Q798 1689 811 1688T834 1684T851 1675T865 1660L1035 1433Z"/><glyph unicode="Ë" horiz-adv-x="1000" d="M1038 1261Q1038 1256 1038 1246T1035 1223T1029 1198T1019 1175T1005 1158T986 1151H481L399 745H834Q846 745 852 737T858 713Q858 708 857 698T853 675T847 650T838 629T824 613T806 606H372L278 143H793Q803 143 809 135T816 110Q816 104 815 93T812 70T806 46T796 23T782 6T763 0H141Q130 0 120 3T102 15T91 37T93 70L324 1224Q331 1263 355 1278T402 1294H1015Q1038 1294 1038 1261ZM1036 1527Q1031 1499 1024 1481T1003 1452T970 1436T923 1431Q895 1431 878 1435T851 1451T840 1481T842 1527Q847 1555 854 1573T874 1603T907 1619T954 1624Q982 1624 999 1620T1026 1604T1038 1574T1036 1527ZM623 1527Q619 1499 611 1481T590 1452T557 1436T509 1431Q481 1431 464 1435T437 1451T427 1481T430 1527Q434 1555 441 1573T461 1603T493 1619T542 1624Q569 1624 586 1620T613 1604T625 1574T623 1527Z"/><glyph unicode="Ì" horiz-adv-x="516" d="M256 25Q255 18 250 12T233 3T205 -3T164 -6Q138 -6 122 -4T97 2T85 12T84 25L332 1269Q333 1276 339 1282T357 1291T384 1297T425 1300Q449 1300 465 1298T490 1292T503 1282T504 1269L256 25ZM508 1438Q517 1427 519 1419T516 1406T497 1398T461 1395Q440 1395 426 1396T402 1401T382 1410T363 1426L146 1638Q136 1648 134 1657T139 1673T164 1684T212 1689Q237 1689 254 1688T285 1683T309 1672T329 1651L508 1438Z"/><glyph unicode="Í" horiz-adv-x="516" d="M256 25Q255 18 250 12T233 3T205 -3T164 -6Q138 -6 122 -4T97 2T85 12T84 25L332 1269Q333 1276 339 1282T357 1291T384 1297T425 1300Q449 1300 465 1298T490 1292T503 1282T504 1269L256 25ZM522 1426Q511 1417 502 1411T482 1402T457 1397T422 1395Q376 1395 367 1405T378 1438L575 1651Q586 1663 597 1670T622 1682T653 1687T696 1689Q726 1689 743 1685T767 1673T771 1657T757 1638L522 1426Z"/><glyph unicode="Î" horiz-adv-x="516" d="M256 25Q255 18 250 12T233 3T205 -3T164 -6Q138 -6 122 -4T97 2T85 12T84 25L332 1269Q333 1276 339 1282T357 1291T384 1297T425 1300Q449 1300 465 1298T490 1292T503 1282T504 1269L256 25ZM769 1433Q776 1423 776 1416T768 1404T747 1397T711 1395Q681 1395 664 1396T637 1400T622 1407T613 1417L495 1590L302 1422Q292 1414 283 1408T260 1400T227 1396T181 1395Q156 1395 143 1397T125 1404T124 1416T140 1433L409 1660Q418 1669 427 1674T448 1683T475 1688T511 1689Q532 1689 545 1688T568 1684T585 1675T599 1660L769 1433Z"/><glyph unicode="Ï" horiz-adv-x="516" d="M256 25Q255 18 250 12T233 3T205 -3T164 -6Q138 -6 122 -4T97 2T85 12T84 25L332 1269Q333 1276 339 1282T357 1291T384 1297T425 1300Q449 1300 465 1298T490 1292T503 1282T504 1269L256 25ZM774 1527Q769 1499 762 1481T741 1452T708 1436T661 1431Q633 1431 616 1435T589 1451T578 1481T580 1527Q585 1555 592 1573T612 1603T645 1619T692 1624Q720 1624 737 1620T764 1604T776 1574T774 1527ZM361 1527Q357 1499 349 1481T328 1452T295 1436T247 1431Q219 1431 202 1435T175 1451T165 1481T168 1527Q172 1555 179 1573T199 1603T231 1619T280 1624Q307 1624 324 1620T351 1604T363 1574T361 1527Z"/><glyph unicode="Ð" horiz-adv-x="1279" d="M1240 828Q1240 738 1223 642T1169 453T1073 279T929 135T730 37T452 0H163Q136 0 120 15T111 70L217 601H87Q75 601 69 609T63 636Q63 642 64 652T68 675T74 700T84 721T97 737T115 744H246L342 1224Q349 1263 372 1278T425 1294H698Q847 1294 945 1262T1109 1170T1207 1024T1240 828ZM1058 813Q1058 887 1037 949T972 1056T860 1126T678 1151H499L417 744H651Q668 744 672 733T676 709Q676 700 675 689T671 666T664 642T653 621T640 607T624 601H389L298 144H475Q597 144 679 173T825 253T932 371T1004 512T1045 663T1058 813Z"/><glyph unicode="Ñ" horiz-adv-x="1320" d="M1068 71Q1065 51 1056 37T1036 14T1011 1T985 -3H920Q894 -3 876 3T845 23T821 61T798 120L555 810Q530 884 506 957T458 1105H456Q443 1023 428 942T397 780L247 26Q245 18 240 12T224 3T197 -3T157 -6Q134 -6 119 -4T95 2T85 12T84 26L322 1220Q330 1260 355 1277T407 1294H486Q510 1294 528 1289T559 1271T582 1238T604 1185L849 486Q872 421 894 356T939 225H941Q955 307 971 395T1004 565L1145 1266Q1147 1274 1152 1279T1167 1289T1192 1295T1232 1297Q1255 1297 1270 1295T1294 1289T1306 1280T1308 1266L1068 71ZM1095 1614Q1096 1621 1100 1625T1112 1631T1132 1635T1160 1636Q1194 1636 1204 1630T1214 1611Q1214 1607 1213 1590T1204 1548T1184 1498T1148 1449T1088 1411T1001 1396Q949 1396 911 1414T843 1453T784 1492T723 1510Q680 1510 661 1485T636 1418Q635 1412 631 1408T620 1402T600 1398T572 1396Q539 1396 528 1401T516 1421Q516 1432 519 1453T530 1497T554 1545T593 1590T651 1623T732 1636Q783 1636 820 1618T889 1579T948 1540T1008 1522Q1044 1522 1067 1542T1095 1614Z"/><glyph unicode="Ò" horiz-adv-x="1340" d="M1298 860Q1298 783 1284 688T1237 495T1150 305T1015 141T825 25T573 -19Q459 -19 373 9T230 94T143 234T114 426Q114 512 129 611T178 808T268 998T404 1159T593 1271T841 1313Q954 1313 1039 1284T1182 1197T1269 1055T1298 860ZM1114 848Q1114 918 1098 976T1047 1077T954 1142T814 1166Q710 1166 632 1128T496 1027T401 887T341 728T309 573T299 443Q299 372 314 315T366 216T459 153T600 130Q703 130 781 167T916 266T1011 404T1072 561T1104 716T1114 848ZM912 1438Q921 1427 923 1419T920 1406T901 1398T865 1395Q844 1395 830 1396T806 1401T786 1410T767 1426L550 1638Q540 1648 538 1657T543 1673T568 1684T616 1689Q641 1689 658 1688T689 1683T713 1672T733 1651L912 1438Z"/><glyph unicode="Ó" horiz-adv-x="1340" d="M1298 860Q1298 783 1284 688T1237 495T1150 305T1015 141T825 25T573 -19Q459 -19 373 9T230 94T143 234T114 426Q114 512 129 611T178 808T268 998T404 1159T593 1271T841 1313Q954 1313 1039 1284T1182 1197T1269 1055T1298 860ZM1114 848Q1114 918 1098 976T1047 1077T954 1142T814 1166Q710 1166 632 1128T496 1027T401 887T341 728T309 573T299 443Q299 372 314 315T366 216T459 153T600 130Q703 130 781 167T916 266T1011 404T1072 561T1104 716T1114 848ZM906 1426Q895 1417 886 1411T866 1402T841 1397T806 1395Q760 1395 751 1405T762 1438L959 1651Q970 1663 981 1670T1006 1682T1037 1687T1080 1689Q1110 1689 1127 1685T1151 1673T1155 1657T1141 1638L906 1426Z"/><glyph unicode="Ô" horiz-adv-x="1340" d="M1298 860Q1298 783 1284 688T1237 495T1150 305T1015 141T825 25T573 -19Q459 -19 373 9T230 94T143 234T114 426Q114 512 129 611T178 808T268 998T404 1159T593 1271T841 1313Q954 1313 1039 1284T1182 1197T1269 1055T1298 860ZM1114 848Q1114 918 1098 976T1047 1077T954 1142T814 1166Q710 1166 632 1128T496 1027T401 887T341 728T309 573T299 443Q299 372 314 315T366 216T459 153T600 130Q703 130 781 167T916 266T1011 404T1072 561T1104 716T1114 848ZM1178 1433Q1185 1423 1185 1416T1177 1404T1156 1397T1120 1395Q1090 1395 1073 1396T1046 1400T1031 1407T1022 1417L904 1590L711 1422Q701 1414 692 1408T669 1400T636 1396T590 1395Q565 1395 552 1397T534 1404T533 1416T549 1433L818 1660Q827 1669 836 1674T857 1683T884 1688T920 1689Q941 1689 954 1688T977 1684T994 1675T1008 1660L1178 1433Z"/><glyph unicode="Õ" horiz-adv-x="1340" d="M1298 860Q1298 783 1284 688T1237 495T1150 305T1015 141T825 25T573 -19Q459 -19 373 9T230 94T143 234T114 426Q114 512 129 611T178 808T268 998T404 1159T593 1271T841 1313Q954 1313 1039 1284T1182 1197T1269 1055T1298 860ZM1114 848Q1114 918 1098 976T1047 1077T954 1142T814 1166Q710 1166 632 1128T496 1027T401 887T341 728T309 573T299 443Q299 372 314 315T366 216T459 153T600 130Q703 130 781 167T916 266T1011 404T1072 561T1104 716T1114 848ZM1109 1614Q1110 1621 1114 1625T1126 1631T1146 1635T1174 1636Q1208 1636 1218 1630T1228 1611Q1228 1607 1227 1590T1218 1548T1198 1498T1162 1449T1102 1411T1015 1396Q963 1396 925 1414T857 1453T798 1492T737 1510Q694 1510 675 1485T650 1418Q649 1412 645 1408T634 1402T614 1398T586 1396Q553 1396 542 1401T530 1421Q530 1432 533 1453T544 1497T568 1545T607 1590T665 1623T746 1636Q797 1636 834 1618T903 1579T962 1540T1022 1522Q1058 1522 1081 1542T1109 1614Z"/><glyph unicode="Ö" horiz-adv-x="1340" d="M1298 860Q1298 783 1284 688T1237 495T1150 305T1015 141T825 25T573 -19Q459 -19 373 9T230 94T143 234T114 426Q114 512 129 611T178 808T268 998T404 1159T593 1271T841 1313Q954 1313 1039 1284T1182 1197T1269 1055T1298 860ZM1114 848Q1114 918 1098 976T1047 1077T954 1142T814 1166Q710 1166 632 1128T496 1027T401 887T341 728T309 573T299 443Q299 372 314 315T366 216T459 153T600 130Q703 130 781 167T916 266T1011 404T1072 561T1104 716T1114 848ZM1195 1527Q1190 1499 1183 1481T1162 1452T1129 1436T1082 1431Q1054 1431 1037 1435T1010 1451T999 1481T1001 1527Q1006 1555 1013 1573T1033 1603T1066 1619T1113 1624Q1141 1624 1158 1620T1185 1604T1197 1574T1195 1527ZM782 1527Q778 1499 770 1481T749 1452T716 1436T668 1431Q640 1431 623 1435T596 1451T586 1481T589 1527Q593 1555 600 1573T620 1603T652 1619T701 1624Q728 1624 745 1620T772 1604T784 1574T782 1527Z"/><glyph unicode="×" horiz-adv-x="1020" d="M631 570L872 269Q883 255 875 238T836 194Q820 180 808 172T787 162T771 161T758 170L517 474L155 173Q146 166 137 164T117 163T95 173T74 193Q63 206 58 218T52 241T55 260T67 275L433 579L191 880Q186 887 185 894T188 911T202 931T227 955Q243 968 255 976T276 987T291 988T303 978L546 674L908 976Q916 983 926 985T946 986T967 976T988 956Q1010 929 1011 909T995 874L631 570Z"/><glyph unicode="Ø" horiz-adv-x="1347" d="M237 90Q177 146 146 229T114 426Q114 508 128 605T174 800T262 991T398 1155T589 1270T845 1313Q906 1313 960 1304T1058 1274L1212 1497Q1222 1512 1245 1517T1312 1522Q1338 1522 1352 1518T1373 1507T1377 1491T1366 1469L1180 1203Q1242 1147 1273 1062T1304 869Q1304 787 1290 690T1243 494T1155 303T1020 139T829 24T574 -19Q510 -19 456 -10T360 20L205 -206Q196 -220 172 -225T108 -230Q82 -230 66 -226T44 -216T40 -200T50 -178L237 90ZM449 155Q479 141 517 133T601 124Q708 124 789 163T928 267T1024 411T1084 572T1115 728T1124 854Q1124 912 1113 963T1072 1052L449 155ZM969 1139Q937 1154 899 1162T817 1170Q736 1170 671 1147T554 1085T463 994T394 883T346 762T315 642T299 531T294 440Q294 382 305 331T346 242L969 1139Z"/><glyph unicode="Ù" horiz-adv-x="1314" d="M1145 471Q1121 349 1069 257T942 104T773 12T569 -19Q453 -19 368 12T231 106T163 262T172 478L330 1268Q331 1276 336 1282T353 1291T380 1297T422 1300Q447 1300 463 1298T488 1292T500 1282T501 1268L344 480Q327 392 334 326T373 216T458 150T589 128Q664 128 727 151T840 218T924 328T976 478L1134 1268Q1135 1276 1140 1282T1156 1291T1183 1297T1225 1300Q1249 1300 1265 1298T1290 1292T1303 1282T1305 1268L1145 471ZM888 1438Q897 1427 899 1419T896 1406T877 1398T841 1395Q820 1395 806 1396T782 1401T762 1410T743 1426L526 1638Q516 1648 514 1657T519 1673T544 1684T592 1689Q617 1689 634 1688T665 1683T689 1672T709 1651L888 1438Z"/><glyph unicode="Ú" horiz-adv-x="1314" d="M1145 471Q1121 349 1069 257T942 104T773 12T569 -19Q453 -19 368 12T231 106T163 262T172 478L330 1268Q331 1276 336 1282T353 1291T380 1297T422 1300Q447 1300 463 1298T488 1292T500 1282T501 1268L344 480Q327 392 334 326T373 216T458 150T589 128Q664 128 727 151T840 218T924 328T976 478L1134 1268Q1135 1276 1140 1282T1156 1291T1183 1297T1225 1300Q1249 1300 1265 1298T1290 1292T1303 1282T1305 1268L1145 471ZM909 1426Q898 1417 889 1411T869 1402T844 1397T809 1395Q763 1395 754 1405T765 1438L962 1651Q973 1663 984 1670T1009 1682T1040 1687T1083 1689Q1113 1689 1130 1685T1154 1673T1158 1657T1144 1638L909 1426Z"/><glyph unicode="Û" horiz-adv-x="1314" d="M1145 471Q1121 349 1069 257T942 104T773 12T569 -19Q453 -19 368 12T231 106T163 262T172 478L330 1268Q331 1276 336 1282T353 1291T380 1297T422 1300Q447 1300 463 1298T488 1292T500 1282T501 1268L344 480Q327 392 334 326T373 216T458 150T589 128Q664 128 727 151T840 218T924 328T976 478L1134 1268Q1135 1276 1140 1282T1156 1291T1183 1297T1225 1300Q1249 1300 1265 1298T1290 1292T1303 1282T1305 1268L1145 471ZM1158 1433Q1165 1423 1165 1416T1157 1404T1136 1397T1100 1395Q1070 1395 1053 1396T1026 1400T1011 1407T1002 1417L884 1590L691 1422Q681 1414 672 1408T649 1400T616 1396T570 1395Q545 1395 532 1397T514 1404T513 1416T529 1433L798 1660Q807 1669 816 1674T837 1683T864 1688T900 1689Q921 1689 934 1688T957 1684T974 1675T988 1660L1158 1433Z"/><glyph unicode="Ü" horiz-adv-x="1314" d="M1145 471Q1121 349 1069 257T942 104T773 12T569 -19Q453 -19 368 12T231 106T163 262T172 478L330 1268Q331 1276 336 1282T353 1291T380 1297T422 1300Q447 1300 463 1298T488 1292T500 1282T501 1268L344 480Q327 392 334 326T373 216T458 150T589 128Q664 128 727 151T840 218T924 328T976 478L1134 1268Q1135 1276 1140 1282T1156 1291T1183 1297T1225 1300Q1249 1300 1265 1298T1290 1292T1303 1282T1305 1268L1145 471ZM1167 1527Q1162 1499 1155 1481T1134 1452T1101 1436T1054 1431Q1026 1431 1009 1435T982 1451T971 1481T973 1527Q978 1555 985 1573T1005 1603T1038 1619T1085 1624Q1113 1624 1130 1620T1157 1604T1169 1574T1167 1527ZM754 1527Q750 1499 742 1481T721 1452T688 1436T640 1431Q612 1431 595 1435T568 1451T558 1481T561 1527Q565 1555 572 1573T592 1603T624 1619T673 1624Q700 1624 717 1620T744 1604T756 1574T754 1527Z"/><glyph unicode="Ý" horiz-adv-x="998" d="M592 503L497 25Q495 18 490 12T473 3T445 -3T404 -6Q379 -6 363 -4T338 2T326 12T324 25L420 503L200 1233Q194 1255 193 1268T199 1288T225 1297T279 1300Q306 1300 323 1299T350 1292T364 1280T373 1259L476 904Q494 842 508 785T535 665H537Q573 725 610 784T688 903L933 1264Q939 1274 946 1281T966 1292T996 1298T1044 1300Q1080 1300 1099 1297T1123 1285T1123 1264T1104 1233L592 503ZM822 1426Q811 1417 802 1411T782 1402T757 1397T722 1395Q676 1395 667 1405T678 1438L875 1651Q886 1663 897 1670T922 1682T953 1687T996 1689Q1026 1689 1043 1685T1067 1673T1071 1657T1057 1638L822 1426Z"/><glyph unicode="Þ" horiz-adv-x="1058" d="M1021 780Q1021 718 1007 657T965 539T894 435T792 350T660 294T485 274H305L255 22Q252 14 247 9T231 -1T203 -7T162 -9Q137 -9 121 -7T96 -1T84 8T82 22L332 1271Q333 1278 338 1284T354 1294T382 1300T423 1302Q449 1302 465 1300T490 1294T502 1284T505 1271L466 1076H625Q679 1076 716 1073T789 1061Q852 1047 896 1018T968 950T1008 868T1021 780ZM838 748Q838 778 832 805T810 856T771 896T712 924Q687 931 656 933T586 935H437L334 415H498Q603 415 665 450T766 536T821 644T838 748Z"/><glyph unicode="ß" horiz-adv-x="1080" d="M260 1010Q277 1095 312 1167T403 1290T533 1371T704 1400Q789 1400 849 1378T948 1320T1006 1238T1025 1144Q1025 1071 1001 1022T940 938T862 878T784 827T723 770T699 692Q699 657 719 631T769 582T834 535T900 481T950 409T970 309Q970 232 940 171T860 68T745 4T609 -19Q575 -19 544 -15T489 -4T446 12T419 30Q414 36 410 44T406 64Q406 72 407 82T410 104T417 127T426 147T437 161T452 167Q462 167 474 159T504 141T549 123T614 115Q652 115 686 126T745 159T785 213T800 286Q800 329 780 358T730 410T665 456T601 506T551 572T531 668Q531 720 544 758T581 826T633 878T692 920T752 959T804 1001T841 1053T855 1120Q855 1148 846 1174T817 1220T765 1252T690 1265Q632 1265 588 1244T511 1187T457 1103T425 998L218 -38Q203 -114 180 -174T119 -277T27 -342T-104 -365Q-124 -365 -141 -364T-171 -359T-193 -353T-205 -347Q-213 -339 -213 -322Q-213 -314 -211 -297T-203 -263T-191 -234T-171 -221Q-161 -221 -149 -223T-106 -226Q-73 -226 -48 -216T-4 -184T28 -125T53 -36L260 1010Z"/><glyph unicode="à" horiz-adv-x="1053" d="M812 25Q808 8 790 1T730 -6Q710 -6 697 -4T676 1T665 10T665 25L698 195Q685 163 651 125T571 55T467 2T351 -19Q271 -19 219 9T135 83T93 187T81 306Q81 362 91 433T125 578T186 722T277 847T400 936T559 970Q648 970 711 934T825 835L844 926Q848 942 867 949T926 956Q946 956 959 955T981 949T991 939T992 926L812 25ZM781 690Q734 759 680 793T557 828Q503 828 460 803T383 735T325 640T285 529T262 417T254 318Q254 283 259 249T280 186T323 140T393 122Q448 122 503 152T607 237T692 364T747 525L781 690ZM733 1134Q740 1123 741 1115T738 1102T719 1094T683 1091Q663 1091 650 1092T628 1096T612 1106T598 1123L427 1356Q420 1365 420 1373T426 1388T451 1398T498 1402Q522 1402 538 1401T565 1395T583 1384T598 1365L733 1134Z"/><glyph unicode="á" horiz-adv-x="1053" d="M812 25Q808 8 790 1T730 -6Q710 -6 697 -4T676 1T665 10T665 25L698 195Q685 163 651 125T571 55T467 2T351 -19Q271 -19 219 9T135 83T93 187T81 306Q81 362 91 433T125 578T186 722T277 847T400 936T559 970Q648 970 711 934T825 835L844 926Q848 942 867 949T926 956Q946 956 959 955T981 949T991 939T992 926L812 25ZM781 690Q734 759 680 793T557 828Q503 828 460 803T383 735T325 640T285 529T262 417T254 318Q254 283 259 249T280 186T323 140T393 122Q448 122 503 152T607 237T692 364T747 525L781 690ZM706 1123Q699 1113 693 1107T677 1098T654 1093T621 1091Q599 1091 586 1094T568 1102T565 1115T574 1134L728 1365Q735 1376 743 1383T763 1394T792 1400T834 1402Q862 1402 878 1399T901 1389T907 1374T897 1356L706 1123Z"/><glyph unicode="â" horiz-adv-x="1053" d="M812 25Q808 8 790 1T730 -6Q710 -6 697 -4T676 1T665 10T665 25L698 195Q685 163 651 125T571 55T467 2T351 -19Q271 -19 219 9T135 83T93 187T81 306Q81 362 91 433T125 578T186 722T277 847T400 936T559 970Q648 970 711 934T825 835L844 926Q848 942 867 949T926 956Q946 956 959 955T981 949T991 939T992 926L812 25ZM781 690Q734 759 680 793T557 828Q503 828 460 803T383 735T325 640T285 529T262 417T254 318Q254 283 259 249T280 186T323 140T393 122Q448 122 503 152T607 237T692 364T747 525L781 690ZM936 1147Q944 1132 946 1122T944 1105T924 1095T883 1091Q862 1091 850 1092T831 1097T819 1106T810 1121L716 1301L550 1121Q542 1111 535 1106T519 1097T496 1093T464 1091Q437 1091 423 1094T404 1104T406 1121T426 1147L636 1376Q643 1384 651 1388T670 1396T696 1400T734 1402Q755 1402 768 1401T791 1396T807 1388T818 1376L936 1147Z"/><glyph unicode="ã" horiz-adv-x="1053" d="M812 25Q808 8 790 1T730 -6Q710 -6 697 -4T676 1T665 10T665 25L698 195Q685 163 651 125T571 55T467 2T351 -19Q271 -19 219 9T135 83T93 187T81 306Q81 362 91 433T125 578T186 722T277 847T400 936T559 970Q648 970 711 934T825 835L844 926Q848 942 867 949T926 956Q946 956 959 955T981 949T991 939T992 926L812 25ZM781 690Q734 759 680 793T557 828Q503 828 460 803T383 735T325 640T285 529T262 417T254 318Q254 283 259 249T280 186T323 140T393 122Q448 122 503 152T607 237T692 364T747 525L781 690ZM1014 1327Q1014 1321 1012 1303T1003 1258T983 1204T946 1151T887 1112T803 1096Q766 1096 738 1105T686 1130T644 1162T606 1194T569 1218T528 1228Q488 1228 469 1199T444 1122Q443 1115 440 1110T430 1101T411 1097T379 1096Q362 1096 352 1097T337 1102T330 1111T328 1125Q328 1131 329 1150T338 1195T359 1249T396 1300T453 1339T537 1355Q574 1355 602 1346T654 1321T697 1289T735 1257T771 1233T812 1223Q847 1223 869 1249T897 1328Q898 1344 910 1349T957 1355Q994 1355 1004 1349T1014 1327Z"/><glyph unicode="ä" horiz-adv-x="1053" d="M812 25Q808 8 790 1T730 -6Q710 -6 697 -4T676 1T665 10T665 25L698 195Q685 163 651 125T571 55T467 2T351 -19Q271 -19 219 9T135 83T93 187T81 306Q81 362 91 433T125 578T186 722T277 847T400 936T559 970Q648 970 711 934T825 835L844 926Q848 942 867 949T926 956Q946 956 959 955T981 949T991 939T992 926L812 25ZM781 690Q734 759 680 793T557 828Q503 828 460 803T383 735T325 640T285 529T262 417T254 318Q254 283 259 249T280 186T323 140T393 122Q448 122 503 152T607 237T692 364T747 525L781 690ZM937 1216Q932 1189 924 1171T904 1142T872 1127T827 1122Q801 1122 784 1126T759 1141T748 1170T751 1216Q755 1243 762 1261T783 1290T814 1305T859 1310Q885 1310 902 1306T928 1290T939 1261T937 1216ZM583 1216Q579 1189 571 1171T550 1142T518 1127T474 1122Q447 1122 430 1126T404 1141T394 1170T397 1216Q401 1243 408 1261T429 1290T460 1305T505 1310Q531 1310 548 1306T574 1290T585 1261T583 1216Z"/><glyph unicode="å" horiz-adv-x="1053" d="M812 25Q808 8 790 1T730 -6Q710 -6 697 -4T676 1T665 10T665 25L698 195Q685 163 651 125T571 55T467 2T351 -19Q271 -19 219 9T135 83T93 187T81 306Q81 362 91 433T125 578T186 722T277 847T400 936T559 970Q648 970 711 934T825 835L844 926Q848 942 867 949T926 956Q946 956 959 955T981 949T991 939T992 926L812 25ZM781 690Q734 759 680 793T557 828Q503 828 460 803T383 735T325 640T285 529T262 417T254 318Q254 283 259 249T280 186T323 140T393 122Q448 122 503 152T607 237T692 364T747 525L781 690ZM869 1279Q869 1233 854 1196T811 1131T741 1089T648 1073Q599 1073 566 1085T511 1119T481 1168T472 1227Q472 1273 487 1310T530 1375T600 1417T693 1433Q742 1433 775 1420T830 1386T860 1337T869 1279ZM761 1267Q761 1282 757 1297T744 1323T718 1342T679 1349Q632 1349 607 1320T581 1239Q581 1224 585 1210T598 1184T623 1165T662 1158Q709 1158 735 1187T761 1267Z"/><glyph unicode="æ" horiz-adv-x="1545" d="M1183 970Q1268 970 1327 949T1422 895T1476 821T1493 739Q1493 672 1462 617T1365 522T1192 461T933 439H826Q820 406 818 377T815 320Q815 220 865 167T1030 114Q1091 114 1140 123T1228 144T1289 164T1323 174Q1340 174 1340 150Q1340 137 1338 122T1331 93T1320 66T1308 47Q1297 36 1268 25T1197 4T1105 -13T1002 -19Q942 -19 892 -8T802 25T733 78T686 149Q643 108 599 77T508 24T415 -8T318 -19Q242 -19 191 0T107 52T61 124T47 207Q47 263 62 310T108 397T180 467T276 517T394 548T530 559H685L700 626Q712 678 710 717T689 783T632 823T536 836Q476 836 424 822T331 790T263 758T225 743Q214 743 208 753T201 783Q201 794 203 807T209 832T219 856T232 875Q246 890 280 906T360 937T458 960T562 970Q624 970 671 958T752 925T807 875T837 811Q869 848 908 877T992 927T1085 959T1183 970ZM650 266Q648 275 647 286T646 310Q646 341 649 375T659 439H521Q440 439 383 423T290 378T236 310T219 227Q219 170 256 140T353 110Q389 110 424 118T495 146T570 194T650 266ZM1324 726Q1324 750 1315 771T1287 807T1239 831T1169 840Q1104 840 1052 817T961 756T893 667T851 560H958Q1066 560 1136 573T1248 610T1307 663T1324 726Z"/><glyph unicode="ç" horiz-adv-x="852" d="M300 -9Q196 9 136 87T76 307Q76 368 86 440T122 586T186 729T282 851T414 937T586 969Q626 969 663 963T732 945T791 918T832 888T850 866T854 846Q854 828 851 809T840 774T824 746T802 735Q788 735 773 749T734 782T672 815T576 830Q512 830 463 804T377 735T316 638T277 529T256 423T249 333Q249 230 294 177T428 124Q493 124 539 140T618 176T672 213T709 229Q717 229 721 222T726 200Q726 188 724 172T718 138T707 105T688 78T643 45T554 6T441 -16L456 -74Q465 -107 469 -130T474 -175Q474 -224 459 -260T415 -319T346 -353T254 -365Q229 -365 203 -363T156 -357T119 -349T97 -340Q91 -337 89 -332T87 -318Q87 -308 89 -295T95 -270T108 -250T128 -241H251Q267 -241 282 -238T308 -226T327 -205T334 -171Q334 -161 332 -145T326 -113L300 -9Z"/><glyph unicode="è" horiz-adv-x="978" d="M925 741Q925 672 893 617T793 523T619 463T365 442H259Q252 409 250 378T247 320Q247 220 296 167T457 114Q521 114 572 123T660 144T722 164T755 174Q764 174 768 168T773 149Q773 139 771 125T765 97T755 69T740 47Q728 35 698 24T625 3T533 -13T433 -19Q344 -19 277 1T166 62T99 166T77 312Q77 377 89 451T129 599T199 739T301 857T439 939T615 970Q699 970 757 949T853 895T908 822T925 741ZM756 726Q756 777 716 808T602 840Q537 840 487 818T399 757T333 669T288 562H390Q495 562 565 575T678 610T738 663T756 726ZM723 1134Q730 1123 731 1115T728 1102T709 1094T673 1091Q653 1091 640 1092T618 1096T602 1106T588 1123L417 1356Q410 1365 410 1373T416 1388T441 1398T488 1402Q512 1402 528 1401T555 1395T573 1384T588 1365L723 1134Z"/><glyph unicode="é" horiz-adv-x="978" d="M925 741Q925 672 893 617T793 523T619 463T365 442H259Q252 409 250 378T247 320Q247 220 296 167T457 114Q521 114 572 123T660 144T722 164T755 174Q764 174 768 168T773 149Q773 139 771 125T765 97T755 69T740 47Q728 35 698 24T625 3T533 -13T433 -19Q344 -19 277 1T166 62T99 166T77 312Q77 377 89 451T129 599T199 739T301 857T439 939T615 970Q699 970 757 949T853 895T908 822T925 741ZM756 726Q756 777 716 808T602 840Q537 840 487 818T399 757T333 669T288 562H390Q495 562 565 575T678 610T738 663T756 726ZM695 1123Q688 1113 682 1107T666 1098T643 1093T610 1091Q588 1091 575 1094T557 1102T554 1115T563 1134L717 1365Q724 1376 732 1383T752 1394T781 1400T823 1402Q851 1402 867 1399T890 1389T896 1374T886 1356L695 1123Z"/><glyph unicode="ê" horiz-adv-x="978" d="M925 741Q925 672 893 617T793 523T619 463T365 442H259Q252 409 250 378T247 320Q247 220 296 167T457 114Q521 114 572 123T660 144T722 164T755 174Q764 174 768 168T773 149Q773 139 771 125T765 97T755 69T740 47Q728 35 698 24T625 3T533 -13T433 -19Q344 -19 277 1T166 62T99 166T77 312Q77 377 89 451T129 599T199 739T301 857T439 939T615 970Q699 970 757 949T853 895T908 822T925 741ZM756 726Q756 777 716 808T602 840Q537 840 487 818T399 757T333 669T288 562H390Q495 562 565 575T678 610T738 663T756 726ZM894 1147Q902 1132 904 1122T902 1105T882 1095T841 1091Q820 1091 808 1092T789 1097T777 1106T768 1121L674 1301L508 1121Q500 1111 493 1106T477 1097T454 1093T422 1091Q395 1091 381 1094T362 1104T364 1121T384 1147L594 1376Q601 1384 609 1388T628 1396T654 1400T692 1402Q713 1402 726 1401T749 1396T765 1388T776 1376L894 1147Z"/><glyph unicode="ë" horiz-adv-x="978" d="M925 741Q925 672 893 617T793 523T619 463T365 442H259Q252 409 250 378T247 320Q247 220 296 167T457 114Q521 114 572 123T660 144T722 164T755 174Q764 174 768 168T773 149Q773 139 771 125T765 97T755 69T740 47Q728 35 698 24T625 3T533 -13T433 -19Q344 -19 277 1T166 62T99 166T77 312Q77 377 89 451T129 599T199 739T301 857T439 939T615 970Q699 970 757 949T853 895T908 822T925 741ZM756 726Q756 777 716 808T602 840Q537 840 487 818T399 757T333 669T288 562H390Q495 562 565 575T678 610T738 663T756 726ZM914 1216Q909 1189 901 1171T881 1142T849 1127T804 1122Q778 1122 761 1126T736 1141T725 1170T728 1216Q732 1243 739 1261T760 1290T791 1305T836 1310Q862 1310 879 1306T905 1290T916 1261T914 1216ZM560 1216Q556 1189 548 1171T527 1142T495 1127T451 1122Q424 1122 407 1126T381 1141T371 1170T374 1216Q378 1243 385 1261T406 1290T437 1305T482 1310Q508 1310 525 1306T551 1290T562 1261T560 1216Z"/><glyph unicode="ì" horiz-adv-x="470" d="M230 25Q228 17 223 12T208 2T182 -4T141 -6Q116 -6 101 -4T77 2T66 11T65 25L244 925Q245 933 250 938T265 948T292 954T333 956Q357 956 372 955T396 949T407 939T409 925L230 25ZM414 1134Q421 1123 422 1115T419 1102T400 1094T364 1091Q344 1091 331 1092T309 1096T293 1106T279 1123L108 1356Q101 1365 101 1373T107 1388T132 1398T179 1402Q203 1402 219 1401T246 1395T264 1384T279 1365L414 1134Z"/><glyph unicode="í" horiz-adv-x="470" d="M230 25Q228 17 223 12T208 2T182 -4T141 -6Q116 -6 101 -4T77 2T66 11T65 25L244 925Q245 933 250 938T265 948T292 954T333 956Q357 956 372 955T396 949T407 939T409 925L230 25ZM673 1123Q666 1113 660 1107T644 1098T621 1093T588 1091Q566 1091 553 1094T535 1102T532 1115T541 1134L695 1365Q702 1376 710 1383T730 1394T759 1400T801 1402Q829 1402 845 1399T868 1389T874 1374T864 1356L673 1123Z"/><glyph unicode="î" horiz-adv-x="470" d="M230 25Q228 17 223 12T208 2T182 -4T141 -6Q116 -6 101 -4T77 2T66 11T65 25L244 925Q245 933 250 938T265 948T292 954T333 956Q357 956 372 955T396 949T407 939T409 925L230 25ZM620 1147Q628 1132 630 1122T628 1105T608 1095T567 1091Q546 1091 534 1092T515 1097T503 1106T494 1121L400 1301L234 1121Q226 1111 219 1106T203 1097T180 1093T148 1091Q121 1091 107 1094T88 1104T90 1121T110 1147L320 1376Q327 1384 335 1388T354 1396T380 1400T418 1402Q439 1402 452 1401T475 1396T491 1388T502 1376L620 1147Z"/><glyph unicode="ï" horiz-adv-x="470" d="M230 25Q228 17 223 12T208 2T182 -4T141 -6Q116 -6 101 -4T77 2T66 11T65 25L244 925Q245 933 250 938T265 948T292 954T333 956Q357 956 372 955T396 949T407 939T409 925L230 25ZM136 1216Q141 1243 149 1261T170 1290T202 1305T246 1310Q272 1310 288 1306T312 1290T321 1261T317 1216Q312 1189 304 1171T283 1142T252 1127T208 1122Q182 1122 166 1126T141 1141T132 1170T136 1216ZM446 1216Q451 1243 459 1261T481 1290T513 1305T557 1310Q583 1310 599 1306T623 1290T632 1261T628 1216Q622 1189 614 1171T593 1142T562 1127T519 1122Q493 1122 477 1126T452 1141T442 1170T446 1216Z"/><glyph unicode="ð" horiz-adv-x="1076" d="M419 1070Q400 1065 394 1072T388 1096Q388 1110 391 1125T400 1155T415 1179T438 1193L641 1242L569 1348Q563 1358 561 1366T566 1379T591 1388T642 1391Q671 1391 691 1389T724 1383T746 1373T760 1359L808 1282L1080 1348Q1099 1352 1106 1345T1114 1322Q1114 1312 1112 1297T1105 1268T1089 1241T1064 1226L873 1179Q898 1131 917 1083T950 983T969 879T976 770Q976 700 969 629T947 488T907 355T848 235T771 132T672 52T551 0T406 -19Q316 -19 254 5T154 73T98 179T80 314Q80 377 92 450T128 596T191 736T285 855T411 939T573 970Q609 970 644 962T713 936T774 887T824 812Q814 843 806 880T785 958T753 1044T704 1139L419 1070ZM775 567Q775 625 761 673T721 756T657 809T570 828Q514 828 469 805T389 742T328 651T287 546T262 437T254 336Q254 230 296 176T426 122Q490 122 541 144T630 203T696 287T741 383T767 481T775 567Z"/><glyph unicode="ñ" horiz-adv-x="1053" d="M944 726Q944 691 940 657T929 587L816 25Q814 17 810 12T795 2T768 -4T727 -6Q703 -6 688 -4T664 2T653 11T651 25L762 581Q769 612 771 641T774 692Q774 753 748 790T661 828Q608 828 553 798T450 714T365 587T310 427L230 25Q228 17 223 12T208 2T182 -4T141 -6Q116 -6 101 -4T77 2T66 11T65 25L246 926Q247 933 251 939T265 949T289 954T324 956Q345 956 358 955T379 949T389 939T390 926L356 754Q371 788 405 826T486 896T589 949T707 970Q774 970 819 950T892 896T932 818T944 726ZM999 1327Q999 1321 997 1303T988 1258T968 1204T931 1151T872 1112T788 1096Q751 1096 723 1105T671 1130T629 1162T591 1194T554 1218T513 1228Q473 1228 454 1199T429 1122Q428 1115 425 1110T415 1101T396 1097T364 1096Q347 1096 337 1097T322 1102T315 1111T313 1125Q313 1131 314 1150T323 1195T344 1249T381 1300T438 1339T522 1355Q559 1355 587 1346T639 1321T682 1289T720 1257T756 1233T797 1223Q832 1223 854 1249T882 1328Q883 1344 895 1349T942 1355Q979 1355 989 1349T999 1327Z"/><glyph unicode="ò" horiz-adv-x="1051" d="M977 627Q977 553 963 476T921 328T848 193T745 83T610 9T441 -19Q345 -19 277 4T164 71T99 179T78 324Q78 398 91 475T134 623T206 757T309 868T444 942T613 970Q709 970 777 947T890 879T956 771T977 627ZM803 617Q803 667 793 707T758 774T694 817T598 832Q538 832 489 811T402 753T335 667T288 563T260 449T251 334Q251 284 262 244T297 176T361 133T456 118Q517 118 565 139T652 198T719 284T766 389T794 503T803 617ZM713 1134Q720 1123 721 1115T718 1102T699 1094T663 1091Q643 1091 630 1092T608 1096T592 1106T578 1123L407 1356Q400 1365 400 1373T406 1388T431 1398T478 1402Q502 1402 518 1401T545 1395T563 1384T578 1365L713 1134Z"/><glyph unicode="ó" horiz-adv-x="1051" d="M977 627Q977 553 963 476T921 328T848 193T745 83T610 9T441 -19Q345 -19 277 4T164 71T99 179T78 324Q78 398 91 475T134 623T206 757T309 868T444 942T613 970Q709 970 777 947T890 879T956 771T977 627ZM803 617Q803 667 793 707T758 774T694 817T598 832Q538 832 489 811T402 753T335 667T288 563T260 449T251 334Q251 284 262 244T297 176T361 133T456 118Q517 118 565 139T652 198T719 284T766 389T794 503T803 617ZM723 1123Q716 1113 710 1107T694 1098T671 1093T638 1091Q616 1091 603 1094T585 1102T582 1115T591 1134L745 1365Q752 1376 760 1383T780 1394T809 1400T851 1402Q879 1402 895 1399T918 1389T924 1374T914 1356L723 1123Z"/><glyph unicode="ô" horiz-adv-x="1051" d="M977 627Q977 553 963 476T921 328T848 193T745 83T610 9T441 -19Q345 -19 277 4T164 71T99 179T78 324Q78 398 91 475T134 623T206 757T309 868T444 942T613 970Q709 970 777 947T890 879T956 771T977 627ZM803 617Q803 667 793 707T758 774T694 817T598 832Q538 832 489 811T402 753T335 667T288 563T260 449T251 334Q251 284 262 244T297 176T361 133T456 118Q517 118 565 139T652 198T719 284T766 389T794 503T803 617ZM910 1147Q918 1132 920 1122T918 1105T898 1095T857 1091Q836 1091 824 1092T805 1097T793 1106T784 1121L690 1301L524 1121Q516 1111 509 1106T493 1097T470 1093T438 1091Q411 1091 397 1094T378 1104T380 1121T400 1147L610 1376Q617 1384 625 1388T644 1396T670 1400T708 1402Q729 1402 742 1401T765 1396T781 1388T792 1376L910 1147Z"/><glyph unicode="õ" horiz-adv-x="1051" d="M977 627Q977 553 963 476T921 328T848 193T745 83T610 9T441 -19Q345 -19 277 4T164 71T99 179T78 324Q78 398 91 475T134 623T206 757T309 868T444 942T613 970Q709 970 777 947T890 879T956 771T977 627ZM803 617Q803 667 793 707T758 774T694 817T598 832Q538 832 489 811T402 753T335 667T288 563T260 449T251 334Q251 284 262 244T297 176T361 133T456 118Q517 118 565 139T652 198T719 284T766 389T794 503T803 617ZM1004 1327Q1004 1321 1002 1303T993 1258T973 1204T936 1151T877 1112T793 1096Q756 1096 728 1105T676 1130T634 1162T596 1194T559 1218T518 1228Q478 1228 459 1199T434 1122Q433 1115 430 1110T420 1101T401 1097T369 1096Q352 1096 342 1097T327 1102T320 1111T318 1125Q318 1131 319 1150T328 1195T349 1249T386 1300T443 1339T527 1355Q564 1355 592 1346T644 1321T687 1289T725 1257T761 1233T802 1223Q837 1223 859 1249T887 1328Q888 1344 900 1349T947 1355Q984 1355 994 1349T1004 1327Z"/><glyph unicode="ö" horiz-adv-x="1051" d="M977 627Q977 553 963 476T921 328T848 193T745 83T610 9T441 -19Q345 -19 277 4T164 71T99 179T78 324Q78 398 91 475T134 623T206 757T309 868T444 942T613 970Q709 970 777 947T890 879T956 771T977 627ZM803 617Q803 667 793 707T758 774T694 817T598 832Q538 832 489 811T402 753T335 667T288 563T260 449T251 334Q251 284 262 244T297 176T361 133T456 118Q517 118 565 139T652 198T719 284T766 389T794 503T803 617ZM940 1216Q935 1189 927 1171T907 1142T875 1127T830 1122Q804 1122 787 1126T762 1141T751 1170T754 1216Q758 1243 765 1261T786 1290T817 1305T862 1310Q888 1310 905 1306T931 1290T942 1261T940 1216ZM586 1216Q582 1189 574 1171T553 1142T521 1127T477 1122Q450 1122 433 1126T407 1141T397 1170T400 1216Q404 1243 411 1261T432 1290T463 1305T508 1310Q534 1310 551 1306T577 1290T588 1261T586 1216Z"/><glyph unicode="÷" horiz-adv-x="1020" d="M714 944Q707 910 697 888T671 851T630 830T574 823Q540 823 519 829T488 850T476 887T482 944Q489 977 499 1001T526 1039T566 1060T623 1067Q655 1067 676 1061T708 1040T719 1001T714 944ZM985 609Q985 602 984 592T981 571T974 548T964 527T950 512T934 506H85Q60 506 60 539Q60 546 61 556T66 579T73 603T83 624T96 640T112 646H961Q985 646 985 609ZM567 204Q560 171 550 149T524 112T483 92T426 85Q393 85 372 91T340 112T329 148T334 204Q341 238 351 262T377 300T417 321T474 327Q507 327 528 321T560 301T572 262T567 204Z"/><glyph unicode="ø" horiz-adv-x="1084" d="M902 896Q961 848 985 781T1010 627Q1010 553 997 476T954 328T881 193T775 83T635 9T458 -19Q432 -19 410 -18T367 -13T329 -7T297 2L202 -139Q191 -155 169 -160T113 -166Q67 -166 57 -155T62 -123L183 57Q127 100 103 168T78 324Q78 398 91 475T134 623T208 757T314 868T454 942T630 970Q670 970 708 966T788 948L882 1087Q893 1102 914 1108T969 1114Q1015 1114 1025 1104T1021 1070L902 896ZM846 614Q846 652 837 689T805 756L378 125Q395 119 419 115T476 111Q542 111 595 133T690 193T760 281T809 387T837 501T846 614ZM709 826Q690 832 663 835T612 839Q546 839 493 817T399 757T328 669T279 564T251 450T242 336Q242 289 253 254T283 197L709 826Z"/><glyph unicode="ù" horiz-adv-x="1053" d="M812 25Q811 17 806 11T792 2T769 -4T733 -6Q713 -6 700 -4T679 1T669 11T668 25L701 194Q685 160 651 123T570 53T468 1T355 -19Q287 -19 241 -1T166 50T125 127T112 225Q112 258 116 292T128 362L239 926Q241 933 246 939T261 949T288 954T329 956Q353 956 368 955T392 949T403 939T405 926L295 368Q289 342 286 314T283 257Q283 227 288 203T307 160T342 132T395 122Q448 122 503 152T607 237T692 365T748 528L827 926Q828 933 833 939T849 949T876 954T917 956Q941 956 956 955T980 949T991 939T993 926L812 25ZM687 1134Q694 1123 695 1115T692 1102T673 1094T637 1091Q617 1091 604 1092T582 1096T566 1106T552 1123L381 1356Q374 1365 374 1373T380 1388T405 1398T452 1402Q476 1402 492 1401T519 1395T537 1384T552 1365L687 1134Z"/><glyph unicode="ú" horiz-adv-x="1053" d="M812 25Q811 17 806 11T792 2T769 -4T733 -6Q713 -6 700 -4T679 1T669 11T668 25L701 194Q685 160 651 123T570 53T468 1T355 -19Q287 -19 241 -1T166 50T125 127T112 225Q112 258 116 292T128 362L239 926Q241 933 246 939T261 949T288 954T329 956Q353 956 368 955T392 949T403 939T405 926L295 368Q289 342 286 314T283 257Q283 227 288 203T307 160T342 132T395 122Q448 122 503 152T607 237T692 365T748 528L827 926Q828 933 833 939T849 949T876 954T917 956Q941 956 956 955T980 949T991 939T993 926L812 25ZM720 1123Q713 1113 707 1107T691 1098T668 1093T635 1091Q613 1091 600 1094T582 1102T579 1115T588 1134L742 1365Q749 1376 757 1383T777 1394T806 1400T848 1402Q876 1402 892 1399T915 1389T921 1374T911 1356L720 1123Z"/><glyph unicode="û" horiz-adv-x="1053" d="M812 25Q811 17 806 11T792 2T769 -4T733 -6Q713 -6 700 -4T679 1T669 11T668 25L701 194Q685 160 651 123T570 53T468 1T355 -19Q287 -19 241 -1T166 50T125 127T112 225Q112 258 116 292T128 362L239 926Q241 933 246 939T261 949T288 954T329 956Q353 956 368 955T392 949T403 939T405 926L295 368Q289 342 286 314T283 257Q283 227 288 203T307 160T342 132T395 122Q448 122 503 152T607 237T692 365T748 528L827 926Q828 933 833 939T849 949T876 954T917 956Q941 956 956 955T980 949T991 939T993 926L812 25ZM911 1147Q919 1132 921 1122T919 1105T899 1095T858 1091Q837 1091 825 1092T806 1097T794 1106T785 1121L691 1301L525 1121Q517 1111 510 1106T494 1097T471 1093T439 1091Q412 1091 398 1094T379 1104T381 1121T401 1147L611 1376Q618 1384 626 1388T645 1396T671 1400T709 1402Q730 1402 743 1401T766 1396T782 1388T793 1376L911 1147Z"/><glyph unicode="ü" horiz-adv-x="1053" d="M812 25Q811 17 806 11T792 2T769 -4T733 -6Q713 -6 700 -4T679 1T669 11T668 25L701 194Q685 160 651 123T570 53T468 1T355 -19Q287 -19 241 -1T166 50T125 127T112 225Q112 258 116 292T128 362L239 926Q241 933 246 939T261 949T288 954T329 956Q353 956 368 955T392 949T403 939T405 926L295 368Q289 342 286 314T283 257Q283 227 288 203T307 160T342 132T395 122Q448 122 503 152T607 237T692 365T748 528L827 926Q828 933 833 939T849 949T876 954T917 956Q941 956 956 955T980 949T991 939T993 926L812 25ZM930 1216Q925 1189 917 1171T897 1142T865 1127T820 1122Q794 1122 777 1126T752 1141T741 1170T744 1216Q748 1243 755 1261T776 1290T807 1305T852 1310Q878 1310 895 1306T921 1290T932 1261T930 1216ZM576 1216Q572 1189 564 1171T543 1142T511 1127T467 1122Q440 1122 423 1126T397 1141T387 1170T390 1216Q394 1243 401 1261T422 1290T453 1305T498 1310Q524 1310 541 1306T567 1290T578 1261T576 1216Z"/><glyph unicode="ý" horiz-adv-x="916" d="M931 932Q931 921 929 910T922 888Q889 797 850 699T759 493T638 268T472 22L213 -331Q207 -339 198 -345T176 -355T145 -362T101 -364Q74 -364 57 -362T30 -353T22 -337T34 -313L278 0L129 879Q127 891 126 901T125 918Q125 929 128 936T142 948T168 954T209 956Q236 956 251 955T275 950T287 939T292 922L409 188H411Q473 275 523 365T615 547T692 734T759 926Q761 934 766 939T782 949T811 954T856 956Q901 956 916 950T931 932ZM623 1123Q616 1113 610 1107T594 1098T571 1093T538 1091Q516 1091 503 1094T485 1102T482 1115T491 1134L645 1365Q652 1376 660 1383T680 1394T709 1400T751 1402Q779 1402 795 1399T818 1389T824 1374T814 1356L623 1123Z"/><glyph unicode="þ" horiz-adv-x="1053" d="M976 644Q976 586 965 514T930 367T869 224T778 100T656 14T498 -19Q453 -19 416 -10T348 15T291 52T243 100L158 -332Q156 -340 152 -346T137 -356T111 -362T69 -364Q46 -364 31 -362T6 -356T-5 -346T-7 -332L331 1361Q333 1369 338 1375T354 1385T381 1391T421 1393Q445 1393 460 1391T484 1385T495 1374T496 1361L416 959Q411 935 405 910T392 859T378 807T361 755Q376 789 410 826T490 896T592 949T705 970Q781 970 832 944T916 875T962 772T976 644ZM803 633Q803 676 796 712T772 774T729 814T663 828Q609 828 553 797T449 711T363 583T309 426L276 261Q323 191 377 157T499 122Q552 122 595 147T672 214T730 309T771 419T795 532T803 633Z"/><glyph unicode="ÿ" horiz-adv-x="916" d="M931 932Q931 921 929 910T922 888Q889 797 850 699T759 493T638 268T472 22L213 -331Q207 -339 198 -345T176 -355T145 -362T101 -364Q74 -364 57 -362T30 -353T22 -337T34 -313L278 0L129 879Q127 891 126 901T125 918Q125 929 128 936T142 948T168 954T209 956Q236 956 251 955T275 950T287 939T292 922L409 188H411Q473 275 523 365T615 547T692 734T759 926Q761 934 766 939T782 949T811 954T856 956Q901 956 916 950T931 932ZM843 1216Q838 1189 830 1171T810 1142T778 1127T733 1122Q707 1122 690 1126T665 1141T654 1170T657 1216Q661 1243 668 1261T689 1290T720 1305T765 1310Q791 1310 808 1306T834 1290T845 1261T843 1216ZM489 1216Q485 1189 477 1171T456 1142T424 1127T380 1122Q353 1122 336 1126T310 1141T300 1170T303 1216Q307 1243 314 1261T335 1290T366 1305T411 1310Q437 1310 454 1306T480 1290T491 1261T489 1216Z"/><glyph unicode="Ā" horiz-adv-x="1185" d="M1060 61Q1063 39 1062 26T1051 5T1021 -4T967 -6Q945 -6 929 -5T905 0T892 10T887 25L839 340H300L131 28Q126 18 120 12T102 1T72 -4T26 -6Q-4 -6 -22 -4T-47 6T-51 26T-37 62L637 1264Q644 1275 652 1282T673 1293T706 1298T755 1300Q788 1300 808 1299T841 1293T859 1282T866 1263L1060 61ZM723 1122H722L372 477H820L723 1122ZM1127 1560Q1127 1553 1126 1543T1122 1521T1115 1498T1106 1478T1094 1463T1079 1457H533Q521 1457 515 1464T509 1489Q509 1495 510 1505T513 1526T519 1548T529 1569T542 1584T560 1590H1105Q1117 1590 1122 1582T1127 1560Z"/><glyph unicode="ā" horiz-adv-x="1053" d="M812 25Q808 8 790 1T730 -6Q710 -6 697 -4T676 1T665 10T665 25L698 195Q685 163 651 125T571 55T467 2T351 -19Q271 -19 219 9T135 83T93 187T81 306Q81 362 91 433T125 578T186 722T277 847T400 936T559 970Q648 970 711 934T825 835L844 926Q848 942 867 949T926 956Q946 956 959 955T981 949T991 939T992 926L812 25ZM781 690Q734 759 680 793T557 828Q503 828 460 803T383 735T325 640T285 529T262 417T254 318Q254 283 259 249T280 186T323 140T393 122Q448 122 503 152T607 237T692 364T747 525L781 690ZM947 1262Q947 1256 946 1247T943 1228T937 1206T928 1185T916 1170T900 1164H421Q408 1164 402 1171T395 1196Q395 1203 397 1219T405 1252T420 1280T447 1293H926Q938 1293 942 1285T947 1262Z"/><glyph unicode="Ă" horiz-adv-x="1185" d="M1060 61Q1063 39 1062 26T1051 5T1021 -4T967 -6Q945 -6 929 -5T905 0T892 10T887 25L839 340H300L131 28Q126 18 120 12T102 1T72 -4T26 -6Q-4 -6 -22 -4T-47 6T-51 26T-37 62L637 1264Q644 1275 652 1282T673 1293T706 1298T755 1300Q788 1300 808 1299T841 1293T859 1282T866 1263L1060 61ZM723 1122H722L372 477H820L723 1122ZM1099 1670Q1099 1659 1094 1634T1076 1579T1042 1516T986 1457T904 1413T792 1395Q726 1395 683 1410T614 1452T577 1512T566 1585Q566 1595 567 1609T571 1638T576 1663T584 1679Q591 1686 606 1689T640 1692Q657 1692 668 1691T686 1686T695 1679T698 1668Q698 1658 697 1645T695 1618Q695 1595 700 1576T717 1544T749 1523T802 1516Q831 1516 858 1524T907 1549T947 1594T975 1663Q977 1670 981 1675T994 1684T1014 1690T1044 1692Q1062 1692 1072 1691T1089 1687T1097 1680T1099 1670Z"/><glyph unicode="ă" horiz-adv-x="1053" d="M812 25Q808 8 790 1T730 -6Q710 -6 697 -4T676 1T665 10T665 25L698 195Q685 163 651 125T571 55T467 2T351 -19Q271 -19 219 9T135 83T93 187T81 306Q81 362 91 433T125 578T186 722T277 847T400 936T559 970Q648 970 711 934T825 835L844 926Q848 942 867 949T926 956Q946 956 959 955T981 949T991 939T992 926L812 25ZM781 690Q734 759 680 793T557 828Q503 828 460 803T383 735T325 640T285 529T262 417T254 318Q254 283 259 249T280 186T323 140T393 122Q448 122 503 152T607 237T692 364T747 525L781 690ZM948 1374Q948 1363 944 1338T927 1282T893 1218T839 1158T757 1113T645 1096Q579 1096 537 1111T469 1152T433 1214T422 1287Q422 1297 423 1311T426 1340T432 1367T440 1382Q447 1390 461 1392T494 1395Q512 1395 522 1394T539 1390T548 1383T550 1372Q550 1361 549 1348T547 1319Q547 1296 552 1277T569 1243T602 1221T654 1213Q684 1213 711 1221T760 1248T800 1295T828 1365Q830 1373 834 1378T845 1387T864 1393T894 1395Q912 1395 922 1394T939 1390T946 1383T948 1374Z"/><glyph unicode="Ą" horiz-adv-x="1185" d="M1027 -261Q1027 -268 1026 -278T1022 -300T1015 -321T1007 -334Q1001 -340 987 -345T952 -355T908 -362T860 -365Q814 -365 779 -357T718 -333T680 -294T667 -238Q667 -216 674 -194T697 -148T737 -100T797 -46L887 28L839 340H300L131 28Q126 18 120 12T102 1T72 -4T26 -6Q-4 -6 -22 -4T-47 6T-51 26T-37 62L637 1264Q644 1275 652 1282T673 1293T706 1298T755 1300Q788 1300 808 1299T841 1293T858 1282T866 1263L1055 91Q1059 70 1059 55T1056 29T1044 7T1022 -14L924 -94Q898 -117 882 -134T857 -163T845 -185T842 -202Q842 -219 855 -230T901 -241H1005Q1018 -241 1022 -246T1027 -261ZM724 1123H722L372 477H820L724 1123Z"/><glyph unicode="ą" horiz-adv-x="1053" d="M781 690Q734 759 680 793T557 828Q503 828 460 803T383 735T325 640T285 529T262 417T254 318Q254 283 259 249T280 186T323 140T393 122Q448 122 503 152T607 237T692 364T747 525L781 690ZM698 195Q685 163 651 125T571 55T467 2T351 -19Q271 -19 219 9T135 83T93 187T81 306Q81 362 91 433T125 578T186 722T277 847T400 936T559 970Q648 970 711 934T825 835L844 926Q848 942 867 949T926 956Q946 956 959 955T981 949T991 939T992 926L812 24Q806 -4 796 -21T762 -57L703 -108Q667 -137 653 -158T639 -204Q639 -220 652 -231T692 -242H795Q808 -242 812 -247T816 -263Q816 -269 815 -279T811 -300T805 -320T796 -334Q789 -340 775 -345T741 -355T698 -362T654 -365Q563 -365 518 -333T472 -240Q472 -220 477 -201T495 -159T530 -111T587 -57L661 3L698 195Z"/><glyph unicode="Ć" horiz-adv-x="1070" d="M1145 1162Q1145 1141 1138 1110T1120 1061T1095 1043Q1081 1043 1062 1061T1011 1101T929 1141T802 1160Q718 1160 649 1129T525 1044T427 920T358 774T316 619T302 471Q302 391 322 329T380 223T473 158T598 136Q676 136 732 153T829 192T897 231T941 249Q952 249 957 241T962 217Q962 212 961 203T957 182T953 158T946 134T938 113T923 93T879 64T797 27T688 -3T559 -16Q457 -16 375 14T236 104T147 252T115 456Q115 551 135 651T194 847T291 1026T427 1173T602 1273T815 1310Q888 1310 951 1294T1060 1252T1125 1208T1145 1162ZM897 1426Q886 1417 877 1411T857 1402T832 1397T797 1395Q751 1395 742 1405T753 1438L950 1651Q961 1663 972 1670T997 1682T1028 1687T1071 1689Q1101 1689 1118 1685T1142 1673T1146 1657T1132 1638L897 1426Z"/><glyph unicode="ć" horiz-adv-x="852" d="M854 846Q854 828 851 809T840 774T824 746T802 735Q788 735 773 749T734 782T672 815T576 830Q512 830 463 804T377 735T316 638T277 529T256 423T249 333Q249 230 294 177T428 124Q493 124 539 140T618 176T672 213T709 229Q717 229 721 222T726 200Q726 188 724 172T718 138T707 105T688 78T646 47T577 15T491 -9T396 -19Q235 -19 156 63T76 307Q76 368 86 440T122 586T186 729T282 851T414 937T586 969Q626 969 663 963T732 945T791 918T832 888T850 866T854 846ZM662 1123Q655 1113 649 1107T633 1098T610 1093T577 1091Q555 1091 542 1094T524 1102T521 1115T530 1134L684 1365Q691 1376 699 1383T719 1394T748 1400T790 1402Q818 1402 834 1399T857 1389T863 1374T853 1356L662 1123Z"/><glyph unicode="Č" horiz-adv-x="1070" d="M1145 1162Q1145 1141 1138 1110T1120 1061T1095 1043Q1081 1043 1062 1061T1011 1101T929 1141T802 1160Q718 1160 649 1129T525 1044T427 920T358 774T316 619T302 471Q302 391 322 329T380 223T473 158T598 136Q676 136 732 153T829 192T897 231T941 249Q952 249 957 241T962 217Q962 212 961 203T957 182T953 158T946 134T938 113T923 93T879 64T797 27T688 -3T559 -16Q457 -16 375 14T236 104T147 252T115 456Q115 551 135 651T194 847T291 1026T427 1173T602 1273T815 1310Q888 1310 951 1294T1060 1252T1125 1208T1145 1162ZM921 1424Q912 1415 903 1410T881 1401T854 1397T818 1395Q797 1395 784 1396T761 1400T744 1409T730 1424L561 1651Q554 1661 554 1668T560 1680T581 1687T618 1689Q648 1689 665 1688T691 1684T704 1676T714 1666L834 1494L1027 1662Q1036 1670 1045 1675T1068 1684T1101 1688T1148 1689Q1172 1689 1186 1687T1204 1680T1206 1668T1191 1651L921 1424Z"/><glyph unicode="č" horiz-adv-x="852" d="M854 846Q854 828 851 809T840 774T824 746T802 735Q788 735 773 749T734 782T672 815T576 830Q512 830 463 804T377 735T316 638T277 529T256 423T249 333Q249 230 294 177T428 124Q493 124 539 140T618 176T672 213T709 229Q717 229 721 222T726 200Q726 188 724 172T718 138T707 105T688 78T646 47T577 15T491 -9T396 -19Q235 -19 156 63T76 307Q76 368 86 440T122 586T186 729T282 851T414 937T586 969Q626 969 663 963T732 945T791 918T832 888T850 866T854 846ZM689 1117Q682 1109 674 1104T655 1097T628 1093T589 1091Q569 1091 555 1092T532 1097T518 1105T508 1117L389 1346Q381 1360 379 1371T381 1388T400 1398T441 1402Q461 1402 473 1401T492 1396T503 1387T512 1372L607 1191L773 1372Q780 1381 787 1386T805 1395T828 1400T860 1402Q886 1402 901 1399T920 1389T919 1372T900 1346L689 1117Z"/><glyph unicode="Ď" horiz-adv-x="1260" d="M1221 828Q1221 763 1212 693T1184 552T1133 413T1058 284T955 170T821 80T654 21T433 0H146Q133 0 122 3T102 15T91 36T93 70L323 1224Q330 1263 353 1278T407 1294H680Q829 1294 927 1263T1090 1171T1188 1025T1221 828ZM1039 813Q1039 887 1019 949T954 1055T842 1125T660 1151H480L279 144H457Q579 144 661 173T806 253T913 371T985 512T1026 663T1039 813ZM840 1424Q831 1415 822 1410T800 1401T773 1397T737 1395Q716 1395 703 1396T680 1400T663 1409T649 1424L480 1651Q473 1661 473 1668T479 1680T500 1687T537 1689Q567 1689 584 1688T610 1684T623 1676T633 1666L753 1494L946 1662Q955 1670 964 1675T987 1684T1020 1688T1067 1689Q1091 1689 1105 1687T1123 1680T1125 1668T1110 1651L840 1424Z"/><glyph unicode="ď" horiz-adv-x="1136" d="M813 25Q810 8 792 1T732 -6Q711 -6 698 -4T677 1T667 10T666 25L698 193Q685 160 651 123T571 54T467 2T351 -19Q292 -19 249 -4T176 38T128 98T99 169T85 243T81 311Q81 369 92 441T127 585T188 727T279 850T401 937T559 970Q602 970 640 961T709 935T766 895T813 847L915 1357Q916 1364 921 1370T936 1380T962 1386T1003 1389Q1027 1389 1042 1387T1067 1381T1078 1371T1079 1357L813 25ZM781 687Q734 756 680 792T557 828Q504 828 462 804T385 738T327 644T286 535T262 423T254 322Q254 225 287 174T393 122Q448 122 503 152T607 235T692 361T747 521L781 687ZM1227 1048Q1223 1041 1218 1037T1203 1030T1181 1026T1146 1025Q1132 1025 1124 1027T1111 1033T1107 1042T1109 1056L1237 1361Q1241 1371 1247 1378T1265 1389T1292 1395T1332 1397Q1354 1397 1367 1395T1386 1389T1391 1377T1386 1360L1227 1048Z"/><glyph unicode="Đ" horiz-adv-x="1279" d="M1240 828Q1240 738 1223 642T1169 453T1073 279T929 135T730 37T452 0H163Q136 0 120 15T111 70L217 601H87Q75 601 69 609T63 636Q63 642 64 652T68 675T74 700T84 721T97 737T115 744H246L342 1224Q349 1263 372 1278T425 1294H698Q847 1294 945 1262T1109 1170T1207 1024T1240 828ZM1058 813Q1058 887 1037 949T972 1056T860 1126T678 1151H499L417 744H651Q668 744 672 733T676 709Q676 700 675 689T671 666T664 642T653 621T640 607T624 601H389L298 144H475Q597 144 679 173T825 253T932 371T1004 512T1045 663T1058 813Z"/><glyph unicode="đ" horiz-adv-x="1128" d="M1194 1233Q1205 1233 1212 1226T1219 1200Q1219 1194 1218 1185T1215 1165T1208 1143T1199 1124T1186 1109T1169 1103H1029L813 25Q810 8 792 1T732 -6Q711 -6 698 -4T677 1T667 10T666 25L698 193Q685 160 651 123T571 54T467 2T351 -19Q292 -19 249 -4T176 38T128 98T99 169T85 243T81 311Q81 369 92 441T127 585T188 727T279 850T401 937T559 970Q602 970 640 961T709 935T766 895T813 847L864 1103H624Q612 1103 607 1111T602 1135Q602 1140 602 1149T605 1170T611 1192T620 1212T632 1227T650 1233H890L915 1357Q916 1364 921 1370T936 1380T962 1386T1003 1389Q1027 1389 1042 1387T1067 1381T1078 1371T1079 1357L1055 1233H1194ZM781 687Q734 756 680 792T557 828Q504 828 462 804T385 738T327 644T286 535T262 423T254 322Q254 225 287 174T393 122Q448 122 503 152T607 235T692 361T747 521L781 687Z"/><glyph unicode="Ē" horiz-adv-x="1000" d="M1038 1261Q1038 1256 1038 1246T1035 1223T1029 1198T1019 1175T1005 1158T986 1151H481L399 745H834Q846 745 852 737T858 713Q858 708 857 698T853 675T847 650T838 629T824 613T806 606H372L278 143H793Q803 143 809 135T816 110Q816 104 815 93T812 70T806 46T796 23T782 6T763 0H141Q130 0 120 3T102 15T91 37T93 70L324 1224Q331 1263 355 1278T402 1294H1015Q1038 1294 1038 1261ZM1035 1560Q1035 1553 1034 1543T1030 1521T1023 1498T1014 1478T1002 1463T987 1457H441Q429 1457 423 1464T417 1489Q417 1495 418 1505T421 1526T427 1548T437 1569T450 1584T468 1590H1013Q1025 1590 1030 1582T1035 1560Z"/><glyph unicode="ē" horiz-adv-x="978" d="M925 741Q925 672 893 617T793 523T619 463T365 442H259Q252 409 250 378T247 320Q247 220 296 167T457 114Q521 114 572 123T660 144T722 164T755 174Q764 174 768 168T773 149Q773 139 771 125T765 97T755 69T740 47Q728 35 698 24T625 3T533 -13T433 -19Q344 -19 277 1T166 62T99 166T77 312Q77 377 89 451T129 599T199 739T301 857T439 939T615 970Q699 970 757 949T853 895T908 822T925 741ZM756 726Q756 777 716 808T602 840Q537 840 487 818T399 757T333 669T288 562H390Q495 562 565 575T678 610T738 663T756 726ZM949 1262Q949 1256 948 1247T945 1228T939 1206T930 1185T918 1170T902 1164H423Q410 1164 404 1171T397 1196Q397 1203 399 1219T407 1252T422 1280T449 1293H928Q940 1293 944 1285T949 1262Z"/><glyph unicode="Ė" horiz-adv-x="1000" d="M1038 1261Q1038 1256 1038 1246T1035 1223T1029 1198T1019 1175T1005 1158T986 1151H481L399 745H834Q846 745 852 737T858 713Q858 708 857 698T853 675T847 650T838 629T824 613T806 606H372L278 143H793Q803 143 809 135T816 110Q816 104 815 93T812 70T806 46T796 23T782 6T763 0H141Q130 0 120 3T102 15T91 37T93 70L324 1224Q331 1263 355 1278T402 1294H1015Q1038 1294 1038 1261ZM644 1528Q649 1554 657 1572T680 1602T715 1619T763 1625Q791 1625 809 1620T836 1603T846 1573T842 1528Q837 1502 828 1484T806 1453T772 1436T724 1431Q695 1431 678 1436T651 1453T641 1483T644 1528Z"/><glyph unicode="ė" horiz-adv-x="978" d="M925 741Q925 672 893 617T793 523T619 463T365 442H259Q252 409 250 378T247 320Q247 220 296 167T457 114Q521 114 572 123T660 144T722 164T755 174Q764 174 768 168T773 149Q773 139 771 125T765 97T755 69T740 47Q728 35 698 24T625 3T533 -13T433 -19Q344 -19 277 1T166 62T99 166T77 312Q77 377 89 451T129 599T199 739T301 857T439 939T615 970Q699 970 757 949T853 895T908 822T925 741ZM756 726Q756 777 716 808T602 840Q537 840 487 818T399 757T333 669T288 562H390Q495 562 565 575T678 610T738 663T756 726ZM763 1230Q759 1204 751 1186T728 1156T694 1139T645 1134Q617 1134 600 1139T573 1156T562 1186T564 1230Q568 1257 576 1275T598 1305T632 1322T680 1327Q708 1327 726 1322T753 1306T765 1276T763 1230Z"/><glyph unicode="Ę" horiz-adv-x="1000" d="M780 -261Q780 -269 779 -281T774 -303T768 -322T760 -334Q754 -341 736 -346T696 -356T649 -362T605 -365Q555 -365 519 -356T461 -330T427 -290T416 -237Q416 -217 421 -197T438 -155T470 -112T519 -64L597 0H143Q131 0 121 3T102 15T91 37T93 70L324 1224Q332 1263 355 1278T402 1294H1015Q1027 1294 1032 1286T1038 1260Q1038 1254 1037 1244T1034 1222T1028 1197T1018 1174T1004 1157T985 1151H481L399 745H834Q846 745 852 736T858 712Q858 706 857 696T853 674T847 651T837 629T823 612T805 606H372L278 143H792Q804 143 810 135T816 110Q816 102 815 87T810 56T799 25T782 1L643 -114Q609 -142 598 -162T586 -200Q586 -219 598 -230T649 -241H759Q771 -241 775 -245T780 -261Z"/><glyph unicode="ę" horiz-adv-x="978" d="M756 726Q756 777 716 808T602 840Q537 840 487 818T399 757T333 669T288 562H390Q501 562 572 576T684 614T740 666T756 726ZM508 -12Q492 -14 473 -16T427 -19Q341 -19 275 1T165 63T99 166T77 312Q77 377 89 451T129 599T199 739T301 857T439 939T615 970Q699 970 757 949T853 895T908 822T925 741Q925 677 896 623T800 528T627 465T365 442H259Q252 409 250 378T247 320Q247 220 296 167T457 114Q521 114 572 123T661 144T722 164T755 174Q765 174 769 167T773 149Q773 135 771 118T760 80T735 39T692 -5L577 -103Q539 -134 522 -157T505 -205Q505 -220 518 -231T564 -242H678Q691 -242 695 -247T699 -262Q699 -268 698 -278T694 -300T688 -320T679 -334Q672 -340 657 -345T620 -355T574 -362T526 -365Q432 -365 385 -333T338 -241Q338 -220 343 -200T361 -158T395 -112T450 -60L508 -12Z"/><glyph unicode="Ě" horiz-adv-x="1000" d="M1038 1261Q1038 1256 1038 1246T1035 1223T1029 1198T1019 1175T1005 1158T986 1151H481L399 745H834Q846 745 852 737T858 713Q858 708 857 698T853 675T847 650T838 629T824 613T806 606H372L278 143H793Q803 143 809 135T816 110Q816 104 815 93T812 70T806 46T796 23T782 6T763 0H141Q130 0 120 3T102 15T91 37T93 70L324 1224Q331 1263 355 1278T402 1294H1015Q1038 1294 1038 1261ZM799 1424Q790 1415 781 1410T759 1401T732 1397T696 1395Q675 1395 662 1396T639 1400T622 1409T608 1424L439 1651Q432 1661 432 1668T438 1680T459 1687T496 1689Q526 1689 543 1688T569 1684T582 1676T592 1666L712 1494L905 1662Q914 1670 923 1675T946 1684T979 1688T1026 1689Q1050 1689 1064 1687T1082 1680T1084 1668T1069 1651L799 1424Z"/><glyph unicode="ě" horiz-adv-x="978" d="M925 741Q925 672 893 617T793 523T619 463T365 442H259Q252 409 250 378T247 320Q247 220 296 167T457 114Q521 114 572 123T660 144T722 164T755 174Q764 174 768 168T773 149Q773 139 771 125T765 97T755 69T740 47Q728 35 698 24T625 3T533 -13T433 -19Q344 -19 277 1T166 62T99 166T77 312Q77 377 89 451T129 599T199 739T301 857T439 939T615 970Q699 970 757 949T853 895T908 822T925 741ZM756 726Q756 777 716 808T602 840Q537 840 487 818T399 757T333 669T288 562H390Q495 562 565 575T678 610T738 663T756 726ZM723 1117Q716 1109 708 1104T689 1097T662 1093T623 1091Q603 1091 589 1092T566 1097T552 1105T542 1117L423 1346Q415 1360 413 1371T415 1388T434 1398T475 1402Q495 1402 507 1401T526 1396T537 1387T546 1372L641 1191L807 1372Q814 1381 821 1386T839 1395T862 1400T894 1402Q920 1402 935 1399T954 1389T953 1372T934 1346L723 1117Z"/><glyph unicode="Ğ" horiz-adv-x="1292" d="M1279 1153Q1279 1146 1278 1136T1274 1114T1267 1090T1258 1068T1247 1053T1234 1047Q1219 1047 1194 1065T1126 1105T1022 1146T876 1165Q787 1165 710 1139T567 1066T451 956T365 818T311 661T292 495Q292 407 317 340T391 226T507 157T659 133Q721 133 788 147T914 192L989 567H690Q678 567 672 575T665 600Q665 607 666 618T670 642T677 666T688 687T701 702T718 708H1129Q1157 708 1169 689T1175 638L1075 140Q1071 121 1065 110T1050 89Q1041 80 1005 63T913 27T788 -4T642 -18Q512 -18 413 15T247 113T145 268T110 474Q110 581 134 684T205 881T318 1053T473 1189T666 1279T893 1312Q963 1312 1024 1300T1133 1270T1214 1231T1259 1199T1275 1178T1279 1153ZM1188 1670Q1188 1659 1183 1634T1165 1579T1131 1516T1075 1457T993 1413T881 1395Q815 1395 772 1410T703 1452T666 1512T655 1585Q655 1595 656 1609T660 1638T665 1663T673 1679Q680 1686 695 1689T729 1692Q746 1692 757 1691T775 1686T784 1679T787 1668Q787 1658 786 1645T784 1618Q784 1595 789 1576T806 1544T838 1523T891 1516Q920 1516 947 1524T996 1549T1036 1594T1064 1663Q1066 1670 1070 1675T1083 1684T1103 1690T1133 1692Q1151 1692 1161 1691T1178 1687T1186 1680T1188 1670Z"/><glyph unicode="ğ" horiz-adv-x="1053" d="M797 -46Q781 -126 746 -186T655 -285T525 -345T353 -365Q270 -365 202 -349T92 -309Q77 -299 72 -290T66 -265Q66 -259 66 -248T69 -226T75 -203T84 -182T98 -167T115 -161Q127 -161 145 -171T193 -195T267 -219T377 -230Q431 -230 474 -219T550 -186T603 -130T634 -49Q651 42 668 102T696 195Q680 158 645 121T564 52T463 1T351 -19Q276 -19 224 6T141 74T95 177T81 306Q81 364 92 436T127 582T188 725T279 849T401 937T559 970Q648 970 711 934T825 835L844 926Q848 942 867 949T926 956Q946 956 959 955T981 949T991 939T992 926L797 -46ZM781 690Q734 759 680 793T557 828Q503 828 460 803T384 737T325 641T285 531T262 419T254 318Q254 275 261 239T285 178T328 137T393 122Q448 122 503 152T607 237T692 364T747 525L781 690ZM955 1374Q955 1363 951 1338T934 1282T900 1218T846 1158T764 1113T652 1096Q586 1096 544 1111T476 1152T440 1214T429 1287Q429 1297 430 1311T433 1340T439 1367T447 1382Q454 1390 468 1392T501 1395Q519 1395 529 1394T546 1390T555 1383T557 1372Q557 1361 556 1348T554 1319Q554 1296 559 1277T576 1243T609 1221T661 1213Q691 1213 718 1221T767 1248T807 1295T835 1365Q837 1373 841 1378T852 1387T871 1393T901 1395Q919 1395 929 1394T946 1390T953 1383T955 1374Z"/><glyph unicode="Ģ" horiz-adv-x="1292" d="M1279 1153Q1279 1146 1278 1136T1274 1114T1267 1090T1258 1068T1247 1053T1234 1047Q1219 1047 1194 1065T1126 1105T1022 1146T876 1165Q787 1165 710 1139T567 1066T451 956T365 818T311 661T292 495Q292 407 317 340T391 226T507 157T659 133Q721 133 788 147T914 192L989 567H690Q678 567 672 575T665 600Q665 607 666 618T670 642T677 666T688 687T701 702T718 708H1129Q1157 708 1169 689T1175 638L1075 140Q1071 121 1065 110T1050 89Q1041 80 1005 63T913 27T788 -4T642 -18Q512 -18 413 15T247 113T145 268T110 474Q110 581 134 684T205 881T318 1053T473 1189T666 1279T893 1312Q963 1312 1024 1300T1133 1270T1214 1231T1259 1199T1275 1178T1279 1153ZM504 -334Q497 -344 491 -350T474 -359T450 -363T415 -365Q395 -365 384 -363T369 -355T367 -342T374 -323L472 -121Q477 -110 484 -103T503 -91T532 -85T577 -83Q603 -83 617 -86T637 -96T641 -111T632 -131L504 -334Z"/><glyph unicode="ģ" horiz-adv-x="1053" d="M797 -46Q781 -126 746 -186T655 -285T525 -345T353 -365Q270 -365 202 -349T92 -309Q77 -299 72 -290T66 -265Q66 -259 66 -248T69 -226T75 -203T84 -182T98 -167T115 -161Q127 -161 145 -171T193 -195T267 -219T377 -230Q431 -230 474 -219T550 -186T603 -130T634 -49Q651 42 668 102T696 195Q680 158 645 121T564 52T463 1T351 -19Q276 -19 224 6T141 74T95 177T81 306Q81 364 92 436T127 582T188 725T279 849T401 937T559 970Q648 970 711 934T825 835L844 926Q848 942 867 949T926 956Q946 956 959 955T981 949T991 939T992 926L797 -46ZM781 690Q734 759 680 793T557 828Q503 828 460 803T384 737T325 641T285 531T262 419T254 318Q254 275 261 239T285 178T328 137T393 122Q448 122 503 152T607 237T692 364T747 525L781 690ZM745 1102Q739 1092 732 1085T714 1074T686 1069T643 1067Q615 1067 600 1070T577 1079T571 1093T579 1112L736 1353Q742 1363 749 1369T768 1378T794 1383T832 1384Q850 1384 861 1382T876 1374T881 1360T875 1342L745 1102Z"/><glyph unicode="ħ" horiz-adv-x="1066" d="M956 715Q956 679 953 645T941 575L832 25Q830 17 825 12T810 2T783 -4T742 -6Q718 -6 703 -4T679 2T668 11T667 25L775 570Q779 595 783 628T787 685Q787 743 762 780T673 817Q620 817 566 786T463 701T377 573T323 413L245 25Q243 17 238 12T223 2T196 -4T156 -6Q131 -6 116 -4T92 2T80 11T80 25L294 1103H153Q141 1103 136 1111T130 1135Q130 1141 131 1151T135 1173T141 1194T150 1213T163 1227T179 1233H320L347 1362Q348 1370 353 1376T368 1386T395 1392T436 1394Q460 1394 475 1392T499 1386T510 1376T512 1362L486 1233H725Q737 1233 743 1226T749 1201Q749 1195 748 1186T745 1166T738 1144T728 1124T716 1109T699 1103H459L428 944Q423 917 416 890T402 837T388 788T374 746Q391 781 425 818T505 887T605 938T719 959Q783 959 828 941T901 890T943 813T956 715Z"/><glyph unicode="Ī" horiz-adv-x="516" d="M256 25Q255 18 250 12T233 3T205 -3T164 -6Q138 -6 122 -4T97 2T85 12T84 25L332 1269Q333 1276 339 1282T357 1291T384 1297T425 1300Q449 1300 465 1298T490 1292T503 1282T504 1269L256 25ZM778 1560Q778 1553 777 1543T773 1521T766 1498T757 1478T745 1463T730 1457H184Q172 1457 166 1464T160 1489Q160 1495 161 1505T164 1526T170 1548T180 1569T193 1584T211 1590H756Q768 1590 773 1582T778 1560Z"/><glyph unicode="ī" horiz-adv-x="470" d="M230 25Q228 17 223 12T208 2T182 -4T141 -6Q116 -6 101 -4T77 2T66 11T65 25L244 925Q245 933 250 938T265 948T292 954T333 956Q357 956 372 955T396 949T407 939T409 925L230 25ZM657 1262Q657 1256 656 1247T653 1228T647 1206T638 1185T626 1170T610 1164H131Q118 1164 112 1171T105 1196Q105 1203 107 1219T115 1252T130 1280T157 1293H636Q648 1293 652 1285T657 1262Z"/><glyph unicode="Į" horiz-adv-x="516" d="M264 -261Q264 -269 262 -280T258 -302T252 -321T244 -334Q239 -339 223 -344T186 -354T138 -362T87 -365Q38 -365 3 -356T-55 -330T-88 -289T-99 -235Q-99 -214 -94 -194T-77 -153T-43 -109T8 -60L84 3Q81 6 81 11T84 24L332 1269Q333 1276 339 1282T357 1292T385 1298T425 1300Q450 1300 466 1298T491 1292T503 1282T505 1269L256 24Q252 8 245 -6T225 -32L133 -109Q96 -139 82 -160T68 -200Q68 -218 82 -229T129 -241H242Q254 -241 259 -246T264 -261Z"/><glyph unicode="į" horiz-adv-x="470" d="M244 924Q245 932 250 938T265 948T291 954T333 956Q357 956 372 954T396 948T407 938T409 924L230 25Q226 4 216 -13T190 -43L115 -105Q77 -137 61 -158T45 -202Q45 -220 58 -231T103 -243H214Q227 -243 232 -248T237 -263Q237 -269 236 -279T231 -301T224 -321T216 -335Q210 -341 194 -346T157 -355T112 -362T67 -365Q-28 -365 -74 -333T-120 -237Q-120 -218 -116 -198T-99 -156T-65 -109T-9 -56L60 2L244 924ZM489 1228Q484 1200 476 1181T453 1151T418 1134T367 1129Q338 1129 319 1134T291 1150T281 1181T285 1228Q291 1256 300 1274T322 1305T357 1322T408 1327Q437 1327 455 1323T483 1306T494 1275T489 1228Z"/><glyph unicode="İ" horiz-adv-x="516" d="M256 25Q255 18 250 12T233 3T205 -3T164 -6Q138 -6 122 -4T97 2T85 12T84 25L332 1269Q333 1276 339 1282T357 1291T384 1297T425 1300Q449 1300 465 1298T490 1292T503 1282T504 1269L256 25ZM371 1528Q376 1554 384 1572T407 1602T442 1619T490 1625Q518 1625 536 1620T563 1603T573 1573T569 1528Q564 1502 555 1484T533 1453T499 1436T451 1431Q422 1431 405 1436T378 1453T368 1483T371 1528Z"/><glyph unicode="ı" horiz-adv-x="470" d="M230 25Q228 17 223 12T208 2T182 -4T141 -6Q116 -6 101 -4T77 2T66 11T65 25L244 925Q245 933 250 938T265 948T292 954T333 956Q357 956 372 955T396 949T407 939T409 925L230 25Z"/><glyph unicode="Ķ" horiz-adv-x="1064" d="M1151 1267Q1151 1254 1141 1239T1108 1203L571 679L910 76Q919 59 922 49T926 30Q926 21 922 14T909 3T882 -3T837 -6Q809 -6 792 -4T764 1T748 11T738 27L384 673L256 26Q255 18 250 12T233 3T205 -3T164 -6Q139 -6 123 -4T97 2T85 12T84 26L332 1269Q333 1276 339 1282T356 1291T384 1297T425 1300Q449 1300 465 1298T491 1292T503 1282T505 1269L390 693L956 1267Q964 1276 973 1282T995 1292T1026 1298T1068 1300Q1094 1300 1110 1298T1135 1291T1147 1281T1151 1267ZM392 -334Q385 -344 379 -350T362 -359T338 -363T303 -365Q283 -365 272 -363T257 -355T255 -342T262 -323L360 -121Q365 -110 372 -103T391 -91T420 -85T465 -83Q491 -83 505 -86T525 -96T529 -111T520 -131L392 -334Z"/><glyph unicode="ķ" horiz-adv-x="931" d="M947 928Q947 916 939 903T905 867L514 532L783 79Q793 61 797 49T801 29Q801 20 797 14T783 3T755 -3T711 -6Q683 -6 667 -5T641 1T626 11T617 26L329 524L230 25Q228 17 223 12T208 2T181 -4T140 -6Q116 -6 101 -4T77 1T65 11T64 25L331 1361Q333 1369 337 1375T352 1385T379 1391T421 1393Q445 1393 460 1391T484 1385T495 1375T496 1361L333 547L750 924Q758 933 768 939T791 949T821 954T863 956Q887 956 903 955T929 950T943 941T947 928ZM323 -334Q316 -344 310 -350T293 -359T269 -363T234 -365Q214 -365 203 -363T188 -355T186 -342T193 -323L291 -121Q296 -110 303 -103T322 -91T351 -85T396 -83Q422 -83 436 -86T456 -96T460 -111T451 -131L323 -334Z"/><glyph unicode="ĸ" horiz-adv-x="931" d="M796 30Q796 21 792 14T776 3T747 -3T701 -6Q678 -6 663 -5T637 1T621 11T610 26L323 490L230 25Q228 17 223 12T208 2T182 -4T141 -6Q116 -6 101 -4T77 1T66 11T65 25L244 926Q245 933 250 939T265 949T292 954T333 956Q357 956 372 955T396 949T407 939T409 926L327 512L763 924Q772 934 781 940T803 950T832 955T874 956Q898 956 914 955T939 950T951 941T955 929Q955 924 954 918T948 904T936 887T917 866L506 503L779 79Q789 61 792 50T796 30Z"/><glyph unicode="Ĺ" horiz-adv-x="861" d="M769 115Q769 110 768 99T764 75T758 49T748 25T734 7T716 0H143Q131 0 121 3T102 15T91 37T93 70L332 1269Q333 1276 339 1282T356 1291T384 1297T425 1300Q449 1300 465 1298T491 1292T503 1282T504 1269L281 149H745Q758 149 763 140T769 115ZM622 1426Q611 1417 602 1411T582 1402T557 1397T522 1395Q476 1395 467 1405T478 1438L675 1651Q686 1663 697 1670T722 1682T753 1687T796 1689Q826 1689 843 1685T867 1673T871 1657T857 1638L622 1426Z"/><glyph unicode="ĺ" horiz-adv-x="470" d="M230 25Q228 17 223 12T208 2T182 -4T141 -6Q116 -6 101 -4T77 2T66 11T65 25L331 1361Q333 1369 337 1375T352 1385T379 1391T421 1393Q445 1393 460 1391T484 1385T495 1375T496 1361L230 25ZM545 1509Q534 1500 525 1494T505 1485T480 1480T445 1478Q399 1478 390 1488T401 1521L598 1734Q609 1746 620 1753T645 1765T676 1770T719 1772Q749 1772 766 1768T790 1756T794 1740T780 1721L545 1509Z"/><glyph unicode="Ļ" horiz-adv-x="861" d="M769 115Q769 110 768 99T764 75T758 49T748 25T734 7T716 0H143Q131 0 121 3T102 15T91 37T93 70L332 1269Q333 1276 339 1282T356 1291T384 1297T425 1300Q449 1300 465 1298T491 1292T503 1282T504 1269L281 149H745Q758 149 763 140T769 115ZM338 -334Q331 -344 325 -350T308 -359T284 -363T249 -365Q229 -365 218 -363T203 -355T201 -342T208 -323L306 -121Q311 -110 318 -103T337 -91T366 -85T411 -83Q437 -83 451 -86T471 -96T475 -111T466 -131L338 -334Z"/><glyph unicode="ļ" horiz-adv-x="470" d="M230 25Q228 17 223 12T208 2T182 -4T141 -6Q116 -6 101 -4T77 2T66 11T65 25L331 1361Q333 1369 337 1375T352 1385T379 1391T421 1393Q445 1393 460 1391T484 1385T495 1375T496 1361L230 25ZM320 -334Q313 -344 307 -350T290 -359T266 -363T231 -365Q211 -365 200 -363T185 -355T183 -342T190 -323L288 -121Q293 -110 300 -103T319 -91T348 -85T393 -83Q419 -83 433 -86T453 -96T457 -111T448 -131L320 -334Z"/><glyph unicode="Ľ" horiz-adv-x="866" d="M769 115Q769 110 768 99T764 75T758 49T748 25T734 7T716 0H143Q131 0 121 3T102 15T91 37T93 70L332 1269Q333 1276 339 1282T356 1291T384 1297T425 1300Q449 1300 465 1298T491 1292T503 1282T504 1269L281 149H745Q758 149 763 140T769 115ZM748 1002Q744 995 739 991T724 984T702 980T667 979Q653 979 645 981T632 987T628 996T630 1010L758 1315Q762 1325 768 1332T786 1343T813 1349T853 1351Q875 1351 888 1349T907 1343T912 1331T907 1314L748 1002Z"/><glyph unicode="ľ" horiz-adv-x="540" d="M230 25Q228 17 223 12T208 2T182 -4T141 -6Q116 -6 101 -4T77 2T66 11T65 25L331 1361Q333 1369 337 1375T352 1385T379 1391T421 1393Q445 1393 460 1391T484 1385T495 1375T496 1361L230 25ZM628 1048Q624 1041 619 1037T604 1030T582 1026T547 1025Q533 1025 525 1027T512 1033T508 1042T510 1056L638 1361Q642 1371 648 1378T666 1389T693 1395T733 1397Q755 1397 768 1395T787 1389T792 1377T787 1360L628 1048Z"/><glyph unicode="Ł" horiz-adv-x="880" d="M788 115Q788 110 787 100T783 76T777 49T767 25T753 7T734 0H160Q133 0 118 17T111 70L206 543L69 465Q50 454 43 461T35 488Q35 494 36 504T39 527T45 552T54 576T65 596T79 609L237 697L351 1269Q352 1276 358 1282T374 1292T402 1298T444 1300Q469 1300 485 1298T510 1292T522 1282T523 1269L430 805L680 944Q698 954 705 947T712 923Q712 917 711 907T708 885T703 860T695 836T684 815T671 801L399 651L299 149H765Q777 149 782 139T788 115Z"/><glyph unicode="ł" horiz-adv-x="507" d="M583 995Q583 983 582 971T578 946T571 923T562 902T552 886T540 876L403 799L248 25Q246 18 242 13T227 3T201 -4T159 -6Q134 -6 119 -4T95 2T84 11T83 25L217 695L95 626Q80 617 73 623T65 648Q65 660 68 678T77 713T91 745T110 765L246 842L349 1361Q351 1369 356 1375T373 1385T400 1391T441 1393Q465 1393 480 1391T503 1385T514 1375T515 1361L433 946L555 1015Q567 1021 575 1016T583 995Z"/><glyph unicode="Ń" horiz-adv-x="1320" d="M1068 71Q1065 51 1056 37T1036 14T1011 1T985 -3H920Q894 -3 876 3T845 23T821 61T798 120L555 810Q530 884 506 957T458 1105H456Q443 1023 428 942T397 780L247 26Q245 18 240 12T224 3T197 -3T157 -6Q134 -6 119 -4T95 2T85 12T84 26L322 1220Q330 1260 355 1277T407 1294H486Q510 1294 528 1289T559 1271T582 1238T604 1185L849 486Q872 421 894 356T939 225H941Q955 307 971 395T1004 565L1145 1266Q1147 1274 1152 1279T1167 1289T1192 1295T1232 1297Q1255 1297 1270 1295T1294 1289T1306 1280T1308 1266L1068 71ZM946 1426Q935 1417 926 1411T906 1402T881 1397T846 1395Q800 1395 791 1405T802 1438L999 1651Q1010 1663 1021 1670T1046 1682T1077 1687T1120 1689Q1150 1689 1167 1685T1191 1673T1195 1657T1181 1638L946 1426Z"/><glyph unicode="ń" horiz-adv-x="1053" d="M944 726Q944 691 940 657T929 587L816 25Q814 17 810 12T795 2T768 -4T727 -6Q703 -6 688 -4T664 2T653 11T651 25L762 581Q769 612 771 641T774 692Q774 753 748 790T661 828Q608 828 553 798T450 714T365 587T310 427L230 25Q228 17 223 12T208 2T182 -4T141 -6Q116 -6 101 -4T77 2T66 11T65 25L246 926Q247 933 251 939T265 949T289 954T324 956Q345 956 358 955T379 949T389 939T390 926L356 754Q371 788 405 826T486 896T589 949T707 970Q774 970 819 950T892 896T932 818T944 726ZM742 1123Q735 1113 729 1107T713 1098T690 1093T657 1091Q635 1091 622 1094T604 1102T601 1115T610 1134L764 1365Q771 1376 779 1383T799 1394T828 1400T870 1402Q898 1402 914 1399T937 1389T943 1374T933 1356L742 1123Z"/><glyph unicode="Ņ" horiz-adv-x="1320" d="M1068 71Q1065 51 1056 37T1036 14T1011 1T985 -3H920Q894 -3 876 3T845 23T821 61T798 120L555 810Q530 884 506 957T458 1105H456Q443 1023 428 942T397 780L247 26Q245 18 240 12T224 3T197 -3T157 -6Q134 -6 119 -4T95 2T85 12T84 26L322 1220Q330 1260 355 1277T407 1294H486Q510 1294 528 1289T559 1271T582 1238T604 1185L849 486Q872 421 894 356T939 225H941Q955 307 971 395T1004 565L1145 1266Q1147 1274 1152 1279T1167 1289T1192 1295T1232 1297Q1255 1297 1270 1295T1294 1289T1306 1280T1308 1266L1068 71ZM469 -334Q462 -344 456 -350T439 -359T415 -363T380 -365Q360 -365 349 -363T334 -355T332 -342T339 -323L437 -121Q442 -110 449 -103T468 -91T497 -85T542 -83Q568 -83 582 -86T602 -96T606 -111T597 -131L469 -334Z"/><glyph unicode="ņ" horiz-adv-x="1053" d="M944 726Q944 691 940 657T929 587L816 25Q814 17 810 12T795 2T768 -4T727 -6Q703 -6 688 -4T664 2T653 11T651 25L762 581Q769 612 771 641T774 692Q774 753 748 790T661 828Q608 828 553 798T450 714T365 587T310 427L230 25Q228 17 223 12T208 2T182 -4T141 -6Q116 -6 101 -4T77 2T66 11T65 25L246 926Q247 933 251 939T265 949T289 954T324 956Q345 956 358 955T379 949T389 939T390 926L356 754Q371 788 405 826T486 896T589 949T707 970Q774 970 819 950T892 896T932 818T944 726ZM374 -334Q367 -344 361 -350T344 -359T320 -363T285 -365Q265 -365 254 -363T239 -355T237 -342T244 -323L342 -121Q347 -110 354 -103T373 -91T402 -85T447 -83Q473 -83 487 -86T507 -96T511 -111T502 -131L374 -334Z"/><glyph unicode="Ň" horiz-adv-x="1320" d="M1068 71Q1065 51 1056 37T1036 14T1011 1T985 -3H920Q894 -3 876 3T845 23T821 61T798 120L555 810Q530 884 506 957T458 1105H456Q443 1023 428 942T397 780L247 26Q245 18 240 12T224 3T197 -3T157 -6Q134 -6 119 -4T95 2T85 12T84 26L322 1220Q330 1260 355 1277T407 1294H486Q510 1294 528 1289T559 1271T582 1238T604 1185L849 486Q872 421 894 356T939 225H941Q955 307 971 395T1004 565L1145 1266Q1147 1274 1152 1279T1167 1289T1192 1295T1232 1297Q1255 1297 1270 1295T1294 1289T1306 1280T1308 1266L1068 71ZM951 1424Q942 1415 933 1410T911 1401T884 1397T848 1395Q827 1395 814 1396T791 1400T774 1409T760 1424L591 1651Q584 1661 584 1668T590 1680T611 1687T648 1689Q678 1689 695 1688T721 1684T734 1676T744 1666L864 1494L1057 1662Q1066 1670 1075 1675T1098 1684T1131 1688T1178 1689Q1202 1689 1216 1687T1234 1680T1236 1668T1221 1651L951 1424Z"/><glyph unicode="ň" horiz-adv-x="1053" d="M944 726Q944 691 940 657T929 587L816 25Q814 17 810 12T795 2T768 -4T727 -6Q703 -6 688 -4T664 2T653 11T651 25L762 581Q769 612 771 641T774 692Q774 753 748 790T661 828Q608 828 553 798T450 714T365 587T310 427L230 25Q228 17 223 12T208 2T182 -4T141 -6Q116 -6 101 -4T77 2T66 11T65 25L246 926Q247 933 251 939T265 949T289 954T324 956Q345 956 358 955T379 949T389 939T390 926L356 754Q371 788 405 826T486 896T589 949T707 970Q774 970 819 950T892 896T932 818T944 726ZM753 1117Q746 1109 738 1104T719 1097T692 1093T653 1091Q633 1091 619 1092T596 1097T582 1105T572 1117L453 1346Q445 1360 443 1371T445 1388T464 1398T505 1402Q525 1402 537 1401T556 1396T567 1387T576 1372L671 1191L837 1372Q844 1381 851 1386T869 1395T892 1400T924 1402Q950 1402 965 1399T984 1389T983 1372T964 1346L753 1117Z"/><glyph unicode="Ō" horiz-adv-x="1340" d="M1298 860Q1298 783 1284 688T1237 495T1150 305T1015 141T825 25T573 -19Q459 -19 373 9T230 94T143 234T114 426Q114 512 129 611T178 808T268 998T404 1159T593 1271T841 1313Q954 1313 1039 1284T1182 1197T1269 1055T1298 860ZM1114 848Q1114 918 1098 976T1047 1077T954 1142T814 1166Q710 1166 632 1128T496 1027T401 887T341 728T309 573T299 443Q299 372 314 315T366 216T459 153T600 130Q703 130 781 167T916 266T1011 404T1072 561T1104 716T1114 848ZM1202 1560Q1202 1553 1201 1543T1197 1521T1190 1498T1181 1478T1169 1463T1154 1457H608Q596 1457 590 1464T584 1489Q584 1495 585 1505T588 1526T594 1548T604 1569T617 1584T635 1590H1180Q1192 1590 1197 1582T1202 1560Z"/><glyph unicode="ō" horiz-adv-x="1051" d="M977 627Q977 553 963 476T921 328T848 193T745 83T610 9T441 -19Q345 -19 277 4T164 71T99 179T78 324Q78 398 91 475T134 623T206 757T309 868T444 942T613 970Q709 970 777 947T890 879T956 771T977 627ZM803 617Q803 667 793 707T758 774T694 817T598 832Q538 832 489 811T402 753T335 667T288 563T260 449T251 334Q251 284 262 244T297 176T361 133T456 118Q517 118 565 139T652 198T719 284T766 389T794 503T803 617ZM953 1262Q953 1256 952 1247T949 1228T943 1206T934 1185T922 1170T906 1164H427Q414 1164 408 1171T401 1196Q401 1203 403 1219T411 1252T426 1280T453 1293H932Q944 1293 948 1285T953 1262Z"/><glyph unicode="Ő" horiz-adv-x="1340" d="M1298 860Q1298 783 1284 688T1237 495T1150 305T1015 141T825 25T573 -19Q459 -19 373 9T230 94T143 234T114 426Q114 512 129 611T178 808T268 998T404 1159T593 1271T841 1313Q954 1313 1039 1284T1182 1197T1269 1055T1298 860ZM1114 848Q1114 918 1098 976T1047 1077T954 1142T814 1166Q710 1166 632 1128T496 1027T401 887T341 728T309 573T299 443Q299 372 314 315T366 216T459 153T600 130Q703 130 781 167T916 266T1011 404T1072 561T1104 716T1114 848ZM1132 1417Q1124 1409 1117 1405T1100 1398T1077 1396T1043 1395Q1024 1395 1011 1397T991 1403T983 1413T988 1427L1177 1664Q1184 1671 1192 1676T1212 1685T1244 1690T1291 1692Q1325 1692 1344 1689T1373 1680T1380 1666T1370 1650L1132 1417ZM752 1416Q744 1409 736 1405T718 1398T694 1396T660 1395Q627 1395 616 1404T616 1429L796 1663Q803 1671 811 1676T831 1685T860 1690T902 1692Q940 1692 962 1689T993 1681T999 1666T984 1645L752 1416Z"/><glyph unicode="ő" horiz-adv-x="1051" d="M977 627Q977 553 963 476T921 328T848 193T745 83T610 9T441 -19Q345 -19 277 4T164 71T99 179T78 324Q78 398 91 475T134 623T206 757T309 868T444 942T613 970Q709 970 777 947T890 879T956 771T977 627ZM803 617Q803 667 793 707T758 774T694 817T598 832Q538 832 489 811T402 753T335 667T288 563T260 449T251 334Q251 284 262 244T297 176T361 133T456 118Q517 118 565 139T652 198T719 284T766 389T794 503T803 617ZM872 1088Q865 1081 858 1077T841 1071T820 1068T791 1067Q756 1067 743 1074T741 1096L933 1358Q938 1366 945 1370T964 1378T992 1382T1037 1384Q1065 1384 1082 1381T1105 1372T1110 1356T1096 1335L872 1088ZM534 1088Q529 1082 522 1078T506 1072T485 1068T457 1067Q438 1067 426 1068T408 1073T402 1083T407 1097L589 1355Q594 1363 602 1368T621 1377T648 1382T688 1384Q719 1384 737 1381T763 1372T768 1356T754 1334L534 1088Z"/><glyph unicode="Œ" horiz-adv-x="1775" d="M1590 110Q1590 105 1590 95T1587 72T1580 47T1571 24T1558 7T1539 0H924Q915 0 906 2T890 10T878 25T875 48Q810 15 736 -2T577 -19Q481 -19 409 -1T285 50T201 126T149 218T122 319T114 422Q114 513 129 614T180 815T271 1004T408 1163T597 1272T844 1313Q884 1313 923 1309T996 1296T1062 1277T1117 1252Q1128 1276 1145 1285T1181 1294H1790Q1804 1294 1808 1285T1813 1259Q1813 1253 1812 1243T1809 1220T1803 1196T1793 1174T1779 1157T1761 1151H1255L1174 744H1608Q1621 744 1626 735T1632 710Q1632 704 1631 694T1627 671T1620 647T1610 624T1597 608T1579 601H1145L1053 143H1567Q1580 143 1585 134T1590 110ZM1071 1083Q1022 1121 959 1143T816 1166Q710 1166 631 1127T493 1024T398 882T338 723T307 570T298 446Q298 367 315 308T370 210T466 150T604 130Q641 130 678 135T753 153T826 182T899 225L1071 1083Z"/><glyph unicode="œ" horiz-adv-x="1668" d="M1446 726Q1446 777 1406 808T1291 840Q1227 840 1177 818T1089 757T1023 669T978 562H1080Q1186 562 1256 575T1369 612T1429 664T1446 726ZM935 780Q965 823 1002 858T1086 918T1186 956T1305 970Q1388 970 1447 950T1543 897T1598 823T1615 741Q1615 674 1584 619T1486 525T1312 464T1056 442H949Q943 409 940 378T937 320Q937 220 986 167T1147 114Q1212 114 1262 123T1350 144T1412 164T1445 174Q1463 174 1463 150Q1463 138 1461 124T1455 95T1444 68T1430 47Q1419 36 1390 25T1319 3T1227 -13T1123 -19Q1061 -19 1011 -9T921 24T852 81T806 162Q774 120 735 86T650 29T550 -6T435 -19Q341 -19 274 4T164 71T99 180T78 325Q78 399 91 475T134 623T207 758T311 868T448 942T620 970Q744 970 824 922T935 780ZM803 616Q803 666 793 706T758 774T694 817T598 832Q538 832 489 811T402 753T335 667T288 563T260 449T251 334Q251 284 262 244T297 176T361 133T456 118Q517 118 565 139T652 198T719 284T766 388T794 502T803 616Z"/><glyph unicode="Ŕ" horiz-adv-x="1112" d="M1062 1023Q1062 954 1043 892T984 778T885 686T746 620Q799 601 832 540T883 379L936 93Q939 74 941 58T944 28Q944 19 939 13T923 2T893 -4T845 -6Q819 -6 803 -4T779 3T767 15T761 36L710 340Q702 393 688 436T647 510T581 559T482 577H367L256 25Q254 18 249 12T233 3T205 -3T163 -6Q140 -6 124 -4T98 1T86 11T84 25L324 1224Q332 1263 356 1278T409 1294H690Q782 1294 851 1276T968 1224T1038 1139T1062 1023ZM876 996Q876 1030 864 1059T827 1109T760 1141T661 1152H482L394 716H546Q635 716 697 740T799 803T857 893T876 996ZM770 1426Q759 1417 750 1411T730 1402T705 1397T670 1395Q624 1395 615 1405T626 1438L823 1651Q834 1663 845 1670T870 1682T901 1687T944 1689Q974 1689 991 1685T1015 1673T1019 1657T1005 1638L770 1426Z"/><glyph unicode="ŕ" horiz-adv-x="702" d="M754 924Q754 920 753 909T749 882T743 851T733 822T721 799T706 790Q698 790 689 793T668 802T641 810T606 814Q572 814 528 785T440 703T362 580T309 426L230 25Q228 17 223 12T208 2T182 -4T141 -6Q116 -6 101 -4T77 2T66 11T65 25L244 926Q245 933 250 939T265 949T289 954T324 956Q345 956 358 955T379 949T389 939T390 926L357 762Q380 803 411 841T480 907T557 953T637 970Q654 970 671 968T704 962T730 954T748 943Q754 937 754 924ZM592 1123Q585 1113 579 1107T563 1098T540 1093T507 1091Q485 1091 472 1094T454 1102T451 1115T460 1134L614 1365Q621 1376 629 1383T649 1394T678 1400T720 1402Q748 1402 764 1399T787 1389T793 1374T783 1356L592 1123Z"/><glyph unicode="Ŗ" horiz-adv-x="1112" d="M1062 1023Q1062 954 1043 892T984 778T885 686T746 620Q799 601 832 540T883 379L936 93Q939 74 941 58T944 28Q944 19 939 13T923 2T893 -4T845 -6Q819 -6 803 -4T779 3T767 15T761 36L710 340Q702 393 688 436T647 510T581 559T482 577H367L256 25Q254 18 249 12T233 3T205 -3T163 -6Q140 -6 124 -4T98 1T86 11T84 25L324 1224Q332 1263 356 1278T409 1294H690Q782 1294 851 1276T968 1224T1038 1139T1062 1023ZM876 996Q876 1030 864 1059T827 1109T760 1141T661 1152H482L394 716H546Q635 716 697 740T799 803T857 893T876 996ZM406 -334Q399 -344 393 -350T376 -359T352 -363T317 -365Q297 -365 286 -363T271 -355T269 -342T276 -323L374 -121Q379 -110 386 -103T405 -91T434 -85T479 -83Q505 -83 519 -86T539 -96T543 -111T534 -131L406 -334Z"/><glyph unicode="ŗ" horiz-adv-x="702" d="M754 924Q754 920 753 909T749 882T743 851T733 822T721 799T706 790Q698 790 689 793T668 802T641 810T606 814Q572 814 528 785T440 703T362 580T309 426L230 25Q228 17 223 12T208 2T182 -4T141 -6Q116 -6 101 -4T77 2T66 11T65 25L244 926Q245 933 250 939T265 949T289 954T324 956Q345 956 358 955T379 949T389 939T390 926L357 762Q380 803 411 841T480 907T557 953T637 970Q654 970 671 968T704 962T730 954T748 943Q754 937 754 924ZM138 -334Q131 -344 125 -350T108 -359T84 -363T49 -365Q29 -365 18 -363T3 -355T1 -342T8 -323L106 -121Q111 -110 118 -103T137 -91T166 -85T211 -83Q237 -83 251 -86T271 -96T275 -111T266 -131L138 -334Z"/><glyph unicode="Ř" horiz-adv-x="1112" d="M1062 1023Q1062 954 1043 892T984 778T885 686T746 620Q799 601 832 540T883 379L936 93Q939 74 941 58T944 28Q944 19 939 13T923 2T893 -4T845 -6Q819 -6 803 -4T779 3T767 15T761 36L710 340Q702 393 688 436T647 510T581 559T482 577H367L256 25Q254 18 249 12T233 3T205 -3T163 -6Q140 -6 124 -4T98 1T86 11T84 25L324 1224Q332 1263 356 1278T409 1294H690Q782 1294 851 1276T968 1224T1038 1139T1062 1023ZM876 996Q876 1030 864 1059T827 1109T760 1141T661 1152H482L394 716H546Q635 716 697 740T799 803T857 893T876 996ZM800 1424Q791 1415 782 1410T760 1401T733 1397T697 1395Q676 1395 663 1396T640 1400T623 1409T609 1424L440 1651Q433 1661 433 1668T439 1680T460 1687T497 1689Q527 1689 544 1688T570 1684T583 1676T593 1666L713 1494L906 1662Q915 1670 924 1675T947 1684T980 1688T1027 1689Q1051 1689 1065 1687T1083 1680T1085 1668T1070 1651L800 1424Z"/><glyph unicode="ř" horiz-adv-x="702" d="M754 924Q754 920 753 909T749 882T743 851T733 822T721 799T706 790Q698 790 689 793T668 802T641 810T606 814Q572 814 528 785T440 703T362 580T309 426L230 25Q228 17 223 12T208 2T182 -4T141 -6Q116 -6 101 -4T77 2T66 11T65 25L244 926Q245 933 250 939T265 949T289 954T324 956Q345 956 358 955T379 949T389 939T390 926L357 762Q380 803 411 841T480 907T557 953T637 970Q654 970 671 968T704 962T730 954T748 943Q754 937 754 924ZM860 1117Q853 1109 845 1104T826 1097T799 1093T760 1091Q740 1091 726 1092T703 1097T689 1105T679 1117L560 1346Q552 1360 550 1371T552 1388T571 1398T612 1402Q632 1402 644 1401T663 1396T674 1387T683 1372L778 1191L944 1372Q951 1381 958 1386T976 1395T999 1400T1031 1402Q1057 1402 1072 1399T1091 1389T1090 1372T1071 1346L860 1117Z"/><glyph unicode="Ś" horiz-adv-x="926" d="M921 1196Q921 1188 920 1178T917 1156T911 1132T902 1110T891 1094T876 1088Q865 1088 846 1101T796 1128T723 1156T626 1169Q565 1169 519 1151T442 1101T396 1029T380 946Q380 902 399 869T450 809T522 758T605 709T688 656T760 590T811 504T831 391Q831 306 796 232T697 102T541 14T338 -19Q277 -19 225 -9T130 17T59 49T17 79T4 117Q4 123 5 134T10 158T16 183T25 206T37 223T53 230Q69 230 93 214T152 180T237 145T352 129Q422 129 477 148T569 201T627 280T647 376Q647 421 628 454T578 515T507 565T425 613T343 666T272 732T222 818T202 932Q202 1011 233 1080T321 1201T459 1283T640 1313Q688 1313 731 1305T810 1286T870 1261T904 1238T917 1220T921 1196ZM710 1426Q699 1417 690 1411T670 1402T645 1397T610 1395Q564 1395 555 1405T566 1438L763 1651Q774 1663 785 1670T810 1682T841 1687T884 1689Q914 1689 931 1685T955 1673T959 1657T945 1638L710 1426Z"/><glyph unicode="ś" horiz-adv-x="797" d="M747 876Q747 866 744 850T736 817T723 790T706 779Q694 779 678 788T637 810T580 832T500 842Q456 842 422 830T365 796T330 747T318 689Q318 649 344 623T411 575T497 534T583 484T649 413T676 308Q676 238 649 178T570 74T445 6T282 -19Q235 -19 194 -12T119 6T61 30T24 56Q16 64 13 72T9 93Q9 101 10 112T14 135T20 158T29 178T39 192T51 198Q63 198 80 185T124 156T193 127T295 113Q350 113 389 126T455 162T493 215T506 278Q506 320 480 346T415 394T329 437T244 486T178 556T151 662Q151 728 177 784T250 882T364 947T512 970Q550 970 585 964T651 949T703 929T736 907Q747 897 747 876ZM588 1123Q581 1113 575 1107T559 1098T536 1093T503 1091Q481 1091 468 1094T450 1102T447 1115T456 1134L610 1365Q617 1376 625 1383T645 1394T674 1400T716 1402Q744 1402 760 1399T783 1389T789 1374T779 1356L588 1123Z"/><glyph unicode="Ş" horiz-adv-x="926" d="M283 -17Q203 -8 146 12T60 49T17 79T4 117Q4 123 5 134T10 158T16 183T25 206T37 223T53 230Q69 230 93 214T152 180T237 145T352 129Q422 129 477 148T569 201T627 280T647 376Q647 421 628 454T578 515T507 565T425 613T343 666T272 732T222 818T202 932Q202 1011 233 1080T321 1201T459 1283T640 1313Q688 1313 731 1305T810 1286T870 1261T904 1238T917 1220T921 1196Q921 1188 920 1178T917 1156T911 1132T902 1110T891 1094T876 1088Q865 1088 846 1101T796 1128T723 1156T626 1169Q565 1169 519 1151T442 1101T396 1029T380 946Q380 902 399 869T450 809T522 758T605 709T688 656T760 590T811 504T831 391Q831 306 796 232T699 104T561 21T422 -13L437 -74Q446 -107 450 -130T455 -175Q455 -224 440 -260T396 -319T327 -353T236 -365Q210 -365 184 -363T137 -357T101 -349T78 -340Q73 -337 71 -332T68 -318Q68 -308 70 -295T77 -270T89 -250T110 -241H233Q249 -241 263 -238T289 -226T308 -205T315 -171Q315 -161 313 -145T307 -113L283 -17Z"/><glyph unicode="ş" horiz-adv-x="797" d="M233 -17Q171 -10 129 3T62 30T24 56Q16 64 13 72T9 93Q9 101 10 112T14 135T20 158T29 178T39 192T51 198Q63 198 80 185T124 156T193 127T295 113Q350 113 389 126T455 162T493 215T506 278Q506 320 480 346T415 394T329 437T244 486T178 556T151 662Q151 728 177 784T250 882T364 947T512 970Q550 970 585 964T651 949T703 929T736 907Q747 897 747 876Q747 866 744 850T736 817T723 790T706 779Q694 779 678 788T637 810T580 832T500 842Q456 842 422 830T365 796T330 747T318 689Q318 649 344 623T411 575T497 534T583 484T649 413T676 308Q676 238 647 175T551 59T371 -12L387 -74Q396 -107 400 -130T405 -175Q405 -224 390 -260T346 -319T277 -353T186 -365Q160 -365 134 -363T87 -357T51 -349T28 -340Q23 -337 21 -332T18 -318Q18 -308 20 -295T27 -270T39 -250T60 -241H183Q199 -241 213 -238T239 -226T258 -205T265 -171Q265 -161 263 -145T257 -113L233 -17Z"/><glyph unicode="Š" horiz-adv-x="926" d="M921 1196Q921 1188 920 1178T917 1156T911 1132T902 1110T891 1094T876 1088Q865 1088 846 1101T796 1128T723 1156T626 1169Q565 1169 519 1151T442 1101T396 1029T380 946Q380 902 399 869T450 809T522 758T605 709T688 656T760 590T811 504T831 391Q831 306 796 232T697 102T541 14T338 -19Q277 -19 225 -9T130 17T59 49T17 79T4 117Q4 123 5 134T10 158T16 183T25 206T37 223T53 230Q69 230 93 214T152 180T237 145T352 129Q422 129 477 148T569 201T627 280T647 376Q647 421 628 454T578 515T507 565T425 613T343 666T272 732T222 818T202 932Q202 1011 233 1080T321 1201T459 1283T640 1313Q688 1313 731 1305T810 1286T870 1261T904 1238T917 1220T921 1196ZM741 1424Q732 1415 723 1410T701 1401T674 1397T638 1395Q617 1395 604 1396T581 1400T564 1409T550 1424L381 1651Q374 1661 374 1668T380 1680T401 1687T438 1689Q468 1689 485 1688T511 1684T524 1676T534 1666L654 1494L847 1662Q856 1670 865 1675T888 1684T921 1688T968 1689Q992 1689 1006 1687T1024 1680T1026 1668T1011 1651L741 1424Z"/><glyph unicode="š" horiz-adv-x="797" d="M747 876Q747 866 744 850T736 817T723 790T706 779Q694 779 678 788T637 810T580 832T500 842Q456 842 422 830T365 796T330 747T318 689Q318 649 344 623T411 575T497 534T583 484T649 413T676 308Q676 238 649 178T570 74T445 6T282 -19Q235 -19 194 -12T119 6T61 30T24 56Q16 64 13 72T9 93Q9 101 10 112T14 135T20 158T29 178T39 192T51 198Q63 198 80 185T124 156T193 127T295 113Q350 113 389 126T455 162T493 215T506 278Q506 320 480 346T415 394T329 437T244 486T178 556T151 662Q151 728 177 784T250 882T364 947T512 970Q550 970 585 964T651 949T703 929T736 907Q747 897 747 876ZM867 1117Q860 1109 852 1104T833 1097T806 1093T767 1091Q747 1091 733 1092T710 1097T696 1105T686 1117L567 1346Q559 1360 557 1371T559 1388T578 1398T619 1402Q639 1402 651 1401T670 1396T681 1387T690 1372L785 1191L951 1372Q958 1381 965 1386T983 1395T1006 1400T1038 1402Q1064 1402 1079 1399T1098 1389T1097 1372T1078 1346L867 1117Z"/><glyph unicode="Ţ" horiz-adv-x="998" d="M1139 1259Q1139 1253 1139 1243T1136 1220T1129 1195T1119 1171T1105 1155T1086 1148H722L497 26Q495 18 490 12T474 3T446 -3T404 -6Q379 -6 363 -4T338 2T326 12T325 26L549 1148H187Q173 1148 168 1157T163 1182Q163 1189 164 1199T168 1223T175 1248T185 1270T198 1287T216 1294H1116Q1129 1294 1134 1285T1139 1259ZM330 -334Q323 -344 317 -350T300 -359T276 -363T241 -365Q221 -365 210 -363T195 -355T193 -342T200 -323L298 -121Q303 -110 310 -103T329 -91T358 -85T403 -83Q429 -83 443 -86T463 -96T467 -111T458 -131L330 -334Z"/><glyph unicode="ţ" horiz-adv-x="686" d="M709 915Q709 906 708 896T704 874T696 852T686 833T673 819T657 814H427L326 312Q322 291 319 265T316 222Q316 171 337 148T407 124Q434 124 454 128T488 138T514 147T533 152Q541 152 545 147T550 126Q550 113 548 98T541 67T531 40T518 21Q510 14 494 7T457 -5T413 -14T366 -17Q310 -17 269 -5T200 32T159 96T145 189Q145 201 146 215T149 246T154 278T160 308L261 814H136Q125 814 119 820T113 846Q113 860 116 878T125 913T140 940T163 951H289L332 1165Q333 1172 338 1178T354 1188T380 1195T421 1197Q445 1197 460 1195T484 1189T495 1178T497 1165L454 951H684Q699 951 704 940T709 915ZM236 -334Q229 -344 223 -350T206 -359T182 -363T147 -365Q127 -365 116 -363T101 -355T99 -342T106 -323L204 -121Q209 -110 216 -103T235 -91T264 -85T309 -83Q335 -83 349 -86T369 -96T373 -111T364 -131L236 -334Z"/><glyph unicode="Ť" horiz-adv-x="998" d="M1139 1259Q1139 1253 1139 1243T1136 1220T1129 1195T1119 1171T1105 1155T1086 1148H722L497 26Q495 18 490 12T474 3T446 -3T404 -6Q379 -6 363 -4T338 2T326 12T325 26L549 1148H187Q173 1148 168 1157T163 1182Q163 1189 164 1199T168 1223T175 1248T185 1270T198 1287T216 1294H1116Q1129 1294 1134 1285T1139 1259ZM762 1424Q753 1415 744 1410T722 1401T695 1397T659 1395Q638 1395 625 1396T602 1400T585 1409T571 1424L402 1651Q395 1661 395 1668T401 1680T422 1687T459 1689Q489 1689 506 1688T532 1684T545 1676T555 1666L675 1494L868 1662Q877 1670 886 1675T909 1684T942 1688T989 1689Q1013 1689 1027 1687T1045 1680T1047 1668T1032 1651L762 1424Z"/><glyph unicode="ť" horiz-adv-x="708" d="M709 915Q709 906 708 896T704 874T696 852T686 833T673 819T657 814H427L326 312Q322 291 319 265T316 222Q316 171 337 148T407 124Q434 124 454 128T488 138T514 147T533 152Q541 152 545 147T550 126Q550 113 548 98T541 67T531 40T518 21Q510 14 494 7T457 -5T413 -14T366 -17Q310 -17 269 -5T200 32T159 96T145 189Q145 201 146 215T149 246T154 278T160 308L261 814H136Q125 814 119 820T113 846Q113 860 116 878T125 913T140 940T163 951H289L332 1165Q333 1172 338 1178T354 1188T380 1195T421 1197Q445 1197 460 1195T484 1189T495 1178T497 1165L454 951H684Q699 951 704 940T709 915ZM711 1061Q707 1054 702 1050T688 1044T666 1040T633 1039Q620 1039 612 1041T600 1047T596 1056T598 1068L720 1354Q724 1363 730 1369T746 1379T772 1385T811 1387Q832 1387 845 1385T863 1379T867 1369T863 1353L711 1061Z"/><glyph unicode="Ū" horiz-adv-x="1314" d="M1145 471Q1121 349 1069 257T942 104T773 12T569 -19Q453 -19 368 12T231 106T163 262T172 478L330 1268Q331 1276 336 1282T353 1291T380 1297T422 1300Q447 1300 463 1298T488 1292T500 1282T501 1268L344 480Q327 392 334 326T373 216T458 150T589 128Q664 128 727 151T840 218T924 328T976 478L1134 1268Q1135 1276 1140 1282T1156 1291T1183 1297T1225 1300Q1249 1300 1265 1298T1290 1292T1303 1282T1305 1268L1145 471ZM1168 1560Q1168 1553 1167 1543T1163 1521T1156 1498T1147 1478T1135 1463T1120 1457H574Q562 1457 556 1464T550 1489Q550 1495 551 1505T554 1526T560 1548T570 1569T583 1584T601 1590H1146Q1158 1590 1163 1582T1168 1560Z"/><glyph unicode="ū" horiz-adv-x="1053" d="M812 25Q811 17 806 11T792 2T769 -4T733 -6Q713 -6 700 -4T679 1T669 11T668 25L701 194Q685 160 651 123T570 53T468 1T355 -19Q287 -19 241 -1T166 50T125 127T112 225Q112 258 116 292T128 362L239 926Q241 933 246 939T261 949T288 954T329 956Q353 956 368 955T392 949T403 939T405 926L295 368Q289 342 286 314T283 257Q283 227 288 203T307 160T342 132T395 122Q448 122 503 152T607 237T692 365T748 528L827 926Q828 933 833 939T849 949T876 954T917 956Q941 956 956 955T980 949T991 939T993 926L812 25ZM934 1262Q934 1256 933 1247T930 1228T924 1206T915 1185T903 1170T887 1164H408Q395 1164 389 1171T382 1196Q382 1203 384 1219T392 1252T407 1280T434 1293H913Q925 1293 929 1285T934 1262Z"/><glyph unicode="Ů" horiz-adv-x="1314" d="M1145 471Q1121 349 1069 257T942 104T773 12T569 -19Q453 -19 368 12T231 106T163 262T172 478L330 1268Q331 1276 336 1282T353 1291T380 1297T422 1300Q447 1300 463 1298T488 1292T500 1282T501 1268L344 480Q327 392 334 326T373 216T458 150T589 128Q664 128 727 151T840 218T924 328T976 478L1134 1268Q1135 1276 1140 1282T1156 1291T1183 1297T1225 1300Q1249 1300 1265 1298T1290 1292T1303 1282T1305 1268L1145 471ZM1072 1571Q1072 1527 1056 1489T1011 1422T939 1377T844 1360Q795 1360 761 1373T705 1409T673 1459T663 1519Q663 1549 669 1576T689 1626T722 1670T767 1704T824 1725T890 1733Q939 1733 973 1720T1030 1683T1062 1631T1072 1571ZM960 1559Q960 1574 956 1589T942 1617T916 1636T876 1644Q852 1644 833 1636T801 1612T782 1576T775 1532Q775 1517 779 1502T792 1475T818 1456T858 1449Q882 1449 901 1457T933 1480T953 1515T960 1559Z"/><glyph unicode="ů" horiz-adv-x="1053" d="M812 25Q811 17 806 11T792 2T769 -4T733 -6Q713 -6 700 -4T679 1T669 11T668 25L701 194Q685 160 651 123T570 53T468 1T355 -19Q287 -19 241 -1T166 50T125 127T112 225Q112 258 116 292T128 362L239 926Q241 933 246 939T261 949T288 954T329 956Q353 956 368 955T392 949T403 939T405 926L295 368Q289 342 286 314T283 257Q283 227 288 203T307 160T342 132T395 122Q448 122 503 152T607 237T692 365T748 528L827 926Q828 933 833 939T849 949T876 954T917 956Q941 956 956 955T980 949T991 939T993 926L812 25ZM859 1279Q859 1233 844 1196T801 1131T731 1089T638 1073Q589 1073 556 1085T501 1119T471 1168T462 1227Q462 1273 477 1310T520 1375T590 1417T683 1433Q732 1433 765 1420T820 1386T850 1337T859 1279ZM751 1267Q751 1282 747 1297T734 1323T708 1342T669 1349Q622 1349 597 1320T571 1239Q571 1224 575 1210T588 1184T613 1165T652 1158Q699 1158 725 1187T751 1267Z"/><glyph unicode="Ű" horiz-adv-x="1314" d="M1145 471Q1121 349 1069 257T942 104T773 12T569 -19Q453 -19 368 12T231 106T163 262T172 478L330 1268Q331 1276 336 1282T353 1291T380 1297T422 1300Q447 1300 463 1298T488 1292T500 1282T501 1268L344 480Q327 392 334 326T373 216T458 150T589 128Q664 128 727 151T840 218T924 328T976 478L1134 1268Q1135 1276 1140 1282T1156 1291T1183 1297T1225 1300Q1249 1300 1265 1298T1290 1292T1303 1282T1305 1268L1145 471ZM1101 1417Q1093 1409 1086 1405T1069 1398T1046 1396T1012 1395Q993 1395 980 1397T960 1403T952 1413T957 1427L1146 1664Q1153 1671 1161 1676T1181 1685T1213 1690T1260 1692Q1294 1692 1313 1689T1342 1680T1349 1666T1339 1650L1101 1417ZM721 1416Q713 1409 705 1405T687 1398T663 1396T629 1395Q596 1395 585 1404T585 1429L765 1663Q772 1671 780 1676T800 1685T829 1690T871 1692Q909 1692 931 1689T962 1681T968 1666T953 1645L721 1416Z"/><glyph unicode="ű" horiz-adv-x="1053" d="M812 25Q811 17 806 11T792 2T769 -4T733 -6Q713 -6 700 -4T679 1T669 11T668 25L701 194Q685 160 651 123T570 53T468 1T355 -19Q287 -19 241 -1T166 50T125 127T112 225Q112 258 116 292T128 362L239 926Q241 933 246 939T261 949T288 954T329 956Q353 956 368 955T392 949T403 939T405 926L295 368Q289 342 286 314T283 257Q283 227 288 203T307 160T342 132T395 122Q448 122 503 152T607 237T692 365T748 528L827 926Q828 933 833 939T849 949T876 954T917 956Q941 956 956 955T980 949T991 939T993 926L812 25ZM870 1088Q863 1081 856 1077T839 1071T818 1068T789 1067Q754 1067 741 1074T739 1096L931 1358Q936 1366 943 1370T962 1378T990 1382T1035 1384Q1063 1384 1080 1381T1103 1372T1108 1356T1094 1335L870 1088ZM532 1088Q527 1082 520 1078T504 1072T483 1068T455 1067Q436 1067 424 1068T406 1073T400 1083T405 1097L587 1355Q592 1363 600 1368T619 1377T646 1382T686 1384Q717 1384 735 1381T761 1372T766 1356T752 1334L532 1088Z"/><glyph unicode="Ų" horiz-adv-x="1314" d="M1147 478Q1134 413 1113 353T1059 240T982 141T879 59Q854 44 833 30T792 0T753 -31T714 -64L650 -118Q622 -143 609 -161T596 -200Q596 -219 610 -230T657 -241H773Q786 -241 790 -246T794 -261Q794 -270 793 -281T788 -302T781 -321T774 -334Q767 -341 749 -346T707 -356T660 -362T618 -365Q567 -365 531 -356T472 -330T438 -290T427 -237Q427 -188 454 -146T536 -60L592 -14Q581 -17 571 -17T550 -17Q445 -17 364 13T231 105T164 260T171 477L330 1269Q331 1276 336 1282T353 1292T380 1298T422 1300Q447 1300 463 1298T488 1292T500 1282T501 1269L344 480Q309 306 371 217T590 128Q664 128 727 151T840 218T924 328T976 477L1134 1269Q1135 1276 1140 1282T1156 1292T1183 1298T1225 1300Q1249 1300 1265 1298T1290 1292T1303 1282T1305 1269L1147 478Z"/><glyph unicode="ų" horiz-adv-x="1053" d="M702 -110Q683 -125 670 -137T650 -161T639 -182T636 -203Q636 -222 649 -232T694 -243H793Q806 -243 810 -248T814 -263Q814 -269 813 -279T809 -300T803 -320T794 -334Q787 -340 774 -345T742 -355T701 -362T657 -365Q562 -365 516 -334T470 -240Q470 -220 475 -201T493 -159T530 -111T588 -56L660 4L698 193Q684 160 650 123T570 54T468 2T355 -19Q287 -19 241 -1T166 50T125 127T112 225Q112 258 116 292T128 362L239 926Q241 933 246 939T261 949T288 954T329 956Q353 956 368 955T392 949T403 939T405 926L295 368Q289 342 286 314T283 257Q283 227 288 203T307 160T342 132T395 122Q448 122 503 152T607 236T692 364T748 528L827 926Q828 933 833 939T849 949T876 954T917 956Q941 956 956 955T980 949T991 939T993 926L811 20Q806 -6 797 -22T773 -51L702 -110Z"/><glyph unicode="Ÿ" horiz-adv-x="998" d="M592 503L497 25Q495 18 490 12T473 3T445 -3T404 -6Q379 -6 363 -4T338 2T326 12T324 25L420 503L200 1233Q194 1255 193 1268T199 1288T225 1297T279 1300Q306 1300 323 1299T350 1292T364 1280T373 1259L476 904Q494 842 508 785T535 665H537Q573 725 610 784T688 903L933 1264Q939 1274 946 1281T966 1292T996 1298T1044 1300Q1080 1300 1099 1297T1123 1285T1123 1264T1104 1233L592 503ZM1056 1527Q1051 1499 1044 1481T1023 1452T990 1436T943 1431Q915 1431 898 1435T871 1451T860 1481T862 1527Q867 1555 874 1573T894 1603T927 1619T974 1624Q1002 1624 1019 1620T1046 1604T1058 1574T1056 1527ZM643 1527Q639 1499 631 1481T610 1452T577 1436T529 1431Q501 1431 484 1435T457 1451T447 1481T450 1527Q454 1555 461 1573T481 1603T513 1619T562 1624Q589 1624 606 1620T633 1604T645 1574T643 1527Z"/><glyph unicode="Ź" horiz-adv-x="959" d="M998 1294Q1018 1294 1030 1283T1042 1251Q1042 1239 1038 1213T1028 1169Q1025 1160 1022 1152T1011 1134T994 1110T966 1075L192 145H817Q830 145 835 137T840 112Q840 106 839 96T836 73T831 47T822 24T808 7T789 0H24Q0 0 -12 13T-24 46Q-24 52 -23 63T-19 86T-13 110T-7 129Q-4 136 0 144T11 163T28 187T55 219L829 1150H245Q220 1150 220 1185Q220 1190 221 1200T224 1223T230 1248T240 1271T255 1287T275 1294H998ZM731 1426Q720 1417 711 1411T691 1402T666 1397T631 1395Q585 1395 576 1405T587 1438L784 1651Q795 1663 806 1670T831 1682T862 1687T905 1689Q935 1689 952 1685T976 1673T980 1657T966 1638L731 1426Z"/><glyph unicode="ź" horiz-adv-x="809" d="M787 917Q787 912 786 903T783 883T779 862T775 844Q769 822 757 803T722 757L213 139H626Q638 139 644 130T650 104Q650 96 649 85T645 63T638 41T628 20T615 6T599 0H42Q23 0 14 10T5 39Q5 46 7 57T11 79T15 101T20 116Q22 124 25 130T34 145T49 166T71 194L583 812H207Q194 812 188 820T181 847Q181 856 182 867T186 889T193 912T204 932T217 946T234 951H753Q772 951 779 942T787 917ZM578 1123Q571 1113 565 1107T549 1098T526 1093T493 1091Q471 1091 458 1094T440 1102T437 1115T446 1134L600 1365Q607 1376 615 1383T635 1394T664 1400T706 1402Q734 1402 750 1399T773 1389T779 1374T769 1356L578 1123Z"/><glyph unicode="Ż" horiz-adv-x="959" d="M998 1294Q1018 1294 1030 1283T1042 1251Q1042 1239 1038 1213T1028 1169Q1025 1160 1022 1152T1011 1134T994 1110T966 1075L192 145H817Q830 145 835 137T840 112Q840 106 839 96T836 73T831 47T822 24T808 7T789 0H24Q0 0 -12 13T-24 46Q-24 52 -23 63T-19 86T-13 110T-7 129Q-4 136 0 144T11 163T28 187T55 219L829 1150H245Q220 1150 220 1185Q220 1190 221 1200T224 1223T230 1248T240 1271T255 1287T275 1294H998ZM587 1528Q592 1554 600 1572T623 1602T658 1619T706 1625Q734 1625 752 1620T779 1603T789 1573T785 1528Q780 1502 771 1484T749 1453T715 1436T667 1431Q638 1431 621 1436T594 1453T584 1483T587 1528Z"/><glyph unicode="ż" horiz-adv-x="809" d="M787 917Q787 912 786 903T783 883T779 862T775 844Q769 822 757 803T722 757L213 139H626Q638 139 644 130T650 104Q650 96 649 85T645 63T638 41T628 20T615 6T599 0H42Q23 0 14 10T5 39Q5 46 7 57T11 79T15 101T20 116Q22 124 25 130T34 145T49 166T71 194L583 812H207Q194 812 188 820T181 847Q181 856 182 867T186 889T193 912T204 932T217 946T234 951H753Q772 951 779 942T787 917ZM650 1230Q646 1204 638 1186T615 1156T581 1139T532 1134Q504 1134 487 1139T460 1156T449 1186T451 1230Q455 1257 463 1275T485 1305T519 1322T567 1327Q595 1327 613 1322T640 1306T652 1276T650 1230Z"/><glyph unicode="Ž" horiz-adv-x="959" d="M998 1294Q1018 1294 1030 1283T1042 1251Q1042 1239 1038 1213T1028 1169Q1025 1160 1022 1152T1011 1134T994 1110T966 1075L192 145H817Q830 145 835 137T840 112Q840 106 839 96T836 73T831 47T822 24T808 7T789 0H24Q0 0 -12 13T-24 46Q-24 52 -23 63T-19 86T-13 110T-7 129Q-4 136 0 144T11 163T28 187T55 219L829 1150H245Q220 1150 220 1185Q220 1190 221 1200T224 1223T230 1248T240 1271T255 1287T275 1294H998ZM760 1424Q751 1415 742 1410T720 1401T693 1397T657 1395Q636 1395 623 1396T600 1400T583 1409T569 1424L400 1651Q393 1661 393 1668T399 1680T420 1687T457 1689Q487 1689 504 1688T530 1684T543 1676T553 1666L673 1494L866 1662Q875 1670 884 1675T907 1684T940 1688T987 1689Q1011 1689 1025 1687T1043 1680T1045 1668T1030 1651L760 1424Z"/><glyph unicode="ž" horiz-adv-x="809" d="M787 917Q787 912 786 903T783 883T779 862T775 844Q769 822 757 803T722 757L213 139H626Q638 139 644 130T650 104Q650 96 649 85T645 63T638 41T628 20T615 6T599 0H42Q23 0 14 10T5 39Q5 46 7 57T11 79T15 101T20 116Q22 124 25 130T34 145T49 166T71 194L583 812H207Q194 812 188 820T181 847Q181 856 182 867T186 889T193 912T204 932T217 946T234 951H753Q772 951 779 942T787 917ZM626 1117Q619 1109 611 1104T592 1097T565 1093T526 1091Q506 1091 492 1092T469 1097T455 1105T445 1117L326 1346Q318 1360 316 1371T318 1388T337 1398T378 1402Q398 1402 410 1401T429 1396T440 1387T449 1372L544 1191L710 1372Q717 1381 724 1386T742 1395T765 1400T797 1402Q823 1402 838 1399T857 1389T856 1372T837 1346L626 1117Z"/><glyph unicode="ƒ" horiz-adv-x="1020" d="M1047 1305Q1047 1301 1047 1291T1044 1269T1039 1245T1032 1223T1021 1206T1005 1199Q999 1199 988 1203T961 1213T925 1222T880 1227Q834 1227 799 1214T735 1170T684 1090T641 968L586 774H846Q857 774 862 766T868 742Q868 736 867 726T864 705T858 682T849 660T835 644T818 637H547L274 -320Q272 -328 266 -334T249 -344T221 -350T179 -352Q155 -352 140 -350T116 -344T105 -333T105 -319L379 637H165Q141 637 141 673Q141 681 142 691T147 712T154 734T163 754T176 768T193 774H416L484 1008Q511 1108 549 1176T636 1287T744 1349T876 1368Q929 1368 968 1358T1026 1340Q1038 1333 1042 1326T1047 1305Z"/><glyph unicode="Ș" horiz-adv-x="926" d="M921 1196Q921 1188 920 1178T917 1156T911 1132T902 1110T891 1094T876 1088Q865 1088 846 1101T796 1128T723 1156T626 1169Q565 1169 519 1151T442 1101T396 1029T380 946Q380 902 399 869T450 809T522 758T605 709T688 656T760 590T811 504T831 391Q831 306 796 232T697 102T541 14T338 -19Q277 -19 225 -9T130 17T59 49T17 79T4 117Q4 123 5 134T10 158T16 183T25 206T37 223T53 230Q69 230 93 214T152 180T237 145T352 129Q422 129 477 148T569 201T627 280T647 376Q647 421 628 454T578 515T507 565T425 613T343 666T272 732T222 818T202 932Q202 1011 233 1080T321 1201T459 1283T640 1313Q688 1313 731 1305T810 1286T870 1261T904 1238T917 1220T921 1196ZM265 -334Q258 -344 252 -350T235 -359T211 -363T176 -365Q156 -365 145 -363T130 -355T128 -342T135 -323L233 -121Q238 -110 245 -103T264 -91T293 -85T338 -83Q364 -83 378 -86T398 -96T402 -111T393 -131L265 -334Z"/><glyph unicode="ș" horiz-adv-x="797" d="M747 876Q747 866 744 850T736 817T723 790T706 779Q694 779 678 788T637 810T580 832T500 842Q456 842 422 830T365 796T330 747T318 689Q318 649 344 623T411 575T497 534T583 484T649 413T676 308Q676 238 649 178T570 74T445 6T282 -19Q235 -19 194 -12T119 6T61 30T24 56Q16 64 13 72T9 93Q9 101 10 112T14 135T20 158T29 178T39 192T51 198Q63 198 80 185T124 156T193 127T295 113Q350 113 389 126T455 162T493 215T506 278Q506 320 480 346T415 394T329 437T244 486T178 556T151 662Q151 728 177 784T250 882T364 947T512 970Q550 970 585 964T651 949T703 929T736 907Q747 897 747 876ZM212 -334Q205 -344 199 -350T182 -359T158 -363T123 -365Q103 -365 92 -363T77 -355T75 -342T82 -323L180 -121Q185 -110 192 -103T211 -91T240 -85T285 -83Q311 -83 325 -86T345 -96T349 -111T340 -131L212 -334Z"/><glyph unicode="Ț" horiz-adv-x="998" d="M1139 1259Q1139 1253 1139 1243T1136 1220T1129 1195T1119 1171T1105 1155T1086 1148H722L497 26Q495 18 490 12T474 3T446 -3T404 -6Q379 -6 363 -4T338 2T326 12T325 26L549 1148H187Q173 1148 168 1157T163 1182Q163 1189 164 1199T168 1223T175 1248T185 1270T198 1287T216 1294H1116Q1129 1294 1134 1285T1139 1259ZM330 -334Q323 -344 317 -350T300 -359T276 -363T241 -365Q221 -365 210 -363T195 -355T193 -342T200 -323L298 -121Q303 -110 310 -103T329 -91T358 -85T403 -83Q429 -83 443 -86T463 -96T467 -111T458 -131L330 -334Z"/><glyph unicode="ț" horiz-adv-x="686" d="M709 915Q709 906 708 896T704 874T696 852T686 833T673 819T657 814H427L326 312Q322 291 319 265T316 222Q316 171 337 148T407 124Q434 124 454 128T488 138T514 147T533 152Q541 152 545 147T550 126Q550 113 548 98T541 67T531 40T518 21Q510 14 494 7T457 -5T413 -14T366 -17Q310 -17 269 -5T200 32T159 96T145 189Q145 201 146 215T149 246T154 278T160 308L261 814H136Q125 814 119 820T113 846Q113 860 116 878T125 913T140 940T163 951H289L332 1165Q333 1172 338 1178T354 1188T380 1195T421 1197Q445 1197 460 1195T484 1189T495 1178T497 1165L454 951H684Q699 951 704 940T709 915ZM236 -334Q229 -344 223 -350T206 -359T182 -363T147 -365Q127 -365 116 -363T101 -355T99 -342T106 -323L204 -121Q209 -110 216 -103T235 -91T264 -85T309 -83Q335 -83 349 -86T369 -96T373 -111T364 -131L236 -334Z"/><glyph unicode="ˆ" horiz-adv-x="809" d="M796 1147Q804 1132 806 1122T804 1105T784 1095T743 1091Q722 1091 710 1092T691 1097T679 1106T670 1121L576 1301L410 1121Q402 1111 395 1106T379 1097T356 1093T324 1091Q297 1091 283 1094T264 1104T266 1121T286 1147L496 1376Q503 1384 511 1388T530 1396T556 1400T594 1402Q615 1402 628 1401T651 1396T667 1388T678 1376L796 1147Z"/><glyph unicode="ˇ" horiz-adv-x="809" d="M626 1117Q619 1109 611 1104T592 1097T565 1093T526 1091Q506 1091 492 1092T469 1097T455 1105T445 1117L326 1346Q318 1360 316 1371T318 1388T337 1398T378 1402Q398 1402 410 1401T429 1396T440 1387T449 1372L544 1191L710 1372Q717 1381 724 1386T742 1395T765 1400T797 1402Q823 1402 838 1399T857 1389T856 1372T837 1346L626 1117Z"/><glyph unicode="ˉ" horiz-adv-x="807" d="M832 1262Q832 1256 831 1247T828 1228T822 1206T813 1185T801 1170T785 1164H306Q293 1164 287 1171T280 1196Q280 1203 282 1219T290 1252T305 1280T332 1293H811Q823 1293 827 1285T832 1262Z"/><glyph unicode="˘" horiz-adv-x="780" d="M829 1374Q829 1363 825 1338T808 1282T774 1218T720 1158T638 1113T526 1096Q460 1096 418 1111T350 1152T314 1214T303 1287Q303 1297 304 1311T307 1340T313 1367T321 1382Q328 1390 342 1392T375 1395Q393 1395 403 1394T420 1390T429 1383T431 1372Q431 1361 430 1348T428 1319Q428 1296 433 1277T450 1243T483 1221T535 1213Q565 1213 592 1221T641 1248T681 1295T709 1365Q711 1373 715 1378T726 1387T745 1393T775 1395Q793 1395 803 1394T820 1390T827 1383T829 1374Z"/><glyph unicode="˙" horiz-adv-x="457" d="M483 1230Q479 1204 471 1186T448 1156T414 1139T365 1134Q337 1134 320 1139T293 1156T282 1186T284 1230Q288 1257 296 1275T318 1305T352 1322T400 1327Q428 1327 446 1322T473 1306T485 1276T483 1230Z"/><glyph unicode="˚" horiz-adv-x="657" d="M685 1279Q685 1233 670 1196T627 1131T557 1089T464 1073Q415 1073 382 1085T327 1119T297 1168T288 1227Q288 1273 303 1310T346 1375T416 1417T509 1433Q558 1433 591 1420T646 1386T676 1337T685 1279ZM577 1267Q577 1282 573 1297T560 1323T534 1342T495 1349Q448 1349 423 1320T397 1239Q397 1224 401 1210T414 1184T439 1165T478 1158Q525 1158 551 1187T577 1267Z"/><glyph unicode="˛" horiz-adv-x="639" d="M229 -105Q191 -137 175 -158T158 -202Q158 -220 171 -231T218 -243H338Q350 -243 355 -248T360 -263Q360 -269 359 -279T355 -300T348 -320T340 -334Q333 -340 317 -345T279 -355T233 -362T185 -365Q137 -365 102 -357T42 -333T6 -293T-6 -237Q-6 -218 -2 -199T14 -157T48 -110T104 -57L172 0H355L229 -105Z"/><glyph unicode="˜" horiz-adv-x="922" d="M956 1327Q956 1321 954 1303T945 1258T925 1204T888 1151T829 1112T745 1096Q708 1096 680 1105T628 1130T586 1162T548 1194T511 1218T470 1228Q430 1228 411 1199T386 1122Q385 1115 382 1110T372 1101T353 1097T321 1096Q304 1096 294 1097T279 1102T272 1111T270 1125Q270 1131 271 1150T280 1195T301 1249T338 1300T395 1339T479 1355Q516 1355 544 1346T596 1321T639 1289T677 1257T713 1233T754 1223Q789 1223 811 1249T839 1328Q840 1344 852 1349T899 1355Q936 1355 946 1349T956 1327Z"/><glyph unicode="˝" horiz-adv-x="961" d="M748 1088Q741 1081 734 1077T717 1071T696 1068T667 1067Q632 1067 619 1074T617 1096L809 1358Q814 1366 821 1370T840 1378T868 1382T913 1384Q941 1384 958 1381T981 1372T986 1356T972 1335L748 1088ZM410 1088Q405 1082 398 1078T382 1072T361 1068T333 1067Q314 1067 302 1068T284 1073T278 1083T283 1097L465 1355Q470 1363 478 1368T497 1377T524 1382T564 1384Q595 1384 613 1381T639 1372T644 1356T630 1334L410 1088Z"/><glyph unicode="̒" horiz-adv-x="561" d="M452 1102Q446 1092 439 1085T421 1074T393 1069T350 1067Q322 1067 307 1070T284 1079T278 1093T286 1112L443 1353Q449 1363 456 1369T475 1378T501 1383T539 1384Q557 1384 568 1382T583 1374T588 1360T582 1342L452 1102Z"/><glyph unicode="̕" horiz-adv-x="511" d="M374 1002Q370 995 365 991T350 984T328 980T293 979Q279 979 271 981T258 987T254 996T256 1010L384 1315Q388 1325 394 1332T412 1343T439 1349T479 1351Q501 1351 514 1349T533 1343T538 1331T533 1314L374 1002Z"/><glyph unicode="̦" horiz-adv-x="503" d="M114 -334Q107 -344 101 -350T84 -359T60 -363T25 -365Q5 -365 -6 -363T-21 -355T-23 -342T-16 -323L82 -121Q87 -110 94 -103T113 -91T142 -85T187 -83Q213 -83 227 -86T247 -96T251 -111T242 -131L114 -334Z"/><glyph unicode="΄" horiz-adv-x="649" d="M459 1114Q455 1107 449 1103T434 1096T411 1092T377 1091Q346 1091 333 1098T327 1122L421 1384Q425 1394 431 1400T449 1411T477 1417T517 1419Q540 1419 554 1417T576 1411T585 1400T582 1383L459 1114Z"/><glyph unicode="΅" horiz-adv-x="1012" d="M683 1114Q677 1102 660 1097T605 1091Q590 1091 581 1093T566 1098T560 1108T561 1122L646 1384Q651 1404 670 1411T734 1419Q754 1419 767 1417T787 1411T795 1400T793 1383L683 1114ZM293 1212Q298 1236 305 1253T324 1281T353 1296T395 1301Q419 1301 434 1297T458 1282T467 1254T463 1212Q458 1186 450 1169T430 1142T401 1127T359 1122Q335 1122 320 1126T297 1141T288 1169T293 1212ZM853 1212Q858 1236 865 1253T885 1281T914 1296T955 1301Q980 1301 995 1297T1019 1282T1027 1254T1024 1212Q1018 1186 1010 1169T990 1142T961 1127T920 1122Q895 1122 880 1126T857 1141T848 1169T853 1212Z"/><glyph unicode="Ά" horiz-adv-x="1185" d="M1060 61Q1063 39 1062 26T1051 5T1021 -4T967 -6Q945 -6 929 -5T905 0T892 10T887 25L839 340H300L131 28Q126 18 120 12T102 1T72 -4T26 -6Q-4 -6 -22 -4T-47 6T-51 26T-37 62L637 1264Q644 1275 652 1282T673 1293T706 1298T755 1300Q788 1300 808 1299T841 1293T859 1282T866 1263L1060 61ZM723 1122H722L372 477H820L723 1122ZM610 1114Q606 1107 600 1103T585 1096T562 1092T528 1091Q497 1091 484 1098T478 1122L572 1384Q576 1394 582 1400T600 1411T628 1417T668 1419Q691 1419 705 1417T727 1411T736 1400T733 1383L610 1114Z"/><glyph unicode="Έ" horiz-adv-x="1000" d="M1038 1261Q1038 1256 1038 1246T1035 1223T1029 1198T1019 1175T1005 1158T986 1151H481L399 745H834Q846 745 852 737T858 713Q858 708 857 698T853 675T847 650T838 629T824 613T806 606H372L278 143H793Q803 143 809 135T816 110Q816 104 815 93T812 70T806 46T796 23T782 6T763 0H141Q130 0 120 3T102 15T91 37T93 70L324 1224Q331 1263 355 1278T402 1294H1015Q1038 1294 1038 1261ZM144 1114Q140 1107 134 1103T119 1096T96 1092T62 1091Q31 1091 18 1098T12 1122L106 1384Q110 1394 116 1400T134 1411T162 1417T202 1419Q225 1419 239 1417T261 1411T270 1400T267 1383L144 1114Z"/><glyph unicode="Ή" horiz-adv-x="1276" d="M1016 25Q1014 18 1009 12T993 3T966 -3T923 -6Q899 -6 883 -4T858 2T845 12T845 25L959 600H370L256 25Q254 18 249 12T233 3T205 -3T164 -6Q138 -6 122 -4T97 2T85 12T84 25L332 1269Q333 1276 339 1282T356 1291T383 1297T425 1300Q449 1300 465 1298T491 1292T502 1282T504 1269L401 750H989L1093 1269Q1094 1276 1099 1282T1116 1291T1143 1297T1186 1300Q1210 1300 1226 1298T1251 1292T1263 1282T1264 1269L1016 25ZM129 1114Q125 1107 119 1103T104 1096T81 1092T47 1091Q16 1091 3 1098T-3 1122L91 1384Q95 1394 101 1400T119 1411T147 1417T187 1419Q210 1419 224 1417T246 1411T255 1400T252 1383L129 1114Z"/><glyph unicode="Ί" horiz-adv-x="516" d="M256 25Q255 18 250 12T233 3T205 -3T164 -6Q138 -6 122 -4T97 2T85 12T84 25L332 1269Q333 1276 339 1282T357 1291T384 1297T425 1300Q449 1300 465 1298T490 1292T503 1282T504 1269L256 25ZM133 1114Q129 1107 123 1103T108 1096T85 1092T51 1091Q20 1091 7 1098T1 1122L95 1384Q99 1394 105 1400T123 1411T151 1417T191 1419Q214 1419 228 1417T250 1411T259 1400T256 1383L133 1114Z"/><glyph unicode="Ό" horiz-adv-x="1340" d="M1298 860Q1298 783 1284 688T1237 495T1150 305T1015 141T825 25T573 -19Q459 -19 373 9T230 94T143 234T114 426Q114 512 129 611T178 808T268 998T404 1159T593 1271T841 1313Q954 1313 1039 1284T1182 1197T1269 1055T1298 860ZM1114 848Q1114 918 1098 976T1047 1077T954 1142T814 1166Q710 1166 632 1128T496 1027T401 887T341 728T309 573T299 443Q299 372 314 315T366 216T459 153T600 130Q703 130 781 167T916 266T1011 404T1072 561T1104 716T1114 848ZM209 1114Q205 1107 199 1103T184 1096T161 1092T127 1091Q96 1091 83 1098T77 1122L171 1384Q175 1394 181 1400T199 1411T227 1417T267 1419Q290 1419 304 1417T326 1411T335 1400T332 1383L209 1114Z"/><glyph unicode="Ύ" horiz-adv-x="998" d="M1106 1233Q997 1087 917 976T778 776T679 616T612 482T568 360T537 232L496 25Q494 18 489 12T472 3T444 -3T403 -6Q378 -6 362 -4T337 2T325 12T323 25L365 232Q380 307 386 370T391 496T376 627T340 781T281 977T199 1233Q191 1256 190 1269T197 1289T225 1298T278 1300Q305 1300 321 1299T346 1293T361 1283T369 1268Q399 1171 422 1094T464 955T494 844T514 755T525 680T529 613H531Q541 656 568 712T645 846T766 1028T936 1269Q942 1277 948 1283T964 1292T993 1298T1043 1300Q1075 1300 1094 1297T1121 1287T1125 1266T1106 1233ZM86 1114Q82 1107 76 1103T61 1096T38 1092T4 1091Q-27 1091 -40 1098T-46 1122L48 1384Q52 1394 58 1400T76 1411T104 1417T144 1419Q167 1419 181 1417T203 1411T212 1400T209 1383L86 1114Z"/><glyph unicode="Ώ" horiz-adv-x="1360" d="M1188 112Q1188 106 1187 96T1184 73T1177 48T1167 25T1153 7T1135 0H756Q733 0 721 12T709 46Q709 55 712 76T719 111T729 136T744 158T767 180T821 214T909 281T992 376T1056 488T1101 608T1126 727T1135 840Q1135 908 1119 967T1066 1070T969 1140T821 1166Q716 1166 637 1129T500 1034T406 902T346 756T316 616T307 505Q307 449 316 405T345 323T394 254T447 203T477 175T487 159T492 144T494 128Q494 122 493 113T491 94T486 70T476 39T454 12T415 0H35Q23 0 18 9T12 34Q12 41 13 51T16 73T23 99T33 122T47 138T64 145H320Q230 201 180 299T130 530Q130 602 145 688T195 861T285 1029T419 1174T605 1275T847 1313Q963 1313 1051 1282T1200 1191T1290 1048T1320 860Q1320 763 1298 659T1227 459T1104 280T923 145H1164Q1176 145 1182 135T1188 112ZM192 1114Q188 1107 182 1103T167 1096T144 1092T110 1091Q79 1091 66 1098T60 1122L154 1384Q158 1394 164 1400T182 1411T210 1417T250 1419Q273 1419 287 1417T309 1411T318 1400T315 1383L192 1114Z"/><glyph unicode="ΐ" horiz-adv-x="562" d="M491 124Q491 113 489 98T483 68T473 39T459 17Q453 12 440 6T408 -4T364 -12T311 -16Q242 -16 197 5T128 67T103 170T118 314L239 925Q240 933 245 938T261 948T287 954T328 956Q352 956 367 955T391 949T403 939T405 925L283 315Q274 268 272 233T276 173T302 137T354 125Q382 125 402 128T436 134T460 140T477 143Q484 143 487 140T491 124ZM410 1114Q404 1102 387 1097T332 1091Q317 1091 308 1093T293 1098T287 1108T288 1122L373 1384Q378 1404 397 1411T461 1419Q481 1419 494 1417T514 1411T522 1400T520 1383L410 1114ZM20 1212Q25 1236 32 1253T51 1281T80 1296T122 1301Q146 1301 161 1297T185 1282T194 1254T190 1212Q185 1186 177 1169T157 1142T128 1127T86 1122Q62 1122 47 1126T24 1141T15 1169T20 1212ZM580 1212Q585 1236 592 1253T612 1281T641 1296T682 1301Q707 1301 722 1297T746 1282T754 1254T751 1212Q745 1186 737 1169T717 1142T688 1127T647 1122Q622 1122 607 1126T584 1141T575 1169T580 1212Z"/><glyph unicode="Α" horiz-adv-x="1185" d="M1060 61Q1063 39 1062 26T1051 5T1021 -4T967 -6Q945 -6 929 -5T905 0T892 10T887 25L839 340H300L131 28Q126 18 120 12T102 1T72 -4T26 -6Q-4 -6 -22 -4T-47 6T-51 26T-37 62L637 1264Q644 1275 652 1282T673 1293T706 1298T755 1300Q788 1300 808 1299T841 1293T859 1282T866 1263L1060 61ZM723 1122H722L372 477H820L723 1122Z"/><glyph unicode="Β" horiz-adv-x="1114" d="M1051 1042Q1051 981 1035 927T988 826T914 745T815 687Q857 679 893 658T956 606T996 531T1011 436Q1011 383 997 330T955 228T884 138T784 65T657 17T493 0H150Q117 0 101 16T93 70L323 1224Q330 1263 355 1278T407 1294H685Q784 1294 851 1278T962 1229T1029 1150T1051 1042ZM868 1011Q868 1044 857 1070T822 1114T760 1143T661 1154H479L396 735H591Q670 735 721 761T804 827T852 917T868 1011ZM829 424Q829 507 770 552T588 598H367L277 142H518Q600 142 656 165T751 227T809 317T829 424Z"/><glyph unicode="Γ" horiz-adv-x="851" d="M1002 1259Q1002 1253 1001 1243T997 1221T991 1196T980 1174T967 1158T949 1151H481L256 26Q255 18 250 12T233 3T205 -3T164 -6Q138 -6 122 -4T97 2T85 12T84 26L323 1220Q331 1260 355 1277T406 1294H978Q991 1294 996 1285T1002 1259Z"/><glyph unicode="Δ" horiz-adv-x="1156" d="M1013 45Q1003 24 987 12T946 0H24Q0 0 -12 12T-24 47Q-24 51 -23 61T-20 82T-17 102T-12 120T3 152T41 221L624 1264Q630 1275 638 1282T659 1293T691 1298T743 1300Q764 1300 780 1300T809 1297T829 1293T841 1286T848 1276T852 1263L1017 223Q1024 183 1026 164T1028 132Q1028 124 1027 113T1023 89T1018 64T1013 45ZM709 1119H708L181 143H851L709 1119Z"/><glyph unicode="Ε" horiz-adv-x="1000" d="M1038 1261Q1038 1256 1038 1246T1035 1223T1029 1198T1019 1175T1005 1158T986 1151H481L399 745H834Q846 745 852 737T858 713Q858 708 857 698T853 675T847 650T838 629T824 613T806 606H372L278 143H793Q803 143 809 135T816 110Q816 104 815 93T812 70T806 46T796 23T782 6T763 0H141Q130 0 120 3T102 15T91 37T93 70L324 1224Q331 1263 355 1278T402 1294H1015Q1038 1294 1038 1261Z"/><glyph unicode="Ζ" horiz-adv-x="959" d="M998 1294Q1018 1294 1030 1283T1042 1251Q1042 1239 1038 1213T1028 1169Q1025 1160 1022 1152T1011 1134T994 1110T966 1075L192 145H817Q830 145 835 137T840 112Q840 106 839 96T836 73T831 47T822 24T808 7T789 0H24Q0 0 -12 13T-24 46Q-24 52 -23 63T-19 86T-13 110T-7 129Q-4 136 0 144T11 163T28 187T55 219L829 1150H245Q220 1150 220 1185Q220 1190 221 1200T224 1223T230 1248T240 1271T255 1287T275 1294H998Z"/><glyph unicode="Η" horiz-adv-x="1276" d="M1016 25Q1014 18 1009 12T993 3T966 -3T923 -6Q899 -6 883 -4T858 2T845 12T845 25L959 600H370L256 25Q254 18 249 12T233 3T205 -3T164 -6Q138 -6 122 -4T97 2T85 12T84 25L332 1269Q333 1276 339 1282T356 1291T383 1297T425 1300Q449 1300 465 1298T491 1292T502 1282T504 1269L401 750H989L1093 1269Q1094 1276 1099 1282T1116 1291T1143 1297T1186 1300Q1210 1300 1226 1298T1251 1292T1263 1282T1264 1269L1016 25Z"/><glyph unicode="Θ" horiz-adv-x="1344" d="M935 699Q935 693 934 683T930 661T924 636T914 613T900 597T881 590H510Q497 590 492 600T487 625Q487 630 488 640T491 662T498 686T508 709T521 725T539 732H911Q924 732 929 724T935 699ZM1301 859Q1301 801 1294 733T1269 591T1223 445T1153 303T1056 176T929 72T769 3T573 -22Q459 -22 373 7T230 93T143 234T114 427Q114 491 123 563T150 710T197 858T269 999T367 1124T494 1224T652 1290T844 1315Q957 1315 1042 1285T1185 1197T1272 1054T1301 859ZM1117 848Q1117 918 1101 976T1050 1077T958 1142T817 1166Q713 1166 635 1128T498 1027T402 887T341 728T309 573T299 443Q299 372 314 314T366 214T459 150T600 127Q703 127 781 164T917 263T1012 403T1074 561T1107 716T1117 848Z"/><glyph unicode="Ι" horiz-adv-x="516" d="M256 25Q255 18 250 12T233 3T205 -3T164 -6Q138 -6 122 -4T97 2T85 12T84 25L332 1269Q333 1276 339 1282T357 1291T384 1297T425 1300Q449 1300 465 1298T490 1292T503 1282T504 1269L256 25Z"/><glyph unicode="Κ" horiz-adv-x="1064" d="M1151 1267Q1151 1254 1141 1239T1108 1203L571 679L910 76Q919 59 922 49T926 30Q926 21 922 14T909 3T882 -3T837 -6Q809 -6 792 -4T764 1T748 11T738 27L384 673L256 26Q255 18 250 12T233 3T205 -3T164 -6Q139 -6 123 -4T97 2T85 12T84 26L332 1269Q333 1276 339 1282T356 1291T384 1297T425 1300Q449 1300 465 1298T491 1292T503 1282T505 1269L390 693L956 1267Q964 1276 973 1282T995 1292T1026 1298T1068 1300Q1094 1300 1110 1298T1135 1291T1147 1281T1151 1267Z"/><glyph unicode="Λ" horiz-adv-x="1173" d="M1045 61Q1047 47 1047 36T1045 17T1036 5T1018 -2T992 -5T954 -6Q929 -6 914 -5T890 1T878 11T874 26L718 1119H717L133 28Q128 18 122 12T105 1T75 -4T27 -6Q-2 -6 -20 -4T-45 6T-50 26T-34 62L632 1264Q638 1275 646 1282T668 1293T701 1298T750 1300Q782 1300 803 1299T836 1293T854 1282T860 1263L1045 61Z"/><glyph unicode="Μ" horiz-adv-x="1751" d="M1491 25Q1489 18 1484 12T1469 3T1443 -3T1401 -6Q1377 -6 1361 -4T1336 2T1325 12T1324 25L1549 1152H1547L858 21Q850 7 829 1T768 -6Q727 -6 710 1T692 21L477 1153H475L250 25Q248 18 243 12T228 3T202 -3T160 -6Q136 -6 120 -4T96 2T85 12T84 25L321 1216Q325 1236 334 1251T355 1275T380 1289T408 1294H508Q540 1294 561 1288T597 1268T620 1235T632 1187L819 252H824L1402 1187Q1417 1214 1432 1233T1465 1266T1506 1287T1557 1294H1671Q1686 1294 1698 1290T1718 1276T1729 1252T1728 1216L1491 25Z"/><glyph unicode="Ν" horiz-adv-x="1320" d="M1068 71Q1065 51 1056 37T1036 14T1011 1T985 -3H920Q894 -3 876 3T845 23T821 61T798 120L555 810Q530 884 506 957T458 1105H456Q443 1023 428 942T397 780L247 26Q245 18 240 12T224 3T197 -3T157 -6Q134 -6 119 -4T95 2T85 12T84 26L322 1220Q330 1260 355 1277T407 1294H486Q510 1294 528 1289T559 1271T582 1238T604 1185L849 486Q872 421 894 356T939 225H941Q955 307 971 395T1004 565L1145 1266Q1147 1274 1152 1279T1167 1289T1192 1295T1232 1297Q1255 1297 1270 1295T1294 1289T1306 1280T1308 1266L1068 71Z"/><glyph unicode="Ξ" horiz-adv-x="1007" d="M1062 1261Q1062 1255 1061 1244T1058 1220T1052 1194T1042 1168T1028 1149T1009 1141H270Q256 1141 251 1150T245 1176Q245 1182 246 1194T249 1220T256 1246T266 1269T280 1287T300 1294H1039Q1051 1294 1056 1285T1062 1261ZM850 710Q850 702 849 692T846 669T840 645T830 622T816 605T798 598H257Q243 598 238 607T232 633Q232 642 233 653T238 677T245 701T255 722T268 738T285 744H827Q838 744 844 736T850 710ZM850 119Q850 107 849 95T844 69T837 43T826 21T813 6T796 0H25Q13 0 7 9T0 36Q0 44 1 54T5 78T12 105T22 129T36 147T54 154H827Q838 154 844 145T850 119Z"/><glyph unicode="Ο" horiz-adv-x="1340" d="M1298 860Q1298 783 1284 688T1237 495T1150 305T1015 141T825 25T573 -19Q459 -19 373 9T230 94T143 234T114 426Q114 512 129 611T178 808T268 998T404 1159T593 1271T841 1313Q954 1313 1039 1284T1182 1197T1269 1055T1298 860ZM1114 848Q1114 918 1098 976T1047 1077T954 1142T814 1166Q710 1166 632 1128T496 1027T401 887T341 728T309 573T299 443Q299 372 314 315T366 216T459 153T600 130Q703 130 781 167T916 266T1011 404T1072 561T1104 716T1114 848Z"/><glyph unicode="Π" horiz-adv-x="1276" d="M1016 25Q1014 17 1009 12T993 2T966 -4T923 -6Q899 -6 883 -4T858 2T845 11T845 25L1067 1144H479L256 25Q254 17 249 12T233 2T205 -4T164 -6Q138 -6 122 -4T97 2T85 11T84 25L322 1220Q330 1260 354 1277T405 1294H1202Q1215 1294 1226 1290T1245 1277T1255 1254T1254 1220L1016 25Z"/><glyph unicode="Ρ" horiz-adv-x="1058" d="M1064 990Q1064 937 1052 879T1012 766T944 661T843 573T708 514T527 492H349L256 25Q254 18 249 12T233 3T205 -3T163 -6Q140 -6 124 -4T99 1T86 11T84 25L322 1220Q330 1260 355 1277T413 1294H668Q718 1294 756 1291T831 1279Q885 1267 928 1242T1002 1181T1048 1096T1064 990ZM882 972Q882 1034 852 1078T757 1141Q733 1148 704 1150T642 1152H480L378 633H541Q612 633 661 649T747 691T809 752T851 824T874 900T882 972Z"/><glyph unicode="Σ" horiz-adv-x="939" d="M525 688L273 1084Q256 1110 250 1126T243 1164Q243 1170 244 1181T248 1204T253 1228T260 1249Q264 1257 269 1265T283 1280T301 1290T325 1294H976Q989 1294 994 1286T999 1261Q999 1254 998 1244T995 1221T988 1196T978 1174T965 1158T947 1151H429L674 765Q686 747 693 734T700 707Q700 698 698 686T691 661T679 635T660 611L211 143H753Q765 143 770 136T776 112Q776 106 776 95T773 71T766 46T757 23T743 7T724 0H35Q10 0 -1 12T-12 46Q-12 51 -11 61T-7 84T-1 112T8 137Q11 144 16 152T27 170T43 189T63 210L525 688Z"/><glyph unicode="Τ" horiz-adv-x="998" d="M1139 1259Q1139 1253 1139 1243T1136 1220T1129 1195T1119 1171T1105 1155T1086 1148H722L497 26Q495 18 490 12T474 3T446 -3T404 -6Q379 -6 363 -4T338 2T326 12T325 26L549 1148H187Q173 1148 168 1157T163 1182Q163 1189 164 1199T168 1223T175 1248T185 1270T198 1287T216 1294H1116Q1129 1294 1134 1285T1139 1259Z"/><glyph unicode="Υ" horiz-adv-x="998" d="M1106 1233Q997 1087 917 976T778 776T679 616T612 482T568 360T537 232L496 25Q494 18 489 12T472 3T444 -3T403 -6Q378 -6 362 -4T337 2T325 12T323 25L365 232Q380 307 386 370T391 496T376 627T340 781T281 977T199 1233Q191 1256 190 1269T197 1289T225 1298T278 1300Q305 1300 321 1299T346 1293T361 1283T369 1268Q399 1171 422 1094T464 955T494 844T514 755T525 680T529 613H531Q541 656 568 712T645 846T766 1028T936 1269Q942 1277 948 1283T964 1292T993 1298T1043 1300Q1075 1300 1094 1297T1121 1287T1125 1266T1106 1233Z"/><glyph unicode="Φ" horiz-adv-x="1556" d="M754 -71Q753 -78 748 -84T732 -94T704 -100T663 -102Q618 -102 599 -95T583 -71L602 29Q481 34 389 67T235 157T141 296T109 483Q109 570 126 660T180 835T275 995T415 1128T605 1222T851 1264L869 1352Q870 1360 875 1365T892 1374T919 1380T961 1383Q1008 1383 1026 1376T1040 1352L1022 1264Q1145 1258 1238 1225T1393 1134T1486 994T1518 809Q1518 723 1501 633T1447 458T1352 298T1211 164T1020 71T775 29L754 -71ZM1338 795Q1338 864 1319 922T1259 1024T1153 1092T994 1121L804 172Q906 177 985 209T1123 292T1223 406T1289 536T1326 670T1338 795ZM823 1121Q722 1115 643 1083T504 1001T403 887T337 757T300 622T288 498Q288 429 306 371T366 270T472 201T633 172L823 1121Z"/><glyph unicode="Χ" horiz-adv-x="1063" d="M681 661L923 63Q930 41 930 28T922 7T892 -3T836 -6Q807 -6 790 -5T764 1T750 10T743 25L547 544L155 25Q148 16 141 10T121 1T90 -4T42 -6Q9 -6 -11 -4T-39 6T-42 27T-21 62L458 666L237 1232Q229 1254 229 1267T240 1287T271 1297T326 1300Q353 1300 369 1299T395 1292T410 1280T419 1260L595 787L960 1269Q967 1277 974 1283T993 1293T1023 1298T1070 1300Q1103 1300 1123 1298T1151 1288T1155 1267T1135 1232L681 661Z"/><glyph unicode="Ψ" horiz-adv-x="1536" d="M1432 757Q1410 645 1356 555T1221 400T1035 301T805 264L757 25Q755 17 750 12T734 2T706 -4T664 -6Q640 -6 624 -4T598 2T586 11T585 25L633 264Q527 267 445 293T307 366T221 480T191 637Q191 667 195 708T207 786L304 1269Q306 1276 311 1282T327 1291T355 1297T397 1300Q422 1300 438 1298T463 1292T474 1282T476 1269L378 779Q372 747 368 717T364 662Q364 602 382 556T437 478T531 429T662 411L833 1269Q835 1276 841 1282T858 1292T886 1298T926 1300Q951 1300 967 1298T992 1292T1004 1282T1006 1269L834 411Q924 413 996 439T1122 513T1212 628T1265 780L1363 1269Q1364 1276 1370 1282T1386 1291T1413 1297T1456 1300Q1480 1300 1496 1298T1521 1292T1532 1282T1534 1269L1432 757Z"/><glyph unicode="Ω" horiz-adv-x="1360" d="M1188 112Q1188 106 1187 96T1184 73T1177 48T1167 25T1153 7T1135 0H756Q733 0 721 12T709 46Q709 55 712 76T719 111T729 136T744 158T767 180T821 214T909 281T992 376T1056 488T1101 608T1126 727T1135 840Q1135 908 1119 967T1066 1070T969 1140T821 1166Q716 1166 637 1129T500 1034T406 902T346 756T316 616T307 505Q307 449 316 405T345 323T394 254T447 203T477 175T487 159T492 144T494 128Q494 122 493 113T491 94T486 70T476 39T454 12T415 0H35Q23 0 18 9T12 34Q12 41 13 51T16 73T23 99T33 122T47 138T64 145H320Q230 201 180 299T130 530Q130 602 145 688T195 861T285 1029T419 1174T605 1275T847 1313Q963 1313 1051 1282T1200 1191T1290 1048T1320 860Q1320 763 1298 659T1227 459T1104 280T923 145H1164Q1176 145 1182 135T1188 112Z"/><glyph unicode="Ϊ" horiz-adv-x="516" d="M256 25Q255 18 250 12T233 3T205 -3T164 -6Q138 -6 122 -4T97 2T85 12T84 25L332 1269Q333 1276 339 1282T357 1291T384 1297T425 1300Q449 1300 465 1298T490 1292T503 1282T504 1269L256 25ZM774 1527Q769 1499 762 1481T741 1452T708 1436T661 1431Q633 1431 616 1435T589 1451T578 1481T580 1527Q585 1555 592 1573T612 1603T645 1619T692 1624Q720 1624 737 1620T764 1604T776 1574T774 1527ZM361 1527Q357 1499 349 1481T328 1452T295 1436T247 1431Q219 1431 202 1435T175 1451T165 1481T168 1527Q172 1555 179 1573T199 1603T231 1619T280 1624Q307 1624 324 1620T351 1604T363 1574T361 1527Z"/></font>
</defs>
</svg>
