<?xml version="1.0" encoding="UTF-8"?><svg xmlns="http://www.w3.org/2000/svg" width="100%" height="100%"><defs><font id="web" horiz-adv-x="1031"><!--



NOTICE: This font software is the valuable property 
of Monotype Imaging and/or its suppliers and its use 
by you is covered under the terms of the Web Font license 
agreement between you and Monotype Imaging. You may 
ONLY use this font software with the licensed web site. 
Except as specifically permitted by the license, you 
may not copy this font software. If you have any questions, 
please contact Monotype Imaging. 

For more information, please visit http://www.ascenderfonts.com/info/webfont-eula.aspx

Licensed to: isobar.com

Serial number: SH-137
--><font-face font-family="" units-per-em="2048" panose-1="2 15 5 2 2 2 4 3 2 4" ascent="1950" descent="-550" alphabetic="0"/><missing-glyph horiz-adv-x="1038" d="M978 1294V0H44V1294H978ZM891 81V1213H129V81H891ZM767 855Q767 796 750 750T701 673T626 623T532 602L527 450Q527 440 512 436T471 432Q456 432 446 433T430 436T420 441T417 450L412 634Q410 664 424 676T462 688H480Q525 688 555 700T603 734T630 784T638 847Q638 920 597 963T464 1006Q427 1006 397 999T344 982T307 964T285 956Q282 956 279 958T272 965T268 980T266 1006Q266 1023 268 1034T279 1053Q286 1060 306 1069T353 1086T414 1101T481 1107Q556 1107 610 1087T698 1033T750 953T767 855ZM549 273Q549 252 546 238T534 215T511 202T475 198Q453 198 439 202T415 215T402 238T398 273Q398 294 402 308T415 332T438 345T475 349Q496 349 510 345T533 332T545 309T549 273Z"/><glyph unicode="&#9;" horiz-adv-x="463"/><glyph unicode="&#13;" horiz-adv-x="463"/><glyph unicode=" " horiz-adv-x="463"/><glyph unicode="!" horiz-adv-x="667" d="M445 373Q445 365 442 359T429 349T406 343T371 341Q350 341 336 343T313 349T301 359T297 373L280 1327Q279 1339 283 1348T297 1363T325 1371T371 1374Q398 1374 415 1371T443 1362T458 1348T462 1327L445 373ZM476 104Q476 71 472 50T455 15T422 -4T371 -10Q340 -10 320 -5T287 14T271 49T266 104Q266 137 270 159T287 194T319 212T371 218Q402 218 422 213T454 195T471 160T476 104Z"/><glyph unicode="&quot;" horiz-adv-x="821" d="M643 902Q643 894 640 888T629 878T610 872T580 870Q562 870 550 872T531 878T520 888T517 902L494 1365Q494 1373 499 1379T514 1389T540 1395T580 1397Q604 1397 620 1395T647 1389T661 1379T665 1365L643 902ZM288 902Q288 894 285 888T274 878T255 872T225 870Q207 870 195 872T176 878T165 888T162 902L139 1365Q139 1373 144 1379T159 1389T185 1395T225 1397Q273 1397 292 1389T311 1365L288 902Z"/><glyph unicode="#" horiz-adv-x="1020" d="M983 886Q983 869 981 857T974 838T963 827T949 823H818L778 491H894Q909 491 918 476T928 427Q928 410 925 398T918 379T908 368T894 364H761L719 22Q718 15 715 10T704 1T682 -4T645 -6Q622 -6 607 -5T584 0T573 9T571 22L613 364H335L293 22Q291 15 289 10T279 1T257 -4T220 -6Q196 -6 181 -5T158 0T147 9T145 22L186 364H70Q55 364 46 378T36 427Q36 444 39 456T46 475T56 487T70 491H204L245 823H124Q109 823 100 838T90 885Q90 920 99 935T124 950H260L301 1271Q302 1278 305 1283T317 1292T341 1298T379 1300Q403 1300 417 1298T438 1293T448 1284T450 1272L408 950H686L725 1271Q726 1278 730 1283T742 1292T765 1298T804 1300Q827 1300 841 1298T863 1293T872 1284T874 1272L834 950H949Q964 950 973 935T983 886ZM392 823L352 491H629L671 823H392Z"/><glyph unicode="$" horiz-adv-x="1038" d="M932 366Q932 286 902 221T815 108T678 33T497 0L475 -217Q474 -223 472 -228T462 -237T443 -243T410 -245Q387 -245 374 -243T352 -237T342 -227T341 -212L364 4Q316 10 275 19T202 40T148 63T115 85T100 113T96 160Q96 182 98 196T104 220T114 233T130 237Q143 237 167 223T230 191T327 158T464 143Q606 143 679 199T753 351Q753 410 726 449T655 517T554 566T439 608T324 656T223 723T152 820T125 962Q125 1029 148 1087T217 1188T333 1259T496 1293L516 1495Q517 1501 519 1506T529 1516T548 1521T581 1523Q603 1523 617 1521T639 1515T649 1504T651 1490L629 1290Q659 1287 691 1280T752 1263T804 1242T835 1222T847 1207T853 1191T856 1170T858 1143Q858 1124 857 1110T852 1088T844 1076T832 1072Q821 1072 797 1085T737 1113T652 1141T545 1154Q478 1154 431 1141T354 1105T311 1048T297 976Q297 916 324 876T396 808T498 760T614 719T731 671T832 605T904 508T932 366Z"/><glyph unicode="%" horiz-adv-x="1464" d="M629 974Q629 897 612 834T560 727T472 657T346 632Q273 632 221 655T136 721T88 827T72 970Q72 1043 88 1105T139 1212T226 1283T353 1309Q432 1309 485 1282T571 1210T616 1103T629 974ZM489 969Q489 1025 481 1068T457 1141T413 1184T349 1199Q314 1199 288 1185T246 1143T221 1074T213 976Q213 908 222 863T249 791T293 754T354 743Q394 743 419 758T460 802T482 873T489 969ZM1392 327Q1392 250 1375 187T1323 80T1235 10T1109 -15Q1036 -15 984 8T899 74T851 180T835 323Q835 396 851 458T902 565T989 636T1116 662Q1195 662 1248 635T1334 563T1379 456T1392 327ZM1252 322Q1252 378 1244 421T1220 494T1176 537T1112 552Q1077 552 1051 538T1009 496T984 427T976 329Q976 261 985 216T1012 144T1056 107T1117 96Q1157 96 1182 111T1223 155T1245 226T1252 322ZM346 -8Q341 -17 334 -21T317 -29T293 -34T259 -36Q237 -36 224 -32T205 -22T200 -6T210 16L1110 1305Q1115 1313 1122 1318T1139 1327T1163 1331T1198 1333Q1219 1333 1232 1330T1252 1319T1257 1302T1247 1281L346 -8Z"/><glyph unicode="&amp;" horiz-adv-x="1397" d="M108 341Q108 396 123 445T170 541T253 631T378 719Q338 773 310 817T263 899T236 971T228 1041Q228 1103 249 1159T316 1259T436 1328T613 1354Q701 1354 765 1335T872 1281T936 1197T958 1086Q958 1027 939 978T878 883T771 792T612 696Q646 655 686 611T769 521T858 433T948 349Q968 376 984 410T1012 483T1030 562T1036 643V679Q1036 689 1039 695T1051 706T1074 713T1115 715Q1137 715 1152 714T1178 710T1192 699T1197 678V653Q1197 597 1188 543T1162 438T1121 339T1066 252Q1111 216 1144 192T1201 153T1240 132T1266 126Q1276 126 1285 127T1299 124T1308 108T1311 71Q1311 46 1310 31T1307 9T1298 -4T1276 -13T1234 -17Q1214 -17 1190 -10T1134 14T1060 62T960 138Q918 104 872 75T773 26T663 -6T538 -18Q475 -18 419 -7T314 24T228 76T164 146T123 235T108 341ZM403 1054Q403 1027 410 999T433 941T471 875T525 797Q598 838 647 872T727 939T770 1003T784 1071Q784 1100 774 1126T740 1173T682 1206T598 1218Q545 1218 509 1205T449 1169T414 1116T403 1054ZM287 358Q287 306 304 263T356 189T441 140T559 122Q600 122 639 130T713 153T781 188T840 232Q788 277 737 325T637 423T545 520T463 615Q413 583 380 552T326 489T296 425T287 358Z"/><glyph unicode="'" horiz-adv-x="452" d="M290 902Q290 894 287 888T276 878T256 872T226 870Q208 870 196 872T176 878T166 888T162 902L139 1365Q139 1373 144 1379T159 1389T186 1395T226 1397Q250 1397 266 1396T293 1390T308 1379T312 1365L290 902Z"/><glyph unicode="(" horiz-adv-x="621" d="M495 1378Q400 1177 354 966T307 540Q307 325 354 114T493 -300Q498 -312 498 -320T492 -334T471 -342T431 -345Q413 -345 400 -344T378 -340T362 -333T353 -324Q299 -222 258 -118T189 95T147 313T133 537Q133 650 148 760T192 978T262 1192T354 1400Q355 1404 359 1407T372 1413T394 1417T430 1419Q453 1419 467 1416T489 1408T498 1395T495 1378Z"/><glyph unicode=")" horiz-adv-x="621" d="M487 537Q487 424 473 314T431 95T363 -117T268 -324Q265 -329 259 -333T244 -340T221 -344T190 -345Q164 -345 150 -343T129 -335T122 -321T128 -300Q220 -98 267 113T314 540Q314 754 267 965T126 1378Q122 1387 123 1395T132 1408T154 1416T191 1419Q212 1419 226 1418T248 1413T261 1407T267 1400Q370 1195 428 979T487 537Z"/><glyph unicode="*" horiz-adv-x="1020" d="M841 935Q855 929 854 912T830 855Q807 815 793 806T766 806L553 961L581 699Q584 684 568 676T506 668Q460 668 444 676T431 699L459 961L247 806Q235 797 220 806T182 855Q159 894 159 911T172 935L413 1042L172 1148Q158 1155 158 1172T182 1229Q205 1268 220 1277T247 1277L459 1123L431 1384Q428 1400 444 1408T506 1416Q552 1416 568 1408T581 1384L553 1123L766 1277Q778 1286 792 1277T830 1228Q853 1190 854 1173T841 1148L600 1042L841 935Z"/><glyph unicode="+" horiz-adv-x="1020" d="M950 576Q950 557 947 544T939 521T927 508T912 504H584V140Q584 132 580 127T568 117T545 111T510 108Q490 108 476 110T453 117T440 126T436 140V504H108Q99 504 93 508T81 521T73 543T70 576Q70 594 73 607T81 630T92 643T107 647H436V1011Q436 1019 440 1025T452 1036T475 1043T510 1046Q531 1046 545 1044T567 1037T580 1026T584 1011V647H913Q921 647 927 643T939 630T947 608T950 576Z"/><glyph unicode="," horiz-adv-x="511" d="M371 143Q371 112 368 86T358 37T340 -8T311 -56L174 -262Q169 -269 163 -274T147 -283T125 -288T93 -290Q76 -290 65 -289T48 -284T43 -274T46 -260L179 15V143Q179 170 184 186T202 210T232 221T276 224Q301 224 319 221T348 210T365 186T371 143Z"/><glyph unicode="-" horiz-adv-x="627" d="M558 505Q558 466 549 451T523 436H105Q87 436 78 451T69 505Q69 543 78 558T105 573H523Q531 573 537 570T548 559T555 537T558 505Z"/><glyph unicode="." horiz-adv-x="517" d="M366 109Q366 38 343 15T257 -9Q197 -9 174 14T151 106Q151 177 174 200T260 224Q320 224 343 201T366 109Z"/><glyph unicode="/" horiz-adv-x="791" d="M168 -241Q164 -254 158 -261T141 -273T117 -279T81 -281Q56 -281 40 -278T14 -268T3 -252T7 -229L612 1430Q616 1443 622 1450T638 1462T663 1468T699 1470Q724 1470 740 1467T765 1457T776 1441T773 1418L168 -241Z"/><glyph unicode="0" horiz-adv-x="1038" d="M967 650Q967 501 944 378T866 167T723 30T506 -19Q384 -19 301 24T166 152T94 360T72 644Q72 792 96 915T174 1127T316 1264T532 1313Q655 1313 738 1270T873 1142T945 934T967 650ZM791 638Q791 735 784 812T764 948T729 1049T677 1119T609 1159T522 1172Q437 1172 384 1132T301 1022T259 858T248 656Q248 511 263 410T310 244T393 151T516 122Q572 122 614 140T687 191T738 272T770 376T786 499T791 638Z"/><glyph unicode="1" horiz-adv-x="1038" d="M927 68Q927 49 924 36T916 15T905 4T891 0H215Q208 0 202 3T191 15T182 36T179 68Q179 86 182 99T189 120T200 133T215 138H485V1122L235 973Q216 963 205 961T186 965T177 987T174 1025Q174 1042 175 1054T180 1074T188 1088T203 1100L501 1291Q505 1294 511 1296T526 1300T547 1302T577 1303Q601 1303 617 1301T642 1296T654 1287T657 1275V138H891Q899 138 906 134T917 121T924 99T927 68Z"/><glyph unicode="2" horiz-adv-x="1038" d="M924 74Q924 56 922 42T915 19T903 5T886 0H171Q157 0 147 3T129 15T118 38T114 75Q114 95 115 110T122 136T134 159T154 184L405 450Q492 542 544 615T625 748T663 857T672 949Q672 992 658 1030T618 1098T551 1144T459 1161Q398 1161 350 1144T265 1107T204 1070T167 1053Q160 1053 155 1057T146 1070T140 1094T138 1130Q138 1145 139 1156T142 1175T149 1190T165 1207T206 1236T280 1271T378 1301T491 1313Q585 1313 655 1287T772 1214T842 1107T865 977Q865 915 854 854T808 721T705 562T527 360L322 146H885Q893 146 900 142T913 128T921 106T924 74Z"/><glyph unicode="3" horiz-adv-x="1038" d="M914 370Q914 281 883 210T794 87T651 9T459 -19Q394 -19 338 -9T237 16T164 46T128 69T116 83T109 100T105 124T103 160Q103 196 110 210T130 224Q139 224 165 208T233 174T330 139T454 123Q520 123 570 140T654 188T705 261T722 354Q722 409 701 453T638 529T536 578T398 595H275Q267 595 260 598T247 610T238 631T234 665Q234 684 237 696T245 716T258 727T274 731H387Q453 731 505 748T594 797T650 873T670 973Q670 1013 657 1049T618 1113T552 1155T458 1171Q400 1171 352 1154T265 1116T202 1079T167 1061Q160 1061 155 1063T146 1073T141 1094T139 1130Q139 1145 140 1156T144 1176T151 1192T164 1208T203 1236T274 1271T372 1301T492 1313Q582 1313 650 1290T763 1225T831 1125T854 995Q854 934 838 882T791 789T715 720T611 680V678Q678 671 733 645T829 578T891 485T914 370Z"/><glyph unicode="4" horiz-adv-x="1038" d="M979 368Q979 335 969 316T941 297H795V25Q795 17 791 12T777 2T751 -4T710 -6Q686 -6 670 -4T645 2T632 11T628 25V297H94Q82 297 74 300T60 311T51 334T48 373Q48 392 49 407T53 434T61 458T73 483L539 1269Q544 1277 553 1283T578 1293T615 1298T667 1300Q700 1300 724 1298T764 1291T787 1281T795 1265V439H941Q958 439 968 422T979 368ZM628 1149H626L205 439H628V1149Z"/><glyph unicode="5" horiz-adv-x="1038" d="M918 416Q918 312 883 231T784 95T632 10T435 -19Q375 -19 321 -11T225 10T156 35T122 54T111 67T106 81T102 103T101 134Q101 151 102 164T108 186T117 199T130 203Q140 203 161 191T217 164T305 136T430 123Q497 123 553 139T649 189T713 274T736 400Q736 462 717 509T657 588T554 635T406 651Q345 651 301 645T219 639Q191 639 179 652T167 702V1229Q167 1262 182 1278T227 1294H800Q808 1294 815 1290T828 1276T835 1253T838 1220Q838 1184 828 1164T800 1144H317V781Q352 786 388 787T473 788Q584 788 667 762T805 687T889 569T918 416Z"/><glyph unicode="6" horiz-adv-x="1038" d="M957 419Q957 334 931 255T851 115T714 18T518 -19Q437 -19 375 1T267 58T191 149T142 272T115 423T107 599Q107 682 116 767T148 931T210 1079T309 1200T452 1282T645 1312Q682 1312 720 1308T790 1296T844 1279T873 1265T883 1253T889 1239T892 1222T893 1198Q893 1180 893 1167T889 1146T880 1134T865 1130Q854 1130 835 1137T789 1152T724 1168T634 1175Q541 1175 474 1137T365 1035T302 887T278 710Q304 725 336 740T407 767T489 786T581 794Q686 794 758 766T874 687T938 568T957 419ZM783 403Q783 461 772 508T733 589T661 640T550 658Q513 658 476 652T405 634T339 607T281 573Q281 444 297 357T345 218T424 143T534 120Q598 120 645 144T723 208T768 299T783 403Z"/><glyph unicode="7" horiz-adv-x="1038" d="M943 1220Q943 1202 942 1188T938 1160T931 1134T920 1107L454 33Q449 21 442 14T423 2T393 -4T349 -6Q315 -6 296 -3T269 6T261 22T268 45L758 1143H137Q118 1143 109 1163T99 1219Q99 1238 101 1252T109 1275T121 1289T137 1294H891Q905 1294 915 1291T931 1279T940 1256T943 1220Z"/><glyph unicode="8" horiz-adv-x="1038" d="M954 332Q954 248 924 183T838 72T698 4T508 -19Q408 -19 329 2T195 64T111 165T82 302Q82 363 102 414T159 508T252 588T376 660Q316 691 270 725T192 800T144 887T127 987Q127 1055 151 1114T225 1218T351 1287T530 1313Q628 1313 699 1290T817 1226T886 1130T908 1012Q908 961 892 914T843 825T765 747T658 678Q729 643 784 606T877 527T934 437T954 332ZM738 996Q738 1038 724 1072T681 1130T612 1166T517 1179Q409 1179 354 1130T298 996Q298 957 311 924T353 860T425 802T529 742Q630 794 684 857T738 996ZM780 314Q780 360 763 397T712 467T626 530T506 594Q443 563 396 532T318 468T272 399T256 318Q256 221 322 168T521 115Q649 115 714 168T780 314Z"/><glyph unicode="9" horiz-adv-x="1038" d="M934 698Q934 614 924 528T890 363T826 214T724 92T578 11T381 -19Q338 -19 298 -14T225 0T170 17T138 35T124 59T119 101Q119 123 120 136T125 156T133 165T147 168Q158 168 178 161T228 144T300 128T392 120Q489 120 558 157T672 258T738 404T762 579Q709 548 635 524T465 500Q357 500 284 529T166 610T102 731T82 884Q82 970 107 1047T185 1184T320 1278T516 1313Q597 1313 659 1293T768 1234T846 1141T897 1017T925 868T934 698ZM759 717Q759 845 742 932T692 1074T611 1152T500 1176Q435 1176 389 1153T314 1090T270 1000T256 897Q256 838 268 789T309 706T382 654T493 635Q568 635 638 657T759 717Z"/><glyph unicode=":" horiz-adv-x="548" d="M397 800Q397 768 393 746T376 711T343 692T292 686Q260 686 240 691T208 710T192 746T187 800Q187 834 191 856T208 892T240 911T292 917Q323 917 343 912T375 893T392 857T397 800ZM397 106Q397 73 393 51T376 16T343 -3T292 -9Q260 -9 240 -4T208 15T192 51T187 106Q187 139 191 161T208 197T240 216T292 222Q323 222 343 216T375 197T392 162T397 106Z"/><glyph unicode=";" horiz-adv-x="548" d="M397 800Q397 768 393 746T376 711T343 692T292 686Q260 686 240 691T208 710T192 746T187 800Q187 834 191 856T208 892T240 911T292 917Q323 917 343 912T375 893T392 857T397 800ZM397 143Q397 112 394 86T385 37T367 -8T338 -56L202 -260Q197 -268 191 -273T175 -281T154 -287T123 -289Q106 -289 95 -288T78 -282T73 -273T76 -258L207 15V143Q207 170 213 186T230 210T260 221T303 224Q327 224 345 221T374 210T391 186T397 143Z"/><glyph unicode="&lt;" horiz-adv-x="1020" d="M919 162Q919 137 917 122T910 100T898 94T879 101L91 499Q81 504 75 523T69 578Q69 594 70 608T75 631T83 646T94 655L879 1051Q902 1062 910 1050T919 991Q919 962 918 945T913 918T903 902T884 890L240 575L880 265Q893 258 900 253T912 237T917 209T919 162Z"/><glyph unicode="=" horiz-adv-x="1020" d="M925 771Q925 731 914 716T887 700H131Q116 700 105 715T94 771Q94 807 104 824T131 841H887Q905 841 915 824T925 771ZM925 382Q925 342 914 327T887 312H131Q116 312 105 327T94 382Q94 419 104 436T131 453H887Q905 453 915 436T925 382Z"/><glyph unicode="&gt;" horiz-adv-x="1020" d="M952 574Q952 557 950 544T945 520T937 505T926 496L141 100Q130 95 122 95T110 101T103 122T101 160Q101 188 102 205T106 232T117 249T135 260L780 577L139 886Q126 892 119 897T107 914T102 942T101 989Q101 1015 103 1029T109 1050T122 1056T141 1049L929 652Q939 647 945 628T952 574Z"/><glyph unicode="?" horiz-adv-x="949" d="M855 991Q855 903 830 835T760 719T652 644T512 612L505 371Q505 356 488 349T431 341Q410 341 395 342T371 347T358 357T354 371L348 648Q347 671 351 685T365 709T388 722T420 726H442Q507 726 553 746T627 801T669 881T682 977Q682 1034 666 1081T618 1163T538 1217T423 1236Q365 1236 322 1224T246 1196T194 1169T163 1157Q156 1157 151 1160T141 1171T135 1194T133 1231Q133 1255 136 1267T149 1289T187 1314T256 1343T345 1365T446 1374Q553 1374 630 1344T757 1261T831 1139T855 991ZM539 104Q539 71 535 50T518 15T486 -4T435 -10Q403 -10 383 -5T351 14T334 49T329 104Q329 137 333 159T350 194T383 212T435 218Q465 218 485 213T518 195T534 160T539 104Z"/><glyph unicode="@" horiz-adv-x="1831" d="M1656 769Q1656 701 1648 630T1620 492T1570 366T1494 261T1390 191T1253 165Q1212 165 1177 174T1115 202T1070 248T1044 314Q1004 274 967 246T893 199T823 173T755 165Q712 165 679 173T621 198T577 239T547 293T530 359T525 437Q525 480 532 535T555 650T599 765T668 866T767 938T900 966Q932 966 961 959T1018 935T1070 895T1121 838L1138 926Q1142 940 1156 947T1208 954Q1226 954 1238 952T1258 947T1267 938T1268 926L1179 466Q1163 379 1187 338T1278 296Q1319 296 1352 316T1410 372T1452 453T1480 551T1496 657T1501 761Q1501 848 1478 926T1397 1064T1245 1159T1005 1195Q887 1195 795 1169T633 1099T513 996T429 873T373 739T341 607T327 487T323 392Q323 281 348 189T437 30T606 -74T873 -111Q946 -111 1005 -103T1107 -85T1178 -67T1215 -58Q1221 -58 1225 -61T1232 -72T1236 -91T1237 -120Q1237 -134 1237 -143T1234 -159T1229 -173T1219 -184T1185 -199T1108 -219T994 -236T851 -243Q664 -243 535 -199T324 -73T206 124T170 381Q170 433 175 500T196 644T240 800T312 956T420 1099T570 1217T768 1297T1021 1326Q1185 1326 1304 1287T1502 1175T1618 1000T1656 769ZM1076 704Q1038 768 998 802T907 836Q865 836 831 816T772 763T730 689T701 605T686 522T681 450Q681 376 707 336T797 296Q821 296 846 304T899 330T958 376T1028 444L1076 704Z"/><glyph unicode="A" horiz-adv-x="1185" d="M1141 61Q1149 39 1149 26T1142 5T1116 -4T1066 -6Q1035 -6 1017 -5T989 0T975 10T966 25L855 340H317L211 29Q208 20 203 14T189 3T162 -4T116 -6Q87 -6 69 -4T43 6T35 26T44 62L478 1264Q482 1275 488 1282T507 1293T539 1298T589 1300Q621 1300 642 1299T676 1293T696 1282T707 1263L1141 61ZM584 1122H583L360 477H810L584 1122Z"/><glyph unicode="B" horiz-adv-x="1114" d="M1025 371Q1025 310 1010 259T966 166T899 94T810 42T704 11T574 0H236Q213 0 193 15T172 70V1224Q172 1263 192 1278T236 1294H530Q646 1294 720 1272T843 1208T918 1105T943 967Q943 921 932 879T900 802T846 738T771 692Q824 682 870 656T950 588T1005 492T1025 371ZM766 950Q766 997 753 1035T712 1099T639 1140T520 1154H342V735H538Q605 735 646 752T714 799T753 868T766 950ZM844 361Q844 419 826 463T772 537T683 582T548 598H342V142H592Q651 142 695 156T772 197T825 266T844 361Z"/><glyph unicode="C" horiz-adv-x="1092" d="M1036 183Q1036 167 1035 155T1032 134T1025 118T1011 101T969 71T890 31T781 -2T646 -16Q520 -16 419 26T246 150T136 352T97 630Q97 791 138 917T255 1130T434 1264T666 1310Q722 1310 775 1300T873 1273T953 1236T1001 1202T1019 1181T1025 1165T1029 1142T1031 1111Q1031 1091 1029 1077T1023 1054T1014 1040T1000 1035Q986 1035 961 1054T897 1097T801 1140T665 1160Q579 1160 509 1126T388 1024T311 861T283 640Q283 517 309 423T385 265T507 169T670 136Q747 136 804 155T902 197T969 240T1010 259Q1017 259 1022 256T1030 245T1034 221T1036 183Z"/><glyph unicode="D" horiz-adv-x="1260" d="M1167 666Q1167 498 1124 373T999 165T796 41T510 0H236Q213 0 193 15T172 70V1224Q172 1263 192 1278T236 1294H529Q697 1294 813 1251T1007 1126T1126 928T1167 666ZM986 659Q986 764 960 854T879 1011T738 1114T519 1151H344V144H521Q645 144 730 175T872 270T957 430T986 659Z"/><glyph unicode="E" horiz-adv-x="1000" d="M892 71Q892 53 890 40T883 17T872 4T857 0H236Q213 0 193 15T172 70V1224Q172 1263 192 1278T236 1294H850Q858 1294 864 1290T875 1277T881 1255T884 1221Q884 1203 882 1190T875 1168T865 1155T850 1151H344V745H778Q786 745 792 741T803 728T810 706T812 673Q812 655 810 642T804 621T793 610T778 606H344V143H857Q865 143 871 139T883 127T890 105T892 71Z"/><glyph unicode="F" horiz-adv-x="941" d="M852 1220Q852 1201 850 1187T843 1165T832 1152T818 1148H344V708H792Q799 708 805 705T817 693T824 672T826 637Q826 618 824 605T817 583T806 570T792 565H344V26Q344 19 340 13T326 3T300 -3T258 -6Q234 -6 217 -4T190 2T176 12T172 26V1224Q172 1263 192 1278T236 1294H818Q825 1294 831 1290T843 1277T850 1254T852 1220Z"/><glyph unicode="G" horiz-adv-x="1292" d="M1144 1118Q1144 1099 1142 1085T1136 1061T1126 1047T1113 1043Q1101 1043 1073 1062T998 1104T886 1146T730 1165Q623 1165 538 1126T394 1018T304 854T272 648Q272 524 306 428T402 266T547 166T733 132Q793 132 854 146T969 190V567H669Q652 567 644 584T635 637Q635 656 637 669T643 691T654 704T669 708H1080Q1091 708 1102 704T1122 692T1136 670T1141 638V145Q1141 119 1132 100T1094 67T1019 35T924 6T825 -12T726 -18Q576 -18 458 28T259 161T134 367T91 635Q91 789 137 914T268 1127T471 1263T734 1312Q808 1312 873 1299T988 1269T1073 1231T1121 1197T1139 1167T1144 1118Z"/><glyph unicode="H" horiz-adv-x="1276" d="M1104 26Q1104 18 1100 12T1086 3T1060 -3T1019 -6Q993 -6 977 -4T951 2T937 12T933 26V600H344V26Q344 18 340 12T326 3T300 -3T258 -6Q234 -6 217 -4T190 2T176 12T172 26V1268Q172 1276 176 1282T190 1291T217 1297T258 1300Q283 1300 299 1298T326 1292T340 1282T344 1268V750H933V1268Q933 1276 937 1282T951 1291T977 1297T1019 1300Q1043 1300 1059 1298T1086 1292T1100 1282T1104 1268V26Z"/><glyph unicode="I" horiz-adv-x="516" d="M344 26Q344 18 340 12T326 3T300 -3T258 -6Q234 -6 217 -4T190 2T176 12T172 26V1268Q172 1276 176 1282T191 1291T218 1297T258 1300Q283 1300 299 1298T326 1292T340 1282T344 1268V26Z"/><glyph unicode="J" horiz-adv-x="653" d="M484 326Q484 249 470 185T422 76T333 7T195 -18Q167 -18 140 -14T89 -2T49 14T27 29T18 41T12 55T8 76T7 107Q7 129 8 143T14 166T23 178T37 182Q45 182 57 175T87 158T128 142T182 134Q216 134 240 142T280 174T304 237T312 343V1269Q312 1276 316 1282T330 1292T356 1298T398 1300Q422 1300 439 1298T465 1292T479 1282T484 1269V326Z"/><glyph unicode="K" horiz-adv-x="1064" d="M1016 28Q1016 20 1013 14T999 3T972 -3T928 -6Q893 -6 871 -3T838 8T820 26L344 673V26Q344 19 340 13T326 3T300 -3T258 -6Q234 -6 217 -4T190 2T176 12T172 26V1268Q172 1276 176 1282T190 1291T217 1297T258 1300Q283 1300 299 1298T326 1292T340 1282T344 1268V693L802 1268Q808 1277 816 1283T835 1292T863 1298T906 1300Q932 1300 948 1298T973 1291T986 1281T990 1268Q990 1255 984 1242T959 1206L530 693L992 79Q1009 53 1012 44T1016 28Z"/><glyph unicode="L" horiz-adv-x="861" d="M843 75Q843 55 841 42T835 19T824 5T808 0H236Q213 0 193 15T172 70V1268Q172 1276 176 1282T190 1291T217 1297T258 1300Q283 1300 299 1298T326 1292T340 1282T344 1268V149H808Q817 149 823 145T834 132T841 109T843 75Z"/><glyph unicode="M" horiz-adv-x="1751" d="M1579 26Q1579 18 1575 12T1561 3T1536 -3T1495 -6Q1472 -6 1456 -4T1430 2T1416 12T1412 26V1153H1410L949 21Q946 14 941 9T925 1T900 -4T865 -6Q844 -6 829 -4T804 1T789 10T781 21L340 1153H339V26Q339 18 335 12T321 3T295 -3T254 -6Q230 -6 214 -4T189 2T176 12T172 26V1216Q172 1258 194 1276T243 1294H347Q379 1294 403 1288T445 1269T475 1236T496 1189L871 252H876L1266 1186Q1277 1216 1290 1237T1318 1270T1353 1288T1397 1294H1506Q1521 1294 1534 1290T1557 1276T1573 1252T1579 1216V26Z"/><glyph unicode="N" horiz-adv-x="1322" d="M1150 71Q1150 51 1144 37T1127 14T1103 1T1077 -3H1022Q996 -3 977 2T940 22T905 62T866 126L458 862Q426 919 394 981T333 1103H331Q333 1031 334 956T335 807V26Q335 19 331 13T318 3T293 -3T253 -6Q229 -6 214 -4T189 2T176 12T172 26V1220Q172 1260 194 1277T242 1294H324Q353 1294 372 1289T407 1273T437 1241T469 1189L783 621Q812 569 839 520T891 422T940 328T989 234H990Q988 313 988 398T987 563V1265Q987 1272 991 1278T1004 1288T1029 1295T1070 1297Q1092 1297 1108 1295T1133 1289T1146 1278T1150 1265V71Z"/><glyph unicode="O" horiz-adv-x="1356" d="M1256 662Q1256 505 1219 379T1109 165T924 29T665 -19Q519 -19 413 24T237 151T133 357T99 640Q99 793 136 918T247 1130T432 1265T691 1313Q834 1313 940 1270T1116 1145T1221 941T1256 662ZM1075 650Q1075 760 1056 854T991 1018T869 1127T681 1166Q569 1166 493 1124T370 1012T302 849T281 652Q281 538 300 442T364 277T484 169T674 130Q787 130 864 172T988 285T1055 451T1075 650Z"/><glyph unicode="P" horiz-adv-x="1058" d="M967 915Q967 818 935 740T844 607T698 522T491 492H344V26Q344 18 340 12T326 3T300 -3T258 -6Q233 -6 217 -4T190 2T176 12T172 26V1220Q172 1260 193 1277T240 1294H517Q559 1294 597 1291T688 1276T795 1233T888 1155T946 1049T967 915ZM786 901Q786 980 757 1033T684 1112T594 1145T503 1152H344V633H499Q577 633 628 653T715 708T768 793T786 901Z"/><glyph unicode="Q" horiz-adv-x="1378" d="M1415 -114Q1415 -137 1413 -152T1405 -176T1394 -188T1382 -191Q1362 -191 1318 -175T1215 -127T1091 -50T963 55Q914 25 839 3T665 -19Q519 -19 413 24T237 150T133 356T99 640Q99 794 136 918T247 1130T432 1265T691 1313Q830 1313 935 1270T1112 1145T1220 941T1256 663Q1256 582 1247 508T1217 368T1165 246T1092 145Q1165 85 1220 52T1311 1T1367 -23T1397 -40T1411 -67T1415 -114ZM1075 651Q1075 761 1056 855T991 1018T869 1127T681 1166Q569 1166 493 1125T370 1013T302 849T281 652Q281 538 300 443T364 277T484 169T674 130Q787 130 864 172T988 285T1055 451T1075 651Z"/><glyph unicode="R" horiz-adv-x="1112" d="M1035 26Q1035 18 1032 12T1019 2T991 -4T943 -6Q917 -6 901 -4T874 2T859 15T849 35L730 340Q709 392 687 435T633 510T560 559T459 577H344V26Q344 18 340 12T326 3T300 -3T258 -6Q233 -6 217 -4T190 2T176 12T172 26V1224Q172 1263 192 1278T236 1294H511Q560 1294 592 1292T651 1286Q726 1273 783 1245T880 1174T938 1076T958 953Q958 888 941 837T890 746T811 677T708 628Q740 614 766 593T814 541T857 472T897 384L1013 99Q1027 63 1031 49T1035 26ZM776 935Q776 1011 742 1063T628 1139Q603 1146 572 1149T489 1152H344V716H512Q580 716 629 732T712 778T760 848T776 935Z"/><glyph unicode="S" horiz-adv-x="941" d="M867 363Q867 272 834 201T741 81T601 6T427 -19Q362 -19 307 -8T208 19T135 52T94 81T77 111T71 161Q71 183 73 197T79 221T89 233T103 237Q117 237 142 220T208 183T304 146T435 128Q491 128 537 143T617 185T669 253T687 344Q687 399 662 438T596 506T503 560T395 610T288 667T195 740T129 838T103 974Q103 1055 132 1118T214 1225T339 1290T496 1313Q539 1313 582 1306T664 1286T733 1258T772 1233T785 1218T790 1204T793 1183T794 1152Q794 1134 793 1120T788 1097T780 1083T767 1078Q756 1078 733 1092T675 1123T595 1155T490 1170Q436 1170 396 1156T330 1117T291 1060T278 990Q278 936 303 897T369 828T464 773T572 723T680 667T774 595T841 497T867 363Z"/><glyph unicode="T" horiz-adv-x="998" d="M983 1220Q983 1201 981 1187T975 1165T964 1152T949 1148H585V26Q585 18 581 12T567 3T541 -3T499 -6Q475 -6 458 -4T431 2T417 12T413 26V1148H49Q41 1148 35 1152T24 1164T18 1187T15 1220Q15 1239 17 1253T24 1277T34 1290T49 1294H949Q957 1294 963 1290T974 1277T981 1254T983 1220Z"/><glyph unicode="U" horiz-adv-x="1314" d="M1145 478Q1145 360 1111 268T1012 111T856 14T647 -19Q540 -19 452 12T301 103T204 255T170 465V1268Q170 1276 174 1282T188 1291T214 1297T256 1300Q280 1300 297 1298T323 1292T337 1282T341 1268V486Q341 396 363 329T426 218T526 151T658 128Q733 128 791 150T890 216T952 325T974 477V1268Q974 1276 978 1282T992 1291T1018 1297T1060 1300Q1084 1300 1100 1298T1126 1292T1140 1282T1145 1268V478Z"/><glyph unicode="V" horiz-adv-x="1162" d="M695 30Q691 19 684 12T665 1T633 -4T584 -6Q562 -6 546 -6T517 -3T497 1T482 8T473 17T466 31L43 1233Q35 1255 35 1268T43 1289T72 1298T126 1300Q154 1300 170 1299T196 1293T209 1283T218 1266L589 177H590L951 1264Q954 1275 958 1282T972 1293T1000 1298T1048 1300Q1079 1300 1097 1298T1121 1288T1127 1268T1117 1232L695 30Z"/><glyph unicode="W" horiz-adv-x="1822" d="M1411 38Q1407 24 1399 16T1377 3T1343 -4T1292 -6Q1261 -6 1240 -4T1204 2T1183 15T1172 38L901 1015H899L649 38Q646 24 639 16T619 3T586 -4T533 -6Q500 -6 478 -4T442 2T421 15T410 38L68 1233Q62 1256 62 1269T69 1289T97 1298T148 1300Q179 1300 197 1299T224 1293T237 1282T243 1264L534 180H535L811 1262Q814 1273 818 1280T833 1292T861 1298T910 1300Q938 1300 954 1298T981 1292T995 1281T1003 1262L1300 180H1302L1587 1263Q1590 1273 1593 1280T1605 1292T1632 1298T1679 1300Q1709 1300 1726 1298T1752 1288T1760 1268T1754 1232L1411 38Z"/><glyph unicode="X" horiz-adv-x="1063" d="M996 62Q1009 40 1011 27T1005 7T976 -3T921 -6Q889 -6 871 -5T843 1T827 10T817 25L529 540L238 25Q233 16 227 10T211 1T182 -4T134 -6Q101 -6 82 -4T56 6T50 27T66 62L419 657L82 1232Q70 1254 67 1267T71 1288T99 1298T154 1300Q184 1300 203 1299T233 1294T249 1284T260 1269L538 785L814 1269Q819 1277 824 1283T838 1293T865 1298T911 1300Q942 1300 961 1298T989 1288T996 1268T982 1232L646 661L996 62Z"/><glyph unicode="Y" horiz-adv-x="998" d="M585 503V26Q585 18 581 12T567 3T540 -3T499 -6Q474 -6 458 -4T431 2T416 12T412 26V503L46 1233Q35 1256 33 1269T37 1289T64 1298T117 1300Q147 1300 165 1298T195 1293T211 1283T222 1266L401 894Q426 841 451 783T502 666H504Q527 723 551 779T601 891L781 1265Q784 1275 789 1282T804 1292T831 1298T874 1300Q910 1300 930 1298T959 1288T965 1268T951 1233L585 503Z"/><glyph unicode="Z" horiz-adv-x="959" d="M916 72Q916 53 914 40T908 17T897 4T881 0H117Q91 0 75 16T59 67V104Q59 117 60 128T67 151T81 179T103 216L700 1150H110Q100 1150 93 1154T82 1166T75 1188T73 1220Q73 1240 75 1254T81 1277T93 1290T110 1294H830Q857 1294 872 1279T888 1231V1192Q888 1176 886 1164T879 1138T866 1110T843 1075L249 145H881Q898 145 907 128T916 72Z"/><glyph unicode="[" horiz-adv-x="628" d="M539 -260Q539 -293 532 -306T510 -320H254Q242 -320 231 -317T211 -305T197 -284T191 -250V1329Q191 1348 196 1361T211 1383T231 1395T254 1399H510Q516 1399 521 1396T531 1385T537 1366T539 1337Q539 1305 532 1291T510 1277H347V-199H510Q516 -199 521 -202T531 -212T537 -231T539 -260Z"/><glyph unicode="\" horiz-adv-x="791" d="M783 -223Q789 -240 789 -250T781 -265T757 -272T713 -274Q687 -274 671 -273T646 -269T631 -260T623 -246L18 1413Q11 1430 11 1440T19 1455T43 1461T87 1463Q113 1463 129 1462T155 1458T169 1449T177 1436L783 -223Z"/><glyph unicode="]" horiz-adv-x="628" d="M438 -250Q438 -270 433 -283T418 -305T398 -316T374 -320H119Q105 -320 98 -307T90 -260Q90 -243 91 -232T97 -213T106 -202T119 -199H282V1277H119Q105 1277 98 1291T90 1337Q90 1354 91 1365T97 1385T106 1396T119 1399H374Q386 1399 397 1396T418 1384T432 1362T438 1329V-250Z"/><glyph unicode="^" horiz-adv-x="1020" d="M900 624Q908 605 909 594T902 576T877 569T830 567Q804 567 787 568T758 574T742 584T732 598L500 1149L497 1146L278 598Q275 590 270 584T253 574T226 569T183 567Q154 567 138 568T114 576T106 594T115 624L399 1272Q402 1281 410 1287T430 1298T461 1304T503 1306Q529 1306 547 1304T577 1298T597 1288T609 1272L900 624Z"/><glyph unicode="_" horiz-adv-x="1020" d="M1024 -298Q1024 -333 1016 -349T991 -365H28Q11 -365 2 -350T-7 -300Q-7 -266 2 -249T28 -232H991Q1007 -232 1015 -248T1024 -298Z"/><glyph unicode="`" horiz-adv-x="596" d="M455 1134Q462 1123 464 1115T461 1102T443 1094T408 1091Q388 1091 375 1092T353 1097T336 1107T322 1123L141 1356Q133 1365 132 1373T138 1388T162 1398T208 1402Q232 1402 248 1400T276 1394T295 1383T311 1365L455 1134Z"/><glyph unicode="a" horiz-adv-x="981" d="M831 24Q831 12 823 6T801 -3T760 -6Q734 -6 719 -3T696 6T689 24V114Q630 51 558 16T404 -19Q333 -19 276 -1T178 53T115 139T92 255Q92 331 123 387T212 480T354 535T543 554H667V624Q667 676 656 716T621 782T557 822T461 836Q400 836 352 822T267 790T206 758T169 743Q161 743 155 747T145 759T138 779T136 807Q136 832 139 846T156 874T203 904T279 936T373 960T476 970Q573 970 641 948T751 884T812 778T831 631V24ZM667 435H526Q458 435 408 424T325 390T277 336T261 263Q261 193 305 152T430 110Q495 110 550 143T667 244V435Z"/><glyph unicode="b" horiz-adv-x="1076" d="M981 487Q981 370 956 277T881 117T759 16T594 -19Q551 -19 515 -11T443 17T373 65T299 135V25Q299 17 295 11T282 2T260 -4T225 -6Q205 -6 191 -4T168 1T156 11T153 25V1361Q153 1369 156 1375T169 1385T195 1391T235 1393Q260 1393 276 1391T301 1385T314 1375T318 1361V822Q358 863 395 891T469 936T541 962T617 970Q715 970 784 931T897 827T961 673T981 487ZM807 468Q807 537 797 602T760 717T691 797T584 828Q552 828 521 819T458 789T392 735T318 652V293Q386 210 448 167T577 123Q639 123 683 153T754 232T794 343T807 468Z"/><glyph unicode="c" horiz-adv-x="866" d="M800 162Q800 145 799 133T796 112T790 97T774 78T731 47T664 14T582 -10T491 -19Q394 -19 319 13T194 106T117 257T90 464Q90 597 122 692T211 849T344 939T510 969Q553 969 593 961T668 940T728 910T767 881T783 862T791 846T795 824T796 794Q796 755 787 740T765 724Q750 724 731 740T681 777T609 813T508 830Q389 830 326 739T262 473Q262 386 278 321T327 211T405 146T512 124Q569 124 612 142T686 181T739 220T773 238Q780 238 785 234T793 221T798 197T800 162Z"/><glyph unicode="d" horiz-adv-x="1076" d="M924 25Q924 17 921 11T909 2T886 -4T852 -6Q831 -6 817 -4T794 1T781 11T777 25V144Q706 67 630 24T462 -19Q363 -19 293 19T180 123T116 277T96 464Q96 580 121 673T195 833T316 934T484 970Q563 970 628 936T758 834V1357Q758 1364 761 1370T775 1380T800 1386T840 1389Q865 1389 881 1387T906 1381T919 1371T924 1357V25ZM758 658Q691 741 629 784T498 828Q435 828 391 798T320 719T280 608T267 482Q267 414 277 349T314 234T383 153T491 122Q524 122 554 131T617 161T684 215T758 298V658Z"/><glyph unicode="e" horiz-adv-x="1019" d="M921 514Q921 475 902 459T857 442H267Q267 367 282 307T332 204T423 138T560 115Q624 115 674 125T760 149T820 172T856 183Q863 183 868 180T877 169T881 150T883 119Q883 106 882 97T880 80T875 66T866 55T833 37T763 12T664 -9T543 -19Q432 -19 349 12T208 104T122 257T93 471Q93 587 123 679T209 836T346 935T525 970Q631 970 705 936T828 845T898 710T921 544V514ZM755 563Q758 693 698 767T518 841Q457 841 411 818T334 757T286 669T267 563H755Z"/><glyph unicode="f" horiz-adv-x="625" d="M646 1295Q646 1276 644 1265T640 1246T633 1237T623 1234Q616 1234 606 1238T580 1248T545 1258T497 1263Q460 1263 434 1251T392 1214T369 1148T362 1049V951H563Q571 951 576 948T586 936T593 914T596 882Q596 846 587 830T563 814H362V25Q362 17 358 12T345 2T319 -4T279 -6Q255 -6 239 -4T214 2T200 11T196 25V814H69Q53 814 45 830T37 882Q37 901 39 914T45 935T55 947T69 951H196V1044Q196 1138 213 1205T267 1316T357 1379T486 1400Q521 1400 554 1394T605 1380T629 1366T639 1351T644 1328T646 1295Z"/><glyph unicode="g" horiz-adv-x="964" d="M905 884Q905 849 896 834T871 818H742Q777 782 791 739T805 648Q805 570 780 510T709 409T598 345T456 323Q401 323 352 337T275 374Q257 356 246 333T234 280Q234 245 266 222T353 197L588 187Q655 185 711 169T808 122T872 47T895 -57Q895 -119 869 -175T790 -273T653 -340T457 -365Q348 -365 272 -347T146 -296T75 -220T53 -123Q53 -90 61 -59T85 0T126 53T183 104Q134 129 111 167T87 249Q87 310 112 358T174 444Q143 481 125 527T107 640Q107 717 133 778T205 881T315 945T456 968Q497 968 532 964T599 951H871Q888 951 896 935T905 884ZM647 647Q647 739 597 790T453 842Q405 842 370 826T311 782T276 718T264 641Q264 552 314 501T456 450Q505 450 541 465T600 508T635 572T647 647ZM730 -66Q730 -8 683 23T554 57L321 65Q289 40 269 18T236 -25T220 -66T215 -107Q215 -172 281 -205T465 -239Q540 -239 590 -225T672 -186T716 -131T730 -66Z"/><glyph unicode="h" horiz-adv-x="1076" d="M928 25Q928 17 924 12T911 2T886 -4T846 -6Q821 -6 805 -4T780 2T767 11T763 25V552Q763 629 751 676T716 757T657 809T572 827Q510 827 448 783T318 654V25Q318 17 314 12T301 2T276 -4T235 -6Q211 -6 195 -4T170 2T157 11T153 25V1361Q153 1369 156 1375T169 1385T195 1391T235 1393Q260 1393 276 1391T301 1385T314 1375T318 1361V822Q389 897 461 933T606 970Q696 970 757 940T857 858T911 739T928 573V25Z"/><glyph unicode="i" horiz-adv-x="470" d="M318 25Q318 17 314 12T301 2T276 -4T235 -6Q211 -6 195 -4T170 2T157 11T153 25V925Q153 932 156 938T169 948T195 954T235 956Q260 956 276 954T301 948T314 938T318 925V25ZM337 1229Q337 1171 315 1150T234 1129Q176 1129 155 1149T133 1227Q133 1285 155 1306T236 1327Q294 1327 315 1307T337 1229Z"/><glyph unicode="j" horiz-adv-x="490" d="M337 -15Q337 -115 322 -176T275 -280T193 -343T72 -365Q40 -365 18 -361T-17 -352T-33 -341T-40 -326T-42 -308T-43 -286Q-43 -268 -42 -255T-37 -234T-29 -223T-17 -219Q-11 -219 6 -221T47 -224Q80 -224 103 -214T142 -182T164 -123T171 -14V925Q171 932 175 938T188 948T214 954T254 956Q278 956 294 954T319 948T333 938T337 925V-15ZM356 1229Q356 1171 334 1150T253 1129Q195 1129 174 1149T153 1227Q153 1285 174 1306T255 1327Q314 1327 335 1307T356 1229Z"/><glyph unicode="k" horiz-adv-x="931" d="M892 26Q892 18 888 12T875 2T848 -4T805 -6Q778 -6 761 -5T731 0T712 10T698 26L318 524V25Q318 17 314 12T301 2T276 -4T235 -6Q211 -6 195 -4T170 2T157 11T153 25V1361Q153 1369 156 1375T169 1385T195 1391T235 1393Q260 1393 276 1391T301 1385T314 1375T318 1361V547L658 921Q666 931 675 937T696 948T726 954T767 956Q792 956 809 955T836 950T851 941T856 926Q856 914 850 902T828 874L502 548L868 73Q881 56 886 46T892 26Z"/><glyph unicode="l" horiz-adv-x="470" d="M318 25Q318 17 314 12T301 2T276 -4T235 -6Q211 -6 195 -4T170 2T157 11T153 25V1361Q153 1369 156 1375T169 1385T195 1391T235 1393Q260 1393 276 1391T301 1385T314 1375T318 1361V25Z"/><glyph unicode="m" horiz-adv-x="1636" d="M1488 25Q1488 17 1484 12T1471 2T1446 -4T1406 -6Q1381 -6 1365 -4T1340 2T1326 11T1322 25V572Q1322 629 1312 676T1280 757T1224 809T1144 827Q1087 827 1030 783T903 654V25Q903 17 899 12T886 2T860 -4T820 -6Q797 -6 781 -4T755 2T742 11T738 25V572Q738 629 727 676T694 757T639 809T559 827Q502 827 444 783T318 654V25Q318 17 314 12T301 2T276 -4T235 -6Q211 -6 195 -4T170 2T157 11T153 25V925Q153 933 156 938T168 948T191 954T228 956Q250 956 264 955T287 949T298 939T302 925V806Q378 891 449 930T594 970Q650 970 694 957T773 921T831 865T871 792Q916 841 956 875T1034 930T1107 960T1179 970Q1266 970 1325 940T1420 858T1472 739T1488 594V25Z"/><glyph unicode="n" horiz-adv-x="1076" d="M928 25Q928 17 924 12T911 2T886 -4T846 -6Q821 -6 805 -4T780 2T767 11T763 25V552Q763 629 751 676T716 757T657 809T572 827Q510 827 448 783T318 654V25Q318 17 314 12T301 2T276 -4T235 -6Q211 -6 195 -4T170 2T157 11T153 25V925Q153 933 156 938T168 948T191 954T228 956Q250 956 264 955T287 949T298 939T302 925V806Q378 891 453 930T606 970Q696 970 757 940T857 858T911 739T928 574V25Z"/><glyph unicode="o" horiz-adv-x="1080" d="M990 485Q990 375 961 283T875 123T731 19T530 -19Q419 -19 337 14T199 110T117 263T90 467Q90 577 118 669T204 829T348 933T549 970Q660 970 742 937T880 841T962 688T990 485ZM816 474Q816 547 803 612T758 726T674 803T542 832Q469 832 417 806T330 733T280 620T263 478Q263 404 276 339T321 226T406 149T538 120Q610 120 663 146T750 219T800 331T816 474Z"/><glyph unicode="p" horiz-adv-x="1076" d="M981 489Q981 371 956 277T881 118T758 17T591 -19Q551 -19 517 -11T451 14T386 57T318 118V-332Q318 -340 314 -346T301 -356T276 -362T235 -364Q211 -364 195 -362T170 -356T157 -346T153 -332V925Q153 934 156 939T168 949T191 954T225 956Q246 956 259 955T282 949T294 940T298 925V804Q339 846 377 877T453 928T532 959T618 970Q716 970 785 932T897 828T961 675T981 489ZM807 470Q807 539 797 603T761 718T692 798T585 828Q553 828 522 819T459 789T392 735T318 652V294Q386 211 447 167T575 123Q637 123 681 153T753 233T794 345T807 470Z"/><glyph unicode="q" horiz-adv-x="1076" d="M924 -332Q924 -340 920 -346T906 -356T881 -362T841 -364Q816 -364 801 -362T775 -356T762 -346T758 -332V129Q717 88 680 60T607 14T535 -11T459 -19Q361 -19 292 19T180 123T116 277T96 464Q96 580 121 673T195 833T317 934T485 970Q525 970 560 962T629 935T699 887T777 816V925Q777 934 781 939T794 949T817 954T852 956Q872 956 886 955T908 949T920 940T924 925V-332ZM758 658Q691 741 629 784T498 828Q435 828 391 798T320 719T280 608T267 482Q267 413 277 348T314 233T383 153T491 122Q524 122 554 131T617 161T684 215T758 298V658Z"/><glyph unicode="r" horiz-adv-x="714" d="M679 866Q679 844 678 829T674 806T667 793T654 788Q646 788 635 792T609 801T576 810T537 814Q512 814 488 804T438 771T382 710T318 617V25Q318 17 314 12T301 2T276 -4T235 -6Q211 -6 195 -4T170 2T157 11T153 25V925Q153 933 156 938T168 948T191 954T228 956Q250 956 264 955T287 949T298 939T302 925V794Q339 848 371 882T433 935T490 962T548 970Q561 970 577 969T612 963T644 954T665 944T673 935T676 923T678 903T679 866Z"/><glyph unicode="s" horiz-adv-x="801" d="M718 270Q718 201 693 147T620 56T508 0T365 -19Q317 -19 274 -12T196 7T137 31T102 54T86 82T81 131Q81 150 83 163T88 184T96 195T109 199Q120 199 141 186T194 156T269 127T368 113Q410 113 444 122T503 148T541 193T555 257Q555 295 536 321T484 367T412 402T330 435T247 473T174 526T123 600T103 703Q103 756 123 804T185 889T287 948T431 970Q467 970 503 964T568 949T617 930T648 911T662 897T667 884T670 865T672 838Q672 821 671 809T666 788T657 777T646 773Q637 773 620 784T576 807T513 831T429 842Q387 842 355 833T303 806T272 764T261 712Q261 673 281 647T333 600T406 564T489 531T573 493T647 442T698 370T718 270Z"/><glyph unicode="t" horiz-adv-x="686" d="M621 91Q621 62 617 45T605 20T581 5T545 -6T501 -14T455 -17Q385 -17 335 1T253 57T207 152T192 288V814H66Q51 814 42 830T33 882Q33 901 35 914T42 935T52 947T67 951H192V1165Q192 1172 195 1178T208 1188T234 1195T274 1197Q299 1197 315 1195T340 1189T353 1178T357 1165V951H588Q596 951 602 948T612 936T619 914T621 882Q621 846 612 830T588 814H357V312Q357 219 384 172T483 124Q506 124 524 128T556 138T580 147T598 152Q603 152 607 150T614 140T619 121T621 91Z"/><glyph unicode="u" horiz-adv-x="1076" d="M924 25Q924 17 921 12T908 2T885 -4T849 -6Q826 -6 812 -4T789 2T777 11T774 25V144Q697 59 622 20T470 -19Q380 -19 319 11T219 92T165 212T148 379V925Q148 933 151 938T165 948T191 954T231 956Q255 956 271 955T296 949T310 939T314 925V401Q314 322 325 275T360 194T420 142T504 123Q566 123 627 167T758 296V925Q758 933 761 938T775 948T800 954T841 956Q865 956 881 955T906 949T919 939T924 925V25Z"/><glyph unicode="v" horiz-adv-x="925" d="M891 927Q891 923 891 919T889 909T887 898T883 885L576 30Q572 19 566 12T546 1T513 -4T463 -6Q433 -6 413 -4T381 2T361 13T350 30L44 885Q40 897 38 906T35 919T34 927Q34 935 38 941T51 950T76 955T115 956Q144 956 161 955T188 949T202 939T211 924L465 182L469 170L472 182L723 924Q725 933 730 939T744 949T770 954T814 956Q837 956 852 955T875 950T887 941T891 927Z"/><glyph unicode="w" horiz-adv-x="1464" d="M1412 927Q1412 920 1410 910T1403 885L1138 30Q1135 19 1129 12T1111 1T1079 -4T1029 -6Q998 -6 977 -4T944 2T925 13T916 30L727 683L725 692L723 683L548 30Q545 19 539 12T519 1T486 -4T435 -6Q404 -6 385 -4T353 2T334 13T325 30L62 885Q57 900 55 910T53 927Q53 936 57 941T70 950T96 955T135 956Q163 956 180 955T206 950T219 940T226 924L443 182L445 173L447 182L646 924Q648 933 652 939T666 949T690 954T731 956Q755 956 770 955T795 950T808 940T814 926L1029 182L1031 173L1032 182L1246 924Q1248 933 1252 939T1266 949T1292 954T1335 956Q1359 956 1373 955T1396 950T1408 941T1412 927Z"/><glyph unicode="x" horiz-adv-x="887" d="M835 44Q843 30 843 21T834 5T805 -3T754 -6Q724 -6 707 -5T679 0T663 9T653 22L437 379L222 22Q218 15 213 10T197 1T169 -4T124 -6Q95 -6 77 -4T50 5T41 20T51 44L331 483L66 906Q58 920 58 929T66 945T95 954T147 956Q176 956 193 955T221 950T236 942T245 930L450 595L658 930Q662 936 667 941T680 949T704 954T747 956Q776 956 794 954T822 947T830 931T820 906L557 488L835 44Z"/><glyph unicode="y" horiz-adv-x="927" d="M563 0L443 -331Q437 -347 413 -355T338 -364Q312 -364 296 -362T272 -353T262 -337T267 -313L391 0Q382 4 374 13T363 32L42 892Q34 913 34 925T42 944T68 953T116 956Q146 956 163 955T190 949T204 938T214 917L471 195H474L722 921Q728 940 736 945T762 953T811 956Q839 956 857 954T883 944T892 925T886 895L563 0Z"/><glyph unicode="z" horiz-adv-x="809" d="M727 70Q727 51 724 38T717 16T706 4T691 0H137Q116 0 103 14T89 61V95Q89 109 91 120T97 142T108 165T125 194L522 812H137Q121 812 112 828T102 882Q102 900 104 913T110 935T121 947T137 951H653Q664 951 672 948T687 938T696 920T700 892V860Q700 846 698 834T692 811T681 786T664 757L269 139H691Q699 139 705 136T716 124T724 103T727 70Z"/><glyph unicode="{" horiz-adv-x="644" d="M580 -257Q580 -273 578 -284T572 -302T561 -313T549 -317Q531 -321 518 -321T485 -322Q418 -322 375 -301T307 -237T273 -130T264 40V246Q264 314 256 356T230 429T185 480T118 504Q109 506 103 509T94 520T88 538T86 565Q86 581 87 592T92 610T102 621T117 626Q191 634 227 697T264 885V1046Q264 1151 273 1215T308 1322T376 1386T485 1408Q504 1408 516 1408T547 1403Q554 1403 560 1400T571 1389T578 1371T580 1343Q580 1326 578 1315T572 1295T561 1284T546 1281L505 1280Q481 1280 464 1272T437 1239T421 1171T415 1039V893Q415 820 407 769T379 676T324 606T238 565Q290 555 324 526T378 455T407 362T415 237V47Q415 -41 420 -84T435 -151T462 -185T502 -194L544 -195Q553 -195 560 -198T571 -208T578 -227T580 -257Z"/><glyph unicode="|" horiz-adv-x="943" d="M549 -333Q549 -341 546 -347T533 -357T509 -363T471 -365Q449 -365 434 -363T410 -357T398 -347T394 -333V1403Q394 1410 397 1416T410 1426T434 1432T471 1434Q494 1434 509 1432T533 1426T545 1416T549 1403V-333Z"/><glyph unicode="}" horiz-adv-x="644" d="M613 567Q613 551 612 540T607 522T597 512T583 507Q541 503 513 478T468 412T443 323T436 201V40Q436 -65 426 -129T391 -236T323 -300T215 -322Q196 -322 183 -321T150 -317Q143 -317 137 -313T127 -303T120 -285T117 -257Q117 -240 120 -229T127 -209T138 -198T151 -195L194 -194Q218 -194 235 -185T263 -152T279 -85T284 47V193Q284 267 292 325T321 433T375 519T461 566Q410 576 376 598T321 653T293 731T284 849V1039Q284 1128 279 1170T264 1237T237 1271T197 1280L157 1281Q146 1281 139 1284T126 1294T119 1313T117 1343Q117 1359 119 1370T126 1389T137 1399T153 1403Q170 1407 183 1407T215 1408Q281 1408 324 1387T392 1323T426 1216T436 1046V840Q436 772 444 738T470 680T515 645T582 627Q590 627 596 623T606 612T611 594T613 567Z"/><glyph unicode="~" horiz-adv-x="1020" d="M962 1037Q960 969 938 918T880 833T799 781T705 763Q657 763 622 773T560 801T513 841T474 886T438 929T403 964T364 989T316 998Q282 998 259 984T220 945T199 890T192 824Q192 806 175 801T126 795Q106 795 94 797T74 802T64 812T61 825V852Q61 921 80 973T133 1061T214 1115T318 1133Q365 1133 400 1123T463 1095T511 1057T550 1012T584 969T619 934T658 909T707 900Q740 900 763 913T802 949T824 1005T831 1075Q831 1091 847 1096T896 1102Q915 1102 928 1101T949 1095T960 1085T962 1070V1037Z"/><glyph unicode=" " horiz-adv-x="463"/><glyph unicode="¡" horiz-adv-x="667" d="M222 809Q222 817 225 823T238 833T261 839T296 841Q317 841 331 839T354 833T366 823T370 809L387 -145Q388 -157 384 -166T370 -181T342 -189T296 -192Q269 -192 252 -189T224 -180T209 -166T205 -145L222 809ZM191 1078Q191 1111 195 1132T212 1167T245 1186T296 1192Q327 1192 347 1187T380 1168T396 1133T401 1078Q401 1045 397 1023T380 988T348 970T296 964Q265 964 245 969T213 987T196 1022T191 1078Z"/><glyph unicode="¢" horiz-adv-x="1020" d="M892 327Q892 295 888 279T872 250T841 224T794 196T736 172T668 156V9Q668 2 665 -4T654 -14T631 -20T596 -22Q575 -22 561 -20T539 -14T527 -4T524 9V153Q356 174 271 295T185 633Q185 749 210 836T280 985T387 1081T523 1129V1276Q523 1283 526 1289T538 1299T560 1305T595 1307Q616 1307 630 1305T653 1299T665 1289T668 1276V1132Q696 1129 724 1121T779 1101T829 1074T865 1046T881 1027T889 1011T893 990T894 961Q894 947 893 935T887 912T876 896T860 890Q844 890 826 907T778 943T706 980T601 997Q550 997 506 978T429 917T376 807T356 641Q356 547 375 481T430 372T512 311T616 292Q672 292 713 309T784 348T834 388T866 406Q874 406 878 401T886 385T891 360T892 327Z"/><glyph unicode="£" horiz-adv-x="1038" d="M950 69Q950 50 947 37T939 16T928 4T915 0H119Q112 0 106 4T95 16T86 37T83 69Q83 87 85 100T93 122T104 135T119 139H242V593H119Q112 593 106 596T95 608T86 628T83 661Q83 678 85 691T93 712T104 724T119 728H242V848Q242 971 270 1059T349 1203T474 1284T637 1310Q679 1310 719 1303T794 1282T856 1252T897 1222T916 1201T924 1183T928 1161T929 1131Q929 1114 927 1101T921 1080T912 1067T899 1062Q885 1062 866 1079T816 1116T744 1153T642 1170Q582 1170 539 1150T467 1089T425 990T411 854V728H739Q747 728 753 725T764 713T771 691T774 661Q774 641 771 629T763 608T752 597T739 593H411V139H915Q922 139 928 135T940 123T947 101T950 69Z"/><glyph unicode="¤" horiz-adv-x="1020" d="M798 858Q839 809 860 741T882 590Q882 507 856 436T781 310L926 101Q937 84 939 72T936 52T913 40T869 36Q844 36 828 37T801 41T784 49T772 62L666 231Q631 213 589 203T498 192Q452 192 414 199T345 222L238 51Q233 43 227 38T210 31T183 27T142 26Q114 26 98 29T74 40T70 60T84 88L226 295Q179 344 156 415T132 574Q132 661 156 731T225 854L80 1066Q69 1083 66 1095T70 1115T93 1126T137 1130Q161 1130 177 1129T205 1125T222 1118T234 1105L340 935Q376 954 420 964T516 975Q564 975 606 966T683 936L790 1107Q794 1115 800 1120T817 1128T844 1132T886 1134Q914 1134 930 1130T953 1118T957 1098T943 1069L798 858ZM729 575Q729 630 717 680T678 768T609 827T506 850Q451 850 410 831T341 776T299 694T285 591Q285 530 297 480T337 394T408 338T513 318Q567 318 607 338T675 394T715 475T729 575Z"/><glyph unicode="¥" horiz-adv-x="1038" d="M605 614V560H881Q895 560 903 546T911 500Q911 465 902 452T881 438H605V280H881Q895 280 903 266T911 220Q911 186 902 173T881 159H605V24Q605 16 601 11T587 2T560 -4T519 -6Q494 -6 478 -4T451 1T437 10T433 24V159H157Q145 159 136 172T127 220Q127 251 136 265T157 280H433V438H157Q145 438 136 451T127 500Q127 531 136 545T157 560H433V614L71 1233Q58 1254 55 1267T60 1288T88 1297T142 1300Q169 1300 186 1299T215 1294T232 1284T243 1269L393 1001Q428 938 460 873T526 743Q559 808 591 873T658 1001L807 1269Q811 1278 816 1284T830 1293T857 1298T904 1300Q935 1300 953 1298T979 1288T983 1268T967 1233L605 614Z"/><glyph unicode="¦" horiz-adv-x="1020" d="M586 759Q586 752 583 746T570 736T546 730T508 728Q486 728 471 729T446 735T434 746T430 759V1422Q430 1429 433 1435T446 1445T470 1451T508 1454Q531 1454 546 1452T570 1445T582 1435T586 1422V759ZM586 -360Q586 -367 583 -373T570 -383T546 -389T508 -391Q486 -391 471 -389T446 -383T434 -373T430 -360V313Q430 320 433 326T446 336T470 343T508 345Q531 345 546 343T570 337T582 326T586 313V-360Z"/><glyph unicode="§" horiz-adv-x="1020" d="M909 550Q909 509 897 469T862 394T808 329T738 275Q776 239 795 193T815 89Q815 19 789 -35T715 -127T602 -184T458 -203Q406 -203 362 -194T283 -172T227 -146T198 -126T188 -114T182 -100T179 -80T178 -54Q178 -36 180 -23T185 -2T194 10T206 14Q220 14 239 1T289 -29T362 -58T466 -72Q505 -72 539 -63T597 -36T634 9T648 73Q648 108 638 134T606 181T549 221T464 260L377 295Q317 320 269 348T188 412T136 495T118 605Q118 646 130 685T166 760T221 826T292 878Q253 916 233 964T213 1078Q213 1139 236 1188T303 1273T405 1326T537 1345Q576 1345 611 1339T676 1324T727 1303T755 1285T765 1274T770 1261T773 1240T775 1212Q775 1195 773 1183T768 1162T760 1151T748 1147Q739 1147 724 1158T684 1182T623 1206T536 1218Q493 1218 464 1206T415 1176T388 1135T379 1088Q379 1051 389 1024T422 974T478 933T563 893L650 858Q710 833 758 805T839 741T891 658T909 550ZM744 538Q744 607 703 649T575 725L491 760Q466 770 445 780T404 801Q342 773 313 723T283 616Q283 581 293 554T324 505T377 464T452 428L536 394Q561 385 582 375T623 352Q686 380 715 431T744 538Z"/><glyph unicode="¨" horiz-adv-x="804" d="M318 1217Q318 1162 298 1142T224 1122Q170 1122 151 1141T132 1214Q132 1270 151 1290T225 1310Q280 1310 299 1290T318 1217ZM672 1217Q672 1162 652 1142T578 1122Q524 1122 505 1141T486 1214Q486 1270 505 1290T579 1310Q634 1310 653 1290T672 1217Z"/><glyph unicode="©" horiz-adv-x="1709" d="M862 97Q1017 97 1120 143T1285 272T1373 465T1400 705Q1400 843 1371 950T1276 1132T1105 1245T846 1284Q710 1284 609 1246T441 1131T342 941T309 675Q309 532 340 424T437 243T609 134T862 97ZM1534 716Q1534 526 1490 388T1358 159T1144 25T852 -19Q683 -19 556 24T345 152T218 366T175 665Q175 851 218 989T347 1218T560 1354T856 1400Q1031 1400 1158 1355T1369 1222T1493 1008T1534 716ZM1132 408Q1132 393 1131 382T1128 363T1122 348T1110 333T1076 308T1020 279T948 257T863 248Q774 248 706 276T592 359T523 495T499 682Q499 799 527 884T606 1023T726 1104T875 1131Q914 1131 949 1124T1015 1104T1071 1076T1107 1049T1122 1032T1128 1018T1132 999T1133 975Q1133 962 1131 951T1126 932T1118 919T1104 914Q1087 914 1070 928T1027 960T965 992T873 1007Q766 1007 709 926T651 690Q651 609 666 550T710 452T783 393T882 374Q933 374 970 389T1033 424T1078 458T1110 474Q1115 474 1119 471T1126 460T1130 439T1132 408Z"/><glyph unicode="ª" horiz-adv-x="824" d="M672 645Q672 639 669 635T658 628T639 623T610 621Q590 621 578 623T558 628T548 635T545 646V700H543Q505 658 454 634T343 610Q291 610 249 623T178 662T132 724T116 810Q116 863 137 902T199 968T298 1006T433 1019H523V1060Q523 1092 516 1116T493 1156T449 1181T382 1189Q343 1189 310 1180T253 1159T211 1138T187 1128Q171 1128 162 1145T153 1195Q153 1206 154 1215T160 1231T171 1243T207 1263T289 1292T406 1307Q479 1307 529 1290T611 1242T657 1166T672 1065V645ZM679 407Q679 373 671 359T644 345H149Q132 345 123 359T114 407Q114 442 123 456T149 470H644Q662 470 670 456T679 407ZM523 923H437Q392 923 360 916T308 895T279 861T269 816Q269 770 297 745T375 720Q397 720 415 725T451 739T485 764T523 801V923Z"/><glyph unicode="«" horiz-adv-x="1049" d="M869 161Q875 151 875 144T868 132T845 125T804 122Q781 122 767 122T744 126T730 133T719 146L500 482Q486 503 486 522T501 564L715 893Q720 900 725 905T740 914T763 917T799 918Q824 918 839 916T862 908T870 895T865 877L650 522L869 161ZM283 520L496 147Q502 137 502 129T497 114T475 104T434 101Q412 101 399 102T376 106T362 114T351 127L130 480Q117 503 117 523T132 565L349 912Q354 920 359 925T374 933T396 937T432 938Q457 938 472 935T494 926T501 912T495 893L283 520Z"/><glyph unicode="¬" horiz-adv-x="1020" d="M922 321Q922 313 918 307T906 296T883 289T848 287Q829 287 815 289T792 295T779 306T775 321V502H96Q88 502 82 506T71 518T64 540T61 573Q61 592 64 605T71 626T82 639T97 643H851Q890 643 906 629T922 576V321Z"/><glyph unicode="­" horiz-adv-x="627" d="M558 505Q558 466 549 451T523 436H105Q87 436 78 451T69 505Q69 543 78 558T105 573H523Q531 573 537 570T548 559T555 537T558 505Z"/><glyph unicode="®" horiz-adv-x="1038" d="M910 1020Q910 938 880 867T796 743T671 660T517 629Q432 629 361 658T238 739T157 862T128 1018Q128 1100 158 1171T242 1294T366 1377T521 1407Q606 1407 677 1378T800 1298T881 1175T910 1020ZM820 1014Q820 1085 798 1143T735 1242T640 1306T521 1328Q452 1328 397 1304T301 1238T240 1141T218 1022Q218 952 240 894T303 795T398 731T517 708Q586 708 642 732T737 798T798 895T820 1014ZM702 831Q702 827 701 824T693 819T676 816T646 815Q629 815 619 816T602 819T592 826T586 839L565 908Q553 945 537 959T487 974H460V834Q460 823 452 819T412 815Q381 815 371 819T361 834V1193Q361 1215 372 1227T405 1240H520Q560 1240 590 1233T642 1211T675 1174T686 1120Q686 1072 660 1046T590 1008Q614 1000 635 981T671 924L695 860Q702 837 702 831ZM578 1108Q578 1119 575 1129T564 1146T541 1158T506 1162H460V1050H504Q546 1050 562 1066T578 1108Z"/><glyph unicode="¯" horiz-adv-x="807" d="M644 1293Q652 1293 658 1290T667 1279T673 1259T676 1228Q676 1211 674 1200T668 1180T658 1168T644 1164H165Q157 1164 151 1168T140 1180T134 1199T132 1228Q132 1246 134 1258T140 1278T150 1289T165 1293H644Z"/><glyph unicode="°" horiz-adv-x="694" d="M591 1133Q591 1084 573 1041T521 966T442 915T343 897Q290 897 247 913T171 960T121 1032T103 1125Q103 1176 122 1219T174 1294T253 1343T351 1361Q403 1361 447 1344T523 1298T573 1226T591 1133ZM465 1129Q465 1156 456 1179T431 1220T393 1246T345 1256Q320 1256 299 1247T261 1220T236 1180T227 1131Q227 1102 236 1078T261 1037T300 1011T349 1001Q373 1001 394 1011T431 1038T456 1079T465 1129Z"/><glyph unicode="±" horiz-adv-x="1020" d="M944 720Q944 683 933 666T907 649H582V289Q582 282 578 277T566 267T544 261T510 258Q490 258 476 260T454 267T441 276T437 289V649H113Q98 649 87 666T76 720Q76 738 78 751T86 773T97 785T112 789H437V1151Q437 1158 441 1164T453 1174T476 1181T510 1184Q530 1184 543 1182T565 1175T578 1164T582 1151V789H908Q915 789 921 785T933 773T941 752T944 720ZM938 70Q938 50 935 37T927 15T915 3T902 0H121Q114 0 108 3T96 14T88 36T84 70Q84 90 87 103T94 124T106 137T120 142H903Q911 142 917 138T928 125T935 103T938 70Z"/><glyph unicode="²" horiz-adv-x="688" d="M615 780Q615 751 609 736T589 721H119Q108 721 100 723T86 731T78 748T75 776Q75 792 76 803T82 823T92 841T109 861L262 1011Q312 1059 342 1098T390 1169T412 1228T417 1279Q417 1326 385 1356T294 1386Q257 1386 228 1376T176 1355T137 1334T113 1324Q109 1324 105 1327T97 1337T93 1356T91 1384Q91 1406 94 1419T106 1442T136 1463T186 1486T252 1504T328 1511Q391 1511 438 1495T517 1451T563 1384T579 1300Q579 1265 573 1231T543 1154T477 1059T360 939L254 838H588Q600 838 607 823T615 780Z"/><glyph unicode="³" horiz-adv-x="685" d="M601 944Q601 888 580 844T519 770T422 724T294 708Q247 708 209 714T144 728T100 745T80 757T73 766T69 779T66 798T65 828Q65 850 70 864T87 878Q93 878 109 869T150 850T208 832T283 823Q359 823 400 853T441 938Q441 967 429 990T393 1030T332 1054T248 1062H176Q168 1062 163 1065T155 1075T149 1093T147 1120Q147 1134 149 1144T154 1160T163 1169T175 1172H244Q327 1172 371 1205T415 1297Q415 1343 385 1370T294 1397Q258 1397 227 1388T171 1367T130 1346T107 1336Q96 1336 92 1348T87 1389Q87 1402 88 1411T90 1426T94 1437T103 1448T131 1465T182 1487T248 1504T322 1511Q384 1511 430 1497T507 1457T552 1396T567 1317Q567 1245 528 1195T412 1129V1127Q452 1124 486 1110T547 1071T587 1014T601 944Z"/><glyph unicode="´" horiz-adv-x="598" d="M286 1365Q292 1376 300 1383T319 1394T348 1400T389 1402Q417 1402 434 1399T459 1389T465 1374T456 1356L275 1123Q267 1113 261 1107T246 1098T224 1093T190 1091Q168 1091 155 1094T137 1102T132 1115T141 1134L286 1365Z"/><glyph unicode="µ" horiz-adv-x="1126" d="M1104 76Q1104 45 1101 29T1090 7T1073 -3T1046 -11T1014 -16T977 -18Q893 -18 843 18T777 142Q704 58 632 22T490 -15Q432 -15 386 1T308 56Q310 34 311 9T315 -43T317 -96T318 -144V-332Q318 -340 314 -346T301 -356T276 -362T235 -364Q211 -364 195 -362T170 -356T157 -346T153 -332V925Q153 933 156 938T169 948T195 954T235 956Q260 956 276 955T301 949T314 939T318 925V359Q318 248 367 186T509 124Q571 124 632 167T763 296V925Q763 933 767 938T780 948T805 954T846 956Q870 956 886 955T911 949T924 939T928 925V271Q928 230 932 202T945 156T969 131T1009 123Q1025 123 1037 125T1057 129T1072 133T1086 135Q1090 135 1093 133T1099 124T1103 107T1104 76Z"/><glyph unicode="¶" horiz-adv-x="1200" d="M1022 -205Q1022 -212 1019 -217T1007 -226T985 -231T950 -234Q930 -234 916 -232T894 -226T882 -218T879 -205V1165H681V-205Q681 -212 677 -217T666 -226T644 -231T609 -234Q567 -234 552 -226T537 -205V533Q434 533 354 558T219 632T136 750T107 909Q107 991 136 1061T219 1183T355 1264T562 1294H965Q994 1294 1008 1277T1022 1234V-205Z"/><glyph unicode="·" horiz-adv-x="517" d="M366 584Q366 513 343 490T257 466Q197 466 174 489T151 581Q151 652 174 675T260 699Q320 699 343 676T366 584Z"/><glyph unicode="¸" horiz-adv-x="629" d="M458 -74Q479 -119 488 -148T498 -204Q498 -242 484 -272T444 -322T382 -354T301 -365Q267 -365 236 -361T182 -351T151 -342T139 -332T134 -317T132 -293Q132 -262 138 -252T160 -241H284Q316 -241 334 -228T352 -187Q352 -174 346 -155T330 -113L279 0H424L458 -74Z"/><glyph unicode="¹" horiz-adv-x="504" d="M373 739Q373 732 369 728T356 721T334 717T300 715Q280 715 267 716T246 720T235 727T231 739V1367L82 1287Q68 1280 59 1279T45 1283T38 1299T35 1327Q35 1341 36 1351T39 1367T46 1379T58 1389L244 1500Q247 1501 252 1503T265 1506T284 1507T311 1508Q331 1508 343 1507T362 1503T371 1498T373 1489V739Z"/><glyph unicode="º" horiz-adv-x="865" d="M761 965Q761 886 739 821T676 709T572 636T430 610Q345 610 283 633T180 701T120 810T100 958Q100 1036 121 1100T183 1211T288 1284T436 1310Q516 1310 577 1286T678 1217T740 1108T761 965ZM724 407Q724 373 716 359T689 345H171Q154 345 145 359T136 407Q136 442 145 456T171 470H689Q707 470 715 456T724 407ZM600 958Q600 1004 592 1045T564 1118T512 1168T430 1187Q386 1187 354 1171T302 1125T271 1054T261 962Q261 913 269 872T296 800T349 752T430 734Q471 734 503 747T556 788T589 858T600 958Z"/><glyph unicode="»" horiz-adv-x="1049" d="M699 127Q694 119 689 114T675 106T652 102T616 101Q591 101 576 104T554 113T546 127T553 145L766 519L552 892Q546 902 546 910T552 925T574 935T614 938Q636 938 649 937T672 933T686 925T697 912L917 559Q931 536 931 516T916 473L699 127ZM333 146Q328 138 323 133T309 126T286 122T249 121Q223 121 208 123T185 131T177 144T184 162L399 517L179 878Q173 888 173 895T180 907T203 915T245 918Q267 918 281 917T304 913T318 906T329 893L548 557Q562 536 562 517T547 475L333 146Z"/><glyph unicode="¼" horiz-adv-x="1303" d="M1228 184Q1228 158 1222 144T1205 130H1130V17Q1130 11 1127 7T1115 0T1094 -4T1060 -6Q1041 -6 1028 -5T1007 0T996 7T992 17V130H706Q698 130 692 132T683 140T677 158T675 189Q675 205 675 216T678 236T683 253T693 271L929 633Q932 637 939 640T957 647T986 651T1028 653Q1056 653 1075 652T1107 647T1125 640T1130 630V234H1205Q1215 234 1221 223T1228 184ZM992 536H990L791 234H992V536ZM247 -8Q242 -17 235 -21T218 -29T194 -34T160 -36Q138 -36 125 -32T106 -22T101 -6T111 16L1011 1305Q1016 1313 1023 1318T1040 1327T1064 1331T1099 1333Q1120 1333 1133 1330T1153 1319T1158 1302T1148 1281L247 -8ZM406 664Q406 658 402 654T390 646T368 642T333 641Q314 641 301 642T279 646T267 653T263 664V1168L114 1090Q100 1083 91 1082T77 1084T70 1099T68 1126Q68 1139 68 1149T72 1168T79 1181T90 1190L277 1300Q281 1301 285 1302T296 1303T313 1304T340 1305Q361 1305 373 1304T393 1301T403 1297T406 1289V664Z"/><glyph unicode="½" horiz-adv-x="1375" d="M406 664Q406 658 402 654T390 646T368 642T333 641Q314 641 301 642T279 646T267 653T263 664V1168L114 1090Q100 1083 91 1082T77 1084T70 1099T68 1126Q68 1139 68 1149T72 1168T79 1181T90 1190L277 1300Q281 1301 285 1302T296 1303T313 1304T340 1305Q361 1305 373 1304T393 1301T403 1297T406 1289V664ZM1284 53Q1284 25 1278 13T1261 0H848Q836 0 829 2T816 10T809 27T806 57Q806 72 807 82T811 102T819 118T836 135L969 257Q1006 292 1031 318T1071 367T1092 412T1099 459Q1099 498 1072 523T999 548Q965 548 939 540T893 523T860 505T840 497Q836 497 832 500T826 510T822 528T820 556Q820 576 822 586T832 604T858 622T904 641T963 656T1031 662Q1087 662 1128 649T1198 610T1239 551T1253 476Q1253 443 1245 412T1216 347T1159 275T1067 191L972 111H1257Q1271 111 1277 96T1284 53ZM247 -8Q242 -17 235 -21T218 -29T194 -34T160 -36Q138 -36 125 -32T106 -22T101 -6T111 16L1011 1305Q1016 1313 1023 1318T1040 1327T1064 1331T1099 1333Q1120 1333 1133 1330T1153 1319T1158 1302T1148 1281L247 -8Z"/><glyph unicode="¾" horiz-adv-x="1383" d="M554 832Q554 787 534 750T478 687T391 647T278 632Q244 632 213 636T155 648T111 663T85 680T74 700T71 739Q71 766 75 775T89 784Q97 784 111 777T146 761T197 745T269 738Q304 738 328 746T368 766T391 795T399 829Q399 852 390 870T362 901T311 920T236 927H170Q163 927 158 929T150 938T145 954T143 978Q143 993 145 1002T150 1017T157 1025T168 1027H233Q304 1027 341 1052T378 1123Q378 1158 352 1181T269 1205Q240 1205 214 1197T168 1180T133 1163T112 1155Q108 1155 104 1157T97 1165T93 1180T91 1204Q91 1215 91 1222T93 1236T97 1246T105 1255T128 1269T173 1287T233 1302T305 1309Q361 1309 402 1297T470 1263T511 1211T525 1143Q525 1114 516 1089T489 1044T446 1009T390 986Q430 982 460 969T511 936T543 890T554 832ZM326 -8Q321 -17 314 -21T297 -29T273 -34T239 -36Q217 -36 204 -32T185 -22T180 -6T190 16L1090 1305Q1095 1313 1102 1318T1119 1327T1143 1331T1178 1333Q1199 1333 1212 1330T1232 1319T1237 1302T1227 1281L326 -8ZM1308 184Q1308 158 1302 144T1285 130H1210V17Q1210 11 1207 7T1195 0T1174 -4T1140 -6Q1121 -6 1108 -5T1087 0T1076 7T1072 17V130H786Q778 130 772 132T763 140T757 158T755 189Q755 205 755 216T758 236T763 253T773 271L1009 633Q1012 637 1019 640T1037 647T1066 651T1108 653Q1136 653 1155 652T1187 647T1205 640T1210 630V234H1285Q1295 234 1301 223T1308 184ZM1072 536H1070L871 234H1072V536Z"/><glyph unicode="¿" horiz-adv-x="949" d="M94 191Q94 279 119 347T189 463T297 538T437 570L444 811Q444 826 461 833T518 841Q539 841 554 840T578 835T591 825T595 811L601 534Q602 511 598 497T584 473T561 460T529 456H507Q442 456 396 436T322 381T280 301T267 205Q267 148 283 101T331 19T411 -35T526 -54Q584 -54 627 -42T703 -14T755 13T786 25Q793 25 798 22T808 11T814 -12T816 -49Q816 -73 813 -85T800 -107T762 -132T693 -161T604 -183T503 -192Q396 -192 319 -162T192 -79T118 43T94 191ZM410 1078Q410 1111 414 1132T431 1167T463 1186T514 1192Q546 1192 566 1187T598 1168T615 1133T620 1078Q620 1045 616 1023T599 988T566 970T514 964Q484 964 464 969T431 987T415 1022T410 1078Z"/><glyph unicode="À" horiz-adv-x="1185" d="M1141 61Q1149 39 1149 26T1142 5T1116 -4T1066 -6Q1035 -6 1017 -5T989 0T975 10T966 25L855 340H317L211 29Q208 20 203 14T189 3T162 -4T116 -6Q87 -6 69 -4T43 6T35 26T44 62L478 1264Q482 1275 488 1282T507 1293T539 1298T589 1300Q621 1300 642 1299T676 1293T696 1282T707 1263L1141 61ZM584 1122H583L360 477H810L584 1122ZM643 1438Q652 1427 654 1419T652 1406T634 1398T597 1395Q576 1395 562 1396T537 1401T518 1410T499 1426L273 1638Q262 1648 260 1657T264 1673T288 1684T336 1689Q361 1689 378 1688T409 1682T433 1671T455 1651L643 1438Z"/><glyph unicode="Á" horiz-adv-x="1185" d="M1141 61Q1149 39 1149 26T1142 5T1116 -4T1066 -6Q1035 -6 1017 -5T989 0T975 10T966 25L855 340H317L211 29Q208 20 203 14T189 3T162 -4T116 -6Q87 -6 69 -4T43 6T35 26T44 62L478 1264Q482 1275 488 1282T507 1293T539 1298T589 1300Q621 1300 642 1299T676 1293T696 1282T707 1263L1141 61ZM584 1122H583L360 477H810L584 1122ZM704 1651Q715 1664 725 1671T749 1682T780 1687T823 1689Q853 1689 870 1685T894 1673T899 1657T887 1638L660 1426Q650 1416 642 1411T622 1402T597 1397T561 1395Q538 1395 525 1397T507 1405T504 1419T515 1438L704 1651Z"/><glyph unicode="Â" horiz-adv-x="1185" d="M1141 61Q1149 39 1149 26T1142 5T1116 -4T1066 -6Q1035 -6 1017 -5T989 0T975 10T966 25L855 340H317L211 29Q208 20 203 14T189 3T162 -4T116 -6Q87 -6 69 -4T43 6T35 26T44 62L478 1264Q482 1275 488 1282T507 1293T539 1298T589 1300Q621 1300 642 1299T676 1293T696 1282T707 1263L1141 61ZM584 1122H583L360 477H810L584 1122ZM605 1689Q626 1689 640 1688T664 1684T682 1675T699 1660L913 1433Q922 1423 924 1416T920 1404T900 1397T864 1395Q834 1395 816 1396T787 1400T770 1407T758 1417L604 1590L445 1422Q437 1414 429 1409T409 1400T379 1396T334 1395Q309 1395 296 1397T277 1404T273 1416T284 1433L508 1660Q516 1669 524 1674T544 1683T569 1688T605 1689Z"/><glyph unicode="Ã" horiz-adv-x="1185" d="M1141 61Q1149 39 1149 26T1142 5T1116 -4T1066 -6Q1035 -6 1017 -5T989 0T975 10T966 25L855 340H317L211 29Q208 20 203 14T189 3T162 -4T116 -6Q87 -6 69 -4T43 6T35 26T44 62L478 1264Q482 1275 488 1282T507 1293T539 1298T589 1300Q621 1300 642 1299T676 1293T696 1282T707 1263L1141 61ZM584 1122H583L360 477H810L584 1122ZM819 1614Q819 1627 833 1631T881 1636Q917 1636 928 1629T939 1596Q939 1503 888 1450T742 1396Q689 1396 650 1414T579 1453T518 1492T457 1510Q415 1510 398 1485T381 1418Q381 1411 377 1407T364 1400T345 1397T319 1396Q283 1396 272 1404T261 1436Q261 1484 275 1521T315 1584T377 1622T458 1636Q511 1636 550 1618T621 1579T681 1540T743 1522Q778 1522 798 1542T819 1614Z"/><glyph unicode="Ä" horiz-adv-x="1185" d="M1141 61Q1149 39 1149 26T1142 5T1116 -4T1066 -6Q1035 -6 1017 -5T989 0T975 10T966 25L855 340H317L211 29Q208 20 203 14T189 3T162 -4T116 -6Q87 -6 69 -4T43 6T35 26T44 62L478 1264Q482 1275 488 1282T507 1293T539 1298T589 1300Q621 1300 642 1299T676 1293T696 1282T707 1263L1141 61ZM584 1122H583L360 477H810L584 1122ZM488 1529Q488 1473 467 1452T390 1431Q334 1431 314 1451T294 1527Q294 1583 314 1603T391 1624Q447 1624 467 1604T488 1529ZM901 1529Q901 1473 881 1452T803 1431Q748 1431 728 1451T707 1527Q707 1583 728 1603T804 1624Q861 1624 881 1604T901 1529Z"/><glyph unicode="Å" horiz-adv-x="1185" d="M1141 61Q1149 39 1149 26T1142 5T1116 -4T1066 -6Q1035 -6 1017 -5T989 0T975 10T966 25L855 340H317L211 29Q208 20 203 14T189 3T162 -4T116 -6Q87 -6 69 -4T43 6T35 26T44 62L478 1264Q482 1275 488 1282T507 1293T539 1298T589 1300Q621 1300 642 1299T676 1293T696 1282T707 1263L1141 61ZM584 1122H583L360 477H810L584 1122ZM802 1551Q802 1509 788 1474T746 1414T681 1375T594 1360Q543 1360 506 1373T443 1411T406 1469T394 1544Q394 1587 407 1622T448 1681T513 1720T601 1734Q698 1734 750 1686T802 1551ZM690 1545Q690 1587 669 1615T598 1644Q552 1644 529 1619T505 1551Q505 1505 526 1478T600 1451Q646 1451 668 1477T690 1545Z"/><glyph unicode="Æ" horiz-adv-x="1563" d="M1453 71Q1453 53 1451 40T1445 17T1434 4T1420 0H799Q775 0 755 15T735 70V316H289L135 28Q130 18 124 12T107 1T77 -4T29 -6Q8 -6 -7 -5T-32 -2T-47 6T-52 20Q-52 27 -49 37T-37 62L615 1257Q621 1269 629 1276T651 1287T683 1292T732 1294H1412Q1420 1294 1426 1290T1437 1277T1444 1255T1446 1221Q1446 1203 1444 1190T1438 1168T1427 1155T1412 1151H906V744H1340Q1349 744 1355 740T1366 727T1372 705T1375 672Q1375 653 1373 640T1366 618T1356 605T1340 601H906V143H1420Q1427 143 1433 139T1444 127T1451 105T1453 71ZM735 1151H729L354 454H735V1151Z"/><glyph unicode="Ç" horiz-adv-x="1092" d="M737 -74Q759 -119 768 -148T777 -204Q777 -242 763 -272T724 -322T662 -354T581 -365Q546 -365 515 -361T461 -351T430 -342T419 -332T414 -317T412 -293Q412 -262 418 -252T440 -241H563Q596 -241 614 -228T632 -187Q632 -174 626 -155T610 -113L564 -11Q475 -1 392 38T242 154T136 352T97 630Q97 791 138 917T255 1130T434 1264T666 1310Q722 1310 775 1300T873 1273T953 1236T1001 1202T1019 1181T1025 1165T1029 1142T1031 1111Q1031 1091 1029 1077T1023 1054T1014 1040T1000 1035Q986 1035 961 1054T897 1097T801 1140T665 1160Q579 1160 509 1126T388 1024T311 861T283 640Q283 517 309 423T385 265T507 169T670 136Q743 136 801 154T901 197T969 240T1010 259Q1017 259 1022 256T1030 245T1034 221T1036 183Q1036 167 1035 155T1032 134T1025 118T1011 101T969 71T892 31T799 1T710 -13L737 -74Z"/><glyph unicode="È" horiz-adv-x="1000" d="M892 71Q892 53 890 40T883 17T872 4T857 0H236Q213 0 193 15T172 70V1224Q172 1263 192 1278T236 1294H850Q858 1294 864 1290T875 1277T881 1255T884 1221Q884 1203 882 1190T875 1168T865 1155T850 1151H344V745H778Q786 745 792 741T803 728T810 706T812 673Q812 655 810 642T804 621T793 610T778 606H344V143H857Q865 143 871 139T883 127T890 105T892 71ZM585 1438Q594 1427 596 1419T594 1406T576 1398T539 1395Q518 1395 504 1396T479 1401T460 1410T441 1426L215 1638Q204 1648 202 1657T206 1673T230 1684T278 1689Q303 1689 320 1688T351 1682T375 1671T397 1651L585 1438Z"/><glyph unicode="É" horiz-adv-x="1000" d="M892 71Q892 53 890 40T883 17T872 4T857 0H236Q213 0 193 15T172 70V1224Q172 1263 192 1278T236 1294H850Q858 1294 864 1290T875 1277T881 1255T884 1221Q884 1203 882 1190T875 1168T865 1155T850 1151H344V745H778Q786 745 792 741T803 728T810 706T812 673Q812 655 810 642T804 621T793 610T778 606H344V143H857Q865 143 871 139T883 127T890 105T892 71ZM654 1651Q665 1664 675 1671T699 1682T730 1687T773 1689Q803 1689 820 1685T844 1673T849 1657T837 1638L610 1426Q600 1416 592 1411T572 1402T547 1397T511 1395Q488 1395 475 1397T457 1405T454 1419T465 1438L654 1651Z"/><glyph unicode="Ê" horiz-adv-x="1000" d="M892 71Q892 53 890 40T883 17T872 4T857 0H236Q213 0 193 15T172 70V1224Q172 1263 192 1278T236 1294H850Q858 1294 864 1290T875 1277T881 1255T884 1221Q884 1203 882 1190T875 1168T865 1155T850 1151H344V745H778Q786 745 792 741T803 728T810 706T812 673Q812 655 810 642T804 621T793 610T778 606H344V143H857Q865 143 871 139T883 127T890 105T892 71ZM535 1689Q556 1689 570 1688T594 1684T612 1675T629 1660L843 1433Q852 1423 854 1416T850 1404T830 1397T794 1395Q764 1395 746 1396T717 1400T700 1407T688 1417L534 1590L375 1422Q367 1414 359 1409T339 1400T309 1396T264 1395Q239 1395 226 1397T207 1404T203 1416T214 1433L438 1660Q446 1669 454 1674T474 1683T499 1688T535 1689Z"/><glyph unicode="Ë" horiz-adv-x="1000" d="M892 71Q892 53 890 40T883 17T872 4T857 0H236Q213 0 193 15T172 70V1224Q172 1263 192 1278T236 1294H850Q858 1294 864 1290T875 1277T881 1255T884 1221Q884 1203 882 1190T875 1168T865 1155T850 1151H344V745H778Q786 745 792 741T803 728T810 706T812 673Q812 655 810 642T804 621T793 610T778 606H344V143H857Q865 143 871 139T883 127T890 105T892 71ZM425 1529Q425 1473 404 1452T327 1431Q271 1431 251 1451T231 1527Q231 1583 251 1603T328 1624Q384 1624 404 1604T425 1529ZM838 1529Q838 1473 818 1452T740 1431Q685 1431 665 1451T644 1527Q644 1583 665 1603T741 1624Q798 1624 818 1604T838 1529Z"/><glyph unicode="Ì" horiz-adv-x="516" d="M344 26Q344 18 340 12T326 3T300 -3T258 -6Q234 -6 217 -4T190 2T176 12T172 26V1268Q172 1276 176 1282T191 1291T218 1297T258 1300Q283 1300 299 1298T326 1292T340 1282T344 1268V26ZM334 1438Q343 1427 345 1419T343 1406T325 1398T288 1395Q267 1395 253 1396T228 1401T209 1410T190 1426L-36 1638Q-47 1648 -49 1657T-45 1673T-21 1684T27 1689Q52 1689 69 1688T100 1682T124 1671T146 1651L334 1438Z"/><glyph unicode="Í" horiz-adv-x="516" d="M344 26Q344 18 340 12T326 3T300 -3T258 -6Q234 -6 217 -4T190 2T176 12T172 26V1268Q172 1276 176 1282T191 1291T218 1297T258 1300Q283 1300 299 1298T326 1292T340 1282T344 1268V26ZM373 1651Q384 1664 394 1671T418 1682T449 1687T492 1689Q522 1689 539 1685T563 1673T568 1657T556 1638L329 1426Q319 1416 311 1411T291 1402T266 1397T230 1395Q207 1395 194 1397T176 1405T173 1419T184 1438L373 1651Z"/><glyph unicode="Î" horiz-adv-x="516" d="M344 26Q344 18 340 12T326 3T300 -3T258 -6Q234 -6 217 -4T190 2T176 12T172 26V1268Q172 1276 176 1282T191 1291T218 1297T258 1300Q283 1300 299 1298T326 1292T340 1282T344 1268V26ZM266 1689Q287 1689 301 1688T325 1684T343 1675T360 1660L574 1433Q583 1423 585 1416T581 1404T561 1397T525 1395Q495 1395 477 1396T448 1400T431 1407T419 1417L265 1590L106 1422Q98 1414 90 1409T70 1400T40 1396T-5 1395Q-30 1395 -43 1397T-62 1404T-66 1416T-55 1433L169 1660Q177 1669 185 1674T205 1683T230 1688T266 1689Z"/><glyph unicode="Ï" horiz-adv-x="516" d="M344 26Q344 18 340 12T326 3T300 -3T258 -6Q234 -6 217 -4T190 2T176 12T172 26V1268Q172 1276 176 1282T191 1291T218 1297T258 1300Q283 1300 299 1298T326 1292T340 1282T344 1268V26ZM150 1529Q150 1473 129 1452T52 1431Q-4 1431 -24 1451T-44 1527Q-44 1583 -24 1603T53 1624Q109 1624 129 1604T150 1529ZM563 1529Q563 1473 543 1452T465 1431Q410 1431 390 1451T369 1527Q369 1583 390 1603T466 1624Q523 1624 543 1604T563 1529Z"/><glyph unicode="Ð" horiz-adv-x="1279" d="M1186 666Q1186 498 1143 373T1017 165T814 41T528 0H254Q231 0 211 15T191 70V601H61Q53 601 47 605T36 617T29 639T27 672Q27 691 29 704T35 727T46 740T61 744H191V1224Q191 1263 211 1278T254 1294H547Q715 1294 831 1251T1026 1126T1145 928T1186 666ZM1004 659Q1004 764 978 854T897 1011T757 1114T537 1151H362V744H598Q605 744 611 740T622 727T629 705T631 672Q631 653 629 640T623 618T612 605T598 601H362V144H540Q664 144 749 175T890 270T975 430T1004 659Z"/><glyph unicode="Ñ" horiz-adv-x="1322" d="M1150 71Q1150 51 1144 37T1127 14T1103 1T1077 -3H1022Q996 -3 977 2T940 22T905 62T866 126L458 862Q426 919 394 981T333 1103H331Q333 1031 334 956T335 807V26Q335 19 331 13T318 3T293 -3T253 -6Q229 -6 214 -4T189 2T176 12T172 26V1220Q172 1260 194 1277T242 1294H324Q353 1294 372 1289T407 1273T437 1241T469 1189L783 621Q812 569 839 520T891 422T940 328T989 234H990Q988 313 988 398T987 563V1265Q987 1272 991 1278T1004 1288T1029 1295T1070 1297Q1092 1297 1108 1295T1133 1289T1146 1278T1150 1265V71ZM881 1614Q881 1627 895 1631T943 1636Q979 1636 990 1629T1001 1596Q1001 1503 950 1450T804 1396Q751 1396 712 1414T641 1453T580 1492T519 1510Q477 1510 460 1485T443 1418Q443 1411 439 1407T426 1400T407 1397T381 1396Q345 1396 334 1404T323 1436Q323 1484 337 1521T377 1584T439 1622T520 1636Q573 1636 612 1618T683 1579T743 1540T805 1522Q840 1522 860 1542T881 1614Z"/><glyph unicode="Ò" horiz-adv-x="1356" d="M1256 662Q1256 505 1219 379T1109 165T924 29T665 -19Q519 -19 413 24T237 151T133 357T99 640Q99 793 136 918T247 1130T432 1265T691 1313Q834 1313 940 1270T1116 1145T1221 941T1256 662ZM1075 650Q1075 760 1056 854T991 1018T869 1127T681 1166Q569 1166 493 1124T370 1012T302 849T281 652Q281 538 300 442T364 277T484 169T674 130Q787 130 864 172T988 285T1055 451T1075 650ZM757 1438Q766 1427 768 1419T766 1406T748 1398T711 1395Q690 1395 676 1396T651 1401T632 1410T613 1426L387 1638Q376 1648 374 1657T378 1673T402 1684T450 1689Q475 1689 492 1688T523 1682T547 1671T569 1651L757 1438Z"/><glyph unicode="Ó" horiz-adv-x="1356" d="M1256 662Q1256 505 1219 379T1109 165T924 29T665 -19Q519 -19 413 24T237 151T133 357T99 640Q99 793 136 918T247 1130T432 1265T691 1313Q834 1313 940 1270T1116 1145T1221 941T1256 662ZM1075 650Q1075 760 1056 854T991 1018T869 1127T681 1166Q569 1166 493 1124T370 1012T302 849T281 652Q281 538 300 442T364 277T484 169T674 130Q787 130 864 172T988 285T1055 451T1075 650ZM782 1651Q793 1664 803 1671T827 1682T858 1687T901 1689Q931 1689 948 1685T972 1673T977 1657T965 1638L738 1426Q728 1416 720 1411T700 1402T675 1397T639 1395Q616 1395 603 1397T585 1405T582 1419T593 1438L782 1651Z"/><glyph unicode="Ô" horiz-adv-x="1356" d="M1256 662Q1256 505 1219 379T1109 165T924 29T665 -19Q519 -19 413 24T237 151T133 357T99 640Q99 793 136 918T247 1130T432 1265T691 1313Q834 1313 940 1270T1116 1145T1221 941T1256 662ZM1075 650Q1075 760 1056 854T991 1018T869 1127T681 1166Q569 1166 493 1124T370 1012T302 849T281 652Q281 538 300 442T364 277T484 169T674 130Q787 130 864 172T988 285T1055 451T1075 650ZM689 1689Q710 1689 724 1688T748 1684T766 1675T783 1660L997 1433Q1006 1423 1008 1416T1004 1404T984 1397T948 1395Q918 1395 900 1396T871 1400T854 1407T842 1417L688 1590L529 1422Q521 1414 513 1409T493 1400T463 1396T418 1395Q393 1395 380 1397T361 1404T357 1416T368 1433L592 1660Q600 1669 608 1674T628 1683T653 1688T689 1689Z"/><glyph unicode="Õ" horiz-adv-x="1356" d="M1256 662Q1256 505 1219 379T1109 165T924 29T665 -19Q519 -19 413 24T237 151T133 357T99 640Q99 793 136 918T247 1130T432 1265T691 1313Q834 1313 940 1270T1116 1145T1221 941T1256 662ZM1075 650Q1075 760 1056 854T991 1018T869 1127T681 1166Q569 1166 493 1124T370 1012T302 849T281 652Q281 538 300 442T364 277T484 169T674 130Q787 130 864 172T988 285T1055 451T1075 650ZM903 1614Q903 1627 917 1631T965 1636Q1001 1636 1012 1629T1023 1596Q1023 1503 972 1450T826 1396Q773 1396 734 1414T663 1453T602 1492T541 1510Q499 1510 482 1485T465 1418Q465 1411 461 1407T448 1400T429 1397T403 1396Q367 1396 356 1404T345 1436Q345 1484 359 1521T399 1584T461 1622T542 1636Q595 1636 634 1618T705 1579T765 1540T827 1522Q862 1522 882 1542T903 1614Z"/><glyph unicode="Ö" horiz-adv-x="1356" d="M1256 662Q1256 505 1219 379T1109 165T924 29T665 -19Q519 -19 413 24T237 151T133 357T99 640Q99 793 136 918T247 1130T432 1265T691 1313Q834 1313 940 1270T1116 1145T1221 941T1256 662ZM1075 650Q1075 760 1056 854T991 1018T869 1127T681 1166Q569 1166 493 1124T370 1012T302 849T281 652Q281 538 300 442T364 277T484 169T674 130Q787 130 864 172T988 285T1055 451T1075 650ZM572 1529Q572 1473 551 1452T474 1431Q418 1431 398 1451T378 1527Q378 1583 398 1603T475 1624Q531 1624 551 1604T572 1529ZM985 1529Q985 1473 965 1452T887 1431Q832 1431 812 1451T791 1527Q791 1583 812 1603T888 1624Q945 1624 965 1604T985 1529Z"/><glyph unicode="×" horiz-adv-x="1020" d="M610 573L912 272Q917 266 920 260T923 247Q923 234 914 219T890 191T860 169T835 160Q829 160 824 163T812 170L509 474L206 171Q200 166 194 164T180 161Q168 161 154 171T126 194T105 223T96 249Q96 261 106 272L410 576L107 879Q102 884 99 890T96 903Q96 916 106 931T130 959T159 980T184 989Q197 989 208 978L511 674L814 977Q819 982 825 985T838 988Q850 988 865 978T893 955T915 926T924 900Q924 894 922 888T914 877L610 573Z"/><glyph unicode="Ø" horiz-adv-x="1359" d="M1260 662Q1260 505 1223 379T1110 165T924 29T667 -19Q605 -19 552 -10T453 16L342 -206Q339 -212 332 -217T314 -224T287 -228T250 -230Q225 -230 210 -227T188 -216T181 -200T188 -179L316 80Q261 119 221 174T153 299T113 454T99 640Q99 793 136 918T247 1130T432 1265T692 1313Q753 1313 805 1304T907 1276L1015 1497Q1019 1504 1026 1509T1044 1517T1072 1521T1109 1522Q1134 1522 1148 1518T1170 1508T1177 1492T1170 1470L1043 1212Q1097 1172 1137 1117T1204 993T1246 842T1260 662ZM1081 652Q1081 777 1054 879T963 1053L519 159Q552 144 590 136T677 128Q791 128 868 170T993 283T1061 450T1081 652ZM842 1136Q809 1152 770 1160T681 1168Q568 1168 491 1127T367 1015T299 850T278 651Q278 522 305 416T397 239L842 1136Z"/><glyph unicode="Ù" horiz-adv-x="1314" d="M1145 478Q1145 360 1111 268T1012 111T856 14T647 -19Q540 -19 452 12T301 103T204 255T170 465V1268Q170 1276 174 1282T188 1291T214 1297T256 1300Q280 1300 297 1298T323 1292T337 1282T341 1268V486Q341 396 363 329T426 218T526 151T658 128Q733 128 791 150T890 216T952 325T974 477V1268Q974 1276 978 1282T992 1291T1018 1297T1060 1300Q1084 1300 1100 1298T1126 1292T1140 1282T1145 1268V478ZM718 1438Q727 1427 729 1419T727 1406T709 1398T672 1395Q651 1395 637 1396T612 1401T593 1410T574 1426L348 1638Q337 1648 335 1657T339 1673T363 1684T411 1689Q436 1689 453 1688T484 1682T508 1671T530 1651L718 1438Z"/><glyph unicode="Ú" horiz-adv-x="1314" d="M1145 478Q1145 360 1111 268T1012 111T856 14T647 -19Q540 -19 452 12T301 103T204 255T170 465V1268Q170 1276 174 1282T188 1291T214 1297T256 1300Q280 1300 297 1298T323 1292T337 1282T341 1268V486Q341 396 363 329T426 218T526 151T658 128Q733 128 791 150T890 216T952 325T974 477V1268Q974 1276 978 1282T992 1291T1018 1297T1060 1300Q1084 1300 1100 1298T1126 1292T1140 1282T1145 1268V478ZM761 1651Q772 1664 782 1671T806 1682T837 1687T880 1689Q910 1689 927 1685T951 1673T956 1657T944 1638L717 1426Q707 1416 699 1411T679 1402T654 1397T618 1395Q595 1395 582 1397T564 1405T561 1419T572 1438L761 1651Z"/><glyph unicode="Û" horiz-adv-x="1314" d="M1145 478Q1145 360 1111 268T1012 111T856 14T647 -19Q540 -19 452 12T301 103T204 255T170 465V1268Q170 1276 174 1282T188 1291T214 1297T256 1300Q280 1300 297 1298T323 1292T337 1282T341 1268V486Q341 396 363 329T426 218T526 151T658 128Q733 128 791 150T890 216T952 325T974 477V1268Q974 1276 978 1282T992 1291T1018 1297T1060 1300Q1084 1300 1100 1298T1126 1292T1140 1282T1145 1268V478ZM661 1689Q682 1689 696 1688T720 1684T738 1675T755 1660L969 1433Q978 1423 980 1416T976 1404T956 1397T920 1395Q890 1395 872 1396T843 1400T826 1407T814 1417L660 1590L501 1422Q493 1414 485 1409T465 1400T435 1396T390 1395Q365 1395 352 1397T333 1404T329 1416T340 1433L564 1660Q572 1669 580 1674T600 1683T625 1688T661 1689Z"/><glyph unicode="Ü" horiz-adv-x="1314" d="M1145 478Q1145 360 1111 268T1012 111T856 14T647 -19Q540 -19 452 12T301 103T204 255T170 465V1268Q170 1276 174 1282T188 1291T214 1297T256 1300Q280 1300 297 1298T323 1292T337 1282T341 1268V486Q341 396 363 329T426 218T526 151T658 128Q733 128 791 150T890 216T952 325T974 477V1268Q974 1276 978 1282T992 1291T1018 1297T1060 1300Q1084 1300 1100 1298T1126 1292T1140 1282T1145 1268V478ZM546 1529Q546 1473 525 1452T448 1431Q392 1431 372 1451T352 1527Q352 1583 372 1603T449 1624Q505 1624 525 1604T546 1529ZM959 1529Q959 1473 939 1452T861 1431Q806 1431 786 1451T765 1527Q765 1583 786 1603T862 1624Q919 1624 939 1604T959 1529Z"/><glyph unicode="Ý" horiz-adv-x="998" d="M585 503V26Q585 18 581 12T567 3T540 -3T499 -6Q474 -6 458 -4T431 2T416 12T412 26V503L46 1233Q35 1256 33 1269T37 1289T64 1298T117 1300Q147 1300 165 1298T195 1293T211 1283T222 1266L401 894Q426 841 451 783T502 666H504Q527 723 551 779T601 891L781 1265Q784 1275 789 1282T804 1292T831 1298T874 1300Q910 1300 930 1298T959 1288T965 1268T951 1233L585 503ZM647 1651Q658 1664 668 1671T692 1682T723 1687T766 1689Q796 1689 813 1685T837 1673T842 1657T830 1638L603 1426Q593 1416 585 1411T565 1402T540 1397T504 1395Q481 1395 468 1397T450 1405T447 1419T458 1438L647 1651Z"/><glyph unicode="Þ" horiz-adv-x="1058" d="M967 697Q967 601 936 523T846 389T703 304T513 274H344V22Q344 14 340 9T326 -1T300 -7T258 -9Q233 -9 217 -7T190 -1T176 8T172 22V1271Q172 1278 176 1284T190 1294T216 1300T258 1302Q283 1302 299 1300T325 1294T339 1284T344 1271V1076H517Q559 1076 598 1073T675 1061Q743 1046 797 1015T889 937T947 830T967 697ZM786 683Q786 777 742 839T615 922Q589 930 560 931T506 933H344V415H527Q589 415 637 435T718 490T769 575T786 683Z"/><glyph unicode="ß" horiz-adv-x="1080" d="M1010 268Q1010 206 988 154T923 63T821 3T683 -19Q653 -19 624 -14T570 -1T527 15T500 32T488 55T484 99Q484 116 486 128T492 149T501 160T513 164Q525 164 538 156T571 138T617 120T683 112Q721 112 750 123T800 153T831 198T842 253Q842 291 827 319T787 369T729 411T664 451T598 496T541 551T500 622T485 716Q485 768 502 809T549 882T622 933T715 961Q726 985 729 1011T733 1069Q733 1104 722 1139T687 1201T626 1245T537 1263Q477 1263 435 1243T368 1187T331 1101T319 991V28Q319 20 315 14T302 3T276 -3T235 -6Q212 -6 196 -4T170 3T157 13T153 28V985Q153 1079 178 1156T252 1287T374 1370T542 1400Q633 1400 700 1373T811 1302T878 1201T900 1083Q900 1034 892 991T869 908T844 860T814 851Q768 851 737 841T687 813T658 774T649 728Q649 680 676 647T743 586T830 533T917 472T983 388T1010 268Z"/><glyph unicode="à" horiz-adv-x="981" d="M831 24Q831 12 823 6T801 -3T760 -6Q734 -6 719 -3T696 6T689 24V114Q630 51 558 16T404 -19Q333 -19 276 -1T178 53T115 139T92 255Q92 331 123 387T212 480T354 535T543 554H667V624Q667 676 656 716T621 782T557 822T461 836Q400 836 352 822T267 790T206 758T169 743Q161 743 155 747T145 759T138 779T136 807Q136 832 139 846T156 874T203 904T279 936T373 960T476 970Q573 970 641 948T751 884T812 778T831 631V24ZM667 435H526Q458 435 408 424T325 390T277 336T261 263Q261 193 305 152T430 110Q495 110 550 143T667 244V435ZM564 1134Q571 1123 573 1115T570 1102T552 1094T517 1091Q497 1091 484 1092T462 1097T445 1107T431 1123L250 1356Q242 1365 241 1373T247 1388T271 1398T317 1402Q341 1402 357 1400T385 1394T404 1383T420 1365L564 1134Z"/><glyph unicode="á" horiz-adv-x="981" d="M831 24Q831 12 823 6T801 -3T760 -6Q734 -6 719 -3T696 6T689 24V114Q630 51 558 16T404 -19Q333 -19 276 -1T178 53T115 139T92 255Q92 331 123 387T212 480T354 535T543 554H667V624Q667 676 656 716T621 782T557 822T461 836Q400 836 352 822T267 790T206 758T169 743Q161 743 155 747T145 759T138 779T136 807Q136 832 139 846T156 874T203 904T279 936T373 960T476 970Q573 970 641 948T751 884T812 778T831 631V24ZM667 435H526Q458 435 408 424T325 390T277 336T261 263Q261 193 305 152T430 110Q495 110 550 143T667 244V435ZM568 1365Q574 1376 582 1383T601 1394T630 1400T671 1402Q699 1402 716 1399T741 1389T747 1374T738 1356L557 1123Q549 1113 543 1107T528 1098T506 1093T472 1091Q450 1091 437 1094T419 1102T414 1115T423 1134L568 1365Z"/><glyph unicode="â" horiz-adv-x="981" d="M831 24Q831 12 823 6T801 -3T760 -6Q734 -6 719 -3T696 6T689 24V114Q630 51 558 16T404 -19Q333 -19 276 -1T178 53T115 139T92 255Q92 331 123 387T212 480T354 535T543 554H667V624Q667 676 656 716T621 782T557 822T461 836Q400 836 352 822T267 790T206 758T169 743Q161 743 155 747T145 759T138 779T136 807Q136 832 139 846T156 874T203 904T279 936T373 960T476 970Q573 970 641 948T751 884T812 778T831 631V24ZM667 435H526Q458 435 408 424T325 390T277 336T261 263Q261 193 305 152T430 110Q495 110 550 143T667 244V435ZM367 1121Q361 1111 355 1106T341 1097T320 1093T288 1091Q261 1091 247 1094T227 1104T226 1121T242 1147L407 1376Q412 1384 419 1388T436 1396T462 1400T500 1402Q521 1402 535 1401T559 1396T575 1388T587 1376L752 1147Q763 1132 767 1122T767 1105T747 1095T706 1091Q685 1091 673 1092T652 1097T639 1106T627 1121L497 1301L367 1121Z"/><glyph unicode="ã" horiz-adv-x="981" d="M831 24Q831 12 823 6T801 -3T760 -6Q734 -6 719 -3T696 6T689 24V114Q630 51 558 16T404 -19Q333 -19 276 -1T178 53T115 139T92 255Q92 331 123 387T212 480T354 535T543 554H667V624Q667 676 656 716T621 782T557 822T461 836Q400 836 352 822T267 790T206 758T169 743Q161 743 155 747T145 759T138 779T136 807Q136 832 139 846T156 874T203 904T279 936T373 960T476 970Q573 970 641 948T751 884T812 778T831 631V24ZM667 435H526Q458 435 408 424T325 390T277 336T261 263Q261 193 305 152T430 110Q495 110 550 143T667 244V435ZM824 1314Q824 1208 772 1152T631 1096Q594 1096 565 1105T512 1130T468 1162T429 1194T390 1218T349 1228Q309 1228 293 1199T277 1122Q277 1115 275 1110T267 1101T248 1097T216 1096Q200 1096 189 1097T172 1103T162 1116T159 1138Q159 1237 209 1296T352 1355Q406 1355 445 1335T515 1290T574 1244T634 1223Q670 1223 688 1249T707 1328Q707 1344 717 1349T763 1355Q800 1355 812 1348T824 1314Z"/><glyph unicode="ä" horiz-adv-x="981" d="M831 24Q831 12 823 6T801 -3T760 -6Q734 -6 719 -3T696 6T689 24V114Q630 51 558 16T404 -19Q333 -19 276 -1T178 53T115 139T92 255Q92 331 123 387T212 480T354 535T543 554H667V624Q667 676 656 716T621 782T557 822T461 836Q400 836 352 822T267 790T206 758T169 743Q161 743 155 747T145 759T138 779T136 807Q136 832 139 846T156 874T203 904T279 936T373 960T476 970Q573 970 641 948T751 884T812 778T831 631V24ZM667 435H526Q458 435 408 424T325 390T277 336T261 263Q261 193 305 152T430 110Q495 110 550 143T667 244V435ZM411 1217Q411 1162 391 1142T317 1122Q263 1122 244 1141T225 1214Q225 1270 244 1290T318 1310Q373 1310 392 1290T411 1217ZM765 1217Q765 1162 745 1142T671 1122Q617 1122 598 1141T579 1214Q579 1270 598 1290T672 1310Q727 1310 746 1290T765 1217Z"/><glyph unicode="å" horiz-adv-x="981" d="M831 24Q831 12 823 6T801 -3T760 -6Q734 -6 719 -3T696 6T689 24V114Q630 51 558 16T404 -19Q333 -19 276 -1T178 53T115 139T92 255Q92 331 123 387T212 480T354 535T543 554H667V624Q667 676 656 716T621 782T557 822T461 836Q400 836 352 822T267 790T206 758T169 743Q161 743 155 747T145 759T138 779T136 807Q136 832 139 846T156 874T203 904T279 936T373 960T476 970Q573 970 641 948T751 884T812 778T831 631V24ZM667 435H526Q458 435 408 424T325 390T277 336T261 263Q261 193 305 152T430 110Q495 110 550 143T667 244V435ZM691 1258Q691 1217 677 1184T637 1125T574 1087T490 1073Q441 1073 405 1086T345 1122T310 1178T298 1251Q298 1291 311 1325T349 1383T412 1421T498 1434Q590 1434 640 1387T691 1258ZM585 1251Q585 1292 564 1320T493 1349Q449 1349 427 1324T404 1257Q404 1213 424 1186T496 1158Q540 1158 562 1184T585 1251Z"/><glyph unicode="æ" horiz-adv-x="1583" d="M1485 514Q1485 475 1466 459T1422 442H831Q831 367 846 307T897 204T988 138T1127 115Q1190 115 1239 125T1325 149T1386 172T1421 183Q1428 183 1433 180T1441 169T1446 150T1448 119Q1448 106 1447 97T1445 80T1440 66T1431 55T1398 37T1328 12T1229 -9T1109 -19Q1040 -19 985 -8T885 25T806 78T745 149Q712 110 674 79T593 26T503 -8T404 -19Q333 -19 276 -1T178 53T115 139T92 254Q92 331 123 387T212 480T354 535T543 554H667V624Q667 676 656 716T621 782T557 822T461 836Q400 836 352 822T266 790T204 758T167 743Q159 743 154 747T144 759T138 779T136 807Q136 832 139 846T156 874T203 904T279 936T373 960T476 970Q540 970 589 959T674 928T736 880T778 817Q826 891 908 930T1094 970Q1197 970 1271 936T1392 844T1462 709T1485 544V514ZM1320 563Q1321 628 1307 679T1262 766T1187 821T1083 841Q1022 841 976 818T899 757T851 669T831 563H1320ZM687 267Q676 301 671 347T665 435H526Q458 435 408 424T325 390T277 336T261 263Q261 193 305 152T430 110Q495 110 557 147T687 267Z"/><glyph unicode="ç" horiz-adv-x="866" d="M800 162Q800 145 799 133T796 112T790 97T774 78T730 46T651 9T545 -16L571 -74Q592 -119 601 -148T611 -204Q611 -242 597 -272T557 -322T495 -354T414 -365Q380 -365 349 -361T295 -351T264 -342T252 -332T247 -317T245 -293Q245 -262 251 -252T273 -241H397Q429 -241 447 -228T465 -187Q465 -174 459 -155T443 -113L396 -9Q294 10 226 71T124 232T90 464Q90 597 122 692T211 849T344 939T510 969Q553 969 593 961T668 940T728 910T767 881T783 862T791 846T795 824T796 794Q796 755 787 740T765 724Q750 724 731 740T681 777T609 813T508 830Q389 830 326 739T262 473Q262 386 278 321T327 211T405 146T512 124Q569 124 612 142T686 181T739 220T773 238Q780 238 785 234T793 221T798 197T800 162Z"/><glyph unicode="è" horiz-adv-x="1019" d="M921 514Q921 475 902 459T857 442H267Q267 367 282 307T332 204T423 138T560 115Q624 115 674 125T760 149T820 172T856 183Q863 183 868 180T877 169T881 150T883 119Q883 106 882 97T880 80T875 66T866 55T833 37T763 12T664 -9T543 -19Q432 -19 349 12T208 104T122 257T93 471Q93 587 123 679T209 836T346 935T525 970Q631 970 705 936T828 845T898 710T921 544V514ZM755 563Q758 693 698 767T518 841Q457 841 411 818T334 757T286 669T267 563H755ZM591 1134Q598 1123 600 1115T597 1102T579 1094T544 1091Q524 1091 511 1092T489 1097T472 1107T458 1123L277 1356Q269 1365 268 1373T274 1388T298 1398T344 1402Q368 1402 384 1400T412 1394T431 1383T447 1365L591 1134Z"/><glyph unicode="é" horiz-adv-x="1019" d="M921 514Q921 475 902 459T857 442H267Q267 367 282 307T332 204T423 138T560 115Q624 115 674 125T760 149T820 172T856 183Q863 183 868 180T877 169T881 150T883 119Q883 106 882 97T880 80T875 66T866 55T833 37T763 12T664 -9T543 -19Q432 -19 349 12T208 104T122 257T93 471Q93 587 123 679T209 836T346 935T525 970Q631 970 705 936T828 845T898 710T921 544V514ZM755 563Q758 693 698 767T518 841Q457 841 411 818T334 757T286 669T267 563H755ZM593 1365Q599 1376 607 1383T626 1394T655 1400T696 1402Q724 1402 741 1399T766 1389T772 1374T763 1356L582 1123Q574 1113 568 1107T553 1098T531 1093T497 1091Q475 1091 462 1094T444 1102T439 1115T448 1134L593 1365Z"/><glyph unicode="ê" horiz-adv-x="1019" d="M921 514Q921 475 902 459T857 442H267Q267 367 282 307T332 204T423 138T560 115Q624 115 674 125T760 149T820 172T856 183Q863 183 868 180T877 169T881 150T883 119Q883 106 882 97T880 80T875 66T866 55T833 37T763 12T664 -9T543 -19Q432 -19 349 12T208 104T122 257T93 471Q93 587 123 679T209 836T346 935T525 970Q631 970 705 936T828 845T898 710T921 544V514ZM755 563Q758 693 698 767T518 841Q457 841 411 818T334 757T286 669T267 563H755ZM387 1121Q381 1111 375 1106T361 1097T340 1093T308 1091Q281 1091 267 1094T247 1104T246 1121T262 1147L427 1376Q432 1384 439 1388T456 1396T482 1400T520 1402Q541 1402 555 1401T579 1396T595 1388T607 1376L772 1147Q783 1132 787 1122T787 1105T767 1095T726 1091Q705 1091 693 1092T672 1097T659 1106T647 1121L517 1301L387 1121Z"/><glyph unicode="ë" horiz-adv-x="1019" d="M921 514Q921 475 902 459T857 442H267Q267 367 282 307T332 204T423 138T560 115Q624 115 674 125T760 149T820 172T856 183Q863 183 868 180T877 169T881 150T883 119Q883 106 882 97T880 80T875 66T866 55T833 37T763 12T664 -9T543 -19Q432 -19 349 12T208 104T122 257T93 471Q93 587 123 679T209 836T346 935T525 970Q631 970 705 936T828 845T898 710T921 544V514ZM755 563Q758 693 698 767T518 841Q457 841 411 818T334 757T286 669T267 563H755ZM433 1217Q433 1162 413 1142T339 1122Q285 1122 266 1141T247 1214Q247 1270 266 1290T340 1310Q395 1310 414 1290T433 1217ZM787 1217Q787 1162 767 1142T693 1122Q639 1122 620 1141T601 1214Q601 1270 620 1290T694 1310Q749 1310 768 1290T787 1217Z"/><glyph unicode="ì" horiz-adv-x="470" d="M318 25Q318 17 314 12T301 2T276 -4T235 -6Q211 -6 195 -4T170 2T157 11T153 25V925Q153 933 156 938T169 948T195 954T235 956Q260 956 276 955T301 949T314 939T318 925V25ZM309 1134Q316 1123 318 1115T315 1102T297 1094T262 1091Q242 1091 229 1092T207 1097T190 1107T176 1123L-5 1356Q-13 1365 -14 1373T-8 1388T16 1398T62 1402Q86 1402 102 1400T130 1394T149 1383T165 1365L309 1134Z"/><glyph unicode="í" horiz-adv-x="470" d="M318 25Q318 17 314 12T301 2T276 -4T235 -6Q211 -6 195 -4T170 2T157 11T153 25V925Q153 933 156 938T169 948T195 954T235 956Q260 956 276 955T301 949T314 939T318 925V25ZM301 1365Q307 1376 315 1383T334 1394T363 1400T404 1402Q432 1402 449 1399T474 1389T480 1374T471 1356L290 1123Q282 1113 276 1107T261 1098T239 1093T205 1091Q183 1091 170 1094T152 1102T147 1115T156 1134L301 1365Z"/><glyph unicode="î" horiz-adv-x="470" d="M318 25Q318 17 314 12T301 2T276 -4T235 -6Q211 -6 195 -4T170 2T157 11T153 25V925Q153 933 156 938T169 948T195 954T235 956Q260 956 276 955T301 949T314 939T318 925V25ZM108 1121Q102 1111 96 1106T82 1097T61 1093T29 1091Q2 1091 -12 1094T-32 1104T-33 1121T-17 1147L148 1376Q153 1384 160 1388T177 1396T203 1400T241 1402Q262 1402 276 1401T300 1396T316 1388T328 1376L493 1147Q504 1132 508 1122T508 1105T488 1095T447 1091Q426 1091 414 1092T393 1097T380 1106T368 1121L238 1301L108 1121Z"/><glyph unicode="ï" horiz-adv-x="470" d="M318 25Q318 17 314 12T301 2T276 -4T235 -6Q211 -6 195 -4T170 2T157 11T153 25V925Q153 933 156 938T169 948T195 954T235 956Q260 956 276 955T301 949T314 939T318 925V25ZM172 1217Q172 1163 152 1143T80 1122Q28 1122 9 1141T-10 1214Q-10 1269 9 1289T81 1310Q133 1310 152 1290T172 1217ZM483 1217Q483 1163 463 1143T391 1122Q339 1122 320 1141T301 1214Q301 1269 320 1289T391 1310Q444 1310 463 1290T483 1217Z"/><glyph unicode="ð" horiz-adv-x="1076" d="M296 1072Q286 1070 279 1071T268 1077T261 1094T259 1125Q259 1141 261 1153T267 1172T279 1184T296 1191L486 1240Q475 1252 462 1267T433 1297T404 1328T377 1357Q370 1364 369 1370T375 1381T402 1388T457 1391Q488 1391 509 1389T544 1384T567 1375T584 1362Q611 1331 631 1309T655 1282L908 1346Q918 1349 925 1348T936 1341T943 1325T946 1294Q946 1278 944 1266T937 1246T925 1234T907 1227L736 1183Q790 1112 829 1044T892 902T928 749T940 572Q940 431 913 321T831 136T690 21T490 -19Q379 -19 304 19T183 122T117 276T97 464Q97 588 124 682T201 840T323 937T484 970Q519 970 551 963T614 941T676 906T735 855Q727 880 714 912T682 980T636 1057T570 1142L296 1072ZM770 551Q770 585 769 612T766 658Q727 701 691 733T623 787T560 818T498 828Q440 828 397 801T324 726T281 616T267 482Q267 412 278 347T315 232T386 152T495 122Q563 122 614 147T700 224T752 357T770 551Z"/><glyph unicode="ñ" horiz-adv-x="1076" d="M928 25Q928 17 924 12T911 2T886 -4T846 -6Q821 -6 805 -4T780 2T767 11T763 25V552Q763 629 751 676T716 757T657 809T572 827Q510 827 448 783T318 654V25Q318 17 314 12T301 2T276 -4T235 -6Q211 -6 195 -4T170 2T157 11T153 25V925Q153 933 156 938T168 948T191 954T228 956Q250 956 264 955T287 949T298 939T302 925V806Q378 891 453 930T606 970Q696 970 757 940T857 858T911 739T928 574V25ZM872 1314Q872 1208 820 1152T679 1096Q642 1096 613 1105T560 1130T516 1162T477 1194T438 1218T397 1228Q357 1228 341 1199T325 1122Q325 1115 323 1110T315 1101T296 1097T264 1096Q248 1096 237 1097T220 1103T210 1116T207 1138Q207 1237 257 1296T400 1355Q454 1355 493 1335T563 1290T622 1244T682 1223Q718 1223 736 1249T755 1328Q755 1344 765 1349T811 1355Q848 1355 860 1348T872 1314Z"/><glyph unicode="ò" horiz-adv-x="1080" d="M990 485Q990 375 961 283T875 123T731 19T530 -19Q419 -19 337 14T199 110T117 263T90 467Q90 577 118 669T204 829T348 933T549 970Q660 970 742 937T880 841T962 688T990 485ZM816 474Q816 547 803 612T758 726T674 803T542 832Q469 832 417 806T330 733T280 620T263 478Q263 404 276 339T321 226T406 149T538 120Q610 120 663 146T750 219T800 331T816 474ZM607 1134Q614 1123 616 1115T613 1102T595 1094T560 1091Q540 1091 527 1092T505 1097T488 1107T474 1123L293 1356Q285 1365 284 1373T290 1388T314 1398T360 1402Q384 1402 400 1400T428 1394T447 1383T463 1365L607 1134Z"/><glyph unicode="ó" horiz-adv-x="1080" d="M990 485Q990 375 961 283T875 123T731 19T530 -19Q419 -19 337 14T199 110T117 263T90 467Q90 577 118 669T204 829T348 933T549 970Q660 970 742 937T880 841T962 688T990 485ZM816 474Q816 547 803 612T758 726T674 803T542 832Q469 832 417 806T330 733T280 620T263 478Q263 404 276 339T321 226T406 149T538 120Q610 120 663 146T750 219T800 331T816 474ZM622 1365Q628 1376 636 1383T655 1394T684 1400T725 1402Q753 1402 770 1399T795 1389T801 1374T792 1356L611 1123Q603 1113 597 1107T582 1098T560 1093T526 1091Q504 1091 491 1094T473 1102T468 1115T477 1134L622 1365Z"/><glyph unicode="ô" horiz-adv-x="1080" d="M990 485Q990 375 961 283T875 123T731 19T530 -19Q419 -19 337 14T199 110T117 263T90 467Q90 577 118 669T204 829T348 933T549 970Q660 970 742 937T880 841T962 688T990 485ZM816 474Q816 547 803 612T758 726T674 803T542 832Q469 832 417 806T330 733T280 620T263 478Q263 404 276 339T321 226T406 149T538 120Q610 120 663 146T750 219T800 331T816 474ZM410 1121Q404 1111 398 1106T384 1097T363 1093T331 1091Q304 1091 290 1094T270 1104T269 1121T285 1147L450 1376Q455 1384 462 1388T479 1396T505 1400T543 1402Q564 1402 578 1401T602 1396T618 1388T630 1376L795 1147Q806 1132 810 1122T810 1105T790 1095T749 1091Q728 1091 716 1092T695 1097T682 1106T670 1121L540 1301L410 1121Z"/><glyph unicode="õ" horiz-adv-x="1080" d="M990 485Q990 375 961 283T875 123T731 19T530 -19Q419 -19 337 14T199 110T117 263T90 467Q90 577 118 669T204 829T348 933T549 970Q660 970 742 937T880 841T962 688T990 485ZM816 474Q816 547 803 612T758 726T674 803T542 832Q469 832 417 806T330 733T280 620T263 478Q263 404 276 339T321 226T406 149T538 120Q610 120 663 146T750 219T800 331T816 474ZM873 1314Q873 1208 821 1152T680 1096Q643 1096 614 1105T561 1130T517 1162T478 1194T439 1218T398 1228Q358 1228 342 1199T326 1122Q326 1115 324 1110T316 1101T297 1097T265 1096Q249 1096 238 1097T221 1103T211 1116T208 1138Q208 1237 258 1296T401 1355Q455 1355 494 1335T564 1290T623 1244T683 1223Q719 1223 737 1249T756 1328Q756 1344 766 1349T812 1355Q849 1355 861 1348T873 1314Z"/><glyph unicode="ö" horiz-adv-x="1080" d="M990 485Q990 375 961 283T875 123T731 19T530 -19Q419 -19 337 14T199 110T117 263T90 467Q90 577 118 669T204 829T348 933T549 970Q660 970 742 937T880 841T962 688T990 485ZM816 474Q816 547 803 612T758 726T674 803T542 832Q469 832 417 806T330 733T280 620T263 478Q263 404 276 339T321 226T406 149T538 120Q610 120 663 146T750 219T800 331T816 474ZM457 1217Q457 1162 437 1142T363 1122Q309 1122 290 1141T271 1214Q271 1270 290 1290T364 1310Q419 1310 438 1290T457 1217ZM811 1217Q811 1162 791 1142T717 1122Q663 1122 644 1141T625 1214Q625 1270 644 1290T718 1310Q773 1310 792 1290T811 1217Z"/><glyph unicode="÷" horiz-adv-x="1020" d="M618 944Q618 910 613 888T594 851T558 830T502 823Q468 823 446 829T411 850T391 887T385 944Q385 977 391 1000T410 1038T446 1059T502 1066Q535 1066 557 1060T593 1039T612 1001T618 944ZM960 577Q960 558 958 545T951 523T940 510T925 506H76Q68 506 62 510T51 522T45 544T43 577Q43 595 45 608T51 630T61 642T76 646H925Q933 646 939 642T950 630T957 609T960 577ZM618 204Q618 171 613 149T594 112T558 92T502 85Q468 85 446 91T411 112T391 148T385 204Q385 238 391 262T410 300T446 321T502 327Q535 327 557 321T593 301T612 262T618 204Z"/><glyph unicode="ø" horiz-adv-x="1084" d="M994 485Q994 375 965 283T878 123T734 19T532 -19Q489 -19 451 -14T385 2L317 -139Q310 -155 291 -160T237 -166Q193 -166 183 -156T183 -123L267 51Q220 82 187 126T132 225T100 340T90 467Q90 578 118 670T205 829T349 933T552 970Q589 970 627 965T699 950L764 1087Q772 1102 790 1108T843 1114Q889 1114 899 1104T898 1071L817 900Q862 871 895 828T951 731T983 615T994 485ZM830 476Q830 516 826 555T811 630T784 697T744 752L445 129Q465 120 491 117T543 113Q617 113 671 139T760 213T813 328T830 476ZM641 824Q621 831 595 835T541 839Q467 839 413 813T324 738T271 623T254 476Q254 393 273 320T340 199L641 824Z"/><glyph unicode="ù" horiz-adv-x="1076" d="M924 25Q924 17 921 12T908 2T885 -4T849 -6Q826 -6 812 -4T789 2T777 11T774 25V144Q697 59 622 20T470 -19Q380 -19 319 11T219 92T165 212T148 379V925Q148 933 151 938T165 948T191 954T231 956Q255 956 271 955T296 949T310 939T314 925V401Q314 322 325 275T360 194T420 142T504 123Q566 123 627 167T758 296V925Q758 933 761 938T775 948T800 954T841 956Q865 956 881 955T906 949T919 939T924 925V25ZM597 1134Q604 1123 606 1115T603 1102T585 1094T550 1091Q530 1091 517 1092T495 1097T478 1107T464 1123L283 1356Q275 1365 274 1373T280 1388T304 1398T350 1402Q374 1402 390 1400T418 1394T437 1383T453 1365L597 1134Z"/><glyph unicode="ú" horiz-adv-x="1076" d="M924 25Q924 17 921 12T908 2T885 -4T849 -6Q826 -6 812 -4T789 2T777 11T774 25V144Q697 59 622 20T470 -19Q380 -19 319 11T219 92T165 212T148 379V925Q148 933 151 938T165 948T191 954T231 956Q255 956 271 955T296 949T310 939T314 925V401Q314 322 325 275T360 194T420 142T504 123Q566 123 627 167T758 296V925Q758 933 761 938T775 948T800 954T841 956Q865 956 881 955T906 949T919 939T924 925V25ZM620 1365Q626 1376 634 1383T653 1394T682 1400T723 1402Q751 1402 768 1399T793 1389T799 1374T790 1356L609 1123Q601 1113 595 1107T580 1098T558 1093T524 1091Q502 1091 489 1094T471 1102T466 1115T475 1134L620 1365Z"/><glyph unicode="û" horiz-adv-x="1076" d="M924 25Q924 17 921 12T908 2T885 -4T849 -6Q826 -6 812 -4T789 2T777 11T774 25V144Q697 59 622 20T470 -19Q380 -19 319 11T219 92T165 212T148 379V925Q148 933 151 938T165 948T191 954T231 956Q255 956 271 955T296 949T310 939T314 925V401Q314 322 325 275T360 194T420 142T504 123Q566 123 627 167T758 296V925Q758 933 761 938T775 948T800 954T841 956Q865 956 881 955T906 949T919 939T924 925V25ZM408 1121Q402 1111 396 1106T382 1097T361 1093T329 1091Q302 1091 288 1094T268 1104T267 1121T283 1147L448 1376Q453 1384 460 1388T477 1396T503 1400T541 1402Q562 1402 576 1401T600 1396T616 1388T628 1376L793 1147Q804 1132 808 1122T808 1105T788 1095T747 1091Q726 1091 714 1092T693 1097T680 1106T668 1121L538 1301L408 1121Z"/><glyph unicode="ü" horiz-adv-x="1076" d="M924 25Q924 17 921 12T908 2T885 -4T849 -6Q826 -6 812 -4T789 2T777 11T774 25V144Q697 59 622 20T470 -19Q380 -19 319 11T219 92T165 212T148 379V925Q148 933 151 938T165 948T191 954T231 956Q255 956 271 955T296 949T310 939T314 925V401Q314 322 325 275T360 194T420 142T504 123Q566 123 627 167T758 296V925Q758 933 761 938T775 948T800 954T841 956Q865 956 881 955T906 949T919 939T924 925V25ZM455 1217Q455 1162 435 1142T361 1122Q307 1122 288 1141T269 1214Q269 1270 288 1290T362 1310Q417 1310 436 1290T455 1217ZM809 1217Q809 1162 789 1142T715 1122Q661 1122 642 1141T623 1214Q623 1270 642 1290T716 1310Q771 1310 790 1290T809 1217Z"/><glyph unicode="ý" horiz-adv-x="927" d="M563 0L443 -331Q437 -347 413 -355T338 -364Q312 -364 296 -362T272 -353T262 -337T267 -313L391 0Q382 4 374 13T363 32L42 892Q34 913 34 925T42 944T68 953T116 956Q146 956 163 955T190 949T204 938T214 917L471 195H474L722 921Q728 940 736 945T762 953T811 956Q839 956 857 954T883 944T892 925T886 895L563 0ZM552 1365Q558 1376 566 1383T585 1394T614 1400T655 1402Q683 1402 700 1399T725 1389T731 1374T722 1356L541 1123Q533 1113 527 1107T512 1098T490 1093T456 1091Q434 1091 421 1094T403 1102T398 1115T407 1134L552 1365Z"/><glyph unicode="þ" horiz-adv-x="1076" d="M981 487Q981 370 956 277T882 117T760 16T593 -19Q553 -19 519 -11T451 14T386 57T318 118V-332Q318 -340 314 -346T301 -356T276 -362T235 -364Q211 -364 195 -362T170 -356T157 -346T153 -332V1361Q153 1369 156 1375T169 1385T195 1391T235 1393Q260 1393 276 1391T301 1385T314 1375T318 1361V822Q356 860 391 887T462 933T536 961T617 970Q715 970 784 932T897 828T961 674T981 487ZM807 468Q807 537 797 602T760 717T691 797T583 828Q552 828 521 819T458 789T392 735T318 652V294Q386 211 448 167T577 123Q639 123 682 153T754 232T794 344T807 468Z"/><glyph unicode="ÿ" horiz-adv-x="927" d="M563 0L443 -331Q437 -347 413 -355T338 -364Q312 -364 296 -362T272 -353T262 -337T267 -313L391 0Q382 4 374 13T363 32L42 892Q34 913 34 925T42 944T68 953T116 956Q146 956 163 955T190 949T204 938T214 917L471 195H474L722 921Q728 940 736 945T762 953T811 956Q839 956 857 954T883 944T892 925T886 895L563 0ZM381 1217Q381 1162 361 1142T287 1122Q233 1122 214 1141T195 1214Q195 1270 214 1290T288 1310Q343 1310 362 1290T381 1217ZM735 1217Q735 1162 715 1142T641 1122Q587 1122 568 1141T549 1214Q549 1270 568 1290T642 1310Q697 1310 716 1290T735 1217Z"/><glyph unicode="Ā" horiz-adv-x="1185" d="M1141 61Q1149 39 1149 26T1142 5T1116 -4T1066 -6Q1035 -6 1017 -5T989 0T975 10T966 25L855 340H317L211 29Q208 20 203 14T189 3T162 -4T116 -6Q87 -6 69 -4T43 6T35 26T44 62L478 1264Q482 1275 488 1282T507 1293T539 1298T589 1300Q621 1300 642 1299T676 1293T696 1282T707 1263L1141 61ZM584 1122H583L360 477H810L584 1122ZM872 1590Q879 1590 885 1586T895 1574T901 1554T903 1524Q903 1507 902 1495T896 1474T885 1461T872 1457H326Q318 1457 312 1461T301 1473T295 1494T293 1524Q293 1540 295 1553T301 1574T311 1586T326 1590H872Z"/><glyph unicode="ā" horiz-adv-x="981" d="M831 24Q831 12 823 6T801 -3T760 -6Q734 -6 719 -3T696 6T689 24V114Q630 51 558 16T404 -19Q333 -19 276 -1T178 53T115 139T92 255Q92 331 123 387T212 480T354 535T543 554H667V624Q667 676 656 716T621 782T557 822T461 836Q400 836 352 822T267 790T206 758T169 743Q161 743 155 747T145 759T138 779T136 807Q136 832 139 846T156 874T203 904T279 936T373 960T476 970Q573 970 641 948T751 884T812 778T831 631V24ZM667 435H526Q458 435 408 424T325 390T277 336T261 263Q261 193 305 152T430 110Q495 110 550 143T667 244V435ZM736 1293Q744 1293 750 1290T759 1279T765 1259T768 1228Q768 1211 766 1200T760 1180T750 1168T736 1164H257Q249 1164 243 1168T232 1180T226 1199T224 1228Q224 1246 226 1258T232 1278T242 1289T257 1293H736Z"/><glyph unicode="Ă" horiz-adv-x="1185" d="M1141 61Q1149 39 1149 26T1142 5T1116 -4T1066 -6Q1035 -6 1017 -5T989 0T975 10T966 25L855 340H317L211 29Q208 20 203 14T189 3T162 -4T116 -6Q87 -6 69 -4T43 6T35 26T44 62L478 1264Q482 1275 488 1282T507 1293T539 1298T589 1300Q621 1300 642 1299T676 1293T696 1282T707 1263L1141 61ZM584 1122H583L360 477H810L584 1122ZM859 1664Q859 1601 842 1552T790 1467T707 1414T596 1395Q529 1395 480 1415T399 1471T352 1556T337 1664Q337 1679 348 1685T395 1692Q431 1692 445 1688T460 1668T469 1618T495 1562T537 1528T599 1516Q650 1516 680 1540T722 1597T735 1653T747 1684T798 1692Q835 1692 847 1686T859 1664Z"/><glyph unicode="ă" horiz-adv-x="981" d="M831 24Q831 12 823 6T801 -3T760 -6Q734 -6 719 -3T696 6T689 24V114Q630 51 558 16T404 -19Q333 -19 276 -1T178 53T115 139T92 255Q92 331 123 387T212 480T354 535T543 554H667V624Q667 676 656 716T621 782T557 822T461 836Q400 836 352 822T267 790T206 758T169 743Q161 743 155 747T145 759T138 779T136 807Q136 832 139 846T156 874T203 904T279 936T373 960T476 970Q573 970 641 948T751 884T812 778T831 631V24ZM667 435H526Q458 435 408 424T325 390T277 336T261 263Q261 193 305 152T430 110Q495 110 550 143T667 244V435ZM635 1365Q635 1380 647 1387T693 1395Q712 1395 723 1394T741 1389T750 1380T753 1367Q753 1299 737 1249T688 1164T607 1113T494 1096Q426 1096 378 1114T298 1166T252 1250T237 1364Q237 1380 249 1387T295 1395Q313 1395 324 1393T342 1388T352 1379T355 1365Q358 1331 366 1303T391 1254T433 1224T494 1213Q524 1213 549 1221T592 1248T622 1295T635 1365Z"/><glyph unicode="Ą" horiz-adv-x="1185" d="M1174 -291Q1174 -306 1172 -316T1165 -332T1154 -343T1127 -353T1089 -360T1053 -363T1016 -365Q969 -365 930 -357T864 -331T821 -285T805 -216Q805 -200 809 -183T823 -145T850 -101T895 -51L967 21L855 340H317L211 29Q207 20 203 14T189 3T162 -4T116 -6Q87 -6 69 -4T43 6T35 26T44 62L478 1264Q482 1275 488 1282T507 1293T539 1298T589 1300Q621 1300 642 1299T676 1293T695 1282T707 1263L1127 100Q1135 76 1138 61T1139 32T1124 2T1090 -34L1013 -111Q989 -135 980 -153T971 -191Q971 -216 990 -228T1057 -241H1146Q1161 -241 1167 -250T1174 -291ZM584 1122H583L360 477H810L584 1122Z"/><glyph unicode="ą" horiz-adv-x="981" d="M899 -291Q899 -306 898 -315T893 -331T883 -341T868 -348Q842 -357 811 -361T740 -365Q649 -365 598 -327T546 -216Q546 -198 549 -181T562 -144T587 -103T628 -57L690 5V116H688Q630 51 558 16T404 -19Q333 -19 276 -1T178 53T115 139T92 255Q92 331 123 387T212 480T354 535T543 554H667V624Q667 676 656 716T621 782T557 822T461 836Q400 836 352 822T267 790T206 758T169 743Q161 743 155 747T145 759T138 779T136 807Q136 832 139 846T156 874T203 904T279 936T373 960T476 970Q573 970 641 948T751 884T812 778T831 631V33Q831 6 825 -15T803 -54L746 -110Q722 -135 714 -154T706 -189Q706 -242 777 -242H871Q887 -242 893 -251T899 -291ZM667 435H526Q458 435 408 424T325 390T277 336T261 263Q261 193 305 152T430 110Q495 110 550 143T667 244V435Z"/><glyph unicode="Ć" horiz-adv-x="1092" d="M1036 183Q1036 167 1035 155T1032 134T1025 118T1011 101T969 71T890 31T781 -2T646 -16Q520 -16 419 26T246 150T136 352T97 630Q97 791 138 917T255 1130T434 1264T666 1310Q722 1310 775 1300T873 1273T953 1236T1001 1202T1019 1181T1025 1165T1029 1142T1031 1111Q1031 1091 1029 1077T1023 1054T1014 1040T1000 1035Q986 1035 961 1054T897 1097T801 1140T665 1160Q579 1160 509 1126T388 1024T311 861T283 640Q283 517 309 423T385 265T507 169T670 136Q747 136 804 155T902 197T969 240T1010 259Q1017 259 1022 256T1030 245T1034 221T1036 183ZM722 1651Q733 1664 743 1671T767 1682T798 1687T841 1689Q871 1689 888 1685T912 1673T917 1657T905 1638L678 1426Q668 1416 660 1411T640 1402T615 1397T579 1395Q556 1395 543 1397T525 1405T522 1419T533 1438L722 1651Z"/><glyph unicode="ć" horiz-adv-x="866" d="M800 162Q800 145 799 133T796 112T790 97T774 78T731 47T664 14T582 -10T491 -19Q394 -19 319 13T194 106T117 257T90 464Q90 597 122 692T211 849T344 939T510 969Q553 969 593 961T668 940T728 910T767 881T783 862T791 846T795 824T796 794Q796 755 787 740T765 724Q750 724 731 740T681 777T609 813T508 830Q389 830 326 739T262 473Q262 386 278 321T327 211T405 146T512 124Q569 124 612 142T686 181T739 220T773 238Q780 238 785 234T793 221T798 197T800 162ZM551 1365Q557 1376 565 1383T584 1394T613 1400T654 1402Q682 1402 699 1399T724 1389T730 1374T721 1356L540 1123Q532 1113 526 1107T511 1098T489 1093T455 1091Q433 1091 420 1094T402 1102T397 1115T406 1134L551 1365Z"/><glyph unicode="Č" horiz-adv-x="1092" d="M1036 183Q1036 167 1035 155T1032 134T1025 118T1011 101T969 71T890 31T781 -2T646 -16Q520 -16 419 26T246 150T136 352T97 630Q97 791 138 917T255 1130T434 1264T666 1310Q722 1310 775 1300T873 1273T953 1236T1001 1202T1019 1181T1025 1165T1029 1142T1031 1111Q1031 1091 1029 1077T1023 1054T1014 1040T1000 1035Q986 1035 961 1054T897 1097T801 1140T665 1160Q579 1160 509 1126T388 1024T311 861T283 640Q283 517 309 423T385 265T507 169T670 136Q747 136 804 155T902 197T969 240T1010 259Q1017 259 1022 256T1030 245T1034 221T1036 183ZM639 1395Q618 1395 604 1396T580 1400T562 1409T545 1424L331 1651Q322 1661 320 1668T324 1680T344 1687T380 1689Q410 1689 428 1688T457 1684T474 1676T486 1666L640 1494L800 1662Q807 1670 815 1675T835 1684T865 1688T910 1689Q934 1689 948 1687T968 1680T971 1668T960 1651L737 1424Q729 1415 720 1410T700 1401T675 1396T639 1395Z"/><glyph unicode="č" horiz-adv-x="866" d="M800 162Q800 145 799 133T796 112T790 97T774 78T731 47T664 14T582 -10T491 -19Q394 -19 319 13T194 106T117 257T90 464Q90 597 122 692T211 849T344 939T510 969Q553 969 593 961T668 940T728 910T767 881T783 862T791 846T795 824T796 794Q796 755 787 740T765 724Q750 724 731 740T681 777T609 813T508 830Q389 830 326 739T262 473Q262 386 278 321T327 211T405 146T512 124Q569 124 612 142T686 181T739 220T773 238Q780 238 785 234T793 221T798 197T800 162ZM621 1372Q628 1381 633 1386T648 1395T669 1400T701 1402Q727 1402 742 1399T761 1389T762 1372T747 1346L582 1117Q576 1109 569 1104T552 1097T526 1093T489 1091Q468 1091 454 1092T430 1097T413 1105T401 1117L236 1346Q225 1360 221 1371T222 1388T241 1398T282 1402Q303 1402 315 1401T336 1396T349 1387T361 1372L491 1191L621 1372Z"/><glyph unicode="Ď" horiz-adv-x="1260" d="M1167 666Q1167 498 1124 373T999 165T796 41T510 0H236Q213 0 193 15T172 70V1224Q172 1263 192 1278T236 1294H529Q697 1294 813 1251T1007 1126T1126 928T1167 666ZM986 659Q986 764 960 854T879 1011T738 1114T519 1151H344V144H521Q645 144 730 175T872 270T957 430T986 659ZM602 1395Q581 1395 567 1396T543 1400T525 1409T508 1424L294 1651Q285 1661 283 1668T287 1680T307 1687T343 1689Q373 1689 391 1688T420 1684T437 1676T449 1666L603 1494L763 1662Q770 1670 778 1675T798 1684T828 1688T873 1689Q897 1689 911 1687T931 1680T934 1668T923 1651L700 1424Q692 1415 683 1410T663 1401T638 1396T602 1395Z"/><glyph unicode="ď" horiz-adv-x="1164" d="M924 25Q924 17 921 11T909 2T886 -4T852 -6Q831 -6 817 -4T794 1T781 11T777 25V144Q706 67 630 24T462 -19Q363 -19 293 19T180 123T116 277T96 464Q96 580 121 673T195 833T316 934T484 970Q563 970 628 936T758 834V1357Q758 1364 761 1370T775 1380T800 1386T840 1389Q865 1389 881 1387T906 1381T919 1371T924 1357V25ZM758 658Q691 741 629 784T498 828Q435 828 391 798T320 719T280 608T267 482Q267 414 277 349T314 234T383 153T491 122Q524 122 554 131T617 161T684 215T758 298V658ZM1103 1361Q1106 1371 1112 1378T1128 1389T1154 1395T1194 1397Q1217 1397 1229 1395T1248 1389T1255 1377T1253 1360L1128 1048Q1126 1041 1122 1037T1109 1030T1087 1026T1052 1025Q1037 1025 1028 1027T1015 1033T1010 1042T1011 1056L1103 1361Z"/><glyph unicode="Đ" horiz-adv-x="1279" d="M1186 666Q1186 498 1143 373T1017 165T814 41T528 0H254Q231 0 211 15T191 70V601H61Q53 601 47 605T36 617T29 639T27 672Q27 691 29 704T35 727T46 740T61 744H191V1224Q191 1263 211 1278T254 1294H547Q715 1294 831 1251T1026 1126T1145 928T1186 666ZM1004 659Q1004 764 978 854T897 1011T757 1114T537 1151H362V744H598Q605 744 611 740T622 727T629 705T631 672Q631 653 629 640T623 618T612 605T598 601H362V144H540Q664 144 749 175T890 270T975 430T1004 659Z"/><glyph unicode="đ" horiz-adv-x="1130" d="M1091 1168Q1091 1151 1089 1139T1083 1118T1073 1107T1059 1103H924V25Q924 17 921 11T909 2T886 -4T852 -6Q831 -6 817 -4T794 1T781 11T777 25V144Q706 67 630 24T462 -19Q363 -19 293 19T180 123T116 277T96 464Q96 580 121 673T195 831T316 932T484 968Q563 968 628 934T758 833V1103H513Q505 1103 499 1106T489 1118T482 1138T480 1168Q480 1186 482 1198T488 1219T499 1230T513 1233H758V1357Q758 1364 761 1370T775 1380T800 1386T841 1389Q865 1389 881 1387T906 1381T919 1371T924 1357V1233H1058Q1066 1233 1072 1230T1082 1219T1089 1199T1091 1168ZM758 656Q691 739 629 783T497 827Q435 827 391 797T320 719T280 608T267 481Q267 413 277 349T314 234T383 153T491 122Q524 122 554 131T617 161T684 215T758 298V656Z"/><glyph unicode="Ē" horiz-adv-x="1000" d="M892 71Q892 53 890 40T883 17T872 4T857 0H236Q213 0 193 15T172 70V1224Q172 1263 192 1278T236 1294H850Q858 1294 864 1290T875 1277T881 1255T884 1221Q884 1203 882 1190T875 1168T865 1155T850 1151H344V745H778Q786 745 792 741T803 728T810 706T812 673Q812 655 810 642T804 621T793 610T778 606H344V143H857Q865 143 871 139T883 127T890 105T892 71ZM806 1590Q813 1590 819 1586T829 1574T835 1554T837 1524Q837 1507 836 1495T830 1474T819 1461T806 1457H260Q252 1457 246 1461T235 1473T229 1494T227 1524Q227 1540 229 1553T235 1574T245 1586T260 1590H806Z"/><glyph unicode="ē" horiz-adv-x="1019" d="M921 514Q921 475 902 459T857 442H267Q267 367 282 307T332 204T423 138T560 115Q624 115 674 125T760 149T820 172T856 183Q863 183 868 180T877 169T881 150T883 119Q883 106 882 97T880 80T875 66T866 55T833 37T763 12T664 -9T543 -19Q432 -19 349 12T208 104T122 257T93 471Q93 587 123 679T209 836T346 935T525 970Q631 970 705 936T828 845T898 710T921 544V514ZM755 563Q758 693 698 767T518 841Q457 841 411 818T334 757T286 669T267 563H755ZM758 1293Q766 1293 772 1290T781 1279T787 1259T790 1228Q790 1211 788 1200T782 1180T772 1168T758 1164H279Q271 1164 265 1168T254 1180T248 1199T246 1228Q246 1246 248 1258T254 1278T264 1289T279 1293H758Z"/><glyph unicode="Ė" horiz-adv-x="1000" d="M892 71Q892 53 890 40T883 17T872 4T857 0H236Q213 0 193 15T172 70V1224Q172 1263 192 1278T236 1294H850Q858 1294 864 1290T875 1277T881 1255T884 1221Q884 1203 882 1190T875 1168T865 1155T850 1151H344V745H778Q786 745 792 741T803 728T810 706T812 673Q812 655 810 642T804 621T793 610T778 606H344V143H857Q865 143 871 139T883 127T890 105T892 71ZM635 1529Q635 1473 613 1452T534 1431Q478 1431 457 1451T436 1527Q436 1582 457 1603T536 1625Q592 1625 613 1604T635 1529Z"/><glyph unicode="ė" horiz-adv-x="1019" d="M921 514Q921 475 902 459T857 442H267Q267 367 282 307T332 204T423 138T560 115Q624 115 674 125T760 149T820 172T856 183Q863 183 868 180T877 169T881 150T883 119Q883 106 882 97T880 80T875 66T866 55T833 37T763 12T664 -9T543 -19Q432 -19 349 12T208 104T122 257T93 471Q93 587 123 679T209 836T346 935T525 970Q631 970 705 936T828 845T898 710T921 544V514ZM755 563Q758 693 698 767T518 841Q457 841 411 818T334 757T286 669T267 563H755ZM621 1232Q621 1176 599 1155T520 1134Q464 1134 443 1154T422 1229Q422 1285 443 1306T522 1327Q578 1327 599 1307T621 1232Z"/><glyph unicode="Ę" horiz-adv-x="1000" d="M932 -291Q932 -306 930 -315T925 -330T915 -340T887 -349T833 -360T757 -365Q710 -365 674 -356T611 -327T572 -280T559 -214Q559 -179 575 -142T633 -62L695 0H236Q213 0 193 15T172 70V1224Q172 1263 192 1278T236 1294H850Q858 1294 864 1290T875 1277T881 1255T884 1221Q884 1203 882 1190T875 1168T865 1155T850 1151H344V745H778Q786 745 792 741T803 730T810 709T812 677Q812 657 810 644T804 623T793 610T778 606H344V143H857Q874 143 883 127T892 75Q892 61 891 49T888 28T881 11T869 -4L760 -112Q739 -135 731 -152T722 -188Q722 -215 740 -228T797 -241H904Q911 -241 916 -243T925 -250T930 -265T932 -291Z"/><glyph unicode="ę" horiz-adv-x="1019" d="M921 514Q921 475 902 459T857 442H267Q267 367 282 307T332 204T423 138T560 115Q624 115 674 125T760 149T820 172T856 183Q863 183 868 180T877 169T881 150T883 119Q883 99 883 86T880 62T873 45T859 28L723 -109Q697 -135 689 -154T681 -187Q681 -215 698 -228T755 -242H864Q878 -242 884 -250T891 -286Q891 -303 890 -313T885 -330T875 -340T858 -347Q825 -356 792 -360T718 -365Q625 -365 573 -327T521 -215Q521 -196 525 -178T538 -142T562 -103T600 -60L654 -5Q629 -11 600 -14T532 -18Q426 -18 344 13T207 105T122 258T93 471Q93 587 123 679T209 836T346 935T525 970Q631 970 705 936T828 845T898 710T921 544V514ZM755 563Q758 693 698 767T518 841Q457 841 411 818T334 757T286 669T267 563H755Z"/><glyph unicode="Ě" horiz-adv-x="1000" d="M892 71Q892 53 890 40T883 17T872 4T857 0H236Q213 0 193 15T172 70V1224Q172 1263 192 1278T236 1294H850Q858 1294 864 1290T875 1277T881 1255T884 1221Q884 1203 882 1190T875 1168T865 1155T850 1151H344V745H778Q786 745 792 741T803 728T810 706T812 673Q812 655 810 642T804 621T793 610T778 606H344V143H857Q865 143 871 139T883 127T890 105T892 71ZM521 1395Q500 1395 486 1396T462 1400T444 1409T427 1424L213 1651Q204 1661 202 1668T206 1680T226 1687T262 1689Q292 1689 310 1688T339 1684T356 1676T368 1666L522 1494L682 1662Q689 1670 697 1675T717 1684T747 1688T792 1689Q816 1689 830 1687T850 1680T853 1668T842 1651L619 1424Q611 1415 602 1410T582 1401T557 1396T521 1395Z"/><glyph unicode="ě" horiz-adv-x="1019" d="M921 514Q921 475 902 459T857 442H267Q267 367 282 307T332 204T423 138T560 115Q624 115 674 125T760 149T820 172T856 183Q863 183 868 180T877 169T881 150T883 119Q883 106 882 97T880 80T875 66T866 55T833 37T763 12T664 -9T543 -19Q432 -19 349 12T208 104T122 257T93 471Q93 587 123 679T209 836T346 935T525 970Q631 970 705 936T828 845T898 710T921 544V514ZM755 563Q758 693 698 767T518 841Q457 841 411 818T334 757T286 669T267 563H755ZM645 1372Q652 1381 657 1386T672 1395T693 1400T725 1402Q751 1402 766 1399T785 1389T786 1372T771 1346L606 1117Q600 1109 593 1104T576 1097T550 1093T513 1091Q492 1091 478 1092T454 1097T437 1105T425 1117L260 1346Q249 1360 245 1371T246 1388T265 1398T306 1402Q327 1402 339 1401T360 1396T373 1387T385 1372L515 1191L645 1372Z"/><glyph unicode="Ğ" horiz-adv-x="1292" d="M1144 1118Q1144 1099 1142 1085T1136 1061T1126 1047T1113 1043Q1101 1043 1073 1062T998 1104T886 1146T730 1165Q623 1165 538 1126T394 1018T304 854T272 648Q272 524 306 428T402 266T547 166T733 132Q793 132 854 146T969 190V567H669Q652 567 644 584T635 637Q635 656 637 669T643 691T654 704T669 708H1080Q1091 708 1102 704T1122 692T1136 670T1141 638V145Q1141 119 1132 100T1094 67T1019 35T924 6T825 -12T726 -18Q576 -18 458 28T259 161T134 367T91 635Q91 789 137 914T268 1127T471 1263T734 1312Q808 1312 873 1299T988 1269T1073 1231T1121 1197T1139 1167T1144 1118ZM947 1664Q947 1601 930 1552T878 1467T795 1414T684 1395Q617 1395 568 1415T487 1471T440 1556T425 1664Q425 1679 436 1685T483 1692Q519 1692 533 1688T548 1668T557 1618T583 1562T625 1528T687 1516Q738 1516 768 1540T810 1597T823 1653T835 1684T886 1692Q923 1692 935 1686T947 1664Z"/><glyph unicode="ğ" horiz-adv-x="964" d="M905 884Q905 849 896 834T871 818H742Q777 782 791 739T805 648Q805 570 780 510T709 409T598 345T456 323Q401 323 352 337T275 374Q257 356 246 333T234 280Q234 245 266 222T353 197L588 187Q655 185 711 169T808 122T872 47T895 -57Q895 -119 869 -175T790 -273T653 -340T457 -365Q348 -365 272 -347T146 -296T75 -220T53 -123Q53 -90 61 -59T85 0T126 53T183 104Q134 129 111 167T87 249Q87 310 112 358T174 444Q143 481 125 527T107 640Q107 717 133 778T205 881T315 945T456 968Q497 968 532 964T599 951H871Q888 951 896 935T905 884ZM647 647Q647 739 597 790T453 842Q405 842 370 826T311 782T276 718T264 641Q264 552 314 501T456 450Q505 450 541 465T600 508T635 572T647 647ZM730 -66Q730 -8 683 23T554 57L321 65Q289 40 269 18T236 -25T220 -66T215 -107Q215 -172 281 -205T465 -239Q540 -239 590 -225T672 -186T716 -131T730 -66ZM623 1365Q623 1380 635 1387T681 1395Q700 1395 711 1394T729 1389T738 1380T741 1367Q741 1299 725 1249T676 1164T595 1113T482 1096Q414 1096 366 1114T286 1166T240 1250T225 1364Q225 1380 237 1387T283 1395Q301 1395 312 1393T330 1388T340 1379T343 1365Q346 1331 354 1303T379 1254T421 1224T482 1213Q512 1213 537 1221T580 1248T610 1295T623 1365Z"/><glyph unicode="Ģ" horiz-adv-x="1292" d="M1144 1118Q1144 1099 1142 1085T1136 1061T1126 1047T1113 1043Q1101 1043 1073 1062T998 1104T886 1146T730 1165Q623 1165 538 1126T394 1018T304 854T272 648Q272 524 306 428T402 266T547 166T733 132Q793 132 854 146T969 190V567H669Q652 567 644 584T635 637Q635 656 637 669T643 691T654 704T669 708H1080Q1091 708 1102 704T1122 692T1136 670T1141 638V145Q1141 119 1132 100T1094 67T1019 35T924 6T825 -12T726 -18Q576 -18 458 28T259 161T134 367T91 635Q91 789 137 914T268 1127T471 1263T734 1312Q808 1312 873 1299T988 1269T1073 1231T1121 1197T1139 1167T1144 1118ZM601 -121Q604 -110 610 -103T627 -91T655 -85T700 -83Q726 -83 741 -86T762 -96T769 -111T763 -131L666 -334Q662 -344 656 -350T641 -359T617 -363T583 -365Q562 -365 551 -363T535 -355T531 -342T535 -323L601 -121Z"/><glyph unicode="ģ" horiz-adv-x="964" d="M905 884Q905 849 896 834T871 818H742Q777 782 791 739T805 648Q805 570 780 510T709 409T598 345T456 323Q401 323 352 337T275 374Q257 356 246 333T234 280Q234 245 266 222T353 197L588 187Q655 185 711 169T808 122T872 47T895 -57Q895 -119 869 -175T790 -273T653 -340T457 -365Q348 -365 272 -347T146 -296T75 -220T53 -123Q53 -90 61 -59T85 0T126 53T183 104Q134 129 111 167T87 249Q87 310 112 358T174 444Q143 481 125 527T107 640Q107 717 133 778T205 881T315 945T456 968Q497 968 532 964T599 951H871Q888 951 896 935T905 884ZM647 647Q647 739 597 790T453 842Q405 842 370 826T311 782T276 718T264 641Q264 552 314 501T456 450Q505 450 541 465T600 508T635 572T647 647ZM730 -66Q730 -8 683 23T554 57L321 65Q289 40 269 18T236 -25T220 -66T215 -107Q215 -172 281 -205T465 -239Q540 -239 590 -225T672 -186T716 -131T730 -66ZM554 1102Q548 1092 542 1085T525 1074T497 1069T455 1067Q427 1067 411 1070T388 1079T381 1093T389 1112L532 1353Q538 1363 545 1369T563 1378T589 1383T627 1384Q645 1384 656 1382T672 1374T678 1360T673 1342L554 1102Z"/><glyph unicode="ħ" horiz-adv-x="1091" d="M943 25Q943 17 939 12T926 2T901 -4T861 -6Q835 -6 820 -4T795 2T782 11T778 25V540Q778 618 767 665T732 746T672 798T587 816Q525 816 464 772T333 643V25Q333 17 329 12T316 2T291 -4T250 -6Q226 -6 210 -4T185 2T172 11T168 25V1103H27Q19 1103 13 1106T3 1118T-4 1138T-7 1168Q-7 1186 -5 1198T2 1219T13 1230T27 1233H168V1362Q168 1370 171 1376T184 1386T210 1392T250 1394Q275 1394 291 1392T316 1386T329 1376T333 1362V1233H572Q580 1233 586 1230T596 1219T603 1199T605 1168Q605 1151 603 1139T597 1118T586 1107T572 1103H333V810Q405 887 477 922T621 958Q711 958 772 928T872 847T926 727T943 562V25Z"/><glyph unicode="Ī" horiz-adv-x="516" d="M344 26Q344 18 340 12T326 3T300 -3T258 -6Q234 -6 217 -4T190 2T176 12T172 26V1268Q172 1276 176 1282T191 1291T218 1297T258 1300Q283 1300 299 1298T326 1292T340 1282T344 1268V26ZM534 1590Q541 1590 547 1586T557 1574T563 1554T565 1524Q565 1507 564 1495T558 1474T547 1461T534 1457H-12Q-20 1457 -26 1461T-37 1473T-43 1494T-45 1524Q-45 1540 -43 1553T-37 1574T-27 1586T-12 1590H534Z"/><glyph unicode="ī" horiz-adv-x="470" d="M318 25Q318 17 314 12T301 2T276 -4T235 -6Q211 -6 195 -4T170 2T157 11T153 25V925Q153 933 156 938T169 948T195 954T235 956Q260 956 276 955T301 949T314 939T318 925V25ZM476 1293Q484 1293 490 1290T499 1279T505 1259T508 1228Q508 1211 506 1200T500 1180T490 1168T476 1164H-3Q-11 1164 -17 1168T-28 1180T-34 1199T-36 1228Q-36 1246 -34 1258T-28 1278T-18 1289T-3 1293H476Z"/><glyph unicode="Į" horiz-adv-x="516" d="M412 -291Q412 -306 410 -315T405 -331T396 -340T379 -347Q346 -356 311 -360T236 -365Q143 -365 91 -328T39 -216Q39 -200 41 -183T52 -147T76 -105T118 -57L181 6Q177 9 175 13T172 24V1269Q172 1276 176 1282T191 1292T218 1298T258 1300Q283 1300 299 1298T326 1292T340 1282T344 1269V24Q344 8 340 -4T324 -28L250 -103Q219 -134 210 -153T201 -188Q201 -215 219 -228T275 -241H384Q399 -241 405 -250T412 -291Z"/><glyph unicode="į" horiz-adv-x="470" d="M224 -105Q194 -135 186 -154T177 -191Q177 -217 195 -230T251 -243H357Q365 -243 370 -245T379 -252T384 -266T386 -291Q386 -306 385 -315T380 -331T370 -341T353 -347Q321 -356 287 -360T210 -365Q165 -365 129 -355T69 -327T31 -280T17 -215Q17 -199 19 -182T30 -145T54 -105T96 -57L153 0V925Q153 932 156 938T169 948T195 954T235 956Q260 956 276 954T301 948T314 938T318 925V25Q318 13 313 -4T298 -32L224 -105ZM337 1229Q337 1171 315 1150T234 1129Q176 1129 155 1149T133 1227Q133 1285 155 1306T236 1327Q294 1327 315 1307T337 1229Z"/><glyph unicode="İ" horiz-adv-x="516" d="M344 26Q344 18 340 12T326 3T300 -3T258 -6Q234 -6 217 -4T190 2T176 12T172 26V1268Q172 1276 176 1282T191 1291T218 1297T258 1300Q283 1300 299 1298T326 1292T340 1282T344 1268V26ZM361 1529Q361 1473 339 1452T260 1431Q204 1431 183 1451T162 1527Q162 1582 183 1603T262 1625Q318 1625 339 1604T361 1529Z"/><glyph unicode="ı" horiz-adv-x="470" d="M318 25Q318 17 314 12T301 2T276 -4T235 -6Q211 -6 195 -4T170 2T157 11T153 25V925Q153 933 156 938T169 948T195 954T235 956Q260 956 276 955T301 949T314 939T318 925V25Z"/><glyph unicode="Ķ" horiz-adv-x="1064" d="M1016 28Q1016 20 1013 14T999 3T972 -3T928 -6Q893 -6 871 -3T838 8T820 26L344 673V26Q344 19 340 13T326 3T300 -3T258 -6Q234 -6 217 -4T190 2T176 12T172 26V1268Q172 1276 176 1282T190 1291T217 1297T258 1300Q283 1300 299 1298T326 1292T340 1282T344 1268V693L802 1268Q808 1277 816 1283T835 1292T863 1298T906 1300Q932 1300 948 1298T973 1291T986 1281T990 1268Q990 1255 984 1242T959 1206L530 693L992 79Q1009 53 1012 44T1016 28ZM482 -121Q485 -110 491 -103T508 -91T536 -85T581 -83Q607 -83 622 -86T643 -96T650 -111T644 -131L547 -334Q543 -344 537 -350T522 -359T498 -363T464 -365Q443 -365 432 -363T416 -355T412 -342T416 -323L482 -121Z"/><glyph unicode="ķ" horiz-adv-x="931" d="M892 26Q892 18 888 12T875 2T848 -4T805 -6Q778 -6 761 -5T731 0T712 10T698 26L318 524V25Q318 17 314 12T301 2T276 -4T235 -6Q211 -6 195 -4T170 2T157 11T153 25V1361Q153 1369 156 1375T169 1385T195 1391T235 1393Q260 1393 276 1391T301 1385T314 1375T318 1361V547L658 921Q666 931 675 937T696 948T726 954T767 956Q792 956 809 955T836 950T851 941T856 926Q856 914 850 902T828 874L502 548L868 73Q881 56 886 46T892 26ZM405 -121Q408 -110 414 -103T431 -91T459 -85T504 -83Q530 -83 545 -86T566 -96T573 -111T567 -131L470 -334Q466 -344 460 -350T445 -359T421 -363T387 -365Q366 -365 355 -363T339 -355T335 -342T339 -323L405 -121Z"/><glyph unicode="ĸ" horiz-adv-x="931" d="M886 26Q886 18 882 12T867 2T839 -4T795 -6Q768 -6 751 -5T723 1T705 11T693 26L318 490V25Q318 17 314 12T301 2T276 -4T235 -6Q211 -6 195 -4T170 2T157 11T153 25V925Q153 933 156 938T169 948T195 954T235 956Q260 956 276 955T301 949T314 939T318 925V512L675 924Q682 933 689 939T707 949T733 954T772 956Q796 956 813 955T841 949T857 940T862 927Q862 921 861 915T856 901T847 884T832 865L503 514L859 81Q867 71 872 63T880 48T884 36T886 26Z"/><glyph unicode="Ĺ" horiz-adv-x="861" d="M843 75Q843 55 841 42T835 19T824 5T808 0H236Q213 0 193 15T172 70V1268Q172 1276 176 1282T190 1291T217 1297T258 1300Q283 1300 299 1298T326 1292T340 1282T344 1268V149H808Q817 149 823 145T834 132T841 109T843 75ZM462 1651Q473 1664 483 1671T507 1682T538 1687T581 1689Q611 1689 628 1685T652 1673T657 1657T645 1638L418 1426Q408 1416 400 1411T380 1402T355 1397T319 1395Q296 1395 283 1397T265 1405T262 1419T273 1438L462 1651Z"/><glyph unicode="ĺ" horiz-adv-x="470" d="M318 25Q318 17 314 12T301 2T276 -4T235 -6Q211 -6 195 -4T170 2T157 11T153 25V1361Q153 1369 156 1375T169 1385T195 1391T235 1393Q260 1393 276 1391T301 1385T314 1375T318 1361V25ZM375 1734Q386 1747 396 1754T420 1765T451 1770T494 1772Q524 1772 541 1768T565 1756T570 1740T558 1721L331 1509Q321 1499 313 1494T293 1485T268 1480T232 1478Q209 1478 196 1480T178 1488T175 1502T186 1521L375 1734Z"/><glyph unicode="Ļ" horiz-adv-x="861" d="M843 75Q843 55 841 42T835 19T824 5T808 0H236Q213 0 193 15T172 70V1268Q172 1276 176 1282T190 1291T217 1297T258 1300Q283 1300 299 1298T326 1292T340 1282T344 1268V149H808Q817 149 823 145T834 132T841 109T843 75ZM426 -121Q429 -110 435 -103T452 -91T480 -85T525 -83Q551 -83 566 -86T587 -96T594 -111T588 -131L491 -334Q487 -344 481 -350T466 -359T442 -363T408 -365Q387 -365 376 -363T360 -355T356 -342T360 -323L426 -121Z"/><glyph unicode="ļ" horiz-adv-x="470" d="M318 25Q318 17 314 12T301 2T276 -4T235 -6Q211 -6 195 -4T170 2T157 11T153 25V1361Q153 1369 156 1375T169 1385T195 1391T235 1393Q260 1393 276 1391T301 1385T314 1375T318 1361V25ZM402 -121Q405 -110 411 -103T428 -91T456 -85T501 -83Q527 -83 542 -86T563 -96T570 -111T564 -131L467 -334Q463 -344 457 -350T442 -359T418 -363T384 -365Q363 -365 352 -363T336 -355T332 -342T336 -323L402 -121Z"/><glyph unicode="Ľ" horiz-adv-x="866" d="M843 75Q843 55 841 42T835 19T824 5T808 0H236Q213 0 193 15T172 70V1268Q172 1276 176 1282T190 1291T217 1297T258 1300Q283 1300 299 1298T326 1292T340 1282T344 1268V149H808Q817 149 823 145T834 132T841 109T843 75ZM604 1315Q607 1325 613 1332T629 1343T655 1349T695 1351Q718 1351 730 1349T749 1343T756 1331T754 1314L629 1002Q627 995 623 991T610 984T588 980T553 979Q538 979 529 981T516 987T511 996T512 1010L604 1315Z"/><glyph unicode="ľ" horiz-adv-x="540" d="M318 25Q318 17 314 12T301 2T276 -4T235 -6Q211 -6 195 -4T170 2T157 11T153 25V1361Q153 1369 156 1375T169 1385T195 1391T235 1393Q260 1393 276 1391T301 1385T314 1375T318 1361V25ZM478 1361Q481 1371 487 1378T503 1389T529 1395T569 1397Q592 1397 604 1395T623 1389T630 1377T628 1360L503 1048Q501 1041 497 1037T484 1030T462 1026T427 1025Q412 1025 403 1027T390 1033T385 1042T386 1056L478 1361Z"/><glyph unicode="Ł" horiz-adv-x="880" d="M862 75Q862 55 860 42T853 19T842 5T827 0H254Q231 0 211 15T191 70V547L63 464Q46 454 37 467T28 525Q28 542 29 555T33 578T42 594T57 606L191 692V1269Q191 1276 195 1282T209 1292T235 1298T277 1300Q301 1300 318 1298T345 1292T359 1282T363 1269V799L589 941Q606 951 615 937T624 881Q624 863 623 850T618 828T609 811T595 799L363 654V149H827Q835 149 841 145T853 132T860 109T862 75Z"/><glyph unicode="ł" horiz-adv-x="507" d="M480 954Q480 937 479 924T475 902T466 885T451 873L336 801V25Q336 17 332 12T319 2T294 -4T254 -6Q229 -6 213 -4T188 2T175 11T171 25V697L62 628Q46 618 37 631T28 688Q28 706 29 719T33 741T42 758T57 770L171 842V1361Q171 1369 175 1375T188 1385T213 1391T254 1393Q278 1393 294 1391T319 1385T332 1375T336 1361V946L445 1015Q462 1025 471 1012T480 954Z"/><glyph unicode="Ń" horiz-adv-x="1322" d="M1150 71Q1150 51 1144 37T1127 14T1103 1T1077 -3H1022Q996 -3 977 2T940 22T905 62T866 126L458 862Q426 919 394 981T333 1103H331Q333 1031 334 956T335 807V26Q335 19 331 13T318 3T293 -3T253 -6Q229 -6 214 -4T189 2T176 12T172 26V1220Q172 1260 194 1277T242 1294H324Q353 1294 372 1289T407 1273T437 1241T469 1189L783 621Q812 569 839 520T891 422T940 328T989 234H990Q988 313 988 398T987 563V1265Q987 1272 991 1278T1004 1288T1029 1295T1070 1297Q1092 1297 1108 1295T1133 1289T1146 1278T1150 1265V71ZM792 1651Q803 1664 813 1671T837 1682T868 1687T911 1689Q941 1689 958 1685T982 1673T987 1657T975 1638L748 1426Q738 1416 730 1411T710 1402T685 1397T649 1395Q626 1395 613 1397T595 1405T592 1419T603 1438L792 1651Z"/><glyph unicode="ń" horiz-adv-x="1076" d="M928 25Q928 17 924 12T911 2T886 -4T846 -6Q821 -6 805 -4T780 2T767 11T763 25V552Q763 629 751 676T716 757T657 809T572 827Q510 827 448 783T318 654V25Q318 17 314 12T301 2T276 -4T235 -6Q211 -6 195 -4T170 2T157 11T153 25V925Q153 933 156 938T168 948T191 954T228 956Q250 956 264 955T287 949T298 939T302 925V806Q378 891 453 930T606 970Q696 970 757 940T857 858T911 739T928 574V25ZM636 1365Q642 1376 650 1383T669 1394T698 1400T739 1402Q767 1402 784 1399T809 1389T815 1374T806 1356L625 1123Q617 1113 611 1107T596 1098T574 1093T540 1091Q518 1091 505 1094T487 1102T482 1115T491 1134L636 1365Z"/><glyph unicode="Ņ" horiz-adv-x="1322" d="M1150 71Q1150 51 1144 37T1127 14T1103 1T1077 -3H1022Q996 -3 977 2T940 22T905 62T866 126L458 862Q426 919 394 981T333 1103H331Q333 1031 334 956T335 807V26Q335 19 331 13T318 3T293 -3T253 -6Q229 -6 214 -4T189 2T176 12T172 26V1220Q172 1260 194 1277T242 1294H324Q353 1294 372 1289T407 1273T437 1241T469 1189L783 621Q812 569 839 520T891 422T940 328T989 234H990Q988 313 988 398T987 563V1265Q987 1272 991 1278T1004 1288T1029 1295T1070 1297Q1092 1297 1108 1295T1133 1289T1146 1278T1150 1265V71ZM554 -121Q557 -110 563 -103T580 -91T608 -85T653 -83Q679 -83 694 -86T715 -96T722 -111T716 -131L619 -334Q615 -344 609 -350T594 -359T570 -363T536 -365Q515 -365 504 -363T488 -355T484 -342T488 -323L554 -121Z"/><glyph unicode="ņ" horiz-adv-x="1076" d="M928 25Q928 17 924 12T911 2T886 -4T846 -6Q821 -6 805 -4T780 2T767 11T763 25V552Q763 629 751 676T716 757T657 809T572 827Q510 827 448 783T318 654V25Q318 17 314 12T301 2T276 -4T235 -6Q211 -6 195 -4T170 2T157 11T153 25V925Q153 933 156 938T168 948T191 954T228 956Q250 956 264 955T287 949T298 939T302 925V806Q378 891 453 930T606 970Q696 970 757 940T857 858T911 739T928 574V25ZM466 -121Q469 -110 475 -103T492 -91T520 -85T565 -83Q591 -83 606 -86T627 -96T634 -111T628 -131L531 -334Q527 -344 521 -350T506 -359T482 -363T448 -365Q427 -365 416 -363T400 -355T396 -342T400 -323L466 -121Z"/><glyph unicode="Ň" horiz-adv-x="1322" d="M1150 71Q1150 51 1144 37T1127 14T1103 1T1077 -3H1022Q996 -3 977 2T940 22T905 62T866 126L458 862Q426 919 394 981T333 1103H331Q333 1031 334 956T335 807V26Q335 19 331 13T318 3T293 -3T253 -6Q229 -6 214 -4T189 2T176 12T172 26V1220Q172 1260 194 1277T242 1294H324Q353 1294 372 1289T407 1273T437 1241T469 1189L783 621Q812 569 839 520T891 422T940 328T989 234H990Q988 313 988 398T987 563V1265Q987 1272 991 1278T1004 1288T1029 1295T1070 1297Q1092 1297 1108 1295T1133 1289T1146 1278T1150 1265V71ZM663 1395Q642 1395 628 1396T604 1400T586 1409T569 1424L355 1651Q346 1661 344 1668T348 1680T368 1687T404 1689Q434 1689 452 1688T481 1684T498 1676T510 1666L664 1494L824 1662Q831 1670 839 1675T859 1684T889 1688T934 1689Q958 1689 972 1687T992 1680T995 1668T984 1651L761 1424Q753 1415 744 1410T724 1401T699 1396T663 1395Z"/><glyph unicode="ň" horiz-adv-x="1076" d="M928 25Q928 17 924 12T911 2T886 -4T846 -6Q821 -6 805 -4T780 2T767 11T763 25V552Q763 629 751 676T716 757T657 809T572 827Q510 827 448 783T318 654V25Q318 17 314 12T301 2T276 -4T235 -6Q211 -6 195 -4T170 2T157 11T153 25V925Q153 933 156 938T168 948T191 954T228 956Q250 956 264 955T287 949T298 939T302 925V806Q378 891 453 930T606 970Q696 970 757 940T857 858T911 739T928 574V25ZM698 1372Q705 1381 710 1386T725 1395T746 1400T778 1402Q804 1402 819 1399T838 1389T839 1372T824 1346L659 1117Q653 1109 646 1104T629 1097T603 1093T566 1091Q545 1091 531 1092T507 1097T490 1105T478 1117L313 1346Q302 1360 298 1371T299 1388T318 1398T359 1402Q380 1402 392 1401T413 1396T426 1387T438 1372L568 1191L698 1372Z"/><glyph unicode="Ō" horiz-adv-x="1356" d="M1256 662Q1256 505 1219 379T1109 165T924 29T665 -19Q519 -19 413 24T237 151T133 357T99 640Q99 793 136 918T247 1130T432 1265T691 1313Q834 1313 940 1270T1116 1145T1221 941T1256 662ZM1075 650Q1075 760 1056 854T991 1018T869 1127T681 1166Q569 1166 493 1124T370 1012T302 849T281 652Q281 538 300 442T364 277T484 169T674 130Q787 130 864 172T988 285T1055 451T1075 650ZM956 1590Q963 1590 969 1586T979 1574T985 1554T987 1524Q987 1507 986 1495T980 1474T969 1461T956 1457H410Q402 1457 396 1461T385 1473T379 1494T377 1524Q377 1540 379 1553T385 1574T395 1586T410 1590H956Z"/><glyph unicode="ō" horiz-adv-x="1080" d="M990 485Q990 375 961 283T875 123T731 19T530 -19Q419 -19 337 14T199 110T117 263T90 467Q90 577 118 669T204 829T348 933T549 970Q660 970 742 937T880 841T962 688T990 485ZM816 474Q816 547 803 612T758 726T674 803T542 832Q469 832 417 806T330 733T280 620T263 478Q263 404 276 339T321 226T406 149T538 120Q610 120 663 146T750 219T800 331T816 474ZM781 1293Q789 1293 795 1290T804 1279T810 1259T813 1228Q813 1211 811 1200T805 1180T795 1168T781 1164H302Q294 1164 288 1168T277 1180T271 1199T269 1228Q269 1246 271 1258T277 1278T287 1289T302 1293H781Z"/><glyph unicode="Ő" horiz-adv-x="1356" d="M1256 662Q1256 505 1219 379T1109 165T924 29T665 -19Q519 -19 413 24T237 151T133 357T99 640Q99 793 136 918T247 1130T432 1265T691 1313Q834 1313 940 1270T1116 1145T1221 941T1256 662ZM1075 650Q1075 760 1056 854T991 1018T869 1127T681 1166Q569 1166 493 1124T370 1012T302 849T281 652Q281 538 300 442T364 277T484 169T674 130Q787 130 864 172T988 285T1055 451T1075 650ZM558 1416Q551 1409 544 1405T526 1398T501 1396T468 1395Q436 1395 424 1404T422 1429L591 1663Q597 1671 605 1676T625 1685T654 1690T697 1692Q735 1692 757 1689T789 1680T795 1665T781 1645L558 1416ZM938 1417Q931 1409 924 1405T908 1398T885 1396T851 1395Q832 1395 819 1397T799 1403T790 1413T794 1427L973 1664Q978 1671 986 1676T1008 1685T1040 1690T1086 1692Q1119 1692 1139 1689T1168 1679T1177 1666T1167 1650L938 1417Z"/><glyph unicode="ő" horiz-adv-x="1080" d="M990 485Q990 375 961 283T875 123T731 19T530 -19Q419 -19 337 14T199 110T117 263T90 467Q90 577 118 669T204 829T348 933T549 970Q660 970 742 937T880 841T962 688T990 485ZM816 474Q816 547 803 612T758 726T674 803T542 832Q469 832 417 806T330 733T280 620T263 478Q263 404 276 339T321 226T406 149T538 120Q610 120 663 146T750 219T800 331T816 474ZM434 1088Q429 1082 423 1078T409 1072T388 1068T359 1067Q340 1067 329 1068T311 1073T305 1083T309 1097L480 1355Q485 1363 492 1368T510 1377T536 1382T575 1384Q606 1384 625 1381T652 1372T658 1356T645 1334L434 1088ZM772 1088Q766 1081 759 1077T743 1071T722 1068T693 1067Q659 1067 646 1074T642 1096L824 1358Q829 1366 835 1370T853 1378T881 1382T924 1384Q952 1384 969 1381T994 1372T1000 1356T987 1335L772 1088Z"/><glyph unicode="Œ" horiz-adv-x="1775" d="M1666 71Q1666 53 1664 40T1657 17T1646 4T1632 0H1016Q998 0 980 10T958 48Q900 15 826 -2T665 -19Q519 -19 413 24T237 150T133 356T99 640Q99 794 136 918T247 1130T432 1265T691 1313Q765 1313 835 1296T959 1252Q965 1276 981 1285T1015 1294H1624Q1632 1294 1638 1290T1649 1277T1655 1255T1658 1221Q1658 1203 1656 1190T1649 1168T1639 1155T1624 1151H1118V744H1553Q1560 744 1566 740T1577 727T1584 705T1586 672Q1586 653 1584 640T1578 618T1567 605T1553 601H1118V143H1632Q1639 143 1645 139T1657 127T1664 105T1666 71ZM946 1085Q891 1122 826 1144T681 1166Q569 1166 493 1125T370 1013T302 849T281 652Q281 538 300 443T364 277T484 169T674 130Q760 130 827 153T946 215V1085Z"/><glyph unicode="œ" horiz-adv-x="1740" d="M1642 514Q1642 475 1623 459T1579 442H988Q988 367 1003 307T1054 204T1145 138T1282 115Q1345 115 1395 125T1482 149T1542 172T1577 183Q1584 183 1589 180T1598 169T1603 150T1605 119Q1605 106 1604 97T1602 81T1597 67T1587 55T1554 37T1484 12T1385 -10T1264 -19Q1132 -19 1040 28T893 176Q839 81 749 31T530 -19Q420 -19 338 14T200 110T117 263T90 468Q90 578 118 670T204 829T348 933T549 970Q680 970 766 921T906 777Q960 874 1046 922T1247 970Q1352 970 1426 936T1549 845T1619 710T1642 544V514ZM1477 563Q1480 693 1419 767T1239 841Q1178 841 1132 818T1055 757T1008 669T988 563H1477ZM816 472Q816 546 803 611T758 726T674 803T542 832Q469 832 417 806T330 733T280 621T263 478Q263 404 276 339T321 225T406 148T538 120Q610 120 663 146T750 219T800 330T816 472Z"/><glyph unicode="Ŕ" horiz-adv-x="1112" d="M1035 26Q1035 18 1032 12T1019 2T991 -4T943 -6Q917 -6 901 -4T874 2T859 15T849 35L730 340Q709 392 687 435T633 510T560 559T459 577H344V26Q344 18 340 12T326 3T300 -3T258 -6Q233 -6 217 -4T190 2T176 12T172 26V1224Q172 1263 192 1278T236 1294H511Q560 1294 592 1292T651 1286Q726 1273 783 1245T880 1174T938 1076T958 953Q958 888 941 837T890 746T811 677T708 628Q740 614 766 593T814 541T857 472T897 384L1013 99Q1027 63 1031 49T1035 26ZM776 935Q776 1011 742 1063T628 1139Q603 1146 572 1149T489 1152H344V716H512Q580 716 629 732T712 778T760 848T776 935ZM621 1651Q632 1664 642 1671T666 1682T697 1687T740 1689Q770 1689 787 1685T811 1673T816 1657T804 1638L577 1426Q567 1416 559 1411T539 1402T514 1397T478 1395Q455 1395 442 1397T424 1405T421 1419T432 1438L621 1651Z"/><glyph unicode="ŕ" horiz-adv-x="714" d="M679 866Q679 844 678 829T674 806T667 793T654 788Q646 788 635 792T609 801T576 810T537 814Q512 814 488 804T438 771T382 710T318 617V25Q318 17 314 12T301 2T276 -4T235 -6Q211 -6 195 -4T170 2T157 11T153 25V925Q153 933 156 938T168 948T191 954T228 956Q250 956 264 955T287 949T298 939T302 925V794Q339 848 371 882T433 935T490 962T548 970Q561 970 577 969T612 963T644 954T665 944T673 935T676 923T678 903T679 866ZM472 1365Q478 1376 486 1383T505 1394T534 1400T575 1402Q603 1402 620 1399T645 1389T651 1374T642 1356L461 1123Q453 1113 447 1107T432 1098T410 1093T376 1091Q354 1091 341 1094T323 1102T318 1115T327 1134L472 1365Z"/><glyph unicode="Ŗ" horiz-adv-x="1112" d="M1035 26Q1035 18 1032 12T1019 2T991 -4T943 -6Q917 -6 901 -4T874 2T859 15T849 35L730 340Q709 392 687 435T633 510T560 559T459 577H344V26Q344 18 340 12T326 3T300 -3T258 -6Q233 -6 217 -4T190 2T176 12T172 26V1224Q172 1263 192 1278T236 1294H511Q560 1294 592 1292T651 1286Q726 1273 783 1245T880 1174T938 1076T958 953Q958 888 941 837T890 746T811 677T708 628Q740 614 766 593T814 541T857 472T897 384L1013 99Q1027 63 1031 49T1035 26ZM776 935Q776 1011 742 1063T628 1139Q603 1146 572 1149T489 1152H344V716H512Q580 716 629 732T712 778T760 848T776 935ZM491 -121Q494 -110 500 -103T517 -91T545 -85T590 -83Q616 -83 631 -86T652 -96T659 -111T653 -131L556 -334Q552 -344 546 -350T531 -359T507 -363T473 -365Q452 -365 441 -363T425 -355T421 -342T425 -323L491 -121Z"/><glyph unicode="ŗ" horiz-adv-x="714" d="M679 866Q679 844 678 829T674 806T667 793T654 788Q646 788 635 792T609 801T576 810T537 814Q512 814 488 804T438 771T382 710T318 617V25Q318 17 314 12T301 2T276 -4T235 -6Q211 -6 195 -4T170 2T157 11T153 25V925Q153 933 156 938T168 948T191 954T228 956Q250 956 264 955T287 949T298 939T302 925V794Q339 848 371 882T433 935T490 962T548 970Q561 970 577 969T612 963T644 954T665 944T673 935T676 923T678 903T679 866ZM437 -121Q440 -110 446 -103T463 -91T491 -85T536 -83Q562 -83 577 -86T598 -96T605 -111T599 -131L502 -334Q498 -344 492 -350T477 -359T453 -363T419 -365Q398 -365 387 -363T371 -355T367 -342T371 -323L437 -121Z"/><glyph unicode="Ř" horiz-adv-x="1112" d="M1035 26Q1035 18 1032 12T1019 2T991 -4T943 -6Q917 -6 901 -4T874 2T859 15T849 35L730 340Q709 392 687 435T633 510T560 559T459 577H344V26Q344 18 340 12T326 3T300 -3T258 -6Q233 -6 217 -4T190 2T176 12T172 26V1224Q172 1263 192 1278T236 1294H511Q560 1294 592 1292T651 1286Q726 1273 783 1245T880 1174T938 1076T958 953Q958 888 941 837T890 746T811 677T708 628Q740 614 766 593T814 541T857 472T897 384L1013 99Q1027 63 1031 49T1035 26ZM776 935Q776 1011 742 1063T628 1139Q603 1146 572 1149T489 1152H344V716H512Q580 716 629 732T712 778T760 848T776 935ZM534 1395Q513 1395 499 1396T475 1400T457 1409T440 1424L226 1651Q217 1661 215 1668T219 1680T239 1687T275 1689Q305 1689 323 1688T352 1684T369 1676T381 1666L535 1494L695 1662Q702 1670 710 1675T730 1684T760 1688T805 1689Q829 1689 843 1687T863 1680T866 1668T855 1651L632 1424Q624 1415 615 1410T595 1401T570 1396T534 1395Z"/><glyph unicode="ř" horiz-adv-x="714" d="M679 866Q679 844 678 829T674 806T667 793T654 788Q646 788 635 792T609 801T576 810T537 814Q512 814 488 804T438 771T382 710T318 617V25Q318 17 314 12T301 2T276 -4T235 -6Q211 -6 195 -4T170 2T157 11T153 25V925Q153 933 156 938T168 948T191 954T228 956Q250 956 264 955T287 949T298 939T302 925V794Q339 848 371 882T433 935T490 962T548 970Q561 970 577 969T612 963T644 954T665 944T673 935T676 923T678 903T679 866ZM783 1372Q790 1381 795 1386T810 1395T831 1400T863 1402Q889 1402 904 1399T923 1389T924 1372T909 1346L744 1117Q738 1109 731 1104T714 1097T688 1093T651 1091Q630 1091 616 1092T592 1097T575 1105T563 1117L398 1346Q387 1360 383 1371T384 1388T403 1398T444 1402Q465 1402 477 1401T498 1396T511 1387T523 1372L653 1191L783 1372Z"/><glyph unicode="Ś" horiz-adv-x="941" d="M867 363Q867 272 834 201T741 81T601 6T427 -19Q362 -19 307 -8T208 19T135 52T94 81T77 111T71 161Q71 183 73 197T79 221T89 233T103 237Q117 237 142 220T208 183T304 146T435 128Q491 128 537 143T617 185T669 253T687 344Q687 399 662 438T596 506T503 560T395 610T288 667T195 740T129 838T103 974Q103 1055 132 1118T214 1225T339 1290T496 1313Q539 1313 582 1306T664 1286T733 1258T772 1233T785 1218T790 1204T793 1183T794 1152Q794 1134 793 1120T788 1097T780 1083T767 1078Q756 1078 733 1092T675 1123T595 1155T490 1170Q436 1170 396 1156T330 1117T291 1060T278 990Q278 936 303 897T369 828T464 773T572 723T680 667T774 595T841 497T867 363ZM597 1651Q608 1664 618 1671T642 1682T673 1687T716 1689Q746 1689 763 1685T787 1673T792 1657T780 1638L553 1426Q543 1416 535 1411T515 1402T490 1397T454 1395Q431 1395 418 1397T400 1405T397 1419T408 1438L597 1651Z"/><glyph unicode="ś" horiz-adv-x="801" d="M718 270Q718 201 693 147T620 56T508 0T365 -19Q317 -19 274 -12T196 7T137 31T102 54T86 82T81 131Q81 150 83 163T88 184T96 195T109 199Q120 199 141 186T194 156T269 127T368 113Q410 113 444 122T503 148T541 193T555 257Q555 295 536 321T484 367T412 402T330 435T247 473T174 526T123 600T103 703Q103 756 123 804T185 889T287 948T431 970Q467 970 503 964T568 949T617 930T648 911T662 897T667 884T670 865T672 838Q672 821 671 809T666 788T657 777T646 773Q637 773 620 784T576 807T513 831T429 842Q387 842 355 833T303 806T272 764T261 712Q261 673 281 647T333 600T406 564T489 531T573 493T647 442T698 370T718 270ZM484 1365Q490 1376 498 1383T517 1394T546 1400T587 1402Q615 1402 632 1399T657 1389T663 1374T654 1356L473 1123Q465 1113 459 1107T444 1098T422 1093T388 1091Q366 1091 353 1094T335 1102T330 1115T339 1134L484 1365Z"/><glyph unicode="Ş" horiz-adv-x="941" d="M518 -12L545 -74Q566 -119 575 -148T585 -204Q585 -242 571 -272T531 -322T469 -354T389 -365Q354 -365 323 -361T269 -351T238 -342T227 -332T221 -317T219 -293Q219 -262 225 -252T247 -241H371Q404 -241 422 -228T440 -187Q440 -174 434 -155T418 -113L374 -17Q329 -13 289 -5T206 20T134 52T94 81T77 111T71 161Q71 183 73 197T79 221T89 233T103 237Q117 237 142 220T208 183T304 146T435 128Q491 128 537 143T617 185T669 253T687 344Q687 399 662 438T596 506T503 560T395 610T288 667T195 740T129 838T103 974Q103 1055 132 1118T214 1225T339 1290T496 1313Q539 1313 582 1306T664 1286T733 1258T772 1233T785 1218T790 1204T793 1183T794 1152Q794 1134 793 1120T788 1097T780 1083T767 1078Q756 1078 733 1092T675 1123T595 1155T490 1170Q436 1170 396 1156T330 1117T291 1060T278 990Q278 936 303 897T369 828T464 773T572 723T680 667T774 595T841 497T867 363Q867 273 831 195T716 62T518 -12Z"/><glyph unicode="ş" horiz-adv-x="801" d="M484 -6L515 -74Q536 -119 545 -148T555 -204Q555 -242 541 -272T501 -322T439 -354T359 -365Q324 -365 293 -361T239 -351T208 -342T196 -332T191 -317T189 -293Q189 -262 195 -252T217 -241H341Q373 -241 391 -228T409 -187Q409 -174 403 -155T387 -113L345 -18Q280 -16 230 -3T148 26T103 53T86 82T81 131Q81 150 83 163T88 184T96 195T109 199Q120 199 141 186T194 156T269 127T368 113Q410 113 444 122T503 148T541 193T555 257Q555 295 536 321T484 367T412 402T330 435T247 473T174 526T123 600T103 703Q103 756 123 804T185 889T287 948T431 970Q467 970 503 964T568 949T617 930T648 911T662 897T667 884T670 865T672 838Q672 821 671 809T666 788T657 777T646 773Q637 773 620 784T576 807T513 831T429 842Q387 842 355 833T303 806T272 764T261 712Q261 673 281 647T333 600T406 564T489 531T573 493T647 442T698 370T718 270Q718 203 693 148T616 53T484 -6Z"/><glyph unicode="Š" horiz-adv-x="941" d="M867 363Q867 272 834 201T741 81T601 6T427 -19Q362 -19 307 -8T208 19T135 52T94 81T77 111T71 161Q71 183 73 197T79 221T89 233T103 237Q117 237 142 220T208 183T304 146T435 128Q491 128 537 143T617 185T669 253T687 344Q687 399 662 438T596 506T503 560T395 610T288 667T195 740T129 838T103 974Q103 1055 132 1118T214 1225T339 1290T496 1313Q539 1313 582 1306T664 1286T733 1258T772 1233T785 1218T790 1204T793 1183T794 1152Q794 1134 793 1120T788 1097T780 1083T767 1078Q756 1078 733 1092T675 1123T595 1155T490 1170Q436 1170 396 1156T330 1117T291 1060T278 990Q278 936 303 897T369 828T464 773T572 723T680 667T774 595T841 497T867 363ZM475 1395Q454 1395 440 1396T416 1400T398 1409T381 1424L167 1651Q158 1661 156 1668T160 1680T180 1687T216 1689Q246 1689 264 1688T293 1684T310 1676T322 1666L476 1494L636 1662Q643 1670 651 1675T671 1684T701 1688T746 1689Q770 1689 784 1687T804 1680T807 1668T796 1651L573 1424Q565 1415 556 1410T536 1401T511 1396T475 1395Z"/><glyph unicode="š" horiz-adv-x="801" d="M718 270Q718 201 693 147T620 56T508 0T365 -19Q317 -19 274 -12T196 7T137 31T102 54T86 82T81 131Q81 150 83 163T88 184T96 195T109 199Q120 199 141 186T194 156T269 127T368 113Q410 113 444 122T503 148T541 193T555 257Q555 295 536 321T484 367T412 402T330 435T247 473T174 526T123 600T103 703Q103 756 123 804T185 889T287 948T431 970Q467 970 503 964T568 949T617 930T648 911T662 897T667 884T670 865T672 838Q672 821 671 809T666 788T657 777T646 773Q637 773 620 784T576 807T513 831T429 842Q387 842 355 833T303 806T272 764T261 712Q261 673 281 647T333 600T406 564T489 531T573 493T647 442T698 370T718 270ZM787 1372Q794 1381 799 1386T814 1395T835 1400T867 1402Q893 1402 908 1399T927 1389T928 1372T913 1346L748 1117Q742 1109 735 1104T718 1097T692 1093T655 1091Q634 1091 620 1092T596 1097T579 1105T567 1117L402 1346Q391 1360 387 1371T388 1388T407 1398T448 1402Q469 1402 481 1401T502 1396T515 1387T527 1372L657 1191L787 1372Z"/><glyph unicode="Ţ" horiz-adv-x="998" d="M983 1220Q983 1201 981 1187T975 1165T964 1152T949 1148H585V26Q585 18 581 12T567 3T541 -3T499 -6Q475 -6 458 -4T431 2T417 12T413 26V1148H49Q41 1148 35 1152T24 1164T18 1187T15 1220Q15 1239 17 1253T24 1277T34 1290T49 1294H949Q957 1294 963 1290T974 1277T981 1254T983 1220ZM413 -121Q416 -110 422 -103T439 -91T467 -85T512 -83Q538 -83 553 -86T574 -96T581 -111T575 -131L478 -334Q474 -344 468 -350T453 -359T429 -363T395 -365Q374 -365 363 -363T347 -355T343 -342T347 -323L413 -121Z"/><glyph unicode="ţ" horiz-adv-x="686" d="M621 91Q621 62 617 45T605 20T581 5T545 -6T501 -14T455 -17Q385 -17 335 1T253 57T207 152T192 288V814H66Q51 814 42 830T33 882Q33 901 35 914T42 935T52 947T67 951H192V1165Q192 1172 195 1178T208 1188T234 1195T274 1197Q299 1197 315 1195T340 1189T353 1178T357 1165V951H588Q596 951 602 948T612 936T619 914T621 882Q621 846 612 830T588 814H357V312Q357 219 384 172T483 124Q506 124 524 128T556 138T580 147T598 152Q603 152 607 150T614 140T619 121T621 91ZM320 -121Q323 -110 329 -103T346 -91T374 -85T419 -83Q445 -83 460 -86T481 -96T488 -111T482 -131L385 -334Q381 -344 375 -350T360 -359T336 -363T302 -365Q281 -365 270 -363T254 -355T250 -342T254 -323L320 -121Z"/><glyph unicode="Ť" horiz-adv-x="998" d="M983 1220Q983 1201 981 1187T975 1165T964 1152T949 1148H585V26Q585 18 581 12T567 3T541 -3T499 -6Q475 -6 458 -4T431 2T417 12T413 26V1148H49Q41 1148 35 1152T24 1164T18 1187T15 1220Q15 1239 17 1253T24 1277T34 1290T49 1294H949Q957 1294 963 1290T974 1277T981 1254T983 1220ZM492 1395Q471 1395 457 1396T433 1400T415 1409T398 1424L184 1651Q175 1661 173 1668T177 1680T197 1687T233 1689Q263 1689 281 1688T310 1684T327 1676T339 1666L493 1494L653 1662Q660 1670 668 1675T688 1684T718 1688T763 1689Q787 1689 801 1687T821 1680T824 1668T813 1651L590 1424Q582 1415 573 1410T553 1401T528 1396T492 1395Z"/><glyph unicode="ť" horiz-adv-x="708" d="M621 91Q621 62 617 45T605 20T581 5T545 -6T501 -14T455 -17Q385 -17 335 1T253 57T207 152T192 288V814H66Q51 814 42 830T33 882Q33 901 35 914T42 935T52 947T67 951H192V1165Q192 1172 195 1178T208 1188T234 1195T274 1197Q299 1197 315 1195T340 1189T353 1178T357 1165V951H588Q596 951 602 948T612 936T619 914T621 882Q621 846 612 830T588 814H357V312Q357 219 384 172T483 124Q506 124 524 128T556 138T580 147T598 152Q603 152 607 150T614 140T619 121T621 91ZM574 1439Q577 1449 583 1456T599 1467T625 1473T665 1475Q688 1475 700 1473T719 1467T726 1455T724 1438L599 1126Q597 1119 593 1115T580 1108T558 1104T523 1103Q508 1103 499 1105T486 1111T481 1120T482 1134L574 1439Z"/><glyph unicode="Ū" horiz-adv-x="1314" d="M1145 478Q1145 360 1111 268T1012 111T856 14T647 -19Q540 -19 452 12T301 103T204 255T170 465V1268Q170 1276 174 1282T188 1291T214 1297T256 1300Q280 1300 297 1298T323 1292T337 1282T341 1268V486Q341 396 363 329T426 218T526 151T658 128Q733 128 791 150T890 216T952 325T974 477V1268Q974 1276 978 1282T992 1291T1018 1297T1060 1300Q1084 1300 1100 1298T1126 1292T1140 1282T1145 1268V478ZM929 1590Q936 1590 942 1586T952 1574T958 1554T960 1524Q960 1507 959 1495T953 1474T942 1461T929 1457H383Q375 1457 369 1461T358 1473T352 1494T350 1524Q350 1540 352 1553T358 1574T368 1586T383 1590H929Z"/><glyph unicode="ū" horiz-adv-x="1076" d="M924 25Q924 17 921 12T908 2T885 -4T849 -6Q826 -6 812 -4T789 2T777 11T774 25V144Q697 59 622 20T470 -19Q380 -19 319 11T219 92T165 212T148 379V925Q148 933 151 938T165 948T191 954T231 956Q255 956 271 955T296 949T310 939T314 925V401Q314 322 325 275T360 194T420 142T504 123Q566 123 627 167T758 296V925Q758 933 761 938T775 948T800 954T841 956Q865 956 881 955T906 949T919 939T924 925V25ZM778 1293Q786 1293 792 1290T801 1279T807 1259T810 1228Q810 1211 808 1200T802 1180T792 1168T778 1164H299Q291 1164 285 1168T274 1180T268 1199T266 1228Q266 1246 268 1258T274 1278T284 1289T299 1293H778Z"/><glyph unicode="Ů" horiz-adv-x="1314" d="M1145 478Q1145 360 1111 268T1012 111T856 14T647 -19Q540 -19 452 12T301 103T204 255T170 465V1268Q170 1276 174 1282T188 1291T214 1297T256 1300Q280 1300 297 1298T323 1292T337 1282T341 1268V486Q341 396 363 329T426 218T526 151T658 128Q733 128 791 150T890 216T952 325T974 477V1268Q974 1276 978 1282T992 1291T1018 1297T1060 1300Q1084 1300 1100 1298T1126 1292T1140 1282T1145 1268V478ZM859 1551Q859 1509 845 1474T803 1414T738 1375T651 1360Q600 1360 563 1373T500 1411T463 1469T451 1544Q451 1587 464 1622T505 1681T570 1720T658 1734Q755 1734 807 1686T859 1551ZM747 1545Q747 1587 726 1615T655 1644Q609 1644 586 1619T562 1551Q562 1505 583 1478T657 1451Q703 1451 725 1477T747 1545Z"/><glyph unicode="ů" horiz-adv-x="1076" d="M924 25Q924 17 921 12T908 2T885 -4T849 -6Q826 -6 812 -4T789 2T777 11T774 25V144Q697 59 622 20T470 -19Q380 -19 319 11T219 92T165 212T148 379V925Q148 933 151 938T165 948T191 954T231 956Q255 956 271 955T296 949T310 939T314 925V401Q314 322 325 275T360 194T420 142T504 123Q566 123 627 167T758 296V925Q758 933 761 938T775 948T800 954T841 956Q865 956 881 955T906 949T919 939T924 925V25ZM735 1258Q735 1217 721 1184T681 1125T618 1087T534 1073Q485 1073 449 1086T389 1122T354 1178T342 1251Q342 1291 355 1325T393 1383T456 1421T542 1434Q634 1434 684 1387T735 1258ZM629 1251Q629 1292 608 1320T537 1349Q493 1349 471 1324T448 1257Q448 1213 468 1186T540 1158Q584 1158 606 1184T629 1251Z"/><glyph unicode="Ű" horiz-adv-x="1314" d="M1145 478Q1145 360 1111 268T1012 111T856 14T647 -19Q540 -19 452 12T301 103T204 255T170 465V1268Q170 1276 174 1282T188 1291T214 1297T256 1300Q280 1300 297 1298T323 1292T337 1282T341 1268V486Q341 396 363 329T426 218T526 151T658 128Q733 128 791 150T890 216T952 325T974 477V1268Q974 1276 978 1282T992 1291T1018 1297T1060 1300Q1084 1300 1100 1298T1126 1292T1140 1282T1145 1268V478ZM533 1416Q526 1409 519 1405T501 1398T476 1396T443 1395Q411 1395 399 1404T397 1429L566 1663Q572 1671 580 1676T600 1685T629 1690T672 1692Q710 1692 732 1689T764 1680T770 1665T756 1645L533 1416ZM913 1417Q906 1409 899 1405T883 1398T860 1396T826 1395Q807 1395 794 1397T774 1403T765 1413T769 1427L948 1664Q953 1671 961 1676T983 1685T1015 1690T1061 1692Q1094 1692 1114 1689T1143 1679T1152 1666T1142 1650L913 1417Z"/><glyph unicode="ű" horiz-adv-x="1076" d="M924 25Q924 17 921 12T908 2T885 -4T849 -6Q826 -6 812 -4T789 2T777 11T774 25V144Q697 59 622 20T470 -19Q380 -19 319 11T219 92T165 212T148 379V925Q148 933 151 938T165 948T191 954T231 956Q255 956 271 955T296 949T310 939T314 925V401Q314 322 325 275T360 194T420 142T504 123Q566 123 627 167T758 296V925Q758 933 761 938T775 948T800 954T841 956Q865 956 881 955T906 949T919 939T924 925V25ZM428 1088Q423 1082 417 1078T403 1072T382 1068T353 1067Q334 1067 323 1068T305 1073T299 1083T303 1097L474 1355Q479 1363 486 1368T504 1377T530 1382T569 1384Q600 1384 619 1381T646 1372T652 1356T639 1334L428 1088ZM766 1088Q760 1081 753 1077T737 1071T716 1068T687 1067Q653 1067 640 1074T636 1096L818 1358Q823 1366 829 1370T847 1378T875 1382T918 1384Q946 1384 963 1381T988 1372T994 1356T981 1335L766 1088Z"/><glyph unicode="Ų" horiz-adv-x="1314" d="M1145 478Q1145 341 1100 240T962 69Q946 58 934 48T906 23T870 -11T817 -63L767 -112Q743 -136 736 -155T729 -188Q729 -215 747 -228T802 -241H915Q922 -241 927 -243T935 -250T940 -265T942 -291Q942 -306 940 -315T935 -331T926 -340T909 -347Q877 -356 841 -360T763 -365Q670 -365 618 -327T566 -214Q566 -200 568 -184T578 -149T601 -108T642 -60L690 -13Q681 -14 668 -16T639 -18Q572 -18 511 -5T398 35T304 102T232 195T186 316T170 465V1269Q170 1276 174 1282T188 1292T214 1298T256 1300Q280 1300 297 1298T323 1292T337 1282T341 1269V480Q341 393 363 327T426 217T526 151T658 128Q733 128 791 150T890 216T952 325T974 477V1269Q974 1276 978 1282T992 1292T1019 1298T1061 1300Q1086 1300 1102 1298T1127 1292T1140 1282T1145 1269V478Z"/><glyph unicode="ų" horiz-adv-x="1076" d="M986 -291Q986 -306 985 -315T980 -331T970 -341T953 -349Q927 -358 898 -361T831 -365Q783 -365 747 -355T685 -326T647 -280T634 -217Q634 -196 637 -177T650 -140T676 -101T719 -54L779 5V144H776Q700 59 624 20T470 -19Q380 -19 319 11T219 92T165 212T148 379V925Q148 933 151 938T165 948T191 954T231 956Q255 956 271 955T296 949T310 939T314 925V401Q314 322 325 275T360 194T420 142T504 123Q566 123 628 167T758 296V925Q758 933 761 938T775 948T801 954T841 956Q865 956 881 955T906 949T919 939T924 925V32Q924 21 923 11T919 -9T911 -30T894 -51L827 -118Q808 -138 800 -154T792 -191Q792 -217 810 -230T866 -243H958Q973 -243 979 -252T986 -291Z"/><glyph unicode="Ÿ" horiz-adv-x="998" d="M585 503V26Q585 18 581 12T567 3T540 -3T499 -6Q474 -6 458 -4T431 2T416 12T412 26V503L46 1233Q35 1256 33 1269T37 1289T64 1298T117 1300Q147 1300 165 1298T195 1293T211 1283T222 1266L401 894Q426 841 451 783T502 666H504Q527 723 551 779T601 891L781 1265Q784 1275 789 1282T804 1292T831 1298T874 1300Q910 1300 930 1298T959 1288T965 1268T951 1233L585 503ZM391 1529Q391 1473 370 1452T293 1431Q237 1431 217 1451T197 1527Q197 1583 217 1603T294 1624Q350 1624 370 1604T391 1529ZM804 1529Q804 1473 784 1452T706 1431Q651 1431 631 1451T610 1527Q610 1583 631 1603T707 1624Q764 1624 784 1604T804 1529Z"/><glyph unicode="Ź" horiz-adv-x="959" d="M916 72Q916 53 914 40T908 17T897 4T881 0H117Q91 0 75 16T59 67V104Q59 117 60 128T67 151T81 179T103 216L700 1150H110Q100 1150 93 1154T82 1166T75 1188T73 1220Q73 1240 75 1254T81 1277T93 1290T110 1294H830Q857 1294 872 1279T888 1231V1192Q888 1176 886 1164T879 1138T866 1110T843 1075L249 145H881Q898 145 907 128T916 72ZM580 1651Q591 1664 601 1671T625 1682T656 1687T699 1689Q729 1689 746 1685T770 1673T775 1657T763 1638L536 1426Q526 1416 518 1411T498 1402T473 1397T437 1395Q414 1395 401 1397T383 1405T380 1419T391 1438L580 1651Z"/><glyph unicode="ź" horiz-adv-x="809" d="M727 70Q727 51 724 38T717 16T706 4T691 0H137Q116 0 103 14T89 61V95Q89 109 91 120T97 142T108 165T125 194L522 812H137Q121 812 112 828T102 882Q102 900 104 913T110 935T121 947T137 951H653Q664 951 672 948T687 938T696 920T700 892V860Q700 846 698 834T692 811T681 786T664 757L269 139H691Q699 139 705 136T716 124T724 103T727 70ZM471 1365Q477 1376 485 1383T504 1394T533 1400T574 1402Q602 1402 619 1399T644 1389T650 1374T641 1356L460 1123Q452 1113 446 1107T431 1098T409 1093T375 1091Q353 1091 340 1094T322 1102T317 1115T326 1134L471 1365Z"/><glyph unicode="Ż" horiz-adv-x="959" d="M916 72Q916 53 914 40T908 17T897 4T881 0H117Q91 0 75 16T59 67V104Q59 117 60 128T67 151T81 179T103 216L700 1150H110Q100 1150 93 1154T82 1166T75 1188T73 1220Q73 1240 75 1254T81 1277T93 1290T110 1294H830Q857 1294 872 1279T888 1231V1192Q888 1176 886 1164T879 1138T866 1110T843 1075L249 145H881Q898 145 907 128T916 72ZM584 1529Q584 1473 562 1452T483 1431Q427 1431 406 1451T385 1527Q385 1582 406 1603T485 1625Q541 1625 562 1604T584 1529Z"/><glyph unicode="ż" horiz-adv-x="809" d="M727 70Q727 51 724 38T717 16T706 4T691 0H137Q116 0 103 14T89 61V95Q89 109 91 120T97 142T108 165T125 194L522 812H137Q121 812 112 828T102 882Q102 900 104 913T110 935T121 947T137 951H653Q664 951 672 948T687 938T696 920T700 892V860Q700 846 698 834T692 811T681 786T664 757L269 139H691Q699 139 705 136T716 124T724 103T727 70ZM514 1232Q514 1176 492 1155T413 1134Q357 1134 336 1154T315 1229Q315 1285 336 1306T415 1327Q471 1327 492 1307T514 1232Z"/><glyph unicode="Ž" horiz-adv-x="959" d="M916 72Q916 53 914 40T908 17T897 4T881 0H117Q91 0 75 16T59 67V104Q59 117 60 128T67 151T81 179T103 216L700 1150H110Q100 1150 93 1154T82 1166T75 1188T73 1220Q73 1240 75 1254T81 1277T93 1290T110 1294H830Q857 1294 872 1279T888 1231V1192Q888 1176 886 1164T879 1138T866 1110T843 1075L249 145H881Q898 145 907 128T916 72ZM477 1395Q456 1395 442 1396T418 1400T400 1409T383 1424L169 1651Q160 1661 158 1668T162 1680T182 1687T218 1689Q248 1689 266 1688T295 1684T312 1676T324 1666L478 1494L638 1662Q645 1670 653 1675T673 1684T703 1688T748 1689Q772 1689 786 1687T806 1680T809 1668T798 1651L575 1424Q567 1415 558 1410T538 1401T513 1396T477 1395Z"/><glyph unicode="ž" horiz-adv-x="809" d="M727 70Q727 51 724 38T717 16T706 4T691 0H137Q116 0 103 14T89 61V95Q89 109 91 120T97 142T108 165T125 194L522 812H137Q121 812 112 828T102 882Q102 900 104 913T110 935T121 947T137 951H653Q664 951 672 948T687 938T696 920T700 892V860Q700 846 698 834T692 811T681 786T664 757L269 139H691Q699 139 705 136T716 124T724 103T727 70ZM541 1372Q548 1381 553 1386T568 1395T589 1400T621 1402Q647 1402 662 1399T681 1389T682 1372T667 1346L502 1117Q496 1109 489 1104T472 1097T446 1093T409 1091Q388 1091 374 1092T350 1097T333 1105T321 1117L156 1346Q145 1360 141 1371T142 1388T161 1398T202 1402Q223 1402 235 1401T256 1396T269 1387T281 1372L411 1191L541 1372Z"/><glyph unicode="ƒ" horiz-adv-x="1020" d="M925 1276Q925 1251 922 1237T914 1214T904 1202T893 1199Q885 1199 873 1203T845 1213T810 1222T767 1227Q720 1227 687 1215T630 1178T593 1112T572 1014L539 774H795Q803 774 809 771T819 759T826 738T828 706Q828 670 820 654T795 637H520L388 -320Q388 -328 383 -334T368 -344T340 -350T298 -352Q273 -352 258 -350T233 -344T221 -333T219 -319L351 637H143Q127 637 118 653T109 706Q109 724 111 737T118 759T129 770T143 774H371L404 1024Q416 1117 445 1182T520 1289T624 1349T757 1368Q783 1368 808 1365T854 1356T890 1344T911 1332T918 1323T922 1313T924 1298T925 1276Z"/><glyph unicode="Ș" horiz-adv-x="941" d="M867 363Q867 272 834 201T741 81T601 6T427 -19Q362 -19 307 -8T208 19T135 52T94 81T77 111T71 161Q71 183 73 197T79 221T89 233T103 237Q117 237 142 220T208 183T304 146T435 128Q491 128 537 143T617 185T669 253T687 344Q687 399 662 438T596 506T503 560T395 610T288 667T195 740T129 838T103 974Q103 1055 132 1118T214 1225T339 1290T496 1313Q539 1313 582 1306T664 1286T733 1258T772 1233T785 1218T790 1204T793 1183T794 1152Q794 1134 793 1120T788 1097T780 1083T767 1078Q756 1078 733 1092T675 1123T595 1155T490 1170Q436 1170 396 1156T330 1117T291 1060T278 990Q278 936 303 897T369 828T464 773T572 723T680 667T774 595T841 497T867 363ZM373 -121Q376 -110 382 -103T399 -91T427 -85T472 -83Q498 -83 513 -86T534 -96T541 -111T535 -131L438 -334Q434 -344 428 -350T413 -359T389 -363T355 -365Q334 -365 323 -363T307 -355T303 -342T307 -323L373 -121Z"/><glyph unicode="ș" horiz-adv-x="801" d="M718 270Q718 201 693 147T620 56T508 0T365 -19Q317 -19 274 -12T196 7T137 31T102 54T86 82T81 131Q81 150 83 163T88 184T96 195T109 199Q120 199 141 186T194 156T269 127T368 113Q410 113 444 122T503 148T541 193T555 257Q555 295 536 321T484 367T412 402T330 435T247 473T174 526T123 600T103 703Q103 756 123 804T185 889T287 948T431 970Q467 970 503 964T568 949T617 930T648 911T662 897T667 884T670 865T672 838Q672 821 671 809T666 788T657 777T646 773Q637 773 620 784T576 807T513 831T429 842Q387 842 355 833T303 806T272 764T261 712Q261 673 281 647T333 600T406 564T489 531T573 493T647 442T698 370T718 270ZM303 -121Q306 -110 312 -103T329 -91T357 -85T402 -83Q428 -83 443 -86T464 -96T471 -111T465 -131L368 -334Q364 -344 358 -350T343 -359T319 -363T285 -365Q264 -365 253 -363T237 -355T233 -342T237 -323L303 -121Z"/><glyph unicode="Ț" horiz-adv-x="998" d="M983 1220Q983 1201 981 1187T975 1165T964 1152T949 1148H585V26Q585 18 581 12T567 3T541 -3T499 -6Q475 -6 458 -4T431 2T417 12T413 26V1148H49Q41 1148 35 1152T24 1164T18 1187T15 1220Q15 1239 17 1253T24 1277T34 1290T49 1294H949Q957 1294 963 1290T974 1277T981 1254T983 1220ZM413 -121Q416 -110 422 -103T439 -91T467 -85T512 -83Q538 -83 553 -86T574 -96T581 -111T575 -131L478 -334Q474 -344 468 -350T453 -359T429 -363T395 -365Q374 -365 363 -363T347 -355T343 -342T347 -323L413 -121Z"/><glyph unicode="ț" horiz-adv-x="686" d="M621 91Q621 62 617 45T605 20T581 5T545 -6T501 -14T455 -17Q385 -17 335 1T253 57T207 152T192 288V814H66Q51 814 42 830T33 882Q33 901 35 914T42 935T52 947T67 951H192V1165Q192 1172 195 1178T208 1188T234 1195T274 1197Q299 1197 315 1195T340 1189T353 1178T357 1165V951H588Q596 951 602 948T612 936T619 914T621 882Q621 846 612 830T588 814H357V312Q357 219 384 172T483 124Q506 124 524 128T556 138T580 147T598 152Q603 152 607 150T614 140T619 121T621 91ZM320 -121Q323 -110 329 -103T346 -91T374 -85T419 -83Q445 -83 460 -86T481 -96T488 -111T482 -131L385 -334Q381 -344 375 -350T360 -359T336 -363T302 -365Q281 -365 270 -363T254 -355T250 -342T254 -323L320 -121Z"/><glyph unicode="ˆ" horiz-adv-x="809" d="M274 1121Q268 1111 262 1106T248 1097T227 1093T195 1091Q168 1091 154 1094T134 1104T133 1121T149 1147L314 1376Q319 1384 326 1388T343 1396T369 1400T407 1402Q428 1402 442 1401T466 1396T482 1388T494 1376L659 1147Q670 1132 674 1122T674 1105T654 1095T613 1091Q592 1091 580 1092T559 1097T546 1106T534 1121L404 1301L274 1121Z"/><glyph unicode="ˇ" horiz-adv-x="809" d="M534 1372Q541 1381 546 1386T561 1395T582 1400T614 1402Q640 1402 655 1399T674 1389T675 1372T660 1346L495 1117Q489 1109 482 1104T465 1097T439 1093T402 1091Q381 1091 367 1092T343 1097T326 1105T314 1117L149 1346Q138 1360 134 1371T135 1388T154 1398T195 1402Q216 1402 228 1401T249 1396T262 1387T274 1372L404 1191L534 1372Z"/><glyph unicode="ˉ" horiz-adv-x="807" d="M644 1293Q652 1293 658 1290T667 1279T673 1259T676 1228Q676 1211 674 1200T668 1180T658 1168T644 1164H165Q157 1164 151 1168T140 1180T134 1199T132 1228Q132 1246 134 1258T140 1278T150 1289T165 1293H644Z"/><glyph unicode="˘" horiz-adv-x="780" d="M530 1365Q530 1380 542 1387T588 1395Q607 1395 618 1394T636 1389T645 1380T648 1367Q648 1299 632 1249T583 1164T502 1113T389 1096Q321 1096 273 1114T193 1166T147 1250T132 1364Q132 1380 144 1387T190 1395Q208 1395 219 1393T237 1388T247 1379T250 1365Q253 1331 261 1303T286 1254T328 1224T389 1213Q419 1213 444 1221T487 1248T517 1295T530 1365Z"/><glyph unicode="˙" horiz-adv-x="462" d="M331 1232Q331 1176 309 1155T230 1134Q174 1134 153 1154T132 1229Q132 1285 153 1306T232 1327Q288 1327 309 1307T331 1232Z"/><glyph unicode="˚" horiz-adv-x="657" d="M525 1258Q525 1217 511 1184T471 1125T408 1087T324 1073Q275 1073 239 1086T179 1122T144 1178T132 1251Q132 1291 145 1325T183 1383T246 1421T332 1434Q424 1434 474 1387T525 1258ZM419 1251Q419 1292 398 1320T327 1349Q283 1349 261 1324T238 1257Q238 1213 258 1186T330 1158Q374 1158 396 1184T419 1251Z"/><glyph unicode="˛" horiz-adv-x="639" d="M444 0L339 -105Q309 -135 301 -154T292 -191Q292 -217 310 -230T365 -243H479Q486 -243 492 -245T501 -252T506 -266T508 -291Q508 -306 506 -315T501 -331T491 -340T475 -347Q442 -356 408 -360T333 -365Q288 -365 251 -355T187 -326T147 -279T132 -213Q132 -197 134 -181T145 -145T168 -105T210 -57L267 0H444Z"/><glyph unicode="˜" horiz-adv-x="922" d="M794 1314Q794 1208 742 1152T601 1096Q564 1096 535 1105T482 1130T438 1162T399 1194T360 1218T319 1228Q279 1228 263 1199T247 1122Q247 1115 245 1110T237 1101T218 1097T186 1096Q170 1096 159 1097T142 1103T132 1116T129 1138Q129 1237 179 1296T322 1355Q376 1355 415 1335T485 1290T544 1244T604 1223Q640 1223 658 1249T677 1328Q677 1344 687 1349T733 1355Q770 1355 782 1348T794 1314Z"/><glyph unicode="˝" horiz-adv-x="961" d="M262 1088Q257 1082 251 1078T237 1072T216 1068T187 1067Q168 1067 157 1068T139 1073T133 1083T137 1097L308 1355Q313 1363 320 1368T338 1377T364 1382T403 1384Q434 1384 453 1381T480 1372T486 1356T473 1334L262 1088ZM600 1088Q594 1081 587 1077T571 1071T550 1068T521 1067Q487 1067 474 1074T470 1096L652 1358Q657 1366 663 1370T681 1378T709 1382T752 1384Q780 1384 797 1381T822 1372T828 1356T815 1335L600 1088Z"/><glyph unicode="̒" horiz-adv-x="561" d="M305 1102Q299 1092 293 1085T276 1074T248 1069T206 1067Q178 1067 162 1070T139 1079T132 1093T140 1112L283 1353Q289 1363 296 1369T314 1378T340 1383T378 1384Q396 1384 407 1382T423 1374T429 1360T424 1342L305 1102Z"/><glyph unicode="̕" horiz-adv-x="511" d="M226 1315Q229 1325 235 1332T251 1343T277 1349T317 1351Q340 1351 352 1349T371 1343T378 1331T376 1314L251 1002Q249 995 245 991T232 984T210 980T175 979Q160 979 151 981T138 987T133 996T134 1010L226 1315Z"/><glyph unicode="̦" horiz-adv-x="503" d="M203 -121Q206 -110 212 -103T229 -91T257 -85T302 -83Q328 -83 343 -86T364 -96T371 -111T365 -131L268 -334Q264 -344 258 -350T243 -359T219 -363T185 -365Q164 -365 153 -363T137 -355T133 -342T137 -323L203 -121Z"/><glyph unicode="΄" horiz-adv-x="649" d="M317 1114Q315 1107 310 1103T295 1096T272 1092T238 1091Q207 1091 193 1098T183 1122L262 1408Q268 1428 288 1435T356 1443Q380 1443 395 1441T419 1435T429 1423T427 1406L317 1114Z"/><glyph unicode="΅" horiz-adv-x="1012" d="M538 1114Q534 1102 519 1097T466 1091Q438 1091 426 1098T416 1122L482 1408Q484 1419 489 1425T504 1436T529 1441T567 1443Q588 1443 602 1441T623 1435T632 1424T630 1407L538 1114ZM313 1212Q313 1160 295 1141T227 1122Q177 1122 160 1140T142 1210Q142 1263 160 1282T227 1301Q278 1301 295 1282T313 1212ZM874 1212Q874 1160 856 1141T788 1122Q738 1122 721 1140T703 1210Q703 1263 721 1282T788 1301Q839 1301 856 1282T874 1212Z"/><glyph unicode="Ά" horiz-adv-x="1185" d="M1141 61Q1149 39 1149 26T1142 5T1116 -4T1066 -6Q1035 -6 1017 -5T989 0T975 10T966 25L855 340H317L211 29Q208 20 203 14T189 3T162 -4T116 -6Q87 -6 69 -4T43 6T35 26T44 62L478 1264Q482 1275 488 1282T507 1293T539 1298T589 1300Q621 1300 642 1299T676 1293T696 1282T707 1263L1141 61ZM584 1122H583L360 477H810L584 1122ZM454 1114Q452 1107 447 1103T432 1096T409 1092T375 1091Q344 1091 330 1098T320 1122L399 1408Q405 1428 425 1435T493 1443Q517 1443 532 1441T556 1435T566 1423T564 1406L454 1114Z"/><glyph unicode="Έ" horiz-adv-x="1000" d="M892 71Q892 53 890 40T883 17T872 4T857 0H236Q213 0 193 15T172 70V1224Q172 1263 192 1278T236 1294H850Q858 1294 864 1290T875 1277T881 1255T884 1221Q884 1203 882 1190T875 1168T865 1155T850 1151H344V745H778Q786 745 792 741T803 728T810 706T812 673Q812 655 810 642T804 621T793 610T778 606H344V143H857Q865 143 871 139T883 127T890 105T892 71ZM4 1114Q2 1107 -3 1103T-18 1096T-41 1092T-75 1091Q-106 1091 -120 1098T-130 1122L-51 1408Q-45 1428 -25 1435T43 1443Q67 1443 82 1441T106 1435T116 1423T114 1406L4 1114Z"/><glyph unicode="Ή" horiz-adv-x="1276" d="M1104 26Q1104 18 1100 12T1086 3T1060 -3T1019 -6Q993 -6 977 -4T951 2T937 12T933 26V600H344V26Q344 18 340 12T326 3T300 -3T258 -6Q234 -6 217 -4T190 2T176 12T172 26V1268Q172 1276 176 1282T190 1291T217 1297T258 1300Q283 1300 299 1298T326 1292T340 1282T344 1268V750H933V1268Q933 1276 937 1282T951 1291T977 1297T1019 1300Q1043 1300 1059 1298T1086 1292T1100 1282T1104 1268V26ZM-37 1114Q-39 1107 -44 1103T-59 1096T-82 1092T-116 1091Q-147 1091 -161 1098T-171 1122L-92 1408Q-86 1428 -66 1435T2 1443Q26 1443 41 1441T65 1435T75 1423T73 1406L-37 1114Z"/><glyph unicode="Ί" horiz-adv-x="516" d="M344 26Q344 18 340 12T326 3T300 -3T258 -6Q234 -6 217 -4T190 2T176 12T172 26V1268Q172 1276 176 1282T191 1291T218 1297T258 1300Q283 1300 299 1298T326 1292T340 1282T344 1268V26ZM-17 1114Q-19 1107 -24 1103T-39 1096T-62 1092T-96 1091Q-127 1091 -141 1098T-151 1122L-72 1408Q-66 1428 -46 1435T22 1443Q46 1443 61 1441T85 1435T95 1423T93 1406L-17 1114Z"/><glyph unicode="Ό" horiz-adv-x="1356" d="M1256 662Q1256 505 1219 379T1109 165T924 29T665 -19Q519 -19 413 24T237 151T133 357T99 640Q99 793 136 918T247 1130T432 1265T691 1313Q834 1313 940 1270T1116 1145T1221 941T1256 662ZM1075 650Q1075 760 1056 854T991 1018T869 1127T681 1166Q569 1166 493 1124T370 1012T302 849T281 652Q281 538 300 442T364 277T484 169T674 130Q787 130 864 172T988 285T1055 451T1075 650ZM83 1114Q81 1107 76 1103T61 1096T38 1092T4 1091Q-27 1091 -41 1098T-51 1122L28 1408Q34 1428 54 1435T122 1443Q146 1443 161 1441T185 1435T195 1423T193 1406L83 1114Z"/><glyph unicode="Ύ" horiz-adv-x="998" d="M585 503V26Q585 18 581 12T567 3T540 -3T499 -6Q474 -6 458 -4T431 2T416 12T412 26V503L46 1233Q35 1256 33 1269T37 1289T64 1298T117 1300Q147 1300 165 1298T195 1293T211 1283T222 1266L401 894Q426 841 451 783T502 666H504Q527 723 551 779T601 891L781 1265Q784 1275 789 1282T804 1292T831 1298T874 1300Q910 1300 930 1298T959 1288T965 1268T951 1233L585 503ZM-85 1114Q-87 1107 -92 1103T-107 1096T-130 1092T-164 1091Q-195 1091 -209 1098T-219 1122L-140 1408Q-134 1428 -114 1435T-46 1443Q-22 1443 -7 1441T17 1435T27 1423T25 1406L-85 1114Z"/><glyph unicode="Ώ" horiz-adv-x="1360" d="M1262 72Q1262 53 1260 40T1254 17T1243 4T1229 0H849Q824 0 808 16T792 67V104Q792 118 794 129T801 151T816 173T863 209T945 280T1019 385T1063 518T1077 687Q1077 750 1068 810T1040 924T991 1021T918 1098T817 1148T685 1166Q611 1166 553 1147T449 1094T372 1014T321 915T292 804T283 689Q283 588 296 513T339 381T413 279T495 209T542 173T557 150T564 128T566 104V67Q566 32 550 16T509 0H129Q120 0 114 4T103 17T97 39T94 72Q94 111 103 128T129 145H377Q314 181 263 233T175 351T120 499T101 677Q101 815 139 931T253 1133T438 1265T694 1313Q834 1313 940 1269T1116 1143T1222 948T1258 697Q1258 595 1239 510T1183 355T1096 233T981 145H1229Q1245 145 1253 128T1262 72ZM54 1114Q52 1107 47 1103T32 1096T9 1092T-25 1091Q-56 1091 -70 1098T-80 1122L-1 1408Q5 1428 25 1435T93 1443Q117 1443 132 1441T156 1435T166 1423T164 1406L54 1114Z"/><glyph unicode="ΐ" horiz-adv-x="562" d="M562 87Q562 53 558 38T546 15T524 2T488 -8T445 -14T400 -16Q332 -16 285 2T207 59T162 155T148 293V925Q148 933 151 938T164 948T190 954T230 956Q255 956 271 955T296 949T309 939T314 925V315Q314 269 319 234T338 174T373 137T429 125Q456 125 474 128T504 134T525 141T540 144Q546 144 550 142T556 133T560 115T562 87ZM297 1114Q293 1102 278 1097T225 1091Q197 1091 185 1098T175 1122L241 1408Q243 1419 248 1425T263 1436T288 1441T326 1443Q347 1443 361 1441T382 1435T391 1424T389 1407L297 1114ZM72 1212Q72 1160 54 1141T-14 1122Q-64 1122 -81 1140T-99 1210Q-99 1263 -81 1282T-14 1301Q37 1301 54 1282T72 1212ZM633 1212Q633 1160 615 1141T547 1122Q497 1122 480 1140T462 1210Q462 1263 480 1282T547 1301Q598 1301 615 1282T633 1212Z"/><glyph unicode="Α" horiz-adv-x="1185" d="M1141 61Q1149 39 1149 26T1142 5T1116 -4T1066 -6Q1035 -6 1017 -5T989 0T975 10T966 25L855 340H317L211 29Q208 20 203 14T189 3T162 -4T116 -6Q87 -6 69 -4T43 6T35 26T44 62L478 1264Q482 1275 488 1282T507 1293T539 1298T589 1300Q621 1300 642 1299T676 1293T696 1282T707 1263L1141 61ZM584 1122H583L360 477H810L584 1122Z"/><glyph unicode="Β" horiz-adv-x="1114" d="M1025 371Q1025 310 1010 259T966 166T899 94T810 42T704 11T574 0H236Q213 0 193 15T172 70V1224Q172 1263 192 1278T236 1294H530Q646 1294 720 1272T843 1208T918 1105T943 967Q943 921 932 879T900 802T846 738T771 692Q824 682 870 656T950 588T1005 492T1025 371ZM766 950Q766 997 753 1035T712 1099T639 1140T520 1154H342V735H538Q605 735 646 752T714 799T753 868T766 950ZM844 361Q844 419 826 463T772 537T683 582T548 598H342V142H592Q651 142 695 156T772 197T825 266T844 361Z"/><glyph unicode="Γ" horiz-adv-x="851" d="M846 1223Q846 1204 844 1190T838 1168T827 1155T812 1151H344V26Q344 18 340 12T326 3T300 -3T258 -6Q234 -6 217 -4T190 2T176 12T172 26V1220Q172 1260 193 1277T240 1294H812Q820 1294 826 1290T837 1278T844 1255T846 1223Z"/><glyph unicode="Δ" horiz-adv-x="1156" d="M1098 67Q1098 33 1081 17T1038 0H117Q91 0 75 16T58 67V88Q58 102 59 114T64 140T74 174T90 221L464 1264Q468 1275 474 1282T493 1293T525 1298T576 1300Q609 1300 629 1299T663 1293T682 1282T693 1263L1066 223Q1076 194 1082 174T1092 140T1097 113T1098 88V67ZM570 1119H569L238 143H908L570 1119Z"/><glyph unicode="Ε" horiz-adv-x="1000" d="M892 71Q892 53 890 40T883 17T872 4T857 0H236Q213 0 193 15T172 70V1224Q172 1263 192 1278T236 1294H850Q858 1294 864 1290T875 1277T881 1255T884 1221Q884 1203 882 1190T875 1168T865 1155T850 1151H344V745H778Q786 745 792 741T803 728T810 706T812 673Q812 655 810 642T804 621T793 610T778 606H344V143H857Q865 143 871 139T883 127T890 105T892 71Z"/><glyph unicode="Ζ" horiz-adv-x="959" d="M916 72Q916 53 914 40T908 17T897 4T881 0H117Q91 0 75 16T59 67V104Q59 117 60 128T67 151T81 179T103 216L700 1150H110Q100 1150 93 1154T82 1166T75 1188T73 1220Q73 1240 75 1254T81 1277T93 1290T110 1294H830Q857 1294 872 1279T888 1231V1192Q888 1176 886 1164T879 1138T866 1110T843 1075L249 145H881Q898 145 907 128T916 72Z"/><glyph unicode="Η" horiz-adv-x="1276" d="M1104 26Q1104 18 1100 12T1086 3T1060 -3T1019 -6Q993 -6 977 -4T951 2T937 12T933 26V600H344V26Q344 18 340 12T326 3T300 -3T258 -6Q234 -6 217 -4T190 2T176 12T172 26V1268Q172 1276 176 1282T190 1291T217 1297T258 1300Q283 1300 299 1298T326 1292T340 1282T344 1268V750H933V1268Q933 1276 937 1282T951 1291T977 1297T1019 1300Q1043 1300 1059 1298T1086 1292T1100 1282T1104 1268V26Z"/><glyph unicode="Θ" horiz-adv-x="1356" d="M1256 664Q1256 506 1219 380T1108 165T924 29T665 -19Q519 -19 413 24T237 150T133 357T99 639Q99 793 136 917T247 1129T432 1265T691 1313Q831 1313 937 1271T1115 1147T1221 944T1256 664ZM1075 652Q1075 762 1056 856T991 1019T869 1127T681 1166Q569 1166 493 1124T370 1012T302 849T281 651Q281 537 300 442T364 277T484 169T674 130Q787 130 864 172T988 286T1055 452T1075 652ZM903 661Q903 642 901 629T895 607T884 594T870 590H481Q473 590 467 594T457 607T450 629T448 661Q448 680 450 693T456 715T467 728T481 732H870Q877 732 883 728T894 716T901 694T903 661Z"/><glyph unicode="Ι" horiz-adv-x="516" d="M344 26Q344 18 340 12T326 3T300 -3T258 -6Q234 -6 217 -4T190 2T176 12T172 26V1268Q172 1276 176 1282T191 1291T218 1297T258 1300Q283 1300 299 1298T326 1292T340 1282T344 1268V26Z"/><glyph unicode="Κ" horiz-adv-x="1064" d="M1016 28Q1016 20 1013 14T999 3T972 -3T928 -6Q893 -6 871 -3T838 8T820 26L344 673V26Q344 19 340 13T326 3T300 -3T258 -6Q234 -6 217 -4T190 2T176 12T172 26V1268Q172 1276 176 1282T190 1291T217 1297T258 1300Q283 1300 299 1298T326 1292T340 1282T344 1268V693L802 1268Q808 1277 816 1283T835 1292T863 1298T906 1300Q932 1300 948 1298T973 1291T986 1281T990 1268Q990 1255 984 1242T959 1206L530 693L992 79Q1009 53 1012 44T1016 28Z"/><glyph unicode="Λ" horiz-adv-x="1173" d="M1126 61Q1134 39 1134 26T1127 5T1099 -4T1045 -6Q1013 -6 996 -5T969 0T957 10T951 26L578 1119H577L213 28Q210 18 206 12T193 1T166 -4T120 -6Q89 -6 71 -4T45 6T37 25T47 62L473 1264Q476 1275 483 1282T502 1293T534 1298T583 1300Q605 1300 621 1300T650 1297T671 1293T685 1286T695 1276T701 1263L1126 61Z"/><glyph unicode="Μ" horiz-adv-x="1751" d="M1579 26Q1579 18 1575 12T1561 3T1536 -3T1495 -6Q1472 -6 1456 -4T1430 2T1416 12T1412 26V1153H1410L949 21Q946 14 941 9T925 1T900 -4T865 -6Q844 -6 829 -4T804 1T789 10T781 21L340 1153H339V26Q339 18 335 12T321 3T295 -3T254 -6Q230 -6 214 -4T189 2T176 12T172 26V1216Q172 1258 194 1276T243 1294H347Q379 1294 403 1288T445 1269T475 1236T496 1189L871 252H876L1266 1186Q1277 1216 1290 1237T1318 1270T1353 1288T1397 1294H1506Q1521 1294 1534 1290T1557 1276T1573 1252T1579 1216V26Z"/><glyph unicode="Ν" horiz-adv-x="1322" d="M1150 71Q1150 51 1144 37T1127 14T1103 1T1077 -3H1022Q996 -3 977 2T940 22T905 62T866 126L458 862Q426 919 394 981T333 1103H331Q333 1031 334 956T335 807V26Q335 19 331 13T318 3T293 -3T253 -6Q229 -6 214 -4T189 2T176 12T172 26V1220Q172 1260 194 1277T242 1294H324Q353 1294 372 1289T407 1273T437 1241T469 1189L783 621Q812 569 839 520T891 422T940 328T989 234H990Q988 313 988 398T987 563V1265Q987 1272 991 1278T1004 1288T1029 1295T1070 1297Q1092 1297 1108 1295T1133 1289T1146 1278T1150 1265V71Z"/><glyph unicode="Ξ" horiz-adv-x="1007" d="M908 1217Q908 1177 900 1159T874 1141H133Q116 1141 108 1159T99 1217Q99 1259 107 1276T133 1294H874Q882 1294 888 1290T899 1276T906 1253T908 1217ZM806 670Q806 633 798 616T772 598H231Q222 598 216 602T206 615T199 637T197 670Q197 690 199 704T205 727T216 740T231 744H772Q780 744 786 740T797 727T804 704T806 670ZM924 77Q924 37 915 19T889 0H118Q101 0 92 18T83 77Q83 119 92 136T118 154H889Q905 154 914 137T924 77Z"/><glyph unicode="Ο" horiz-adv-x="1356" d="M1256 662Q1256 505 1219 379T1109 165T924 29T665 -19Q519 -19 413 24T237 151T133 357T99 640Q99 793 136 918T247 1130T432 1265T691 1313Q834 1313 940 1270T1116 1145T1221 941T1256 662ZM1075 650Q1075 760 1056 854T991 1018T869 1127T681 1166Q569 1166 493 1124T370 1012T302 849T281 652Q281 538 300 442T364 277T484 169T674 130Q787 130 864 172T988 285T1055 451T1075 650Z"/><glyph unicode="Π" horiz-adv-x="1276" d="M1104 25Q1104 17 1100 12T1086 2T1060 -4T1019 -6Q993 -6 977 -4T951 2T937 11T933 25V1144H344V25Q344 17 340 12T326 2T300 -4T258 -6Q234 -6 217 -4T190 2T176 11T172 25V1220Q172 1260 193 1277T240 1294H1037Q1063 1294 1083 1277T1104 1220V25Z"/><glyph unicode="Ρ" horiz-adv-x="1058" d="M967 915Q967 818 935 740T844 607T698 522T491 492H344V26Q344 18 340 12T326 3T300 -3T258 -6Q233 -6 217 -4T190 2T176 12T172 26V1220Q172 1260 193 1277T240 1294H517Q559 1294 597 1291T688 1276T795 1233T888 1155T946 1049T967 915ZM786 901Q786 980 757 1033T684 1112T594 1145T503 1152H344V633H499Q577 633 628 653T715 708T768 793T786 901Z"/><glyph unicode="Σ" horiz-adv-x="939" d="M853 71Q853 53 851 40T844 17T833 4T818 0H127Q102 0 86 16T70 67V95Q70 111 71 123T76 149T90 176T115 210L478 686L145 1084Q130 1101 122 1113T109 1138T102 1165T100 1199V1228Q100 1260 115 1277T158 1294H811Q818 1294 824 1290T835 1277T842 1255T844 1221Q844 1203 842 1190T836 1168T825 1155T811 1151H306L630 765Q637 756 642 749T650 733T654 716T655 693Q655 682 654 673T650 655T642 639T630 622L267 143H818Q826 143 832 139T843 127T850 105T853 71Z"/><glyph unicode="Τ" horiz-adv-x="998" d="M983 1220Q983 1201 981 1187T975 1165T964 1152T949 1148H585V26Q585 18 581 12T567 3T541 -3T499 -6Q475 -6 458 -4T431 2T417 12T413 26V1148H49Q41 1148 35 1152T24 1164T18 1187T15 1220Q15 1239 17 1253T24 1277T34 1290T49 1294H949Q957 1294 963 1290T974 1277T981 1254T983 1220Z"/><glyph unicode="Υ" horiz-adv-x="998" d="M585 503V26Q585 18 581 12T567 3T540 -3T499 -6Q474 -6 458 -4T431 2T416 12T412 26V503L46 1233Q35 1256 33 1269T37 1289T64 1298T117 1300Q147 1300 165 1298T195 1293T211 1283T222 1266L401 894Q426 841 451 783T502 666H504Q527 723 551 779T601 891L781 1265Q784 1275 789 1282T804 1292T831 1298T874 1300Q910 1300 930 1298T959 1288T965 1268T951 1233L585 503Z"/><glyph unicode="Φ" horiz-adv-x="1555" d="M1465 655Q1465 515 1426 403T1310 210T1121 83T863 29V-71Q863 -78 859 -84T845 -94T819 -100T777 -102Q753 -102 737 -100T710 -94T696 -84T692 -71V29Q543 34 431 78T243 201T129 389T90 637Q90 778 129 890T246 1082T435 1209T692 1264V1352Q692 1360 696 1365T710 1374T736 1380T777 1383Q802 1383 818 1381T845 1375T859 1366T863 1352V1264Q1012 1258 1125 1214T1313 1091T1427 902T1465 655ZM1285 643Q1285 741 1262 825T1190 974T1059 1076T863 1121V172Q979 177 1059 217T1190 321T1262 469T1285 643ZM692 1121Q575 1115 495 1075T364 970T292 822T270 649Q270 551 293 467T365 319T496 216T692 172V1121Z"/><glyph unicode="Χ" horiz-adv-x="1063" d="M996 62Q1009 40 1011 27T1005 7T976 -3T921 -6Q889 -6 871 -5T843 1T827 10T817 25L529 540L238 25Q233 16 227 10T211 1T182 -4T134 -6Q101 -6 82 -4T56 6T50 27T66 62L419 657L82 1232Q70 1254 67 1267T71 1288T99 1298T154 1300Q184 1300 203 1299T233 1294T249 1284T260 1269L538 785L814 1269Q819 1277 824 1283T838 1293T865 1298T911 1300Q942 1300 961 1298T989 1288T996 1268T982 1232L646 661L996 62Z"/><glyph unicode="Ψ" horiz-adv-x="1536" d="M1374 776Q1374 658 1337 565T1232 405T1066 303T845 264V25Q845 17 841 11T827 2T801 -4T759 -6Q734 -6 718 -4T692 1T678 11T673 25V264Q548 267 450 300T284 395T180 549T144 758V1269Q144 1276 148 1282T162 1292T188 1298T230 1300Q255 1300 271 1298T298 1292T312 1282T316 1269V773Q316 690 338 624T404 511T515 439T673 411V1269Q673 1276 677 1282T692 1292T719 1298T759 1300Q784 1300 800 1298T827 1292T841 1282T845 1269V411Q935 412 1002 438T1113 511T1180 623T1203 769V1269Q1203 1276 1207 1282T1221 1292T1247 1298T1289 1300Q1313 1300 1329 1298T1355 1292T1369 1282T1374 1269V776Z"/><glyph unicode="Ω" horiz-adv-x="1360" d="M1262 72Q1262 53 1260 40T1254 17T1243 4T1229 0H849Q824 0 808 16T792 67V104Q792 118 794 129T801 151T816 173T863 209T945 280T1019 385T1063 518T1077 687Q1077 750 1068 810T1040 924T991 1021T918 1098T817 1148T685 1166Q611 1166 553 1147T449 1094T372 1014T321 915T292 804T283 689Q283 588 296 513T339 381T413 279T495 209T542 173T557 150T564 128T566 104V67Q566 32 550 16T509 0H129Q120 0 114 4T103 17T97 39T94 72Q94 111 103 128T129 145H377Q314 181 263 233T175 351T120 499T101 677Q101 815 139 931T253 1133T438 1265T694 1313Q834 1313 940 1269T1116 1143T1222 948T1258 697Q1258 595 1239 510T1183 355T1096 233T981 145H1229Q1245 145 1253 128T1262 72Z"/><glyph unicode="Ϊ" horiz-adv-x="516" d="M344 26Q344 18 340 12T326 3T300 -3T258 -6Q234 -6 217 -4T190 2T176 12T172 26V1268Q172 1276 176 1282T191 1291T218 1297T258 1300Q283 1300 299 1298T326 1292T340 1282T344 1268V26ZM152 1529Q152 1473 131 1452T54 1431Q-2 1431 -22 1451T-42 1527Q-42 1583 -22 1603T55 1624Q111 1624 131 1604T152 1529ZM565 1529Q565 1473 545 1452T467 1431Q412 1431 392 1451T371 1527Q371 1583 392 1603T468 1624Q525 1624 545 1604T565 1529Z"/><glyph unicode="Ϋ" horiz-adv-x="998" d="M585 503V26Q585 18 581 12T567 3T540 -3T499 -6Q474 -6 458 -4T431 2T416 12T412 26V503L46 1233Q35 1256 33 1269T37 1289T64 1298T117 1300Q147 1300 165 1298T195 1293T211 1283T222 1266L401 894Q426 841 451 783T502 666H504Q527 723 551 779T601 891L781 1265Q784 1275 789 1282T804 1292T831 1298T874 1300Q910 1300 930 1298T959 1288T965 1268T951 1233L585 503ZM390 1529Q390 1473 369 1452T292 1431Q236 1431 216 1451T196 1527Q196 1583 216 1603T293 1624Q349 1624 369 1604T390 1529ZM803 1529Q803 1473 783 1452T705 1431Q650 1431 630 1451T609 1527Q609 1583 630 1603T706 1624Q763 1624 783 1604T803 1529Z"/><glyph unicode="ά" horiz-adv-x="1162" d="M1121 77Q1121 46 1118 31T1108 10T1089 -1T1059 -9T1023 -15T985 -18Q948 -18 913 -9T851 22T804 82T779 178Q760 135 730 99T661 37T573 -4T470 -19Q370 -19 299 18T184 120T118 274T97 465Q97 581 123 674T200 833T327 934T501 970Q565 970 621 950T720 889T791 790T828 651Q845 723 854 776T868 864T875 919T882 943Q885 945 890 947T903 952T924 955T954 956Q978 956 993 955T1018 949T1031 939T1035 926Q1035 910 1030 877T1016 798T994 699T967 590T935 482T900 385Q901 300 910 249T934 169T969 131T1009 121Q1027 121 1042 124T1068 131T1088 137T1103 141Q1108 141 1111 139T1116 129T1120 110T1121 77ZM734 481Q734 575 715 642T663 751T590 813T503 833Q440 833 396 803T323 724T281 611T268 482Q268 411 278 346T314 230T382 149T491 118Q550 118 595 145T671 220T718 334T734 477V481ZM639 1114Q637 1107 632 1103T617 1096T594 1092T560 1091Q529 1091 515 1098T505 1122L584 1408Q590 1428 610 1435T678 1443Q702 1443 717 1441T741 1435T751 1423T749 1406L639 1114Z"/><glyph unicode="έ" horiz-adv-x="933" d="M831 135Q831 119 830 107T827 87T822 73T808 59T764 36T683 8T585 -12T483 -19Q384 -19 310 1T187 59T113 147T89 259Q89 301 102 339T139 408T199 462T277 500Q233 519 204 539T157 585T131 639T123 703Q123 760 147 809T220 894T337 950T496 970Q546 970 595 962T686 942T759 915T799 893T812 878T817 863T820 842T821 811Q821 794 820 782T815 762T808 751T796 747Q786 747 762 761T699 792T609 823T492 837Q439 837 401 826T338 796T302 751T290 698Q290 667 305 641T348 597T414 569T501 559H669Q677 559 683 556T694 545T700 525T703 496Q703 479 701 467T694 448T684 438T668 434H484Q426 434 384 422T315 389T274 339T260 274Q260 240 274 211T319 161T396 129T508 117Q569 117 621 129T711 157T773 186T806 199Q813 199 818 196T826 185T830 165T831 135ZM552 1114Q550 1107 545 1103T530 1096T507 1092T473 1091Q442 1091 428 1098T418 1122L497 1408Q503 1428 523 1435T591 1443Q615 1443 630 1441T654 1435T664 1423T662 1406L552 1114Z"/><glyph unicode="ή" horiz-adv-x="1100" d="M928 -333Q928 -341 924 -346T911 -356T886 -362T845 -364Q821 -364 805 -362T780 -356T767 -347T763 -333V552Q763 629 751 676T716 757T657 809T572 827Q510 827 448 783T318 654V25Q318 17 314 12T301 2T276 -4T235 -6Q211 -6 195 -4T170 2T157 11T153 25V925Q153 933 156 938T168 948T191 954T228 956Q250 956 264 955T287 949T298 939T302 925V806Q378 891 453 930T606 970Q696 970 757 940T857 858T911 739T928 574V-333ZM632 1114Q630 1107 625 1103T610 1096T587 1092T553 1091Q522 1091 508 1098T498 1122L577 1408Q583 1428 603 1435T671 1443Q695 1443 710 1441T734 1435T744 1423T742 1406L632 1114Z"/><glyph unicode="ί" horiz-adv-x="562" d="M562 87Q562 53 558 38T546 15T524 2T488 -8T445 -14T400 -16Q332 -16 285 2T207 59T162 155T148 293V925Q148 933 151 938T164 948T190 954T230 956Q255 956 271 955T296 949T309 939T314 925V315Q314 269 319 234T338 174T373 137T429 125Q456 125 474 128T504 134T525 141T540 144Q546 144 550 142T556 133T560 115T562 87ZM553 1114Q551 1107 546 1103T531 1096T508 1092T474 1091Q443 1091 429 1098T419 1122L498 1408Q504 1428 524 1435T592 1443Q616 1443 631 1441T655 1435T665 1423T663 1406L553 1114Z"/><glyph unicode="ΰ" horiz-adv-x="1109" d="M947 516Q947 393 919 294T835 126T699 19T515 -19Q410 -19 340 10T226 94T163 224T144 394Q144 441 145 485T149 574T152 662T154 753Q154 766 154 787T151 838T147 891T144 925Q144 933 147 939T160 949T185 954T221 956Q246 956 262 955T288 949T303 939T308 925Q315 878 317 833T320 761Q320 670 315 586T310 412Q310 339 322 285T361 193T428 138T524 119Q585 119 633 141T714 210T764 330T782 505Q782 554 779 607T770 713T755 819T737 919Q735 929 738 936T751 947T777 954T818 956Q842 956 858 955T884 949T898 939T904 925Q913 877 921 825T935 720T944 616T947 516ZM560 1114Q556 1102 541 1097T488 1091Q460 1091 448 1098T438 1122L504 1408Q506 1419 511 1425T526 1436T551 1441T589 1443Q610 1443 624 1441T645 1435T654 1424T652 1407L560 1114ZM335 1212Q335 1160 317 1141T249 1122Q199 1122 182 1140T164 1210Q164 1263 182 1282T249 1301Q300 1301 317 1282T335 1212ZM896 1212Q896 1160 878 1141T810 1122Q760 1122 743 1140T725 1210Q725 1263 743 1282T810 1301Q861 1301 878 1282T896 1212Z"/><glyph unicode="α" horiz-adv-x="1162" d="M1121 77Q1121 46 1118 31T1108 10T1089 -1T1059 -9T1023 -15T985 -18Q948 -18 913 -9T851 22T804 82T779 178Q760 135 730 99T661 37T573 -4T470 -19Q370 -19 299 18T184 120T118 274T97 465Q97 581 123 674T200 833T327 934T501 970Q565 970 621 950T720 889T791 790T828 651Q845 723 854 776T868 864T875 919T882 943Q885 945 890 947T903 952T924 955T954 956Q978 956 993 955T1018 949T1031 939T1035 926Q1035 910 1030 877T1016 798T994 699T967 590T935 482T900 385Q901 300 910 249T934 169T969 131T1009 121Q1027 121 1042 124T1068 131T1088 137T1103 141Q1108 141 1111 139T1116 129T1120 110T1121 77ZM734 481Q734 575 715 642T663 751T590 813T503 833Q440 833 396 803T323 724T281 611T268 482Q268 411 278 346T314 230T382 149T491 118Q550 118 595 145T671 220T718 334T734 477V481Z"/><glyph unicode="β" horiz-adv-x="1088" d="M990 408Q990 320 965 243T888 107T756 16T563 -18Q524 -18 488 -13T421 3T362 27T312 60Q315 30 316 -3T318 -69V-332Q318 -340 314 -346T301 -356T276 -362T235 -364Q211 -364 195 -362T170 -356T157 -346T153 -332V973Q153 1075 181 1154T260 1288T383 1372T542 1401Q634 1401 701 1374T812 1299T876 1192T897 1067Q897 961 850 882T709 766Q778 757 830 725T918 645T972 536T990 408ZM814 395Q814 454 800 503T754 589T673 645T550 665H464Q447 665 439 681T430 733Q430 751 432 764T439 785T449 797T463 801H483Q549 801 595 821T671 876T713 956T726 1050Q726 1093 716 1132T684 1200T624 1246T535 1263Q480 1263 439 1243T372 1186T332 1095T318 974V213Q373 167 434 146T555 124Q623 124 672 143T753 198T799 283T814 395Z"/><glyph unicode="γ" horiz-adv-x="914" d="M840 925Q840 810 819 698T752 471T634 239T458 -2Q463 -47 466 -90T472 -176T474 -257T475 -332Q475 -340 471 -345T458 -354T433 -358T393 -360Q369 -360 353 -359T328 -354T315 -346T311 -332Q311 -259 308 -197T298 -75T284 41T263 163T232 301T187 464T124 663T37 902Q24 935 39 945T114 956Q142 956 160 955T189 949T205 940T215 925Q267 787 304 671T366 461T403 300T419 191Q484 280 532 370T611 551T658 736T674 925Q674 941 694 948T762 956Q787 956 802 955T825 949T837 939T840 925Z"/><glyph unicode="δ" horiz-adv-x="1072" d="M965 442Q965 348 936 265T850 118T712 18T523 -19Q410 -19 329 13T195 104T118 243T93 423Q93 586 174 717T403 926Q360 955 332 983T287 1040T263 1098T256 1161Q256 1214 277 1258T338 1333T437 1382T568 1400Q623 1400 675 1392T770 1373T838 1351T873 1334T886 1321T893 1306T896 1286T897 1257Q897 1241 896 1229T891 1210T882 1200T871 1196Q863 1196 836 1207T770 1233T680 1259T575 1271Q537 1271 510 1263T465 1242T439 1210T430 1171Q430 1153 433 1138T445 1107T471 1074T515 1034T581 983T684 912T800 818T890 709T946 585T965 442ZM792 422Q792 481 781 531T739 630T656 726T521 830Q466 803 419 765T338 677T286 568T267 435Q267 369 280 312T325 211T407 144T532 119Q589 119 636 140T718 201T772 297T792 422Z"/><glyph unicode="ε" horiz-adv-x="933" d="M831 135Q831 119 830 107T827 87T822 73T808 59T764 36T683 8T585 -12T483 -19Q384 -19 310 1T187 59T113 147T89 259Q89 301 102 339T139 408T199 462T277 500Q233 519 204 539T157 585T131 639T123 703Q123 760 147 809T220 894T337 950T496 970Q546 970 595 962T686 942T759 915T799 893T812 878T817 863T820 842T821 811Q821 794 820 782T815 762T808 751T796 747Q786 747 762 761T699 792T609 823T492 837Q439 837 401 826T338 796T302 751T290 698Q290 667 305 641T348 597T414 569T501 559H669Q677 559 683 556T694 545T700 525T703 496Q703 479 701 467T694 448T684 438T668 434H484Q426 434 384 422T315 389T274 339T260 274Q260 240 274 211T319 161T396 129T508 117Q569 117 621 129T711 157T773 186T806 199Q813 199 818 196T826 185T830 165T831 135Z"/><glyph unicode="ζ" horiz-adv-x="712" d="M712 -80Q712 -121 701 -162T675 -239T644 -298T624 -329T611 -338T593 -344T568 -348T534 -349Q516 -349 505 -348T486 -343T477 -335T474 -326Q474 -322 488 -302T519 -252T550 -184T564 -103Q564 -66 545 -47T494 -15T421 4T333 24T242 60T161 124T101 229T78 378Q78 471 108 576T193 786T321 986T483 1159H126Q110 1159 102 1175T93 1226Q93 1244 95 1257T101 1278T111 1290T126 1294H657Q666 1294 672 1291T683 1281T689 1260T691 1226Q691 1210 689 1199T684 1180T674 1166T609 1108T473 957T343 756T269 563T246 403Q246 331 260 287T303 214T373 169T460 143T551 120T631 85T689 23T712 -80Z"/><glyph unicode="η" horiz-adv-x="1100" d="M928 -333Q928 -341 924 -346T911 -356T886 -362T845 -364Q821 -364 805 -362T780 -356T767 -347T763 -333V552Q763 629 751 676T716 757T657 809T572 827Q510 827 448 783T318 654V25Q318 17 314 12T301 2T276 -4T235 -6Q211 -6 195 -4T170 2T157 11T153 25V925Q153 933 156 938T168 948T191 954T228 956Q250 956 264 955T287 949T298 939T302 925V806Q378 891 453 930T606 970Q696 970 757 940T857 858T911 739T928 574V-333Z"/><glyph unicode="θ" horiz-adv-x="1089" d="M993 701Q993 508 961 372T870 148T727 21T537 -19Q431 -19 349 19T211 140T125 357T96 681Q96 874 127 1010T217 1233T360 1360T551 1400Q656 1400 738 1362T877 1240T963 1023T993 701ZM819 771Q815 887 799 978T750 1132T667 1228T545 1262Q474 1262 424 1230T340 1135T289 981T268 771H819ZM268 643Q270 520 286 423T334 258T418 156T543 120Q616 120 667 155T752 257T802 421T820 643H268Z"/><glyph unicode="ι" horiz-adv-x="562" d="M562 87Q562 53 558 38T546 15T524 2T488 -8T445 -14T400 -16Q332 -16 285 2T207 59T162 155T148 293V925Q148 933 151 938T164 948T190 954T230 956Q255 956 271 955T296 949T309 939T314 925V315Q314 269 319 234T338 174T373 137T429 125Q456 125 474 128T504 134T525 141T540 144Q546 144 550 142T556 133T560 115T562 87Z"/><glyph unicode="κ" horiz-adv-x="931" d="M886 26Q886 18 882 12T867 2T839 -4T795 -6Q768 -6 751 -5T723 1T705 11T693 26L318 490V25Q318 17 314 12T301 2T276 -4T235 -6Q211 -6 195 -4T170 2T157 11T153 25V925Q153 933 156 938T169 948T195 954T235 956Q260 956 276 955T301 949T314 939T318 925V512L675 924Q682 933 689 939T707 949T733 954T772 956Q796 956 813 955T841 949T857 940T862 927Q862 921 861 915T856 901T847 884T832 865L503 514L859 81Q867 71 872 63T880 48T884 36T886 26Z"/><glyph unicode="λ" horiz-adv-x="948" d="M940 65Q940 51 939 41T937 23T933 11T927 2T914 -5T892 -11T868 -15T842 -17Q797 -17 763 -8T702 25T656 90T617 194L451 742L205 32Q201 20 196 13T179 1T150 -4T103 -6Q73 -6 55 -4T28 6T21 25T30 58L377 964L351 1042Q304 1187 276 1223T193 1259Q165 1259 133 1251T94 1242Q89 1242 86 1244T80 1252T76 1269T75 1297Q75 1327 78 1343T88 1367T109 1380T144 1390T184 1396T218 1398Q272 1398 315 1386T393 1340T458 1245T518 1086L781 235Q791 200 801 179T821 146T845 130T876 125Q888 125 898 126T915 128Q922 128 927 126T934 118T938 99T940 65Z"/><glyph unicode="μ" horiz-adv-x="1126" d="M1104 76Q1104 45 1101 29T1090 7T1073 -3T1046 -11T1014 -16T977 -18Q893 -18 843 18T777 142Q704 58 632 22T490 -15Q432 -15 386 1T308 56Q310 34 311 9T315 -43T317 -96T318 -144V-332Q318 -340 314 -346T301 -356T276 -362T235 -364Q211 -364 195 -362T170 -356T157 -346T153 -332V925Q153 933 156 938T169 948T195 954T235 956Q260 956 276 955T301 949T314 939T318 925V359Q318 248 367 186T509 124Q571 124 632 167T763 296V925Q763 933 767 938T780 948T805 954T846 956Q870 956 886 955T911 949T924 939T928 925V271Q928 230 932 202T945 156T969 131T1009 123Q1025 123 1037 125T1057 129T1072 133T1086 135Q1090 135 1093 133T1099 124T1103 107T1104 76Z"/><glyph unicode="ν" horiz-adv-x="919" d="M865 924Q865 873 855 809T825 673T779 520T716 357T639 193T572 68T537 14T516 1T489 -4T447 -6Q417 -6 398 -4T367 2T349 13T340 30L44 885Q40 896 37 908T34 926Q34 935 38 941T51 950T77 955T117 956Q145 956 162 955T190 949T204 939T211 924L457 177L459 164L464 177Q515 272 557 373T629 573T674 761T690 924Q690 933 694 939T708 949T735 954T778 956Q801 956 817 955T844 950T860 940T865 924Z"/><glyph unicode="ξ" horiz-adv-x="770" d="M746 -83Q746 -123 735 -164T709 -239T678 -298T657 -329T644 -338T627 -344T602 -348T568 -349Q550 -349 539 -348T520 -343T510 -335T507 -326Q507 -322 521 -302T553 -252T584 -184T598 -102Q598 -67 578 -47T523 -16T444 3T351 25T255 62T163 129T98 230T77 364Q77 423 94 479T143 582T223 667T337 733Q291 743 252 767T183 826T138 910T121 1018Q121 1092 145 1161T220 1283T352 1368T544 1400Q571 1400 594 1399T636 1394T669 1388T686 1380T693 1372T697 1360T699 1341T700 1314Q700 1297 699 1286T694 1267T687 1256T675 1252Q665 1252 655 1254T629 1258T590 1263T531 1265Q466 1265 420 1245T343 1193T298 1118T283 1032Q283 981 301 941T358 871T460 827T615 812H634Q650 812 658 796T666 744Q666 711 658 694T632 677H614Q516 677 447 651T334 583T269 488T248 379Q248 324 262 287T306 220T381 174T475 146T572 122T659 86T722 23T746 -83Z"/><glyph unicode="ο" horiz-adv-x="1080" d="M990 485Q990 375 961 283T875 123T731 19T530 -19Q419 -19 337 14T199 110T117 263T90 467Q90 577 118 669T204 829T348 933T549 970Q660 970 742 937T880 841T962 688T990 485ZM816 474Q816 547 803 612T758 726T674 803T542 832Q469 832 417 806T330 733T280 620T263 478Q263 404 276 339T321 226T406 149T538 120Q610 120 663 146T750 219T800 331T816 474Z"/><glyph unicode="π" horiz-adv-x="1132" d="M1085 86Q1085 56 1081 40T1071 18T1051 6T1020 -4T981 -11T937 -14Q890 -14 850 -5T778 35T726 120T695 267T685 492T702 811H382Q385 649 375 522T350 300T314 141T286 56T272 27T262 12T250 3T234 -2T212 -5T180 -6Q152 -6 136 -5T111 0T99 9T96 19Q96 28 103 48T123 95T155 187T190 338T214 540T223 811H74Q58 811 49 828T40 881Q40 899 42 912T48 934T58 947T74 951H1009Q1018 951 1024 947T1035 935T1042 913T1044 881Q1044 846 1035 829T1009 811H858Q850 650 850 537T856 348T873 228T898 162T929 133T963 127Q991 127 1024 135T1064 144Q1070 144 1073 142T1079 133T1083 115T1085 86Z"/><glyph unicode="ρ" horiz-adv-x="1042" d="M949 483Q949 362 923 269T845 112T716 14T538 -19Q505 -19 470 -14T401 2T336 30T279 70Q281 45 282 19T284 -44V-332Q284 -340 280 -346T267 -356T241 -362T201 -364Q177 -364 161 -362T135 -356T122 -346T118 -332V482Q118 592 144 682T223 836T355 935T542 970Q640 970 715 939T843 846T922 693T949 483ZM774 472Q774 548 762 613T721 727T647 803T535 831Q464 831 417 802T340 723T297 611T284 482V222Q337 172 398 148T522 123Q592 123 640 149T718 221T761 332T774 472Z"/><glyph unicode="ς" horiz-adv-x="841" d="M781 -83Q781 -123 770 -164T743 -239T713 -298T692 -329T681 -338T666 -344T643 -348T606 -349Q587 -349 575 -348T555 -343T545 -335T542 -326Q542 -322 556 -302T586 -252T617 -184T632 -102Q632 -68 612 -49T559 -17T481 5T390 30T295 68T215 125T162 191T126 268T101 364T92 479Q92 605 124 697T212 850T345 940T510 970Q557 970 596 961T668 940T722 913T752 890T763 876T769 862T773 840T775 809Q775 792 773 779T767 756T756 743T742 738Q729 738 712 752T668 783T602 815T508 830Q450 830 405 807T328 741T280 635T263 495Q263 407 285 340T343 237T425 181T520 148T616 121T699 84T758 21T781 -83Z"/></font>
</defs>
</svg>
